<svg viewBox="0 0 50 46" fill="none" xmlns="http://www.w3.org/2000/svg"><path d="M33.998 42.705h-1.997v2.374h1.998v-2.374zM31.998 42.705h-1.997v2.374h1.997v-2.374z" fill="#8EC440"/><path d="M30.001 42.705H28v2.374h2.002v-2.374z" fill="#8EC440"/><path d="M28 42.705h-1.999v2.374h2v-2.374zM25.998 42.705h-1.997v2.374h1.997v-2.374z" fill="#8EC440"/><path d="M24.001 42.705H22v2.374h2.002v-2.374zM22 42.705h-1.998v2.374H22v-2.374zM20 42.705h-1.998v2.374H20v-2.374zM18.001 42.705H16v2.374h2.002v-2.374zM37.998 40.334h-1.997v2.373h1.998v-2.373zM36 40.334h-2.002v2.373H36v-2.373z" fill="#8EC440"/><path d="M33.998 40.334h-1.997v2.373h1.998v-2.373zM31.998 40.334h-1.997v2.373h1.997v-2.373z" fill="#8EC440"/><path d="M30.001 40.334H28v2.373h2.002v-2.373z" fill="#8EC440"/><path d="M28 40.334h-1.999v2.373h2v-2.373zM25.998 40.334h-1.997v2.373h1.997v-2.373z" fill="#8EC440"/><path d="M24.001 40.334H22v2.373h2.002v-2.373zM22 40.334h-1.998v2.373H22v-2.373zM20 40.334h-1.998v2.373H20v-2.373zM18.001 40.334H16v2.373h2.002v-2.373zM16 40.334h-1.998v2.373h1.997v-2.373zM14 40.334h-1.998v2.373h1.997v-2.373zM42 37.962h-2.002v2.372H42v-2.372z" fill="#8EC440"/><path d="M39.998 37.962h-1.997v2.372h1.998v-2.372zM37.998 37.962h-1.997v2.372h1.998v-2.372zM36 37.962h-2.002v2.372H36v-2.372z" fill="#8EC440"/><path d="M33.998 37.962h-1.997v2.372h1.998v-2.372zM31.998 37.962h-1.997v2.372h1.997v-2.372z" fill="#8EC440"/><path d="M30.001 37.962H28v2.372h2.002v-2.372z" fill="#8EC440"/><path d="M28 37.962h-1.999v2.372h2v-2.372zM25.998 37.962h-1.997v2.372h1.997v-2.372z" fill="#8EC440"/><path d="M24.001 37.962H22v2.372h2.002v-2.372zM22 37.962h-1.998v2.372H22v-2.372zM20 37.962h-1.998v2.372H20v-2.372zM18.001 37.962H16v2.372h2.002v-2.372zM16 37.962h-1.998v2.372h1.997v-2.372zM14 37.962h-1.998v2.372h1.997v-2.372zM12.001 37.962H10v2.372h2.002v-2.372zM10 37.962H8.001v2.372h1.997v-2.372zM43.998 35.589H42v2.373h1.998V35.59zM42 35.589h-2.002v2.373H42V35.59z" fill="#8EC440"/><path d="M39.998 35.589h-1.997v2.373h1.998V35.59zM37.998 35.589h-1.997v2.373h1.998V35.59zM36 35.589h-2.002v2.373H36V35.59z" fill="#8EC440"/><path d="M33.998 35.589h-1.997v2.373h1.998V35.59zM31.998 35.589h-1.997v2.373h1.997V35.59z" fill="#8EC440"/><path d="M30.001 35.589H28v2.373h2.002V35.59z" fill="#8EC440"/><path d="M28 35.589h-1.999v2.373h2V35.59zM25.998 35.589h-1.997v2.373h1.997V35.59z" fill="#8EC440"/><path d="M24.001 35.589H22v2.373h2.002V35.59zM22 35.589h-1.998v2.373H22V35.59zM20 35.589h-1.998v2.373H20V35.59zM18.001 35.589H16v2.373h2.002V35.59zM16 35.589h-1.998v2.373h1.997V35.59zM14 35.589h-1.998v2.373h1.997V35.59zM12.001 35.589H10v2.373h2.002V35.59zM10 35.589H8.001v2.373h1.997V35.59zM8 35.589H6.001v2.373h1.997V35.59zM45.998 33.215H44v2.374h1.998v-2.374zM43.998 33.215H42v2.374h1.998v-2.374zM42 33.215h-2.002v2.374H42v-2.374z" fill="#8EC440"/><path d="M39.998 33.215h-1.997v2.374h1.998v-2.374zM37.998 33.215h-1.997v2.374h1.998v-2.374zM36 33.215h-2.002v2.374H36v-2.374z" fill="#8EC440"/><path d="M33.998 33.215h-1.997v2.374h1.998v-2.374zM31.998 33.215h-1.997v2.374h1.997v-2.374z" fill="#8EC440"/><path d="M30.001 33.215H28v2.374h2.002v-2.374z" fill="#8EC440"/><path d="M28 33.215h-1.999v2.374h2v-2.374zM25.998 33.215h-1.997v2.374h1.997v-2.374z" fill="#8EC440"/><path d="M24.001 33.215H22v2.374h2.002v-2.374zM22 33.215h-1.998v2.374H22v-2.374zM20 33.215h-1.998v2.374H20v-2.374zM18.001 33.215H16v2.374h2.002v-2.374zM16 33.215h-1.998v2.374h1.997v-2.374zM14 33.215h-1.998v2.374h1.997v-2.374zM12.001 33.215H10v2.374h2.002v-2.374zM10 33.215H8.001v2.374h1.997v-2.374zM8 33.215H6.001v2.374h1.997v-2.374z" fill="#8EC440"/><path d="M6.004 33.215H4.002v2.374h2.002v-2.374zM48 30.844h-2.002v2.373H48v-2.373zM45.998 30.844H44v2.373h1.998v-2.373zM43.998 30.844H42v2.373h1.998v-2.373zM42 30.844h-2.002v2.373H42v-2.373z" fill="#8EC440"/><path d="M39.998 30.844h-1.997v2.373h1.998v-2.373zM37.998 30.844h-1.997v2.373h1.998v-2.373zM36 30.844h-2.002v2.373H36v-2.373z" fill="#8EC440"/><path d="M33.998 30.844h-1.997v2.373h1.998v-2.373zM31.998 30.844h-1.997v2.373h1.997v-2.373zM20 30.844h-1.998v2.373H20v-2.373zM18.001 30.844H16v2.373h2.002v-2.373zM16 30.844h-1.998v2.373h1.997v-2.373zM14 30.844h-1.998v2.373h1.997v-2.373zM12.001 30.844H10v2.373h2.002v-2.373zM10 30.844H8.001v2.373h1.997v-2.373zM8 30.844H6.001v2.373h1.997v-2.373z" fill="#8EC440"/><path d="M6.004 30.844H4.002v2.373h2.002v-2.373zM4 30.844H2.001v2.373h1.997v-2.373zM48 28.47h-2.002v2.374H48V28.47zM45.998 28.47H44v2.374h1.998V28.47zM43.998 28.47H42v2.374h1.998V28.47zM42 28.47h-2.002v2.374H42V28.47z" fill="#8EC440"/><path d="M39.998 28.47h-1.997v2.374h1.998V28.47zM37.998 28.47h-1.997v2.374h1.998V28.47zM36 28.47h-2.002v2.374H36V28.47zM16 28.47h-1.998v2.374h1.997V28.47zM14 28.47h-1.998v2.374h1.997V28.47zM12.001 28.47H10v2.374h2.002V28.47zM10 28.47H8.001v2.374h1.997V28.47zM8 28.47H6.001v2.374h1.997V28.47z" fill="#8EC440"/><path d="M6.004 28.47H4.002v2.374h2.002V28.47zM4 28.47H2.001v2.374h1.997V28.47zM49.998 26.099H48v2.371h1.998V26.1zM48 26.099h-2.002v2.371H48V26.1zM45.998 26.099H44v2.371h1.998V26.1zM43.998 26.099H42v2.371h1.998V26.1zM42 26.099h-2.002v2.371H42V26.1z" fill="#8EC440"/><path d="M39.998 26.099h-1.997v2.371h1.998V26.1zM37.998 26.099h-1.997v2.371h1.998V26.1zM14 26.099h-1.998v2.371h1.997V26.1zM12.001 26.099H10v2.371h2.002V26.1zM10 26.099H8.001v2.371h1.997V26.1zM8 26.099H6.001v2.371h1.997V26.1z" fill="#8EC440"/><path d="M6.004 26.099H4.002v2.371h2.002V26.1zM4 26.099H2.001v2.371h1.997V26.1z" fill="#8EC440"/><path d="M2.002 26.099H0v2.371h2.002V26.1zM49.998 23.725H48V26.1h1.998v-2.374zM48 23.725h-2.002V26.1H48v-2.374zM45.998 23.725H44V26.1h1.998v-2.374zM43.998 23.725H42V26.1h1.998v-2.374zM42 23.725h-2.002V26.1H42v-2.374z" fill="#8EC440"/><path d="M39.998 23.725h-1.997V26.1h1.998v-2.374zM37.998 23.725h-1.997V26.1h1.998v-2.374zM14 23.725h-1.998V26.1h1.997v-2.374zM12.001 23.725H10V26.1h2.002v-2.374zM10 23.725H8.001V26.1h1.997v-2.374zM8 23.725H6.001V26.1h1.997v-2.374z" fill="#8EC440"/><path d="M6.004 23.725H4.002V26.1h2.002v-2.374zM4 23.725H2.001V26.1h1.997v-2.374z" fill="#8EC440"/><path d="M2.002 23.725H0V26.1h2.002v-2.374zM49.998 21.354H48v2.371h1.998v-2.371zM48 21.354h-2.002v2.371H48v-2.371zM45.998 21.354H44v2.371h1.998v-2.371zM43.998 21.354H42v2.371h1.998v-2.371zM42 21.354h-2.002v2.371H42v-2.371z" fill="#8EC440"/><path d="M39.998 21.354h-1.997v2.371h1.998v-2.371zM37.998 21.354h-1.997v2.371h1.998v-2.371zM14 21.354h-1.998v2.371h1.997v-2.371zM12.001 21.354H10v2.371h2.002v-2.371zM10 21.354H8.001v2.371h1.997v-2.371zM8 21.354H6.001v2.371h1.997v-2.371z" fill="#8EC440"/><path d="M6.004 21.354H4.002v2.371h2.002v-2.371zM4 21.354H2.001v2.371h1.997v-2.371z" fill="#8EC440"/><path d="M2.002 21.354H0v2.371h2.002v-2.371zM49.998 18.98H48v2.374h1.998V18.98zM48 18.98h-2.002v2.374H48V18.98zM45.998 18.98H44v2.374h1.998V18.98zM43.998 18.98H42v2.374h1.998V18.98zM42 18.98h-2.002v2.374H42V18.98z" fill="#8EC440"/><path d="M39.998 18.98h-1.997v2.374h1.998V18.98zM37.998 18.98h-1.997v2.374h1.998V18.98zM14 18.98h-1.998v2.374h1.997V18.98zM12.001 18.98H10v2.374h2.002V18.98zM10 18.98H8.001v2.374h1.997V18.98zM8 18.98H6.001v2.374h1.997V18.98z" fill="#8EC440"/><path d="M6.004 18.98H4.002v2.374h2.002V18.98zM4 18.98H2.001v2.374h1.997V18.98z" fill="#8EC440"/><path d="M2.002 18.98H0v2.374h2.002V18.98zM49.998 16.606H48v2.374h1.998v-2.374zM48 16.606h-2.002v2.374H48v-2.374zM45.998 16.606H44v2.374h1.998v-2.374zM43.998 16.606H42v2.374h1.998v-2.374zM42 16.606h-2.002v2.374H42v-2.374z" fill="#8EC440"/><path d="M39.998 16.606h-1.997v2.374h1.998v-2.374zM37.998 16.606h-1.997v2.374h1.998v-2.374zM14 16.606h-1.998v2.374h1.997v-2.374zM12.001 16.606H10v2.374h2.002v-2.374zM10 16.606H8.001v2.374h1.997v-2.374zM8 16.606H6.001v2.374h1.997v-2.374z" fill="#8EC440"/><path d="M6.004 16.606H4.002v2.374h2.002v-2.374zM4 16.606H2.001v2.374h1.997v-2.374z" fill="#8EC440"/><path d="M2.002 16.606H0v2.374h2.002v-2.374zM49.998 14.235H48v2.371h1.998v-2.371zM48 14.235h-2.002v2.371H48v-2.371zM45.998 14.235H44v2.371h1.998v-2.371zM43.998 14.235H42v2.371h1.998v-2.371zM42 14.235h-2.002v2.371H42v-2.371z" fill="#8EC440"/><path d="M39.998 14.235h-1.997v2.371h1.998v-2.371zM37.998 14.235h-1.997v2.371h1.998v-2.371zM36 14.235h-2.002v2.371H36v-2.371zM16 14.235h-1.998v2.371h1.997v-2.371zM14 14.235h-1.998v2.371h1.997v-2.371zM12.001 14.235H10v2.371h2.002v-2.371zM10 14.235H8.001v2.371h1.997v-2.371zM8 14.235H6.001v2.371h1.997v-2.371z" fill="#8EC440"/><path d="M6.004 14.235H4.002v2.371h2.002v-2.371zM4 14.235H2.001v2.371h1.997v-2.371z" fill="#8EC440"/><path d="M2.002 14.235H0v2.371h2.002v-2.371zM48 11.864h-2.002v2.373H48v-2.373zM45.998 11.864H44v2.373h1.998v-2.373zM43.998 11.864H42v2.373h1.998v-2.373zM42 11.864h-2.002v2.373H42v-2.373z" fill="#8EC440"/><path d="M39.998 11.864h-1.997v2.373h1.998v-2.373zM37.998 11.864h-1.997v2.373h1.998v-2.373zM36 11.864h-2.002v2.373H36v-2.373z" fill="#8EC440"/><path d="M33.998 11.864h-1.997v2.373h1.998v-2.373zM18.001 11.864H16v2.373h2.002v-2.373zM16 11.864h-1.998v2.373h1.997v-2.373zM14 11.864h-1.998v2.373h1.997v-2.373zM12.001 11.864H10v2.373h2.002v-2.373zM10 11.864H8.001v2.373h1.997v-2.373zM8 11.864H6.001v2.373h1.997v-2.373z" fill="#8EC440"/><path d="M6.004 11.864H4.002v2.373h2.002v-2.373zM4 11.864H2.001v2.373h1.997v-2.373zM45.998 9.49H44v2.374h1.998V9.49zM43.998 9.49H42v2.374h1.998V9.49zM42 9.49h-2.002v2.374H42V9.49z" fill="#8EC440"/><path d="M39.998 9.49h-1.997v2.374h1.998V9.49zM37.998 9.49h-1.997v2.374h1.998V9.49zM36 9.49h-2.002v2.374H36V9.49z" fill="#8EC440"/><path d="M33.998 9.49h-1.997v2.374h1.998V9.49zM31.998 9.49h-1.997v2.374h1.997V9.49z" fill="#8EC440"/><path d="M30.001 9.49H28v2.374h2.002V9.49z" fill="#8EC440"/><path d="M28 9.49h-1.999v2.374h2V9.49zM25.998 9.49h-1.997v2.374h1.997V9.49z" fill="#8EC440"/><path d="M24.001 9.49H22v2.374h2.002V9.49zM22 9.49h-1.998v2.374H22V9.49zM20 9.49h-1.998v2.374H20V9.49zM18.001 9.49H16v2.374h2.002V9.49zM16 9.49h-1.998v2.374h1.997V9.49zM14 9.49h-1.998v2.374h1.997V9.49z" fill="#8EC440"/><path d="M39.998 9.49H9.999v26.099h29.999V9.49z" fill="#8EC440"/><path d="M10 9.49H8.001v2.374h1.997V9.49zM8 9.49H6.001v2.374h1.997V9.49z" fill="#8EC440"/><path d="M6.004 9.49H4.002v2.374h2.002V9.49zM43.998 7.116H42V9.49h1.998V7.116zM42 7.116h-2.002V9.49H42V7.116z" fill="#8EC440"/><path d="M39.998 7.116h-1.997V9.49h1.998V7.116zM37.998 7.116h-1.997V9.49h1.998V7.116zM36 7.116h-2.002V9.49H36V7.116z" fill="#8EC440"/><path d="M33.998 7.116h-1.997V9.49h1.998V7.116zM31.998 7.116h-1.997V9.49h1.997V7.116z" fill="#8EC440"/><path d="M30.001 7.116H28V9.49h2.002V7.116z" fill="#8EC440"/><path d="M28 7.116h-1.999V9.49h2V7.116zM25.998 7.116h-1.997V9.49h1.997V7.116z" fill="#8EC440"/><path d="M24.001 7.116H22V9.49h2.002V7.116zM22 7.116h-1.998V9.49H22V7.116zM20 7.116h-1.998V9.49H20V7.116zM18.001 7.116H16V9.49h2.002V7.116zM16 7.116h-1.998V9.49h1.997V7.116zM14 7.116h-1.998V9.49h1.997V7.116zM12.001 7.116H10V9.49h2.002V7.116zM10 7.116H8.001V9.49h1.997V7.116zM8 7.116H6.001V9.49h1.997V7.116zM42 4.745h-2.002v2.374H42V4.745z" fill="#8EC440"/><path d="M39.998 4.745h-1.997v2.374h1.998V4.745zM37.998 4.745h-1.997v2.374h1.998V4.745zM36 4.745h-2.002v2.374H36V4.745z" fill="#8EC440"/><path d="M33.998 4.745h-1.997v2.374h1.998V4.745zM31.998 4.745h-1.997v2.374h1.997V4.745z" fill="#8EC440"/><path d="M30.001 4.745H28v2.374h2.002V4.745z" fill="#8EC440"/><path d="M28 4.745h-1.999v2.374h2V4.745zM25.998 4.745h-1.997v2.374h1.997V4.745z" fill="#8EC440"/><path d="M24.001 4.745H22v2.374h2.002V4.745zM22 4.745h-1.998v2.374H22V4.745zM20 4.745h-1.998v2.374H20V4.745zM18.001 4.745H16v2.374h2.002V4.745zM16 4.745h-1.998v2.374h1.997V4.745zM14 4.745h-1.998v2.374h1.997V4.745zM12.001 4.745H10v2.374h2.002V4.745zM10 4.745H8.001v2.374h1.997V4.745zM39.998 2.374h-1.997v2.371h1.998V2.374zM37.998 2.374h-1.997v2.371h1.998V2.374zM36 2.374h-2.002v2.371H36V2.374z" fill="#8EC440"/><path d="M33.998 2.374h-1.997v2.371h1.998V2.374zM31.998 2.374h-1.997v2.371h1.997V2.374z" fill="#8EC440"/><path d="M30.001 2.374H28v2.371h2.002V2.374z" fill="#8EC440"/><path d="M28 2.374h-1.999v2.371h2V2.374zM25.998 2.374h-1.997v2.371h1.997V2.374z" fill="#8EC440"/><path d="M24.001 2.374H22v2.371h2.002V2.374zM22 2.374h-1.998v2.371H22V2.374zM20 2.374h-1.998v2.371H20V2.374zM18.001 2.374H16v2.371h2.002V2.374zM16 2.374h-1.998v2.371h1.997V2.374zM14 2.374h-1.998v2.371h1.997V2.374zM12.001 2.374H10v2.371h2.002V2.374zM36 0h-2.002v2.374H36V0z" fill="#8EC440"/><path d="M33.998 0h-1.997v2.374h1.998V0zM31.998 0h-1.997v2.374h1.997V0z" fill="#8EC440"/><path d="M31.998 0H16v2.374h16V0zM16 0h-1.998v2.374h1.997V0z" fill="#8EC440"/><path d="M22.085 33.42c-.715.095-1.312-.343-1.8-1.014-1.2-1.648-2.37-3.322-3.622-4.929-.569-.73-1.057-1.516-1.609-2.26-.445-.597-.595-1.351-.333-2.085.473-1.338 1.843-1.569 3.033-.576 1.3 1.083 2.63 2.128 3.935 3.207.281.233.427.25.684-.064 1.283-1.555 2.676-3.01 3.99-4.536a659.049 659.049 0 0 1 6.666-7.67c.553-.622 1.212-.863 1.986-.634.793.233 1.202.814 1.398 1.652.221.943-.024 1.67-.579 2.414-3.783 5.1-7.54 10.221-11.309 15.333-.571.774-1.321 1.202-2.44 1.162z" fill="#fff"/><path d="M17.54 21.113h-2.003v2.174h2.002v-2.174z" fill="#fff"/><path d="M16.537 22.016h-2.002v2.173h2.002v-2.173z" fill="#fff"/><path d="M15.592 23.382H13.59v2.174h2.002v-2.174z" fill="#fff"/><path d="M16.537 25.013h-2.002v2.174h2.002v-2.174z" fill="#fff"/><path d="M17.54 26.099h-2.003v2.174h2.002v-2.174z" fill="#fff"/><path d="M18.494 27.084h-2.002v2.174h2.002v-2.174z" fill="#fff"/><path d="M19.494 28.013h-2.002v2.174h2.002v-2.174z" fill="#fff"/><path d="M20.17 29.258h-2.002v2.174h2.002v-2.174z" fill="#fff"/><path d="M21.001 30.844H19v2.173h2.002v-2.173z" fill="#fff"/><path d="M22.172 31.641H20.17v2.174h2.002v-2.174z" fill="#fff"/><path d="M23.5 32.13h-2.003v2.173H23.5V32.13z" fill="#fff"/><path d="M25.296 31.044h-2.002v2.174h2.002v-2.174z" fill="#fff"/><path d="M26.298 29.956h-2.002v2.174h2.002v-2.174z" fill="#fff"/><path d="M27.3 28.87h-2.003v2.174h2.002V28.87zM28.301 26.642H26.3v2.173H28.3v-2.173z" fill="#fff"/><path d="M29.746 24.91h-2.002v2.174h2.002v-2.173zM32.303 21.454h-2.002v2.173h2.002v-2.173z" fill="#fff"/><path d="M31.303 23.382h-2.002v2.174h2.002v-2.174zM33.796 19.542h-2.002v2.174h2.002v-2.174z" fill="#fff"/><path d="M35.308 17.894h-2.002v2.174h2.002v-2.174z" fill="#fff"/><path d="M36.308 15.72h-2.002v2.174h2.002v-2.173z" fill="#fff"/><path d="M37.003 13.768h-2.002v2.174h2.002v-2.174z" fill="#fff"/><path d="M36.308 11.964h-2.002v2.173h2.002v-2.173zM19.004 22.294h-2.002v2.174h2.002v-2.174z" fill="#fff"/><path d="M20.496 23.382h-2.002v2.174h2.002v-2.174z" fill="#fff"/><path d="M21.496 24.91h-2.002v2.174h2.002v-2.173zM23.5 25.556h-2.003v2.174H23.5v-2.174z" fill="#fff"/><path d="M24.503 24.23h-2.002v2.174h2.002V24.23z" fill="#fff"/><path d="M25.296 23.142h-2.002v2.174h2.002v-2.174z" fill="#fff"/><path d="M26.298 22.016h-2.002v2.173h2.002v-2.173z" fill="#fff"/><path d="M27.3 20.63h-2.003v2.174h2.002V20.63z" fill="#fff"/><path d="M28.301 19.242H26.3v2.174H28.3v-2.174z" fill="#fff"/><path d="M29.301 18.116H27.3v2.174H29.3v-2.174z" fill="#fff"/><path d="M30.301 17.568H28.3v2.174H30.3v-2.174z" fill="#fff"/><path d="M31.303 15.942h-2.002v2.174h2.002v-2.174z" fill="#fff"/><path d="M32.303 14.854h-2.002v2.174h2.002v-2.174z" fill="#fff"/><path d="M33.306 13.768h-2.002v2.174h2.002v-2.174z" fill="#fff"/><path d="M34.305 12.476h-2.002v2.173h2.002v-2.173z" fill="#fff"/></svg>