<svg width="30" height="30" fill="inherit" xmlns="http://www.w3.org/2000/svg"><path d="m0 26.986.005-2.943 3.015.005-.005 2.943L0 26.986zm.005-2.943.005-3.018 3.015.005-.005 3.018-3.015-.005zm0-3.018L.01 18.02l3.015.005-.005 3.004-3.015-.005zM.01 18.02l.005-3.019 3.015.005-.005 3.02L.01 18.02zM.02 12 .025 8.98l3.015.005-.005 3.019-3.015-.005zm0-3.019.005-3.018 3.015.005-.005 3.018L.02 8.98zm.005-3.018L.03 3.019l3.015.005-.005 2.943-3.015-.005zM.03 3.019.035 0 3.05.005l-.005 3.019L.03 3.019zm5.985 23.978L6.01 29.97l-3-.005.005-2.974 3 .006zm-3-.006.005-2.943 3 .005-.005 2.944-3-.006zm.01-8.965.005-3.018 3 .005-.005 3.018-3-.005zm.005-3.018.005-3.004 3 .005-.005 3.004-3-.005zm.005-3.004.005-3.019 3 .005-.005 3.02-3-.006zm.01-8.98L3.05.005l3 .005-.005 3.019-3-.005zM9.03 27l-.005 2.974-3.015-.005.005-2.973 3.015.005zm-3.015-.005.005-2.943 3.015.005-.005 2.944-3.015-.005zm.015-11.983.005-3.004 3.015.005-.005 2.999H6.03zm.015-11.984L6.05.01l3.015.005-.005 3.019-3.015-.005zM11.97 27l-.005 2.974-2.94-.005.005-2.973 2.94.005zm-2.94 0 .005-2.943 2.94.005-.005 2.944L9.03 27zm.005-2.943.005-3.018 2.94.005-.005 3.018-2.94-.005zm.02-18.086.005-2.943 2.94.005-.005 2.943-2.94-.005zm.005-2.943L9.065.01l2.94.005L12 3.034l-2.94-.005zm5.925 23.977-.005 2.974-3.015-.005L11.97 27l3.015.005zm-3.015-.005.005-2.943 3.015.005-.005 2.944L11.97 27zm.005-2.943.005-3.018 3.015.005-.005 3.018-3.015-.005zm.005-3.018.005-3.004 3.015.005-.005 3.004-3.015-.005zm.015-12.045L12 5.977l3.015.005L15.01 9l-3.015-.006zM12 5.977l.005-2.943 3.015.005-.005 2.943L12 5.977zm2.985 21.03.005-2.944 3.015.005L18 27.012l-3.015-.006zm.005-2.944.005-3.018 3.015.005-.005 3.018-3.015-.005zm.025-18.081.005-2.943 3.015.005-.005 2.943-3.015-.005zm0-2.943L15.02.02l3.015.005-.005 3.019-3.015-.005zM21 27.017l-.005 2.973-3-.005.005-2.973 3 .005zm-3-.005.005-2.944 3 .005L21 27.017l-3-.005zm.015-11.984.005-3.004 3 .005-.005 3.004-3-.005zm.015-11.99L18.035.02l3 .005-.005 3.019-3-.005zm5.985 23.984-.005 2.973-3.015-.005.005-2.973 3.015.005zM21 27.017l.005-2.944 3.015.005-.005 2.944L21 27.017zm.015-8.966.005-3.018 3.015.005-.005 3.018-3.015-.005zm0-3.018.005-3.004 3.015.005-.005 3.004-3.015-.005zm.005-3.009.005-3.018 3.015.005-.005 3.018-3.015-.005zm.01-8.98.005-3.019L24.05.03l-.005 3.019-3.015-.005zm5.985 23.978-.005 2.973-3-.005.005-2.973 3 .005zm-3 0 .005-2.944 3 .006-.005 2.943-3-.005zm.005-2.948.005-3.02 3 .006-.005 3.018-3-.005zm.005-3.02.005-3.003 3 .005-.005 3.004-3-.005zm.005-3.003.005-3.018 3 .005-.005 3.018-3-.005zm0-3.018.005-3.004 3 .005-.005 3.004-3-.005zm.005-3.004.005-3.018 3 .005-.005 3.018-3-.005zm.005-3.018.005-3.019 3 .005-.005 3.019-3-.005zm.005-3.019.005-2.943 3 .005-.005 2.943-3-.005zm0-2.943L24.05.03l3 .005-.005 3.019-3-.005zm5.925 23.978L29.965 30l-2.955-.005.005-2.973 2.955.005zm-2.955-.005.005-2.944 2.955.006-.005 2.943-2.955-.005zm.005-2.944.005-3.018 2.955.005-.005 3.018-2.955-.005zm.005-3.018.005-3.004 2.955.005-.005 3.004-2.955-.005zm.005-6.022.005-3.004 2.955.005-.005 3.004-2.955-.005zm.005-3.004.005-3.018 2.955.005-.005 3.018-2.955-.005zm.005-3.018.005-3.019L30 6.002l-.005 3.019-2.955-.005zm.005-3.019.005-2.943 2.955.005L30 6.002l-2.955-.005z" fill="#inherit"/></svg>