<svg viewBox="0 0 334 62" fill="inherit" xmlns="http://www.w3.org/2000/svg"><path d="m56.549 55.54.01-6.058 6.186.01-.01 6.057-6.186-.01zm0-6.058.01-6.212 6.186.01-.01 6.212-6.186-.01zm.01-6.212.01-6.182 6.186.01-.01 6.182-6.186-.01zm.01-6.182.01-6.212 6.186.01-.01 6.213-6.186-.01zm.01-6.212.01-6.182 6.187.01-.01 6.182-6.186-.01zm0-6.182.01-6.212 6.187.01-.01 6.213-6.186-.01zm.01-6.212.011-6.212 6.186.01-.01 6.212-6.186-.01zm.011-6.212.01-6.058 6.186.01-.01 6.058-6.186-.01zm.01-6.058L56.62 0l6.187.01-.01 6.213-6.187-.01zM68.89 55.56l-.011 6.119-6.155-.01.01-6.12 6.155.01zm-6.156-.01.01-6.058 6.156.01-.01 6.058-6.156-.01zm.062-49.327.01-6.213 6.155.01-.01 6.213-6.155-.01zm12.28 49.347-.011 6.12-6.186-.011.01-6.12 6.186.011zm-6.187-.01.01-6.057 6.186.01-.01 6.057-6.186-.01zm.062-49.327.01-6.212 6.186.01-.01 6.212-6.186-.01zM81.106 55.57l-.01 6.12-6.031-.011.01-6.12 6.031.011zm-6.03 0 .01-6.057 6.03.01-.01 6.057-6.03-.01zm0-6.057.01-6.212 6.03.01-.01 6.212-6.03-.01zm.03-18.616.01-6.182 6.031.01-.01 6.182-6.031-.01zm0-6.182.01-6.212 6.031.01-.01 6.212-6.031-.01zm.01-6.212.01-6.213 6.032.01-.01 6.213-6.032-.01zm.01-6.213.01-6.057 6.032.01-.01 6.058-6.031-.01zm.01-6.057.011-6.212 6.031.01-.01 6.212-6.031-.01zM87.293 55.58l-.01 6.12-6.186-.01.01-6.12 6.186.01zm-6.186-.01.01-6.057 6.186.01-.01 6.057-6.186-.01zm.01-6.057.01-6.212 6.187.01-.01 6.212-6.186-.01zm0-6.212.01-6.182 6.187.01-.01 6.182-6.186-.01zm.031-18.576.01-6.212 6.187.01-.01 6.213-6.187-.01zm0-6.212.01-6.212 6.187.01-.01 6.212-6.187-.01zm.01-6.212.011-6.058 6.186.01-.01 6.058-6.186-.01zm6.135 43.28.01-6.058 6.186.01-.01 6.058-6.186-.01zm.01-6.058.01-6.212 6.187.01-.01 6.213-6.187-.01zm.021-18.606.01-6.181 6.186.01-.01 6.181-6.186-.01zm.01-6.181.01-6.213 6.186.01-.01 6.213-6.186-.01zm0-6.213.01-6.212 6.186.01-.01 6.213-6.186-.01zm.01-6.212.01-6.057 6.187.01-.01 6.057-6.186-.01zm.01-6.057L87.365.04l6.186.01-.01 6.213-6.186-.01zM99.634 55.6l-.01 6.12-6.156-.01.01-6.12 6.156.01zm-6.155-.01.01-6.057 6.155.01-.01 6.057-6.155-.01zm.062-49.337L93.55.04l6.155.01-.01 6.213-6.155-.01zm12.279 49.358-.011 6.119-6.186-.01.01-6.12 6.187.01zm-6.186-.01.01-6.058 6.186.01-.01 6.058-6.186-.01zm.062-49.338.01-6.212 6.186.01-.011 6.213-6.185-.01zm12.278 49.348-.01 6.119-6.155-.01.011-6.12 6.154.01zm-6.154 0 .01-6.058 6.155.01-.011 6.058-6.154-.01zm.01-6.068.01-6.212 6.155.01-.01 6.212-6.155-.01zm0-6.212.01-6.182 6.155.01-.01 6.182-6.155-.01zm.01-6.182.01-6.212 6.155.01-.01 6.213-6.155-.01zm.01-6.212.011-6.181 6.155.01-.011 6.181-6.155-.01zm.011-6.181.01-6.213 6.155.01-.01 6.213-6.155-.01zm0-6.213.01-6.212 6.155.01-.01 6.212-6.155-.01zm.01-6.212.01-6.057 6.155.01-.01 6.057-6.155-.01zm.01-6.057.011-6.213 6.155.01-.011 6.213-6.155-.01zm12.155 49.347-.01 6.12-6.062-.011.01-6.12 6.062.01zm-6.062-.01.011-6.058 6.062.01-.011 6.058-6.062-.01zm.011-6.058.01-6.212 6.062.01-.01 6.213-6.062-.01zm0-6.212.01-6.181 6.062.01-.01 6.181-6.062-.01zm.01-6.181.01-6.213 6.062.01-.01 6.213-6.062-.01zm.01-6.213.011-6.181 6.062.01-.011 6.182-6.062-.01zm.011-6.181.01-6.213 6.062.01-.01 6.213-6.062-.01zm0-6.213.01-6.212 6.062.01-.01 6.213-6.062-.01zm.01-6.212.01-6.057 6.062.01-.01 6.057-6.062-.01z"/><path d="m111.973 55.612.011-6.058 6.186.01-.011 6.058-6.186-.01zm.011-6.058.01-6.212 6.186.01-.01 6.213-6.186-.01zm0-6.212.01-6.181 6.186.01-.01 6.181-6.186-.01zm.01-6.181.01-6.213 6.186.01-.01 6.213-6.186-.01zm.01-6.213.011-6.181 6.185.01-.01 6.182-6.186-.01zm.011-6.181.01-6.212 6.186.01-.011 6.212-6.185-.01zm0-6.212.01-6.213 6.186.01-.011 6.213-6.185-.01zm.01-6.213.01-6.057 6.186.01-.01 6.057-6.186-.01zm.01-6.057.011-6.212 6.185.01-.01 6.212-6.186-.01zm12.279 49.347-.01 6.12-6.155-.01.01-6.12 6.155.01zm-6.155-.01.011-6.057 6.154.01-.01 6.057-6.155-.01zm.062-49.327.01-6.212 6.155.01-.01 6.213-6.155-.01zM130.5 55.632l-.01 6.12-6.186-.01.01-6.12 6.186.01zm-6.186 0 .01-6.057 6.186.01-.01 6.058-6.186-.01zm.062-49.337.01-6.212 6.186.01-.01 6.213-6.186-.01zm12.155 49.348-.01 6.119-6.031-.01.01-6.12 6.031.01zm-6.031-.01.01-6.058 6.031.01-.01 6.058-6.031-.01zm.01-6.058.01-6.212 6.032.01-.011 6.213-6.031-.01zm0-6.212.01-6.182 6.032.01-.011 6.182-6.031-.01zm.021-12.394.01-6.181 6.031.01-.01 6.181-6.031-.01zm.01-6.181.01-6.213 6.032.01-.011 6.213-6.031-.01zm0-6.213.01-6.212 6.032.01-.011 6.213-6.031-.01zm.021-12.27.01-6.212 6.031.01-.01 6.213-6.031-.01zm12.155 49.348-.01 6.12-6.186-.011.01-6.12 6.186.011zm-6.186-.01.01-6.057 6.186.01-.01 6.057-6.186-.01zm.01-6.057.011-6.213 6.185.01-.01 6.213-6.186-.01zm.011-6.213.01-6.181 6.186.01-.011 6.181-6.185-.01zm.01-12.394.01-6.181 6.186.01-.01 6.182-6.186-.01zm.01-6.181.011-6.212 6.185.01-.01 6.212-6.186-.01zm.011-6.212.01-6.213 6.186.01-.011 6.213-6.185-.01zm.01-12.27.01-6.212 6.186.01-.01 6.212-6.186-.01zm6.134 43.28.01-6.212 6.186.01-.01 6.212-6.186-.01zm.01-6.212.011-6.182 6.186.01-.011 6.182-6.186-.01zm.011-12.394.01-6.182 6.186.01-.01 6.182-6.186-.01zm.01-6.182.01-6.212 6.186.01-.01 6.213-6.186-.01zm.01-6.212.011-6.213 6.185.01-.01 6.213-6.186-.01zm.011-12.28.01-6.212 6.186.01-.011 6.212-6.185-.01zm6.134 43.29.01-6.212 6.155.01-.01 6.213-6.155-.01zm.01-6.212.011-6.181 6.154.01-.01 6.181-6.155-.01zm.041-37.068.011-6.212 6.155.01-.011 6.213-6.155-.01zm6.104 43.28.01-6.212 6.186.01-.01 6.213-6.186-.01zm.01-6.212.01-6.181 6.186.01-.01 6.181-6.186-.01zm0-6.181.01-6.213 6.186.01-.01 6.213-6.186-.01zm.031-24.82.01-6.056 6.186.01-.01 6.057-6.186-.01zm.01-6.056.011-6.213 6.185.01-.01 6.213-6.186-.01zm6.135 43.28.01-6.213 6.155.01-.01 6.213-6.155-.01zm.01-6.213.01-6.181 6.155.01-.01 6.181-6.155-.01zm0-6.181.01-6.213 6.155.01-.01 6.213-6.155-.01zm.01-6.213.011-6.181 6.154.01-.01 6.182-6.155-.01zm.011-6.181.01-6.212 6.155.01-.011 6.212-6.154-.01zm.01-6.212.01-6.213 6.155.01-.01 6.213-6.155-.01zm0-6.213.01-6.057 6.155.01-.01 6.058-6.155-.01zm6.124 31.01.01-6.18 6.062.01-.01 6.18-6.062-.01zm0-6.18.01-6.213 6.062.01-.01 6.212-6.062-.01zm.01-6.213.01-6.182 6.063.01-.011 6.182-6.062-.01zm.01-6.182.011-6.212 6.062.01-.01 6.213-6.063-.01zm.011-6.212.01-6.212 6.062.01-.01 6.212-6.062-.01z"/><path d="m167.409 49.627.01-6.213 6.186.01-.011 6.213-6.185-.01zm.01-6.213.01-6.18 6.186.01-.01 6.18-6.186-.01zm0-6.18.01-6.213 6.186.01-.01 6.212-6.186-.01zm.01-6.213.01-6.182 6.186.01-.01 6.182-6.186-.01zm.01-6.182.011-6.212 6.186.01-.011 6.213-6.186-.01zm.011-6.212.01-6.213 6.186.01-.01 6.213-6.186-.01zm0-6.213.01-6.057 6.186.01-.01 6.058-6.186-.01zm6.134 43.28.01-6.057 6.155.01-.01 6.058-6.155-.01zm.01-6.057.011-6.212 6.154.01-.01 6.213-6.155-.01zm.042-37.223.01-6.057 6.155.01v6.058l-6.165-.01zm.01-6.057.01-6.212 6.155.01-.01 6.213-6.155-.01zm12.279 49.348-.011 6.119-6.185-.01.01-6.12 6.186.01zm-6.186-.01.01-6.058 6.186.01-.01 6.058-6.186-.01zm.062-49.327.01-6.213 6.186.01-.01 6.213-6.186-.01zm12.155 49.347-.01 6.12-6.032-.011.011-6.12 6.031.011zm-6.031-.01.01-6.057 6.031.01-.01 6.057-6.031-.01zm.02-12.27.011-6.181 6.031.01-.011 6.181-6.031-.01zm.011-6.181.01-6.213 6.031.01-.01 6.213-6.031-.01zm0-6.213.01-6.181 6.031.01-.01 6.182-6.031-.01zm.01-6.181.01-6.212 6.031.01-.01 6.212-6.031-.01zm.01-6.212.011-6.213 6.031.01-.011 6.213-6.031-.01zm.011-12.27.01-6.212 6.031.01-.01 6.212-6.031-.01zm12.155 49.347-.011 6.12-6.185-.01.01-6.12 6.186.01zm-6.186-.01.01-6.057 6.186.01-.01 6.057-6.186-.01zm.02-12.27.011-6.18 6.186.01-.011 6.18-6.186-.01zm.011-6.18.01-6.213 6.186.01-.01 6.213-6.186-.01zm0-6.213.01-6.182 6.186.01-.01 6.182-6.186-.01zm.01-6.182.01-6.212 6.186.01-.01 6.213-6.186-.01zm.01-6.212.011-6.213 6.186.01-.011 6.213-6.186-.01zm.011-12.27.01-6.212 6.186.01-.01 6.213-6.186-.01zm12.309 49.337-.01 6.12-6.186-.01.011-6.12 6.185.01zm-6.185 0 .01-6.057 6.186.01-.011 6.058-6.185-.01zm.02-12.28.011-6.18 6.185.01-.01 6.18-6.186-.01zm.011-6.18.01-6.213 6.186.01-.011 6.213-6.185-.01zm0-6.213.01-6.182 6.186.01-.011 6.182-6.185-.01zm.01-6.182.01-6.212 6.186.01-.01 6.213-6.186-.01zm.01-6.212.011-6.213 6.185.01-.01 6.213-6.186-.01zm.011-12.27.01-6.212 6.186.01-.011 6.213-6.185-.01zm12.289 49.348-.011 6.119-6.155-.01.011-6.12 6.155.01zm-6.166-.01.011-6.058 6.155.01-.011 6.058-6.155-.01zm.062-49.327L204.4.186l6.154.01-.01 6.213-6.155-.01zm12.289 49.347-.01 6.12-6.186-.011.011-6.12 6.185.011zm-6.185-.01.01-6.057 6.186.01-.011 6.057-6.185-.01zm0-6.057.01-6.213 6.186.01-.011 6.213-6.185-.01zm.051-37.213.01-6.057 6.186.01-.01 6.058-6.186-.01zm0-6.057.01-6.212 6.186.01-.01 6.212-6.186-.01zm12.289 49.348-.01 6.119-6.155-.01.01-6.12 6.155.01zm-6.155-.01.011-6.058 6.155.01-.011 6.058-6.155-.01zm0-6.058.011-6.212 6.155.01-.011 6.212-6.155-.01zm.011-6.212.01-6.182 6.155.01-.01 6.182-6.155-.01zm.01-6.182.01-6.212 6.155.01-.01 6.213-6.155-.01zm.01-6.212.011-6.182 6.155.01-.011 6.182-6.155-.01zm0-6.182.011-6.212 6.155.01-.011 6.213-6.155-.01zm.011-6.212.01-6.212 6.155.01-.01 6.212-6.155-.01zm.01-6.212.01-6.058 6.155.01-.01 6.058-6.155-.01zm6.103 43.28.011-6.058 6.062.01-.011 6.058-6.062-.01zm0-6.058.011-6.212 6.062.01-.011 6.213-6.062-.01zm.011-6.212.01-6.181 6.062.01-.01 6.17h-6.062zm.01-6.192.01-6.212 6.062.01-.01 6.213-6.062-.01zm.01-6.212.011-6.182 6.062.01-.011 6.182-6.062-.01zm0-6.182.011-6.212 6.062.01-.011 6.213-6.062-.01zm.011-6.212.01-6.212 6.062.01-.01 6.212-6.062-.01z"/><path d="m222.833 55.757.011-6.058 6.185.01-.01 6.058-6.186-.01zm0-6.058.011-6.212 6.185.01-.01 6.213-6.186-.01zm.011-6.212.01-6.181 6.186.01-.011 6.17h-6.185zm.01-6.192.01-6.212 6.186.01-.01 6.213-6.186-.01zm.01-6.212.011-6.182 6.185.01-.01 6.182-6.186-.01zm0-6.182.011-6.212 6.185.01-.01 6.213-6.186-.01zm.011-6.212.01-6.212 6.186.01-.011 6.212-6.185-.01zm.01-6.212.01-6.058 6.186.01-.01 6.058-6.186-.01zm.01-6.058.01-6.212 6.186.01-.01 6.213-6.186-.01zm12.279 49.348-.01 6.12-6.155-.011.01-6.12 6.155.01zm-6.155-.01.01-6.058 6.155.01-.01 6.058-6.155-.01zm.062-49.327.01-6.213 6.155.01-.01 6.213-6.155-.01zm12.279 49.347-.011 6.12-6.185-.01.01-6.12 6.186.01zm-6.186-.01.01-6.057 6.186.01-.01 6.057-6.186-.01zm.062-49.327.01-6.212 6.186.01-.01 6.213-6.186-.01zm12.155 49.348-.01 6.119-6.032-.01.011-6.12 6.031.01zm-6.031-.01.01-6.058 6.031.01-.01 6.058-6.031-.01zm0-6.058.01-6.212 6.031.01-.01 6.212-6.031-.01zm.01-6.212.01-6.182 6.032.01-.011 6.182-6.031-.01zm.01-6.182.011-6.212 6.031.01-.01 6.213-6.032-.01zm.011-12.393.01-6.213 6.031.01-.01 6.213-6.031-.01zm.01-6.213.01-6.212 6.032.01-.011 6.212-6.031-.01zm.01-6.212.011-6.057 6.031.01-.01 6.057-6.032-.01zm.011-6.068.01-6.212 6.031.01-.01 6.213-6.031-.01zm12.155 49.347-.011 6.12-6.185-.01.01-6.12 6.186.01zm-6.186 0 .01-6.057 6.186.01-.01 6.058-6.186-.01zm0-6.067.01-6.212 6.186.01-.01 6.212-6.186-.01zm.01-6.212.011-6.182 6.185.01-.01 6.182-6.186-.01zm.031-24.788.011-6.212 6.185.01-.01 6.212-6.186-.01zm.011-6.212.01-6.057 6.186.01-.011 6.057-6.185-.01zm6.134 43.28.01-6.058 6.186.01-.01 6.058-6.186-.01zm0-6.058.01-6.212 6.186.01-.01 6.213-6.186-.01zm.031-18.606.01-6.181 6.186.01-.01 6.182-6.186-.01zm.02-18.606.011-6.057 6.185.01-.01 6.057-6.186-.01zm.011-6.057.01-6.213 6.186.01-.011 6.213-6.185-.01zm12.278 49.347-.01 6.12-6.155-.01.011-6.12 6.154.01zm-6.154-.01.01-6.057 6.155.01-.011 6.057-6.154-.01zm.02-18.451.011-6.212 6.154.01-.01 6.212-6.155-.01zm.011-6.212.01-6.182 6.155.01-.011 6.182-6.154-.01zm0-6.182.01-6.212 6.155.01-.011 6.212-6.154-.01zm.03-18.482.011-6.212h6.155l-.011 6.212h-6.155zm12.279 49.348-.01 6.119-6.186-.01.01-6.12 6.186.01zm-6.186-.01.011-6.058 6.186.01-.011 6.058-6.186-.01zm.011-12.27.01-6.182 6.186.01-.01 6.182-6.186-.01zm.01-6.182.01-6.212 6.186.01-.01 6.213-6.186-.01zm.01-6.212.011-6.181 6.185.01-.01 6.181-6.186-.01zm0-6.181.011-6.213 6.185.01-.01 6.213-6.186-.01zm.011-6.213.01-6.212 6.186.01-.011 6.213-6.185-.01zm.02-12.28L265.99.26l6.185.01-.01 6.213-6.186-.01zm12.279 49.348-.01 6.119-6.155-.01.01-6.12 6.155.01zm-6.155 0 .011-6.058 6.154.01-.01 6.058-6.155-.01zm.011-6.068.01-6.212 6.155.01-.011 6.212-6.154-.01zm0-6.212.01-6.182 6.155.01-.011 6.182-6.154-.01zm.02-12.394.01-6.181 6.155.01-.01 6.181-6.155-.01zm0-6.181.01-6.213 6.155.01-.01 6.213-6.155-.01zm.01-6.213.011-6.212 6.155.01-.011 6.213-6.155-.01zm.011-6.212.01-6.057 6.155.01-.01 6.057-6.155-.01zm.01-6.057.01-6.213 6.155.01-.01 6.213-6.155-.01zm12.155 49.347-.01 6.12-6.062-.011.01-6.12 6.062.01zm-6.062-.01.01-6.058 6.063.01-.011 6.058-6.062-.01zm.01-6.058.011-6.212 6.062.01-.01 6.213-6.063-.01zm.031-24.787.011-6.212 6.062.01-.011 6.212-6.062-.01zm0-6.212.011-6.213 6.062.01-.011 6.213-6.062-.01zm.011-6.213.01-6.057 6.062.01-.01 6.057-6.062-.01z"/><path d="m278.299 18.762.011-6.213 6.185.01-.01 6.213-6.186-.01zm.011-6.213.01-6.057 6.186.01-.011 6.057-6.185-.01zm.01-6.057.01-6.212 6.186.01-.01 6.212-6.186-.01zm6.165 12.28.01-6.213 6.155.01-.01 6.213-6.155-.01zm.021-12.27.01-6.212 6.155.01-.01 6.213-6.155-.01zm6.093 49.337.01-6.057 6.186.01-.011 6.058-6.185-.01zm.01-6.057.01-6.212 6.186.01-.01 6.213-6.186-.01zm0-6.212.01-6.182 6.186.01-.01 6.182-6.186-.01zm.01-6.182.011-6.212 6.185.01-.01 6.213-6.186-.01zm.011-6.212.01-6.181 6.186.01-.011 6.181-6.185-.01zm.01-6.181.01-6.213 6.186.01-.01 6.213-6.186-.01zm0-6.213.01-6.212 6.186.01-.01 6.213-6.186-.01zm.021-12.28.01-6.212 6.186.01-.011 6.213-6.185-.01zm12.155 49.348-.011 6.119-6.031-.01.01-6.12 6.032.01zm-6.032 0 .011-6.057 6.031.01-.01 6.057-6.032-.01zm.062-49.337L296.857.3l6.031.01-.01 6.213-6.032-.01zm12.155 49.347-.01 6.12-6.186-.011.011-6.12 6.185.011zm-6.185-.01.01-6.057 6.186.01-.011 6.057-6.185-.01zm.062-49.327.01-6.212 6.186.01-.011 6.212-6.185-.01zm12.309 49.347-.01 6.12-6.186-.01.01-6.12 6.186.01zm-6.186-.01.011-6.057 6.186.01-.011 6.057-6.186-.01zm.011-6.057.01-6.212 6.186.01-.01 6.212-6.186-.01zm.01-6.212.01-6.182 6.186.01-.01 6.182-6.186-.01zm0-6.182.01-6.212 6.186.01-.01 6.212-6.186-.01zm.01-6.212.011-6.182 6.186.01-.011 6.182-6.186-.01zm.011-6.182.01-6.212 6.186.01-.01 6.213-6.186-.01zm.01-6.212.01-6.213 6.186.01-.01 6.213-6.186-.01zm.01-12.27.011-6.212 6.185.01-.01 6.213-6.186-.01zm12.279 49.348-.01 6.119-6.155-.01.01-6.12 6.155.01zm-6.155-.01.011-6.058 6.154.01-.01 6.058-6.155-.01zm.011-6.058.01-6.212 6.155.01-.011 6.213-6.154-.01zm.01-6.212.01-6.181 6.155.01-.01 6.181-6.155-.01zm0-6.181.01-6.213 6.155.01-.01 6.213-6.155-.01zm.01-6.213.011-6.181 6.154.01-.01 6.181-6.155-.01zm.011-6.181.01-6.213 6.155.01-.011 6.213-6.154-.01zm.01-6.213.01-6.212 6.155.01-.01 6.213-6.155-.01zm.01-12.28.01-6.212 6.155.01-.01 6.213-6.155-.01zm6.134 18.493.011-6.213 6.185.01-.01 6.213-6.186-.01zm.011-6.213.01-6.212 6.186.01-.011 6.213-6.185-.01zm0-6.212.01-6.057 6.186.01-.011 6.057-6.185-.01zm.01-6.057.01-6.213 6.186.01-.01 6.213-6.186-.01zm6.165 18.492.01-6.212 6.155.01-.01 6.212-6.155-.01zm.01-6.212.011-6.213 6.155.01-.011 6.213-6.155-.01zm0-6.213.011-6.057 6.155.01-.011 6.058-6.155-.01zM56.62 12.27V6.212h-5.66V0H11.218v5.643H4.608v5.508H0v33.817h5.619v5.508h5.598v5.56h5.773v5.633h28.28v-6.12h11.35v-6.057h4.217V12.28c-1.402-.01-2.814-.01-4.216-.01zM26.868 49.471H16.124v-3.614h-3.618v-3.634l-3.66-.01V38.6H5.309V16.99l3.526.02v-3.634h3.599V9.743h3.608V6.192h10.825v3.54H19.65v.011h.01v3.634h-3.628l-.01 3.635h-3.599v3.613H8.846v14.382h3.577v3.583h3.701v3.613h3.619v3.624h3.578l.01-10.84 7.433.01v-3.593h3.619v-7.227h3.526v10.861h-3.526v3.583l-7.506.02-.01 10.83zm25.176-10.8-3.526-.02v3.634H44.94v3.634h-3.608v3.552H30.505V45.93h7.217v-.01h-.01v-3.635h3.628l.011-3.634h3.598v-3.614h3.578V20.656H44.95v-3.582H41.25V13.46H37.63V9.836h-3.577l-.01 10.841-7.434-.01v3.592h-3.618v7.228h-3.526V20.625h3.526v-3.582l7.505-.021.01-10.82H41.25v3.614h3.619v3.634l3.66.01v3.614h3.536l-.02 21.598z"/></svg>