<svg width="61" height="62" fill="none" xmlns="http://www.w3.org/2000/svg"><path d="M56.62 12.27V6.212h-5.66V0H11.218v5.643H4.608v5.508H0v33.817h5.619v5.508h5.598v5.56h5.773v5.633h28.28v-6.12h11.35v-6.057h4.217V12.28c-1.402-.01-2.814-.01-4.216-.01zM26.868 49.471H16.124v-3.614h-3.618v-3.634l-3.66-.01V38.6H5.309V16.99l3.526.02v-3.634h3.599V9.743h3.608V6.192h10.825v3.54H19.65v.011h.01v3.634h-3.628l-.01 3.635h-3.599v3.613H8.846v14.382h3.577v3.583h3.701v3.613h3.619v3.624h3.578l.01-10.84 7.433.01v-3.593h3.619v-7.227h3.526v10.861h-3.526v3.583l-7.506.02-.01 10.83zm25.176-10.8-3.526-.02v3.634H44.94v3.634h-3.608v3.552H30.505V45.93h7.217v-.01h-.01v-3.635h3.628l.011-3.634h3.598v-3.614h3.578V20.656H44.95v-3.582H41.25V13.46H37.63V9.836h-3.577l-.01 10.841-7.434-.01v3.592h-3.618v7.228h-3.526V20.625h3.526v-3.582l7.505-.021.01-10.82H41.25v3.614h3.619v3.634l3.66.01v3.614h3.536l-.02 21.598z" fill="#fff"/></svg>