<svg width="20" height="21" fill="none" xmlns="http://www.w3.org/2000/svg"><path d="M1.023 17.921c-.285 0-.527-.075-.727-.22C.1 17.557 0 17.383 0 17.19L.021 3.635c0-.194.1-.367.3-.513.2-.147.442-.218.727-.218h1.854l.004-1.367c0-.21.1-.391.299-.537.196-.146.428-.218.692-.218l12.274.01c.264 0 .496.075.695.221.2.147.296.327.296.538l-.003 1.367h1.818c.285 0 .527.074.727.22.2.147.296.317.296.514l-.018 13.554c0 .194-.1.367-.3.514-.199.146-.441.217-.727.217h-1.818l-.003 1.391c0 .194-.1.367-.3.514-.2.146-.431.217-.695.217l-12.274-.01c-.264 0-.496-.075-.696-.221-.196-.146-.296-.316-.296-.514l.004-1.39-1.854-.004z" fill="#2EC6F5"/><path d="m11.864 9.299.003-1.738-4.738-.007v.755a.37.37 0 0 1-.135.279.47.47 0 0 1-.318.119H5.468a.488.488 0 0 1-.332-.119A.365.365 0 0 1 5 8.309V7.221a.37.37 0 0 1 .136-.279c.09-.078.2-.119.332-.119h.936V6c0-.105.043-.197.129-.279a.463.463 0 0 1 .325-.119l5.477.007c.122 0 .225.041.318.12.09.077.136.173.136.278v.755h.843c.132 0 .243.04.332.119.09.078.136.173.136.279l-.003 2.373c0 .116-.047.211-.136.286a.498.498 0 0 1-.332.116h-.936v.822c0 .116-.043.211-.13.293a.463.463 0 0 1-.324.119h-1.072l-.004 1.857c0 .115-.046.21-.136.285a.482.482 0 0 1-.317.112H9.412a.475.475 0 0 1-.326-.112.362.362 0 0 1-.128-.285l.003-2.109c0-.105.043-.197.129-.278a.463.463 0 0 1 .325-.12h.843v-.822c0-.116.047-.211.136-.286a.5.5 0 0 1 .332-.112h1.137zm-2.526 4.703a.283.283 0 0 0-.197.064.22.22 0 0 0-.075.173l-.004 1.381c0 .072.025.13.075.174.05.044.115.067.197.067l1.569.004c.082 0 .146-.02.196-.065a.22.22 0 0 0 .075-.173l.004-1.38a.22.22 0 0 0-.076-.174.285.285 0 0 0-.196-.068L9.338 14z" fill="#fff"/></svg>