<svg viewBox="0 0 262 134" fill="none" xmlns="http://www.w3.org/2000/svg" xmlns:xlink="http://www.w3.org/1999/xlink"><path fill="#fff" d="M0 1.995h261.902V127H0z"/><path opacity=".3" transform="rotate(90 65.5 0)" fill="url(#a)" fill-opacity=".3" d="M65.5 0h124.34v65.5H65.5z"/><path opacity=".3" transform="rotate(90 196.5 0)" fill="url(#b)" fill-opacity=".3" d="M196.5 0h124.34v65.5H196.5z"/><path opacity=".3" transform="rotate(90 131 0)" fill="url(#c)" fill-opacity=".3" d="M131 0h124.34v65.5H131z"/><path opacity=".3" transform="rotate(90 262 0)" fill="url(#d)" fill-opacity=".3" d="M262 0h124.34v65.5H262z"/><path opacity=".3" stroke="#000" stroke-opacity=".2" d="M65.334 15.888V123.65M131.451 15.888V123.65M196.927 15.888V123.65"/><path d="M226.729 114.262h3.96v1.44h-5.64v-3.948l1.392-.804h2.568v-2.208h-2.28v1.08h-1.68v-1.716l1.392-.804h2.856l1.392.804v3.48l-1.392.804h-2.568v1.872zm12.056.696-1.392.804h-3.276l-1.392-.804v-6.912l1.392-.804h3.276l1.392.804v6.912zm-4.38-6.276v5.64h2.7v-5.64h-2.7zm-8.084 15.96h1.572l.852.492v-3.192h1.644v8.82h-1.356l-.288-.492-.852.492h-1.572l-1.392-.804v-4.512l1.392-.804zm2.424 4.716v-3.312h-2.172v3.312h2.172zm4.853-1.02v1.044h1.692v-1.044h-1.692zm-.252 2.424-1.392-.804v-2.076l1.392-.804h1.944v-.972h-2.736v-1.404h2.988l1.392.804v5.256h-.792l-.852-.492-.852.492h-1.092zm5.855 2.34 1.104-2.82-2.292-5.58h1.644l1.476 3.528h.024l1.392-3.528h1.644l-3.372 8.4h-1.62zm10.824-5.352v2.148l-1.392.804h-3.36v-1.404h3.108v-.924h-1.716l-1.392-.804v-2.064l1.392-.804h3.24v1.404h-2.988v.84h1.716l1.392.804zM138.582 107.714v8.568c0 .112.042.21.126.294a.403.403 0 0 0 .294.126h1.302c.112 0 .21-.042.294-.126a.403.403 0 0 0 .126-.294v-8.568h2.086c.112 0 .21-.038.294-.112a.42.42 0 0 0 .126-.308v-1.204a.418.418 0 0 0-.126-.308.403.403 0 0 0-.294-.126h-6.314a.403.403 0 0 0-.294.126.418.418 0 0 0-.126.308v1.204a.42.42 0 0 0 .126.308.432.432 0 0 0 .294.112h2.086zm10.912 6.93a.403.403 0 0 0-.294.126.403.403 0 0 0-.126.294v1.218c0 .112.042.21.126.294a.403.403 0 0 0 .294.126h6.314c.112 0 .21-.042.294-.126a.403.403 0 0 0 .126-.294v-1.218a.403.403 0 0 0-.126-.294.403.403 0 0 0-.294-.126h-2.002v-6.93h2.002c.112 0 .21-.038.294-.112a.42.42 0 0 0 .126-.308v-1.204a.418.418 0 0 0-.126-.308.403.403 0 0 0-.294-.126h-6.314a.403.403 0 0 0-.294.126.418.418 0 0 0-.126.308v1.204a.42.42 0 0 0 .126.308.432.432 0 0 0 .294.112h2.016v6.93h-2.016zm-7.634 9.456v7.182c0 .112.042.21.126.294a.42.42 0 0 0 .308.126h1.19a.418.418 0 0 0 .308-.126.403.403 0 0 0 .126-.294V121.09a.418.418 0 0 0-.126-.308.418.418 0 0 0-.308-.126h-1.19a.42.42 0 0 0-.308.126.418.418 0 0 0-.126.308v.784h-.882a.403.403 0 0 0-.294.126.403.403 0 0 0-.126.294v.868h-1.82v-.868a.403.403 0 0 0-.126-.294.373.373 0 0 0-.294-.126h-.784v-.784a.418.418 0 0 0-.126-.308.418.418 0 0 0-.308-.126h-1.204a.42.42 0 0 0-.308.126.418.418 0 0 0-.126.308v10.192c0 .112.042.21.126.294a.42.42 0 0 0 .308.126h1.204a.418.418 0 0 0 .308-.126.403.403 0 0 0 .126-.294v-7.266h.518v.784a.42.42 0 0 0 .126.308.403.403 0 0 0 .294.126h2.506c.122 0 .22-.042.294-.126a.42.42 0 0 0 .126-.308v-.7h.462zm9.03-3.444a.42.42 0 0 0-.308.126.418.418 0 0 0-.126.308v10.192c0 .112.042.21.126.294a.42.42 0 0 0 .308.126h7.588a.418.418 0 0 0 .308-.126.403.403 0 0 0 .126-.294v-1.218a.403.403 0 0 0-.126-.294.418.418 0 0 0-.308-.126h-5.88v-2.618h3.304c.112 0 .21-.038.294-.112a.42.42 0 0 0 .126-.308v-1.302a.373.373 0 0 0-.126-.294.403.403 0 0 0-.294-.126h-3.304v-2.17h5.88a.45.45 0 0 0 .308-.112.42.42 0 0 0 .126-.308v-1.204a.418.418 0 0 0-.126-.308.418.418 0 0 0-.308-.126h-7.588z" fill="#fff"/><path d="M29.481 76.139 154.978 61.54l-.346-2.98L29.135 73.16l.346 2.98zm148.081-20.597 58.741-25.079-1.178-2.759-58.74 25.079 1.177 2.759zm-22.584 6a81.49 81.49 0 0 0 22.584-6l-1.177-2.76a78.514 78.514 0 0 1-21.753 5.78l.346 2.98z" fill="#BE1E2D"/><path d="M29.308 9.695v82.404h214.513" stroke="#000" stroke-width="3"/><g clip-path="url(#e)" fill="#000"><path d="m236.399 110.054.004-2.859 1.844.002.005-1.334 2.411.002v-1.494l-2.557-.002c-.337 0-.654.1-.918.288-.322.235-.501.566-.501.933v.111H236.278c-.353 0-.677.1-.936.288-.324.233-.501.56-.503.916l-.005 3.149h1.565zM238.554 115.872h-1.923l.005-2.452h-1.631l-.005 2.765c0 .396.184.756.522 1.015.273.21.611.321.979.321h.422v.139c0 .393.184.753.522 1.015.273.209.603.318.955.318l2.69.002v-1.649l-2.536-.002v-1.472zM245.472 107.201l1.594.002-.004 2.851h1.367l.004-3.135c0-.359-.154-.686-.438-.921a1.26 1.26 0 0 0-.818-.29h-.336v-.111c0-.37-.154-.7-.437-.935a1.241 1.241 0 0 0-.801-.291l-2.027-.002v1.495l1.898.002-.002 1.335zM247.063 113.464l-.002 2.508-1.597-.003-.002 1.5-1.886-.002v1.679l2.013.003h.002c.296 0 .574-.113.801-.324.284-.262.44-.627.44-1.032v-.144h.339c.307 0 .591-.113.82-.324.281-.262.438-.629.44-1.029l.002-2.832h-1.37z"/></g><path stroke="#000" stroke-width="3" d="M1.501 1.5h258.902v124H1.501z"/><path d="M14.576 71.488a.36.36 0 0 0 .108.264.345.345 0 0 0 .252.108h7.704c.096 0 .18-.036.252-.108a.36.36 0 0 0 .108-.264v-1.032a.36.36 0 0 0-.108-.264.345.345 0 0 0-.252-.108h-2.832v-3.708h2.832c.096 0 .18-.036.252-.108a.36.36 0 0 0 .108-.264v-1.02a.36.36 0 0 0-.108-.264.345.345 0 0 0-.252-.108h-7.632a.321.321 0 0 0-.252.108.36.36 0 0 0-.108.264v.744h-.744a.36.36 0 0 0-.264.108.321.321 0 0 0-.108.252v4.368c0 .096.036.18.108.252a.36.36 0 0 0 .264.108h.672v.672zm3.264-1.464h-2.544v-3.648h2.544v3.648zm-4.308-12.079a.36.36 0 0 0 .108.264.36.36 0 0 0 .264.108h8.736c.096 0 .18-.036.252-.108a.36.36 0 0 0 .108-.264v-1.032a.36.36 0 0 0-.108-.264.345.345 0 0 0-.252-.108h-2.892v-4.08a.345.345 0 0 0-.108-.252.36.36 0 0 0-.264-.108h-.744v-.66a.383.383 0 0 0-.096-.264.36.36 0 0 0-.264-.108h-3.264a.321.321 0 0 0-.252.108.36.36 0 0 0-.108.264v.744h-.744a.36.36 0 0 0-.264.108.321.321 0 0 0-.108.252v5.4zm4.308-1.464h-2.544v-3.648h2.544v3.648zm-4.308-11.456c0 .096.036.18.108.252a.36.36 0 0 0 .264.108h3.18a.36.36 0 0 0 .264-.108.345.345 0 0 0 .108-.252v-.744h.744c.096 0 .18-.036.252-.108a.345.345 0 0 0 .108-.252v-.756h4.08c.096 0 .18-.032.252-.096a.36.36 0 0 0 .108-.264V41.76a.345.345 0 0 0-.108-.252.345.345 0 0 0-.252-.108h-4.008v-.744a.367.367 0 0 0-.096-.252.36.36 0 0 0-.264-.108h-.756v-.684a.345.345 0 0 0-.108-.252.345.345 0 0 0-.252-.108h-3.252a.36.36 0 0 0-.264.108.345.345 0 0 0-.108.252v1.044a.36.36 0 0 0 .108.264c.072.064.16.096.264.096h2.892v.744a.36.36 0 0 0 .108.264.321.321 0 0 0 .252.108h.756v.444h-.684a.345.345 0 0 0-.252.108.345.345 0 0 0-.108.252v.744h-2.964a.36.36 0 0 0-.264.108.345.345 0 0 0-.108.252v.984zM51.24 99.296v7.344c0 .096.036.18.108.252a.345.345 0 0 0 .252.108h1.116c.096 0 .18-.036.252-.108a.345.345 0 0 0 .108-.252v-7.344h1.788c.096 0 .18-.032.252-.096a.36.36 0 0 0 .108-.264v-1.032a.36.36 0 0 0-.108-.264.345.345 0 0 0-.252-.108h-5.412a.345.345 0 0 0-.252.108.36.36 0 0 0-.108.264v1.032a.36.36 0 0 0 .108.264.367.367 0 0 0 .252.096h1.788zm10.067 5.94a.345.345 0 0 0-.252.108.345.345 0 0 0-.108.252v1.044c0 .096.036.18.108.252a.345.345 0 0 0 .252.108h5.412c.097 0 .18-.036.253-.108a.345.345 0 0 0 .108-.252v-1.044a.345.345 0 0 0-.108-.252.345.345 0 0 0-.252-.108h-1.716v-5.94h1.715c.097 0 .18-.032.253-.096a.36.36 0 0 0 .108-.264v-1.032a.36.36 0 0 0-.108-.264.345.345 0 0 0-.252-.108h-5.413a.345.345 0 0 0-.252.108.36.36 0 0 0-.108.264v1.032a.36.36 0 0 0 .108.264.367.367 0 0 0 .252.096h1.728v5.94h-1.727zm17.333-4.752v6.156c0 .096.036.18.108.252a.36.36 0 0 0 .264.108h1.02a.36.36 0 0 0 .264-.108.345.345 0 0 0 .108-.252v-8.736a.36.36 0 0 0-.108-.264.36.36 0 0 0-.264-.108h-1.02a.36.36 0 0 0-.264.108.36.36 0 0 0-.108.264v.672h-.756a.345.345 0 0 0-.252.108.345.345 0 0 0-.108.252v.744h-1.56v-.744a.345.345 0 0 0-.108-.252.321.321 0 0 0-.252-.108h-.672v-.672a.36.36 0 0 0-.108-.264.36.36 0 0 0-.264-.108h-1.032a.36.36 0 0 0-.264.108.36.36 0 0 0-.108.264v8.736c0 .096.036.18.108.252a.36.36 0 0 0 .264.108h1.032a.36.36 0 0 0 .264-.108.345.345 0 0 0 .108-.252v-6.228h.444v.672a.36.36 0 0 0 .108.264.345.345 0 0 0 .252.108h2.148a.321.321 0 0 0 .252-.108.36.36 0 0 0 .108-.264v-.6h.396zm8.454-2.952a.36.36 0 0 0-.264.108.36.36 0 0 0-.108.264v8.736c0 .096.036.18.108.252a.36.36 0 0 0 .264.108h6.504a.36.36 0 0 0 .264-.108.345.345 0 0 0 .108-.252v-1.044a.345.345 0 0 0-.108-.252.36.36 0 0 0-.264-.108h-5.04v-2.244h2.832c.096 0 .18-.032.252-.096a.36.36 0 0 0 .108-.264v-1.116a.321.321 0 0 0-.108-.252.345.345 0 0 0-.252-.108h-2.832v-1.86h5.04a.383.383 0 0 0 .264-.096.36.36 0 0 0 .108-.264v-1.032a.36.36 0 0 0-.108-.264.36.36 0 0 0-.264-.108h-6.504z" fill="#000"/><defs><pattern id="a" patternContentUnits="objectBoundingBox" width="1" height="1"><use xlink:href="#image0" transform="matrix(.001 0 0 .0019 0 -.034)"/></pattern><pattern id="b" patternContentUnits="objectBoundingBox" width="1" height="1"><use xlink:href="#image0" transform="matrix(.001 0 0 .0019 0 -.034)"/></pattern><pattern id="c" patternContentUnits="objectBoundingBox" width="1" height="1"><use xlink:href="#image0" transform="matrix(.001 0 0 .0019 0 -.034)"/></pattern><pattern id="d" patternContentUnits="objectBoundingBox" width="1" height="1"><use xlink:href="#image0" transform="matrix(.001 0 0 .0019 0 -.034)"/></pattern><clipPath id="e"><path fill="#fff" transform="translate(235 104)" d="M0 0h15v15H0z"/></clipPath></defs></svg>