<svg width="30" height="30" fill="inherit" xmlns="http://www.w3.org/2000/svg"><path d="m29.99 27.653-.004-2.266-.004-2.323-.005-2.313-2.706.004v-.015h.01l-.005-2.324-.005-2.266-.004-2.323-.005-2.278h.005l2.706-.004-.005-2.323-.005-2.266-.004-2.324-.005-2.312-2.696.004L27.253 0l-2.678.004-2.747.004-2.733.004-2.747.003-2.733.004-2.747.004-2.747.004-2.678.004-2.747.004.005 2.324.005 2.312.004 2.324.005 2.23L0 9.218l.005 2.323.004 2.313.005 2.323.004 2.266 2.747-.004v.016h-.05l.004 2.324.005 2.312.005 2.323.004 2.266 2.747-.004L5.485 30l2.678-.004 2.746-.004 2.747-.004 2.733-.003 2.747-.004 2.733-.004 2.747-.004 2.678-.004L30 29.965l-.01-2.312zM5.449 4.659l-.005-2.312 2.678-.004 2.747-.004 2.747-.004 2.733-.003 2.747-.004 2.733-.004 2.747-.004.005 2.312.004 2.324-2.747.004-2.733.004-2.747.003-2.733.004-2.747.004-2.746.004-2.679.004-.004-2.324zM2.756 16.174l-.005-2.324-.004-2.312 2.678-.004h.027v.038l2.679-.003 2.746-.004 2.747-.004 2.733-.004 2.747-.004 2.733-.004h.037l.005 2.277.004 2.324-2.747.004-2.733.004-2.747.004-2.733.004-2.747.004-2.746.003H2.756zm2.71 9.24-.004-2.323-.005-2.313 2.678-.003 2.747-.004 2.747-.004 2.733-.004 2.747-.004 2.733-.004 2.747-.004.004 2.313.005 2.323-2.747.004-2.733.004-2.747.004-2.733.004-2.747.004-2.747.003-2.678.004z"/></svg>