<svg viewBox="0 0 22 23" fill="inherit" xmlns="http://www.w3.org/2000/svg"><path d="M1.35.264c-.304 0-.557.09-.752.275a.894.894 0 0 0-.3.692l-.01 20.723c.04.18.132.343.275.486.201.195.454.29.759.29l9.807.006c.282 0 .529-.095.736-.29.212-.196.316-.418.316-.677v-1.84h2.177c.282 0 .529-.095.736-.29.212-.196.316-.418.316-.677V16.96h2.177c.305 0 .558-.095.753-.29a.9.9 0 0 0 .299-.677V13.99h2c.304 0 .557-.095.752-.29a.944.944 0 0 0 .299-.709l.006-2.774a.955.955 0 0 0-.3-.714 1.029 1.029 0 0 0-.752-.29h-2.177V7.177a.88.88 0 0 0-.316-.676 1.045 1.045 0 0 0-.736-.291h-2.177V4.207a.88.88 0 0 0-.316-.677 1.068 1.068 0 0 0-.736-.29h-2.212V1.237a.886.886 0 0 0-.299-.693c-.2-.185-.448-.274-.753-.274L1.35.264z" fill="#inherit"/></svg>