<svg width="190" height="50" viewBox="0 0 190 50" fill="none" xmlns="http://www.w3.org/2000/svg">
  <path fill-rule="evenodd" clip-rule="evenodd" d="M182.641 41.1801V41.1729L186.079 41.1792V41.1865L182.641 41.1801ZM182.641 49.7136L186.065 49.7199L186.072 45.435V45.4278L189.96 45.435L189.967 41.1865L189.974 36.8289L189.98 32.4932L189.987 28.1357H189.98L189.987 23.8L189.993 19.4425L190 15.0849L186.112 15.0777H186.105L186.112 10.8291L182.641 10.8227V6.42801H154.536H8.02843V6.4354L4.07528 6.42825L4.06855 10.7858L0.0336265 10.7785L0.026895 15.0271L0.0201738 19.3846H0.026895L0.0201738 23.7421L0.0134526 28.0778L0.00672119 32.4426L0 36.7784H0.00672119L0 41.1359L4.03493 41.1431L4.0282 45.3844L8.02843 45.3917V49.7199H31.9891L32.1248 49.7202V49.7199H36.0046L36.1395 49.7202V49.7199L182.118 49.7199L182.641 49.7199V49.7136ZM4.01434 36.7784H0.00672119L4.01434 36.7856V36.7784ZM186.085 32.486H186.092L186.098 28.1284H186.092L186.085 32.486Z" fill="#272727"/>
  <path fill-rule="evenodd" clip-rule="evenodd" d="M0 34.7076L0.00672119 30.3501L4.01439 30.3573V30.3501H0.00672119H0L0.00672119 26.0144L0.0134526 21.6496L0.0201738 17.3139L0.026895 12.9563H0.0201738L0.026895 8.59883L0.0336265 4.35025L4.06856 4.35752L4.07528 0L8.02847 0.00715116V0H154.535H182.641V4.39471L186.112 4.40109L186.105 8.64967H186.112L190 8.65693L189.993 13.0144L189.987 17.372L189.98 21.7077H189.987L189.98 26.0652L189.973 30.4009L189.967 34.7585L189.96 39.007L186.072 38.9998V39.007L186.065 43.2919L182.641 43.2856V43.2919H182.117H36.1395H32.1248H8.02847V38.9634L4.0282 38.9562L4.03493 34.7149L0 34.7076ZM182.641 34.7521L186.079 34.7585V34.7512L182.641 34.7449V34.7521ZM186.085 26.0579H186.092L186.098 21.7004H186.092L186.085 26.0579Z" fill="#565656"/>
  <g clip-path="url(#clip0)">
  <path d="M14 31.3426L14.0042 28.9059L16.5312 28.91L16.5269 31.3426H14ZM14.0042 28.9059L14.0084 26.4067L16.5354 26.4109L16.5312 28.91L14.0042 28.9059ZM14.0042 26.4067L14.0084 23.92L16.5354 23.9242L16.5312 26.4109L14.0042 26.4067ZM14.0084 23.9159L14.0126 21.4167L16.5396 21.4209L16.5354 23.92L14.0084 23.9159ZM14.0126 21.4167L14.0168 18.93L16.5438 18.9342L16.5396 21.4209L14.0126 21.4167ZM14.0168 18.93L14.0211 16.4309L16.548 16.435L16.5438 18.9342L14.0168 18.93ZM14.0168 16.4309L14.0211 13.9317L16.548 13.9359L16.5438 16.435L14.0168 16.4309ZM14.0211 13.9317L14.0253 11.495L16.5522 11.4992L16.548 13.9359L14.0211 13.9317ZM19.0413 31.3467L19.037 33.8084L16.5227 33.8042L16.5269 31.3426L19.0413 31.3467ZM16.5269 31.3426L16.5312 28.9059L19.0455 28.91L19.0413 31.3467L16.5269 31.3426ZM16.548 13.9359L16.5522 11.4992L19.0665 11.5033L19.0623 13.94L16.548 13.9359ZM16.5522 11.4992L16.5564 9L19.0707 9.00417L19.0665 11.5033L16.5522 11.4992ZM21.5682 31.3509L21.564 33.8126L19.037 33.8084L19.0413 31.3467L21.5682 31.3509ZM19.0413 31.3467L19.0455 28.91L21.5724 28.9142L21.5682 31.3509L19.0413 31.3467ZM19.0665 11.5033L19.0707 9.00417L21.5977 9.00833L21.5935 11.5075L19.0665 11.5033ZM24.032 31.355L24.0278 33.8167L21.564 33.8126L21.5682 31.3509L24.032 31.355ZM21.5682 31.3509L21.5724 28.9142L24.0362 28.9184L24.032 31.355L21.5682 31.3509ZM21.5724 28.9142L21.5766 26.415L24.0404 26.4192L24.0362 28.9184L21.5724 28.9142ZM21.5766 26.415L21.5808 23.9284L24.0446 23.9325L24.0404 26.4192L21.5766 26.415ZM21.5808 21.4292L21.585 18.9425L24.0488 18.9467L24.0446 21.4334L21.5808 21.4292ZM21.585 18.9425L21.5893 16.4434L24.053 16.4475L24.0488 18.9467L21.585 18.9425ZM21.5893 16.4434L21.5935 13.9442L24.0572 13.9484L24.053 16.4475L21.5893 16.4434ZM21.5935 11.5033L21.5977 9.00417L24.0614 9.00833L24.0572 11.5075L21.5935 11.5033ZM26.5589 31.355L26.5547 33.8167L24.0278 33.8126L24.032 31.3509L26.5589 31.355ZM24.032 31.355L24.0362 28.9184L26.5631 28.9225L26.5589 31.3592L24.032 31.355ZM24.0362 28.9184L24.0404 26.4192L26.5673 26.4234L26.5631 28.9225L24.0362 28.9184ZM24.0404 26.4192L24.0446 23.9325L26.5715 23.9367L26.5673 26.4234L24.0404 26.4192ZM24.0446 21.4292L24.0488 18.9425L26.5758 18.9467L26.5715 21.4334L24.0446 21.4292ZM24.0488 18.9425L24.053 16.4434L26.58 16.4475L26.5758 18.9467L24.0488 18.9425ZM24.053 16.4434L24.0572 13.9442L26.5842 13.9484L26.58 16.4475L24.053 16.4434ZM24.0572 11.5075L24.0614 9.00833L26.5884 9.0125L26.5842 11.5117L24.0572 11.5075ZM26.5589 31.355L26.5631 28.9184L29.0901 28.9225L29.0859 31.3592L26.5589 31.355ZM26.5631 28.9184L26.5673 26.4192L29.0943 26.4234L29.0901 28.9225L26.5631 28.9184ZM26.5673 26.4192L26.5715 23.9325L29.0985 23.9367L29.0943 26.4234L26.5673 26.4192ZM26.5715 21.4334L26.5758 18.9467L29.1027 18.9508L29.0985 21.4375L26.5715 21.4334ZM26.5758 18.9467L26.58 16.4475L29.1069 16.4517L29.1027 18.9508L26.5758 18.9467ZM26.58 16.4475L26.5842 13.9484L29.1111 13.9525L29.1069 16.4517L26.58 16.4475ZM26.5842 11.5117L26.5884 9.0125L29.1153 9.01666L29.1111 11.5158L26.5842 11.5117ZM31.6002 31.3634L31.596 33.8251L29.0816 33.8209L29.0859 31.3592L31.6002 31.3634ZM29.0859 31.3592L29.0901 28.9225L31.6044 28.9267L31.6002 31.3634L29.0859 31.3592ZM29.1111 11.5158L29.1153 9.01666L31.6296 9.02083L31.6254 11.52L29.1111 11.5158ZM34.1271 31.3675L34.1229 33.8292L31.596 33.8251L31.6002 31.3634L34.1271 31.3675ZM31.6002 31.3634L31.6044 28.9267L34.1313 28.9309L34.1271 31.3675L31.6002 31.3634ZM31.6254 13.9567L31.6296 11.52L34.1566 11.5242L34.1524 13.9608L31.6254 13.9567ZM31.6254 11.5158L31.6296 9.01666L34.1566 9.02083L34.1524 11.52L31.6254 11.5158ZM36.6414 31.3675L36.6372 33.8292L34.1229 33.8251L34.1271 31.3634L36.6414 31.3675ZM34.1271 31.3675L34.1313 28.9309L36.6456 28.935L36.6414 31.3717L34.1271 31.3675ZM34.1313 28.9309L34.1355 26.4317L36.6498 26.4359L36.6456 28.935L34.1313 28.9309ZM34.1355 26.4317L34.1397 23.945L36.6541 23.9492L36.6498 26.4359L34.1355 26.4317ZM34.1397 23.945L34.144 21.4459L36.6583 21.45L36.6541 23.9492L34.1397 23.945ZM34.1397 21.4459L34.144 18.9592L36.6583 18.9633L36.6541 21.45L34.1397 21.4459ZM34.144 18.955L34.1482 16.4558L36.6625 16.46L36.6583 18.9592L34.144 18.955ZM34.1482 16.4558L34.1524 13.9567L36.6667 13.9608L36.6625 16.46L34.1482 16.4558ZM34.1524 13.9567L34.1566 11.52L36.6709 11.5242L36.6667 13.9608L34.1524 13.9567ZM39.1178 31.3717L39.1136 33.8334L36.6372 33.8292L36.6414 31.3675L39.1178 31.3717ZM36.6414 31.3675L36.6456 28.9309L39.122 28.935L39.1178 31.3717L36.6414 31.3675ZM36.6456 28.9309L36.6498 26.4317L39.1262 26.4359L39.122 28.935L36.6456 28.9309ZM36.6498 26.4317L36.6541 23.945L39.1305 23.9492L39.1262 26.4359L36.6498 26.4317ZM36.6541 23.945L36.6583 21.4459L39.1347 21.45L39.1305 23.9492L36.6541 23.945ZM36.6541 21.4459L36.6583 18.9592L39.1347 18.9633L39.1305 21.45L36.6541 21.4459ZM36.6583 18.9592L36.6625 16.46L39.1389 16.4642L39.1347 18.9633L36.6583 18.9592ZM36.6625 16.46L36.6667 13.9608L39.1431 13.965L39.1389 16.4642L36.6625 16.46Z" fill="white"/>
  <path d="M36.6414 31.3675L36.6456 28.9309L39.1725 28.935L39.1683 31.3717L36.6414 31.3675ZM36.6456 28.9309L36.6498 26.4317L39.1767 26.4359L39.1725 28.935L36.6456 28.9309ZM36.6498 26.4317L36.654 23.945L39.1809 23.9492L39.1767 26.4359L36.6498 26.4317ZM36.654 23.945L36.6582 21.4459L39.1851 21.45L39.1809 23.9492L36.654 23.945ZM36.654 21.4459L36.6582 18.9592L39.1851 18.9633L39.1809 21.45L36.654 21.4459ZM36.6582 18.9592L36.6624 16.46L39.1894 16.4642L39.1851 18.9633L36.6582 18.9592ZM36.6624 16.46L36.6666 13.9608L39.1936 13.965L39.1894 16.4642L36.6624 16.46ZM36.6666 13.9608L36.6708 11.5242L39.1978 11.5283L39.1936 13.965L36.6666 13.9608ZM36.6666 11.5242L36.6708 9.02499L39.1978 9.02916L39.1936 11.5283L36.6666 11.5242ZM41.6826 31.3759L41.6784 33.8376L39.1641 33.8334L39.1683 31.3717L41.6826 31.3759ZM39.1683 31.3717L39.1725 28.935L41.6868 28.9392L41.6826 31.3759L39.1683 31.3717ZM39.1936 11.5283L39.1978 9.02916L41.7121 9.03332L41.7079 11.5325L39.1936 11.5283ZM44.2096 31.38L44.2053 33.8417L41.6784 33.8376L41.6826 31.3759L44.2096 31.38ZM41.6826 31.3759L41.6868 28.9392L44.2138 28.9434L44.2096 31.38L41.6826 31.3759ZM41.7079 11.5325L41.7121 9.03332L44.239 9.03749L44.2348 11.5367L41.7079 11.5325ZM46.6733 31.38L46.6691 33.8417L44.2053 33.8376L44.2096 31.3759L46.6733 31.38ZM44.2096 31.38L44.2138 28.9434L46.6775 28.9475L46.6733 31.3842L44.2096 31.38ZM44.2138 28.9434L44.218 26.4442L46.6817 26.4484L46.6775 28.9475L44.2138 28.9434ZM44.218 26.4442L44.2222 23.9575L46.686 23.9617L46.6817 26.4484L44.218 26.4442ZM44.2222 21.4542L44.2264 18.9675L46.6902 18.9717L46.686 21.4583L44.2222 21.4542ZM44.2264 18.9675L44.2306 16.4683L46.6944 16.4725L46.6902 18.9717L44.2264 18.9675ZM44.2306 16.4683L44.2348 13.9692L46.6986 13.9733L46.6944 16.4725L44.2306 16.4683ZM44.2348 11.5325L44.239 9.03332L46.7028 9.03749L46.6986 11.5367L44.2348 11.5325ZM49.2003 31.3842L49.1961 33.8459L46.6691 33.8417L46.6733 31.38L49.2003 31.3842ZM46.6733 31.38L46.6775 28.9434L49.2045 28.9475L49.2003 31.3842L46.6733 31.38ZM46.6775 28.9434L46.6817 26.4442L49.2087 26.4484L49.2045 28.9475L46.6775 28.9434ZM46.6817 26.4442L46.686 23.9575L49.2129 23.9617L49.2087 26.4484L46.6817 26.4442ZM46.6902 21.4583L46.6944 18.9717L49.2213 18.9758L49.2171 21.4625L46.6902 21.4583ZM46.6902 18.9717L46.6944 16.4725L49.2213 16.4767L49.2171 18.9758L46.6902 18.9717ZM46.6944 16.4725L46.6986 13.9733L49.2255 13.9775L49.2213 16.4767L46.6944 16.4725ZM46.6986 11.5367L46.7028 9.03749L49.2297 9.04166L49.2255 11.5408L46.6986 11.5367ZM49.2045 28.9475L49.2087 26.4484L51.7356 26.4525L51.7314 28.9517L49.2045 28.9475ZM49.2087 26.4484L49.2129 23.9617L51.7398 23.9658L51.7356 26.4525L49.2087 26.4484ZM49.2171 21.4625L49.2213 18.9758L51.7483 18.98L51.7441 21.4667L49.2171 21.4625ZM49.2171 18.9758L49.2213 16.4767L51.7483 16.4808L51.7441 18.98L49.2171 18.9758ZM49.2213 16.4767L49.2255 13.9775L51.7525 13.9817L51.7483 16.4808L49.2213 16.4767ZM49.2255 11.5408L49.2297 9.04166L51.7567 9.04582L51.7525 11.545L49.2255 11.5408ZM51.7314 28.9517L51.7356 26.4525L54.2499 26.4567L54.2457 28.9558L51.7314 28.9517ZM51.7356 26.4525L51.7398 23.9658L54.2542 23.97L54.2499 26.4567L51.7356 26.4525ZM51.7525 11.5408L51.7567 9.04166L54.271 9.04582L54.2668 11.545L51.7525 11.5408ZM54.2457 28.9558L54.2499 26.4567L56.7769 26.4608L56.7727 28.96L54.2457 28.9558ZM54.2499 26.4567L54.2542 23.97L56.7811 23.9742L56.7769 26.4608L54.2499 26.4567ZM54.2542 23.9658L54.2584 21.4667L56.7853 21.4708L56.7811 23.97L54.2542 23.9658ZM54.2668 13.9817L54.271 11.545L56.7979 11.5492L56.7937 13.9858L54.2668 13.9817ZM54.271 11.545L54.2752 9.04582L56.8022 9.04999L56.7979 11.5492L54.271 11.545ZM56.7727 28.9558L56.7769 26.4567L59.2912 26.4608L59.287 28.96L56.7727 28.9558ZM56.7769 26.4567L56.7811 23.97L59.2954 23.9742L59.2912 26.4608L56.7769 26.4567ZM56.7811 23.97L56.7853 21.4708L59.2996 21.475L59.2954 23.9742L56.7811 23.97ZM56.7853 21.4708L56.7895 18.9842L59.3038 18.9883L59.2996 21.475L56.7853 21.4708ZM56.7853 18.9842L56.7895 16.485L59.3038 16.4892L59.2996 18.9883L56.7853 18.9842ZM56.7895 16.485L56.7937 13.9858L59.308 13.99L59.3038 16.4892L56.7895 16.485ZM56.7937 13.9858L56.7979 11.5492L59.3123 11.5533L59.308 13.99L56.7937 13.9858ZM59.2912 26.4608L59.2954 23.9742L61.7718 23.9783L61.7676 26.465L59.2912 26.4608ZM59.2954 23.9742L59.2996 21.475L61.776 21.4792L61.7718 23.9783L59.2954 23.9742ZM59.2996 21.475L59.3038 18.9883L61.7802 18.9925L61.776 21.4792L59.2996 21.475ZM59.2996 18.9883L59.3038 16.4892L61.7802 16.4933L61.776 18.9925L59.2996 18.9883ZM59.3038 16.4892L59.308 13.99L61.7844 13.9942L61.7802 16.4933L59.3038 16.4892Z" fill="white"/>
  <path d="M59.2871 31.3967L59.2913 28.96L61.8183 28.9642L61.8141 31.4009L59.2871 31.3967ZM59.2871 28.96L59.2913 26.4608L61.8183 26.465L61.8141 28.9642L59.2871 28.96ZM59.2913 26.4608L59.2955 23.9742L61.8225 23.9783L61.8183 26.465L59.2913 26.4608ZM59.2955 23.9742L59.2997 21.475L61.8267 21.4792L61.8225 23.9783L59.2955 23.9742ZM59.2997 21.475L59.304 18.9883L61.8309 18.9925L61.8267 21.4792L59.2997 21.475ZM59.2997 18.9883L59.304 16.4892L61.8309 16.4933L61.8267 18.9925L59.2997 18.9883ZM59.304 16.4892L59.3082 13.99L61.8351 13.9942L61.8309 16.4933L59.304 16.4892ZM59.3082 13.99L59.3124 11.5533L61.8393 11.5575L61.8351 13.9942L59.3082 13.99ZM59.3124 11.5533L59.3166 9.05414L61.8435 9.0583L61.8393 11.5575L59.3124 11.5533ZM64.3284 31.405L64.3242 33.8667L61.8098 33.8625L61.8141 31.4009L64.3284 31.405ZM61.8141 31.4009L61.8183 28.9642L64.3326 28.9683L64.3284 31.405L61.8141 31.4009ZM61.8393 11.5533L61.8435 9.05414L64.3578 9.0583L64.3536 11.5575L61.8393 11.5533ZM66.8553 31.405L66.8511 33.8667L64.3242 33.8625L64.3284 31.4009L66.8553 31.405ZM64.3284 31.405L64.3326 28.9683L66.8595 28.9725L66.8553 31.4092L64.3284 31.405ZM64.3536 11.5575L64.3578 9.0583L66.8848 9.06247L66.8806 11.5616L64.3536 11.5575ZM69.3191 31.4092L69.3149 33.8709L66.8511 33.8667L66.8553 31.405L69.3191 31.4092ZM66.8553 31.405L66.8595 28.9683L69.3233 28.9725L69.3191 31.4092L66.8553 31.405ZM66.8553 28.9683L66.8595 26.4692L69.3233 26.4733L69.3191 28.9725L66.8553 28.9683ZM66.8595 26.4692L66.8637 23.9825L69.3275 23.9867L69.3233 26.4733L66.8595 26.4692ZM66.8679 21.4833L66.8722 18.9967L69.3359 19.0008L69.3317 21.4875L66.8679 21.4833ZM66.8679 18.9967L66.8722 16.4975L69.3359 16.5017L69.3317 19.0008L66.8679 18.9967ZM66.8722 16.4975L66.8764 13.9983L69.3401 14.0025L69.3359 16.5017L66.8722 16.4975ZM66.8806 11.5616L66.8848 9.06247L69.3486 9.06663L69.3443 11.5658L66.8806 11.5616ZM71.846 31.4134L71.8418 33.875L69.3149 33.8709L69.3191 31.4092L71.846 31.4134ZM69.3191 31.4092L69.3233 28.9725L71.8502 28.9767L71.846 31.4134L69.3191 31.4092ZM69.3233 28.9725L69.3275 26.4733L71.8544 26.4775L71.8502 28.9767L69.3233 28.9725ZM69.3233 26.4733L69.3275 23.9867L71.8544 23.9908L71.8502 26.4775L69.3233 26.4733ZM69.3317 21.4875L69.3359 19.0008L71.8629 19.005L71.8587 21.4917L69.3317 21.4875ZM69.3359 19.0008L69.3401 16.5017L71.8671 16.5058L71.8629 19.005L69.3359 19.0008ZM69.3359 16.5017L69.3401 14.0025L71.8671 14.0067L71.8629 16.5058L69.3359 16.5017ZM69.3443 11.5658L69.3486 9.06663L71.8755 9.0708L71.8713 11.57L69.3443 11.5658ZM71.8502 28.9767L71.8544 26.4775L74.3814 26.4817L74.3772 28.9808L71.8502 28.9767ZM71.8502 26.4775L71.8544 23.9908L74.3814 23.995L74.3772 26.4817L71.8502 26.4775ZM71.8587 21.4917L71.8629 19.005L74.3898 19.0092L74.3856 21.4958L71.8587 21.4917ZM71.8629 19.005L71.8671 16.5058L74.394 16.51L74.3898 19.0092L71.8629 19.005ZM71.8629 16.5058L71.8671 14.0067L74.394 14.0108L74.3898 16.51L71.8629 16.5058ZM71.8713 11.5658L71.8755 9.06663L74.4024 9.0708L74.3982 11.57L71.8713 11.5658ZM74.3772 28.9767L74.3814 26.4775L76.8957 26.4817L76.8915 28.9808L74.3772 28.9767ZM74.3772 26.4775L74.3814 23.9908L76.8957 23.995L76.8915 26.4817L74.3772 26.4775ZM74.3982 11.57L74.4024 9.0708L76.9168 9.07496L76.9125 11.5741L74.3982 11.57ZM76.8915 28.9808L76.8957 26.4817L79.4226 26.4858L79.4184 28.985L76.8915 28.9808ZM76.8915 26.4817L76.8957 23.995L79.4226 23.9992L79.4184 26.4858L76.8915 26.4817ZM76.8957 23.995L76.8999 21.4958L79.4269 21.5L79.4226 23.9992L76.8957 23.995ZM76.9083 14.0108L76.9125 11.5741L79.4395 11.5783L79.4353 14.015L76.9083 14.0108ZM76.9125 11.5741L76.9168 9.07496L79.4437 9.07913L79.4395 11.5783L76.9125 11.5741ZM79.4184 28.985L79.4226 26.4858L81.937 26.49L81.9327 28.9892L79.4184 28.985ZM79.4184 26.4858L79.4226 23.9992L81.937 24.0033L81.9327 26.49L79.4184 26.4858ZM79.4226 23.9992L79.4269 21.5L81.9412 21.5042L81.937 24.0033L79.4226 23.9992ZM79.4269 21.5L79.4311 19.0133L81.9454 19.0175L81.9412 21.5042L79.4269 21.5ZM79.4311 19.0133L79.4353 16.5142L81.9496 16.5183L81.9454 19.0175L79.4311 19.0133ZM79.4311 16.5142L79.4353 14.015L81.9496 14.0191L81.9454 16.5183L79.4311 16.5142ZM79.4353 14.015L79.4395 11.5783L81.9538 11.5825L81.9496 14.0191L79.4353 14.015ZM81.9327 26.49L81.937 24.0033L84.4134 24.0075L84.4091 26.4942L81.9327 26.49ZM81.937 24.0033L81.9412 21.5042L84.4176 21.5083L84.4134 24.0075L81.937 24.0033ZM81.9412 21.5042L81.9454 19.0175L84.4218 19.0216L84.4176 21.5083L81.9412 21.5042ZM81.9454 19.0175L81.9496 16.5183L84.426 16.5225L84.4218 19.0216L81.9454 19.0175ZM81.9454 16.5183L81.9496 14.0191L84.426 14.0233L84.4218 16.5225L81.9454 16.5183Z" fill="white"/>
  <path d="M81.9285 31.4259L81.9327 28.9892L84.4596 28.9933L84.4554 31.43L81.9285 31.4259ZM81.9327 28.9892L81.9369 26.49L84.4638 26.4942L84.4596 28.9933L81.9327 28.9892ZM81.9327 26.49L81.9369 24.0033L84.4638 24.0075L84.4596 26.4942L81.9327 26.49ZM81.9369 24.0033L81.9411 21.5042L84.4681 21.5083L84.4638 24.0075L81.9369 24.0033ZM81.9411 21.5042L81.9453 19.0175L84.4723 19.0217L84.4681 21.5083L81.9411 21.5042ZM81.9453 19.0175L81.9495 16.5183L84.4765 16.5225L84.4723 19.0217L81.9453 19.0175ZM81.9453 16.5183L81.9495 14.0192L84.4765 14.0233L84.4723 16.5225L81.9453 16.5183ZM81.9495 14.0192L81.9537 11.5825L84.4807 11.5866L84.4765 14.0233L81.9495 14.0192ZM81.9537 11.5783L81.958 9.07913L84.4849 9.0833L84.4807 11.5825L81.9537 11.5783ZM86.9697 31.43L86.9655 33.8917L84.4512 33.8875L84.4554 31.4259L86.9697 31.43ZM84.4554 31.43L84.4596 28.9933L86.9739 28.9975L86.9697 31.4342L84.4554 31.43ZM84.4807 11.5825L84.4849 9.0833L86.9992 9.08746L86.995 11.5866L84.4807 11.5825ZM89.4967 31.4342L89.4925 33.8959L86.9655 33.8917L86.9697 31.43L89.4967 31.4342ZM86.9697 31.43L86.9739 28.9933L89.5009 28.9975L89.4967 31.4342L86.9697 31.43ZM86.995 11.5866L86.9992 9.08746L89.5261 9.09163L89.5219 11.5908L86.995 11.5866ZM91.9604 31.4383L91.9562 33.9L89.4925 33.8959L89.4967 31.4342L91.9604 31.4383ZM89.4967 31.4342L89.5009 28.9975L91.9646 29.0017L91.9604 31.4383L89.4967 31.4342ZM89.5009 28.9975L89.5051 26.4983L91.9689 26.5025L91.9646 29.0017L89.5009 28.9975ZM89.5009 26.4983L89.5051 24.0117L91.9689 24.0158L91.9646 26.5025L89.5009 26.4983ZM89.5051 24.0117L89.5093 21.5125L91.9731 21.5167L91.9689 24.0158L89.5051 24.0117ZM89.5135 19.0258L89.5177 16.5266L91.9815 16.5308L91.9773 19.03L89.5135 19.0258ZM89.5135 16.5266L89.5177 14.0275L91.9815 14.0316L91.9773 16.5308L89.5135 16.5266ZM89.5219 11.5908L89.5261 9.09163L91.9899 9.09579L91.9857 11.595L89.5219 11.5908ZM94.4874 31.4425L94.4832 33.9042L91.9562 33.9L91.9604 31.4383L94.4874 31.4425ZM91.9604 31.4383L91.9646 29.0017L94.4916 29.0058L94.4874 31.4425L91.9604 31.4383ZM91.9646 29.0017L91.9689 26.5025L94.4958 26.5067L94.4916 29.0058L91.9646 29.0017ZM91.9689 26.5025L91.9731 24.0158L94.5 24.02L94.4958 26.5067L91.9689 26.5025ZM91.9689 24.0158L91.9731 21.5167L94.5 21.5208L94.4958 24.02L91.9689 24.0158ZM91.9773 19.03L91.9815 16.5308L94.5084 16.535L94.5042 19.0341L91.9773 19.03ZM91.9815 16.5308L91.9857 14.0316L94.5126 14.0358L94.5084 16.535L91.9815 16.5308ZM91.9857 11.5908L91.9899 9.09163L94.5169 9.09579L94.5126 11.595L91.9857 11.5908ZM94.4874 31.4425L94.4916 29.0058L97.0185 29.01L97.0143 31.4467L94.4874 31.4425ZM94.4916 29.0017L94.4958 26.5025L97.0227 26.5067L97.0185 29.0058L94.4916 29.0017ZM94.4958 26.5025L94.5 24.0158L97.027 24.02L97.0227 26.5067L94.4958 26.5025ZM94.4958 24.0158L94.5 21.5167L97.027 21.5208L97.0227 24.02L94.4958 24.0158ZM94.5042 19.03L94.5084 16.5308L97.0354 16.535L97.0312 19.0341L94.5042 19.03ZM94.5084 16.5308L94.5126 14.0316L97.0396 14.0358L97.0354 16.535L94.5084 16.5308ZM94.5126 11.595L94.5169 9.09579L97.0438 9.09996L97.0396 11.5991L94.5126 11.595ZM99.5286 31.4467L99.5244 33.9084L97.0101 33.9042L97.0143 31.4425L99.5286 31.4467ZM97.0143 31.4425L97.0185 29.0058L99.5328 29.01L99.5286 31.4467L97.0143 31.4425ZM97.0396 11.5991L97.0438 9.09996L99.5581 9.10412L99.5539 11.6033L97.0396 11.5991ZM102.056 31.4508L102.051 33.9125L99.5244 33.9084L99.5286 31.4467L102.056 31.4508ZM99.5286 31.4467L99.5328 29.01L102.06 29.0142L102.056 31.4508L99.5286 31.4467ZM99.5413 21.525L99.5455 19.0383L102.072 19.0425L102.068 21.5291L99.5413 21.525ZM99.5497 14.04L99.5539 11.6033L102.081 11.6075L102.077 14.0441L99.5497 14.04ZM99.5539 11.6033L99.5581 9.10412L102.085 9.10829L102.081 11.6075L99.5539 11.6033ZM104.57 31.455L104.566 33.9167L102.051 33.9125L102.056 31.4508L104.57 31.455ZM102.056 31.4508L102.06 29.0142L104.574 29.0183L104.57 31.455L102.056 31.4508ZM102.06 29.0142L102.064 26.515L104.578 26.5192L104.574 29.0183L102.06 29.0142ZM102.064 26.515L102.068 24.0283L104.583 24.0325L104.578 26.5192L102.064 26.515ZM102.064 24.0283L102.068 21.5291L104.583 21.5333L104.578 24.0325L102.064 24.0283ZM102.068 21.5291L102.072 19.0425L104.587 19.0466L104.583 21.5333L102.068 21.5291ZM102.072 19.0425L102.077 16.5433L104.591 16.5475L104.587 19.0466L102.072 19.0425ZM102.077 16.5433L102.081 14.0441L104.595 14.0483L104.591 16.5475L102.077 16.5433ZM102.077 14.0441L102.081 11.6075L104.595 11.6116L104.591 14.0483L102.077 14.0441ZM107.046 31.455L107.042 33.9167L104.566 33.9125L104.57 31.4508L107.046 31.455ZM104.57 31.455L104.574 29.0183L107.05 29.0225L107.046 31.4592L104.57 31.455ZM104.574 29.0142L104.578 26.515L107.055 26.5192L107.05 29.0183L104.574 29.0142ZM104.578 26.515L104.583 24.0283L107.059 24.0325L107.055 26.5192L104.578 26.515ZM104.583 24.0283L104.587 21.5291L107.063 21.5333L107.059 24.0325L104.583 24.0283ZM104.583 21.5291L104.587 19.0425L107.063 19.0466L107.059 21.5333L104.583 21.5291ZM104.587 19.0425L104.591 16.5433L107.067 16.5475L107.063 19.0466L104.587 19.0425ZM104.591 16.5433L104.595 14.0441L107.072 14.0483L107.067 16.5475L104.591 16.5433Z" fill="white"/>
  <path d="M104.574 29.0142L104.578 26.515L107.105 26.5192L107.101 29.0183L104.574 29.0142ZM104.578 26.515L104.582 24.0283L107.109 24.0325L107.105 26.5192L104.578 26.515ZM104.582 24.0283L104.587 21.5292L107.114 21.5333L107.109 24.0325L104.582 24.0283ZM104.582 21.5292L104.587 19.0425L107.114 19.0466L107.109 21.5333L104.582 21.5292ZM104.587 19.0425L104.591 16.5433L107.118 16.5475L107.114 19.0466L104.587 19.0425ZM104.591 16.5433L104.595 14.0441L107.122 14.0483L107.118 16.5475L104.591 16.5433ZM104.595 14.0441L104.599 11.6075L107.126 11.6116L107.122 14.0483L104.595 14.0441ZM107.097 31.455L107.101 29.0183L109.615 29.0225L109.611 31.4592L107.097 31.455ZM107.101 29.0183L107.105 26.5192L109.619 26.5233L109.615 29.0225L107.101 29.0183ZM107.122 14.0483L107.126 11.6116L109.64 11.6158L109.636 14.0525L107.122 14.0483ZM107.122 11.6116L107.126 9.11246L109.64 9.11662L109.636 11.6158L107.122 11.6116ZM112.138 31.4633L112.134 33.925L109.607 33.9209L109.611 31.4592L112.138 31.4633ZM109.611 31.4592L109.615 29.0225L112.142 29.0267L112.138 31.4633L109.611 31.4592ZM109.636 11.6158L109.64 9.11662L112.167 9.12079L112.163 11.62L109.636 11.6158ZM114.606 31.4675L114.602 33.9292L112.138 33.925L112.142 31.4633L114.606 31.4675ZM112.138 31.4633L112.142 29.0267L114.606 29.0308L114.602 31.4675L112.138 31.4633ZM112.146 26.5275L112.151 24.0408L114.614 24.045L114.61 26.5317L112.146 26.5275ZM112.151 24.0408L112.155 21.5416L114.619 21.5458L114.614 24.045L112.151 24.0408ZM112.151 21.5416L112.155 19.055L114.619 19.0591L114.614 21.5458L112.151 21.5416ZM112.155 19.055L112.159 16.5558L114.623 16.56L114.619 19.0591L112.155 19.055ZM112.159 16.5558L112.163 14.0566L114.627 14.0608L114.623 16.56L112.159 16.5558ZM112.163 11.6158L112.167 9.11662L114.631 9.12079L114.627 11.62L112.163 11.6158ZM117.133 31.4675L117.129 33.9292L114.602 33.925L114.606 31.4633L117.133 31.4675ZM114.606 31.4675L114.61 29.0308L117.137 29.035L117.133 31.4717L114.606 31.4675ZM114.61 26.5275L114.614 24.0408L117.141 24.045L117.137 26.5317L114.61 26.5275ZM114.614 24.0408L114.619 21.5416L117.146 21.5458L117.141 24.045L114.614 24.0408ZM114.619 21.5416L114.623 19.055L117.15 19.0591L117.146 21.5458L114.619 21.5416ZM114.619 19.055L114.623 16.5558L117.15 16.56L117.146 19.0591L114.619 19.055ZM114.623 16.5558L114.627 14.0566L117.154 14.0608L117.15 16.56L114.623 16.5558ZM114.627 11.62L114.631 9.12079L117.158 9.12495L117.154 11.6241L114.627 11.62ZM119.66 31.4717L119.656 33.9333L117.129 33.9292L117.133 31.4675L119.66 31.4717ZM117.133 31.4675L117.137 29.0308L119.664 29.035L119.66 31.4717L117.133 31.4675ZM117.137 26.5317L117.141 24.045L119.668 24.0491L119.664 26.5358L117.137 26.5317ZM117.141 24.045L117.146 21.5458L119.672 21.55L119.668 24.0491L117.141 24.045ZM117.146 21.5458L117.15 19.0591L119.677 19.0633L119.672 21.55L117.146 21.5458ZM117.146 19.0591L117.15 16.56L119.677 16.5641L119.672 19.0633L117.146 19.0591ZM117.15 16.56L117.154 14.0608L119.681 14.065L119.677 16.5641L117.15 16.56ZM117.154 11.6241L117.158 9.12495L119.685 9.12912L119.681 11.6283L117.154 11.6241ZM122.174 31.4758L122.17 33.9375L119.656 33.9333L119.66 31.4717L122.174 31.4758ZM119.66 31.4717L119.664 29.035L122.178 29.0391L122.174 31.4758L119.66 31.4717ZM119.681 11.6283L119.685 9.12912L122.199 9.13328L122.195 11.6325L119.681 11.6283ZM124.701 31.48L124.697 33.9417L122.17 33.9375L122.174 31.4758L124.701 31.48ZM122.174 31.4758L122.178 29.0391L124.705 29.0433L124.701 31.48L122.174 31.4758ZM122.174 29.0391L122.178 26.54L124.705 26.5441L124.701 29.0433L122.174 29.0391ZM122.195 14.0691L122.199 11.6325L124.726 11.6366L124.722 14.0733L122.195 14.0691ZM122.199 11.6283L122.204 9.12912L124.731 9.13328L124.726 11.6325L122.199 11.6283ZM127.215 31.48L127.211 33.9417L124.697 33.9375L124.701 31.4758L127.215 31.48ZM124.701 31.48L124.705 29.0433L127.22 29.0475L127.215 31.4842L124.701 31.48ZM124.701 29.0391L124.705 26.54L127.22 26.5441L127.215 29.0433L124.701 29.0391ZM124.705 26.54L124.71 24.0533L127.224 24.0575L127.22 26.5441L124.705 26.54ZM124.71 24.0533L124.714 21.5541L127.228 21.5583L127.224 24.0575L124.71 24.0533ZM124.714 21.5541L124.718 19.0675L127.232 19.0716L127.228 21.5583L124.714 21.5541ZM124.714 19.0675L124.718 16.5683L127.232 16.5725L127.228 19.0716L124.714 19.0675ZM124.718 16.5683L124.722 14.0691L127.236 14.0733L127.232 16.5725L124.718 16.5683ZM124.722 14.0691L124.726 11.6325L127.241 11.6366L127.236 14.0733L124.722 14.0691ZM127.215 31.48L127.22 29.0433L129.696 29.0475L129.692 31.4842L127.215 31.48ZM127.215 29.0433L127.22 26.5441L129.696 26.5483L129.692 29.0475L127.215 29.0433ZM127.22 26.5441L127.224 24.0575L129.7 24.0616L129.696 26.5483L127.22 26.5441ZM127.224 24.0575L127.228 21.5583L129.704 21.5625L129.7 24.0616L127.224 24.0575ZM127.228 21.5583L127.232 19.0716L129.709 19.0758L129.704 21.5625L127.228 21.5583ZM127.228 19.0716L127.232 16.5725L129.709 16.5766L129.704 19.0758L127.228 19.0716ZM127.232 16.5725L127.236 14.0733L129.713 14.0775L129.709 16.5766L127.232 16.5725Z" fill="white"/>
  <path d="M127.224 24.0575L127.228 21.5583L129.755 21.5625L129.751 24.0616L127.224 24.0575ZM127.224 21.5583L127.228 19.0716L129.755 19.0758L129.751 21.5625L127.224 21.5583ZM127.228 19.0716L127.232 16.5725L129.759 16.5766L129.755 19.0758L127.228 19.0716ZM127.232 16.5725L127.237 14.0733L129.763 14.0775L129.759 16.5766L127.232 16.5725ZM127.237 14.0733L127.241 11.6366L129.768 11.6408L129.763 14.0775L127.237 14.0733ZM127.237 11.6366L127.241 9.13745L129.768 9.14162L129.763 11.6408L127.237 11.6366ZM129.747 26.5483L129.751 24.0616L132.265 24.0658L132.261 26.5525L129.747 26.5483ZM129.751 24.0616L129.755 21.5625L132.269 21.5666L132.265 24.0658L129.751 24.0616ZM129.763 11.6408L129.768 9.14162L132.282 9.14578L132.278 11.6449L129.763 11.6408ZM132.257 29.0516L132.261 26.5525L134.788 26.5566L134.784 29.0558L132.257 29.0516ZM132.261 26.5525L132.265 24.0658L134.792 24.07L134.788 26.5566L132.261 26.5525ZM132.278 11.6408L132.282 9.14162L134.809 9.14578L134.805 11.6449L132.278 11.6408ZM134.784 31.4925L134.788 29.0558L137.252 29.06L137.247 31.4925H134.784ZM134.784 29.0516L134.788 26.5525L137.252 26.5566L137.247 29.0558L134.784 29.0516ZM134.796 21.5666L134.8 19.08L137.264 19.0841L137.26 21.5708L134.796 21.5666ZM134.796 19.08L134.8 16.5808L137.264 16.585L137.26 19.0841L134.796 19.08ZM134.8 16.5808L134.805 14.0816L137.268 14.0858L137.264 16.585L134.8 16.5808ZM134.805 14.0816L134.809 11.6449L137.273 11.6491L137.268 14.0858L134.805 14.0816ZM134.805 11.6449L134.809 9.14578L137.273 9.14995L137.268 11.6491L134.805 11.6449ZM139.774 31.4967L139.77 33.9583L137.243 33.9542L137.247 31.4925L139.774 31.4967ZM137.247 31.4925L137.252 29.0558L139.779 29.06L139.774 31.4967L137.247 31.4925ZM137.256 24.07L137.26 21.5708L139.787 21.575L139.783 24.0741L137.256 24.07ZM137.26 21.5708L137.264 19.0841L139.791 19.0883L139.787 21.575L137.26 21.5708ZM137.26 19.0841L137.264 16.585L139.791 16.5891L139.787 19.0883L137.26 19.0841ZM137.264 16.585L137.268 14.0858L139.795 14.09L139.791 16.5891L137.264 16.585ZM137.268 14.0858L137.273 11.6491L139.8 11.6533L139.795 14.09L137.268 14.0858ZM142.301 31.5008L142.297 33.9625L139.77 33.9583L139.774 31.4967L142.301 31.5008ZM139.774 31.4967L139.779 29.06L142.306 29.0641L142.301 31.5008L139.774 31.4967ZM139.774 29.06L139.779 26.5608L142.306 26.565L142.301 29.0641L139.774 29.06ZM139.787 21.575L139.791 19.0883L142.318 19.0925L142.314 21.5791L139.787 21.575ZM139.787 19.0883L139.791 16.5891L142.318 16.5933L142.314 19.0925L139.787 19.0883ZM139.791 16.5891L139.795 14.09L142.322 14.0941L142.318 16.5933L139.791 16.5891ZM139.795 14.09L139.8 11.6533L142.327 11.6574L142.322 14.0941L139.795 14.09ZM139.8 11.6533L139.804 9.15411L142.331 9.15828L142.327 11.6574L139.8 11.6533ZM144.816 31.505L144.811 33.9667L142.297 33.9625L142.301 31.5008L144.816 31.505ZM142.301 31.5008L142.306 29.0641L144.82 29.0683L144.816 31.505L142.301 31.5008ZM142.301 29.0641L142.306 26.565L144.82 26.5691L144.816 29.0683L142.301 29.0641ZM142.306 26.565L142.31 24.0783L144.824 24.0825L144.82 26.5691L142.306 26.565ZM142.327 11.6533L142.331 9.15411L144.845 9.15828L144.841 11.6574L142.327 11.6533ZM144.816 31.505L144.82 29.0683L147.347 29.0725L147.343 31.5092L144.816 31.505ZM144.82 29.0641L144.824 26.565L147.351 26.5691L147.347 29.0683L144.82 29.0641ZM144.82 26.565L144.824 24.0783L147.351 24.0825L147.347 26.5691L144.82 26.565ZM144.824 24.0783L144.828 21.5791L147.355 21.5833L147.351 24.0825L144.824 24.0783ZM144.841 11.6574L144.845 9.15828L147.372 9.16244L147.368 11.6616L144.841 11.6574ZM147.347 29.0683L147.351 26.5691L149.865 26.5733L149.861 29.0725L147.347 29.0683ZM147.347 26.5691L147.351 24.0825L149.865 24.0866L149.861 26.5733L147.347 26.5691ZM147.351 24.0825L147.355 21.5833L149.869 21.5875L149.865 24.0866L147.351 24.0825ZM147.355 21.5833L147.359 19.0966L149.874 19.1008L149.869 21.5875L147.355 21.5833ZM147.355 19.0966L147.359 16.5975L149.874 16.6016L149.869 19.1008L147.355 19.0966ZM147.359 16.5975L147.364 14.0983L149.878 14.1025L149.874 16.6016L147.359 16.5975ZM147.364 14.0983L147.368 11.6616L149.882 11.6658L149.878 14.1025L147.364 14.0983ZM147.368 11.6616L147.372 9.16244L149.886 9.16661L149.882 11.6658L147.368 11.6616ZM149.861 26.5733L149.865 24.0866L152.342 24.0908L152.337 26.5775L149.861 26.5733ZM149.865 24.0866L149.869 21.5875L152.346 21.5916L152.342 24.0908L149.865 24.0866ZM149.869 21.5875L149.874 19.1008L152.35 19.105L152.346 21.5916L149.869 21.5875ZM149.874 19.1008L149.878 16.6016L152.354 16.6058L152.35 19.105L149.874 19.1008ZM149.874 16.6016L149.878 14.1025L152.354 14.1066L152.35 16.6058L149.874 16.6016ZM149.878 14.1025L149.882 11.6658L152.359 11.6699L152.354 14.1066L149.878 14.1025Z" fill="white"/>
  <path d="M149.857 31.5092L149.861 29.0725L152.388 29.0767L152.384 31.5133L149.857 31.5092ZM149.861 29.0725L149.865 26.5733L152.392 26.5775L152.388 29.0767L149.861 29.0725ZM149.861 26.5733L149.865 24.0867L152.392 24.0908L152.388 26.5775L149.861 26.5733ZM149.865 24.0867L149.87 21.5875L152.397 21.5917L152.392 24.0908L149.865 24.0867ZM149.87 21.5875L149.874 19.1008L152.401 19.105L152.397 21.5917L149.87 21.5875ZM149.874 19.1008L149.878 16.6016L152.405 16.6058L152.401 19.105L149.874 19.1008ZM149.874 16.6016L149.878 14.1025L152.405 14.1066L152.401 16.6058L149.874 16.6016ZM149.878 14.1025L149.882 11.6658L152.409 11.67L152.405 14.1066L149.878 14.1025ZM149.882 11.6658L149.886 9.16663L152.413 9.17079L152.409 11.67L149.882 11.6658ZM154.898 31.5175L154.894 33.9792L152.38 33.975L152.384 31.5133L154.898 31.5175ZM152.384 31.5133L152.388 29.0767L154.902 29.0808L154.898 31.5175L152.384 31.5133ZM152.409 11.6658L152.413 9.16663L154.928 9.17079L154.923 11.67L152.409 11.6658ZM157.425 31.5175L157.421 33.9792L154.894 33.975L154.898 31.5133L157.425 31.5175ZM154.898 31.5175L154.902 29.0808L157.429 29.085L157.425 31.5217L154.898 31.5175ZM154.923 11.67L154.928 9.17079L157.455 9.17496L157.45 11.6741L154.923 11.67ZM159.889 31.5217L159.885 33.9834L157.421 33.9792L157.425 31.5175L159.889 31.5217ZM157.425 31.5175L157.429 29.0808L159.893 29.085L159.889 31.5217L157.425 31.5175ZM157.429 26.5817L157.434 24.095L159.897 24.0991L159.893 26.5858L157.429 26.5817ZM157.434 24.095L157.438 21.5958L159.902 21.6L159.897 24.0991L157.434 24.095ZM157.442 19.1091L157.446 16.61L159.91 16.6141L159.906 19.1133L157.442 19.1091ZM157.442 16.61L157.446 14.1108L159.91 14.115L159.906 16.6141L157.442 16.61ZM157.45 11.6741L157.455 9.17496L159.918 9.17912L159.914 11.6783L157.45 11.6741ZM162.416 31.5258L162.412 33.9875L159.885 33.9834L159.889 31.5217L162.416 31.5258ZM159.889 31.5217L159.893 29.085L162.42 29.0892L162.416 31.5258L159.889 31.5217ZM159.897 26.5858L159.902 24.0991L162.428 24.1033L162.424 26.59L159.897 26.5858ZM159.897 24.0991L159.902 21.6L162.428 21.6041L162.424 24.1033L159.897 24.0991ZM159.906 19.1133L159.91 16.6141L162.437 16.6183L162.433 19.1175L159.906 19.1133ZM159.91 16.6141L159.914 14.115L162.441 14.1191L162.437 16.6183L159.91 16.6141ZM159.914 11.6783L159.918 9.17912L162.445 9.18329L162.441 11.6825L159.914 11.6783ZM164.943 31.5258L164.939 33.9875L162.412 33.9834L162.416 31.5217L164.943 31.5258ZM162.416 31.5258L162.42 29.0892L164.947 29.0933L164.943 31.53L162.416 31.5258ZM162.424 26.59L162.428 24.1033L164.955 24.1075L164.951 26.5942L162.424 26.59ZM162.424 24.1033L162.428 21.6041L164.955 21.6083L164.951 24.1075L162.424 24.1033ZM162.433 19.1175L162.437 16.6183L164.964 16.6225L164.96 19.1216L162.433 19.1175ZM162.437 16.6183L162.441 14.1191L164.968 14.1233L164.964 16.6225L162.437 16.6183ZM162.441 11.6783L162.445 9.17912L164.972 9.18329L164.968 11.6825L162.441 11.6783ZM167.457 31.53L167.453 33.9917L164.939 33.9875L164.943 31.5258L167.457 31.53ZM164.943 31.5258L164.947 29.0892L167.461 29.0933L167.457 31.53L164.943 31.5258ZM164.951 26.59L164.955 24.1033L167.47 24.1075L167.466 26.5942L164.951 26.59ZM164.951 24.1033L164.955 21.6041L167.47 21.6083L167.466 24.1075L164.951 24.1033ZM164.96 19.1175L164.964 16.6183L167.478 16.6225L167.474 19.1216L164.96 19.1175ZM164.964 16.6183L164.968 14.1191L167.482 14.1233L167.478 16.6225L164.964 16.6183ZM164.968 11.6825L164.972 9.18329L167.487 9.18745L167.482 11.6866L164.968 11.6825ZM169.984 31.5342L169.98 33.9959L167.453 33.9917L167.457 31.53L169.984 31.5342ZM167.457 31.53L167.461 29.0933L169.988 29.0975L169.984 31.5342L167.457 31.53ZM167.461 26.5942L167.466 24.1075L169.992 24.1116L169.988 26.5983L167.461 26.5942ZM167.466 24.1075L167.47 21.6083L169.997 21.6125L169.992 24.1116L167.466 24.1075ZM167.47 21.6083L167.474 19.1216L170.001 19.1258L169.997 21.6125L167.47 21.6083ZM167.474 19.1216L167.478 16.6225L170.005 16.6266L170.001 19.1258L167.474 19.1216ZM167.478 16.6225L167.482 14.1233L170.009 14.1275L170.005 16.6266L167.478 16.6225ZM167.482 11.6866L167.487 9.18745L170.014 9.19162L170.009 11.6908L167.482 11.6866ZM172.498 31.5383L172.494 34L169.98 33.9959L169.984 31.5342L172.498 31.5383ZM169.984 31.5342L169.988 29.0975L172.503 29.1016L172.498 31.5383L169.984 31.5342ZM169.988 29.0975L169.992 26.5983L172.507 26.6025L172.503 29.1016L169.988 29.0975ZM169.988 26.5983L169.992 24.1116L172.507 24.1158L172.503 26.6025L169.988 26.5983ZM169.992 24.1116L169.997 21.6125L172.511 21.6166L172.507 24.1158L169.992 24.1116ZM169.997 21.6125L170.001 19.1258L172.515 19.13L172.511 21.6166L169.997 21.6125ZM170.001 19.1258L170.005 16.6266L172.519 16.6308L172.515 19.13L170.001 19.1258ZM170.005 16.6266L170.009 14.1275L172.524 14.1316L172.519 16.6308L170.005 16.6266ZM170.005 14.1275L170.009 11.6908L172.524 11.695L172.519 14.1316L170.005 14.1275ZM170.009 11.6908L170.014 9.19162L172.528 9.19578L172.524 11.695L170.009 11.6908ZM174.975 31.5425L174.971 34.0042L172.494 34L172.498 31.5383L174.975 31.5425ZM172.498 31.5383L172.503 29.1016L174.979 29.1058L174.975 31.5425L172.498 31.5383ZM172.503 29.1016L172.507 26.6025L174.983 26.6066L174.979 29.1058L172.503 29.1016ZM172.515 19.1258L172.519 16.6266L174.996 16.6308L174.992 19.13L172.515 19.1258ZM172.519 16.6266L172.524 14.1275L175 14.1316L174.996 16.6308L172.519 16.6266ZM172.519 14.1275L172.524 11.6908L175 11.695L174.996 14.1316L172.519 14.1275Z" fill="white"/>
  </g>
  <defs>
  <clipPath id="clip0">
  <rect width="161" height="25" fill="white" transform="translate(14 9)"/>
  </clipPath>
  </defs>
</svg>
