<svg viewBox="0 0 50 46" fill="none" xmlns="http://www.w3.org/2000/svg">
  <path d="M33.9985 42.7051H32.001V45.0788H33.9985V42.7051Z" fill="#8EC440"/>
  <path d="M31.9985 42.7051H30.001V45.0788H31.9985V42.7051Z" fill="#8EC440"/>
  <path d="M30.0013 42.7051H27.999V45.0788H30.0013V42.7051Z" fill="#8EC440"/>
  <path d="M28.0009 42.7051H26.001V45.0788H28.0009V42.7051Z" fill="#8EC440"/>
  <path d="M25.9985 42.7051H24.001V45.0788H25.9985V42.7051Z" fill="#8EC440"/>
  <path d="M24.0013 42.7051H21.999V45.0788H24.0013V42.7051Z" fill="#8EC440"/>
  <path d="M21.9995 42.7051H20.002V45.0788H21.9995V42.7051Z" fill="#8EC440"/>
  <path d="M19.9995 42.7051H18.002V45.0788H19.9995V42.7051Z" fill="#8EC440"/>
  <path d="M18.0013 42.7051H15.999V45.0788H18.0013V42.7051Z" fill="#8EC440"/>
  <path d="M37.9985 40.3337H36.001V42.7074H37.9985V40.3337Z" fill="#8EC440"/>
  <path d="M36.0003 40.3337H33.998V42.7074H36.0003V40.3337Z" fill="#8EC440"/>
  <path d="M33.9985 40.3337H32.001V42.7074H33.9985V40.3337Z" fill="#8EC440"/>
  <path d="M31.9985 40.3337H30.001V42.7074H31.9985V40.3337Z" fill="#8EC440"/>
  <path d="M30.0013 40.3337H27.999V42.7074H30.0013V40.3337Z" fill="#8EC440"/>
  <path d="M28.0009 40.3337H26.001V42.7074H28.0009V40.3337Z" fill="#8EC440"/>
  <path d="M25.9985 40.3337H24.001V42.7074H25.9985V40.3337Z" fill="#8EC440"/>
  <path d="M24.0013 40.3337H21.999V42.7074H24.0013V40.3337Z" fill="#8EC440"/>
  <path d="M21.9995 40.3337H20.002V42.7074H21.9995V40.3337Z" fill="#8EC440"/>
  <path d="M19.9995 40.3337H18.002V42.7074H19.9995V40.3337Z" fill="#8EC440"/>
  <path d="M18.0013 40.3337H15.999V42.7074H18.0013V40.3337Z" fill="#8EC440"/>
  <path d="M15.9995 40.3337H14.002V42.7074H15.9995V40.3337Z" fill="#8EC440"/>
  <path d="M13.9995 40.3337H12.002V42.7074H13.9995V40.3337Z" fill="#8EC440"/>
  <path d="M42.0003 37.9625H39.998V40.3338H42.0003V37.9625Z" fill="#8EC440"/>
  <path d="M39.9985 37.9625H38.001V40.3338H39.9985V37.9625Z" fill="#8EC440"/>
  <path d="M37.9985 37.9625H36.001V40.3338H37.9985V37.9625Z" fill="#8EC440"/>
  <path d="M36.0003 37.9625H33.998V40.3338H36.0003V37.9625Z" fill="#8EC440"/>
  <path d="M33.9985 37.9625H32.001V40.3338H33.9985V37.9625Z" fill="#8EC440"/>
  <path d="M31.9985 37.9625H30.001V40.3338H31.9985V37.9625Z" fill="#8EC440"/>
  <path d="M30.0013 37.9625H27.999V40.3338H30.0013V37.9625Z" fill="#8EC440"/>
  <path d="M28.0009 37.9625H26.001V40.3338H28.0009V37.9625Z" fill="#8EC440"/>
  <path d="M25.9985 37.9625H24.001V40.3338H25.9985V37.9625Z" fill="#8EC440"/>
  <path d="M24.0013 37.9625H21.999V40.3338H24.0013V37.9625Z" fill="#8EC440"/>
  <path d="M21.9995 37.9625H20.002V40.3338H21.9995V37.9625Z" fill="#8EC440"/>
  <path d="M19.9995 37.9625H18.002V40.3338H19.9995V37.9625Z" fill="#8EC440"/>
  <path d="M18.0013 37.9625H15.999V40.3338H18.0013V37.9625Z" fill="#8EC440"/>
  <path d="M15.9995 37.9625H14.002V40.3338H15.9995V37.9625Z" fill="#8EC440"/>
  <path d="M13.9995 37.9625H12.002V40.3338H13.9995V37.9625Z" fill="#8EC440"/>
  <path d="M12.0013 37.9625H9.99902V40.3338H12.0013V37.9625Z" fill="#8EC440"/>
  <path d="M9.99948 37.9625H8.00195V40.3338H9.99948V37.9625Z" fill="#8EC440"/>
  <path d="M43.9975 35.5887H42V37.9624H43.9975V35.5887Z" fill="#8EC440"/>
  <path d="M42.0003 35.5887H39.998V37.9624H42.0003V35.5887Z" fill="#8EC440"/>
  <path d="M39.9985 35.5887H38.001V37.9624H39.9985V35.5887Z" fill="#8EC440"/>
  <path d="M37.9985 35.5887H36.001V37.9624H37.9985V35.5887Z" fill="#8EC440"/>
  <path d="M36.0003 35.5887H33.998V37.9624H36.0003V35.5887Z" fill="#8EC440"/>
  <path d="M33.9985 35.5887H32.001V37.9624H33.9985V35.5887Z" fill="#8EC440"/>
  <path d="M31.9985 35.5887H30.001V37.9624H31.9985V35.5887Z" fill="#8EC440"/>
  <path d="M30.0013 35.5887H27.999V37.9624H30.0013V35.5887Z" fill="#8EC440"/>
  <path d="M28.0009 35.5887H26.001V37.9624H28.0009V35.5887Z" fill="#8EC440"/>
  <path d="M25.9985 35.5887H24.001V37.9624H25.9985V35.5887Z" fill="#8EC440"/>
  <path d="M24.0013 35.5887H21.999V37.9624H24.0013V35.5887Z" fill="#8EC440"/>
  <path d="M21.9995 35.5887H20.002V37.9624H21.9995V35.5887Z" fill="#8EC440"/>
  <path d="M19.9995 35.5887H18.002V37.9624H19.9995V35.5887Z" fill="#8EC440"/>
  <path d="M18.0013 35.5887H15.999V37.9624H18.0013V35.5887Z" fill="#8EC440"/>
  <path d="M15.9995 35.5887H14.002V37.9624H15.9995V35.5887Z" fill="#8EC440"/>
  <path d="M13.9995 35.5887H12.002V37.9624H13.9995V35.5887Z" fill="#8EC440"/>
  <path d="M12.0013 35.5887H9.99902V37.9624H12.0013V35.5887Z" fill="#8EC440"/>
  <path d="M9.99948 35.5887H8.00195V37.9624H9.99948V35.5887Z" fill="#8EC440"/>
  <path d="M7.99948 35.5887H6.00195V37.9624H7.99948V35.5887Z" fill="#8EC440"/>
  <path d="M45.9975 33.2151H44V35.5888H45.9975V33.2151Z" fill="#8EC440"/>
  <path d="M43.9975 33.2151H42V35.5888H43.9975V33.2151Z" fill="#8EC440"/>
  <path d="M42.0003 33.2151H39.998V35.5888H42.0003V33.2151Z" fill="#8EC440"/>
  <path d="M39.9985 33.2151H38.001V35.5888H39.9985V33.2151Z" fill="#8EC440"/>
  <path d="M37.9985 33.2151H36.001V35.5888H37.9985V33.2151Z" fill="#8EC440"/>
  <path d="M36.0003 33.2151H33.998V35.5888H36.0003V33.2151Z" fill="#8EC440"/>
  <path d="M33.9985 33.2151H32.001V35.5888H33.9985V33.2151Z" fill="#8EC440"/>
  <path d="M31.9985 33.2151H30.001V35.5888H31.9985V33.2151Z" fill="#8EC440"/>
  <path d="M30.0013 33.2151H27.999V35.5888H30.0013V33.2151Z" fill="#8EC440"/>
  <path d="M28.0009 33.2151H26.001V35.5888H28.0009V33.2151Z" fill="#8EC440"/>
  <path d="M25.9985 33.2151H24.001V35.5888H25.9985V33.2151Z" fill="#8EC440"/>
  <path d="M24.0013 33.2151H21.999V35.5888H24.0013V33.2151Z" fill="#8EC440"/>
  <path d="M21.9995 33.2151H20.002V35.5888H21.9995V33.2151Z" fill="#8EC440"/>
  <path d="M19.9995 33.2151H18.002V35.5888H19.9995V33.2151Z" fill="#8EC440"/>
  <path d="M18.0013 33.2151H15.999V35.5888H18.0013V33.2151Z" fill="#8EC440"/>
  <path d="M15.9995 33.2151H14.002V35.5888H15.9995V33.2151Z" fill="#8EC440"/>
  <path d="M13.9995 33.2151H12.002V35.5888H13.9995V33.2151Z" fill="#8EC440"/>
  <path d="M12.0013 33.2151H9.99902V35.5888H12.0013V33.2151Z" fill="#8EC440"/>
  <path d="M9.99948 33.2151H8.00195V35.5888H9.99948V33.2151Z" fill="#8EC440"/>
  <path d="M7.99948 33.2151H6.00195V35.5888H7.99948V33.2151Z" fill="#8EC440"/>
  <path d="M6.00424 33.2151H4.00195V35.5888H6.00424V33.2151Z" fill="#8EC440"/>
  <path d="M48.0003 30.8438H45.998V33.2174H48.0003V30.8438Z" fill="#8EC440"/>
  <path d="M45.9975 30.8438H44V33.2174H45.9975V30.8438Z" fill="#8EC440"/>
  <path d="M43.9975 30.8438H42V33.2174H43.9975V30.8438Z" fill="#8EC440"/>
  <path d="M42.0003 30.8438H39.998V33.2174H42.0003V30.8438Z" fill="#8EC440"/>
  <path d="M39.9985 30.8438H38.001V33.2174H39.9985V30.8438Z" fill="#8EC440"/>
  <path d="M37.9985 30.8438H36.001V33.2174H37.9985V30.8438Z" fill="#8EC440"/>
  <path d="M36.0003 30.8438H33.998V33.2174H36.0003V30.8438Z" fill="#8EC440"/>
  <path d="M33.9985 30.8438H32.001V33.2174H33.9985V30.8438Z" fill="#8EC440"/>
  <path d="M31.9985 30.8438H30.001V33.2174H31.9985V30.8438Z" fill="#8EC440"/>
  <path d="M19.9995 30.8438H18.002V33.2174H19.9995V30.8438Z" fill="#8EC440"/>
  <path d="M18.0013 30.8438H15.999V33.2174H18.0013V30.8438Z" fill="#8EC440"/>
  <path d="M15.9995 30.8438H14.002V33.2174H15.9995V30.8438Z" fill="#8EC440"/>
  <path d="M13.9995 30.8438H12.002V33.2174H13.9995V30.8438Z" fill="#8EC440"/>
  <path d="M12.0013 30.8438H9.99902V33.2174H12.0013V30.8438Z" fill="#8EC440"/>
  <path d="M9.99948 30.8438H8.00195V33.2174H9.99948V30.8438Z" fill="#8EC440"/>
  <path d="M7.99948 30.8438H6.00195V33.2174H7.99948V30.8438Z" fill="#8EC440"/>
  <path d="M6.00424 30.8438H4.00195V33.2174H6.00424V30.8438Z" fill="#8EC440"/>
  <path d="M3.99948 30.8438H2.00195V33.2174H3.99948V30.8438Z" fill="#8EC440"/>
  <path d="M48.0003 28.4701H45.998V30.8438H48.0003V28.4701Z" fill="#8EC440"/>
  <path d="M45.9975 28.4701H44V30.8438H45.9975V28.4701Z" fill="#8EC440"/>
  <path d="M43.9975 28.4701H42V30.8438H43.9975V28.4701Z" fill="#8EC440"/>
  <path d="M42.0003 28.4701H39.998V30.8438H42.0003V28.4701Z" fill="#8EC440"/>
  <path d="M39.9985 28.4701H38.001V30.8438H39.9985V28.4701Z" fill="#8EC440"/>
  <path d="M37.9985 28.4701H36.001V30.8438H37.9985V28.4701Z" fill="#8EC440"/>
  <path d="M36.0003 28.4701H33.998V30.8438H36.0003V28.4701Z" fill="#8EC440"/>
  <path d="M15.9995 28.4701H14.002V30.8438H15.9995V28.4701Z" fill="#8EC440"/>
  <path d="M13.9995 28.4701H12.002V30.8438H13.9995V28.4701Z" fill="#8EC440"/>
  <path d="M12.0013 28.4701H9.99902V30.8438H12.0013V28.4701Z" fill="#8EC440"/>
  <path d="M9.99948 28.4701H8.00195V30.8438H9.99948V28.4701Z" fill="#8EC440"/>
  <path d="M7.99948 28.4701H6.00195V30.8438H7.99948V28.4701Z" fill="#8EC440"/>
  <path d="M6.00424 28.4701H4.00195V30.8438H6.00424V28.4701Z" fill="#8EC440"/>
  <path d="M3.99948 28.4701H2.00195V30.8438H3.99948V28.4701Z" fill="#8EC440"/>
  <path d="M49.9975 26.0988H48V28.4701H49.9975V26.0988Z" fill="#8EC440"/>
  <path d="M48.0003 26.0988H45.998V28.4701H48.0003V26.0988Z" fill="#8EC440"/>
  <path d="M45.9975 26.0988H44V28.4701H45.9975V26.0988Z" fill="#8EC440"/>
  <path d="M43.9975 26.0988H42V28.4701H43.9975V26.0988Z" fill="#8EC440"/>
  <path d="M42.0003 26.0988H39.998V28.4701H42.0003V26.0988Z" fill="#8EC440"/>
  <path d="M39.9985 26.0988H38.001V28.4701H39.9985V26.0988Z" fill="#8EC440"/>
  <path d="M37.9985 26.0988H36.001V28.4701H37.9985V26.0988Z" fill="#8EC440"/>
  <path d="M13.9995 26.0988H12.002V28.4701H13.9995V26.0988Z" fill="#8EC440"/>
  <path d="M12.0013 26.0988H9.99902V28.4701H12.0013V26.0988Z" fill="#8EC440"/>
  <path d="M9.99948 26.0988H8.00195V28.4701H9.99948V26.0988Z" fill="#8EC440"/>
  <path d="M7.99948 26.0988H6.00195V28.4701H7.99948V26.0988Z" fill="#8EC440"/>
  <path d="M6.00424 26.0988H4.00195V28.4701H6.00424V26.0988Z" fill="#8EC440"/>
  <path d="M3.99948 26.0988H2.00195V28.4701H3.99948V26.0988Z" fill="#8EC440"/>
  <path d="M2.00229 26.0988H0V28.4701H2.00229V26.0988Z" fill="#8EC440"/>
  <path d="M49.9975 23.7251H48V26.0988H49.9975V23.7251Z" fill="#8EC440"/>
  <path d="M48.0003 23.7251H45.998V26.0988H48.0003V23.7251Z" fill="#8EC440"/>
  <path d="M45.9975 23.7251H44V26.0988H45.9975V23.7251Z" fill="#8EC440"/>
  <path d="M43.9975 23.7251H42V26.0988H43.9975V23.7251Z" fill="#8EC440"/>
  <path d="M42.0003 23.7251H39.998V26.0988H42.0003V23.7251Z" fill="#8EC440"/>
  <path d="M39.9985 23.7251H38.001V26.0988H39.9985V23.7251Z" fill="#8EC440"/>
  <path d="M37.9985 23.7251H36.001V26.0988H37.9985V23.7251Z" fill="#8EC440"/>
  <path d="M13.9995 23.7251H12.002V26.0988H13.9995V23.7251Z" fill="#8EC440"/>
  <path d="M12.0013 23.7251H9.99902V26.0988H12.0013V23.7251Z" fill="#8EC440"/>
  <path d="M9.99948 23.7251H8.00195V26.0988H9.99948V23.7251Z" fill="#8EC440"/>
  <path d="M7.99948 23.7251H6.00195V26.0988H7.99948V23.7251Z" fill="#8EC440"/>
  <path d="M6.00424 23.7251H4.00195V26.0988H6.00424V23.7251Z" fill="#8EC440"/>
  <path d="M3.99948 23.7251H2.00195V26.0988H3.99948V23.7251Z" fill="#8EC440"/>
  <path d="M2.00229 23.7251H0V26.0988H2.00229V23.7251Z" fill="#8EC440"/>
  <path d="M49.9975 21.3538H48V23.7251H49.9975V21.3538Z" fill="#8EC440"/>
  <path d="M48.0003 21.3538H45.998V23.7251H48.0003V21.3538Z" fill="#8EC440"/>
  <path d="M45.9975 21.3538H44V23.7251H45.9975V21.3538Z" fill="#8EC440"/>
  <path d="M43.9975 21.3538H42V23.7251H43.9975V21.3538Z" fill="#8EC440"/>
  <path d="M42.0003 21.3538H39.998V23.7251H42.0003V21.3538Z" fill="#8EC440"/>
  <path d="M39.9985 21.3538H38.001V23.7251H39.9985V21.3538Z" fill="#8EC440"/>
  <path d="M37.9985 21.3538H36.001V23.7251H37.9985V21.3538Z" fill="#8EC440"/>
  <path d="M13.9995 21.3538H12.002V23.7251H13.9995V21.3538Z" fill="#8EC440"/>
  <path d="M12.0013 21.3538H9.99902V23.7251H12.0013V21.3538Z" fill="#8EC440"/>
  <path d="M9.99948 21.3538H8.00195V23.7251H9.99948V21.3538Z" fill="#8EC440"/>
  <path d="M7.99948 21.3538H6.00195V23.7251H7.99948V21.3538Z" fill="#8EC440"/>
  <path d="M6.00424 21.3538H4.00195V23.7251H6.00424V21.3538Z" fill="#8EC440"/>
  <path d="M3.99948 21.3538H2.00195V23.7251H3.99948V21.3538Z" fill="#8EC440"/>
  <path d="M2.00229 21.3538H0V23.7251H2.00229V21.3538Z" fill="#8EC440"/>
  <path d="M49.9975 18.9801H48V21.3538H49.9975V18.9801Z" fill="#8EC440"/>
  <path d="M48.0003 18.9801H45.998V21.3538H48.0003V18.9801Z" fill="#8EC440"/>
  <path d="M45.9975 18.9801H44V21.3538H45.9975V18.9801Z" fill="#8EC440"/>
  <path d="M43.9975 18.9801H42V21.3538H43.9975V18.9801Z" fill="#8EC440"/>
  <path d="M42.0003 18.9801H39.998V21.3538H42.0003V18.9801Z" fill="#8EC440"/>
  <path d="M39.9985 18.9801H38.001V21.3538H39.9985V18.9801Z" fill="#8EC440"/>
  <path d="M37.9985 18.9801H36.001V21.3538H37.9985V18.9801Z" fill="#8EC440"/>
  <path d="M13.9995 18.9801H12.002V21.3538H13.9995V18.9801Z" fill="#8EC440"/>
  <path d="M12.0013 18.9801H9.99902V21.3538H12.0013V18.9801Z" fill="#8EC440"/>
  <path d="M9.99948 18.9801H8.00195V21.3538H9.99948V18.9801Z" fill="#8EC440"/>
  <path d="M7.99948 18.9801H6.00195V21.3538H7.99948V18.9801Z" fill="#8EC440"/>
  <path d="M6.00424 18.9801H4.00195V21.3538H6.00424V18.9801Z" fill="#8EC440"/>
  <path d="M3.99948 18.9801H2.00195V21.3538H3.99948V18.9801Z" fill="#8EC440"/>
  <path d="M2.00229 18.9801H0V21.3538H2.00229V18.9801Z" fill="#8EC440"/>
  <path d="M49.9975 16.6063H48V18.98H49.9975V16.6063Z" fill="#8EC440"/>
  <path d="M48.0003 16.6063H45.998V18.98H48.0003V16.6063Z" fill="#8EC440"/>
  <path d="M45.9975 16.6063H44V18.98H45.9975V16.6063Z" fill="#8EC440"/>
  <path d="M43.9975 16.6063H42V18.98H43.9975V16.6063Z" fill="#8EC440"/>
  <path d="M42.0003 16.6063H39.998V18.98H42.0003V16.6063Z" fill="#8EC440"/>
  <path d="M39.9985 16.6063H38.001V18.98H39.9985V16.6063Z" fill="#8EC440"/>
  <path d="M37.9985 16.6063H36.001V18.98H37.9985V16.6063Z" fill="#8EC440"/>
  <path d="M13.9995 16.6063H12.002V18.98H13.9995V16.6063Z" fill="#8EC440"/>
  <path d="M12.0013 16.6063H9.99902V18.98H12.0013V16.6063Z" fill="#8EC440"/>
  <path d="M9.99948 16.6063H8.00195V18.98H9.99948V16.6063Z" fill="#8EC440"/>
  <path d="M7.99948 16.6063H6.00195V18.98H7.99948V16.6063Z" fill="#8EC440"/>
  <path d="M6.00424 16.6063H4.00195V18.98H6.00424V16.6063Z" fill="#8EC440"/>
  <path d="M3.99948 16.6063H2.00195V18.98H3.99948V16.6063Z" fill="#8EC440"/>
  <path d="M2.00229 16.6063H0V18.98H2.00229V16.6063Z" fill="#8EC440"/>
  <path d="M49.9975 14.235H48V16.6063H49.9975V14.235Z" fill="#8EC440"/>
  <path d="M48.0003 14.235H45.998V16.6063H48.0003V14.235Z" fill="#8EC440"/>
  <path d="M45.9975 14.235H44V16.6063H45.9975V14.235Z" fill="#8EC440"/>
  <path d="M43.9975 14.235H42V16.6063H43.9975V14.235Z" fill="#8EC440"/>
  <path d="M42.0003 14.235H39.998V16.6063H42.0003V14.235Z" fill="#8EC440"/>
  <path d="M39.9985 14.235H38.001V16.6063H39.9985V14.235Z" fill="#8EC440"/>
  <path d="M37.9985 14.235H36.001V16.6063H37.9985V14.235Z" fill="#8EC440"/>
  <path d="M36.0003 14.235H33.998V16.6063H36.0003V14.235Z" fill="#8EC440"/>
  <path d="M15.9995 14.235H14.002V16.6063H15.9995V14.235Z" fill="#8EC440"/>
  <path d="M13.9995 14.235H12.002V16.6063H13.9995V14.235Z" fill="#8EC440"/>
  <path d="M12.0013 14.235H9.99902V16.6063H12.0013V14.235Z" fill="#8EC440"/>
  <path d="M9.99948 14.235H8.00195V16.6063H9.99948V14.235Z" fill="#8EC440"/>
  <path d="M7.99948 14.235H6.00195V16.6063H7.99948V14.235Z" fill="#8EC440"/>
  <path d="M6.00424 14.235H4.00195V16.6063H6.00424V14.235Z" fill="#8EC440"/>
  <path d="M3.99948 14.235H2.00195V16.6063H3.99948V14.235Z" fill="#8EC440"/>
  <path d="M2.00229 14.235H0V16.6063H2.00229V14.235Z" fill="#8EC440"/>
  <path d="M48.0003 11.8638H45.998V14.2375H48.0003V11.8638Z" fill="#8EC440"/>
  <path d="M45.9975 11.8638H44V14.2375H45.9975V11.8638Z" fill="#8EC440"/>
  <path d="M43.9975 11.8638H42V14.2375H43.9975V11.8638Z" fill="#8EC440"/>
  <path d="M42.0003 11.8638H39.998V14.2375H42.0003V11.8638Z" fill="#8EC440"/>
  <path d="M39.9985 11.8638H38.001V14.2375H39.9985V11.8638Z" fill="#8EC440"/>
  <path d="M37.9985 11.8638H36.001V14.2375H37.9985V11.8638Z" fill="#8EC440"/>
  <path d="M36.0003 11.8638H33.998V14.2375H36.0003V11.8638Z" fill="#8EC440"/>
  <path d="M33.9985 11.8638H32.001V14.2375H33.9985V11.8638Z" fill="#8EC440"/>
  <path d="M18.0013 11.8638H15.999V14.2375H18.0013V11.8638Z" fill="#8EC440"/>
  <path d="M15.9995 11.8638H14.002V14.2375H15.9995V11.8638Z" fill="#8EC440"/>
  <path d="M13.9995 11.8638H12.002V14.2375H13.9995V11.8638Z" fill="#8EC440"/>
  <path d="M12.0013 11.8638H9.99902V14.2375H12.0013V11.8638Z" fill="#8EC440"/>
  <path d="M9.99948 11.8638H8.00195V14.2375H9.99948V11.8638Z" fill="#8EC440"/>
  <path d="M7.99948 11.8638H6.00195V14.2375H7.99948V11.8638Z" fill="#8EC440"/>
  <path d="M6.00424 11.8638H4.00195V14.2375H6.00424V11.8638Z" fill="#8EC440"/>
  <path d="M3.99948 11.8638H2.00195V14.2375H3.99948V11.8638Z" fill="#8EC440"/>
  <path d="M45.9975 9.48999H44V11.8637H45.9975V9.48999Z" fill="#8EC440"/>
  <path d="M43.9975 9.48999H42V11.8637H43.9975V9.48999Z" fill="#8EC440"/>
  <path d="M42.0003 9.48999H39.998V11.8637H42.0003V9.48999Z" fill="#8EC440"/>
  <path d="M39.9985 9.48999H38.001V11.8637H39.9985V9.48999Z" fill="#8EC440"/>
  <path d="M37.9985 9.48999H36.001V11.8637H37.9985V9.48999Z" fill="#8EC440"/>
  <path d="M36.0003 9.48999H33.998V11.8637H36.0003V9.48999Z" fill="#8EC440"/>
  <path d="M33.9985 9.48999H32.001V11.8637H33.9985V9.48999Z" fill="#8EC440"/>
  <path d="M31.9985 9.48999H30.001V11.8637H31.9985V9.48999Z" fill="#8EC440"/>
  <path d="M30.0013 9.48999H27.999V11.8637H30.0013V9.48999Z" fill="#8EC440"/>
  <path d="M28.0009 9.48999H26.001V11.8637H28.0009V9.48999Z" fill="#8EC440"/>
  <path d="M25.9985 9.48999H24.001V11.8637H25.9985V9.48999Z" fill="#8EC440"/>
  <path d="M24.0013 9.48999H21.999V11.8637H24.0013V9.48999Z" fill="#8EC440"/>
  <path d="M21.9995 9.48999H20.002V11.8637H21.9995V9.48999Z" fill="#8EC440"/>
  <path d="M19.9995 9.48999H18.002V11.8637H19.9995V9.48999Z" fill="#8EC440"/>
  <path d="M18.0013 9.48999H15.999V11.8637H18.0013V9.48999Z" fill="#8EC440"/>
  <path d="M15.9995 9.48999H14.002V11.8637H15.9995V9.48999Z" fill="#8EC440"/>
  <path d="M13.9995 9.48999H12.002V11.8637H13.9995V9.48999Z" fill="#8EC440"/>
  <path d="M39.9976 9.48999H9.99902V35.5887H39.9976V9.48999Z" fill="#8EC440"/>
  <path d="M9.99948 9.48999H8.00195V11.8637H9.99948V9.48999Z" fill="#8EC440"/>
  <path d="M7.99948 9.48999H6.00195V11.8637H7.99948V9.48999Z" fill="#8EC440"/>
  <path d="M6.00424 9.48999H4.00195V11.8637H6.00424V9.48999Z" fill="#8EC440"/>
  <path d="M43.9975 7.11633H42V9.49003H43.9975V7.11633Z" fill="#8EC440"/>
  <path d="M42.0003 7.11633H39.998V9.49003H42.0003V7.11633Z" fill="#8EC440"/>
  <path d="M39.9985 7.11633H38.001V9.49003H39.9985V7.11633Z" fill="#8EC440"/>
  <path d="M37.9985 7.11633H36.001V9.49003H37.9985V7.11633Z" fill="#8EC440"/>
  <path d="M36.0003 7.11633H33.998V9.49003H36.0003V7.11633Z" fill="#8EC440"/>
  <path d="M33.9985 7.11633H32.001V9.49003H33.9985V7.11633Z" fill="#8EC440"/>
  <path d="M31.9985 7.11633H30.001V9.49003H31.9985V7.11633Z" fill="#8EC440"/>
  <path d="M30.0013 7.11633H27.999V9.49003H30.0013V7.11633Z" fill="#8EC440"/>
  <path d="M28.0009 7.11633H26.001V9.49003H28.0009V7.11633Z" fill="#8EC440"/>
  <path d="M25.9985 7.11633H24.001V9.49003H25.9985V7.11633Z" fill="#8EC440"/>
  <path d="M24.0013 7.11633H21.999V9.49003H24.0013V7.11633Z" fill="#8EC440"/>
  <path d="M21.9995 7.11633H20.002V9.49003H21.9995V7.11633Z" fill="#8EC440"/>
  <path d="M19.9995 7.11633H18.002V9.49003H19.9995V7.11633Z" fill="#8EC440"/>
  <path d="M18.0013 7.11633H15.999V9.49003H18.0013V7.11633Z" fill="#8EC440"/>
  <path d="M15.9995 7.11633H14.002V9.49003H15.9995V7.11633Z" fill="#8EC440"/>
  <path d="M13.9995 7.11633H12.002V9.49003H13.9995V7.11633Z" fill="#8EC440"/>
  <path d="M12.0013 7.11633H9.99902V9.49003H12.0013V7.11633Z" fill="#8EC440"/>
  <path d="M9.99948 7.11633H8.00195V9.49003H9.99948V7.11633Z" fill="#8EC440"/>
  <path d="M7.99948 7.11633H6.00195V9.49003H7.99948V7.11633Z" fill="#8EC440"/>
  <path d="M42.0003 4.745H39.998V7.11869H42.0003V4.745Z" fill="#8EC440"/>
  <path d="M39.9985 4.745H38.001V7.11869H39.9985V4.745Z" fill="#8EC440"/>
  <path d="M37.9985 4.745H36.001V7.11869H37.9985V4.745Z" fill="#8EC440"/>
  <path d="M36.0003 4.745H33.998V7.11869H36.0003V4.745Z" fill="#8EC440"/>
  <path d="M33.9985 4.745H32.001V7.11869H33.9985V4.745Z" fill="#8EC440"/>
  <path d="M31.9985 4.745H30.001V7.11869H31.9985V4.745Z" fill="#8EC440"/>
  <path d="M30.0013 4.745H27.999V7.11869H30.0013V4.745Z" fill="#8EC440"/>
  <path d="M28.0009 4.745H26.001V7.11869H28.0009V4.745Z" fill="#8EC440"/>
  <path d="M25.9985 4.745H24.001V7.11869H25.9985V4.745Z" fill="#8EC440"/>
  <path d="M24.0013 4.745H21.999V7.11869H24.0013V4.745Z" fill="#8EC440"/>
  <path d="M21.9995 4.745H20.002V7.11869H21.9995V4.745Z" fill="#8EC440"/>
  <path d="M19.9995 4.745H18.002V7.11869H19.9995V4.745Z" fill="#8EC440"/>
  <path d="M18.0013 4.745H15.999V7.11869H18.0013V4.745Z" fill="#8EC440"/>
  <path d="M15.9995 4.745H14.002V7.11869H15.9995V4.745Z" fill="#8EC440"/>
  <path d="M13.9995 4.745H12.002V7.11869H13.9995V4.745Z" fill="#8EC440"/>
  <path d="M12.0013 4.745H9.99902V7.11869H12.0013V4.745Z" fill="#8EC440"/>
  <path d="M9.99948 4.745H8.00195V7.11869H9.99948V4.745Z" fill="#8EC440"/>
  <path d="M39.9985 2.37378H38.001V4.7451H39.9985V2.37378Z" fill="#8EC440"/>
  <path d="M37.9985 2.37378H36.001V4.7451H37.9985V2.37378Z" fill="#8EC440"/>
  <path d="M36.0003 2.37378H33.998V4.7451H36.0003V2.37378Z" fill="#8EC440"/>
  <path d="M33.9985 2.37378H32.001V4.7451H33.9985V2.37378Z" fill="#8EC440"/>
  <path d="M31.9985 2.37378H30.001V4.7451H31.9985V2.37378Z" fill="#8EC440"/>
  <path d="M30.0013 2.37378H27.999V4.7451H30.0013V2.37378Z" fill="#8EC440"/>
  <path d="M28.0009 2.37378H26.001V4.7451H28.0009V2.37378Z" fill="#8EC440"/>
  <path d="M25.9985 2.37378H24.001V4.7451H25.9985V2.37378Z" fill="#8EC440"/>
  <path d="M24.0013 2.37378H21.999V4.7451H24.0013V2.37378Z" fill="#8EC440"/>
  <path d="M21.9995 2.37378H20.002V4.7451H21.9995V2.37378Z" fill="#8EC440"/>
  <path d="M19.9995 2.37378H18.002V4.7451H19.9995V2.37378Z" fill="#8EC440"/>
  <path d="M18.0013 2.37378H15.999V4.7451H18.0013V2.37378Z" fill="#8EC440"/>
  <path d="M15.9995 2.37378H14.002V4.7451H15.9995V2.37378Z" fill="#8EC440"/>
  <path d="M13.9995 2.37378H12.002V4.7451H13.9995V2.37378Z" fill="#8EC440"/>
  <path d="M12.0013 2.37378H9.99902V4.7451H12.0013V2.37378Z" fill="#8EC440"/>
  <path d="M36.0003 0H33.998V2.3737H36.0003V0Z" fill="#8EC440"/>
  <path d="M33.9985 0H32.001V2.3737H33.9985V0Z" fill="#8EC440"/>
  <path d="M31.9985 0H30.001V2.3737H31.9985V0Z" fill="#8EC440"/>
  <path d="M31.9983 0H15.999V2.3737H31.9983V0Z" fill="#8EC440"/>
  <path d="M15.9995 0H14.002V2.3737H15.9995V0Z" fill="#8EC440"/>
  <path d="M22.0847 33.4198C21.3704 33.5151 20.7728 33.077 20.2847 32.4056C19.0848 30.758 17.9158 29.0843 16.6635 27.4772C16.0945 26.7463 15.6064 25.9607 15.054 25.2178C14.6088 24.6202 14.4588 23.8655 14.7207 23.1322C15.1945 21.7942 16.5635 21.5632 17.7539 22.5561C19.0538 23.6393 20.3847 24.6845 21.6894 25.763C21.9704 25.9964 22.1156 26.013 22.3727 25.6988C23.656 24.1441 25.0488 22.6894 26.363 21.1633C28.5724 18.5943 30.7819 16.0254 33.0294 13.4922C33.5817 12.8708 34.2412 12.6303 35.015 12.8589C35.8078 13.0922 36.2173 13.6731 36.4125 14.5112C36.634 15.454 36.3887 16.1802 35.834 16.9254C32.0508 22.0251 28.2939 27.1463 24.525 32.258C23.9536 33.0317 23.2036 33.4603 22.0847 33.4198Z" fill="white"/>
  <path d="M17.5394 21.1133H15.5371V23.287H17.5394V21.1133Z" fill="white"/>
  <path d="M16.5374 22.0156H14.5352V24.1893H16.5374V22.0156Z" fill="white"/>
  <path d="M15.5921 23.3823H13.5898V25.556H15.5921V23.3823Z" fill="white"/>
  <path d="M16.5374 25.0131H14.5352V27.1868H16.5374V25.0131Z" fill="white"/>
  <path d="M17.5394 26.0988H15.5371V28.2725H17.5394V26.0988Z" fill="white"/>
  <path d="M18.4945 27.0845H16.4922V29.2582H18.4945V27.0845Z" fill="white"/>
  <path d="M19.4945 28.0129H17.4922V30.1866H19.4945V28.0129Z" fill="white"/>
  <path d="M20.1703 29.2582H18.168V31.4319H20.1703V29.2582Z" fill="white"/>
  <path d="M21.0013 30.8438H18.999V33.0175H21.0013V30.8438Z" fill="white"/>
  <path d="M22.1722 31.6414H20.1699V33.8151H22.1722V31.6414Z" fill="white"/>
  <path d="M23.4994 32.1295H21.4971V34.3032H23.4994V32.1295Z" fill="white"/>
  <path d="M25.2962 31.0438H23.2939V33.2175H25.2962V31.0438Z" fill="white"/>
  <path d="M26.2982 29.9558H24.2959V32.1295H26.2982V29.9558Z" fill="white"/>
  <path d="M27.2992 28.8701H25.2969V31.0438H27.2992V28.8701Z" fill="white"/>
  <path d="M28.3011 26.6416H26.2988V28.8153H28.3011V26.6416Z" fill="white"/>
  <path d="M29.7464 24.9108H27.7441V27.0845H29.7464V24.9108Z" fill="white"/>
  <path d="M32.3031 21.4537H30.3008V23.6274H32.3031V21.4537Z" fill="white"/>
  <path d="M31.3031 23.3823H29.3008V25.556H31.3031V23.3823Z" fill="white"/>
  <path d="M33.7962 19.542H31.7939V21.7157H33.7962V19.542Z" fill="white"/>
  <path d="M35.3079 17.8944H33.3057V20.0681H35.3079V17.8944Z" fill="white"/>
  <path d="M36.3079 15.7207H34.3057V17.8944H36.3079V15.7207Z" fill="white"/>
  <path d="M37.0033 13.7684H35.001V15.9421H37.0033V13.7684Z" fill="white"/>
  <path d="M36.3079 11.9637H34.3057V14.1375H36.3079V11.9637Z" fill="white"/>
  <path d="M19.0042 22.2942H17.002V24.4679H19.0042V22.2942Z" fill="white"/>
  <path d="M20.4964 23.3823H18.4941V25.556H20.4964V23.3823Z" fill="white"/>
  <path d="M21.4964 24.9108H19.4941V27.0845H21.4964V24.9108Z" fill="white"/>
  <path d="M23.4994 25.556H21.4971V27.7297H23.4994V25.556Z" fill="white"/>
  <path d="M24.5033 24.2299H22.501V26.4036H24.5033V24.2299Z" fill="white"/>
  <path d="M25.2962 23.1418H23.2939V25.3156H25.2962V23.1418Z" fill="white"/>
  <path d="M26.2982 22.0156H24.2959V24.1893H26.2982V22.0156Z" fill="white"/>
  <path d="M27.2992 20.63H25.2969V22.8037H27.2992V20.63Z" fill="white"/>
  <path d="M28.3011 19.2419H26.2988V21.4156H28.3011V19.2419Z" fill="white"/>
  <path d="M29.3011 18.1158H27.2988V20.2896H29.3011V18.1158Z" fill="white"/>
  <path d="M30.3011 17.5682H28.2988V19.7419H30.3011V17.5682Z" fill="white"/>
  <path d="M31.3031 15.9421H29.3008V18.1158H31.3031V15.9421Z" fill="white"/>
  <path d="M32.3031 14.8541H30.3008V17.0278H32.3031V14.8541Z" fill="white"/>
  <path d="M33.306 13.7684H31.3037V15.9421H33.306V13.7684Z" fill="white"/>
  <path d="M34.305 12.4756H32.3027V14.6493H34.305V12.4756Z" fill="white"/>
</svg>
