<svg width="190" height="50" fill="none" xmlns="http://www.w3.org/2000/svg"><path fill-rule="evenodd" clip-rule="evenodd" d="M182.641 41.18v-.007l3.438.006v.008l-3.438-.007zm0 8.534 3.424.006.007-4.285v-.007l3.888.007.007-4.248.007-4.358.006-4.336.007-4.357h-.007l.007-4.336.006-4.358.007-4.357-3.888-.007h-.007l.007-4.249-3.471-.006V6.428H8.028v.007l-3.953-.007-.006 4.358-4.035-.008-.007 4.25-.007 4.357h.007L.02 23.742l-.007 4.336-.006 4.365L0 36.778h.007L0 41.136l4.035.007-.007 4.241 4 .008v4.328h174.613v-.006zM4.014 36.778H.007l4.007.008v-.008zm182.071-4.292h.007l.006-4.358h-.006l-.007 4.358z" fill="#272727"/><path fill-rule="evenodd" clip-rule="evenodd" d="m0 34.708.007-4.358 4.007.007v-.007H0l.007-4.336.006-4.364.007-4.336.007-4.358H.02L.027 8.6.034 4.35l4.035.008L4.075 0l3.953.007V0h174.613v4.395l3.471.006-.007 4.249h.007l3.888.007-.007 4.357-.006 4.358-.007 4.336h.007l-.007 4.357-.007 4.336-.006 4.357-.007 4.249-3.888-.007v.007l-.007 4.285-3.424-.006v.006H8.028v-4.329l-4-.007.007-4.241L0 34.708zm182.641.044 3.438.006v-.007l-3.438-.006v.007zm3.444-8.694h.007l.006-4.358h-.006l-.007 4.358z" fill="#565656"/><g clip-path="url(#a)" fill="#fff"><path d="m14 31.343.004-2.437 2.527.004-.004 2.433H14zm.004-2.437.004-2.5 2.527.005-.004 2.499-2.527-.004zm0-2.5.004-2.486 2.527.004-.004 2.487-2.527-.004zm.004-2.49.005-2.5 2.527.005-.005 2.499-2.527-.004zm.005-2.5.004-2.486 2.527.004-.004 2.487-2.527-.004zm.004-2.486.004-2.5 2.527.005-.004 2.5-2.527-.005zm0-2.5.004-2.498 2.527.004-.004 2.499-2.527-.004zm.004-2.498.004-2.437 2.527.004-.004 2.437-2.527-.004zm5.02 17.415-.004 2.461-2.514-.004.004-2.461 2.514.004zm-2.514-.004.004-2.437 2.515.004-.005 2.437-2.514-.004zm.021-17.407.004-2.437 2.515.004-.005 2.437-2.514-.004zm.004-2.437L16.556 9l2.515.004-.005 2.5-2.514-.005zm5.016 19.852-.004 2.462-2.527-.005.004-2.461 2.527.004zm-2.527-.004.005-2.437 2.526.004-.004 2.437-2.527-.004zm.026-19.844.004-2.499 2.527.004-.005 2.5-2.526-.005zm4.965 19.852-.004 2.462-2.464-.004.004-2.462 2.464.004zm-2.464-.004.004-2.437 2.464.004-.004 2.437-2.464-.004zm.004-2.437.005-2.499 2.463.004-.004 2.5-2.464-.005zm.005-2.499.004-2.487 2.464.005-.005 2.486-2.463-.004zm.004-4.986.004-2.486 2.464.004-.004 2.486-2.464-.004zm.004-2.486.004-2.5 2.464.005-.004 2.499-2.464-.005zm.004-2.5.005-2.499 2.463.004-.004 2.5-2.464-.005zm.005-4.94.004-2.499 2.463.004-.004 2.5-2.463-.005zm4.965 19.852-.004 2.462-2.527-.004.004-2.462 2.527.004zm-2.527 0 .004-2.437 2.527.005-.004 2.436-2.527-.004zm.004-2.437.004-2.499 2.527.004-.004 2.5-2.527-.005zm.004-2.499.005-2.486 2.526.004-.004 2.486-2.527-.004zm.005-4.99.004-2.486 2.527.004-.005 2.486-2.526-.004zm.004-2.486.004-2.5 2.527.005-.004 2.499-2.527-.005zm.004-2.5.004-2.499 2.527.004-.004 2.5-2.527-.005zm.004-4.936.004-2.499 2.527.005-.004 2.499-2.527-.005zm2.502 19.848.004-2.437 2.527.005-.004 2.436-2.527-.004zm.004-2.437.004-2.499 2.527.004-.004 2.5-2.527-.005zm.004-2.499.005-2.486 2.527.004-.005 2.486-2.527-.004zm.005-4.986.004-2.486 2.527.004-.005 2.486-2.526-.004zm.004-2.486.004-2.5 2.527.005-.004 2.499-2.527-.004zm.004-2.5.004-2.499 2.527.005-.004 2.499-2.527-.005zm.004-4.935.004-2.5 2.527.005-.004 2.499-2.527-.004zM31.6 31.363l-.004 2.462-2.514-.004.004-2.462 2.514.004zm-2.514-.004.004-2.437 2.514.005-.004 2.436-2.514-.004zm.025-19.843.004-2.5 2.515.005-.005 2.499-2.514-.004zm5.016 19.852-.004 2.461-2.527-.004.004-2.462 2.527.005zm-2.527-.005.004-2.436 2.527.004-.004 2.436-2.527-.004zm.025-17.406.005-2.437 2.527.004-.005 2.437-2.527-.004zm0-2.441.005-2.5 2.527.005-.005 2.499-2.527-.004zm5.016 19.852-.004 2.461-2.514-.004.004-2.462 2.514.005zm-2.514 0 .004-2.437 2.515.004-.005 2.437-2.514-.005zm.004-2.437.005-2.5 2.514.005-.004 2.499-2.515-.004zm.005-2.5.004-2.486 2.514.004-.004 2.487-2.514-.004zm.004-2.486.004-2.5 2.514.005-.004 2.5-2.514-.005zm0-2.5.004-2.486 2.514.004-.004 2.487-2.514-.004zm.004-2.49.004-2.5 2.514.005-.004 2.5-2.514-.005zm.004-2.5.004-2.498 2.515.004-.005 2.499-2.514-.004zm.004-2.498.005-2.437 2.514.004-.004 2.437-2.515-.004zm4.966 17.415-.004 2.461-2.477-.004.004-2.462 2.477.005zm-2.477-.005.005-2.436 2.476.004-.004 2.437-2.477-.005zm.005-2.436.004-2.5 2.476.005-.004 2.499-2.476-.004zm.004-2.5.004-2.486 2.476.004-.004 2.487-2.476-.004zm.004-2.486.004-2.5 2.477.005-.005 2.5-2.476-.005zm0-2.5.004-2.486 2.477.004-.005 2.487-2.476-.004zm.004-2.486.005-2.499 2.476.004-.004 2.5-2.477-.005zm.005-2.499.004-2.5 2.476.005-.004 2.5-2.477-.005z"/><path d="m36.641 31.367.005-2.436 2.526.004-.004 2.437-2.527-.005zm.005-2.436.004-2.5 2.527.005-.005 2.499-2.526-.004zm.004-2.5.004-2.486 2.527.004-.004 2.487-2.527-.004zm.004-2.486.004-2.5 2.527.005-.004 2.5-2.527-.005zm0-2.5.004-2.486 2.527.004-.004 2.487-2.527-.004zm.004-2.486.004-2.499 2.527.004-.004 2.5-2.527-.005zm.004-2.499.005-2.5 2.527.005-.005 2.5-2.527-.005zm.005-2.5.004-2.436 2.527.004-.004 2.437-2.527-.004zm0-2.436.004-2.499 2.527.004-.004 2.5-2.527-.005zm5.016 19.852-.005 2.462-2.514-.005.004-2.461 2.515.004zm-2.515-.004.005-2.437 2.514.004-.004 2.437-2.515-.004zm.026-19.844.004-2.499 2.514.004-.004 2.5-2.514-.005zM44.21 31.38l-.005 2.462-2.527-.004.005-2.462 2.527.004zm-2.527-.004.004-2.437 2.527.004-.004 2.437-2.527-.004zm.025-19.844.004-2.499 2.527.004-.004 2.5-2.527-.005zm4.965 19.848-.004 2.462-2.464-.004.005-2.462 2.463.004zm-2.463 0 .004-2.437 2.464.005-.005 2.436-2.463-.004zm.004-2.437.004-2.499 2.464.004-.005 2.5-2.463-.005zm.004-2.499.004-2.486 2.464.004-.004 2.486-2.464-.004zm.004-4.99.004-2.486 2.464.004-.004 2.486-2.464-.004zm.004-2.486.005-2.5 2.463.005-.004 2.499-2.464-.005zm.005-2.5.004-2.499 2.464.004-.005 2.5-2.463-.005zm.004-4.935.004-2.5 2.464.004-.004 2.5-2.464-.005zM49.2 31.383l-.004 2.462-2.527-.004.004-2.462 2.527.004zm-2.527-.004.005-2.437 2.527.005-.005 2.436-2.527-.004zm.005-2.437.004-2.499 2.527.004-.005 2.5-2.526-.005zm.004-2.499.004-2.486 2.527.004-.004 2.486-2.527-.004zm.008-4.986.004-2.486 2.527.004-.004 2.486-2.527-.004zm0-2.486.004-2.5 2.527.005-.004 2.499-2.527-.004zm.004-2.5.005-2.499 2.526.004-.004 2.5-2.527-.005zm.005-4.935.004-2.5 2.527.005-.005 2.499-2.526-.004zm2.506 17.41.004-2.499 2.527.005-.005 2.499-2.526-.005zm.004-2.499.004-2.486 2.527.004-.004 2.486-2.527-.004zm.008-4.986.004-2.486 2.527.004-.004 2.487-2.527-.005zm0-2.486.004-2.5 2.527.005-.004 2.499-2.527-.004zm.004-2.5.005-2.498 2.526.004-.004 2.499-2.527-.004zm.005-4.935.004-2.5 2.527.005-.005 2.499-2.527-.004zm2.505 17.41.005-2.498 2.514.004-.004 2.499-2.515-.004zm.005-2.498.004-2.487 2.514.004-.004 2.487-2.514-.005zm.017-14.912.004-2.5 2.514.005-.004 2.499-2.515-.004zm2.493 17.415.004-2.5 2.527.005-.004 2.499-2.527-.004zm.004-2.5.004-2.486 2.527.004-.004 2.487-2.527-.004zm.004-2.49.004-2.5 2.527.005-.004 2.499-2.527-.004zm.013-9.984.004-2.437 2.527.004-.004 2.437-2.527-.004zm.004-2.437.004-2.5 2.527.005-.004 2.5-2.527-.005zm2.502 17.41.004-2.498 2.514.004-.004 2.499-2.514-.004zm.004-2.498.004-2.487 2.514.004-.004 2.487-2.514-.004zm.004-2.487.004-2.5 2.515.005-.005 2.5-2.514-.005zm.004-2.5.005-2.486 2.514.004-.004 2.487-2.515-.004zm0-2.486.005-2.499 2.514.004-.004 2.5-2.515-.005zm.005-2.499.004-2.5 2.514.005-.004 2.5-2.515-.005zm.004-2.5.004-2.436 2.514.004-.004 2.437-2.514-.004zm2.497 12.476.004-2.487 2.477.004-.004 2.487-2.477-.004zm.004-2.487.005-2.499 2.476.004-.004 2.5-2.477-.005zm.005-2.499.004-2.487 2.476.005-.004 2.486-2.476-.004zm0-2.487.004-2.499 2.476.004-.004 2.5-2.476-.005zm.004-2.499.004-2.499 2.476.004-.004 2.5-2.476-.005z"/><path d="m59.287 31.397.004-2.437 2.527.004-.004 2.437-2.527-.004zm0-2.437.004-2.5 2.527.005-.004 2.5-2.527-.005zm.004-2.5.005-2.486 2.526.004-.004 2.487-2.527-.004zm.005-2.486.004-2.499 2.527.004-.005 2.5-2.527-.005zm.004-2.499.004-2.487 2.527.005-.004 2.486-2.527-.004zm0-2.487.004-2.499 2.527.004-.004 2.5-2.527-.005zm.004-2.499.004-2.499 2.527.004-.004 2.5-2.527-.005zm.004-2.499.004-2.437 2.527.004-.004 2.437-2.527-.004zm.004-2.437.005-2.499 2.526.004-.004 2.5-2.527-.005zm5.016 19.852-.004 2.462-2.514-.005.004-2.461 2.514.004zm-2.514-.004.004-2.437 2.515.004-.005 2.437-2.514-.004zm.025-19.848.005-2.499 2.514.004-.004 2.5-2.515-.005zm5.016 19.852-.004 2.462-2.527-.005.004-2.461 2.527.004zm-2.527 0 .005-2.437 2.526.005-.004 2.436-2.527-.004zm.026-19.848.004-2.499 2.527.004-.004 2.5-2.527-.005zm4.965 19.852-.004 2.462-2.464-.004.004-2.462 2.464.004zm-2.464-.004.004-2.437 2.464.005-.004 2.436-2.464-.004zm0-2.437.004-2.499 2.464.004-.004 2.5-2.464-.005zm.004-2.499.005-2.486 2.463.004-.004 2.486-2.463-.004zm.009-4.986.004-2.486 2.464.004-.004 2.486-2.464-.004zm0-2.486.004-2.5 2.464.005L69.332 19l-2.464-.004zm.004-2.5.004-2.499 2.464.005-.004 2.499-2.464-.005zm.009-4.935.004-2.5 2.464.005-.005 2.499-2.463-.004zm4.965 19.851-.004 2.462-2.527-.004.004-2.462 2.527.004zm-2.527-.004.004-2.436 2.527.004-.004 2.436-2.527-.004zm.004-2.436.005-2.5 2.526.005-.004 2.499-2.527-.005zm0-2.5.005-2.486 2.526.004-.004 2.486-2.527-.004zm.009-4.985L69.336 19l2.527.004-.004 2.487-2.527-.005zM69.336 19l.004-2.5 2.527.005-.004 2.499-2.527-.004zm0-2.5.004-2.499 2.527.005-.004 2.499-2.527-.004zm.008-4.935.005-2.5 2.526.005-.004 2.499-2.527-.004zm2.506 17.41.004-2.498 2.527.004-.004 2.499-2.527-.004zm0-2.498.004-2.487 2.527.004-.004 2.487-2.527-.005zm.009-4.986.004-2.487 2.527.004-.004 2.487-2.527-.004zm.004-2.487.004-2.5 2.527.005-.004 2.5-2.527-.005zm0-2.5.004-2.498 2.527.004-.004 2.499-2.527-.004zm.008-4.94.005-2.498 2.526.004-.004 2.499-2.527-.004zm2.506 17.412.004-2.5 2.515.005-.005 2.499-2.514-.004zm0-2.5.004-2.486 2.515.004-.005 2.487-2.514-.005zm.021-14.907.004-2.5 2.515.005-.005 2.5-2.514-.005zm2.493 17.41.005-2.498 2.527.004-.005 2.499-2.527-.004zm0-2.498.005-2.487 2.527.004-.005 2.487-2.527-.004zm.005-2.487.004-2.5 2.527.005-.004 2.5-2.527-.005zm.012-9.984.004-2.437 2.527.004-.004 2.437-2.527-.004zm.004-2.437.005-2.499 2.527.004-.005 2.5-2.526-.005zm2.506 17.411.005-2.5 2.514.005-.004 2.5-2.515-.005zm0-2.5L79.423 24l2.514.004-.004 2.487-2.515-.004zM79.423 24l.004-2.499 2.514.004-.004 2.5-2.514-.005zm.004-2.499.004-2.487 2.514.004-.004 2.487-2.514-.004zm.004-2.487.004-2.499 2.515.004-.005 2.5-2.514-.005zm0-2.499.004-2.499 2.515.004-.005 2.5-2.514-.005zm.004-2.499.004-2.437 2.515.005-.004 2.436-2.515-.004zm2.498 12.475.004-2.487 2.476.005-.004 2.486-2.476-.004zm.004-2.487.004-2.499 2.477.004-.005 2.5-2.476-.005zm.004-2.499.004-2.487 2.477.005-.004 2.486-2.477-.004zm.004-2.487.005-2.499 2.476.005-.004 2.499-2.477-.005zm0-2.499.005-2.499 2.476.004-.004 2.5-2.477-.005z"/><path d="m81.928 31.426.005-2.437 2.527.004-.005 2.437-2.526-.004zm.005-2.437.004-2.499 2.527.004-.004 2.5-2.527-.005zm0-2.499.004-2.487 2.527.005-.004 2.486-2.527-.004zm.004-2.487.004-2.499 2.527.004-.004 2.5-2.527-.005zm.004-2.499.004-2.487 2.527.005-.004 2.486-2.527-.004zm.004-2.487.005-2.499 2.526.005-.004 2.499-2.527-.005zm0-2.499.005-2.499 2.526.004-.004 2.5-2.527-.005zm.005-2.499.004-2.437 2.527.005-.004 2.436-2.528-.004zm.004-2.44.004-2.5 2.527.004-.004 2.5-2.527-.005zM86.97 31.43l-.004 2.462-2.515-.005.004-2.461 2.515.004zm-2.515 0 .005-2.437 2.514.005-.004 2.436-2.515-.004zm.026-19.848.004-2.499 2.514.004-.004 2.5-2.514-.005zm5.016 19.852-.004 2.462-2.527-.004.004-2.462 2.527.004zm-2.527-.004.004-2.437 2.527.005-.004 2.436-2.527-.004zm.025-19.843.004-2.5 2.527.005-.004 2.499-2.527-.004zm4.965 19.851-.004 2.462-2.463-.004.004-2.462 2.463.004zm-2.463-.004.004-2.437 2.464.005-.005 2.436-2.463-.004zm.004-2.437.004-2.499 2.464.005-.004 2.499-2.464-.005zm0-2.499.004-2.486 2.464.004-.004 2.487-2.464-.005zm.004-2.486.004-2.5 2.464.005-.004 2.499-2.464-.004zm.008-4.986.005-2.5 2.463.005-.004 2.499-2.464-.004zm0-2.5.005-2.498 2.463.004-.004 2.499-2.464-.004zm.009-4.935.004-2.5 2.464.005-.004 2.499-2.464-.004zm4.965 19.852-.004 2.461-2.527-.004.004-2.462 2.527.005zm-2.527-.005.005-2.436 2.527.004-.005 2.436-2.527-.004zm.005-2.436.004-2.5 2.527.005-.004 2.499-2.527-.004zm.004-2.5.004-2.486 2.527.004-.004 2.487-2.527-.005zm0-2.486.004-2.5 2.527.005-.004 2.499-2.527-.004zm.008-4.986.004-2.5 2.527.005-.004 2.5-2.527-.005zm.004-2.5.005-2.498 2.527.004-.005 2.499-2.526-.004zm.005-4.94.004-2.498 2.527.004-.004 2.499-2.527-.004zm2.501 19.852.005-2.436 2.526.004-.004 2.437-2.527-.005zm.005-2.44.004-2.5 2.527.005-.004 2.499-2.527-.004zm.004-2.5.004-2.486 2.527.004-.004 2.487-2.527-.005zm0-2.486.004-2.5 2.527.005-.004 2.499-2.527-.004zm.008-4.986.004-2.5 2.527.005-.004 2.5-2.527-.005zm.004-2.5.005-2.498 2.527.004-.005 2.499-2.527-.004zm.005-4.935.004-2.5 2.527.005-.004 2.5-2.527-.005zm5.016 19.852-.005 2.461-2.514-.004.004-2.462 2.515.005zm-2.515-.005.005-2.436 2.514.004-.004 2.437-2.515-.005zM97.04 11.6l.004-2.499 2.514.004-.004 2.5-2.514-.005zm5.016 19.852-.005 2.462-2.527-.005.005-2.461 2.527.004zm-2.527-.004.004-2.437 2.527.004-.004 2.437-2.527-.004zm.012-9.922.005-2.487 2.526.005-.004 2.486-2.527-.004zm.009-7.485.004-2.437 2.527.005-.004 2.436-2.527-.004zm.004-2.437.004-2.499 2.527.004-.004 2.5-2.527-.005zm5.016 19.852-.004 2.462-2.515-.005.005-2.461 2.514.004zm-2.514-.004.004-2.437 2.514.004-.004 2.437-2.514-.004zm.004-2.437.004-2.499 2.514.004-.004 2.5-2.514-.005zm.004-2.499.004-2.487 2.515.005-.005 2.486-2.514-.004zm0-2.487.004-2.499 2.515.004-.005 2.5-2.514-.005zm.004-2.499.004-2.486 2.515.004-.004 2.486-2.515-.004zm.004-2.486.005-2.5 2.514.005-.004 2.499-2.515-.005zm.005-2.5.004-2.499 2.514.004-.004 2.5-2.514-.005zm0-2.499.004-2.437 2.514.005-.004 2.436-2.514-.004zm4.969 17.411-.004 2.462-2.476-.005.004-2.461 2.476.004zm-2.476 0 .004-2.437 2.476.005-.004 2.436-2.476-.004zm.004-2.44.004-2.5 2.477.004-.005 2.5-2.476-.005zm.004-2.5.005-2.487 2.476.005-.004 2.486-2.477-.004zm.005-2.487.004-2.499 2.476.004-.004 2.5-2.476-.005zm0-2.499.004-2.486 2.476.004-.004 2.486-2.476-.004zm.004-2.486.004-2.5 2.476.005-.004 2.499-2.476-.005zm.004-2.5.004-2.499 2.477.004-.005 2.5-2.476-.005z"/><path d="m104.574 29.014.004-2.499 2.527.004-.004 2.5-2.527-.005zm.004-2.499.004-2.487 2.527.005-.004 2.486-2.527-.004zm.004-2.487.005-2.499 2.527.004-.005 2.5-2.527-.005zm0-2.499.005-2.486 2.527.004-.005 2.486-2.527-.004zm.005-2.486.004-2.5 2.527.005-.004 2.499-2.527-.005zm.004-2.5.004-2.499 2.527.004-.004 2.5-2.527-.005zm.004-2.499.004-2.437 2.527.005-.004 2.436-2.527-.004zm2.502 17.411.004-2.437 2.514.005-.004 2.436-2.514-.004zm.004-2.437.004-2.499 2.514.004-.004 2.5-2.514-.005zm.021-14.97.004-2.436 2.514.004-.004 2.437-2.514-.005zm0-2.436.004-2.5 2.514.005-.004 2.499-2.514-.004zm5.016 19.851-.004 2.462-2.527-.004.004-2.462 2.527.004zm-2.527-.004.004-2.436 2.527.004-.004 2.436-2.527-.004zm.025-19.843.004-2.5 2.527.005-.004 2.499-2.527-.004zm4.97 19.852-.004 2.461-2.464-.004.004-2.462 2.464.005zm-2.468-.005.004-2.436 2.464.004-.004 2.437-2.464-.005zm.008-4.936.005-2.486 2.463.004-.004 2.487-2.464-.005zm.005-2.486.004-2.5 2.464.005-.005 2.499-2.463-.004zm0-2.5.004-2.486 2.464.004-.005 2.487-2.463-.004zm.004-2.486.004-2.5 2.464.005-.004 2.5-2.464-.005zm.004-2.5.004-2.498 2.464.004-.004 2.499-2.464-.004zm.004-4.94.004-2.498 2.464.004-.004 2.499-2.464-.004zm4.97 19.852-.004 2.462-2.527-.004.004-2.462 2.527.005zm-2.527 0 .004-2.436 2.527.004-.004 2.437-2.527-.005zm.004-4.94.004-2.486 2.527.004-.004 2.487-2.527-.005zm.004-2.486.005-2.5 2.527.005-.005 2.499-2.527-.004zm.005-2.5.004-2.486 2.527.004-.004 2.487-2.527-.004zm0-2.486.004-2.5 2.527.005-.004 2.5-2.527-.005zm.004-2.5.004-2.498 2.527.004-.004 2.499-2.527-.004zm.004-4.935.004-2.5 2.527.005-.004 2.5-2.527-.005zm5.033 19.852-.004 2.461-2.527-.004.004-2.462 2.527.005zm-2.527-.005.004-2.436 2.527.004-.004 2.437-2.527-.005zm.004-4.935.004-2.487 2.527.004-.004 2.487-2.527-.004zm.004-2.487.005-2.5 2.526.005-.004 2.5-2.527-.005zm.005-2.5.004-2.486 2.527.004-.005 2.487-2.526-.004zm0-2.486.004-2.499 2.527.004-.005 2.5-2.526-.005zm.004-2.499.004-2.5 2.527.005-.004 2.5-2.527-.005zm.004-4.936.004-2.5 2.527.005-.004 2.5-2.527-.005zm5.02 19.852-.004 2.462-2.514-.005.004-2.461 2.514.004zm-2.514-.004.004-2.437 2.514.004-.004 2.437-2.514-.004zm.021-19.844.004-2.499 2.514.004-.004 2.5-2.514-.005zm5.02 19.852-.004 2.462-2.527-.005.004-2.461 2.527.004zm-2.527-.004.004-2.437 2.527.004-.004 2.437-2.527-.004zm0-2.437.004-2.499 2.527.004-.004 2.5-2.527-.005zm.021-14.97.004-2.437 2.527.005-.004 2.436-2.527-.004zm.004-2.44.005-2.5 2.527.004-.005 2.5-2.527-.005zm5.016 19.851-.004 2.462-2.514-.005.004-2.461 2.514.004zm-2.514 0 .004-2.437 2.515.005-.005 2.436-2.514-.004zm0-2.44.004-2.5 2.515.004-.005 2.5-2.514-.005zm.004-2.5.005-2.487 2.514.005-.004 2.486-2.515-.004zm.005-2.487.004-2.499 2.514.004-.004 2.5-2.514-.005zm.004-2.499.004-2.486 2.514.004-.004 2.486-2.514-.004zm0-2.486.004-2.5 2.514.005-.004 2.499-2.514-.005zm.004-2.5.004-2.499 2.514.004-.004 2.5-2.514-.005zm.004-2.499.004-2.437 2.515.005-.005 2.436-2.514-.004zm2.493 17.411.005-2.437 2.476.005-.004 2.436-2.477-.004zm0-2.437.005-2.499 2.476.004-.004 2.5-2.477-.005zm.005-2.499.004-2.486 2.476.004-.004 2.486-2.476-.004zm.004-2.486.004-2.5 2.476.005-.004 2.499-2.476-.005zm.004-2.5.004-2.486 2.477.004-.005 2.486-2.476-.004zm0-2.486.004-2.5 2.477.005-.005 2.499-2.476-.004zm.004-2.5.004-2.499 2.477.005-.004 2.499-2.477-.005z"/><path d="m127.224 24.058.004-2.5 2.527.005-.004 2.499-2.527-.005zm0-2.5.004-2.486 2.527.004-.004 2.486-2.527-.004zm.004-2.486.004-2.5 2.527.005-.004 2.499-2.527-.004zm.004-2.5.005-2.499 2.526.005-.004 2.499-2.527-.005zm.005-2.499.004-2.436 2.527.004-.005 2.437-2.526-.005zm0-2.436.004-2.5 2.527.005-.005 2.499-2.526-.004zm2.51 14.911.004-2.486 2.514.004-.004 2.486-2.514-.004zm.004-2.486.004-2.5 2.514.005-.004 2.499-2.514-.004zm.012-12.421.005-2.5 2.514.005-.004 2.499-2.515-.004zm2.494 17.41.004-2.498 2.527.004-.004 2.499-2.527-.004zm.004-2.498.004-2.487 2.527.004-.004 2.487-2.527-.005zm.017-14.912.004-2.5 2.527.005-.004 2.499-2.527-.004zm2.506 19.852.004-2.437 2.464.004-.005 2.433h-2.463zm0-2.441.004-2.5 2.464.005-.005 2.499-2.463-.004zm.012-7.485.004-2.487 2.464.004-.004 2.487-2.464-.004zm0-2.487.004-2.5 2.464.005-.004 2.5-2.464-.005zm.004-2.5.005-2.498 2.463.004-.004 2.499-2.464-.004zm.005-2.498.004-2.437 2.464.004-.005 2.437-2.463-.004zm0-2.437.004-2.5 2.464.005-.005 2.5-2.463-.005zm4.969 19.852-.004 2.461-2.527-.004.004-2.462 2.527.005zm-2.527-.005.005-2.436 2.527.004-.005 2.437-2.527-.005zm.009-7.422.004-2.5 2.527.005-.004 2.5-2.527-.005zm.004-2.5.004-2.486 2.527.004-.004 2.487-2.527-.004zm0-2.486.004-2.499 2.527.004-.004 2.5-2.527-.005zm.004-2.499.004-2.5 2.527.005-.004 2.5-2.527-.005zm.004-2.5.005-2.436 2.527.004-.005 2.437-2.527-.004zm5.033 17.416-.004 2.461-2.527-.004.004-2.461 2.527.004zm-2.527-.004.005-2.437 2.527.004-.005 2.437-2.527-.004zm0-2.437.005-2.5 2.527.005-.005 2.5-2.527-.005zm.013-7.485.004-2.487 2.527.005-.004 2.486-2.527-.004zm0-2.487.004-2.499 2.527.004-.004 2.5-2.527-.005zm.004-2.499.004-2.499 2.527.004-.004 2.5-2.527-.005zm.004-2.499.005-2.437 2.527.004-.005 2.437-2.527-.004zm.005-2.437.004-2.499 2.527.004-.004 2.5-2.527-.005zm5.016 19.852-.005 2.462-2.514-.005.004-2.461 2.515.004zm-2.515-.004.005-2.437 2.514.004-.004 2.437-2.515-.004zm0-2.437.005-2.499 2.514.004-.004 2.5-2.515-.005zm.005-2.499.004-2.487 2.514.005-.004 2.486-2.514-.004zm.021-14.912.004-2.499 2.514.004-.004 2.5-2.514-.005zm2.489 19.852.004-2.437 2.527.005-.004 2.436-2.527-.004zm.004-2.44.004-2.5 2.527.004-.004 2.5-2.527-.005zm0-2.5.004-2.487 2.527.005-.004 2.486-2.527-.004zm.004-2.487.004-2.499 2.527.004-.004 2.5-2.527-.005zm.017-12.42.004-2.5 2.527.004-.004 2.5-2.527-.005zm2.506 17.41.004-2.499 2.514.004-.004 2.5-2.514-.005zm0-2.499.004-2.486 2.514.004-.004 2.486-2.514-.004zm.004-2.486.004-2.5 2.514.005-.004 2.499-2.514-.005zm.004-2.5.004-2.486 2.515.004-.005 2.486-2.514-.004zm0-2.486.004-2.5 2.515.005-.005 2.499-2.514-.004zm.004-2.5.005-2.499 2.514.004-.004 2.5-2.515-.005zm.005-2.499.004-2.436 2.514.004-.004 2.436-2.514-.004zm.004-2.436.004-2.5 2.514.005-.004 2.499-2.514-.004zm2.493 14.911.004-2.486 2.477.004-.005 2.486-2.476-.004zm.004-2.486.004-2.5 2.477.005-.004 2.499-2.477-.004zm.004-2.5.005-2.486 2.476.004-.004 2.487-2.477-.005zm.005-2.486.004-2.5 2.476.005-.004 2.499-2.476-.004zm0-2.5.004-2.498 2.476.004-.004 2.499-2.476-.004zm.004-2.498.004-2.437 2.477.004-.005 2.437-2.476-.005z"/><path d="m149.857 31.51.004-2.438 2.527.005-.004 2.436-2.527-.004zm.004-2.438.004-2.499 2.527.005-.004 2.499-2.527-.005zm0-2.499.004-2.486 2.527.004-.004 2.486-2.527-.004zm.004-2.486.005-2.5 2.527.005-.005 2.499-2.527-.004zm.005-2.5.004-2.486 2.527.004-.004 2.487-2.527-.005zm.004-2.486.004-2.5 2.527.005-.004 2.499-2.527-.004zm0-2.5.004-2.498 2.527.004-.004 2.499-2.527-.004zm.004-2.498.004-2.437 2.527.004-.004 2.437-2.527-.005zm.004-2.437.004-2.5 2.527.005-.004 2.499-2.527-.004zm5.016 19.851-.004 2.462-2.514-.004.004-2.462 2.514.004zm-2.514-.004.004-2.436 2.514.004-.004 2.436-2.514-.004zm.025-19.847.004-2.5 2.515.005-.005 2.499-2.514-.004zm5.016 19.851-.004 2.462-2.527-.004.004-2.462 2.527.004zm-2.527 0 .004-2.436 2.527.004-.004 2.437-2.527-.005zm.025-19.847.005-2.5 2.527.005-.005 2.5-2.527-.005zm4.966 19.852-.004 2.461-2.464-.004.004-2.462 2.464.005zm-2.464-.005.004-2.436 2.464.004-.004 2.437-2.464-.005zm.004-4.935.005-2.487 2.463.004-.004 2.487-2.464-.004zm.005-2.487.004-2.5 2.464.005-.005 2.5-2.463-.005zm.008-4.986.004-2.499 2.464.004-.004 2.5-2.464-.005zm0-2.499.004-2.5 2.464.005-.004 2.5-2.464-.005zm.008-4.936.005-2.499 2.463.004-.004 2.5-2.464-.005zm4.966 19.852-.004 2.461-2.527-.004.004-2.461 2.527.004zm-2.527-.004.004-2.437 2.527.004-.004 2.437-2.527-.004zm.008-4.936.005-2.487 2.526.004-.004 2.487-2.527-.004zm0-2.487.005-2.499 2.526.004-.004 2.5-2.527-.005zm.009-4.986.004-2.499 2.527.004-.004 2.5-2.527-.005zm.004-2.499.004-2.499 2.527.004-.004 2.5-2.527-.005zm.004-4.936.004-2.499 2.527.004-.004 2.5-2.527-.005zm5.029 19.848-.004 2.461-2.527-.004.004-2.461 2.527.004zm-2.527 0 .004-2.437 2.527.004-.004 2.437-2.527-.004zm.008-4.936.004-2.487 2.527.005-.004 2.486-2.527-.004zm0-2.487.004-2.499 2.527.004-.004 2.5-2.527-.005zm.009-4.986.004-2.499 2.527.005-.004 2.499-2.527-.005zm.004-2.499.004-2.499 2.527.004-.004 2.5-2.527-.005zm.004-4.94.004-2.499 2.527.004-.004 2.5-2.527-.005zm5.016 19.852-.004 2.462-2.514-.005.004-2.461 2.514.004zm-2.514-.004.004-2.437 2.514.004-.004 2.437-2.514-.004zm.008-4.936.004-2.487 2.515.005-.004 2.486-2.515-.004zm0-2.487.004-2.499 2.515.004-.004 2.5-2.515-.005zm.009-4.986.004-2.499 2.514.005-.004 2.499-2.514-.005zm.004-2.499.004-2.499 2.514.004-.004 2.5-2.514-.005zm.004-4.935.004-2.5 2.515.004-.005 2.5-2.514-.005zm5.016 19.851-.004 2.462-2.527-.004.004-2.462 2.527.004zm-2.527-.004.004-2.437 2.527.005-.004 2.436-2.527-.004zm.004-4.936.005-2.486 2.526.004-.004 2.486-2.527-.004zm.005-2.486.004-2.5 2.527.005-.005 2.499-2.526-.004zm.004-2.5.004-2.486 2.527.004-.004 2.486-2.527-.004zm.004-2.486.004-2.5 2.527.005-.004 2.499-2.527-.004zm.004-2.5.004-2.499 2.527.005-.004 2.499-2.527-.005zm.004-4.935.005-2.5 2.527.005-.005 2.499-2.527-.004zm5.016 19.851L172.494 34l-2.514-.004.004-2.462 2.514.004zm-2.514-.004.004-2.436 2.515.004-.005 2.436-2.514-.004zm.004-2.436.004-2.5 2.515.005-.004 2.499-2.515-.005zm0-2.5.004-2.486 2.515.004-.004 2.486-2.515-.004zm.004-2.486.005-2.5 2.514.005-.004 2.499-2.515-.004zm.005-2.5.004-2.486 2.514.004-.004 2.487-2.514-.005zm.004-2.486.004-2.5 2.514.005-.004 2.499-2.514-.004zm.004-2.5.004-2.499 2.515.005-.005 2.499-2.514-.004zm0-2.499.004-2.436 2.515.004-.005 2.437-2.514-.005zm.004-2.436.005-2.5 2.514.005-.004 2.499-2.515-.004zm4.966 19.852-.004 2.461-2.477-.004.004-2.462 2.477.005zm-2.477-.005.005-2.436 2.476.004-.004 2.436-2.477-.004zm.005-2.436.004-2.5 2.476.005-.004 2.499-2.476-.004zm.012-9.976.004-2.5 2.477.005-.004 2.499-2.477-.004zm.004-2.5.005-2.499 2.476.005-.004 2.499-2.477-.004zm0-2.499.005-2.436 2.476.004-.004 2.437-2.477-.005z"/></g><defs><clipPath id="a"><path fill="#fff" transform="translate(14 9)" d="M0 0h161v25H0z"/></clipPath></defs></svg>

