<svg width="212" height="50" fill="none" xmlns="http://www.w3.org/2000/svg"><path fill-rule="evenodd" clip-rule="evenodd" d="M203.468 41.18v-.007l3.83.006v.008l-3.83-.007zm0 8.534l3.815.006.008-4.285v-.007l4.331.007.008-4.248.007-4.358.008-4.336.007-4.357h-.007l.007-4.336.007-4.358.008-4.357-4.332-.007h-.007l.007-4.249-3.867-.006V6.428H8.944v.007L4.54 6.428l-.007 4.358-4.496-.008-.007 4.25-.008 4.357H.03l-.008 4.357-.007 4.336-.008 4.365L0 36.778h.007L0 41.136l4.495.007-.007 4.241 4.456.008v4.328h194.524v-.006zM4.472 36.778H.007l4.465.008v-.008zm202.833-4.292h.008l.007-4.358h-.007l-.008 4.358z" fill="#456B15"/><path fill-rule="evenodd" clip-rule="evenodd" d="M0 34.708l.007-4.358 4.465.007v-.007H0l.007-4.336.008-4.364.007-4.336.008-4.358H.022L.03 8.6.037 4.35l4.496.008L4.54 0l4.404.007V0h194.525v4.395l3.866.006-.008 4.249h.008l4.332.007-.008 4.357-.007 4.358-.007 4.336h.007l-.007 4.357-.008 4.336-.007 4.357-.008 4.249-4.331-.007v.007l-.008 4.285-3.814-.006v.006H8.944v-4.329l-4.456-.007.007-4.241L0 34.708zm203.469.044l3.829.006v-.007l-3.829-.006v.007zm3.836-8.694h.008l.007-4.358h-.007l-.008 4.358z" fill="#8EC440"/><g clip-path="url(#clip0)" fill="#fff"><path d="M14.167 31.483l.004-2.434 2.496.005-.004 2.433-2.496-.004zm.004-2.434l.004-2.496 2.496.004-.004 2.497-2.496-.005zm0-2.496l.004-2.484 2.496.005-.004 2.483-2.496-.004zm.004-2.484l.004-2.496 2.496.004-.004 2.496-2.496-.004zm.004-2.496l.004-2.484 2.497.004-.005 2.484-2.496-.004zm.004-2.484l.005-2.496 2.496.004-.004 2.496-2.497-.004zm0-2.496l.005-2.496 2.496.004-.004 2.496-2.497-.004zm.005-2.496l.004-2.434 2.496.004-.004 2.434-2.496-.004zm.004-2.434l.004-2.496 2.496.004-.004 2.496-2.496-.004zm4.955 19.828l-.004 2.46-2.484-.005.004-2.459 2.484.005zm-2.484-.004l.004-2.433 2.484.004-.004 2.433-2.484-.004zm.025-19.82l.004-2.496 2.484.004-.004 2.496-2.484-.004zm4.955 19.829l-.004 2.459-2.496-.005.004-2.459 2.496.005zm-2.496-.005l.004-2.433 2.496.004-.004 2.434-2.496-.005zm.025-19.82l.004-2.496 2.496.004-.004 2.496-2.496-.004zm4.905 19.825l-.004 2.459-2.434-.005.004-2.459 2.434.005zm-2.434 0l.004-2.434 2.434.004-.004 2.434-2.434-.004zm.008-4.93l.005-2.484 2.433.004-.004 2.484-2.434-.004zm0-2.488l.005-2.497 2.433.005-.004 2.496-2.434-.004zm.009-4.98l.004-2.497 2.434.005-.005 2.496-2.433-.004zm.004-2.497l.004-2.496 2.434.004-.004 2.496-2.434-.004zm.004-4.93l.004-2.496 2.434.004-.004 2.496-2.434-.004zM26.573 31.5l-.004 2.459-2.496-.005.004-2.458 2.496.004zm-2.496-.004l.004-2.434 2.496.004-.004 2.434-2.496-.004zm.008-4.93l.004-2.484 2.497.004-.005 2.484-2.496-.004zm0-2.484l.004-2.497 2.497.005-.005 2.496-2.496-.004zm.008-4.98l.005-2.497 2.496.005-.004 2.496-2.497-.004zm.005-2.497l.004-2.496 2.496.004-.004 2.497-2.496-.005zm.004-4.93l.004-2.496 2.496.004-.004 2.497-2.496-.005zm4.967 19.829l-.004 2.459-2.496-.004.004-2.46 2.496.005zm-2.496-.004l.004-2.434 2.497.004-.005 2.434-2.496-.004zm.008-4.93l.005-2.484 2.496.004-.004 2.484-2.497-.004zm0-2.484l.005-2.496 2.496.004-.004 2.496-2.497-.004zm.009-4.98l.004-2.496 2.496.004-.004 2.496-2.496-.004zm.004-2.496l.004-2.497 2.496.005-.004 2.496-2.496-.004zm.004-4.93l.004-2.497 2.497.004-.005 2.497-2.496-.004zm4.955 19.828l-.004 2.459-2.484-.004.004-2.459 2.484.004zm-2.484-.004l.005-2.434 2.483.004-.004 2.434-2.484-.004zm.025-19.824l.005-2.497 2.483.004-.004 2.497-2.484-.004zm4.955 19.832l-.004 2.46-2.496-.005.004-2.459 2.496.004zm-2.496-.004l.004-2.434 2.497.004-.005 2.434-2.496-.004zm.004-2.434l.005-2.496 2.496.004-.004 2.496-2.497-.004zm.009-7.476l.004-2.484 2.496.004-.004 2.484-2.496-.004zm.012-7.48l.004-2.434 2.496.004-.004 2.434-2.496-.004zm0-2.434l.004-2.497 2.496.005-.004 2.496-2.496-.004zm4.955 19.828l-.004 2.46-2.484-.005.004-2.459 2.484.004zm-2.484 0l.005-2.434 2.483.005-.004 2.434-2.484-.005zm.005-2.438l.004-2.496 2.483.004-.004 2.496-2.483-.004zm.004-2.496l.004-2.484 2.484.004-.005 2.484-2.483-.004zm.004-2.484l.004-2.496 2.484.004-.004 2.496-2.484-.004zm0-2.496l.004-2.484 2.484.004-.004 2.484-2.484-.004zm.004-2.484l.004-2.496 2.484.004-.004 2.496-2.484-.004zm.004-2.496l.004-2.496 2.484.004-.004 2.496-2.484-.004zm.004-2.496l.005-2.434 2.483.004-.004 2.434-2.484-.004zm2.46 17.39l.003-2.434 2.447.005-.005 2.434-2.446-.005zm.003-2.434l.005-2.496 2.446.004-.004 2.497-2.447-.005zm.005-2.496l.004-2.484 2.446.005-.004 2.483-2.447-.004zm.004-2.484l.004-2.496 2.446.004-.004 2.497-2.446-.005zm0-2.496l.004-2.484 2.446.005-.004 2.483-2.446-.004zm.004-2.484l.004-2.496 2.446.004-.004 2.497-2.446-.005zm.004-2.496l.004-2.496 2.447.004L39 16.626l-2.446-.004z"/><path d="M36.537 29.078l.005-2.496 2.496.004-.004 2.497-2.497-.005zm.005-2.496l.004-2.484 2.496.005-.004 2.483-2.496-.004zm.004-2.484l.004-2.496 2.496.004-.004 2.497-2.496-.005zm0-2.496l.004-2.484 2.496.005-.004 2.483-2.496-.004zm.004-2.484l.004-2.496 2.496.004-.004 2.497-2.496-.005zm.004-2.496l.004-2.496 2.496.004-.004 2.496-2.496-.004zm.004-2.496l.004-2.434 2.497.004-.005 2.434-2.496-.004zm0-2.434l.004-2.496 2.497.004-.005 2.496-2.496-.004zm2.471 19.825l.005-2.434 2.483.004-.004 2.434-2.484-.005zm.005-2.434l.004-2.497 2.484.005-.005 2.496-2.483-.004zm.02-17.387L39.06 9.2l2.483.004-.004 2.496-2.484-.004zm4.956 19.825l-.005 2.459-2.496-.005.004-2.459 2.497.005zm-2.497 0l.004-2.434 2.497.004-.005 2.434-2.496-.004zm.025-19.825l.004-2.496 2.497.004-.005 2.496-2.496-.004zm4.905 19.829l-.004 2.459-2.434-.005.005-2.458 2.433.004zm-2.433-.004l.004-2.434 2.433.004-.004 2.434-2.433-.004zm.008-4.93l.004-2.484 2.434.004-.004 2.484-2.434-.005zm.004-2.484l.004-2.497 2.434.005-.004 2.496-2.434-.004zm0-2.497l.004-2.483 2.434.004-.004 2.484-2.434-.005zm.004-2.483l.004-2.496 2.434.004-.004 2.496-2.434-.004zm.004-2.496l.004-2.497 2.434.004-.004 2.497-2.434-.005zm.004-2.497l.005-2.434 2.433.005-.004 2.433-2.434-.004zm0-2.434l.005-2.496 2.433.004-.004 2.496-2.434-.004zM48.94 31.53l-.005 2.459-2.496-.004.004-2.46 2.497.005zm-2.497-.004l.005-2.434 2.496.004-.004 2.434-2.497-.004zm.009-4.93l.004-2.484 2.496.004-.004 2.484-2.496-.004zm.004-2.484l.004-2.496 2.496.004-.004 2.496-2.496-.004zm.004-2.496l.004-2.484 2.496.004-.004 2.484-2.496-.004zm0-2.484l.004-2.496 2.496.004-.004 2.496-2.496-.004zm.004-2.496l.004-2.497 2.496.005-.004 2.496-2.496-.004zm.004-2.497l.004-2.434 2.497.005-.005 2.434-2.496-.005zm4.968 17.395l-.004 2.459-2.497-.004.005-2.459 2.496.004zm-2.496-.004l.004-2.434 2.496.004-.004 2.434-2.496-.004zm.008-4.93l.004-2.484 2.496.004-.004 2.484-2.496-.004zm.004-2.484l.004-2.496 2.496.004-.004 2.496-2.496-.004zm.004-2.496l.004-2.484 2.497.004-.005 2.484-2.496-.004zm0-2.484l.004-2.496 2.497.004-.005 2.496-2.496-.004zm.004-2.496l.005-2.496 2.496.004-.004 2.496-2.497-.004zm.005-2.496l.004-2.434 2.496.004-.004 2.434-2.496-.005zm0-2.439l.004-2.496 2.496.004-.004 2.497-2.496-.005zm4.959 19.83l-.004 2.458-2.484-.004.004-2.459 2.484.004zm-2.488 0l.004-2.435 2.484.004-.004 2.434-2.484-.004zm.025-19.825l.004-2.497 2.484.005-.004 2.496-2.484-.004zm4.959 19.828l-.004 2.46-2.496-.005.004-2.459 2.496.004zm-2.496-.004l.004-2.434 2.496.004-.004 2.434-2.496-.004zm0-2.434l.004-2.496 2.496.004-.004 2.496-2.496-.004zm.025-17.386l.004-2.496 2.496.004-.004 2.496-2.496-.004zm4.955 19.828l-.004 2.46-2.484-.005.004-2.459 2.484.005zm-2.484-.004l.004-2.434 2.484.005-.004 2.433-2.484-.004zm0-2.434l.004-2.496 2.484.004-.004 2.497-2.484-.005zm.004-2.496l.004-2.484 2.484.005-.004 2.483-2.484-.004zm.004-2.484l.005-2.496 2.483.004-.004 2.497-2.484-.005zm.005-2.496l.004-2.484 2.483.005-.004 2.483-2.483-.004zm0-2.484l.004-2.496 2.483.004-.004 2.497-2.483-.005zm.004-2.496l.004-2.496 2.484.004-.005 2.496-2.483-.004zm.004-2.496l.004-2.434 2.484.004-.004 2.434-2.484-.004zm.004-2.434l.004-2.496 2.484.004-.004 2.496-2.484-.004zm2.459 19.825l.004-2.434 2.446.004-.004 2.434-2.446-.005zm0-2.434l.004-2.497 2.446.005-.004 2.496-2.446-.004zm.004-2.497l.004-2.483 2.446.004-.004 2.483-2.446-.004zm.004-2.483l.004-2.497 2.447.005-.005 2.496-2.446-.004zm.004-2.497l.004-2.483 2.447.004-.004 2.483-2.447-.004zm0-2.483l.004-2.497 2.447.004-.004 2.497-2.447-.005zm.004-2.497l.005-2.496 2.446.004-.004 2.496-2.447-.004zm.005-2.496l.004-2.434 2.446.004-.004 2.434-2.446-.004z"/><path d="M58.916 21.631l.004-2.483 2.497.004-.005 2.483-2.496-.004zm0-2.483l.004-2.497 2.497.004-.005 2.497-2.496-.005zm.004-2.497l.005-2.496 2.496.004-.004 2.496-2.497-.004zm.005-2.496l.004-2.434 2.496.004-.004 2.434-2.496-.004zm.004-2.438l.004-2.496 2.496.004-.004 2.496-2.496-.004zm2.48 12.41l.004-2.496 2.483.004-.004 2.497-2.484-.005zm.004-2.496l.004-2.483 2.483.004-.004 2.483-2.483-.004zm.012-9.91l.004-2.496 2.484.004-.004 2.496-2.484-.004zm2.459 19.825l.004-2.434 2.496.004-.004 2.434-2.496-.004zm0-2.434l.004-2.496 2.496.004-.004 2.496-2.496-.004zm.004-2.496l.004-2.484 2.496.004-.004 2.484-2.496-.005zm.004-2.484l.004-2.497 2.496.005-.004 2.496-2.496-.004zm.017-12.407l.004-2.496 2.496.004-.004 2.496-2.496-.004zm4.905 19.829l-.004 2.459-2.434-.004.004-2.46 2.434.005zm-2.434-.004l.004-2.434 2.434.004-.004 2.434-2.434-.004zm.013-12.394l.004-2.496 2.434.004-.005 2.496-2.433-.004zm.004-2.496l.004-2.497 2.434.005-.004 2.496-2.434-.004zm.004-2.497l.004-2.434 2.434.005-.004 2.434-2.434-.005zm.004-2.434l.004-2.496 2.434.004-.004 2.497-2.434-.005zm4.905 19.83l-.004 2.458-2.496-.004.004-2.46 2.496.005zm-2.496-.005l.004-2.434 2.496.004-.004 2.434-2.496-.004zm.017-12.394l.004-2.496 2.496.004-.004 2.496-2.496-.004zm0-2.496l.004-2.497 2.496.005-.004 2.496-2.496-.004zm.004-2.497l.004-2.433 2.496.004-.004 2.434-2.496-.005zm.004-2.433l.004-2.497 2.496.005-.004 2.496-2.496-.004zm4.967 19.824l-.004 2.459-2.496-.004.004-2.46 2.496.005zm-2.496 0l.004-2.434 2.497.004-.005 2.434-2.496-.004zm.004-2.438l.005-2.496 2.496.004-.004 2.496-2.497-.004zm0-2.496l.005-2.484 2.496.004-.004 2.484-2.497-.004zm.005-2.484l.004-2.496 2.496.004-.004 2.496-2.496-.004zm.016-12.406l.004-2.497 2.497.005-.005 2.496-2.496-.004zm4.955 19.828l-.004 2.459-2.484-.004.004-2.459 2.484.004zm-2.484-.004l.005-2.434 2.483.004-.004 2.434-2.484-.004zm.005-2.434l.004-2.496 2.484.004-.005 2.496-2.483-.004zm0-2.496l.004-2.484 2.484.004-.005 2.484-2.483-.004zm.004-2.484l.004-2.496 2.484.004-.004 2.496-2.484-.004zm.004-2.496l.004-2.484 2.484.004-.004 2.484-2.484-.004zm.012-9.91l.005-2.496 2.483.004-.004 2.496-2.484-.004zm2.463 14.894l.005-2.484 2.496.005-.004 2.483-2.497-.004zm.005-2.484l.004-2.496 2.496.004-.004 2.497-2.496-.005zm.004-2.496l.004-2.484 2.496.005-.004 2.483-2.496-.004zm.004-2.484l.004-2.496 2.496.004-.004 2.497-2.496-.005zm0-2.496l.004-2.496 2.496.004-.004 2.496-2.496-.004zm.004-2.496l.004-2.434 2.496.004-.004 2.434-2.496-.004zm.004-2.434l.004-2.496 2.497.004-.005 2.496-2.496-.004zm2.48 12.41l.004-2.496 2.484.004-.004 2.497-2.484-.005zm.004-2.496l.004-2.483 2.484.004-.004 2.483-2.484-.004zm.004-2.483l.004-2.497 2.484.004-.004 2.497-2.484-.005zm0-2.497l.004-2.496 2.484.004-.004 2.496-2.484-.004zm.004-2.496l.004-2.434 2.484.004-.004 2.434-2.484-.004zM85.85 31.575l.005-2.434 2.496.004-.004 2.434-2.496-.004zm.005-2.434l.004-2.496 2.496.004-.004 2.496-2.496-.004zm.004-2.496l.004-2.484 2.497.004-.005 2.484-2.496-.004zm.004-2.484l.005-2.496 2.496.004-.004 2.496-2.497-.004zm0-2.496l.005-2.484 2.496.004-.004 2.484-2.497-.004zm.005-2.484l.004-2.497 2.496.005-.004 2.496-2.496-.004zm.004-2.497l.004-2.496 2.496.004-.004 2.497-2.496-.005zm.004-2.496l.004-2.434 2.496.005-.004 2.433-2.496-.004zm0-2.434l.004-2.496 2.496.004-.004 2.497-2.496-.005zm4.955 19.829l-.004 2.459-2.484-.004.004-2.46 2.484.005zm-2.484-.004l.004-2.434 2.484.004-.004 2.434-2.484-.004zm.025-19.825l.004-2.496 2.484.004-.004 2.497-2.484-.005zm4.955 19.829l-.004 2.459-2.496-.004.004-2.46 2.496.005zm-2.496 0l.004-2.434 2.496.004-.004 2.434-2.496-.004zm.025-19.824l.004-2.497 2.496.005-.004 2.496-2.496-.004zm4.91 19.828l-.005 2.459-2.434-.004.004-2.459 2.434.004zm-2.439-.004l.004-2.434 2.434.004-.004 2.434-2.434-.004zm.004-2.434l.004-2.496 2.434.004-.004 2.496-2.434-.004zm.009-7.476l.004-2.484 2.434.004-.005 2.484-2.433-.004zm.004-2.484l.004-2.496 2.434.004-.004 2.496-2.434-.004zm.004-2.496l.004-2.496 2.434.004-.004 2.496-2.434-.004zm.004-2.496l.004-2.434 2.434.004-.004 2.434-2.434-.004zm0-2.434l.004-2.496 2.434.004-.004 2.496-2.434-.004zm4.91 19.828l-.005 2.46-2.496-.005.004-2.459 2.496.004zm-2.497-.004l.004-2.434 2.496.005-.004 2.433-2.496-.004zm0-2.434l.004-2.496 2.496.004-.004 2.496-2.496-.004zm.004-2.496l.004-2.484 2.497.005-.004 2.483-2.497-.004zm.009-7.464l.004-2.496 2.496.004-.004 2.496-2.496-.004zm.004-2.496l.004-2.496 2.496.004-.004 2.496-2.496-.004zm.004-2.496l.004-2.434 2.496.004-.004 2.434-2.496-.004zm2.475 17.39l.005-2.434 2.496.005-.004 2.434-2.497-.005zm0-2.434l.005-2.496 2.496.004-.004 2.497-2.497-.005zm.013-7.476l.004-2.484 2.496.005-.004 2.483-2.496-.004zm0-2.488l.004-2.496 2.496.004-.004 2.496-2.496-.004zm.004-2.496l.004-2.496 2.496.004-.004 2.496-2.496-.004zm.004-2.496l.004-2.434 2.497.004-.005 2.434-2.496-.004zm.004-2.434l.004-2.496 2.497.004-.004 2.496-2.497-.004zm4.955 19.829l-.004 2.458-2.484-.004.005-2.459 2.483.005zm-2.483 0l.004-2.434 2.484.004-.005 2.434-2.483-.005zm.025-19.825l.004-2.496 2.484.004-.005 2.496-2.483-.004zm4.955 19.829l-.004 2.459-2.497-.005.004-2.459 2.497.005zm-2.497-.005l.005-2.433 2.496.004-.004 2.434-2.497-.005zm.025-19.82l.005-2.496 2.496.004-.004 2.496-2.497-.004zm4.955 19.829l-.004 2.459-2.483-.005.004-2.458 2.483.004zm-2.483-.004l.004-2.434 2.484.004-.005 2.434-2.483-.004zm0-2.434l.004-2.496 2.484.004-.005 2.496-2.483-.004zm.004-2.496l.004-2.484 2.484.004-.004 2.484-2.484-.004zm.004-2.484l.004-2.497 2.484.005-.004 2.496-2.484-.004zm.004-2.497l.004-2.483 2.484.004-.004 2.484-2.484-.005zm0-2.483l.004-2.497 2.484.005-.004 2.496-2.484-.004zm.004-2.497l.004-2.496 2.484.004-.004 2.497-2.484-.005zm.004-2.496l.005-2.434 2.483.005-.004 2.433-2.484-.004zm.005-2.434l.004-2.496 2.484.004-.005 2.497-2.483-.005zm4.905 19.825l-.004 2.459-2.447-.005.004-2.458 2.447.004zm-2.447 0l.005-2.434 2.446.004-.004 2.434-2.447-.004zm.005-2.434l.004-2.496 2.446.004-.004 2.496-2.446-.004zm0-2.496l.004-2.484 2.446.004-.004 2.484-2.446-.004zm.004-2.484l.004-2.496 2.446.004-.004 2.496-2.446-.004zm.004-2.496l.004-2.484 2.446.004-.004 2.484-2.446-.004zm0-2.488l.004-2.497 2.446.005-.004 2.496-2.446-.004zm.004-2.497l.004-2.496 2.447.004-.005 2.497-2.446-.005zm.004-2.496l.004-2.434 2.447.005-.004 2.433-2.447-.004z"/><path d="M108.221 31.604l.005-2.434 2.496.004-.004 2.434-2.497-.004zm.005-2.434l.004-2.496 2.496.004-.004 2.496-2.496-.004zm0-2.496l.004-2.484 2.496.004-.004 2.484-2.496-.004zm.004-2.484l.004-2.496 2.496.004-.004 2.496-2.496-.004zm.004-2.496l.004-2.484 2.496.004-.004 2.484-2.496-.004zm0-2.488l.004-2.497 2.496.005-.004 2.496-2.496-.004zm.004-2.497l.004-2.496 2.496.004-.004 2.497-2.496-.005zm.004-2.496l.004-2.434 2.497.005-.005 2.433-2.496-.004zm.004-2.434l.005-2.496 2.496.004-.004 2.497-2.497-.005zm4.955 19.829l-.004 2.459-2.483-.004.004-2.46 2.483.005zm-2.483-.004l.004-2.434 2.484.004-.005 2.434-2.483-.004zm.025-19.82l.004-2.497 2.484.004-.005 2.497-2.483-.004zm4.955 19.828l-.004 2.459-2.497-.004.004-2.459 2.497.004zm-2.497-.004l.005-2.434 2.496.004-.004 2.434-2.497-.004zm.025-19.82l.005-2.497 2.496.005-.004 2.496-2.497-.004zm4.906 19.828l-.005 2.46-2.433-.005.004-2.459 2.434.004zm-2.434-.004l.004-2.434 2.434.005-.004 2.433-2.434-.004zm.004-2.434l.004-2.496 2.434.004-.004 2.497-2.434-.005zm0-2.496l.004-2.484 2.434.004-.004 2.484-2.434-.004zm.008-4.98l.004-2.484 2.434.004-.004 2.484-2.434-.004zm.004-2.484l.005-2.496 2.433.004-.004 2.496-2.434-.004zm0-2.496l.005-2.496 2.433.004-.004 2.496-2.434-.004zm.009-4.93l.004-2.496 2.434.004-.004 2.496-2.434-.004zm4.905 19.824l-.004 2.46-2.497-.005.005-2.459 2.496.004zm-2.496 0l.004-2.433 2.496.004-.004 2.433-2.496-.004zm.004-2.433l.004-2.497 2.496.004-.004 2.497-2.496-.005zm0-2.497l.004-2.484 2.496.005-.004 2.483-2.496-.004zm.008-4.984l.004-2.484 2.496.004-.004 2.484-2.496-.004zm.004-2.484l.004-2.496 2.497.004-.005 2.496-2.496-.004zm0-2.496l.004-2.496 2.497.004-.005 2.496-2.496-.004zm.009-4.93l.004-2.496 2.496.004-.004 2.496-2.496-.004zm2.475 17.39l.004-2.496 2.496.004-.004 2.497-2.496-.005zm0-2.496l.004-2.484 2.496.005-.004 2.483-2.496-.004zm.008-4.98l.004-2.484 2.497.005-.004 2.483-2.497-.004zm.004-2.484l.005-2.496 2.496.004-.004 2.497-2.497-.005zm0-2.496l.005-2.496 2.496.004-.004 2.496-2.497-.004zm.009-4.93l.004-2.496 2.496.004-.004 2.496-2.496-.004zm2.475 17.39l.004-2.496 2.484.005-.004 2.496-2.484-.004zm0-2.496l.004-2.483 2.484.004-.004 2.484-2.484-.005zm.021-14.89l.004-2.496 2.484.004-.004 2.496-2.484-.004zm2.463 17.39l.004-2.495 2.496.004-.004 2.496-2.496-.004zm0-2.495l.004-2.484 2.496.004-.004 2.484-2.496-.005zm.004-2.484l.004-2.496 2.497.004-.005 2.496-2.496-.004zm.013-9.973l.004-2.434 2.496.005-.004 2.433-2.496-.004zm.004-2.438l.004-2.496 2.496.004-.004 2.496-2.496-.004zm2.475 17.395l.004-2.496 2.484.004-.004 2.496-2.484-.004zm0-2.496l.004-2.484 2.484.004-.004 2.484-2.484-.004zm.004-2.484l.005-2.496 2.483.004-.004 2.496-2.484-.004zm.005-2.496l.004-2.484 2.484.004-.005 2.484-2.483-.004zm.004-2.488l.004-2.497 2.484.005-.004 2.496-2.484-.004zm0-2.497l.004-2.496 2.484.004-.004 2.497-2.484-.005zm.004-2.496l.004-2.434 2.484.005-.004 2.433-2.484-.004zm2.467 12.46l.004-2.483 2.447.004-.005 2.484-2.446-.004zm.004-2.483l.004-2.496 2.447.004-.004 2.496-2.447-.004zm.004-2.496l.005-2.484 2.446.004-.004 2.484-2.447-.004zm.005-2.484l.004-2.496 2.446.004-.004 2.496-2.446-.004zm.004-2.496l.004-2.497 2.446.004-.004 2.497-2.446-.004z"/><path d="M130.592 29.195l.004-2.496 2.496.004-.004 2.496-2.496-.004zm0-2.496l.004-2.484 2.496.004-.004 2.484-2.496-.004zm.004-2.484l.004-2.496 2.497.004-.005 2.496-2.496-.004zm.004-2.496l.005-2.484 2.496.004-.004 2.484-2.497-.004zm.005-2.484l.004-2.496 2.496.004-.004 2.496-2.496-.004zm.004-2.496l.004-2.497 2.496.004-.004 2.497-2.496-.004zm0-2.497l.004-2.434 2.496.005-.004 2.433-2.496-.004zm2.475 17.391l.004-2.434 2.484.004-.004 2.434-2.484-.004zm.004-2.434l.004-2.496 2.484.004-.004 2.496-2.484-.004zm.017-14.953l.004-2.433 2.484.004-.004 2.434-2.484-.005zm.004-2.433l.004-2.497 2.484.005-.004 2.496-2.484-.004zm4.955 19.828l-.004 2.46-2.496-.005.004-2.459 2.496.004zm-2.496-.004l.004-2.434 2.496.004-.004 2.434-2.496-.004zm.025-19.82l.004-2.496 2.496.004-.004 2.496-2.496-.004zm4.905 19.824l-.004 2.46-2.434-.005.004-2.459 2.434.004zm-2.434 0l.004-2.434 2.434.005-.004 2.433-2.434-.004zm.008-4.93l.005-2.484 2.433.005-.004 2.483-2.434-.004zm0-2.484l.005-2.496 2.433.004-.004 2.497-2.434-.005zm.005-2.496l.004-2.484 2.434.005-.005 2.483-2.433-.004zm.004-2.488l.004-2.496 2.434.004-.004 2.496-2.434-.004zm.004-2.496l.004-2.496 2.434.004-.004 2.496-2.434-.004zm.004-4.93l.004-2.496 2.434.004-.004 2.496-2.434-.004zm4.905 19.828l-.004 2.46-2.496-.005.004-2.459 2.496.004zm-2.496-.004l.004-2.434 2.496.005-.004 2.433-2.496-.004zm.008-4.93l.004-2.484 2.497.005-.004 2.483-2.497-.004zm0-2.484l.004-2.496 2.497.004-.004 2.497-2.497-.005zm.004-2.496l.005-2.484 2.496.005-.004 2.483-2.497-.004zm.005-2.484l.004-2.496 2.496.004-.004 2.497-2.496-.005zm.004-2.496l.004-2.496 2.496.004-.004 2.496-2.496-.004zm.004-4.93l.004-2.496 2.496.004-.004 2.496-2.496-.004zm4.968 19.829l-.005 2.458-2.496-.004.004-2.459 2.497.005zm-2.497-.005l.004-2.433 2.497.004-.004 2.434-2.497-.005zm.009-4.93l.004-2.483 2.496.004-.004 2.483-2.496-.004zm0-2.483l.004-2.497 2.496.005-.004 2.496-2.496-.004zm.004-2.497l.004-2.483 2.496.004-.004 2.483-2.496-.004zm.004-2.483l.004-2.497 2.496.004-.004 2.497-2.496-.005zm.004-2.497l.004-2.496 2.496.004-.004 2.496-2.496-.004zm.004-4.93l.004-2.496 2.497.004-.005 2.496-2.496-.004zm4.955 19.829l-.004 2.459-2.484-.005.005-2.458 2.483.004zm-2.483-.004l.004-2.434 2.483.004-.004 2.434-2.483-.004zm.024-19.825l.005-2.496 2.483.004-.004 2.496-2.484-.004zm4.956 19.829l-.005 2.459-2.496-.005.004-2.458 2.497.004zm-2.497 0l.004-2.434 2.497.004-.004 2.434-2.497-.004zm.004-2.434l.005-2.496 2.496.004-.004 2.496-2.497-.004zm.021-14.957l.004-2.434 2.497.005-.004 2.433-2.497-.004zm0-2.434l.004-2.496 2.497.004-.004 2.497-2.497-.005zm4.955 19.829l-.004 2.459-2.484-.004.005-2.46 2.483.005zm-2.483-.004l.004-2.434 2.483.004-.004 2.434-2.483-.004zm.004-2.434l.004-2.496 2.484.004-.005 2.496-2.483-.004zm.004-2.496l.004-2.484 2.484.004-.004 2.484-2.484-.004zm.004-2.484l.004-2.496 2.484.004-.004 2.496-2.484-.004zm0-2.496l.004-2.484 2.484.004-.004 2.484-2.484-.004zm.004-2.484l.004-2.496 2.484.004-.004 2.496-2.484-.004zm.004-2.496l.005-2.497 2.483.005-.004 2.496-2.484-.004zm.005-2.497l.004-2.433 2.483.004-.004 2.434-2.483-.005zm2.458 17.39l.004-2.433 2.447.004-.004 2.434-2.447-.004zm.004-2.433l.005-2.496 2.446.004-.004 2.496-2.447-.004zm.005-2.496l.004-2.484 2.446.004-.004 2.484-2.446-.004zm.004-2.484l.004-2.496 2.446.004-.004 2.496-2.446-.004zm0-2.496l.004-2.484 2.446.004-.004 2.484-2.446-.004zm.004-2.484l.004-2.496 2.446.004-.004 2.496-2.446-.004zm.004-2.496l.004-2.497 2.447.005-.005 2.496-2.446-.004z"/><path d="M152.954 31.658l.005-2.434 2.496.004-.004 2.434-2.497-.004zm.005-2.434l.004-2.496 2.496.004-.004 2.496-2.496-.004zm.004-2.496l.004-2.484 2.496.004-.004 2.484-2.496-.004zm.004-2.484l.004-2.496 2.496.004-.004 2.496-2.496-.004zm0-2.496l.004-2.484 2.496.004-.004 2.484-2.496-.004zm.004-2.484l.004-2.496 2.496.004-.004 2.496-2.496-.004zm.004-2.496l.004-2.497 2.497.005-.005 2.496-2.496-.004zm.004-2.497l.004-2.433 2.497.004-.004 2.434-2.497-.005zm0-2.433l.004-2.497 2.497.005-.004 2.496-2.497-.004zm4.955 19.828l-.004 2.46-2.484-.005.005-2.459 2.483.004zm-2.483-.004l.004-2.434 2.484.004-.005 2.434-2.483-.004zm.025-19.824l.004-2.497 2.484.005-.005 2.496-2.483-.004zm4.955 19.828l-.005 2.46-2.496-.005.004-2.459 2.497.004zm-2.497 0l.005-2.434 2.496.005-.004 2.433-2.497-.004zm.025-19.824l.005-2.496 2.496.004-.004 2.496-2.497-.004zm4.91 19.828l-.005 2.46-2.433-.005.004-2.459 2.434.004zm-2.438-.004l.004-2.434 2.434.005-.005 2.433-2.433-.004zm.004-2.434l.004-2.496 2.434.004-.004 2.497-2.434-.005zm.004-2.496l.004-2.484 2.434.005-.004 2.483-2.434-.004zm.004-2.484l.004-2.496 2.434.004-.004 2.496-2.434-.004zm.004-4.98l.004-2.496 2.434.004-.004 2.496-2.434-.004zm.004-2.496l.005-2.496 2.433.004-.004 2.496-2.434-.004zm.005-2.496l.004-2.434 2.434.004-.005 2.434-2.433-.004zm0-2.434l.004-2.496 2.434.004-.005 2.496-2.433-.004zm4.909 19.829l-.004 2.458-2.497-.004.005-2.459 2.496.005zm-2.496-.005l.004-2.433 2.496.004-.004 2.434-2.496-.005zm0-2.433l.004-2.497 2.496.005-.004 2.496-2.496-.004zm.004-2.497l.004-2.483 2.496.004-.004 2.483-2.496-.004zm.012-9.96l.004-2.496 2.497.004-.004 2.496-2.497-.004zm.004-2.496l.005-2.434 2.496.004-.004 2.434-2.497-.004zm2.476 17.39l.004-2.433 2.496.004-.004 2.434-2.496-.004zm0-2.433l.004-2.497 2.496.005-.004 2.496-2.496-.004zm.012-7.477l.005-2.483 2.496.004-.004 2.484-2.497-.005zm.009-7.476l.004-2.434 2.496.005-.004 2.433-2.496-.004zm0-2.434l.004-2.496 2.496.004-.004 2.496-2.496-.004zm4.959 19.825l-.004 2.459-2.484-.005.004-2.458 2.484.004zm-2.484 0l.004-2.434 2.484.004-.004 2.434-2.484-.004zm.008-7.418l.005-2.497 2.483.005-.004 2.496-2.484-.004zm.005-2.497l.004-2.483 2.484.004-.005 2.484-2.483-.005zm0-2.483l.004-2.497 2.484.005-.005 2.496-2.483-.004zm.008-7.427l.004-2.496 2.484.004-.004 2.496-2.484-.004zm4.959 19.829l-.004 2.459-2.496-.005.004-2.458 2.496.004zm-2.496-.004l.004-2.434 2.496.004-.004 2.434-2.496-.004zm.004-4.93l.004-2.484 2.496.004-.004 2.484-2.496-.004zm.004-2.484l.004-2.496 2.497.004-.005 2.496-2.496-.004zm.004-2.496l.005-2.484 2.496.004-.004 2.484-2.497-.004zm0-2.484l.005-2.496 2.496.004-.004 2.496-2.497-.004zm.005-2.496l.004-2.497 2.496.005-.004 2.496-2.496-.004zm.008-4.93l.004-2.497 2.496.004-.004 2.497-2.496-.005zm4.955 19.828l-.004 2.459-2.484-.004.004-2.46 2.484.005zm-2.484-.004l.004-2.434 2.484.004-.004 2.434-2.484-.004zm0-2.434l.004-2.496 2.484.004-.004 2.496-2.484-.004zm.004-2.496l.004-2.484 2.484.004-.004 2.484-2.484-.004zm.009-4.98l.004-2.484 2.484.004-.005 2.484-2.483-.004zm0-2.484l.004-2.496 2.484.004-.005 2.496-2.483-.004zm.004-2.496l.004-2.496 2.484.004-.004 2.496-2.484-.004zm.004-2.496l.004-2.434 2.484.004-.004 2.434-2.484-.005zm.004-2.434l.004-2.497 2.484.005-.004 2.496-2.484-.004zm4.905 19.828l-.004 2.459-2.446-.004.004-2.459 2.446.004zm-2.446-.004l.004-2.434 2.446.004-.004 2.434-2.446-.004zm0-2.434l.004-2.496 2.446.004-.004 2.496-2.446-.004zm.012-9.96l.005-2.496 2.446.004-.004 2.496-2.447-.004zm.005-2.496l.004-2.496 2.446.004-.004 2.496-2.446-.004zm.004-2.496l.004-2.434 2.446.004-.004 2.434-2.446-.004z"/><path d="M175.342 16.797l.004-2.496 2.496.004-.004 2.496-2.496-.004zm.004-2.496l.004-2.434 2.496.004-.004 2.434-2.496-.004zm.004-2.438l.004-2.497 2.496.005-.004 2.496-2.496-.004zm2.488 4.934l.004-2.496 2.484.004-.004 2.496-2.484-.004zm.008-4.93l.004-2.496 2.484.004-.004 2.496-2.484-.004zm2.459 19.824l.004-2.434 2.496.005-.004 2.433-2.496-.004zm0-2.434l.004-2.496 2.496.004-.004 2.497-2.496-.005zm.004-2.496l.004-2.484 2.497.005-.005 2.483-2.496-.004zm.004-2.484l.004-2.496 2.497.004-.004 2.497-2.497-.005zm.004-2.496l.005-2.484 2.496.005-.004 2.483-2.497-.004zm0-2.484l.005-2.496 2.496.004-.004 2.497-2.497-.005zm.005-2.496l.004-2.496 2.496.004-.004 2.496-2.496-.004zm.008-4.93l.004-2.496 2.496.004-.004 2.496-2.496-.004zm4.905 19.829l-.004 2.458-2.434-.004.004-2.459 2.434.005zm-2.434-.005l.004-2.433 2.434.004-.004 2.434-2.434-.005zm.025-19.82l.004-2.496 2.434.004-.004 2.496-2.434-.004zm4.905 19.829l-.004 2.459-2.496-.005.004-2.459 2.496.005zm-2.496-.005l.004-2.433 2.496.004-.004 2.434-2.496-.005zm.025-19.824l.004-2.496 2.496.004-.004 2.496-2.496-.004zm4.968 19.829l-.005 2.459-2.496-.005.004-2.459 2.497.005zm-2.497 0l.004-2.434 2.497.004-.004 2.434-2.497-.004zm.004-2.438l.005-2.497 2.496.005-.004 2.496-2.497-.004zm0-2.497l.005-2.483 2.496.004-.004 2.484-2.497-.005zm.005-2.483l.004-2.497 2.496.005-.004 2.496-2.496-.004zm.004-2.497l.004-2.483 2.496.004-.004 2.484-2.496-.005zm.004-2.483l.004-2.497 2.496.005-.004 2.496-2.496-.004zm0-2.497l.004-2.496 2.496.004-.004 2.497-2.496-.005zm.008-4.93l.004-2.496 2.497.004-.005 2.496-2.496-.004zm4.955 19.829l-.004 2.459-2.484-.005.005-2.458 2.483.004zm-2.483-.004l.004-2.434 2.483.004-.004 2.434-2.483-.004zm.004-2.434l.004-2.496 2.484.004-.005 2.496-2.483-.004zm0-2.496l.004-2.484 2.484.004-.005 2.484-2.483-.004zm.004-2.484l.004-2.496 2.484.004-.004 2.496-2.484-.004zm.004-2.496l.004-2.484 2.484.004-.004 2.484-2.484-.004zm.004-2.484l.004-2.496 2.484.004-.004 2.496-2.484-.004zm0-2.496l.004-2.497 2.484.004-.004 2.497-2.484-.005zm.008-4.93l.005-2.497 2.483.004-.004 2.497-2.484-.005zm2.476 7.43l.004-2.496 2.496.004-.004 2.496-2.496-.004zm0-2.496l.004-2.497 2.496.005-.004 2.496-2.496-.004zm.004-2.497l.004-2.433 2.497.004-.005 2.434-2.496-.005zm.004-2.433l.004-2.497 2.497.004-.004 2.497-2.497-.004zm2.488 7.43l.004-2.496 2.484.004-.004 2.496-2.484-.004zm0-2.496l.004-2.496 2.484.004-.004 2.496-2.484-.004zm.004-2.496l.005-2.434 2.483.004-.004 2.434-2.484-.004z"/></g><defs><clipPath id="clip0"><path fill="#fff" transform="translate(14.167 9.167)" d="M0 0h183.55v25H0z"/></clipPath></defs></svg>
