<svg width="6" height="9" fill="none" xmlns="http://www.w3.org/2000/svg"><path d="M.627.75A.388.388 0 0 0 .35.857a.326.326 0 0 0-.1.249v.948c0 .103.033.19.1.26a.416.416 0 0 0 .277.095h.778v.747c0 .103.038.19.113.261a.372.372 0 0 0 .264.107h.792v.735c0 .094.037.177.113.249a.372.372 0 0 0 .263.106h.704v.45h-.78c-.1 0-.187.036-.263.107a.332.332 0 0 0-.113.25v.746H1.72a.388.388 0 0 0-.276.107.326.326 0 0 0-.1.249v.735H.627a.388.388 0 0 0-.277.106.352.352 0 0 0-.1.25v1.03c0 .095.033.178.1.25A.388.388 0 0 0 .627 9h1.092c.1 0 .189-.036.264-.107a.332.332 0 0 0 .113-.249V7.97h.779c.1 0 .188-.036.264-.107a.332.332 0 0 0 .113-.249v-.735h.778a.346.346 0 0 0 .264-.106.332.332 0 0 0 .113-.25v-.734h.716a.346.346 0 0 0 .264-.107.345.345 0 0 0 .113-.26V4.4a.345.345 0 0 0-.113-.26.346.346 0 0 0-.264-.108h-.779v-.746a.332.332 0 0 0-.113-.25.372.372 0 0 0-.263-.106h-.78v-.735a.332.332 0 0 0-.112-.249.372.372 0 0 0-.264-.106h-.791v-.735a.31.31 0 0 0-.113-.25.346.346 0 0 0-.264-.106H.627z" fill="#fff"/></svg>