<svg width="39" height="30" viewBox="0 0 39 30" fill="none" xmlns="http://www.w3.org/2000/svg">
  <path d="M38.6503 28.463H36.9951V29.8826H38.6503V28.463Z" fill="#F3B12E"/>
  <path d="M36.9948 28.463H35.3396V29.8826H36.9948V28.463Z" fill="#F3B12E"/>
  <path d="M35.3401 28.463H33.6851V29.8826H35.3401V28.463Z" fill="#F3B12E"/>
  <path d="M33.6841 28.463H32.0288V29.8826H33.6841V28.463Z" fill="#F3B12E"/>
  <path d="M32.0309 28.463H30.3777V29.8826H32.0309V28.463Z" fill="#F3B12E"/>
  <path d="M30.3773 28.463H28.7222V29.8826H30.3773V28.463Z" fill="#F3B12E"/>
  <path d="M28.7222 28.463H27.0669V29.8826H28.7222V28.463Z" fill="#F3B12E"/>
  <path d="M27.0668 28.463H25.4116V29.8826H27.0668V28.463Z" fill="#F3B12E"/>
  <path d="M25.412 28.463H23.7568V29.8826H25.412V28.463Z" fill="#F3B12E"/>
  <path d="M23.7562 28.463H22.1011V29.8826H23.7562V28.463Z" fill="#F3B12E"/>
  <path d="M22.1007 28.463H20.4456V29.8826H22.1007V28.463Z" fill="#F3B12E"/>
  <path d="M20.4456 28.463H18.7905V29.8826H20.4456V28.463Z" fill="#F3B12E"/>
  <path d="M18.7895 28.463H17.1362V29.8826H18.7895V28.463Z" fill="#F3B12E"/>
  <path d="M17.136 28.463H15.481V29.8826H17.136V28.463Z" fill="#F3B12E"/>
  <path d="M15.4803 28.463H13.8252V29.8826H15.4803V28.463Z" fill="#F3B12E"/>
  <path d="M13.8254 28.463H12.1702V29.8826H13.8254V28.463Z" fill="#F3B12E"/>
  <path d="M12.1704 28.463H10.5151V29.8826H12.1704V28.463Z" fill="#F3B12E"/>
  <path d="M10.5171 28.463H8.86377V29.8826H10.5171V28.463Z" fill="#F3B12E"/>
  <path d="M8.86371 28.463H7.2085V29.8826H8.86371V28.463Z" fill="#F3B12E"/>
  <path d="M7.20837 28.463H5.55322V29.8826H7.20837V28.463Z" fill="#F3B12E"/>
  <path d="M5.55359 28.463H3.89844V29.8826H5.55359V28.463Z" fill="#F3B12E"/>
  <path d="M3.89832 28.463H2.24316V29.8826H3.89832V28.463Z" fill="#F3B12E"/>
  <path d="M2.2431 28.463H0.587891V29.8826H2.2431V28.463Z" fill="#F3B12E"/>
  <path d="M38.6503 27.0415H36.9951V28.4612H38.6503V27.0415Z" fill="#F3B12E"/>
  <path d="M36.9948 27.0415H35.3396V28.4612H36.9948V27.0415Z" fill="#F3B12E"/>
  <path d="M35.3401 27.0415H33.6851V28.4612H35.3401V27.0415Z" fill="#F3B12E"/>
  <path d="M33.6841 27.0415H32.0288V28.4612H33.6841V27.0415Z" fill="#F3B12E"/>
  <path d="M32.0309 27.0415H30.3777V28.4612H32.0309V27.0415Z" fill="#F3B12E"/>
  <path d="M30.3773 27.0415H28.7222V28.4612H30.3773V27.0415Z" fill="#F3B12E"/>
  <path d="M28.7222 27.0415H27.0669V28.4612H28.7222V27.0415Z" fill="#F3B12E"/>
  <path d="M27.0668 27.0415H25.4116V28.4612H27.0668V27.0415Z" fill="#F3B12E"/>
  <path d="M25.412 27.0415H23.7568V28.4612H25.412V27.0415Z" fill="#F3B12E"/>
  <path d="M23.7562 27.0415H22.1011V28.4612H23.7562V27.0415Z" fill="#F3B12E"/>
  <path d="M22.1007 27.0415H20.4456V28.4612H22.1007V27.0415Z" fill="#F3B12E"/>
  <path d="M20.4456 27.0415H18.7905V28.4612H20.4456V27.0415Z" fill="#F3B12E"/>
  <path d="M18.7895 27.0415H17.1362V28.4612H18.7895V27.0415Z" fill="#F3B12E"/>
  <path d="M17.136 27.0415H15.481V28.4612H17.136V27.0415Z" fill="#F3B12E"/>
  <path d="M15.4803 27.0415H13.8252V28.4612H15.4803V27.0415Z" fill="#F3B12E"/>
  <path d="M13.8254 27.0415H12.1702V28.4612H13.8254V27.0415Z" fill="#F3B12E"/>
  <path d="M12.1704 27.0415H10.5151V28.4612H12.1704V27.0415Z" fill="#F3B12E"/>
  <path d="M10.5171 27.0415H8.86377V28.4612H10.5171V27.0415Z" fill="#F3B12E"/>
  <path d="M8.86371 27.0415H7.2085V28.4612H8.86371V27.0415Z" fill="#F3B12E"/>
  <path d="M7.20837 27.0415H5.55322V28.4612H7.20837V27.0415Z" fill="#F3B12E"/>
  <path d="M5.55359 27.0415H3.89844V28.4612H5.55359V27.0415Z" fill="#F3B12E"/>
  <path d="M3.89832 27.0415H2.24316V28.4612H3.89832V27.0415Z" fill="#F3B12E"/>
  <path d="M2.2431 27.0415H0.587891V28.4612H2.2431V27.0415Z" fill="#F3B12E"/>
  <path d="M38.6503 25.6218H36.9951V27.0414H38.6503V25.6218Z" fill="#F3B12E"/>
  <path d="M36.9948 25.6218H35.3396V27.0414H36.9948V25.6218Z" fill="#F3B12E"/>
  <path d="M35.3401 25.6218H33.6851V27.0414H35.3401V25.6218Z" fill="#8F3F24"/>
  <path d="M33.6841 25.6218H32.0288V27.0414H33.6841V25.6218Z" fill="#8F3F24"/>
  <path d="M32.0309 25.6218H30.3777V27.0414H32.0309V25.6218Z" fill="#8F3F24"/>
  <path d="M30.3773 25.6218H28.7222V27.0414H30.3773V25.6218Z" fill="#8F3F24"/>
  <path d="M28.7222 25.6218H27.0669V27.0414H28.7222V25.6218Z" fill="#8F3F24"/>
  <path d="M27.0668 25.6218H25.4116V27.0414H27.0668V25.6218Z" fill="#8F3F24"/>
  <path d="M25.412 25.6218H23.7568V27.0414H25.412V25.6218Z" fill="#8F3F24"/>
  <path d="M23.7562 25.6218H22.1011V27.0414H23.7562V25.6218Z" fill="#8F3F24"/>
  <path d="M22.1007 25.6218H20.4456V27.0414H22.1007V25.6218Z" fill="#8F3F24"/>
  <path d="M20.4456 25.6218H18.7905V27.0414H20.4456V25.6218Z" fill="#8F3F24"/>
  <path d="M18.7895 25.6218H17.1362V27.0414H18.7895V25.6218Z" fill="#8F3F24"/>
  <path d="M17.136 25.6218H15.481V27.0414H17.136V25.6218Z" fill="#8F3F24"/>
  <path d="M15.4803 25.6218H13.8252V27.0414H15.4803V25.6218Z" fill="#8F3F24"/>
  <path d="M13.8254 25.6218H12.1702V27.0414H13.8254V25.6218Z" fill="#8F3F24"/>
  <path d="M12.1704 25.6218H10.5151V27.0414H12.1704V25.6218Z" fill="#8F3F24"/>
  <path d="M10.5171 25.6218H8.86377V27.0414H10.5171V25.6218Z" fill="#8F3F24"/>
  <path d="M8.86371 25.6218H7.2085V27.0414H8.86371V25.6218Z" fill="#8F3F24"/>
  <path d="M7.20837 25.6218H5.55322V27.0414H7.20837V25.6218Z" fill="#8F3F24"/>
  <path d="M5.55359 25.6218H3.89844V27.0414H5.55359V25.6218Z" fill="#8F3F24"/>
  <path d="M3.89832 25.6218H2.24316V27.0414H3.89832V25.6218Z" fill="#F3B12E"/>
  <path d="M2.2431 25.6218H0.587891V27.0414H2.2431V25.6218Z" fill="#F3B12E"/>
  <path d="M38.6503 24.2002H36.9951V25.6199H38.6503V24.2002Z" fill="#F3B12E"/>
  <path d="M36.9948 24.2002H35.3396V25.6199H36.9948V24.2002Z" fill="#F3B12E"/>
  <path d="M35.3401 24.2002H33.6851V25.6199H35.3401V24.2002Z" fill="#8F3F24"/>
  <path d="M33.6841 24.2002H32.0288V25.6199H33.6841V24.2002Z" fill="#8F3F24"/>
  <path d="M32.0309 24.2002H30.3777V25.6199H32.0309V24.2002Z" fill="#8F3F24"/>
  <path d="M30.3773 24.2002H28.7222V25.6199H30.3773V24.2002Z" fill="#8F3F24"/>
  <path d="M28.7222 24.2002H27.0669V25.6199H28.7222V24.2002Z" fill="#8F3F24"/>
  <path d="M27.0668 24.2002H25.4116V25.6199H27.0668V24.2002Z" fill="#8F3F24"/>
  <path d="M25.412 24.2002H23.7568V25.6199H25.412V24.2002Z" fill="#8F3F24"/>
  <path d="M23.7562 24.2002H22.1011V25.6199H23.7562V24.2002Z" fill="#8F3F24"/>
  <path d="M22.1007 24.2002H20.4456V25.6199H22.1007V24.2002Z" fill="#8F3F24"/>
  <path d="M20.4456 24.2002H18.7905V25.6199H20.4456V24.2002Z" fill="#8F3F24"/>
  <path d="M18.7895 24.2002H17.1362V25.6199H18.7895V24.2002Z" fill="#8F3F24"/>
  <path d="M17.136 24.2002H15.481V25.6199H17.136V24.2002Z" fill="#8F3F24"/>
  <path d="M15.4803 24.2002H13.8252V25.6199H15.4803V24.2002Z" fill="#8F3F24"/>
  <path d="M13.8254 24.2002H12.1702V25.6199H13.8254V24.2002Z" fill="#8F3F24"/>
  <path d="M12.1704 24.2002H10.5151V25.6199H12.1704V24.2002Z" fill="#8F3F24"/>
  <path d="M10.5171 24.2002H8.86377V25.6199H10.5171V24.2002Z" fill="#8F3F24"/>
  <path d="M8.86371 24.2002H7.2085V25.6199H8.86371V24.2002Z" fill="#8F3F24"/>
  <path d="M7.20837 24.2002H5.55322V25.6199H7.20837V24.2002Z" fill="#8F3F24"/>
  <path d="M5.55359 24.2002H3.89844V25.6199H5.55359V24.2002Z" fill="#8F3F24"/>
  <path d="M3.89832 24.2002H2.24316V25.6199H3.89832V24.2002Z" fill="#F3B12E"/>
  <path d="M2.2431 24.2002H0.587891V25.6199H2.2431V24.2002Z" fill="#F3B12E"/>
  <path d="M38.6503 22.7824H36.9951V24.2021H38.6503V22.7824Z" fill="#F3B12E"/>
  <path d="M36.9948 22.7824H35.3396V24.2021H36.9948V22.7824Z" fill="#F3B12E"/>
  <path d="M35.3401 22.7824H33.6851V24.2021H35.3401V22.7824Z" fill="#8F3F24"/>
  <path d="M33.6841 22.7824H32.0288V24.2021H33.6841V22.7824Z" fill="#8F3F24"/>
  <path d="M32.0309 22.7824H30.3777V24.2021H32.0309V22.7824Z" fill="#8F3F24"/>
  <path d="M30.3773 22.7824H28.7222V24.2021H30.3773V22.7824Z" fill="#8F3F24"/>
  <path d="M28.7222 22.7824H27.0669V24.2021H28.7222V22.7824Z" fill="#8F3F24"/>
  <path d="M27.0668 22.7824H25.4116V24.2021H27.0668V22.7824Z" fill="#8F3F24"/>
  <path d="M25.412 22.7824H23.7568V24.2021H25.412V22.7824Z" fill="#8F3F24"/>
  <path d="M23.7562 22.7824H22.1011V24.2021H23.7562V22.7824Z" fill="#8F3F24"/>
  <path d="M22.1007 22.7824H20.4456V24.2021H22.1007V22.7824Z" fill="#8F3F24"/>
  <path d="M20.4456 22.7824H18.7905V24.2021H20.4456V22.7824Z" fill="#8F3F24"/>
  <path d="M18.7895 22.7824H17.1362V24.2021H18.7895V22.7824Z" fill="#8F3F24"/>
  <path d="M17.136 22.7824H15.481V24.2021H17.136V22.7824Z" fill="#8F3F24"/>
  <path d="M15.4803 22.7824H13.8252V24.2021H15.4803V22.7824Z" fill="#8F3F24"/>
  <path d="M13.8254 22.7824H12.1702V24.2021H13.8254V22.7824Z" fill="#8F3F24"/>
  <path d="M12.1704 22.7824H10.5151V24.2021H12.1704V22.7824Z" fill="#8F3F24"/>
  <path d="M10.5171 22.7824H8.86377V24.2021H10.5171V22.7824Z" fill="#8F3F24"/>
  <path d="M8.86371 22.7824H7.2085V24.2021H8.86371V22.7824Z" fill="#8F3F24"/>
  <path d="M7.20837 22.7824H5.55322V24.2021H7.20837V22.7824Z" fill="#8F3F24"/>
  <path d="M5.55359 22.7824H3.89844V24.2021H5.55359V22.7824Z" fill="#8F3F24"/>
  <path d="M3.89832 22.7824H2.24316V24.2021H3.89832V22.7824Z" fill="#F3B12E"/>
  <path d="M2.2431 22.7824H0.587891V24.2021H2.2431V22.7824Z" fill="#F3B12E"/>
  <path d="M38.6503 21.3608H36.9951V22.7804H38.6503V21.3608Z" fill="#F3B12E"/>
  <path d="M36.9948 21.3608H35.3396V22.7804H36.9948V21.3608Z" fill="#F3B12E"/>
  <path d="M35.3401 21.3608H33.6851V22.7804H35.3401V21.3608Z" fill="#8F3F24"/>
  <path d="M33.6841 21.3608H32.0288V22.7804H33.6841V21.3608Z" fill="#8F3F24"/>
  <path d="M32.0309 21.3608H30.3777V22.7804H32.0309V21.3608Z" fill="#8F3F24"/>
  <path d="M30.3773 21.3608H28.7222V22.7804H30.3773V21.3608Z" fill="#8F3F24"/>
  <path d="M28.7222 21.3608H27.0669V22.7804H28.7222V21.3608Z" fill="#8F3F24"/>
  <path d="M27.0668 21.3608H25.4116V22.7804H27.0668V21.3608Z" fill="#8F3F24"/>
  <path d="M25.412 21.3608H23.7568V22.7804H25.412V21.3608Z" fill="#8F3F24"/>
  <path d="M23.7562 21.3608H22.1011V22.7804H23.7562V21.3608Z" fill="#8F3F24"/>
  <path d="M22.1007 21.3608H20.4456V22.7804H22.1007V21.3608Z" fill="#8F3F24"/>
  <path d="M20.4456 21.3608H18.7905V22.7804H20.4456V21.3608Z" fill="#8F3F24"/>
  <path d="M18.7895 21.3608H17.1362V22.7804H18.7895V21.3608Z" fill="#8F3F24"/>
  <path d="M17.136 21.3608H15.481V22.7804H17.136V21.3608Z" fill="#8F3F24"/>
  <path d="M15.4803 21.3608H13.8252V22.7804H15.4803V21.3608Z" fill="#8F3F24"/>
  <path d="M13.8254 21.3608H12.1702V22.7804H13.8254V21.3608Z" fill="#8F3F24"/>
  <path d="M12.1704 21.3608H10.5151V22.7804H12.1704V21.3608Z" fill="#8F3F24"/>
  <path d="M10.5171 21.3608H8.86377V22.7804H10.5171V21.3608Z" fill="#8F3F24"/>
  <path d="M8.86371 21.3608H7.2085V22.7804H8.86371V21.3608Z" fill="#8F3F24"/>
  <path d="M7.20837 21.3608H5.55322V22.7804H7.20837V21.3608Z" fill="#8F3F24"/>
  <path d="M5.55359 21.3608H3.89844V22.7804H5.55359V21.3608Z" fill="#8F3F24"/>
  <path d="M3.89832 21.3608H2.24316V22.7804H3.89832V21.3608Z" fill="#F3B12E"/>
  <path d="M2.2431 21.3608H0.587891V22.7805H2.2431V21.3608Z" fill="#F3B12E"/>
  <path d="M38.6503 19.9412H36.9951V21.3609H38.6503V19.9412Z" fill="#F3B12E"/>
  <path d="M36.9948 19.9412H35.3396V21.3609H36.9948V19.9412Z" fill="#F3B12E"/>
  <path d="M35.3401 19.9412H33.6851V21.3609H35.3401V19.9412Z" fill="#8F3F24"/>
  <path d="M33.6841 19.9412H32.0288V21.3609H33.6841V19.9412Z" fill="#8F3F24"/>
  <path d="M32.0309 19.9412H30.3777V21.3609H32.0309V19.9412Z" fill="#8F3F24"/>
  <path d="M30.3773 19.9412H28.7222V21.3609H30.3773V19.9412Z" fill="#8F3F24"/>
  <path d="M28.7222 19.9412H27.0669V21.3609H28.7222V19.9412Z" fill="#8F3F24"/>
  <path d="M27.0668 19.9412H25.4116V21.3609H27.0668V19.9412Z" fill="#8F3F24"/>
  <path d="M25.412 19.9412H23.7568V21.3609H25.412V19.9412Z" fill="black"/>
  <path d="M23.7562 19.9412H22.1011V21.3609H23.7562V19.9412Z" fill="black"/>
  <path d="M22.1007 19.9412H20.4456V21.3609H22.1007V19.9412Z" fill="black"/>
  <path d="M20.4456 19.9412H18.7905V21.3609H20.4456V19.9412Z" fill="black"/>
  <path d="M18.7895 19.9412H17.1362V21.3609H18.7895V19.9412Z" fill="black"/>
  <path d="M17.136 19.9412H15.481V21.3609H17.136V19.9412Z" fill="black"/>
  <path d="M15.4803 19.9412H13.8252V21.3609H15.4803V19.9412Z" fill="black"/>
  <path d="M26.0327 19.9412H12.1702V21.3609H26.0327V19.9412Z" fill="#8F3F24"/>
  <path d="M12.1704 19.9412H10.5151V21.3609H12.1704V19.9412Z" fill="#8F3F24"/>
  <path d="M10.5171 19.9412H8.86377V21.3609H10.5171V19.9412Z" fill="#8F3F24"/>
  <path d="M8.86371 19.9412H7.2085V21.3609H8.86371V19.9412Z" fill="#8F3F24"/>
  <path d="M7.20837 19.9412H5.55322V21.3609H7.20837V19.9412Z" fill="#8F3F24"/>
  <path d="M5.55359 19.9412H3.89844V21.3609H5.55359V19.9412Z" fill="#8F3F24"/>
  <path d="M3.89832 19.9412H2.24316V21.3609H3.89832V19.9412Z" fill="#F3B12E"/>
  <path d="M2.2431 19.9412H0.587891V21.3609H2.2431V19.9412Z" fill="#F3B12E"/>
  <path d="M38.6503 18.5214H36.9951V19.9411H38.6503V18.5214Z" fill="#F3B12E"/>
  <path d="M36.9948 18.5214H35.3396V19.9411H36.9948V18.5214Z" fill="#F3B12E"/>
  <path d="M35.3401 18.5214H33.6851V19.9411H35.3401V18.5214Z" fill="#F3B12E"/>
  <path d="M33.6841 18.5214H32.0288V19.9411H33.6841V18.5214Z" fill="#F3B12E"/>
  <path d="M32.0309 18.5214H30.3777V19.9411H32.0309V18.5214Z" fill="#F3B12E"/>
  <path d="M30.3773 18.5214H28.7222V19.9411H30.3773V18.5214Z" fill="#F3B12E"/>
  <path d="M28.7222 18.5214H27.0669V19.9411H28.7222V18.5214Z" fill="#F3B12E"/>
  <path d="M27.0668 18.5214H25.4116V19.9411H27.0668V18.5214Z" fill="#F3B12E"/>
  <path d="M25.412 18.5214H23.7568V19.9411H25.412V18.5214Z" fill="black"/>
  <path d="M23.7562 18.5214H22.1011V19.9411H23.7562V18.5214Z" fill="black"/>
  <path d="M22.1007 18.5214H20.4456V19.9411H22.1007V18.5214Z" fill="black"/>
  <path d="M20.4456 18.5214H18.7905V19.9411H20.4456V18.5214Z" fill="black"/>
  <path d="M18.7895 18.5214H17.1362V19.9411H18.7895V18.5214Z" fill="black"/>
  <path d="M17.136 18.5214H15.481V19.9411H17.136V18.5214Z" fill="black"/>
  <path d="M15.4803 18.5214H13.8252V19.9411H15.4803V18.5214Z" fill="black"/>
  <path d="M13.8254 18.5214H12.1702V19.9411H13.8254V18.5214Z" fill="#F3B12E"/>
  <path d="M12.1704 18.5214H10.5151V19.9411H12.1704V18.5214Z" fill="#F3B12E"/>
  <path d="M10.5171 18.5214H8.86377V19.9411H10.5171V18.5214Z" fill="#F3B12E"/>
  <path d="M8.86371 18.5214H7.2085V19.9411H8.86371V18.5214Z" fill="#F3B12E"/>
  <path d="M7.20837 18.5214H5.55322V19.9411H7.20837V18.5214Z" fill="#F3B12E"/>
  <path d="M5.55359 18.5214H3.89844V19.9411H5.55359V18.5214Z" fill="#F3B12E"/>
  <path d="M3.89832 18.5214H2.24316V19.9411H3.89832V18.5214Z" fill="#F3B12E"/>
  <path d="M2.2431 18.5214H0.587891V19.9411H2.2431V18.5214Z" fill="#F3B12E"/>
  <path d="M38.6503 17.1019H36.9951V18.5216H38.6503V17.1019Z" fill="#F3B12E"/>
  <path d="M36.9948 17.1019H35.3396V18.5216H36.9948V17.1019Z" fill="#F3B12E"/>
  <path d="M35.3401 17.1019H33.6851V18.5216H35.3401V17.1019Z" fill="#F3B12E"/>
  <path d="M33.6841 17.1019H32.0288V18.5216H33.6841V17.1019Z" fill="#F3B12E"/>
  <path d="M32.0309 17.1019H30.3777V18.5216H32.0309V17.1019Z" fill="#F3B12E"/>
  <path d="M30.3773 17.1019H28.7222V18.5216H30.3773V17.1019Z" fill="#F3B12E"/>
  <path d="M28.7222 17.1019H27.0669V18.5216H28.7222V17.1019Z" fill="#F3B12E"/>
  <path d="M27.0668 17.1019H25.4116V18.5216H27.0668V17.1019Z" fill="#F3B12E"/>
  <path d="M25.412 17.1019H23.7568V18.5216H25.412V17.1019Z" fill="black"/>
  <path d="M23.7562 17.1019H22.1011V18.5216H23.7562V17.1019Z" fill="black"/>
  <path d="M17.136 17.1019H15.481V18.5216H17.136V17.1019Z" fill="#51543A"/>
  <path d="M15.4803 17.1019H13.8252V18.5216H15.4803V17.1019Z" fill="black"/>
  <path d="M13.8254 17.1019H12.1702V18.5216H13.8254V17.1019Z" fill="#F3B12E"/>
  <path d="M12.1704 17.1019H10.5151V18.5216H12.1704V17.1019Z" fill="#F3B12E"/>
  <path d="M10.5171 17.1019H8.86377V18.5216H10.5171V17.1019Z" fill="#F3B12E"/>
  <path d="M8.86371 17.1019H7.2085V18.5216H8.86371V17.1019Z" fill="#F3B12E"/>
  <path d="M7.20837 17.1019H5.55322V18.5216H7.20837V17.1019Z" fill="#F3B12E"/>
  <path d="M5.55359 17.1019H3.89844V18.5216H5.55359V17.1019Z" fill="#F3B12E"/>
  <path d="M3.89832 17.1019H2.24316V18.5216H3.89832V17.1019Z" fill="#F3B12E"/>
  <path d="M2.2431 17.1019H0.587891V18.5216H2.2431V17.1019Z" fill="#F3B12E"/>
  <path d="M38.6503 15.6802H36.9951V17.0999H38.6503V15.6802Z" fill="#F3B12E"/>
  <path d="M36.9948 15.6802H35.3396V17.0999H36.9948V15.6802Z" fill="#F3B12E"/>
  <path d="M35.3401 15.6802H33.6851V17.0999H35.3401V15.6802Z" fill="#F3B12E"/>
  <path d="M33.6841 15.6802H32.0288V17.0999H33.6841V15.6802Z" fill="#F3B12E"/>
  <path d="M32.0309 15.6802H30.3777V17.0999H32.0309V15.6802Z" fill="#F3B12E"/>
  <path d="M30.3773 15.6802H28.7222V17.0999H30.3773V15.6802Z" fill="#F3B12E"/>
  <path d="M28.7222 15.6802H27.0669V17.0999H28.7222V15.6802Z" fill="#F3B12E"/>
  <path d="M27.0668 15.6802H25.4116V17.0999H27.0668V15.6802Z" fill="#F3B12E"/>
  <path d="M25.412 15.6802H23.7568V17.0999H25.412V15.6802Z" fill="black"/>
  <path d="M23.7562 15.6802H22.1011V17.0999H23.7562V15.6802Z" fill="black"/>
  <path d="M17.136 15.6802H15.481V17.0999H17.136V15.6802Z" fill="#51543A"/>
  <path d="M15.4803 15.6802H13.8252V17.0999H15.4803V15.6802Z" fill="black"/>
  <path d="M13.8254 15.6802H12.1702V17.0999H13.8254V15.6802Z" fill="#F3B12E"/>
  <path d="M12.1704 15.6802H10.5151V17.0999H12.1704V15.6802Z" fill="#F3B12E"/>
  <path d="M10.5171 15.6802H8.86377V17.0999H10.5171V15.6802Z" fill="#F3B12E"/>
  <path d="M8.86371 15.6802H7.2085V17.0999H8.86371V15.6802Z" fill="#F3B12E"/>
  <path d="M7.20837 15.6802H5.55322V17.0999H7.20837V15.6802Z" fill="#F3B12E"/>
  <path d="M5.55359 15.6802H3.89844V17.0999H5.55359V15.6802Z" fill="#F3B12E"/>
  <path d="M3.89832 15.6802H2.24316V17.0999H3.89832V15.6802Z" fill="#F3B12E"/>
  <path d="M2.2431 15.6802H0.587891V17.0999H2.2431V15.6802Z" fill="#F3B12E"/>
  <path d="M38.6503 14.2606H36.9951V15.6802H38.6503V14.2606Z" fill="#F3B12E"/>
  <path d="M36.9948 14.2606H35.3396V15.6802H36.9948V14.2606Z" fill="#F3B12E"/>
  <path d="M35.3401 14.2606H33.6851V15.6802H35.3401V14.2606Z" fill="#F3B12E"/>
  <path d="M33.6841 14.2606H32.0288V15.6802H33.6841V14.2606Z" fill="#F3B12E"/>
  <path d="M32.0309 14.2606H30.3777V15.6802H32.0309V14.2606Z" fill="#F3B12E"/>
  <path d="M30.3773 14.2606H28.7222V15.6802H30.3773V14.2606Z" fill="#F3B12E"/>
  <path d="M28.7222 14.2606H27.0669V15.6802H28.7222V14.2606Z" fill="#F3B12E"/>
  <path d="M27.0668 14.2606H25.4116V15.6802H27.0668V14.2606Z" fill="#F3B12E"/>
  <path d="M25.412 14.2606H23.7568V15.6802H25.412V14.2606Z" fill="black"/>
  <path d="M23.7562 14.2606H22.1011V15.6802H23.7562V14.2606Z" fill="black"/>
  <path d="M17.136 14.2606H15.481V15.6802H17.136V14.2606Z" fill="#51543A"/>
  <path d="M15.4803 14.2606H13.8252V15.6802H15.4803V14.2606Z" fill="black"/>
  <path d="M13.8254 14.2606H12.1702V15.6802H13.8254V14.2606Z" fill="#F3B12E"/>
  <path d="M12.1704 14.2606H10.5151V15.6802H12.1704V14.2606Z" fill="#F3B12E"/>
  <path d="M10.5171 14.2606H8.86377V15.6802H10.5171V14.2606Z" fill="#F3B12E"/>
  <path d="M8.86371 14.2606H7.2085V15.6802H8.86371V14.2606Z" fill="#F3B12E"/>
  <path d="M7.20837 14.2606H5.55322V15.6802H7.20837V14.2606Z" fill="#F3B12E"/>
  <path d="M5.55359 14.2606H3.89844V15.6802H5.55359V14.2606Z" fill="#F3B12E"/>
  <path d="M3.89832 14.2606H2.24316V15.6802H3.89832V14.2606Z" fill="#F3B12E"/>
  <path d="M2.2431 14.2606H0.587891V15.6803H2.2431V14.2606Z" fill="#F3B12E"/>
  <path d="M38.6503 12.8409H36.9951V14.2606H38.6503V12.8409Z" fill="#F3B12E"/>
  <path d="M36.9948 12.8409H35.3396V14.2606H36.9948V12.8409Z" fill="#F3B12E"/>
  <path d="M35.3401 12.8409H33.6851V14.2606H35.3401V12.8409Z" fill="#D7932D"/>
  <path d="M33.6841 12.8409H32.0288V14.2606H33.6841V12.8409Z" fill="#D7932D"/>
  <path d="M32.0309 12.8409H30.3777V14.2606H32.0309V12.8409Z" fill="#D7932D"/>
  <path d="M30.3773 12.8409H28.7222V14.2606H30.3773V12.8409Z" fill="#D7932D"/>
  <path d="M28.7222 12.8409H27.0669V14.2606H28.7222V12.8409Z" fill="#D7932D"/>
  <path d="M27.0668 12.8409H25.4116V14.2606H27.0668V12.8409Z" fill="#D7932D"/>
  <path d="M25.412 12.8409H23.7568V14.2606H25.412V12.8409Z" fill="black"/>
  <path d="M23.7562 12.8409H22.1011V14.2606H23.7562V12.8409Z" fill="black"/>
  <path d="M22.1007 12.8409H20.4456V14.2606H22.1007V12.8409Z" fill="#7E7F4A"/>
  <path d="M20.4456 12.8409H18.7905V14.2606H20.4456V12.8409Z" fill="#7E7F4A"/>
  <path d="M18.7895 12.8409H17.1362V14.2606H18.7895V12.8409Z" fill="#7E7F4A"/>
  <path d="M17.136 12.8409H15.481V14.2606H17.136V12.8409Z" fill="black"/>
  <path d="M15.4803 12.8409H13.8252V14.2606H15.4803V12.8409Z" fill="black"/>
  <path d="M13.8254 12.8409H12.1702V14.2606H13.8254V12.8409Z" fill="#D7932D"/>
  <path d="M12.1704 12.8409H10.5151V14.2606H12.1704V12.8409Z" fill="#D7932D"/>
  <path d="M10.5171 12.8409H8.86377V14.2606H10.5171V12.8409Z" fill="#D7932D"/>
  <path d="M8.86371 12.8409H7.2085V14.2606H8.86371V12.8409Z" fill="#D7932D"/>
  <path d="M7.20837 12.8409H5.55322V14.2606H7.20837V12.8409Z" fill="#D7932D"/>
  <path d="M5.55359 12.8409H3.89844V14.2606H5.55359V12.8409Z" fill="#D7932D"/>
  <path d="M3.89832 12.8409H2.24316V14.2606H3.89832V12.8409Z" fill="#F3B12E"/>
  <path d="M2.2431 12.8409H0.587891V14.2606H2.2431V12.8409Z" fill="#F3B12E"/>
  <path d="M38.6503 11.4212H36.9951V12.8409H38.6503V11.4212Z" fill="#F3B12E"/>
  <path d="M36.9948 11.4212H35.3396V12.8409H36.9948V11.4212Z" fill="#F3B12E"/>
  <path d="M35.3401 11.4212H33.6851V12.8409H35.3401V11.4212Z" fill="#8F3F24"/>
  <path d="M33.6841 11.4212H32.0288V12.8409H33.6841V11.4212Z" fill="#8F3F24"/>
  <path d="M32.0309 11.4212H30.3777V12.8409H32.0309V11.4212Z" fill="#8F3F24"/>
  <path d="M30.3773 11.4212H28.7222V12.8409H30.3773V11.4212Z" fill="#8F3F24"/>
  <path d="M28.7222 11.4212H27.0669V12.8409H28.7222V11.4212Z" fill="#8F3F24"/>
  <path d="M27.0668 11.4212H25.4116V12.8409H27.0668V11.4212Z" fill="#8F3F24"/>
  <path d="M25.412 11.4212H23.7568V12.8409H25.412V11.4212Z" fill="black"/>
  <path d="M23.7562 11.4212H22.1011V12.8409H23.7562V11.4212Z" fill="black"/>
  <path d="M22.1007 11.4212H20.4456V12.8409H22.1007V11.4212Z" fill="black"/>
  <path d="M20.4456 11.4212H18.7905V12.8409H20.4456V11.4212Z" fill="black"/>
  <path d="M18.7895 11.4212H17.1362V12.8409H18.7895V11.4212Z" fill="black"/>
  <path d="M17.136 11.4212H15.481V12.8409H17.136V11.4212Z" fill="black"/>
  <path d="M15.4803 11.4212H13.8252V12.8409H15.4803V11.4212Z" fill="black"/>
  <path d="M13.8254 11.4212H12.1702V12.8409H13.8254V11.4212Z" fill="#8F3F24"/>
  <path d="M12.1704 11.4212H10.5151V12.8409H12.1704V11.4212Z" fill="#8F3F24"/>
  <path d="M10.5171 11.4212H8.86377V12.8409H10.5171V11.4212Z" fill="#8F3F24"/>
  <path d="M8.86371 11.4212H7.2085V12.8409H8.86371V11.4212Z" fill="#8F3F24"/>
  <path d="M7.20837 11.4212H5.55322V12.8409H7.20837V11.4212Z" fill="#8F3F24"/>
  <path d="M5.55359 11.4212H3.89844V12.8409H5.55359V11.4212Z" fill="#8F3F24"/>
  <path d="M3.89832 11.4212H2.24316V12.8409H3.89832V11.4212Z" fill="#F3B12E"/>
  <path d="M2.2431 11.4212H0.587891V12.8409H2.2431V11.4212Z" fill="#F3B12E"/>
  <path d="M38.6503 10.0016H36.9951V11.4213H38.6503V10.0016Z" fill="#F3B12E"/>
  <path d="M36.9948 10.0016H35.3396V11.4213H36.9948V10.0016Z" fill="#F3B12E"/>
  <path d="M35.3401 10.0016H33.6851V11.4213H35.3401V10.0016Z" fill="#8F3F24"/>
  <path d="M33.6841 10.0016H32.0288V11.4213H33.6841V10.0016Z" fill="#8F3F24"/>
  <path d="M32.0309 10.0016H30.3777V11.4213H32.0309V10.0016Z" fill="#8F3F24"/>
  <path d="M30.3773 10.0016H28.7222V11.4213H30.3773V10.0016Z" fill="#8F3F24"/>
  <path d="M28.7222 10.0016H27.0669V11.4213H28.7222V10.0016Z" fill="#8F3F24"/>
  <path d="M27.0668 10.0016H25.4116V11.4213H27.0668V10.0016Z" fill="#8F3F24"/>
  <path d="M25.412 10.0016H23.7568V11.4213H25.412V10.0016Z" fill="#8F3F24"/>
  <path d="M23.7562 10.0016H22.1011V11.4213H23.7562V10.0016Z" fill="#8F3F24"/>
  <path d="M22.1007 10.0016H20.4456V11.4213H22.1007V10.0016Z" fill="#F3B12E"/>
  <path d="M20.4456 10.0016H18.7905V11.4213H20.4456V10.0016Z" fill="#F3B12E"/>
  <path d="M18.7895 10.0016H17.1362V11.4213H18.7895V10.0016Z" fill="#F3B12E"/>
  <path d="M17.136 10.0016H15.481V11.4213H17.136V10.0016Z" fill="#8F3F24"/>
  <path d="M15.4803 10.0016H13.8252V11.4213H15.4803V10.0016Z" fill="#8F3F24"/>
  <path d="M13.8254 10.0016H12.1702V11.4213H13.8254V10.0016Z" fill="#8F3F24"/>
  <path d="M12.1704 10.0016H10.5151V11.4213H12.1704V10.0016Z" fill="#8F3F24"/>
  <path d="M10.5171 10.0016H8.86377V11.4213H10.5171V10.0016Z" fill="#8F3F24"/>
  <path d="M8.86371 10.0016H7.2085V11.4213H8.86371V10.0016Z" fill="#8F3F24"/>
  <path d="M7.20837 10.0016H5.55322V11.4213H7.20837V10.0016Z" fill="#8F3F24"/>
  <path d="M5.55359 10.0016H3.89844V11.4213H5.55359V10.0016Z" fill="#8F3F24"/>
  <path d="M3.89832 10.0016H2.24316V11.4213H3.89832V10.0016Z" fill="#F3B12E"/>
  <path d="M2.2431 10.0016H0.587891V11.4213H2.2431V10.0016Z" fill="#F3B12E"/>
  <path d="M38.6503 8.58004H36.9951V9.99971H38.6503V8.58004Z" fill="#F3B12E"/>
  <path d="M36.9948 8.58004H35.3396V9.99971H36.9948V8.58004Z" fill="#F3B12E"/>
  <path d="M35.3401 8.58004H33.6851V9.99971H35.3401V8.58004Z" fill="#8F3F24"/>
  <path d="M33.6841 8.58004H32.0288V9.99971H33.6841V8.58004Z" fill="#8F3F24"/>
  <path d="M32.0309 8.58004H30.3777V9.99971H32.0309V8.58004Z" fill="#8F3F24"/>
  <path d="M30.3773 8.58004H28.7222V9.99971H30.3773V8.58004Z" fill="#8F3F24"/>
  <path d="M28.7222 8.58004H27.0669V9.99971H28.7222V8.58004Z" fill="#8F3F24"/>
  <path d="M27.0668 8.58004H25.4116V9.99971H27.0668V8.58004Z" fill="#8F3F24"/>
  <path d="M25.412 8.58004H23.7568V9.99971H25.412V8.58004Z" fill="#8F3F24"/>
  <path d="M23.7562 8.58004H22.1011V9.99971H23.7562V8.58004Z" fill="#8F3F24"/>
  <path d="M22.1007 8.58004H20.4456V9.99971H22.1007V8.58004Z" fill="#F3B12E"/>
  <path d="M20.4456 8.58004H18.7905V9.99971H20.4456V8.58004Z" fill="#F3B12E"/>
  <path d="M18.7895 8.58004H17.1362V9.99971H18.7895V8.58004Z" fill="#F3B12E"/>
  <path d="M17.136 8.58004H15.481V9.99971H17.136V8.58004Z" fill="#8F3F24"/>
  <path d="M15.4803 8.58004H13.8252V9.99971H15.4803V8.58004Z" fill="#8F3F24"/>
  <path d="M13.8254 8.58004H12.1702V9.99971H13.8254V8.58004Z" fill="#8F3F24"/>
  <path d="M12.1704 8.58004H10.5151V9.99971H12.1704V8.58004Z" fill="#8F3F24"/>
  <path d="M10.5171 8.58004H8.86377V9.99971H10.5171V8.58004Z" fill="#8F3F24"/>
  <path d="M8.86371 8.58004H7.2085V9.99971H8.86371V8.58004Z" fill="#8F3F24"/>
  <path d="M7.20837 8.58004H5.55322V9.99971H7.20837V8.58004Z" fill="#8F3F24"/>
  <path d="M5.55359 8.58004H3.89844V9.99971H5.55359V8.58004Z" fill="#8F3F24"/>
  <path d="M3.89832 8.58004H2.24316V9.99971H3.89832V8.58004Z" fill="#F3B12E"/>
  <path d="M2.2431 8.58004H0.587891V9.99971H2.2431V8.58004Z" fill="#F3B12E"/>
  <path d="M38.6503 7.16038H36.9951V8.58006H38.6503V7.16038Z" fill="#F3B12E"/>
  <path d="M36.9948 7.16038H35.3396V8.58006H36.9948V7.16038Z" fill="#F3B12E"/>
  <path d="M35.3401 7.16038H33.6851V8.58006H35.3401V7.16038Z" fill="#8F3F24"/>
  <path d="M33.6841 7.16038H32.0288V8.58006H33.6841V7.16038Z" fill="#8F3F24"/>
  <path d="M32.0309 7.16038H30.3777V8.58006H32.0309V7.16038Z" fill="#8F3F24"/>
  <path d="M30.3773 7.16038H28.7222V8.58006H30.3773V7.16038Z" fill="#8F3F24"/>
  <path d="M28.7222 7.16038H27.0669V8.58006H28.7222V7.16038Z" fill="#8F3F24"/>
  <path d="M27.0668 7.16038H25.4116V8.58006H27.0668V7.16038Z" fill="#8F3F24"/>
  <path d="M25.412 7.16038H23.7568V8.58006H25.412V7.16038Z" fill="#8F3F24"/>
  <path d="M23.7562 7.16038H22.1011V8.58006H23.7562V7.16038Z" fill="#8F3F24"/>
  <path d="M22.1007 7.16038H20.4456V8.58006H22.1007V7.16038Z" fill="#F3B12E"/>
  <path d="M20.4456 7.16038H18.7905V8.58006H20.4456V7.16038Z" fill="#F3B12E"/>
  <path d="M18.7895 7.16038H17.1362V8.58006H18.7895V7.16038Z" fill="#F3B12E"/>
  <path d="M17.136 7.16038H15.481V8.58006H17.136V7.16038Z" fill="#8F3F24"/>
  <path d="M15.4803 7.16038H13.8252V8.58006H15.4803V7.16038Z" fill="#8F3F24"/>
  <path d="M13.8254 7.16038H12.1702V8.58006H13.8254V7.16038Z" fill="#8F3F24"/>
  <path d="M12.1704 7.16038H10.5151V8.58006H12.1704V7.16038Z" fill="#8F3F24"/>
  <path d="M10.5171 7.16038H8.86377V8.58006H10.5171V7.16038Z" fill="#8F3F24"/>
  <path d="M8.86371 7.16038H7.2085V8.58006H8.86371V7.16038Z" fill="#8F3F24"/>
  <path d="M7.20837 7.16038H5.55322V8.58006H7.20837V7.16038Z" fill="#8F3F24"/>
  <path d="M5.55359 7.16038H3.89844V8.58006H5.55359V7.16038Z" fill="#8F3F24"/>
  <path d="M3.89832 7.16038H2.24316V8.58006H3.89832V7.16038Z" fill="#F3B12E"/>
  <path d="M2.2431 7.16038H0.587891V8.58006H2.2431V7.16038Z" fill="#F3B12E"/>
  <path d="M36.9948 5.74072H35.3396V7.16039H36.9948V5.74072Z" fill="#F3B12E"/>
  <path d="M35.3401 5.74072H33.6851V7.16039H35.3401V5.74072Z" fill="#8F3F24"/>
  <path d="M33.6841 5.74072H32.0288V7.16039H33.6841V5.74072Z" fill="#8F3F24"/>
  <path d="M32.0309 5.74072H30.3777V7.16039H32.0309V5.74072Z" fill="#8F3F24"/>
  <path d="M30.3773 5.74072H28.7222V7.16039H30.3773V5.74072Z" fill="#8F3F24"/>
  <path d="M28.7222 5.74072H27.0669V7.16039H28.7222V5.74072Z" fill="#8F3F24"/>
  <path d="M27.0668 5.74072H25.4116V7.16039H27.0668V5.74072Z" fill="#8F3F24"/>
  <path d="M25.412 5.74072H23.7568V7.16039H25.412V5.74072Z" fill="#8F3F24"/>
  <path d="M23.7562 5.74072H22.1011V7.16039H23.7562V5.74072Z" fill="#8F3F24"/>
  <path d="M22.1007 5.74072H20.4456V7.16039H22.1007V5.74072Z" fill="#F3B12E"/>
  <path d="M20.4456 5.74072H18.7905V7.16039H20.4456V5.74072Z" fill="#F3B12E"/>
  <path d="M18.7895 5.74072H17.1362V7.16039H18.7895V5.74072Z" fill="#F3B12E"/>
  <path d="M17.136 5.74072H15.481V7.16039H17.136V5.74072Z" fill="#8F3F24"/>
  <path d="M15.4803 5.74072H13.8252V7.16039H15.4803V5.74072Z" fill="#8F3F24"/>
  <path d="M13.8254 5.74072H12.1702V7.16039H13.8254V5.74072Z" fill="#8F3F24"/>
  <path d="M12.1704 5.74072H10.5151V7.16039H12.1704V5.74072Z" fill="#8F3F24"/>
  <path d="M10.5171 5.74072H8.86377V7.16039H10.5171V5.74072Z" fill="#8F3F24"/>
  <path d="M8.86371 5.74072H7.2085V7.16039H8.86371V5.74072Z" fill="#8F3F24"/>
  <path d="M7.20837 5.74072H5.55322V7.16039H7.20837V5.74072Z" fill="#8F3F24"/>
  <path d="M5.55359 5.74072H3.89844V7.16039H5.55359V5.74072Z" fill="#8F3F24"/>
  <path d="M3.89832 5.74072H2.24316V7.16039H3.89832V5.74072Z" fill="#F3B12E"/>
  <path d="M32.0309 4.32093H30.3777V5.74061H32.0309V4.32093Z" fill="#8F3F24"/>
  <path d="M30.3773 4.32093H28.7222V5.74061H30.3773V4.32093Z" fill="#8F3F24"/>
  <path d="M28.7222 4.32093H27.0669V5.74061H28.7222V4.32093Z" fill="#8F3F24"/>
  <path d="M27.0668 4.32093H25.4116V5.74061H27.0668V4.32093Z" fill="#8F3F24"/>
  <path d="M25.412 4.32093H23.7568V5.74061H25.412V4.32093Z" fill="#8F3F24"/>
  <path d="M23.7562 4.32093H22.1011V5.74061H23.7562V4.32093Z" fill="#8F3F24"/>
  <path d="M22.1007 4.32093H20.4456V5.74061H22.1007V4.32093Z" fill="#F3B12E"/>
  <path d="M20.4456 4.32093H18.7905V5.74061H20.4456V4.32093Z" fill="#F3B12E"/>
  <path d="M18.7895 4.32093H17.1362V5.74061H18.7895V4.32093Z" fill="#F3B12E"/>
  <path d="M17.136 4.32093H15.481V5.74061H17.136V4.32093Z" fill="#8F3F24"/>
  <path d="M15.4803 4.32093H13.8252V5.74061H15.4803V4.32093Z" fill="#8F3F24"/>
  <path d="M13.8254 4.32093H12.1702V5.74061H13.8254V4.32093Z" fill="#8F3F24"/>
  <path d="M12.1704 4.32093H10.5151V5.74061H12.1704V4.32093Z" fill="#8F3F24"/>
  <path d="M10.5171 4.32093H8.86377V5.74061H10.5171V4.32093Z" fill="#8F3F24"/>
  <path d="M8.86371 4.32093H7.2085V5.74061H8.86371V4.32093Z" fill="#8F3F24"/>
  <path d="M28.7222 2.90127H27.0669V4.32095H28.7222V2.90127Z" fill="#8F3F24"/>
  <path d="M27.0668 2.90127H25.4116V4.32095H27.0668V2.90127Z" fill="#8F3F24"/>
  <path d="M25.412 2.90127H23.7568V4.32095H25.412V2.90127Z" fill="#8F3F24"/>
  <path d="M23.7562 2.90127H22.1011V4.32095H23.7562V2.90127Z" fill="#8F3F24"/>
  <path d="M22.1007 2.90127H20.4456V4.32095H22.1007V2.90127Z" fill="#F3B12E"/>
  <path d="M20.4456 2.90127H18.7905V4.32095H20.4456V2.90127Z" fill="#F3B12E"/>
  <path d="M18.7895 2.90127H17.1362V4.32095H18.7895V2.90127Z" fill="#F3B12E"/>
  <path d="M17.136 2.90127H15.481V4.32095H17.136V2.90127Z" fill="#8F3F24"/>
  <path d="M15.4803 2.90127H13.8252V4.32095H15.4803V2.90127Z" fill="#8F3F24"/>
  <path d="M13.8254 2.90127H12.1702V4.32095H13.8254V2.90127Z" fill="#8F3F24"/>
  <path d="M12.1704 2.90127H10.5151V4.32095H12.1704V2.90127Z" fill="#8F3F24"/>
  <path d="M22.1007 1.47972H20.4456V2.8994H22.1007V1.47972Z" fill="#F3B12E"/>
  <path d="M20.4456 1.47972H18.7905V2.8994H20.4456V1.47972Z" fill="#F3B12E"/>
  <path d="M18.7895 1.47972H17.1362V2.8994H18.7895V1.47972Z" fill="#F3B12E"/>
  <path d="M22.1007 0.0602417H20.4456V1.47992H22.1007V0.0602417Z" fill="#F3B12E"/>
  <path d="M20.4457 0.0602417H18.7905V1.47992H20.4457V0.0602417Z" fill="#F3B12E"/>
  <path d="M18.7908 0.0602417H17.1375V1.47992H18.7908V0.0602417Z" fill="#F3B12E"/>
</svg>
