<svg width="28" height="28" fill="none" xmlns="http://www.w3.org/2000/svg"><path d="M26.924 6.534h-1.077v.933h1.077v-.933z" fill="#4F151B"/><path d="M25.847 9.333V6.534h-1.078v-.932h-1.077v-.934h-1.078v-.933h-1.078v-.932h-1.075v-.936h-2.154V.934H9.691v.933H7.537v.932H6.462v.932H5.384v.933H4.306v.934H3.23V7.463H2.15v1.866H1.077v9.326h1.076v1.867h1.078v1.867h1.077v.934h1.078v.932h1.077v.933H7.54v.932h2.153v.932h8.619v-.932h2.153v-.932h1.076v-.933h1.078v-.932h1.077v-.934h1.078v-.933h1.077V19.59h1.078V9.329h-1.081v.004zm-20.463.935V8.4h1.078v-.932h1.075v-.933h1.078v-.932H9.69V4.67h8.618v.934h1.076v.932h1.077v.933h1.076V8.4h1.078v1.867h1.077v7.461h-1.077v1.866h-1.078v.933h-1.076v.934h-1.077v.932h-1.076v.934H9.691v-.934H8.615v-.932H7.537v-.934H6.462v-.933H5.384v-1.867H4.306V10.268h1.078z" fill="#BE1E2D"/><path d="M7.54 9.333H6.461V16.8h1.077v1.867h1.078v.934h1.075v.932h2.154v.935H17.232v-.935h2.153v-.932h1.077v-.934h1.076V16.8h1.078V11.2h-1.078V8.399h-1.076v-.932h-1.077v-.933h-2.153V5.6H10.77v.934H8.617v.933H7.539v1.866z" fill="#fff"/><path d="M18.31 26.133v.933H9.692V28h8.616v-.934h2.154v-.933h-2.154zM21.538 25.2h-1.076v.933h1.076v-.932zM22.616 24.267h-1.078v.934H23.693v-1.867h-1.077v.933zM24.77 22.4h-1.077v.934h1.078V22.4zM25.847 21.468h-1.078v.932h1.078v-.932zM25.847 20.533v.935h1.077V19.6h-1.077v.932zM26.924 10.268V19.6H28v-9.333h-1.076zM25.847 8.399v.934h1.077V7.467h-1.077v.932zM25.847 5.6h-1.078v.932h1.078V5.6zM20.462 20.533h-1.077v.935h1.077v-.935zM21.538 10.268v.932h1.078V16.8h-1.078v1.867h-1.076v1.866h1.076v-.932h1.078v-1.867h1.077v-7.466h-1.077V8.399h-1.078V10.268zM21.538 7.467h-1.076v.932h1.076v-.932zM20.462 6.534h-1.077v.933h1.077v-.933z" fill="#4F151B"/><path d="M15.06 14.607h-1.332v1.066h1.332v-1.066zM17.724 16.67h-1.33v1.066h1.33V16.67zM19.055 17.673h-1.33v1.066h1.33v-1.066zM16.393 15.597H15.06v1.153h1.333v-1.153zM13.787 13.21h-1.096v1.296h1.096V13.21zM16.098 10.618h-1.096v1.295h1.096v-1.295zM15 11.913h-1.095v1.297h1.096v-1.297z" fill="#000"/><path d="M23.694 3.733h-1.078v.933h1.078v-.933zM22.616 2.801h-1.078v.932h1.078v-.932zM21.538 1.867h-1.076v.932h1.076v-.932zM18.31 1.867h2.152V.934H18.31v.933zM8.615 26.133H7.539v.933h2.154v-.933H8.615zM7.537 25.2H6.462v.933h1.075v-.932zM5.384 24.267v-.933H4.308v1.867h2.154v-.934H5.384zM4.308 22.4H3.231v.934h1.077V22.4zM10.77 23.334H18.31V22.4h1.076v-.932h-2.153v.932H10.77v-.932H8.615v.932h1.078v.934h1.077zM8.617 20.533H7.539v.935h1.078v-.935zM3.23 20.533H2.154V22.4h1.078v-1.867zM2.153 18.667H1.077v1.866h1.076v-1.866zM1.078 16.8V10.268H0V17.734h1.078V16.8zM7.54 18.667H6.461V16.8H5.384V11.2h1.078V9.333h1.077V7.467H6.462v.932H5.384V10.268H4.308V17.734h1.076v1.867h1.078v.932h1.077v-1.866zM2.153 8.399v-.932H1.077v1.866h1.076V8.4zM8.617 6.534H7.539v.933h1.078v-.933zM3.23 6.534V5.6H2.154v1.867h1.078v-.933zM10.77 6.534V5.6H17.232v.934h2.153V5.6H18.31v-.932H9.693V5.6H8.615v.934H10.77zM4.308 4.668H3.231v.934h1.077v-.934zM5.386 3.733H4.308v.933h1.078v-.933zM6.462 2.801H5.384v.932h1.078v-.932zM7.537 1.867H6.462v.932h1.075v-.932zM9.693 1.867V.934H7.539v.933h2.154zM11.846.934h6.463V0H9.693v.934h2.153z" fill="#4F151B"/><path d="M15.077 21.468h-3.231v-.935H9.693v-.932H8.617v-.934H7.539v1.866h1.078v.935h2.153v.932H17.232v-.932H15.077zM17.232 20.533v.935h2.153v-.935h-2.153zM20.463 19.6h-1.078v.933h1.078v-.932zM7.54 16.8H6.461v1.867h1.077V16.8zM6.462 14.933v-1.866H5.384V16.8h1.078v-1.867zM6.462 11.2H5.384v.932h1.078V11.2z" fill="#fff"/></svg>