<svg viewBox="0 0 54 50" fill="none" xmlns="http://www.w3.org/2000/svg">
  <path d="M44.3136 43.3333H42.542V44.9983H44.3136V43.3333Z" fill="#F2A22C"/>
  <path d="M46.0851 38.3351H44.3135V40H46.0851V38.3351Z" fill="#F2A22C"/>
  <path d="M10.6329 21.6684H8.86133V23.3333H10.6329V21.6684Z" fill="#FCCB28"/>
  <path d="M51.4029 16.6667H49.6314H47.8598H46.0848V18.3351V20V21.6684V23.3334V25.0017V26.6667V28.3351V30V31.6684V33.3334V35.0017H44.3132V36.6667V38.3351H46.0848V40H44.3132V38.3351H42.5416V40H40.7667V41.6684H38.9951V43.3334V45.0017H37.2235H35.4485V46.6667H33.677V48.3317H31.9054H30.1338V50H31.9054H33.677H35.4485H37.2235V48.3317H38.9951H40.7667V46.6667H42.5416V45.0017V43.3334H44.3132V45.0017H46.0848V43.3334V41.6684H47.8598V40H49.6314V38.3351V36.6667H51.4029V35.0017V33.3334H53.1745V31.6684V30V28.3351V26.6667V25.0017V23.3334V21.6684V20V18.3351V16.6667H51.4029Z" fill="#F2A22C"/>
  <path d="M33.677 48.2942V48.3316H30.1338V50H37.2235V48.3316H40.7667V48.2942H33.677Z" fill="#A2802E"/>
  <path d="M44.3136 11.6684H42.542V13.3333H44.3136V11.6684Z" fill="#BF962E"/>
  <path d="M42.5421 16.6666V14.9983V13.3333V11.6683H40.7705V10.0034H38.999V8.335H37.2274V6.67004H35.4558V5.00507H33.6842V3.3333H31.9092H30.1377V1.66833H28.3661H26.5945H24.8161H23.0446H21.273H19.5014H17.7298H15.9548V3.3333H14.1832H12.4083V4.99826H10.6367V6.66323H8.86511V8.32819H7.09353V9.99656H5.32194V11.6615V13.3265H3.55036V14.9915V16.6598H1.77539V18.3248V19.9897V21.6547V23.3197V24.988V26.653V28.318V29.9829V31.6479V33.3129H3.54698V34.9812V36.6462H5.31856V38.3146V39.9795H7.09015V41.6479H8.86173V43.3129H10.6333V44.9778H12.4049V46.6428H14.1799H15.9515V48.3078H17.7264H19.498H21.2696H23.0412H24.8128H26.5843H28.3559H30.1275V46.6428H31.8991H33.6741V44.9778H35.4457V43.3129H37.2172V41.6479H38.9888V39.9795H40.7604V38.3146H42.532V36.6462V34.9812H44.3036V33.3129V31.6479V29.9829V28.318V26.653V24.988V23.3197V21.6547V19.9897V18.3248V16.6598H42.5421V16.6666ZM8.86173 18.335V16.67V15.0017H10.6333V13.3367H12.4049V11.6717H14.1799V10.0068H15.9515V8.33841H17.7264H19.498H21.2696H23.0412H24.8128H26.5843H28.3559H30.1275V10.0068H31.8991V11.6717H33.6741V13.3367H35.4457V15.0017H37.2172V16.67V18.335H38.9888V20V21.6649V23.3299V24.9983V26.6632V28.3282V29.9932V31.6581H37.2172V33.3231V34.9914H35.4457V36.6564H33.6741V38.3248H31.8991V39.9897H30.1275V41.6581H28.3559H26.5843H24.8161H23.0446H21.273H19.5014H17.7298H15.9548V39.9897H14.1832V38.3248H12.4083V36.6564H10.6367V34.9914H8.86511V33.3231V31.6581H7.09353V29.9932V28.3282V26.6632V24.9983V23.3299V21.6649V20V18.335H8.86173Z" fill="#FCCB28"/>
  <path d="M12.4083 16.6666H10.6367V18.335V20V21.6683V23.3333V25.0017V26.6666V28.335V30H12.4083V31.6683V33.3333H14.1799V35.0017H15.9515V36.6666H17.7264H19.498V38.335H21.2696H23.0446H24.8162H26.5877H28.3627V36.6666H30.1343H31.9059V35.0017H33.6775V33.3333H35.4491V31.6683V30H37.224V28.335V26.6666V25.0017V23.3333V21.6683V20H35.4491V18.335V16.6666V14.9983H33.6775V13.3333H31.9059V11.6683H30.1343H28.3627V9.99997H26.5877H24.8162H23.0446H21.2696H19.498H17.7264V11.6683H15.9515H14.1799V13.3333H12.4083V14.9983V16.6666Z" fill="#FCCB28"/>
  <path d="M49.6316 11.6684V9.99999V8.33502H47.86V9.99999H46.0851H44.3135V11.6684V13.3333V14.9983H46.0851V13.3333H47.86H49.6316V14.9983V16.6667H51.4032V14.9983V13.3333V11.6684H49.6316Z" fill="#F2A22C"/>
  <path d="M46.0848 6.66667V5.0017H44.3132H42.5416V3.33333H40.7667V1.66837H38.9951H37.2235V0H35.4485H33.677H31.9054H30.1338V1.66837H31.9054H33.677V3.33333H35.4485V5.0017H37.2235V6.66667H38.9951V8.33504H40.7667H42.5416H44.3132H46.0848H47.8598V6.66667H46.0848Z" fill="#F2A22C"/>
  <path d="M49.6316 11.6684V9.99999V8.33502H47.86V9.99999H46.0851H44.3135V11.6684V13.3333V14.9983H46.0851V13.3333H47.86H49.6316V14.9983V16.6667H51.4032V14.9983V13.3333V11.6684H49.6316Z" fill="#F2A22C"/>
  <path d="M49.6319 11.6684V9.99999V8.33502H47.8604V9.99999V11.6684H49.6319V13.3333V14.9983V16.6667H51.4035V14.9983V13.3333V11.6684H49.6319Z" fill="#A2802E"/>
  <path d="M42.5382 3.33331H40.7666V4.99828H42.5382V3.33331Z" fill="#A2802E"/>
  <path d="M42.542 6.6667H44.3136H46.0852V5.00174H44.3136H42.542V6.6667Z" fill="#A2802E"/>
  <path d="M38.9952 3.3333H40.7668V1.66833H38.9952H37.2236V3.3333H38.9952Z" fill="#A2802E"/>
  <path d="M47.8566 6.66669H46.085V8.33165H47.8566V6.66669Z" fill="#A2802E"/>
  <path d="M31.9054 1.66837H33.677H35.4485H37.2235V0H35.4485H33.677H31.9054H30.1338V1.66837H31.9054Z" fill="#A2802E"/>
  <path d="M44.3136 38.3351H42.542V40H44.3136V38.3351Z" fill="#BF962E"/>
  <path d="M51.4034 16.6667H49.6318H51.4034V18.3351V20V21.6684V23.3334V25.0017V26.6667V28.3351V30V31.6684V33.3333H53.175V31.6684V30V28.3351V26.6667V25.0017V23.3334V21.6684V20V18.3351V16.6667H51.4034Z" fill="#A2802E"/>
  <path d="M44.3135 41.6684V43.3333V45.0017H46.0851V43.3333V41.6684H44.3135Z" fill="#A2802E"/>
  <path d="M47.8566 40H46.085V41.6684H47.8566V40Z" fill="#A2802E"/>
  <path d="M49.631 33.3333V35.0017V36.6666H47.8594V38.335V40H49.631V38.335V36.6666H51.4025V35.0017V33.3333H49.631Z" fill="#A2802E"/>
  <path d="M37.2232 48.3317H35.4482V50H37.2232V48.3317Z" fill="#A2802E"/>
  <path d="M42.5416 45.0017V43.3333H40.7666V45.0017V46.6666H42.5416V45.0017Z" fill="#A2802E"/>
  <path d="M40.7667 46.6666H38.9951V48.3316H40.7667V46.6666Z" fill="#A2802E"/>
  <path d="M30.134 46.6666V48.3316H28.3624H26.5874H24.8159H23.0443H21.2693H19.4977H17.7261H15.9512V50H17.7261H19.4977H21.2693H23.0443H24.8159H26.5874H28.3624H30.134V48.3316H31.9056H33.6772V46.6666H31.9056H30.134Z" fill="#A2802E"/>
  <path d="M35.4484 45.0017H33.6768V46.6666H35.4484V45.0017Z" fill="#A2802E"/>
  <path d="M37.2232 43.3333H35.4482V45.0017H37.2232H38.9948V43.3333V41.6684H37.2232V43.3333Z" fill="#A2802E"/>
  <path d="M40.7667 40H38.9951V41.6684H40.7667V40Z" fill="#A2802E"/>
  <path d="M42.5382 38.3351H40.7666V40H42.5382V38.3351Z" fill="#A2802E"/>
  <path d="M42.542 36.6666V38.335H44.3136V36.6666V35.0017H42.542V36.6666Z" fill="#A2802E"/>
  <path d="M44.3135 18.3351V20V21.6684V23.3334V25.0017V26.6667V28.3351V30V31.6684V33.3334V35.0017H46.0851V33.3334V31.6684V30V28.3351V26.6667V25.0017V23.3334V21.6684V20V18.3351H44.3135Z" fill="#A2802E"/>
  <path d="M42.542 14.9983V16.6667H44.3136V14.9983V13.3333H42.542V14.9983Z" fill="#A2802E"/>
  <path d="M42.5382 10H40.7666V11.665H42.5382V10Z" fill="#A2802E"/>
  <path d="M33.6802 36.6667H31.9053V38.3351H33.6802V36.6667Z" fill="#A2802E"/>
  <path d="M35.4483 18.335V20H37.2233V21.6683V23.3333V25.0017V26.6666V28.335V30H35.4483V31.6683V33.3333H33.6768V35.0017V36.6666H35.4483V35.0017H37.2233V33.3333V31.6683H38.9949V30V28.335V26.6666V25.0017V23.3333V21.6683V20V18.335H37.2233V16.6666V14.9983H35.4483V16.6666V18.335Z" fill="#A2802E"/>
  <path d="M35.4484 13.3333H33.6768V14.9983H35.4484V13.3333Z" fill="#A2802E"/>
  <path d="M33.6802 11.6684H31.9053V13.3333H33.6802V11.6684Z" fill="#A2802E"/>
  <path d="M40.7667 8.33502H38.9951V10.0034H40.7667V8.33502Z" fill="#A2802E"/>
  <path d="M38.9952 6.66669H37.2236V8.33165H38.9952V6.66669Z" fill="#A2802E"/>
  <path d="M37.2198 5.00174H35.4482V6.6667H37.2198V5.00174Z" fill="#A2802E"/>
  <path d="M35.4484 3.33331H33.6768V4.99828H35.4484V3.33331Z" fill="#A2802E"/>
  <path d="M30.1338 3.3333H31.9054H33.677V1.66833H31.9054H30.1338V3.3333Z" fill="#A2802E"/>
  <path d="M14.1798 46.6666H12.4082V48.3316H14.1798H15.9514V46.6666H14.1798Z" fill="#A2802E"/>
  <path d="M12.4083 45.0017H10.6367V46.6666H12.4083V45.0017Z" fill="#A2802E"/>
  <path d="M8.86143 43.3333V41.6684H7.08984V43.3333V45.0017H8.86143H10.6364V43.3333H8.86143Z" fill="#A2802E"/>
  <path d="M7.08995 40H5.31836V41.6684H7.08995V40Z" fill="#A2802E"/>
  <path d="M17.7262 41.6684H19.4978H21.2694H23.0444H24.816H26.5875H28.3625H30.1341V40H31.9057V38.3351H30.1341H28.3625V40H26.5875H24.816H23.0444H21.2694H19.4978H17.7262V38.3351H15.9513H14.1797V40H15.9513V41.6684H17.7262Z" fill="#A2802E"/>
  <path d="M14.1798 36.6667H12.4082V38.3351H14.1798V36.6667Z" fill="#A2802E"/>
  <path d="M5.31846 36.6667H3.54688V38.3351V40H5.31846V38.3351V36.6667Z" fill="#A2802E"/>
  <path d="M3.54698 33.3333H1.77539V35.0017V36.6666H3.54698V35.0017V33.3333Z" fill="#A2802E"/>
  <path d="M1.77497 30V28.3351V26.6667V25.0017V23.3333V21.6684V20V18.3351H0V20V21.6684V23.3333V25.0017V26.6667V28.3351V30V31.6684H1.77497V30Z" fill="#A2802E"/>
  <path d="M12.408 33.3333H10.6364V31.6684V30H8.86143V28.335V26.6667V25.0017V23.3333V21.6684V20H10.6364V18.335V16.6667H12.408V14.9983V13.3333H10.6364V14.9983H8.86143V16.6667V18.335H7.08984V20V21.6684V23.3333V25.0017V26.6667V28.335V30V31.6684H8.86143V33.3333V35.0017H10.6364V36.6667H12.408V35.0017V33.3333Z" fill="#A2802E"/>
  <path d="M3.54698 14.9983V13.3333H1.77539V14.9983V16.6667H3.54698V14.9983Z" fill="#A2802E"/>
  <path d="M14.1798 11.6684H12.4082V13.3333H14.1798V11.6684Z" fill="#A2802E"/>
  <path d="M5.31846 11.6684V10H3.54688V11.6684V13.3333H5.31846V11.6684Z" fill="#A2802E"/>
  <path d="M17.7262 11.6684V9.99999H19.4978H21.2694H23.0444H24.816H26.5875H28.3625V11.6684H30.1341H31.9057V9.99999H30.1341V8.33502H28.3625H26.5875H24.816H23.0444H21.2694H19.4978H17.7262H15.9513V9.99999H14.1797V11.6684H15.9513H17.7262Z" fill="#A2802E"/>
  <path d="M7.08995 8.33502H5.31836V10.0034H7.08995V8.33502Z" fill="#A2802E"/>
  <path d="M8.86143 6.66669H7.08984V8.33165H8.86143V6.66669Z" fill="#A2802E"/>
  <path d="M10.6329 5.00174H8.86133V6.6667H10.6329V5.00174Z" fill="#A2802E"/>
  <path d="M12.4083 3.33331H10.6367V4.99828H12.4083V3.33331Z" fill="#A2802E"/>
  <path d="M15.9514 3.3333V1.66833H14.1798H12.4082V3.3333H14.1798H15.9514Z" fill="#A2802E"/>
  <path d="M19.4977 1.66837H21.2693H23.0443H24.8159H26.5874H28.3624H30.134V0H28.3624H26.5874H24.8159H23.0443H21.2693H19.4977H17.7261H15.9512V1.66837H17.7261H19.4977Z" fill="#A2802E"/>
  <path d="M47.86 13.3333H46.0851V14.9982H44.3135V16.6666V18.335H46.0851V16.6666H47.86H49.6316V14.9982V13.3333H47.86Z" fill="#F2A22C"/>
  <path d="M46.0847 8.33502H44.3132H42.5416H40.7666V9.99999H42.5416V11.6684H44.3132V9.99999H46.0847H47.8597V8.33502H46.0847Z" fill="#F2A22C"/>
  <path d="M24.8161 38.335H23.0445H21.2695H19.4979V36.6666H17.7263H15.9514V35.0017H14.1798V33.3333H12.4082V35.0017V36.6666H14.1798V38.335H15.9514H17.7263V40H19.4979H21.2695H23.0445H24.8161H26.5876H28.3626V38.335H26.5876H24.8161Z" fill="#FCCB28"/>
  <path d="M28.3623 36.6667V38.335H30.1339H31.9055V36.6667H30.1339H28.3623Z" fill="#FCCB28"/>
  <path d="M33.6802 35.0016H31.9053V36.6666H33.6802V35.0016Z" fill="#FCCB28"/>
  <path d="M12.4083 30H10.6367V31.6683V33.3333H12.4083V31.6683V30Z" fill="#FCCB28"/>
  <path d="M10.6363 26.6666V25.0017V23.3333H8.86133V25.0017V26.6666V28.335V30H10.6363V28.335V26.6666Z" fill="#FCCB28"/>
  <path d="M10.6329 20H8.86133V21.6649H10.6329V20Z" fill="#FCCB28"/>
</svg>
