<svg viewBox="0 0 54 50" fill="none" xmlns="http://www.w3.org/2000/svg"><path d="M44.314 43.333h-1.772v1.665h1.772v-1.665zM46.085 38.335h-1.772V40h1.772v-1.665z" fill="#F2A22C"/><path d="M10.633 21.668H8.86v1.665h1.772v-1.665z" fill="#FCCB28"/><path d="M51.403 16.667h-5.318V35.002h-1.772v3.333h1.772V40h-1.772v-1.665h-1.771V40h-1.775v1.668h-1.772v3.334H35.45v1.665h-1.772v1.665h-3.543V50h7.09v-1.668h3.543v-1.665h1.775v-3.334h1.771v1.669h1.772v-3.334h1.775V40h1.771v-3.333h1.772v-3.334h1.772V16.667h-1.772z" fill="#F2A22C"/><path d="M33.677 48.294v.038h-3.543V50h7.09v-1.668h3.543v-.038h-7.09z" fill="#A2802E"/><path d="M44.314 11.668h-1.772v1.665h1.772v-1.665z" fill="#BF962E"/><path d="M42.542 16.667V11.668H40.77v-1.665H39V8.335h-1.772V6.67h-1.771V5.005h-1.772V3.333h-3.546V1.668H15.955v1.665H12.408v1.665h-1.771v1.665H8.865v1.665H7.094v1.669H5.322V13.326H3.55v3.334H1.775V33.313h1.772v3.333h1.772v3.334H7.09v1.668h1.772v1.665h1.771v1.665h1.772v1.665h3.546v1.665H30.127v-1.665H33.675v-1.665h1.772v-1.665h1.771v-1.665h1.772v-1.669h1.771v-1.664h1.772V34.98h1.772V16.66h-1.762v.007zm-33.68 1.668v-3.333h1.771v-1.665h1.772v-1.665h1.775v-1.665h1.771V8.338H30.127v1.669H31.9v1.665h1.775v1.665h1.772v1.665h1.771v3.333h1.772V31.658h-1.772v3.333h-1.771v1.665h-1.772v1.669H31.9v1.665h-1.771v1.668H15.955V39.99h-1.772v-1.665h-1.775v-1.669h-1.771v-1.665H8.865v-3.333H7.094V18.335h1.768z" fill="#FCCB28"/><path d="M12.408 16.667h-1.771V30h1.771v3.333h1.772v1.669h1.771v1.665H19.498v1.668h8.865v-1.668h3.543v-1.665h1.772v-1.669h1.771V30h1.775V20h-1.775V14.998h-1.771v-1.665h-1.772v-1.665h-3.543V10H17.726v1.668H14.18v1.665h-1.772v3.334z" fill="#FCCB28"/><path d="M49.632 11.668V8.335H47.86V10H44.313v4.998h1.772v-1.665H49.632v3.334h1.771V11.668h-1.771zM46.085 6.667V5.002h-3.543V3.333h-1.775V1.668h-3.543V0h-7.09v1.668h3.543v1.665h1.772v1.669h1.775v1.665h1.771v1.668h8.865V6.667h-1.775z" fill="#F2A22C"/><path d="M49.632 11.668V8.335H47.86V10H44.313v4.998h1.772v-1.665H49.632v3.334h1.771V11.668h-1.771z" fill="#F2A22C"/><path d="M49.632 11.668V8.335H47.86v3.333h1.772V16.667h1.772V11.668h-1.772zM42.538 3.333h-1.771v1.665h1.771V3.333zM42.542 6.667h3.543V5.002h-3.543v1.665zM38.995 3.333h1.772V1.668h-3.543v1.665h1.771zM47.857 6.667h-1.772v1.665h1.772V6.667zM31.905 1.668h5.319V0h-7.09v1.668h1.771z" fill="#A2802E"/><path d="M44.314 38.335h-1.772V40h1.772v-1.665z" fill="#BF962E"/><path d="M51.403 16.667h-1.771 1.771V33.333h1.772V16.667h-1.772zM44.313 41.668v3.334h1.772v-3.334h-1.772zM47.857 40h-1.772v1.668h1.772V40zM49.631 33.333v3.334h-1.772V40h1.772v-3.333h1.772v-3.334H49.63zM37.223 48.332h-1.775V50h1.775v-1.668zM42.542 45.002v-1.669h-1.775v3.334h1.775v-1.665zM40.767 46.667h-1.772v1.665h1.772v-1.665zM30.134 46.667v1.665H15.951V50h14.183v-1.668h3.543v-1.665h-3.543zM35.448 45.002h-1.771v1.665h1.771v-1.665zM37.223 43.333h-1.775v1.669H38.995v-3.334h-1.772v1.665zM40.767 40h-1.772v1.668h1.772V40zM42.538 38.335h-1.771V40h1.771v-1.665zM42.542 36.667v1.668h1.772v-3.333h-1.772v1.665zM44.313 18.335V35.002h1.772V18.335h-1.772zM42.542 14.998v1.669h1.772v-3.334h-1.772v1.665zM42.538 10h-1.771v1.665h1.771V10zM33.68 36.667h-1.775v1.668h1.775v-1.668zM35.448 18.335V20h1.775v10h-1.775v3.333h-1.771v3.334h1.771v-1.665h1.775v-3.334h1.772V18.335h-1.772V14.998h-1.775V18.335z" fill="#A2802E"/><path d="M35.448 13.333h-1.771v1.665h1.771v-1.665zM33.68 11.668h-1.775v1.665h1.775v-1.665zM40.767 8.335h-1.772v1.668h1.772V8.335zM38.995 6.667h-1.771v1.665h1.771V6.667zM37.22 5.002h-1.772v1.665h1.772V5.002zM35.448 3.333h-1.771v1.665h1.771V3.333zM30.134 3.333h3.543V1.668h-3.543v1.665zM14.18 46.667h-1.772v1.665h3.543v-1.665H14.18zM12.408 45.002h-1.771v1.665h1.771v-1.665zM8.861 43.333v-1.665H7.09v3.334h3.546v-1.669H8.861zM7.09 40H5.318v1.668H7.09V40zM17.726 41.668H30.134V40h1.772v-1.665h-3.543V40H17.726v-1.665H14.18V40h1.771v1.668h1.775zM14.18 36.667h-1.772v1.668h1.772v-1.668zM5.318 36.667H3.547V40h1.771v-3.333zM3.547 33.333H1.775v3.334h1.772v-3.334zM1.775 30V18.335H0V31.668h1.775V30zM12.408 33.333h-1.772V30H8.861V20h1.775v-3.333h1.772v-3.334h-1.772v1.665H8.861V18.335H7.09V31.668H8.86v3.334h1.775v1.665h1.772v-3.334zM3.547 14.998v-1.665H1.775v3.334h1.772v-1.669zM14.18 11.668h-1.772v1.665h1.772v-1.665zM5.318 11.668V10H3.547v3.333h1.771v-1.665zM17.726 11.668V10h10.637v1.668h3.543V10h-1.772V8.335H15.951V10H14.18v1.668h3.546zM7.09 8.335H5.318v1.668H7.09V8.335zM8.861 6.667H7.09v1.665H8.86V6.667zM10.633 5.002H8.86v1.665h1.772V5.002zM12.408 3.333h-1.771v1.665h1.771V3.333zM15.951 3.333V1.668h-3.543v1.665h3.543zM19.498 1.668h10.636V0H15.951v1.668H19.498z" fill="#A2802E"/><path d="M47.86 13.333h-1.775v1.665h-1.772V18.335h1.772v-1.668H49.632v-3.334H47.86zM46.085 8.335h-5.318V10h1.775v1.668h1.771V10H47.86V8.335h-1.775z" fill="#F2A22C"/><path d="M24.816 38.335h-5.318v-1.668H15.95v-1.665H14.18v-1.669h-1.772v3.334h1.772v1.668h3.546V40h10.637v-1.665H24.816z" fill="#FCCB28"/><path d="M28.362 36.667v1.668h3.543v-1.668h-3.543zM33.68 35.002h-1.775v1.665h1.775v-1.665zM12.408 30h-1.771v3.333h1.771V30zM10.636 26.667v-3.334H8.861V30h1.775v-3.333zM10.633 20H8.86v1.665h1.772V20z" fill="#FCCB28"/></svg>
