<svg width="184" height="51" viewBox="0 0 184 51" fill="none" xmlns="http://www.w3.org/2000/svg">
    <path fill-rule="evenodd" clip-rule="evenodd" d="M176.873 41.47V41.4627L180.203 41.469V41.4763L176.873 41.47ZM176.873 50.0035L180.19 50.0098L180.196 45.7249V45.7176L183.962 45.7249L183.968 41.4763L183.974 37.1188L183.981 32.783L183.987 28.4255H183.981L183.987 24.0898L183.994 19.7323L184 15.3748L180.235 15.3675H180.228L180.235 11.1189L176.873 11.1125V6.71783H149.656H7.77468V6.72522L3.94658 6.71807L3.94007 11.0756L0.0325646 11.0683L0.0260457 15.3169L0.0195368 19.6744H0.0260457L0.0195368 24.0319L0.0130278 28.3677L0.00650894 32.7324L0 37.0682H0.00650894L0 41.4257L3.90751 41.433L3.90099 45.6743L7.77468 45.6815V50.0098H30.9831L31.1103 50.01V50.0098H34.8717L34.9983 50.01V50.0098L176.367 50.0098L176.873 50.0098V50.0035ZM3.88736 37.0682H0.00650894L3.88736 37.0754V37.0682ZM180.209 32.7758H180.215L180.222 28.4183H180.215L180.209 32.7758Z" fill="#456B15"/>
    <path fill-rule="evenodd" clip-rule="evenodd" d="M0 34.9975L0.00650895 30.64L3.88756 30.6472V30.64H0.00650895H0L0.00650895 26.3042L0.0130278 21.9394L0.0195368 17.6037L0.0260457 13.2462H0.0195368L0.0260457 8.88869L0.0325646 4.64011L3.94008 4.64737L3.94659 0.289856L7.77489 0.297007V0.289856H149.656H176.874V4.68456L180.235 4.69095L180.228 8.93953H180.235L184 8.94679L183.994 13.3043L183.987 17.6618L183.981 21.9975H183.987L183.981 26.3551L183.975 30.6908L183.968 35.0483L183.962 39.2969L180.196 39.2896V39.2969L180.19 43.5818L176.874 43.5755V43.5818H176.367H34.9983H31.1103H7.77489V39.2533L3.901 39.246L3.90751 35.0047L0 34.9975ZM176.874 35.042L180.203 35.0483V35.041L176.874 35.0347V35.042ZM180.209 26.3478H180.215L180.222 21.9903H180.215L180.209 26.3478Z" fill="#8EC440"/>
    <g clip-path="url(#clip0)">
    <path d="M15.0381 32.1888L15.0425 29.7096L17.7124 29.7139L17.7079 32.1931L15.0381 32.1888ZM15.0425 29.7096L15.047 27.1669L17.7168 27.1711L17.7124 29.7139L15.0425 29.7096ZM15.0425 27.1669L15.047 24.6368L17.7168 24.6411L17.7124 27.1711L15.0425 27.1669ZM15.047 24.6368L15.0514 22.0941L17.7213 22.0983L17.7168 24.6411L15.047 24.6368ZM15.0514 22.0941L15.0559 19.564L17.7257 19.5682L17.7213 22.0983L15.0514 22.0941ZM15.0559 19.564L15.0603 17.0212L17.7302 17.0255L17.7257 19.5682L15.0559 19.564ZM15.0559 17.0212L15.0603 14.4785L17.7302 14.4827L17.7257 17.0255L15.0559 17.0212ZM15.0603 14.4785L15.0648 11.9993L17.7346 12.0035L17.7302 14.4827L15.0603 14.4785ZM15.0648 11.9993L15.0692 9.45653L17.7391 9.46077L17.7346 12.0035L15.0648 11.9993ZM20.3644 32.1973L20.36 34.7019L17.7035 34.6977L17.7079 32.1931L20.3644 32.1973ZM17.7079 32.1931L17.7124 29.7139L20.3689 29.7181L20.3644 32.1973L17.7079 32.1931ZM17.7346 12.0035L17.7391 9.46077L20.3956 9.465L20.3911 12.0078L17.7346 12.0035ZM23.0342 32.2015L23.0298 34.7062L20.36 34.7019L20.3644 32.1973L23.0342 32.2015ZM20.3644 32.1973L20.3689 29.7181L23.0387 29.7223L23.0342 32.2015L20.3644 32.1973ZM20.3911 12.0078L20.3956 9.465L23.0654 9.46924L23.0609 12.012L20.3911 12.0078ZM25.6373 32.2015L25.6329 34.7062L23.0298 34.7019L23.0342 32.1973L25.6373 32.2015ZM23.0342 32.2015L23.0387 29.7223L25.6418 29.7266L25.6373 32.2058L23.0342 32.2015ZM23.0431 27.1796L23.0476 24.6495L25.6507 24.6538L25.6462 27.1838L23.0431 27.1796ZM23.0431 24.6453L23.0476 22.1025L25.6507 22.1068L25.6462 24.6495L23.0431 24.6453ZM23.0476 22.1025L23.052 19.5725L25.6551 19.5767L25.6507 22.1068L23.0476 22.1025ZM23.052 19.5725L23.0565 17.0297L25.6596 17.034L25.6551 19.5767L23.052 19.5725ZM23.0565 17.0297L23.0609 14.487L25.664 14.4912L25.6596 17.034L23.0565 17.0297ZM23.0609 12.0078L23.0654 9.465L25.6685 9.46924L25.664 12.012L23.0609 12.0078ZM28.3072 32.2058L28.3027 34.7104L25.6329 34.7062L25.6373 32.2015L28.3072 32.2058ZM25.6373 32.2015L25.6418 29.7223L28.3116 29.7266L28.3072 32.2058L25.6373 32.2015ZM25.6462 27.1796L25.6507 24.6495L28.3205 24.6538L28.3161 27.1838L25.6462 27.1796ZM25.6462 24.6495L25.6507 22.1068L28.3205 22.111L28.3161 24.6538L25.6462 24.6495ZM25.6507 22.1068L25.6551 19.5767L28.325 19.581L28.3205 22.111L25.6507 22.1068ZM25.6551 19.5767L25.6596 17.034L28.3294 17.0382L28.325 19.581L25.6551 19.5767ZM25.6596 17.034L25.664 14.4912L28.3339 14.4954L28.3294 17.0382L25.6596 17.034ZM25.664 12.012L25.6685 9.46924L28.3383 9.47348L28.3339 12.0162L25.664 12.012ZM30.977 32.21L30.9726 34.7146L28.3027 34.7104L28.3072 32.2058L30.977 32.21ZM28.3072 32.2058L28.3116 29.7266L30.9815 29.7308L30.977 32.21L28.3072 32.2058ZM28.3161 24.6538L28.3205 22.111L30.9904 22.1153L30.9859 24.658L28.3161 24.6538ZM28.3205 22.111L28.325 19.581L30.9948 19.5852L30.9904 22.1153L28.3205 22.111ZM28.325 19.581L28.3294 17.0382L30.9993 17.0424L30.9948 19.5852L28.325 19.581ZM28.3339 12.0162L28.3383 9.47348L31.0082 9.47772L31.0037 12.0205L28.3339 12.0162ZM33.6335 32.2143L33.629 34.7189L30.9726 34.7146L30.977 32.21L33.6335 32.2143ZM30.977 32.21L30.9815 29.7308L33.6379 29.7351L33.6335 32.2143L30.977 32.21ZM30.9815 29.7308L30.9859 27.1881L33.6424 27.1923L33.6379 29.7351L30.9815 29.7308ZM31.0037 14.4997L31.0082 12.0205L33.6646 12.0247L33.6602 14.5039L31.0037 14.4997ZM31.0037 12.0162L31.0082 9.47348L33.6646 9.47772L33.6602 12.0205L31.0037 12.0162ZM36.3033 32.2185L36.2989 34.7231L33.629 34.7189L33.6335 32.2143L36.3033 32.2185ZM33.6335 32.2143L33.6379 29.7351L36.3078 29.7393L36.3033 32.2185L33.6335 32.2143ZM33.6379 29.7351L33.6424 27.1923L36.3122 27.1965L36.3078 29.7393L33.6379 29.7351ZM33.6424 27.1923L33.6468 24.6623L36.3167 24.6665L36.3122 27.1965L33.6424 27.1923ZM33.6557 17.0424L33.6602 14.4997L36.33 14.5039L36.3256 17.0467L33.6557 17.0424ZM33.6602 14.4997L33.6646 12.0205L36.3345 12.0247L36.33 14.5039L33.6602 14.4997ZM36.3033 32.2185L36.3078 29.7393L38.9643 29.7435L38.9598 32.2227L36.3033 32.2185ZM36.3078 29.7351L36.3122 27.1923L38.9687 27.1965L38.9643 29.7393L36.3078 29.7351ZM36.3122 27.1923L36.3167 24.6623L38.9732 24.6665L38.9687 27.1965L36.3122 27.1923ZM36.3167 24.6623L36.3211 22.1195L38.9776 22.1237L38.9732 24.6665L36.3167 24.6623ZM36.3167 22.1195L36.3211 19.5894L38.9776 19.5937L38.9732 22.1237L36.3167 22.1195ZM36.3211 19.5894L36.3256 17.0467L38.9821 17.0509L38.9776 19.5937L36.3211 19.5894ZM36.3256 17.0467L36.33 14.5039L38.9865 14.5082L38.9821 17.0509L36.3256 17.0467ZM38.9643 29.7393L38.9687 27.1965L41.5852 27.2008L41.5807 29.7435L38.9643 29.7393ZM38.9687 27.1965L38.9732 24.6665L41.5896 24.6707L41.5852 27.2008L38.9687 27.1965ZM38.9732 24.6665L38.9776 22.1237L41.5941 22.128L41.5896 24.6707L38.9732 24.6665ZM38.9732 22.1237L38.9776 19.5937L41.5941 19.5979L41.5896 22.128L38.9732 22.1237ZM38.9776 19.5937L38.9821 17.0509L41.5985 17.0552L41.5941 19.5979L38.9776 19.5937Z" fill="white"/>
    <path d="M38.96 32.2185L38.9644 29.7393L41.6342 29.7436L41.6298 32.2227L38.96 32.2185ZM38.9644 29.7393L38.9689 27.1966L41.6387 27.2008L41.6342 29.7436L38.9644 29.7393ZM38.9689 27.1966L38.9733 24.6665L41.6431 24.6707L41.6387 27.2008L38.9689 27.1966ZM38.9733 24.6665L38.9778 22.1237L41.6476 22.128L41.6431 24.6707L38.9733 24.6665ZM38.9733 22.1237L38.9778 19.5937L41.6476 19.5979L41.6431 22.128L38.9733 22.1237ZM38.9778 19.5937L38.9822 17.0509L41.652 17.0552L41.6476 19.5979L38.9778 19.5937ZM38.9822 17.0509L38.9867 14.5082L41.6565 14.5124L41.652 17.0552L38.9822 17.0509ZM38.9867 14.5082L38.9911 12.029L41.6609 12.0332L41.6565 14.5124L38.9867 14.5082ZM38.9867 12.029L38.9911 9.48621L41.6609 9.49044L41.6565 12.0332L38.9867 12.029ZM44.2863 32.227L44.2818 34.7316L41.6253 34.7274L41.6298 32.2227L44.2863 32.227ZM41.6298 32.2227L41.6342 29.7436L44.2907 29.7478L44.2863 32.227L41.6298 32.2227ZM41.6565 12.0332L41.6609 9.49044L44.3174 9.49468L44.313 12.0374L41.6565 12.0332ZM46.9561 32.227L46.9517 34.7316L44.2818 34.7274L44.2863 32.2227L46.9561 32.227ZM44.2863 32.227L44.2907 29.7478L46.9606 29.752L46.9561 32.2312L44.2863 32.227ZM44.313 12.0332L44.3174 9.49044L46.9873 9.49468L46.9828 12.0374L44.313 12.0332ZM49.5592 32.2312L49.5548 34.7358L46.9517 34.7316L46.9561 32.227L49.5592 32.2312ZM46.9561 32.227L46.9606 29.7478L49.5637 29.752L49.5592 32.2312L46.9561 32.227ZM46.965 27.205L46.9695 24.675L49.5726 24.6792L49.5681 27.2093L46.965 27.205ZM46.9695 24.675L46.9739 22.1322L49.577 22.1365L49.5726 24.6792L46.9695 24.675ZM46.9739 19.6022L46.9784 17.0594L49.5815 17.0636L49.577 19.6064L46.9739 19.6022ZM46.9784 17.0594L46.9828 14.5166L49.5859 14.5209L49.5815 17.0636L46.9784 17.0594ZM46.9828 12.0374L46.9873 9.49468L49.5904 9.49892L49.5859 12.0417L46.9828 12.0374ZM52.2291 32.2355L52.2246 34.7401L49.5548 34.7358L49.5592 32.2312L52.2291 32.2355ZM49.5592 32.2312L49.5637 29.752L52.2335 29.7563L52.2291 32.2355L49.5592 32.2312ZM49.5681 27.2093L49.5726 24.6792L52.2424 24.6835L52.238 27.2135L49.5681 27.2093ZM49.5726 24.6792L49.577 22.1365L52.2469 22.1407L52.2424 24.6835L49.5726 24.6792ZM49.577 19.6064L49.5815 17.0636L52.2513 17.0679L52.2469 19.6106L49.577 19.6064ZM49.5815 17.0636L49.5859 14.5209L52.2558 14.5251L52.2513 17.0679L49.5815 17.0636ZM49.5859 12.0417L49.5904 9.49892L52.2602 9.50316L52.2558 12.0459L49.5859 12.0417ZM54.8989 32.2397L54.8944 34.7443L52.2246 34.7401L52.2291 32.2355L54.8989 32.2397ZM52.2291 32.2355L52.2335 29.7563L54.9033 29.7605L54.8989 32.2397L52.2291 32.2355ZM52.238 27.2135L52.2424 24.6835L54.9122 24.6877L54.9078 27.2177L52.238 27.2135ZM52.2424 24.6835L52.2469 22.1407L54.9167 22.1449L54.9122 24.6877L52.2424 24.6835ZM52.2469 19.6106L52.2513 17.0679L54.9211 17.0721L54.9167 19.6149L52.2469 19.6106ZM52.2513 17.0679L52.2558 14.5251L54.9256 14.5294L54.9211 17.0721L52.2513 17.0679ZM52.2558 12.0417L52.2602 9.49892L54.93 9.50316L54.9256 12.0459L52.2558 12.0417ZM57.5598 32.2397L57.5554 34.7443L54.8989 34.7401L54.9033 32.2355L57.5598 32.2397ZM54.8989 32.2397L54.9033 29.7605L57.5598 29.7647L57.5554 32.2439L54.8989 32.2397ZM54.9078 27.2177L54.9122 24.6877L57.5687 24.6919L57.5643 27.222L54.9078 27.2177ZM54.9122 24.6835L54.9167 22.1407L57.5732 22.1449L57.5687 24.6877L54.9122 24.6835ZM54.9167 19.6106L54.9211 17.0679L57.5776 17.0721L57.5732 19.6149L54.9167 19.6106ZM54.9211 17.0679L54.9256 14.5251L57.5821 14.5294L57.5776 17.0721L54.9211 17.0679ZM54.9256 12.0459L54.93 9.50316L57.5865 9.5074L57.5821 12.0502L54.9256 12.0459ZM60.2297 32.2439L60.2252 34.7486L57.5554 34.7443L57.5598 32.2397L60.2297 32.2439ZM57.5598 32.2397L57.5643 29.7605L60.2341 29.7647L60.2297 32.2439L57.5598 32.2397ZM57.5643 27.2177L57.5687 24.6877L60.2386 24.6919L60.2341 27.222L57.5643 27.2177ZM57.5687 24.6877L57.5732 22.1449L60.243 22.1492L60.2386 24.6919L57.5687 24.6877ZM57.5732 22.1449L57.5776 19.6149L60.2475 19.6191L60.243 22.1492L57.5732 22.1449ZM57.5732 19.6149L57.5776 17.0721L60.2475 17.0764L60.243 19.6191L57.5732 19.6149ZM57.5776 17.0721L57.5821 14.5294L60.2519 14.5336L60.2475 17.0764L57.5776 17.0721ZM57.5865 12.0502L57.591 9.5074L60.2608 9.51163L60.2564 12.0544L57.5865 12.0502ZM62.8862 32.2482L62.8817 34.7528L60.2252 34.7486L60.2297 32.2439L62.8862 32.2482ZM60.2297 32.2439L60.2341 29.7647L62.8906 29.769L62.8862 32.2482L60.2297 32.2439ZM60.2297 29.7647L60.2341 27.222L62.8906 27.2262L62.8862 29.769L60.2297 29.7647ZM60.2341 27.222L60.2386 24.6919L62.8951 24.6962L62.8906 27.2262L60.2341 27.222ZM60.2386 24.6919L60.243 22.1492L62.8995 22.1534L62.8951 24.6962L60.2386 24.6919ZM60.243 22.1492L60.2475 19.6191L62.904 19.6234L62.8995 22.1534L60.243 22.1492ZM60.243 19.6191L60.2475 17.0764L62.904 17.0806L62.8995 19.6234L60.243 19.6191ZM60.2475 17.0764L60.2519 14.5336L62.9084 14.5378L62.904 17.0806L60.2475 17.0764ZM60.2519 14.5336L60.2564 12.0544L62.9128 12.0586L62.9084 14.5378L60.2519 14.5336ZM60.2564 12.0544L60.2608 9.51163L62.9173 9.51587L62.9128 12.0586L60.2564 12.0544ZM65.5026 32.2524L65.4981 34.757L62.8817 34.7528L62.8862 32.2482L65.5026 32.2524ZM62.8862 32.2482L62.8906 29.769L65.507 29.7732L65.5026 32.2524L62.8862 32.2482ZM62.8862 29.769L62.8906 27.2262L65.507 27.2305L65.5026 29.7732L62.8862 29.769ZM62.8995 19.6234L62.904 17.0806L65.5204 17.0848L65.5159 19.6276L62.8995 19.6234ZM62.904 17.0806L62.9084 14.5378L65.5248 14.5421L65.5204 17.0848L62.904 17.0806ZM62.9084 14.5378L62.9128 12.0586L65.5293 12.0629L65.5248 14.5421L62.9084 14.5378Z" fill="white"/>
    <path d="M62.8857 32.2481L62.8902 29.769L65.56 29.7732L65.5556 32.2524L62.8857 32.2481ZM62.8857 29.769L62.8902 27.2262L65.56 27.2304L65.5556 29.7732L62.8857 29.769ZM62.8902 27.2262L62.8946 24.6961L65.5645 24.7004L65.56 27.2304L62.8902 27.2262ZM62.8946 24.6961L62.8991 22.1534L65.5689 22.1576L65.5645 24.7004L62.8946 24.6961ZM62.8991 22.1534L62.9035 19.6233L65.5734 19.6276L65.5689 22.1576L62.8991 22.1534ZM62.8991 19.6233L62.9035 17.0806L65.5734 17.0848L65.5689 19.6276L62.8991 19.6233ZM62.9035 17.0806L62.908 14.5378L65.5778 14.542L65.5734 17.0848L62.9035 17.0806ZM62.908 14.5378L62.9124 12.0586L65.5823 12.0629L65.5778 14.542L62.908 14.5378ZM62.9124 12.0544L62.9169 9.51161L65.5867 9.51585L65.5823 12.0586L62.9124 12.0544ZM68.2121 32.2524L68.2076 34.757L65.5511 34.7528L65.5556 32.2481L68.2121 32.2524ZM65.5556 32.2524L65.56 29.7732L68.2165 29.7774L68.2121 32.2566L65.5556 32.2524ZM65.5823 12.0586L65.5867 9.51585L68.2432 9.52009L68.2388 12.0629L65.5823 12.0586ZM70.8819 32.2566L70.8775 34.7612L68.2076 34.757L68.2121 32.2524L70.8819 32.2566ZM68.2121 32.2524L68.2165 29.7732L70.8864 29.7774L70.8819 32.2566L68.2121 32.2524ZM68.2388 12.0629L68.2432 9.52009L70.913 9.52433L70.9086 12.0671L68.2388 12.0629ZM73.485 32.2609L73.4805 34.7655L70.8775 34.7612L70.8819 32.2566L73.485 32.2609ZM70.8819 32.2566L70.8864 29.7774L73.4894 29.7817L73.485 32.2609L70.8819 32.2566ZM70.8819 29.7774L70.8864 27.2347L73.4894 27.2389L73.485 29.7817L70.8819 29.7774ZM70.8864 27.2347L70.8908 24.7046L73.4939 24.7089L73.4894 27.2389L70.8864 27.2347ZM70.8953 22.1619L70.8997 19.6318L73.5028 19.636L73.4983 22.1661L70.8953 22.1619ZM70.8953 19.6318L70.8997 17.089L73.5028 17.0933L73.4983 19.636L70.8953 19.6318ZM70.8997 17.089L70.9042 14.5463L73.5072 14.5505L73.5028 17.0933L70.8997 17.089ZM70.9086 12.0671L70.913 9.52433L73.5161 9.52856L73.5117 12.0713L70.9086 12.0671ZM76.1548 32.2651L76.1504 34.7697L73.4805 34.7655L73.485 32.2609L76.1548 32.2651ZM73.485 32.2609L73.4894 29.7817L76.1593 29.7859L76.1548 32.2651L73.485 32.2609ZM73.4894 29.7817L73.4939 27.2389L76.1637 27.2431L76.1593 29.7859L73.4894 29.7817ZM73.4894 27.2389L73.4939 24.7089L76.1637 24.7131L76.1593 27.2431L73.4894 27.2389ZM73.4983 22.1661L73.5028 19.636L76.1726 19.6403L76.1682 22.1703L73.4983 22.1661ZM73.5028 19.636L73.5072 17.0933L76.1771 17.0975L76.1726 19.6403L73.5028 19.636ZM73.5028 17.0933L73.5072 14.5505L76.1771 14.5548L76.1726 17.0975L73.5028 17.0933ZM73.5117 12.0713L73.5161 9.52856L76.186 9.5328L76.1815 12.0756L73.5117 12.0713ZM76.1593 29.7817L76.1637 27.2389L78.8336 27.2431L78.8291 29.7859L76.1593 29.7817ZM76.1593 27.2389L76.1637 24.7089L78.8336 24.7131L78.8291 27.2431L76.1593 27.2389ZM76.1682 22.1661L76.1726 19.636L78.8425 19.6403L78.838 22.1703L76.1682 22.1661ZM76.1726 19.636L76.1771 17.0933L78.8469 17.0975L78.8425 19.6403L76.1726 19.636ZM76.1726 17.0933L76.1771 14.5505L78.8469 14.5548L78.8425 17.0975L76.1726 17.0933ZM76.1815 12.0713L76.186 9.52856L78.8558 9.5328L78.8514 12.0756L76.1815 12.0713ZM78.8291 29.7859L78.8336 27.2431L81.49 27.2474L81.4856 29.7901L78.8291 29.7859ZM78.8291 27.2431L78.8336 24.7131L81.49 24.7173L81.4856 27.2474L78.8291 27.2431ZM78.8514 12.0756L78.8558 9.5328L81.5123 9.53704L81.5079 12.0798L78.8514 12.0756ZM81.4856 29.7901L81.49 27.2474L84.1599 27.2516L84.1554 29.7944L81.4856 29.7901ZM81.4856 27.2474L81.49 24.7173L84.1599 24.7216L84.1554 27.2516L81.4856 27.2474ZM81.49 24.7173L81.4945 22.1746L84.1643 22.1788L84.1599 24.7216L81.49 24.7173ZM81.5034 14.559L81.5079 12.0798L84.1777 12.084L84.1732 14.5632L81.5034 14.559ZM81.5079 12.0798L81.5123 9.53704L84.1821 9.54128L84.1777 12.084L81.5079 12.0798ZM84.1554 29.7944L84.1599 27.2516L86.8119 27.2559L86.8075 29.7986L84.1554 29.7944ZM84.1554 27.2516L84.1599 24.7216L86.8164 24.7258L86.8119 27.2559L84.1554 27.2516ZM84.1599 24.7216L84.1643 22.1788L86.8208 22.183L86.8164 24.7258L84.1599 24.7216ZM84.1643 22.1788L84.1688 19.6488L86.8253 19.653L86.8208 22.183L84.1643 22.1788ZM84.1688 19.6488L84.1732 17.106L86.8297 17.1102L86.8253 19.653L84.1688 19.6488ZM84.1688 17.106L84.1732 14.5632L86.8297 14.5675L86.8253 17.1102L84.1688 17.106ZM84.1732 14.5632L84.1777 12.084L86.8342 12.0883L86.8297 14.5675L84.1732 14.5632ZM86.8119 27.2559L86.8164 24.7258L89.4328 24.73V27.2559H86.8119ZM86.8164 24.7216L86.8208 22.1788L89.4373 22.183L89.4328 24.7258L86.8164 24.7216ZM86.8208 22.1788L86.8253 19.6488L89.4417 19.653L89.4373 22.183L86.8208 22.1788ZM86.8253 19.6488L86.8297 17.106L89.4462 17.1102L89.4417 19.653L86.8253 19.6488ZM86.8253 17.106L86.8297 14.5632L89.4462 14.5675L89.4417 17.1102L86.8253 17.106Z" fill="white"/>
    <path d="M86.8125 29.7986L86.8169 27.2559L89.4868 27.2601L89.4823 29.8029L86.8125 29.7986ZM86.8125 27.2559L86.8169 24.7258L89.4868 24.7301L89.4823 27.2559H86.8125ZM86.8169 24.7216L86.8214 22.1788L89.4912 22.1831L89.4868 24.7258L86.8169 24.7216ZM86.8214 22.1788L86.8258 19.6488L89.4957 19.653L89.4912 22.1831L86.8214 22.1788ZM86.8258 19.6488L86.8303 17.106L89.5001 17.1103L89.4957 19.653L86.8258 19.6488ZM86.8258 17.106L86.8303 14.5633L89.5001 14.5675L89.4957 17.1103L86.8258 17.106ZM86.8303 14.5633L86.8347 12.0841L89.5046 12.0883L89.5001 14.5675L86.8303 14.5633ZM89.4779 32.2778L89.4823 29.7986L92.1388 29.8029L92.1344 32.2821L89.4779 32.2778ZM89.4823 29.7986L89.4868 27.2559L92.1433 27.2601L92.1388 29.8029L89.4823 29.7986ZM89.5001 14.5675L89.5046 12.0883L92.1611 12.0925L92.1566 14.5717L89.5001 14.5675ZM89.5046 12.0883L89.509 9.54553L92.1655 9.54977L92.1611 12.0925L89.5046 12.0883ZM94.8042 32.2863L94.7998 34.7909L92.1299 34.7867L92.1344 32.2821L94.8042 32.2863ZM92.1344 32.2821L92.1388 29.8029L94.8087 29.8071L94.8042 32.2863L92.1344 32.2821ZM92.1611 12.0925L92.1655 9.54977L94.8354 9.55401L94.8309 12.0968L92.1611 12.0925ZM97.4073 32.2905L97.4029 34.7952L94.7998 34.7909L94.8042 32.2863L97.4073 32.2905ZM94.8042 32.2863L94.8087 29.8071L97.4117 29.8113L97.4073 32.2905L94.8042 32.2863ZM94.8087 27.2644L94.8131 24.7343L97.4162 24.7385L97.4117 27.2686L94.8087 27.2644ZM94.8131 24.7343L94.8176 22.1915L97.4206 22.1958L97.4162 24.7385L94.8131 24.7343ZM94.8176 22.1915L94.822 19.6615L97.4251 19.6657L97.4206 22.1958L94.8176 22.1915ZM94.822 19.6615L94.8265 17.1187L97.4296 17.123L97.4251 19.6657L94.822 19.6615ZM94.822 17.1187L94.8265 14.576L97.4296 14.5802L97.4251 17.123L94.822 17.1187ZM94.8309 12.0925L94.8354 9.54977L97.4384 9.55401L97.434 12.0968L94.8309 12.0925ZM100.077 32.2905L100.073 34.7952L97.4029 34.7909L97.4073 32.2863L100.077 32.2905ZM97.4073 32.2905L97.4117 29.8113L100.082 29.8156L100.077 32.2948L97.4073 32.2905ZM97.4162 27.2644L97.4206 24.7343L100.09 24.7385L100.086 27.2686L97.4162 27.2644ZM97.4162 24.7343L97.4206 22.1915L100.09 22.1958L100.086 24.7385L97.4162 24.7343ZM97.4206 22.1915L97.4251 19.6615L100.095 19.6657L100.09 22.1958L97.4206 22.1915ZM97.4251 19.6615L97.4296 17.1187L100.099 17.123L100.095 19.6657L97.4251 19.6615ZM97.4296 17.1187L97.434 14.576L100.104 14.5802L100.099 17.123L97.4296 17.1187ZM97.434 12.0968L97.4384 9.55401L100.108 9.55825L100.104 12.101L97.434 12.0968ZM102.747 32.2948L102.743 34.7994L100.073 34.7952L100.077 32.2905L102.747 32.2948ZM100.077 32.2905L100.082 29.8113L102.751 29.8156L102.747 32.2948L100.077 32.2905ZM100.086 27.2686L100.09 24.7385L102.76 24.7428L102.756 27.2728L100.086 27.2686ZM100.086 24.7385L100.09 22.1958L102.76 22.2L102.756 24.7428L100.086 24.7385ZM100.09 22.1958L100.095 19.6657L102.765 19.67L102.76 22.2L100.09 22.1958ZM100.095 19.6657L100.099 17.123L102.769 17.1272L102.765 19.67L100.095 19.6657ZM100.099 17.123L100.104 14.5802L102.774 14.5844L102.769 17.1272L100.099 17.123ZM100.104 12.101L100.108 9.55825L102.778 9.56248L102.774 12.1052L100.104 12.101ZM105.403 32.299L105.399 34.8036L102.743 34.7994L102.747 32.2948L105.403 32.299ZM102.747 32.2948L102.751 29.8156L105.408 29.8198L105.403 32.299L102.747 32.2948ZM102.774 12.1052L102.778 9.56248L105.435 9.56672L105.43 12.1095L102.774 12.1052ZM108.073 32.3033L108.069 34.8079L105.399 34.8036L105.403 32.299L108.073 32.3033ZM105.403 32.299L105.408 29.8198L108.078 29.8241L108.073 32.3033L105.403 32.299ZM105.408 29.8198L105.412 27.2771L108.082 27.2813L108.078 29.8241L105.408 29.8198ZM105.426 14.5887L105.43 12.1095L108.1 12.1137L108.096 14.5929L105.426 14.5887ZM105.43 12.1052L105.435 9.56248L108.104 9.56672L108.1 12.1095L105.43 12.1052ZM110.73 32.3033L110.725 34.8079L108.069 34.8036L108.073 32.299L110.73 32.3033ZM108.073 32.3033L108.078 29.8241L110.734 29.8283L110.73 32.3075L108.073 32.3033ZM108.078 29.8198L108.082 27.2771L110.739 27.2813L110.734 29.8241L108.078 29.8198ZM108.082 27.2771L108.087 24.747L110.743 24.7513L110.739 27.2813L108.082 27.2771ZM108.082 24.747L108.087 22.2043L110.743 22.2085L110.739 24.7513L108.082 24.747ZM108.087 22.2043L108.091 19.6742L110.748 19.6784L110.743 22.2085L108.087 22.2043ZM108.091 19.6742L108.096 17.1314L110.752 17.1357L110.748 19.6784L108.091 19.6742ZM108.096 17.1314L108.1 14.5887L110.756 14.5929L110.752 17.1357L108.096 17.1314ZM108.096 14.5887L108.1 12.1095L110.756 12.1137L110.752 14.5929L108.096 14.5887ZM110.73 32.3033L110.734 29.8241L113.351 29.8283L113.346 32.3075L110.73 32.3033ZM110.734 29.8241L110.739 27.2813L113.355 27.2855L113.351 29.8283L110.734 29.8241ZM110.739 27.2813L110.743 24.7513L113.36 24.7555L113.355 27.2855L110.739 27.2813ZM110.743 24.7513L110.748 22.2085L113.364 22.2127L113.36 24.7555L110.743 24.7513ZM110.743 22.2085L110.748 19.6784L113.364 19.6827L113.36 22.2127L110.743 22.2085ZM110.748 19.6784L110.752 17.1357L113.368 17.1399L113.364 19.6827L110.748 19.6784ZM110.752 17.1357L110.756 14.5929L113.373 14.5972L113.368 17.1399L110.752 17.1357Z" fill="white"/>
    <path d="M110.734 29.8241L110.739 27.2813L113.409 27.2855L113.404 29.8283L110.734 29.8241ZM110.739 27.2813L110.743 24.7513L113.413 24.7555L113.409 27.2855L110.739 27.2813ZM110.743 24.7513L110.748 22.2085L113.418 22.2127L113.413 24.7555L110.743 24.7513ZM110.743 22.2085L110.748 19.6784L113.418 19.6827L113.413 22.2127L110.743 22.2085ZM110.748 19.6784L110.752 17.1357L113.422 17.1399L113.418 19.6827L110.748 19.6784ZM110.752 17.1357L110.757 14.5929L113.426 14.5972L113.422 17.1399L110.752 17.1357ZM110.757 14.5929L110.761 12.1137L113.431 12.118L113.426 14.5972L110.757 14.5929ZM113.4 32.3075L113.404 29.8283L116.061 29.8325L116.056 32.3117L113.4 32.3075ZM113.404 29.8283L113.409 27.2855L116.065 27.2898L116.061 29.8325L113.404 29.8283ZM113.413 24.7555L113.418 22.2127L116.074 22.217L116.07 24.7597L113.413 24.7555ZM113.413 22.2127L113.418 19.6827L116.074 19.6869L116.07 22.217L113.413 22.2127ZM113.426 14.5972L113.431 12.118L116.087 12.1222L116.083 14.6014L113.426 14.5972ZM113.426 12.118L113.431 9.5752L116.087 9.57943L116.083 12.1222L113.426 12.118ZM118.726 32.316L118.722 34.8206L116.052 34.8164L116.056 32.3117L118.726 32.316ZM116.056 32.3117L116.061 29.8325L118.731 29.8368L118.726 32.316L116.056 32.3117ZM116.07 24.7597L116.074 22.217L118.744 22.2212L118.739 24.764L116.07 24.7597ZM116.083 12.118L116.087 9.5752L118.757 9.57943L118.753 12.1222L116.083 12.118ZM121.334 32.316L121.329 34.8206L118.726 34.8164L118.731 32.3117L121.334 32.316ZM118.726 32.316L118.731 29.8368L121.334 29.841L121.329 32.3202L118.726 32.316ZM118.735 27.2898L118.739 24.7597L121.343 24.764L121.338 27.294L118.735 27.2898ZM118.739 24.7597L118.744 22.217L121.347 22.2212L121.343 24.764L118.739 24.7597ZM118.744 19.6869L118.748 17.1442L121.351 17.1484L121.347 19.6912L118.744 19.6869ZM118.748 17.1442L118.753 14.6014L121.356 14.6056L121.351 17.1484L118.748 17.1442ZM118.753 12.1222L118.757 9.57943L121.36 9.58367L121.356 12.1264L118.753 12.1222ZM124.003 32.3202L123.999 34.8248L121.329 34.8206L121.334 32.316L124.003 32.3202ZM121.334 32.316L121.338 29.8368L124.008 29.841L124.003 32.3202L121.334 32.316ZM121.338 27.294L121.343 24.764L124.012 24.7682L124.008 27.2983L121.338 27.294ZM121.343 24.764L121.347 22.2212L124.017 22.2254L124.012 24.7682L121.343 24.764ZM121.347 19.6912L121.351 17.1484L124.021 17.1526L124.017 19.6954L121.347 19.6912ZM121.351 17.1484L121.356 14.6056L124.026 14.6099L124.021 17.1526L121.351 17.1484ZM121.356 12.1264L121.36 9.58367L124.03 9.58791L124.026 12.1307L121.356 12.1264ZM126.673 32.3244L126.669 34.8291L123.999 34.8248L124.003 32.3202L126.673 32.3244ZM124.003 32.3202L124.008 29.841L126.678 29.8453L126.673 32.3244L124.003 32.3202ZM124.008 27.2983L124.012 24.7682L126.682 24.7724L126.678 27.3025L124.008 27.2983ZM124.012 24.7682L124.017 22.2254L126.687 22.2297L126.682 24.7724L124.012 24.7682ZM124.017 19.6954L124.021 17.1526L126.691 17.1569L126.687 19.6996L124.017 19.6954ZM124.021 17.1526L124.026 14.6099L126.696 14.6141L126.691 17.1569L124.021 17.1526ZM124.026 12.1307L124.03 9.58791L126.7 9.59215L126.696 12.1349L124.026 12.1307ZM129.33 32.3287L129.325 34.8333L126.669 34.8291L126.673 32.3244L129.33 32.3287ZM126.673 32.3244L126.678 29.8453L129.334 29.8495L129.33 32.3287L126.673 32.3244ZM126.687 19.6996L126.691 17.1569L129.348 17.1611L129.343 19.7039L126.687 19.6996ZM126.696 12.1307L126.7 9.58791L129.356 9.59215L129.352 12.1349L126.696 12.1307ZM132 32.3287L131.995 34.8333L129.325 34.8291L129.33 32.3244L132 32.3287ZM129.33 32.3287L129.334 29.8495L132.004 29.8537L132 32.3329L129.33 32.3287ZM129.33 29.8453L129.334 27.3025L132.004 27.3067L132 29.8495L129.33 29.8453ZM129.343 22.2297L129.348 19.6996L132.017 19.7039L132.013 22.2339L129.343 22.2297ZM129.343 19.6996L129.348 17.1569L132.017 17.1611L132.013 19.7039L129.343 19.6996ZM129.352 14.6141L129.356 12.1349L132.026 12.1391L132.022 14.6183L129.352 14.6141ZM129.356 12.1349L129.361 9.59215L132.031 9.59639L132.026 12.1391L129.356 12.1349ZM134.656 32.3329L134.652 34.8375L131.995 34.8333L132 32.3287L134.656 32.3329ZM132 32.3287L132.004 29.8495L134.661 29.8537L134.656 32.3329L132 32.3287ZM132 29.8495L132.004 27.3067L134.661 27.311L134.656 29.8537L132 29.8495ZM132.004 27.3067L132.009 24.7767L134.665 24.7809L134.661 27.311L132.004 27.3067ZM132.009 24.7767L132.013 22.2339L134.669 22.2382L134.665 24.7809L132.009 24.7767ZM132.013 22.2339L132.017 19.7039L134.674 19.7081L134.669 22.2382L132.013 22.2339ZM132.013 19.7039L132.017 17.1611L134.674 17.1653L134.669 19.7081L132.013 19.7039ZM132.017 17.1611L132.022 14.6183L134.678 14.6226L134.674 17.1653L132.017 17.1611ZM132.022 14.6183L132.026 12.1391L134.683 12.1434L134.678 14.6226L132.022 14.6183ZM134.656 32.3329L134.661 29.8537L137.277 29.858L137.273 32.3372L134.656 32.3329ZM134.656 29.8537L134.661 27.311L137.277 27.3152L137.273 29.858L134.656 29.8537ZM134.661 27.311L134.665 24.7809L137.281 24.7852L137.277 27.3152L134.661 27.311ZM134.665 24.7809L134.669 22.2382L137.286 22.2424L137.281 24.7852L134.665 24.7809ZM134.669 22.2382L134.674 19.7081L137.29 19.7123L137.286 22.2424L134.669 22.2382ZM134.669 19.7081L134.674 17.1653L137.29 17.1696L137.286 19.7123L134.669 19.7081ZM134.674 17.1653L134.678 14.6226L137.295 14.6268L137.29 17.1696L134.674 17.1653Z" fill="white"/>
    <path d="M134.651 32.3329L134.656 29.8537L137.326 29.858L137.321 32.3372L134.651 32.3329ZM134.656 29.8537L134.66 27.311L137.33 27.3152L137.326 29.858L134.656 29.8537ZM134.66 27.311L134.665 24.7809L137.335 24.7852L137.33 27.3152L134.66 27.311ZM134.665 24.7809L134.669 22.2382L137.339 22.2424L137.335 24.7852L134.665 24.7809ZM134.665 22.2382L134.669 19.7081L137.339 19.7123L137.335 22.2424L134.665 22.2382ZM134.669 19.7081L134.674 17.1653L137.343 17.1696L137.339 19.7123L134.669 19.7081ZM134.674 17.1653L134.678 14.6226L137.348 14.6268L137.343 17.1696L134.674 17.1653ZM134.678 14.6226L134.683 12.1434L137.352 12.1476L137.348 14.6268L134.678 14.6226ZM134.678 12.1434L134.683 9.60062L137.352 9.60485L137.348 12.1476L134.678 12.1434ZM139.982 32.3414L139.978 34.846L137.321 34.8418L137.326 32.3372L139.982 32.3414ZM137.321 32.3372L137.326 29.858L139.982 29.8622V32.3414L137.321 32.3372ZM137.348 12.1434L137.352 9.60062L140.009 9.60485L140.004 12.1476L137.348 12.1434ZM142.652 32.3414L142.648 34.846L139.978 34.8418L139.982 32.3372L142.652 32.3414ZM139.982 32.3414L139.987 29.8622L142.656 29.8664L142.652 32.3414H139.982ZM140.004 12.1476L140.009 9.60485L142.679 9.60909L142.674 12.1519L140.004 12.1476ZM145.255 32.3456L145.251 34.8503L142.648 34.846L142.652 32.3414L145.255 32.3456ZM142.652 32.3414L142.656 29.8622L145.26 29.8664L145.255 32.3456L142.652 32.3414ZM142.652 29.8622L142.656 27.3194L145.26 27.3237L145.255 29.8664L142.652 29.8622ZM142.656 27.3194L142.661 24.7894L145.264 24.7936L145.26 27.3237L142.656 27.3194ZM142.661 24.7894L142.665 22.2466L145.268 22.2509L145.264 24.7936L142.661 24.7894ZM142.665 22.2466L142.67 19.7166L145.273 19.7208L145.268 22.2509L142.665 22.2466ZM142.665 19.7166L142.67 17.1738L145.273 17.1781L145.268 19.7208L142.665 19.7166ZM142.67 17.1738L142.674 14.6311L145.277 14.6353L145.273 17.1781L142.67 17.1738ZM142.674 14.6311L142.679 12.1519L145.282 12.1561L145.277 14.6353L142.674 14.6311ZM142.674 12.1519L142.679 9.60909L145.282 9.61333L145.277 12.1561L142.674 12.1519ZM147.925 32.3499L147.92 34.8545L145.251 34.8503L145.255 32.3456L147.925 32.3499ZM145.255 32.3456L145.26 29.8664L147.929 29.8707L147.925 32.3499L145.255 32.3456ZM145.255 29.8664L145.26 27.3237L147.929 27.3279L147.925 29.8707L145.255 29.8664ZM145.26 27.3237L145.264 24.7936L147.934 24.7979L147.929 27.3279L145.26 27.3237ZM145.264 24.7936L145.268 22.2509L147.938 22.2551L147.934 24.7979L145.264 24.7936ZM145.268 22.2509L145.273 19.7208L147.943 19.7251L147.938 22.2551L145.268 22.2509ZM145.268 19.7208L145.273 17.1781L147.943 17.1823L147.938 19.7251L145.268 19.7208ZM145.273 17.1781L145.277 14.6353L147.947 14.6395L147.943 17.1823L145.273 17.1781ZM145.277 14.6353L145.282 12.1561L147.952 12.1603L147.947 14.6395L145.277 14.6353Z" fill="white"/>
    <path d="M145.272 17.178L145.277 14.6353L147.947 14.6395L147.942 17.1823L145.272 17.178ZM145.277 14.6353L145.281 12.1561L147.951 12.1603L147.947 14.6395L145.277 14.6353ZM145.281 12.1561L145.286 9.61333L147.956 9.61756L147.951 12.1603L145.281 12.1561ZM147.942 17.1823L147.947 14.6395L150.603 14.6438L150.599 17.1865L147.942 17.1823ZM147.951 12.1561L147.956 9.61333L150.612 9.61756L150.608 12.1603L147.951 12.1561ZM150.581 32.3541L150.585 29.8749L153.255 29.8791L153.251 32.3583L150.581 32.3541ZM150.585 29.8707L150.59 27.3279L153.26 27.3321L153.255 29.8749L150.585 29.8707ZM150.585 27.3279L150.59 24.7979L153.26 24.8021L153.255 27.3321L150.585 27.3279ZM150.59 24.7979L150.594 22.2551L153.264 22.2593L153.26 24.8021L150.59 24.7979ZM150.594 22.2551L150.599 19.725L153.269 19.7293L153.264 22.2593L150.594 22.2551ZM150.594 19.725L150.599 17.1823L153.269 17.1865L153.264 19.7293L150.594 19.725ZM150.599 17.1823L150.603 14.6395L153.273 14.6438L153.269 17.1865L150.599 17.1823ZM150.608 12.1603L150.612 9.61756L153.282 9.6218L153.278 12.1646L150.608 12.1603ZM155.854 32.3583L155.849 34.863L153.246 34.8587L153.251 32.3541L155.854 32.3583ZM153.251 32.3541L153.255 29.8749L155.858 29.8791L155.854 32.3583L153.251 32.3541ZM153.278 12.1646L153.282 9.6218L155.885 9.62604L155.881 12.1688L153.278 12.1646ZM158.524 32.3626L158.519 34.8672L155.849 34.863L155.854 32.3583L158.524 32.3626ZM155.854 32.3583L155.858 29.8791L158.528 29.8834L158.524 32.3626L155.854 32.3583ZM155.881 12.1688L155.885 9.62604L158.555 9.63028L158.55 12.173L155.881 12.1688ZM161.194 32.3668L161.189 34.8714L158.519 34.8672L158.524 32.3626L161.194 32.3668ZM158.524 32.3626L158.528 29.8834L161.198 29.8876L161.194 32.3668L158.524 32.3626ZM158.528 29.8834L158.533 27.3406L161.202 27.3449L161.198 29.8876L158.528 29.8834ZM158.528 27.3406L158.533 24.8106L161.202 24.8148L161.198 27.3449L158.528 27.3406ZM158.533 24.8106L158.537 22.2678L161.207 22.272L161.202 24.8148L158.533 24.8106ZM158.537 22.2678L158.542 19.7378L161.211 19.742L161.207 22.272L158.537 22.2678ZM158.542 19.7335L158.546 17.1908L161.216 17.195L161.211 19.7378L158.542 19.7335ZM158.542 17.1908L158.546 14.648L161.216 14.6522L161.211 17.195L158.542 17.1908ZM158.55 12.1688L158.555 9.62604L161.225 9.63028L161.22 12.173L158.55 12.1688ZM163.85 32.3668L163.846 34.8714L161.189 34.8672L161.194 32.3626L163.85 32.3668ZM161.194 32.3668L161.198 29.8876L163.855 29.8919L163.85 32.3711L161.194 32.3668ZM161.198 29.8834L161.202 27.3406L163.859 27.3449L163.855 29.8876L161.198 29.8834ZM161.198 27.3406L161.202 24.8106L163.859 24.8148L163.855 27.3449L161.198 27.3406ZM161.202 24.8106L161.207 22.2678L163.863 22.272L163.859 24.8148L161.202 24.8106ZM161.207 22.2678L161.211 19.7378L163.868 19.742L163.863 22.272L161.207 22.2678ZM161.211 19.7378L161.216 17.195L163.872 17.1992L163.868 19.742L161.211 19.7378ZM161.211 17.195L161.216 14.6522L163.872 14.6565L163.868 17.1992L161.211 17.195ZM161.22 12.173L161.225 9.63028L163.881 9.63452L163.877 12.1773L161.22 12.173ZM163.868 19.742L163.872 17.1992L166.542 17.2035L166.538 19.7462L163.868 19.742ZM163.868 17.1992L163.872 14.6565L166.542 14.6607L166.538 17.2035L163.868 17.1992ZM163.872 14.6565L163.877 12.1773L166.547 12.1815L166.542 14.6607L163.872 14.6565ZM163.877 12.1773L163.881 9.63452L166.551 9.63875L166.547 12.1815L163.877 12.1773ZM166.538 19.7462L166.542 17.2035L169.199 17.2077L169.194 19.7505L166.538 19.7462ZM166.538 17.2035L166.542 14.6607L169.199 14.6649L169.194 17.2077L166.538 17.2035ZM166.542 14.6607L166.547 12.1815L169.203 12.1858L169.199 14.6649L166.542 14.6607Z" fill="white"/>
    </g>
    <defs>
    <clipPath id="clip0">
    <rect width="154.165" height="25.4149" fill="white" transform="translate(14.6455 9.00362)"/>
    </clipPath>
    </defs>
</svg>
