<svg width="184" height="51" viewBox="0 0 184 51" fill="none" xmlns="http://www.w3.org/2000/svg">
    <path fill-rule="evenodd" clip-rule="evenodd" d="M176.873 41.47V41.4627L180.203 41.469V41.4763L176.873 41.47ZM176.873 50.0035L180.19 50.0098L180.196 45.7249V45.7176L183.962 45.7249L183.968 41.4763L183.974 37.1188L183.981 32.7831L183.987 28.4255H183.981L183.987 24.0898L183.994 19.7323L184 15.3748L180.235 15.3675H180.228L180.235 11.1189L176.873 11.1126V6.71785H149.656H7.77468V6.7252L3.94658 6.71805L3.94007 11.0756L0.0325646 11.0683L0.0260457 15.3169L0.0195368 19.6744H0.0260457L0.0195368 24.0319L0.0130278 28.3676L0.00650894 32.7324L0 37.0682H0.00650894L0 41.4257L3.90751 41.4329L3.90099 45.6742L7.77468 45.6815V50.0098H31.0035L31.1103 50.01V50.0098H34.892L34.9983 50.01V50.0098L176.367 50.0098L176.873 50.0098V50.0035ZM3.88736 37.0682H0.00650894L3.88736 37.0754V37.0682ZM180.209 32.7758H180.215L180.222 28.4183H180.215L180.209 32.7758Z" fill="#272727"/>
    <path fill-rule="evenodd" clip-rule="evenodd" d="M0 34.9975L0.00650895 30.64L3.88756 30.6472V30.64H0.00650895H0L0.00650895 26.3042L0.0130278 21.9394L0.0195368 17.6037L0.0260457 13.2462H0.0195368L0.0260457 8.88869L0.0325646 4.64011L3.94008 4.64737L3.94659 0.289856L7.77489 0.297007V0.289856H149.656H176.874V4.68456L180.235 4.69095L180.228 8.93953H180.235L184 8.94679L183.994 13.3043L183.987 17.6618L183.981 21.9975H183.987L183.981 26.3551L183.975 30.6908L183.968 35.0483L183.962 39.2969L180.196 39.2896V39.2969L180.19 43.5818L176.874 43.5755V43.5818H176.367H34.9983H31.1103H7.77489V39.2533L3.901 39.246L3.90751 35.0047L0 34.9975ZM176.874 35.042L180.203 35.0483V35.041L176.874 35.0347V35.042ZM180.209 26.3478H180.215L180.222 21.9903H180.215L180.209 26.3478Z" fill="#565656"/>
    <g clip-path="url(#clip0)">
    <path d="M15.0383 32.1888L15.0428 29.7096L17.7126 29.7139L17.7082 32.1931L15.0383 32.1888ZM15.0428 29.7096L15.0472 27.1669L17.7171 27.1711L17.7126 29.7139L15.0428 29.7096ZM15.0428 27.1669L15.0472 24.6368L17.7171 24.6411L17.7126 27.1711L15.0428 27.1669ZM15.0472 24.6368L15.0517 22.0941L17.7215 22.0983L17.7171 24.6411L15.0472 24.6368ZM15.0517 22.0941L15.0561 19.564L17.726 19.5682L17.7215 22.0983L15.0517 22.0941ZM15.0561 19.564L15.0606 17.0212L17.7304 17.0255L17.726 19.5682L15.0561 19.564ZM15.0561 17.0212L15.0606 14.4785L17.7304 14.4827L17.726 17.0255L15.0561 17.0212ZM15.0606 14.4785L15.065 11.9993L17.7349 12.0035L17.7304 14.4827L15.0606 14.4785ZM15.065 11.9993L15.0695 9.45653L17.7393 9.46077L17.7349 12.0035L15.065 11.9993ZM20.3647 32.1973L20.3602 34.7019L17.7037 34.6977L17.7082 32.1931L20.3647 32.1973ZM17.7082 32.1931L17.7126 29.7139L20.3691 29.7181L20.3647 32.1973L17.7082 32.1931ZM17.7349 12.0035L17.7393 9.46077L20.3958 9.465L20.3914 12.0078L17.7349 12.0035ZM23.0345 32.2015L23.03 34.7062L20.3602 34.7019L20.3647 32.1973L23.0345 32.2015ZM20.3647 32.1973L20.3691 29.7181L23.0389 29.7223L23.0345 32.2015L20.3647 32.1973ZM20.3914 12.0078L20.3958 9.465L23.0656 9.46924L23.0612 12.012L20.3914 12.0078ZM25.6376 32.2015L25.6331 34.7062L23.03 34.7019L23.0345 32.1973L25.6376 32.2015ZM23.0345 32.2015L23.0389 29.7223L25.642 29.7266L25.6376 32.2058L23.0345 32.2015ZM23.0434 27.1796L23.0478 24.6495L25.6509 24.6538L25.6465 27.1838L23.0434 27.1796ZM23.0434 24.6453L23.0478 22.1025L25.6509 22.1068L25.6465 24.6495L23.0434 24.6453ZM23.0478 22.1025L23.0523 19.5725L25.6554 19.5767L25.6509 22.1068L23.0478 22.1025ZM23.0523 19.5725L23.0567 17.0297L25.6598 17.034L25.6554 19.5767L23.0523 19.5725ZM23.0567 17.0297L23.0612 14.487L25.6643 14.4912L25.6598 17.034L23.0567 17.0297ZM23.0612 12.0078L23.0656 9.465L25.6687 9.46924L25.6643 12.012L23.0612 12.0078ZM28.3074 32.2058L28.303 34.7104L25.6331 34.7062L25.6376 32.2015L28.3074 32.2058ZM25.6376 32.2015L25.642 29.7223L28.3119 29.7266L28.3074 32.2058L25.6376 32.2015ZM25.6465 27.1796L25.6509 24.6495L28.3208 24.6538L28.3163 27.1838L25.6465 27.1796ZM25.6465 24.6495L25.6509 22.1068L28.3208 22.111L28.3163 24.6538L25.6465 24.6495ZM25.6509 22.1068L25.6554 19.5767L28.3252 19.581L28.3208 22.111L25.6509 22.1068ZM25.6554 19.5767L25.6598 17.034L28.3297 17.0382L28.3252 19.581L25.6554 19.5767ZM25.6598 17.034L25.6643 14.4912L28.3341 14.4954L28.3297 17.0382L25.6598 17.034ZM25.6643 12.012L25.6687 9.46924L28.3386 9.47348L28.3341 12.0162L25.6643 12.012ZM30.9773 32.21L30.9728 34.7146L28.303 34.7104L28.3074 32.2058L30.9773 32.21ZM28.3074 32.2058L28.3119 29.7266L30.9817 29.7308L30.9773 32.21L28.3074 32.2058ZM28.3163 24.6538L28.3208 22.111L30.9906 22.1153L30.9862 24.658L28.3163 24.6538ZM28.3208 22.111L28.3252 19.581L30.9951 19.5852L30.9906 22.1153L28.3208 22.111ZM28.3252 19.581L28.3297 17.0382L30.9995 17.0424L30.9951 19.5852L28.3252 19.581ZM28.3341 12.0162L28.3386 9.47348L31.0084 9.47772L31.004 12.0205L28.3341 12.0162ZM33.6337 32.2143L33.6293 34.7189L30.9728 34.7146L30.9773 32.21L33.6337 32.2143ZM30.9773 32.21L30.9817 29.7308L33.6382 29.7351L33.6337 32.2143L30.9773 32.21ZM30.9817 29.7308L30.9862 27.1881L33.6426 27.1923L33.6382 29.7351L30.9817 29.7308ZM31.004 14.4997L31.0084 12.0205L33.6649 12.0247L33.6604 14.5039L31.004 14.4997ZM31.004 12.0162L31.0084 9.47348L33.6649 9.47772L33.6604 12.0205L31.004 12.0162ZM36.3036 32.2185L36.2991 34.7231L33.6293 34.7189L33.6337 32.2143L36.3036 32.2185ZM33.6337 32.2143L33.6382 29.7351L36.308 29.7393L36.3036 32.2185L33.6337 32.2143ZM33.6382 29.7351L33.6426 27.1923L36.3125 27.1965L36.308 29.7393L33.6382 29.7351ZM33.6426 27.1923L33.6471 24.6623L36.3169 24.6665L36.3125 27.1965L33.6426 27.1923ZM33.656 17.0424L33.6604 14.4997L36.3303 14.5039L36.3258 17.0467L33.656 17.0424ZM33.6604 14.4997L33.6649 12.0205L36.3347 12.0247L36.3303 14.5039L33.6604 14.4997ZM36.3036 32.2185L36.308 29.7393L38.9645 29.7435L38.9601 32.2227L36.3036 32.2185ZM36.308 29.7351L36.3125 27.1923L38.969 27.1965L38.9645 29.7393L36.308 29.7351ZM36.3125 27.1923L36.3169 24.6623L38.9734 24.6665L38.969 27.1965L36.3125 27.1923ZM36.3169 24.6623L36.3214 22.1195L38.9779 22.1237L38.9734 24.6665L36.3169 24.6623ZM36.3169 22.1195L36.3214 19.5894L38.9779 19.5937L38.9734 22.1237L36.3169 22.1195ZM36.3214 19.5894L36.3258 17.0467L38.9823 17.0509L38.9779 19.5937L36.3214 19.5894ZM36.3258 17.0467L36.3303 14.5039L38.9868 14.5082L38.9823 17.0509L36.3258 17.0467ZM38.9645 29.7393L38.969 27.1965L41.5854 27.2008L41.5809 29.7435L38.9645 29.7393ZM38.969 27.1965L38.9734 24.6665L41.5898 24.6707L41.5854 27.2008L38.969 27.1965ZM38.9734 24.6665L38.9779 22.1237L41.5943 22.128L41.5898 24.6707L38.9734 24.6665ZM38.9734 22.1237L38.9779 19.5937L41.5943 19.5979L41.5898 22.128L38.9734 22.1237ZM38.9779 19.5937L38.9823 17.0509L41.5987 17.0552L41.5943 19.5979L38.9779 19.5937Z" fill="white"/>
    <path d="M38.9601 32.2185L38.9645 29.7393L41.6344 29.7436L41.6299 32.2227L38.9601 32.2185ZM38.9645 29.7393L38.969 27.1966L41.6388 27.2008L41.6344 29.7436L38.9645 29.7393ZM38.969 27.1966L38.9734 24.6665L41.6433 24.6707L41.6388 27.2008L38.969 27.1966ZM38.9734 24.6665L38.9779 22.1237L41.6477 22.128L41.6433 24.6707L38.9734 24.6665ZM38.9734 22.1237L38.9779 19.5937L41.6477 19.5979L41.6433 22.128L38.9734 22.1237ZM38.9779 19.5937L38.9823 17.0509L41.6522 17.0552L41.6477 19.5979L38.9779 19.5937ZM38.9823 17.0509L38.9868 14.5082L41.6566 14.5124L41.6522 17.0552L38.9823 17.0509ZM38.9868 14.5082L38.9912 12.029L41.6611 12.0332L41.6566 14.5124L38.9868 14.5082ZM38.9868 12.029L38.9912 9.48621L41.6611 9.49044L41.6566 12.0332L38.9868 12.029ZM44.2864 32.227L44.282 34.7316L41.6255 34.7274L41.6299 32.2227L44.2864 32.227ZM41.6299 32.2227L41.6344 29.7436L44.2909 29.7478L44.2864 32.227L41.6299 32.2227ZM41.6566 12.0332L41.6611 9.49044L44.3176 9.49468L44.3131 12.0374L41.6566 12.0332ZM46.9562 32.227L46.9518 34.7316L44.282 34.7274L44.2864 32.2227L46.9562 32.227ZM44.2864 32.227L44.2909 29.7478L46.9607 29.752L46.9562 32.2312L44.2864 32.227ZM44.3131 12.0332L44.3176 9.49044L46.9874 9.49468L46.9829 12.0374L44.3131 12.0332ZM49.5593 32.2312L49.5549 34.7358L46.9518 34.7316L46.9562 32.227L49.5593 32.2312ZM46.9562 32.227L46.9607 29.7478L49.5638 29.752L49.5593 32.2312L46.9562 32.227ZM46.9651 27.205L46.9696 24.675L49.5727 24.6792L49.5682 27.2093L46.9651 27.205ZM46.9696 24.675L46.974 22.1322L49.5771 22.1365L49.5727 24.6792L46.9696 24.675ZM46.974 19.6022L46.9785 17.0594L49.5816 17.0636L49.5771 19.6064L46.974 19.6022ZM46.9785 17.0594L46.9829 14.5166L49.586 14.5209L49.5816 17.0636L46.9785 17.0594ZM46.9829 12.0374L46.9874 9.49468L49.5905 9.49892L49.586 12.0417L46.9829 12.0374ZM52.2292 32.2355L52.2247 34.7401L49.5549 34.7358L49.5593 32.2312L52.2292 32.2355ZM49.5593 32.2312L49.5638 29.752L52.2336 29.7563L52.2292 32.2355L49.5593 32.2312ZM49.5682 27.2093L49.5727 24.6792L52.2425 24.6835L52.2381 27.2135L49.5682 27.2093ZM49.5727 24.6792L49.5771 22.1365L52.247 22.1407L52.2425 24.6835L49.5727 24.6792ZM49.5771 19.6064L49.5816 17.0636L52.2514 17.0679L52.247 19.6106L49.5771 19.6064ZM49.5816 17.0636L49.586 14.5209L52.2559 14.5251L52.2514 17.0679L49.5816 17.0636ZM49.586 12.0417L49.5905 9.49892L52.2603 9.50316L52.2559 12.0459L49.586 12.0417ZM54.899 32.2397L54.8946 34.7443L52.2247 34.7401L52.2292 32.2355L54.899 32.2397ZM52.2292 32.2355L52.2336 29.7563L54.9035 29.7605L54.899 32.2397L52.2292 32.2355ZM52.2381 27.2135L52.2425 24.6835L54.9124 24.6877L54.9079 27.2177L52.2381 27.2135ZM52.2425 24.6835L52.247 22.1407L54.9168 22.1449L54.9124 24.6877L52.2425 24.6835ZM52.247 19.6106L52.2514 17.0679L54.9213 17.0721L54.9168 19.6149L52.247 19.6106ZM52.2514 17.0679L52.2559 14.5251L54.9257 14.5294L54.9213 17.0721L52.2514 17.0679ZM52.2559 12.0417L52.2603 9.49892L54.9302 9.50316L54.9257 12.0459L52.2559 12.0417ZM57.5599 32.2397L57.5555 34.7443L54.899 34.7401L54.9035 32.2355L57.5599 32.2397ZM54.899 32.2397L54.9035 29.7605L57.5599 29.7647L57.5555 32.2439L54.899 32.2397ZM54.9079 27.2177L54.9124 24.6877L57.5688 24.6919L57.5644 27.222L54.9079 27.2177ZM54.9124 24.6835L54.9168 22.1407L57.5733 22.1449L57.5688 24.6877L54.9124 24.6835ZM54.9168 19.6106L54.9213 17.0679L57.5777 17.0721L57.5733 19.6149L54.9168 19.6106ZM54.9213 17.0679L54.9257 14.5251L57.5822 14.5294L57.5777 17.0721L54.9213 17.0679ZM54.9257 12.0459L54.9302 9.50316L57.5866 9.5074L57.5822 12.0502L54.9257 12.0459ZM60.2298 32.2439L60.2253 34.7486L57.5555 34.7443L57.5599 32.2397L60.2298 32.2439ZM57.5599 32.2397L57.5644 29.7605L60.2342 29.7647L60.2298 32.2439L57.5599 32.2397ZM57.5644 27.2177L57.5688 24.6877L60.2387 24.6919L60.2342 27.222L57.5644 27.2177ZM57.5688 24.6877L57.5733 22.1449L60.2431 22.1492L60.2387 24.6919L57.5688 24.6877ZM57.5733 22.1449L57.5777 19.6149L60.2476 19.6191L60.2431 22.1492L57.5733 22.1449ZM57.5733 19.6149L57.5777 17.0721L60.2476 17.0764L60.2431 19.6191L57.5733 19.6149ZM57.5777 17.0721L57.5822 14.5294L60.252 14.5336L60.2476 17.0764L57.5777 17.0721ZM57.5866 12.0502L57.5911 9.5074L60.2609 9.51163L60.2565 12.0544L57.5866 12.0502ZM62.8863 32.2482L62.8818 34.7528L60.2253 34.7486L60.2298 32.2439L62.8863 32.2482ZM60.2298 32.2439L60.2342 29.7647L62.8907 29.769L62.8863 32.2482L60.2298 32.2439ZM60.2298 29.7647L60.2342 27.222L62.8907 27.2262L62.8863 29.769L60.2298 29.7647ZM60.2342 27.222L60.2387 24.6919L62.8952 24.6962L62.8907 27.2262L60.2342 27.222ZM60.2387 24.6919L60.2431 22.1492L62.8996 22.1534L62.8952 24.6962L60.2387 24.6919ZM60.2431 22.1492L60.2476 19.6191L62.9041 19.6234L62.8996 22.1534L60.2431 22.1492ZM60.2431 19.6191L60.2476 17.0764L62.9041 17.0806L62.8996 19.6234L60.2431 19.6191ZM60.2476 17.0764L60.252 14.5336L62.9085 14.5378L62.9041 17.0806L60.2476 17.0764ZM60.252 14.5336L60.2565 12.0544L62.913 12.0586L62.9085 14.5378L60.252 14.5336ZM60.2565 12.0544L60.2609 9.51163L62.9174 9.51587L62.913 12.0586L60.2565 12.0544ZM65.5027 32.2524L65.4983 34.757L62.8818 34.7528L62.8863 32.2482L65.5027 32.2524ZM62.8863 32.2482L62.8907 29.769L65.5072 29.7732L65.5027 32.2524L62.8863 32.2482ZM62.8863 29.769L62.8907 27.2262L65.5072 27.2305L65.5027 29.7732L62.8863 29.769ZM62.8996 19.6234L62.9041 17.0806L65.5205 17.0848L65.5161 19.6276L62.8996 19.6234ZM62.9041 17.0806L62.9085 14.5378L65.525 14.5421L65.5205 17.0848L62.9041 17.0806ZM62.9085 14.5378L62.913 12.0586L65.5294 12.0629L65.525 14.5421L62.9085 14.5378Z" fill="white"/>
    <path d="M62.8863 32.2481L62.8907 29.769L65.5606 29.7732L65.5561 32.2524L62.8863 32.2481ZM62.8863 29.769L62.8907 27.2262L65.5606 27.2304L65.5561 29.7732L62.8863 29.769ZM62.8907 27.2262L62.8952 24.6961L65.565 24.7004L65.5606 27.2304L62.8907 27.2262ZM62.8952 24.6961L62.8996 22.1534L65.5695 22.1576L65.565 24.7004L62.8952 24.6961ZM62.8996 22.1534L62.9041 19.6233L65.5739 19.6276L65.5695 22.1576L62.8996 22.1534ZM62.8996 19.6233L62.9041 17.0806L65.5739 17.0848L65.5695 19.6276L62.8996 19.6233ZM62.9041 17.0806L62.9085 14.5378L65.5784 14.542L65.5739 17.0848L62.9041 17.0806ZM62.9085 14.5378L62.913 12.0586L65.5828 12.0629L65.5784 14.542L62.9085 14.5378ZM62.913 12.0544L62.9174 9.51161L65.5873 9.51585L65.5828 12.0586L62.913 12.0544ZM68.2126 32.2524L68.2082 34.757L65.5517 34.7528L65.5561 32.2481L68.2126 32.2524ZM65.5561 32.2524L65.5606 29.7732L68.2171 29.7774L68.2126 32.2566L65.5561 32.2524ZM65.5828 12.0586L65.5873 9.51585L68.2438 9.52009L68.2393 12.0629L65.5828 12.0586ZM70.8825 32.2566L70.878 34.7612L68.2082 34.757L68.2126 32.2524L70.8825 32.2566ZM68.2126 32.2524L68.2171 29.7732L70.8869 29.7774L70.8825 32.2566L68.2126 32.2524ZM68.2393 12.0629L68.2438 9.52009L70.9136 9.52433L70.9091 12.0671L68.2393 12.0629ZM73.4855 32.2609L73.4811 34.7655L70.878 34.7612L70.8825 32.2566L73.4855 32.2609ZM70.8825 32.2566L70.8869 29.7774L73.49 29.7817L73.4855 32.2609L70.8825 32.2566ZM70.8825 29.7774L70.8869 27.2347L73.49 27.2389L73.4855 29.7817L70.8825 29.7774ZM70.8869 27.2347L70.8913 24.7046L73.4944 24.7089L73.49 27.2389L70.8869 27.2347ZM70.8958 22.1619L70.9003 19.6318L73.5033 19.636L73.4989 22.1661L70.8958 22.1619ZM70.8958 19.6318L70.9003 17.089L73.5033 17.0933L73.4989 19.636L70.8958 19.6318ZM70.9003 17.089L70.9047 14.5463L73.5078 14.5505L73.5033 17.0933L70.9003 17.089ZM70.9091 12.0671L70.9136 9.52433L73.5167 9.52856L73.5122 12.0713L70.9091 12.0671ZM76.1554 32.2651L76.1509 34.7697L73.4811 34.7655L73.4855 32.2609L76.1554 32.2651ZM73.4855 32.2609L73.49 29.7817L76.1598 29.7859L76.1554 32.2651L73.4855 32.2609ZM73.49 29.7817L73.4944 27.2389L76.1643 27.2431L76.1598 29.7859L73.49 29.7817ZM73.49 27.2389L73.4944 24.7089L76.1643 24.7131L76.1598 27.2431L73.49 27.2389ZM73.4989 22.1661L73.5033 19.636L76.1732 19.6403L76.1687 22.1703L73.4989 22.1661ZM73.5033 19.636L73.5078 17.0933L76.1776 17.0975L76.1732 19.6403L73.5033 19.636ZM73.5033 17.0933L73.5078 14.5505L76.1776 14.5548L76.1732 17.0975L73.5033 17.0933ZM73.5122 12.0713L73.5167 9.52856L76.1865 9.5328L76.1821 12.0756L73.5122 12.0713ZM76.1598 29.7817L76.1643 27.2389L78.8341 27.2431L78.8297 29.7859L76.1598 29.7817ZM76.1598 27.2389L76.1643 24.7089L78.8341 24.7131L78.8297 27.2431L76.1598 27.2389ZM76.1687 22.1661L76.1732 19.636L78.843 19.6403L78.8386 22.1703L76.1687 22.1661ZM76.1732 19.636L76.1776 17.0933L78.8475 17.0975L78.843 19.6403L76.1732 19.636ZM76.1732 17.0933L76.1776 14.5505L78.8475 14.5548L78.843 17.0975L76.1732 17.0933ZM76.1821 12.0713L76.1865 9.52856L78.8564 9.5328L78.8519 12.0756L76.1821 12.0713ZM78.8297 29.7859L78.8341 27.2431L81.4906 27.2474L81.4862 29.7901L78.8297 29.7859ZM78.8297 27.2431L78.8341 24.7131L81.4906 24.7173L81.4862 27.2474L78.8297 27.2431ZM78.8519 12.0756L78.8564 9.5328L81.5128 9.53704L81.5084 12.0798L78.8519 12.0756ZM81.4862 29.7901L81.4906 27.2474L84.1604 27.2516L84.156 29.7944L81.4862 29.7901ZM81.4862 27.2474L81.4906 24.7173L84.1604 24.7216L84.156 27.2516L81.4862 27.2474ZM81.4906 24.7173L81.4951 22.1746L84.1649 22.1788L84.1604 24.7216L81.4906 24.7173ZM81.5039 14.559L81.5084 12.0798L84.1782 12.084L84.1738 14.5632L81.5039 14.559ZM81.5084 12.0798L81.5128 9.53704L84.1827 9.54128L84.1782 12.084L81.5084 12.0798ZM84.156 29.7944L84.1604 27.2516L86.8125 27.2559L86.808 29.7986L84.156 29.7944ZM84.156 27.2516L84.1604 24.7216L86.8169 24.7258L86.8125 27.2559L84.156 27.2516ZM84.1604 24.7216L84.1649 22.1788L86.8214 22.183L86.8169 24.7258L84.1604 24.7216ZM84.1649 22.1788L84.1693 19.6488L86.8258 19.653L86.8214 22.183L84.1649 22.1788ZM84.1693 19.6488L84.1738 17.106L86.8303 17.1102L86.8258 19.653L84.1693 19.6488ZM84.1693 17.106L84.1738 14.5632L86.8303 14.5675L86.8258 17.1102L84.1693 17.106ZM84.1738 14.5632L84.1782 12.084L86.8347 12.0883L86.8303 14.5675L84.1738 14.5632ZM86.8125 27.2559L86.8169 24.7258L89.4334 24.73V27.2559H86.8125ZM86.8169 24.7216L86.8214 22.1788L89.4378 22.183L89.4334 24.7258L86.8169 24.7216ZM86.8214 22.1788L86.8258 19.6488L89.4423 19.653L89.4378 22.183L86.8214 22.1788ZM86.8258 19.6488L86.8303 17.106L89.4467 17.1102L89.4423 19.653L86.8258 19.6488ZM86.8258 17.106L86.8303 14.5632L89.4467 14.5675L89.4423 17.1102L86.8258 17.106Z" fill="white"/>
    <path d="M86.8124 29.7986L86.8169 27.2559L89.4867 27.2601L89.4822 29.8029L86.8124 29.7986ZM86.8124 27.2559L86.8169 24.7258L89.4867 24.7301L89.4822 27.2559H86.8124ZM86.8169 24.7216L86.8213 22.1788L89.4911 22.1831L89.4867 24.7258L86.8169 24.7216ZM86.8213 22.1788L86.8258 19.6488L89.4956 19.653L89.4911 22.1831L86.8213 22.1788ZM86.8258 19.6488L86.8302 17.106L89.5 17.1103L89.4956 19.653L86.8258 19.6488ZM86.8258 17.106L86.8302 14.5633L89.5 14.5675L89.4956 17.1103L86.8258 17.106ZM86.8302 14.5633L86.8347 12.0841L89.5045 12.0883L89.5 14.5675L86.8302 14.5633ZM89.4778 32.2778L89.4822 29.7986L92.1387 29.8029L92.1343 32.2821L89.4778 32.2778ZM89.4822 29.7986L89.4867 27.2559L92.1432 27.2601L92.1387 29.8029L89.4822 29.7986ZM89.5 14.5675L89.5045 12.0883L92.161 12.0925L92.1565 14.5717L89.5 14.5675ZM89.5045 12.0883L89.5089 9.54553L92.1654 9.54977L92.161 12.0925L89.5045 12.0883ZM94.8041 32.2863L94.7997 34.7909L92.1298 34.7867L92.1343 32.2821L94.8041 32.2863ZM92.1343 32.2821L92.1387 29.8029L94.8086 29.8071L94.8041 32.2863L92.1343 32.2821ZM92.161 12.0925L92.1654 9.54977L94.8353 9.55401L94.8308 12.0968L92.161 12.0925ZM97.4072 32.2905L97.4028 34.7952L94.7997 34.7909L94.8041 32.2863L97.4072 32.2905ZM94.8041 32.2863L94.8086 29.8071L97.4117 29.8113L97.4072 32.2905L94.8041 32.2863ZM94.8086 27.2644L94.813 24.7343L97.4161 24.7385L97.4117 27.2686L94.8086 27.2644ZM94.813 24.7343L94.8175 22.1915L97.4206 22.1958L97.4161 24.7385L94.813 24.7343ZM94.8175 22.1915L94.8219 19.6615L97.425 19.6657L97.4206 22.1958L94.8175 22.1915ZM94.8219 19.6615L94.8264 17.1187L97.4295 17.123L97.425 19.6657L94.8219 19.6615ZM94.8219 17.1187L94.8264 14.576L97.4295 14.5802L97.425 17.123L94.8219 17.1187ZM94.8308 12.0925L94.8353 9.54977L97.4384 9.55401L97.4339 12.0968L94.8308 12.0925ZM100.077 32.2905L100.073 34.7952L97.4028 34.7909L97.4072 32.2863L100.077 32.2905ZM97.4072 32.2905L97.4117 29.8113L100.081 29.8156L100.077 32.2948L97.4072 32.2905ZM97.4161 27.2644L97.4206 24.7343L100.09 24.7385L100.086 27.2686L97.4161 27.2644ZM97.4161 24.7343L97.4206 22.1915L100.09 22.1958L100.086 24.7385L97.4161 24.7343ZM97.4206 22.1915L97.425 19.6615L100.095 19.6657L100.09 22.1958L97.4206 22.1915ZM97.425 19.6615L97.4295 17.1187L100.099 17.123L100.095 19.6657L97.425 19.6615ZM97.4295 17.1187L97.4339 14.576L100.104 14.5802L100.099 17.123L97.4295 17.1187ZM97.4339 12.0968L97.4384 9.55401L100.108 9.55825L100.104 12.101L97.4339 12.0968ZM102.747 32.2948L102.742 34.7994L100.073 34.7952L100.077 32.2905L102.747 32.2948ZM100.077 32.2905L100.081 29.8113L102.751 29.8156L102.747 32.2948L100.077 32.2905ZM100.086 27.2686L100.09 24.7385L102.76 24.7428L102.756 27.2728L100.086 27.2686ZM100.086 24.7385L100.09 22.1958L102.76 22.2L102.756 24.7428L100.086 24.7385ZM100.09 22.1958L100.095 19.6657L102.765 19.67L102.76 22.2L100.09 22.1958ZM100.095 19.6657L100.099 17.123L102.769 17.1272L102.765 19.67L100.095 19.6657ZM100.099 17.123L100.104 14.5802L102.774 14.5844L102.769 17.1272L100.099 17.123ZM100.104 12.101L100.108 9.55825L102.778 9.56248L102.774 12.1052L100.104 12.101ZM105.403 32.299L105.399 34.8036L102.742 34.7994L102.747 32.2948L105.403 32.299ZM102.747 32.2948L102.751 29.8156L105.408 29.8198L105.403 32.299L102.747 32.2948ZM102.774 12.1052L102.778 9.56248L105.435 9.56672L105.43 12.1095L102.774 12.1052ZM108.073 32.3033L108.069 34.8079L105.399 34.8036L105.403 32.299L108.073 32.3033ZM105.403 32.299L105.408 29.8198L108.078 29.8241L108.073 32.3033L105.403 32.299ZM105.408 29.8198L105.412 27.2771L108.082 27.2813L108.078 29.8241L105.408 29.8198ZM105.426 14.5887L105.43 12.1095L108.1 12.1137L108.095 14.5929L105.426 14.5887ZM105.43 12.1052L105.435 9.56248L108.104 9.56672L108.1 12.1095L105.43 12.1052ZM110.73 32.3033L110.725 34.8079L108.069 34.8036L108.073 32.299L110.73 32.3033ZM108.073 32.3033L108.078 29.8241L110.734 29.8283L110.73 32.3075L108.073 32.3033ZM108.078 29.8198L108.082 27.2771L110.739 27.2813L110.734 29.8241L108.078 29.8198ZM108.082 27.2771L108.087 24.747L110.743 24.7513L110.739 27.2813L108.082 27.2771ZM108.082 24.747L108.087 22.2043L110.743 22.2085L110.739 24.7513L108.082 24.747ZM108.087 22.2043L108.091 19.6742L110.747 19.6784L110.743 22.2085L108.087 22.2043ZM108.091 19.6742L108.095 17.1314L110.752 17.1357L110.747 19.6784L108.091 19.6742ZM108.095 17.1314L108.1 14.5887L110.756 14.5929L110.752 17.1357L108.095 17.1314ZM108.095 14.5887L108.1 12.1095L110.756 12.1137L110.752 14.5929L108.095 14.5887ZM110.73 32.3033L110.734 29.8241L113.351 29.8283L113.346 32.3075L110.73 32.3033ZM110.734 29.8241L110.739 27.2813L113.355 27.2855L113.351 29.8283L110.734 29.8241ZM110.739 27.2813L110.743 24.7513L113.359 24.7555L113.355 27.2855L110.739 27.2813ZM110.743 24.7513L110.747 22.2085L113.364 22.2127L113.359 24.7555L110.743 24.7513ZM110.743 22.2085L110.747 19.6784L113.364 19.6827L113.359 22.2127L110.743 22.2085ZM110.747 19.6784L110.752 17.1357L113.368 17.1399L113.364 19.6827L110.747 19.6784ZM110.752 17.1357L110.756 14.5929L113.373 14.5972L113.368 17.1399L110.752 17.1357Z" fill="white"/>
    <path d="M110.734 29.8241L110.739 27.2813L113.408 27.2855L113.404 29.8283L110.734 29.8241ZM110.739 27.2813L110.743 24.7513L113.413 24.7555L113.408 27.2855L110.739 27.2813ZM110.743 24.7513L110.748 22.2085L113.417 22.2127L113.413 24.7555L110.743 24.7513ZM110.743 22.2085L110.748 19.6784L113.417 19.6827L113.413 22.2127L110.743 22.2085ZM110.748 19.6784L110.752 17.1357L113.422 17.1399L113.417 19.6827L110.748 19.6784ZM110.752 17.1357L110.756 14.5929L113.426 14.5972L113.422 17.1399L110.752 17.1357ZM110.756 14.5929L110.761 12.1137L113.431 12.118L113.426 14.5972L110.756 14.5929ZM113.4 32.3075L113.404 29.8283L116.06 29.8325L116.056 32.3117L113.4 32.3075ZM113.404 29.8283L113.408 27.2855L116.065 27.2898L116.06 29.8325L113.404 29.8283ZM113.413 24.7555L113.417 22.2127L116.074 22.217L116.069 24.7597L113.413 24.7555ZM113.413 22.2127L113.417 19.6827L116.074 19.6869L116.069 22.217L113.413 22.2127ZM113.426 14.5972L113.431 12.118L116.087 12.1222L116.083 14.6014L113.426 14.5972ZM113.426 12.118L113.431 9.5752L116.087 9.57943L116.083 12.1222L113.426 12.118ZM118.726 32.316L118.721 34.8206L116.052 34.8164L116.056 32.3117L118.726 32.316ZM116.056 32.3117L116.06 29.8325L118.73 29.8368L118.726 32.316L116.056 32.3117ZM116.069 24.7597L116.074 22.217L118.744 22.2212L118.739 24.764L116.069 24.7597ZM116.083 12.118L116.087 9.5752L118.757 9.57943L118.753 12.1222L116.083 12.118ZM121.333 32.316L121.329 34.8206L118.726 34.8164L118.73 32.3117L121.333 32.316ZM118.726 32.316L118.73 29.8368L121.333 29.841L121.329 32.3202L118.726 32.316ZM118.735 27.2898L118.739 24.7597L121.342 24.764L121.338 27.294L118.735 27.2898ZM118.739 24.7597L118.744 22.217L121.347 22.2212L121.342 24.764L118.739 24.7597ZM118.744 19.6869L118.748 17.1442L121.351 17.1484L121.347 19.6912L118.744 19.6869ZM118.748 17.1442L118.753 14.6014L121.356 14.6056L121.351 17.1484L118.748 17.1442ZM118.753 12.1222L118.757 9.57943L121.36 9.58367L121.356 12.1264L118.753 12.1222ZM124.003 32.3202L123.999 34.8248L121.329 34.8206L121.333 32.316L124.003 32.3202ZM121.333 32.316L121.338 29.8368L124.008 29.841L124.003 32.3202L121.333 32.316ZM121.338 27.294L121.342 24.764L124.012 24.7682L124.008 27.2983L121.338 27.294ZM121.342 24.764L121.347 22.2212L124.017 22.2254L124.012 24.7682L121.342 24.764ZM121.347 19.6912L121.351 17.1484L124.021 17.1526L124.017 19.6954L121.347 19.6912ZM121.351 17.1484L121.356 14.6056L124.025 14.6099L124.021 17.1526L121.351 17.1484ZM121.356 12.1264L121.36 9.58367L124.03 9.58791L124.025 12.1307L121.356 12.1264ZM126.673 32.3244L126.669 34.8291L123.999 34.8248L124.003 32.3202L126.673 32.3244ZM124.003 32.3202L124.008 29.841L126.678 29.8453L126.673 32.3244L124.003 32.3202ZM124.008 27.2983L124.012 24.7682L126.682 24.7724L126.678 27.3025L124.008 27.2983ZM124.012 24.7682L124.017 22.2254L126.686 22.2297L126.682 24.7724L124.012 24.7682ZM124.017 19.6954L124.021 17.1526L126.691 17.1569L126.686 19.6996L124.017 19.6954ZM124.021 17.1526L124.025 14.6099L126.695 14.6141L126.691 17.1569L124.021 17.1526ZM124.025 12.1307L124.03 9.58791L126.7 9.59215L126.695 12.1349L124.025 12.1307ZM129.33 32.3287L129.325 34.8333L126.669 34.8291L126.673 32.3244L129.33 32.3287ZM126.673 32.3244L126.678 29.8453L129.334 29.8495L129.33 32.3287L126.673 32.3244ZM126.686 19.6996L126.691 17.1569L129.347 17.1611L129.343 19.7039L126.686 19.6996ZM126.695 12.1307L126.7 9.58791L129.356 9.59215L129.352 12.1349L126.695 12.1307ZM131.999 32.3287L131.995 34.8333L129.325 34.8291L129.33 32.3244L131.999 32.3287ZM129.33 32.3287L129.334 29.8495L132.004 29.8537L131.999 32.3329L129.33 32.3287ZM129.33 29.8453L129.334 27.3025L132.004 27.3067L131.999 29.8495L129.33 29.8453ZM129.343 22.2297L129.347 19.6996L132.017 19.7039L132.013 22.2339L129.343 22.2297ZM129.343 19.6996L129.347 17.1569L132.017 17.1611L132.013 19.7039L129.343 19.6996ZM129.352 14.6141L129.356 12.1349L132.026 12.1391L132.022 14.6183L129.352 14.6141ZM129.356 12.1349L129.361 9.59215L132.031 9.59639L132.026 12.1391L129.356 12.1349ZM134.656 32.3329L134.651 34.8375L131.995 34.8333L131.999 32.3287L134.656 32.3329ZM131.999 32.3287L132.004 29.8495L134.66 29.8537L134.656 32.3329L131.999 32.3287ZM131.999 29.8495L132.004 27.3067L134.66 27.311L134.656 29.8537L131.999 29.8495ZM132.004 27.3067L132.008 24.7767L134.665 24.7809L134.66 27.311L132.004 27.3067ZM132.008 24.7767L132.013 22.2339L134.669 22.2382L134.665 24.7809L132.008 24.7767ZM132.013 22.2339L132.017 19.7039L134.674 19.7081L134.669 22.2382L132.013 22.2339ZM132.013 19.7039L132.017 17.1611L134.674 17.1653L134.669 19.7081L132.013 19.7039ZM132.017 17.1611L132.022 14.6183L134.678 14.6226L134.674 17.1653L132.017 17.1611ZM132.022 14.6183L132.026 12.1391L134.683 12.1434L134.678 14.6226L132.022 14.6183ZM134.656 32.3329L134.66 29.8537L137.277 29.858L137.272 32.3372L134.656 32.3329ZM134.656 29.8537L134.66 27.311L137.277 27.3152L137.272 29.858L134.656 29.8537ZM134.66 27.311L134.665 24.7809L137.281 24.7852L137.277 27.3152L134.66 27.311ZM134.665 24.7809L134.669 22.2382L137.286 22.2424L137.281 24.7852L134.665 24.7809ZM134.669 22.2382L134.674 19.7081L137.29 19.7123L137.286 22.2424L134.669 22.2382ZM134.669 19.7081L134.674 17.1653L137.29 17.1696L137.286 19.7123L134.669 19.7081ZM134.674 17.1653L134.678 14.6226L137.295 14.6268L137.29 17.1696L134.674 17.1653Z" fill="white"/>
    <path d="M134.651 32.3329L134.656 29.8537L137.326 29.858L137.321 32.3372L134.651 32.3329ZM134.656 29.8537L134.66 27.311L137.33 27.3152L137.326 29.858L134.656 29.8537ZM134.66 27.311L134.665 24.7809L137.335 24.7852L137.33 27.3152L134.66 27.311ZM134.665 24.7809L134.669 22.2382L137.339 22.2424L137.335 24.7852L134.665 24.7809ZM134.665 22.2382L134.669 19.7081L137.339 19.7123L137.335 22.2424L134.665 22.2382ZM134.669 19.7081L134.674 17.1653L137.344 17.1696L137.339 19.7123L134.669 19.7081ZM134.674 17.1653L134.678 14.6226L137.348 14.6268L137.344 17.1696L134.674 17.1653ZM134.678 14.6226L134.683 12.1434L137.352 12.1476L137.348 14.6268L134.678 14.6226ZM134.678 12.1434L134.683 9.60062L137.352 9.60485L137.348 12.1476L134.678 12.1434ZM139.982 32.3414L139.978 34.846L137.321 34.8418L137.326 32.3372L139.982 32.3414ZM137.321 32.3372L137.326 29.858L139.982 29.8622V32.3414L137.321 32.3372ZM137.348 12.1434L137.352 9.60062L140.009 9.60485L140.004 12.1476L137.348 12.1434ZM142.652 32.3414L142.648 34.846L139.978 34.8418L139.982 32.3372L142.652 32.3414ZM139.982 32.3414L139.987 29.8622L142.656 29.8664L142.652 32.3414H139.982ZM140.004 12.1476L140.009 9.60485L142.679 9.60909L142.674 12.1519L140.004 12.1476ZM145.255 32.3456L145.251 34.8503L142.648 34.846L142.652 32.3414L145.255 32.3456ZM142.652 32.3414L142.656 29.8622L145.26 29.8664L145.255 32.3456L142.652 32.3414ZM142.652 29.8622L142.656 27.3194L145.26 27.3237L145.255 29.8664L142.652 29.8622ZM142.656 27.3194L142.661 24.7894L145.264 24.7936L145.26 27.3237L142.656 27.3194ZM142.661 24.7894L142.665 22.2466L145.268 22.2509L145.264 24.7936L142.661 24.7894ZM142.665 22.2466L142.67 19.7166L145.273 19.7208L145.268 22.2509L142.665 22.2466ZM142.665 19.7166L142.67 17.1738L145.273 17.1781L145.268 19.7208L142.665 19.7166ZM142.67 17.1738L142.674 14.6311L145.277 14.6353L145.273 17.1781L142.67 17.1738ZM142.674 14.6311L142.679 12.1519L145.282 12.1561L145.277 14.6353L142.674 14.6311ZM142.674 12.1519L142.679 9.60909L145.282 9.61333L145.277 12.1561L142.674 12.1519ZM147.925 32.3499L147.921 34.8545L145.251 34.8503L145.255 32.3456L147.925 32.3499ZM145.255 32.3456L145.26 29.8664L147.929 29.8707L147.925 32.3499L145.255 32.3456ZM145.255 29.8664L145.26 27.3237L147.929 27.3279L147.925 29.8707L145.255 29.8664ZM145.26 27.3237L145.264 24.7936L147.934 24.7979L147.929 27.3279L145.26 27.3237ZM145.264 24.7936L145.268 22.2509L147.938 22.2551L147.934 24.7979L145.264 24.7936ZM145.268 22.2509L145.273 19.7208L147.943 19.7251L147.938 22.2551L145.268 22.2509ZM145.268 19.7208L145.273 17.1781L147.943 17.1823L147.938 19.7251L145.268 19.7208ZM145.273 17.1781L145.277 14.6353L147.947 14.6395L147.943 17.1823L145.273 17.1781ZM145.277 14.6353L145.282 12.1561L147.952 12.1603L147.947 14.6395L145.277 14.6353Z" fill="white"/>
    <path d="M145.273 17.178L145.277 14.6353L147.947 14.6395L147.943 17.1823L145.273 17.178ZM145.277 14.6353L145.282 12.1561L147.952 12.1603L147.947 14.6395L145.277 14.6353ZM145.282 12.1561L145.286 9.61333L147.956 9.61756L147.952 12.1603L145.282 12.1561ZM147.943 17.1823L147.947 14.6395L150.604 14.6438L150.599 17.1865L147.943 17.1823ZM147.952 12.1561L147.956 9.61333L150.613 9.61756L150.608 12.1603L147.952 12.1561ZM150.581 32.3541L150.586 29.8749L153.256 29.8791L153.251 32.3583L150.581 32.3541ZM150.586 29.8707L150.59 27.3279L153.26 27.3321L153.256 29.8749L150.586 29.8707ZM150.586 27.3279L150.59 24.7979L153.26 24.8021L153.256 27.3321L150.586 27.3279ZM150.59 24.7979L150.595 22.2551L153.265 22.2593L153.26 24.8021L150.59 24.7979ZM150.595 22.2551L150.599 19.725L153.269 19.7293L153.265 22.2593L150.595 22.2551ZM150.595 19.725L150.599 17.1823L153.269 17.1865L153.265 19.7293L150.595 19.725ZM150.599 17.1823L150.604 14.6395L153.274 14.6438L153.269 17.1865L150.599 17.1823ZM150.608 12.1603L150.613 9.61756L153.282 9.6218L153.278 12.1646L150.608 12.1603ZM155.854 32.3583L155.85 34.863L153.247 34.8587L153.251 32.3541L155.854 32.3583ZM153.251 32.3541L153.256 29.8749L155.859 29.8791L155.854 32.3583L153.251 32.3541ZM153.278 12.1646L153.282 9.6218L155.886 9.62604L155.881 12.1688L153.278 12.1646ZM158.524 32.3626L158.52 34.8672L155.85 34.863L155.854 32.3583L158.524 32.3626ZM155.854 32.3583L155.859 29.8791L158.529 29.8834L158.524 32.3626L155.854 32.3583ZM155.881 12.1688L155.886 9.62604L158.555 9.63028L158.551 12.173L155.881 12.1688ZM161.194 32.3668L161.19 34.8714L158.52 34.8672L158.524 32.3626L161.194 32.3668ZM158.524 32.3626L158.529 29.8834L161.199 29.8876L161.194 32.3668L158.524 32.3626ZM158.529 29.8834L158.533 27.3406L161.203 27.3449L161.199 29.8876L158.529 29.8834ZM158.529 27.3406L158.533 24.8106L161.203 24.8148L161.199 27.3449L158.529 27.3406ZM158.533 24.8106L158.538 22.2678L161.207 22.272L161.203 24.8148L158.533 24.8106ZM158.538 22.2678L158.542 19.7378L161.212 19.742L161.207 22.272L158.538 22.2678ZM158.542 19.7335L158.546 17.1908L161.216 17.195L161.212 19.7378L158.542 19.7335ZM158.542 17.1908L158.546 14.648L161.216 14.6522L161.212 17.195L158.542 17.1908ZM158.551 12.1688L158.555 9.62604L161.225 9.63028L161.221 12.173L158.551 12.1688ZM163.851 32.3668L163.846 34.8714L161.19 34.8672L161.194 32.3626L163.851 32.3668ZM161.194 32.3668L161.199 29.8876L163.855 29.8919L163.851 32.3711L161.194 32.3668ZM161.199 29.8834L161.203 27.3406L163.859 27.3449L163.855 29.8876L161.199 29.8834ZM161.199 27.3406L161.203 24.8106L163.859 24.8148L163.855 27.3449L161.199 27.3406ZM161.203 24.8106L161.207 22.2678L163.864 22.272L163.859 24.8148L161.203 24.8106ZM161.207 22.2678L161.212 19.7378L163.868 19.742L163.864 22.272L161.207 22.2678ZM161.212 19.7378L161.216 17.195L163.873 17.1992L163.868 19.742L161.212 19.7378ZM161.212 17.195L161.216 14.6522L163.873 14.6565L163.868 17.1992L161.212 17.195ZM161.221 12.173L161.225 9.63028L163.882 9.63452L163.877 12.1773L161.221 12.173ZM163.868 19.742L163.873 17.1992L166.543 17.2035L166.538 19.7462L163.868 19.742ZM163.868 17.1992L163.873 14.6565L166.543 14.6607L166.538 17.2035L163.868 17.1992ZM163.873 14.6565L163.877 12.1773L166.547 12.1815L166.543 14.6607L163.873 14.6565ZM163.877 12.1773L163.882 9.63452L166.552 9.63875L166.547 12.1815L163.877 12.1773ZM166.538 19.7462L166.543 17.2035L169.199 17.2077L169.195 19.7505L166.538 19.7462ZM166.538 17.2035L166.543 14.6607L169.199 14.6649L169.195 17.2077L166.538 17.2035ZM166.543 14.6607L166.547 12.1815L169.204 12.1858L169.199 14.6649L166.543 14.6607Z" fill="white"/>
    </g>
    <defs>
    <clipPath id="clip0">
    <rect width="154.165" height="25.4149" fill="white" transform="translate(14.6457 9.00362)"/>
    </clipPath>
    </defs>
</svg>

