<svg width="184" height="51" fill="none" xmlns="http://www.w3.org/2000/svg"><path fill-rule="evenodd" clip-rule="evenodd" d="M176.873 41.47v-.007l3.33.006v.007l-3.33-.006zm0 8.534 3.317.006.006-4.285v-.007l3.766.007.006-4.249.006-4.357.007-4.336.006-4.358h-.006l.006-4.335.007-4.358.006-4.357-3.765-.008h-.007l.007-4.248-3.362-.006V6.718H7.775v.007l-3.828-.007-.007 4.358-3.907-.008-.007 4.249-.006 4.357h.006L.02 24.032l-.007 4.336-.006 4.364L0 37.068h.007L0 41.426l3.908.007-.007 4.241 3.874.008v4.328H176.873v-.006zM3.887 37.068H.007l3.88.007v-.007zm176.322-4.292h.006l.007-4.358h-.007l-.006 4.358z" fill="#456B15"/><path fill-rule="evenodd" clip-rule="evenodd" d="m0 34.998.007-4.358 3.88.007v-.007H0l.007-4.336.006-4.365.007-4.335.006-4.358H.02L.026 8.89.033 4.64l3.907.007L3.947.29l3.828.007V.29h169.099v4.395l3.361.006-.007 4.249h.007l3.765.007-.006 4.357-.007 4.358-.006 4.335h.006l-.006 4.358-.006 4.336-.007 4.357-.006 4.249-3.766-.007v.007l-.006 4.285-3.316-.007v.007H7.775v-4.329L3.9 39.246l.007-4.241L0 34.997zm176.874.044 3.329.006v-.007l-3.329-.006v.007zm3.335-8.694h.006l.007-4.358h-.007l-.006 4.358z" fill="#8EC440"/><g clip-path="url(#a)" fill="#fff"><path d="m15.038 32.189.005-2.48 2.67.005-.005 2.48-2.67-.005zm.005-2.48.004-2.542 2.67.004-.005 2.543-2.67-.004zm0-2.542.004-2.53 2.67.004-.005 2.53-2.67-.004zm.004-2.53.004-2.543 2.67.004-.004 2.543-2.67-.004zm.004-2.543.005-2.53 2.67.004-.005 2.53-2.67-.004zm.005-2.53.004-2.543 2.67.005-.004 2.542-2.67-.004zm0-2.543.004-2.543 2.67.005-.004 2.543-2.67-.005zm.004-2.543L15.065 12l2.67.005-.005 2.479-2.67-.005zM15.065 12l.004-2.542 2.67.004-.004 2.543-2.67-.005zm5.3 20.198-.005 2.505-2.657-.004.005-2.505 2.656.004zm-2.657-.004.004-2.48 2.657.005-.005 2.48-2.656-.005zm.027-20.19.004-2.542 2.657.004-.005 2.543-2.656-.004zm5.3 20.199-.005 2.504-2.67-.004.004-2.505 2.67.005zm-2.67-.005.004-2.479 2.67.004-.005 2.48-2.67-.005zm.026-20.19.005-2.542 2.67.004-.005 2.543-2.67-.004zm5.246 20.195-.004 2.504-2.603-.004.004-2.505 2.603.005zm-2.603 0 .005-2.48 2.603.005-.005 2.479-2.603-.005zm.01-5.022.004-2.53 2.603.004-.005 2.53-2.603-.004zm0-2.535.004-2.543 2.603.005-.005 2.543-2.603-.005zm.004-2.543.004-2.53 2.603.005-.004 2.53-2.603-.005zm.004-2.53.005-2.542 2.603.004-.005 2.543-2.603-.005zm.005-2.542.004-2.543 2.603.004-.004 2.543-2.604-.004zm.004-5.022.004-2.543 2.604.004-.005 2.543-2.603-.004zm5.246 20.198-.004 2.504-2.67-.004.004-2.505 2.67.005zm-2.67-.005.005-2.479 2.67.005-.005 2.479-2.67-.005zm.01-5.021.004-2.53 2.67.004-.005 2.53-2.67-.004zm0-2.53.004-2.543 2.67.004-.005 2.543-2.67-.005zm.004-2.543.004-2.53 2.67.004-.005 2.53-2.67-.004zm.004-2.53.005-2.543 2.67.004-.005 2.543-2.67-.004zm.005-2.543.004-2.543 2.67.004-.005 2.543-2.67-.004zm.004-5.022.005-2.543 2.67.004-.005 2.543-2.67-.004zm5.313 20.198-.004 2.505-2.67-.005.004-2.504 2.67.004zm-2.67-.004.005-2.48 2.67.005-.005 2.479-2.67-.004zm.01-7.552.003-2.543 2.67.004-.004 2.543-2.67-.004zm.003-2.543.005-2.53 2.67.004-.005 2.53-2.67-.004zm.005-2.53.004-2.543 2.67.004-.004 2.543-2.67-.004zm.009-7.565.004-2.543 2.67.005-.004 2.543-2.67-.005zm5.3 20.198-.005 2.505-2.656-.004.004-2.505 2.656.004zm-2.657-.004.005-2.48 2.656.005-.005 2.48-2.656-.005zm.005-2.48.004-2.542 2.656.004-.004 2.543-2.656-.004zm.022-15.23.004-2.48 2.657.005-.005 2.479-2.656-.004zm0-2.484.004-2.543 2.657.005-.005 2.543-2.656-.005zm5.3 20.203-.005 2.504-2.67-.004.005-2.505 2.67.005zm-2.67-.005.004-2.479 2.67.004-.005 2.48-2.67-.005zm.004-2.479.004-2.543 2.67.005-.004 2.542-2.67-.004zm.004-2.543.005-2.53 2.67.005-.005 2.53-2.67-.005zm.014-10.15.004-2.542 2.67.004-.004 2.543-2.67-.005zm.004-2.542.005-2.48 2.67.005-.005 2.479-2.67-.004zm2.643 17.718.005-2.479 2.656.005-.004 2.479-2.657-.005zm.005-2.483.004-2.543 2.657.005-.005 2.542-2.656-.004zm.004-2.543.005-2.53 2.656.005-.004 2.53-2.657-.005zm.005-2.53.004-2.543 2.657.005-.005 2.543-2.656-.005zm0-2.543.004-2.53 2.657.005-.005 2.53-2.656-.005zm.004-2.53.005-2.542 2.656.004-.004 2.543-2.657-.005zm.005-2.542.004-2.543 2.657.004-.005 2.543-2.656-.004zm2.638 12.692.005-2.543 2.616.005-.004 2.543-2.617-.005zm.005-2.543.004-2.53 2.617.005-.005 2.53-2.616-.005zm.004-2.53.005-2.542 2.616.004-.004 2.543-2.617-.005zm0-2.542.005-2.53 2.616.004-.004 2.53-2.617-.004zm.005-2.53.004-2.543 2.617.004-.005 2.543-2.616-.004z"/><path d="m38.96 32.218.004-2.479 2.67.005-.004 2.479-2.67-.005zm.004-2.479.005-2.542 2.67.004-.005 2.543-2.67-.005zm.005-2.542.004-2.53 2.67.004-.004 2.53-2.67-.004zm.004-2.53.005-2.543 2.67.004-.005 2.543-2.67-.005zm0-2.543.005-2.53 2.67.004-.005 2.53-2.67-.004zm.005-2.53.004-2.543 2.67.004-.004 2.543-2.67-.004zm.004-2.543.005-2.543 2.67.004-.005 2.543-2.67-.004zm.005-2.543.004-2.479 2.67.004-.005 2.48-2.67-.005zm0-2.479.004-2.543 2.67.004-.005 2.543-2.67-.004zm5.3 20.198-.005 2.505-2.657-.005.005-2.504 2.656.004zm-2.657-.004.004-2.48 2.657.005-.005 2.479-2.656-.004zm.026-20.19.005-2.543 2.656.005-.004 2.542-2.657-.004zm5.3 20.194-.004 2.505-2.67-.005.004-2.504 2.67.004zm-2.67 0 .005-2.48 2.67.005-.005 2.48-2.67-.005zm.027-20.194.004-2.543 2.67.005-.004 2.542-2.67-.004zm5.246 20.198-.004 2.505-2.603-.004.004-2.505 2.603.004zm-2.603-.004.005-2.48 2.603.005-.005 2.48-2.603-.005zm.009-5.022.004-2.53 2.604.004-.005 2.53-2.603-.004zm.004-2.53.005-2.543 2.603.005-.004 2.542-2.604-.004zm.005-5.073.004-2.543 2.603.005-.004 2.542-2.603-.004zm.004-2.543.005-2.542 2.603.004-.005 2.543-2.603-.005zm.005-5.022.004-2.542 2.603.004-.004 2.543-2.603-.005zm5.246 20.199-.004 2.504-2.67-.004.004-2.505 2.67.005zm-2.67-.005.005-2.479 2.67.004-.005 2.48-2.67-.005zm.01-5.022.004-2.53 2.67.005-.005 2.53-2.67-.005zm.004-2.53.004-2.542 2.67.004-.005 2.543-2.67-.005zm.004-5.073.005-2.542 2.67.004-.005 2.543-2.67-.005zm.005-2.542.004-2.543 2.67.004-.005 2.543-2.67-.004zm.004-5.022.004-2.543 2.67.004-.004 2.543-2.67-.004zm5.313 20.198-.005 2.504-2.67-.004.005-2.505 2.67.005zm-2.67-.005.005-2.479 2.67.005-.005 2.479-2.67-.005zm.009-5.021.004-2.53 2.67.004-.004 2.53-2.67-.005zm.004-2.53.005-2.543 2.67.004-.005 2.543-2.67-.005zm.005-5.073.004-2.543 2.67.004-.004 2.543-2.67-.004zm.004-2.543.005-2.543 2.67.004-.005 2.543-2.67-.004zm.005-5.026.004-2.543 2.67.004-.004 2.543-2.67-.004zM57.56 32.24l-.005 2.504-2.656-.004.004-2.505 2.657.005zm-2.661 0 .004-2.48 2.657.005-.005 2.479-2.656-.004zm.009-5.022.004-2.53 2.657.004-.005 2.53-2.656-.004zm.004-2.535.005-2.542 2.656.004-.004 2.543-2.657-.005zm.005-5.072.004-2.543 2.657.004-.005 2.543-2.656-.004zm.004-2.543.005-2.543 2.656.004-.004 2.543-2.657-.004zm.005-5.022.004-2.543 2.657.004-.005 2.543-2.656-.004zm5.304 20.198-.005 2.505-2.67-.005.005-2.504 2.67.004zm-2.67-.004.004-2.48 2.67.005-.004 2.479-2.67-.004zm.004-5.022.005-2.53 2.67.004-.005 2.53-2.67-.004zm.005-2.53.004-2.543 2.67.004-.004 2.543-2.67-.004zm.004-2.543.005-2.53 2.67.004-.005 2.53-2.67-.004zm0-2.53.005-2.543 2.67.004-.005 2.543-2.67-.004zm.005-2.543.004-2.543 2.67.005-.005 2.542-2.67-.004zm.008-5.022.005-2.543 2.67.005-.005 2.542-2.67-.004zm5.3 20.198-.004 2.505-2.657-.004.005-2.505 2.656.004zm-2.656-.004.004-2.48 2.657.005-.005 2.48-2.656-.005zm0-2.48.004-2.542 2.657.004-.005 2.543-2.656-.004zm.004-2.542.005-2.53 2.656.004-.004 2.53-2.657-.004zm.005-2.53.004-2.543 2.657.004-.005 2.543-2.656-.004zm.004-2.543.005-2.53 2.656.004-.005 2.53-2.656-.004zm0-2.53.005-2.543 2.656.005-.005 2.542-2.656-.004zm.005-2.543.004-2.542 2.656.004-.004 2.543-2.657-.005zm.004-2.542.004-2.48 2.657.005-.005 2.479-2.656-.004zm.004-2.48.005-2.542 2.656.004-.004 2.543-2.657-.005zm5.247 20.198-.005 2.505-2.616-.004.004-2.505 2.617.004zm-2.617-.004.005-2.479 2.616.004-.004 2.48-2.617-.005zm0-2.479.005-2.543 2.616.005-.004 2.542-2.617-.004zm.014-10.146.004-2.542 2.616.004-.004 2.543-2.617-.005zm.004-2.542.004-2.543 2.617.004-.005 2.543-2.616-.004zm.004-2.543.005-2.48 2.616.005-.004 2.48-2.617-.005z"/><path d="m62.886 32.248.004-2.479 2.67.004-.004 2.48-2.67-.005zm0-2.479.004-2.543 2.67.004-.004 2.543-2.67-.004zm.004-2.543.005-2.53 2.67.004-.005 2.53-2.67-.004zm.005-2.53.004-2.543 2.67.005-.005 2.542-2.67-.004zm.004-2.543.005-2.53 2.67.005-.005 2.53-2.67-.005zm0-2.53.005-2.542 2.67.004-.005 2.543-2.67-.005zm.005-2.542.004-2.543 2.67.004-.005 2.543-2.67-.004zm.004-2.543.004-2.48 2.67.005-.004 2.479-2.67-.004zm.004-2.484.005-2.542 2.67.004-.005 2.543-2.67-.005zm5.3 20.198-.004 2.505-2.657-.004.005-2.505 2.656.004zm-2.656 0 .004-2.479 2.656.004-.004 2.48-2.656-.005zm.026-20.193.005-2.543 2.656.004-.004 2.543-2.657-.004zm5.3 20.198-.005 2.504-2.67-.004.005-2.505 2.67.005zm-2.67-.005.004-2.479 2.67.004-.004 2.48-2.67-.005zm.027-20.19.004-2.542 2.67.004-.004 2.543-2.67-.004zm5.246 20.199-.004 2.505-2.603-.005.004-2.504 2.603.004zm-2.603-.004.004-2.48 2.603.005-.004 2.479-2.603-.004zm0-2.48.004-2.542 2.603.004-.004 2.543-2.603-.005zm.004-2.542.005-2.53 2.603.004-.005 2.53-2.603-.004zm.01-5.073.004-2.53 2.603.004-.005 2.53-2.603-.004zm0-2.53.004-2.543 2.603.004-.005 2.543-2.603-.004zm.004-2.543.004-2.543 2.603.005-.004 2.542-2.603-.004zm.009-5.022.004-2.543 2.603.005-.004 2.542-2.603-.004zm5.246 20.198-.005 2.505-2.67-.005.005-2.504 2.67.004zm-2.67-.004.004-2.48 2.67.005-.004 2.48-2.67-.005zm.004-2.48.005-2.542 2.67.004-.005 2.543-2.67-.004zm0-2.542.005-2.53 2.67.004-.005 2.53-2.67-.004zm.01-5.073.004-2.53 2.67.004-.005 2.53-2.67-.004zm.004-2.53.004-2.543 2.67.005-.004 2.542-2.67-.004zm0-2.543.004-2.543 2.67.005-.004 2.543-2.67-.005zm.009-5.022.004-2.542 2.67.004-.005 2.543-2.67-.005zm2.647 17.71.005-2.542 2.67.004-.005 2.543-2.67-.004zm0-2.542.005-2.53 2.67.004-.005 2.53-2.67-.004zm.01-5.073.004-2.53 2.67.004-.005 2.53-2.67-.004zm.004-2.53.004-2.543 2.67.005-.004 2.542-2.67-.004zm0-2.543.004-2.543 2.67.005-.004 2.543-2.67-.005zm.008-5.022.005-2.542 2.67.004-.005 2.543-2.67-.005zm2.648 17.715.005-2.543 2.656.004-.004 2.543-2.657-.004zm0-2.543.005-2.53 2.656.004-.004 2.53-2.657-.004zm.022-15.167.005-2.543 2.656.004-.004 2.543-2.657-.004zm2.635 17.714.004-2.543 2.67.005-.005 2.542-2.67-.004zm0-2.543.004-2.53 2.67.005-.005 2.53-2.67-.005zm.004-2.53.005-2.542 2.67.004-.005 2.543-2.67-.005zm.013-10.158.005-2.48 2.67.005-.005 2.48-2.67-.005zm.005-2.48.004-2.542 2.67.004-.004 2.543-2.67-.004zm2.647 17.715.005-2.542 2.652.004-.004 2.543-2.653-.005zm0-2.542.005-2.53 2.656.004-.004 2.53-2.657-.004zm.005-2.53.004-2.543 2.657.004-.005 2.543-2.656-.004zm.004-2.543.005-2.53 2.656.004-.004 2.53-2.657-.004zm.005-2.53.004-2.543 2.657.004-.005 2.543-2.656-.004zm0-2.543.004-2.543 2.657.005-.005 2.542-2.656-.004zm.004-2.543.005-2.479 2.656.004-.004 2.48-2.657-.005zm2.639 12.693.004-2.53 2.617.004v2.526h-2.621zm.004-2.534.005-2.543 2.616.004-.004 2.543-2.617-.004zm.005-2.543.004-2.53 2.617.004-.005 2.53-2.616-.004zm.004-2.53.005-2.543 2.616.004-.004 2.543-2.617-.004zm0-2.543.005-2.543 2.616.005-.004 2.542-2.617-.004z"/><path d="m86.813 29.799.004-2.543 2.67.004-.005 2.543-2.67-.004zm0-2.543.004-2.53 2.67.004-.005 2.526h-2.67zm.004-2.534.004-2.543 2.67.004-.004 2.543-2.67-.004zm.004-2.543.005-2.53 2.67.004-.005 2.53-2.67-.004zm.005-2.53.004-2.543 2.67.004-.004 2.543-2.67-.004zm0-2.543.004-2.543 2.67.005-.004 2.542-2.67-.004zm.004-2.543.005-2.479 2.67.004-.005 2.48-2.67-.005zm2.648 17.715.004-2.48 2.657.005-.005 2.48-2.656-.005zm.004-2.48.005-2.542 2.656.004-.004 2.543-2.657-.004zm.018-15.23.005-2.48 2.656.005-.004 2.479-2.657-.004zm.005-2.48.004-2.542 2.656.004-.004 2.542-2.656-.004zm5.3 20.198-.005 2.505-2.67-.004.004-2.505 2.67.004zm-2.67-.004.004-2.48 2.67.005-.005 2.48-2.67-.005zm.026-20.19.004-2.542 2.67.004-.004 2.543-2.67-.005zm5.246 20.199-.004 2.504-2.603-.004.004-2.505 2.603.005zm-2.603-.005.005-2.479 2.603.004-.005 2.48-2.603-.005zm.005-5.022.004-2.53 2.603.004-.004 2.53-2.603-.004zm.004-2.53.005-2.543 2.603.005-.005 2.542-2.603-.004zm.005-2.543.004-2.53 2.603.005-.004 2.53-2.603-.005zm.004-2.53.004-2.542 2.604.004-.005 2.543-2.603-.005zm0-2.542.004-2.543 2.604.004-.005 2.543-2.603-.004zm.009-5.027.004-2.542 2.603.004-.004 2.543-2.603-.005zm5.246 20.198-.004 2.505-2.67-.004.004-2.505 2.67.005zm-2.67 0 .005-2.479 2.67.005-.005 2.479-2.67-.005zm.01-5.026.004-2.53 2.669.004-.004 2.53-2.67-.004zm0-2.53.004-2.543 2.669.005-.004 2.542-2.67-.004zm.004-2.543.004-2.53 2.67.005-.005 2.53-2.67-.005zm.004-2.53.005-2.542 2.669.004-.004 2.543-2.67-.005zm.005-2.542.004-2.543 2.67.004-.005 2.543-2.67-.004zm.004-5.022.004-2.543 2.67.004-.004 2.543-2.67-.004zm5.313 20.198-.004 2.504-2.67-.004.004-2.505 2.67.005zm-2.67-.005.005-2.479 2.669.005-.004 2.479-2.67-.005zm.009-5.021.004-2.53 2.67.004-.004 2.53-2.67-.004zm0-2.53.004-2.543 2.67.004-.004 2.543-2.67-.005zm.004-2.543.005-2.53 2.67.004-.005 2.53-2.67-.004zm.005-2.53.004-2.543 2.67.004-.004 2.543-2.67-.004zm.004-2.543.005-2.543 2.67.004-.005 2.543-2.67-.004zm.005-5.022.004-2.543 2.67.004-.004 2.543-2.67-.004zm5.299 20.198-.004 2.505-2.656-.005.004-2.504 2.656.004zm-2.656-.004.004-2.48 2.657.005-.005 2.479-2.656-.004zm.027-20.19.004-2.543 2.657.005-.005 2.543-2.656-.005zm5.299 20.198-.004 2.505-2.67-.004.004-2.505 2.67.004zm-2.67-.004.005-2.48 2.67.005-.005 2.48-2.67-.005zm.005-2.48.004-2.542 2.67.004-.004 2.543-2.67-.004zm.018-15.23.004-2.48 2.67.005-.004 2.479-2.67-.004zm.004-2.484.005-2.543 2.669.005-.004 2.543-2.67-.005zm5.3 20.198-.005 2.505-2.656-.004.004-2.505 2.657.004zm-2.657 0 .005-2.479 2.656.004-.004 2.48-2.657-.005zm.005-2.483.004-2.543 2.657.004-.005 2.543-2.656-.004zm.004-2.543.005-2.53 2.656.004-.004 2.53-2.657-.004zm0-2.53.005-2.543 2.656.005-.004 2.542-2.657-.004zm.005-2.543.004-2.53 2.657.004-.005 2.53-2.656-.004zm.004-2.53.005-2.543 2.656.005-.004 2.542-2.657-.004zm.005-2.543.004-2.542 2.656.004-.004 2.543-2.656-.005zm0-2.542.004-2.48 2.656.005-.004 2.479-2.656-.004zm2.634 17.714.004-2.479 2.617.004-.005 2.48-2.616-.005zm.004-2.479.005-2.543 2.616.005-.004 2.542-2.617-.004zm.005-2.543.004-2.53 2.617.005-.005 2.53-2.616-.005zm.004-2.53.005-2.543 2.616.005-.004 2.543-2.617-.005zm0-2.543.005-2.53 2.616.005-.004 2.53-2.617-.005zm.005-2.53.004-2.542 2.616.004-.004 2.543-2.616-.005zm.004-2.542.004-2.543 2.617.004-.005 2.543-2.616-.004z"/><path d="m110.734 29.824.005-2.543 2.67.005-.005 2.542-2.67-.004zm.005-2.543.004-2.53 2.67.005-.004 2.53-2.67-.005zm.004-2.53.005-2.543 2.67.005-.005 2.543-2.67-.005zm0-2.543.005-2.53 2.67.005-.005 2.53-2.67-.005zm.005-2.53.004-2.542 2.67.004-.004 2.543-2.67-.005zm.004-2.542.005-2.543 2.669.004-.004 2.543-2.67-.004zm.005-2.543.004-2.48 2.67.005-.005 2.48-2.669-.005zm2.643 17.714.004-2.479 2.657.005-.005 2.479-2.656-.005zm.004-2.479.005-2.543 2.656.005-.004 2.543-2.657-.005zm.009-5.072.005-2.543 2.656.004-.004 2.543-2.657-.005zm0-2.543.005-2.53 2.656.004-.004 2.53-2.657-.004zm.013-7.616.005-2.479 2.656.004-.004 2.48-2.657-.005zm0-2.479.005-2.543 2.656.004-.004 2.543-2.657-.004zm5.3 20.198-.004 2.505-2.67-.005.004-2.504 2.67.004zm-2.67-.004.005-2.48 2.67.005-.005 2.479-2.67-.004zm.014-7.552.004-2.543 2.67.004-.005 2.543-2.669-.004zm.013-12.642.004-2.543 2.67.004-.004 2.543-2.67-.004zm5.251 20.198-.005 2.505-2.603-.005.005-2.504 2.603.004zm-2.608 0 .005-2.48 2.603.005-.005 2.48-2.603-.005zm.009-5.026.004-2.53 2.604.004-.005 2.53-2.603-.004zm.004-2.53.005-2.543 2.603.004-.004 2.543-2.604-.004zm.005-5.073.004-2.543 2.603.004-.004 2.543-2.603-.004zm.004-2.543.005-2.543 2.603.005-.005 2.542-2.603-.004zm.005-5.022.004-2.543 2.603.005-.004 2.542-2.603-.004zm5.25 20.198-.004 2.505-2.67-.004.005-2.505 2.669.004zm-2.669-.004.004-2.48 2.67.005-.005 2.48-2.669-.005zm.004-5.022.005-2.53 2.669.004-.004 2.53-2.67-.004zm.005-2.53.004-2.543 2.67.004-.005 2.543-2.669-.004zm.004-5.073.004-2.543 2.67.005-.004 2.542-2.67-.004zm.004-2.543.005-2.542 2.67.004-.005 2.543-2.67-.005zm.005-5.022.004-2.542 2.67.004-.004 2.543-2.67-.005zm5.317 20.198-.004 2.505-2.67-.004.004-2.505 2.67.004zm-2.67-.004.005-2.479 2.67.004-.005 2.48-2.67-.005zm.005-5.022.004-2.53 2.67.004-.004 2.53-2.67-.004zm.004-2.53.005-2.543 2.67.005-.005 2.542-2.67-.004zm.005-5.073.004-2.542 2.67.004-.004 2.543-2.67-.005zm.004-2.542.005-2.543 2.67.004-.005 2.543-2.67-.004zm.005-5.022.004-2.543 2.67.004-.004 2.543-2.67-.004zm5.304 20.198-.005 2.504-2.656-.004.004-2.505 2.657.005zm-2.657-.005.005-2.479 2.656.005-.004 2.479-2.657-.005zm.014-12.624.004-2.543 2.657.004-.005 2.543-2.656-.004zm.009-7.57.004-2.542 2.656.004-.004 2.543-2.656-.004zM132 32.33l-.005 2.504-2.67-.004.005-2.505 2.67.005zm-2.67 0 .004-2.48 2.67.005-.004 2.479-2.67-.004zm0-2.484.004-2.543 2.67.005L132 29.85l-2.67-.005zm.013-7.615.005-2.53 2.669.004-.004 2.53-2.67-.004zm0-2.53.005-2.543 2.669.004-.004 2.543-2.67-.004zm.009-5.086.004-2.48 2.67.005-.004 2.48-2.67-.005zm.004-2.48.005-2.542 2.67.004-.005 2.543-2.67-.004zm5.3 20.199-.004 2.505-2.657-.005.005-2.504 2.656.004zM132 32.329l.004-2.48 2.657.005-.005 2.479-2.656-.004zm0-2.48.004-2.542 2.657.004-.005 2.543-2.656-.005zm.004-2.542.005-2.53 2.656.004-.004 2.53-2.657-.004zm.005-2.53.004-2.543 2.656.004-.004 2.543-2.656-.004zm.004-2.543.004-2.53 2.657.004-.005 2.53-2.656-.004zm0-2.53.004-2.543 2.657.004-.005 2.543-2.656-.004zm.004-2.543.005-2.543 2.656.005-.004 2.542-2.657-.004zm.005-2.543.004-2.479 2.657.004-.005 2.48-2.656-.005zm2.634 17.715.005-2.48 2.616.005-.004 2.48-2.617-.005zm0-2.48.005-2.542 2.616.004-.004 2.543-2.617-.004zm.005-2.542.004-2.53 2.616.004-.004 2.53-2.616-.004zm.004-2.53.004-2.543 2.617.004-.005 2.543-2.616-.004zm.004-2.543.005-2.53 2.616.004-.004 2.53-2.617-.004zm0-2.53.005-2.543 2.616.005-.004 2.542-2.617-.004zm.005-2.543.004-2.542 2.617.004-.005 2.543-2.616-.005z"/><path d="m134.651 32.333.005-2.48 2.67.005-.005 2.48-2.67-.005zm.005-2.48.004-2.542 2.67.004-.004 2.543-2.67-.004zm.004-2.542.005-2.53 2.67.004-.005 2.53-2.67-.004zm.005-2.53.004-2.543 2.67.004-.004 2.543-2.67-.004zm0-2.543.004-2.53 2.67.004-.004 2.53-2.67-.004zm.004-2.53.005-2.543 2.669.005-.004 2.542-2.67-.004zm.005-2.543.004-2.542 2.67.004-.005 2.543-2.669-.005zm.004-2.542.005-2.48 2.669.005-.004 2.479-2.67-.004zm0-2.48.005-2.542 2.669.004-.004 2.543-2.67-.005zm5.304 20.198-.004 2.505-2.657-.004.005-2.505 2.656.004zm-2.661-.004.005-2.479 2.656.004v2.48l-2.661-.005zm.027-20.194.004-2.542 2.657.004-.005 2.543-2.656-.005zm5.304 20.198-.004 2.505-2.67-.004.004-2.505 2.67.004zm-2.67 0 .005-2.479 2.669.004-.004 2.475h-2.67zm.022-20.193.005-2.543 2.67.004-.005 2.543-2.67-.004zm5.251 20.198-.004 2.504-2.603-.004.004-2.505 2.603.005zm-2.603-.005.004-2.479 2.604.004-.005 2.48-2.603-.005zm0-2.479.004-2.543 2.604.005-.005 2.542-2.603-.004zm.004-2.543.005-2.53 2.603.005-.004 2.53-2.604-.005zm.005-2.53.004-2.542 2.603.004-.004 2.543-2.603-.005zm.004-2.542.005-2.53 2.603.004-.005 2.53-2.603-.004zm0-2.53.005-2.543 2.603.004-.005 2.543-2.603-.004zm.005-2.543.004-2.543 2.603.004-.004 2.543-2.603-.004zm.004-2.543.005-2.48 2.603.005-.005 2.48-2.603-.005zm0-2.48.005-2.542 2.603.004-.005 2.543-2.603-.004zm5.251 20.199-.005 2.505-2.669-.005.004-2.504 2.67.004zm-2.67-.004.005-2.48 2.669.005-.004 2.479-2.67-.004zm0-2.48.005-2.542 2.669.004-.004 2.543-2.67-.005zm.005-2.542.004-2.53 2.67.004-.005 2.53-2.669-.004zm.004-2.53.004-2.543 2.67.004-.004 2.543-2.67-.004zm.004-2.543.005-2.53 2.67.004-.005 2.53-2.67-.004zm0-2.53.005-2.543 2.67.004-.005 2.543-2.67-.004zm.005-2.543.004-2.543 2.67.005-.004 2.542-2.67-.004zm.004-2.543.005-2.479 2.67.004-.005 2.48-2.67-.005z"/><path d="m145.272 17.178.005-2.543 2.67.005-.005 2.542-2.67-.004zm.005-2.543.004-2.479 2.67.004-.004 2.48-2.67-.005zm.004-2.479.005-2.543 2.67.005-.005 2.542-2.67-.004zm2.661 5.026.005-2.542 2.656.004-.004 2.542-2.657-.004zm.009-5.026.005-2.543 2.656.005-.004 2.542-2.657-.004zm2.63 20.198.004-2.48 2.67.005-.004 2.48-2.67-.005zm.004-2.483.005-2.543 2.67.004-.005 2.543-2.67-.004zm0-2.543.005-2.53 2.67.004-.005 2.53-2.67-.004zm.005-2.53.004-2.543 2.67.004-.004 2.543-2.67-.004zm.004-2.543.005-2.53 2.67.004-.005 2.53-2.67-.004zm0-2.53.005-2.543 2.67.005-.005 2.542-2.67-.004zm.005-2.543.004-2.542 2.67.004-.004 2.542-2.67-.004zm.009-5.022.004-2.542 2.67.004-.004 2.543-2.67-.005zm5.246 20.198-.005 2.505-2.603-.004.005-2.505 2.603.004zm-2.603-.004.004-2.48 2.603.005-.004 2.48-2.603-.005zm.027-20.19.004-2.542 2.603.004-.004 2.543-2.603-.004zm5.246 20.199-.005 2.504-2.67-.004.005-2.505 2.67.005zm-2.67-.005.004-2.479 2.67.004-.004 2.48-2.67-.005zm.027-20.19.004-2.542 2.67.004-.005 2.543-2.669-.004zm5.313 20.199-.005 2.504-2.67-.004.005-2.504 2.67.004zm-2.67-.004.004-2.48 2.67.005-.004 2.479-2.67-.004zm.004-2.48.005-2.542 2.669.004-.004 2.543-2.67-.005zm0-2.542.005-2.53 2.669.004-.004 2.53-2.67-.004zm.005-2.53.004-2.543 2.67.004-.005 2.543-2.669-.004zm.004-2.543.005-2.53 2.669.004-.004 2.53-2.67-.004zm.005-2.535.004-2.542 2.67.004-.005 2.543-2.669-.005zm0-2.542.004-2.543 2.67.004-.005 2.543-2.669-.004zm.008-5.022.005-2.543 2.67.004-.005 2.543-2.67-.004zm5.3 20.198-.004 2.504-2.657-.004.005-2.504 2.656.004zm-2.656 0 .004-2.48 2.657.005-.005 2.48-2.656-.005zm.004-2.484.004-2.542 2.657.004-.004 2.543-2.657-.005zm0-2.542.004-2.53 2.657.004-.004 2.53-2.657-.004zm.004-2.53.005-2.543 2.656.004-.004 2.543-2.657-.004zm.005-2.543.004-2.53 2.657.004-.005 2.53-2.656-.004zm.004-2.53.005-2.543 2.656.004-.004 2.543-2.657-.004zm0-2.543.005-2.543 2.656.005-.004 2.542-2.657-.004zm.009-5.022.005-2.543 2.656.005-.004 2.542-2.657-.004zm2.648 7.569.004-2.543 2.67.004-.004 2.543-2.67-.004zm0-2.543.004-2.543 2.67.005-.004 2.542-2.67-.004zm.004-2.543.005-2.479 2.67.005-.005 2.479-2.67-.005zm.005-2.479.004-2.542 2.67.004-.004 2.543-2.67-.005zm2.661 7.57.004-2.544 2.657.005-.005 2.543-2.656-.005zm0-2.544.004-2.542 2.657.004-.005 2.543-2.656-.005zm.004-2.542.005-2.48 2.656.005-.004 2.479-2.657-.004z"/></g><defs><clipPath id="a"><path fill="#fff" transform="translate(14.646 9.004)" d="M0 0h154.165v25.415H0z"/></clipPath></defs></svg>
