<svg width="30" height="35" fill="none" xmlns="http://www.w3.org/2000/svg"><path d="M15.65 33.478h-1.302v1.52h1.302v-1.52z" fill="#12A9BE"/><path d="M16.957 31.958h-1.305v1.523h1.305v-1.523z" fill="#67CBDF"/><path d="M15.65 31.958h-1.302v1.523h1.302v-1.523zM14.348 31.958h-1.305v1.523h1.305v-1.523z" fill="#12A9BE"/><path d="M18.26 30.436h-1.303v1.522h1.303v-1.522zM16.957 30.436h-1.305v1.522h1.305v-1.522z" fill="#67CBDF"/><path d="M15.65 30.436h-1.302v1.522h1.302v-1.522zM14.348 30.436h-1.305v1.522h1.305v-1.522zM13.04 30.436h-1.302v1.522h1.302v-1.522z" fill="#12A9BE"/><path d="M19.562 28.913h-1.303v1.523h1.303v-1.523z" fill="#67CBDF"/><path d="M18.26 28.913h-1.303v1.523h1.303v-1.523zM16.957 28.913h-1.305v1.523h1.305v-1.523z" fill="#67CBDF"/><path d="M15.65 28.913h-1.302v1.523h1.302v-1.523zM14.348 28.913h-1.305v1.523h1.305v-1.523zM13.04 28.913h-1.302v1.523h1.302v-1.523zM11.738 28.913h-1.302v1.523h1.302v-1.523z" fill="#12A9BE"/><path d="M20.87 27.391h-1.306v1.522h1.305v-1.522zM19.562 27.391h-1.303v1.522h1.303v-1.522z" fill="#67CBDF"/><path d="M18.26 27.391h-1.303v1.522h1.303v-1.522zM16.957 27.391h-1.305v1.522h1.305v-1.522z" fill="#67CBDF"/><path d="M15.65 27.391h-1.302v1.522h1.302v-1.522zM14.348 27.391h-1.305v1.522h1.305v-1.522zM13.04 27.391h-1.302v1.522h1.302v-1.522zM11.738 27.391h-1.302v1.522h1.302v-1.522zM10.436 27.391H9.13v1.522h1.305v-1.522z" fill="#12A9BE"/><path d="M22.171 25.869H20.87v1.522h1.302V25.87zM20.87 25.869h-1.306v1.522h1.305V25.87zM19.562 25.869h-1.303v1.522h1.303V25.87z" fill="#67CBDF"/><path d="M18.26 25.869h-1.303v1.522h1.303V25.87zM16.957 25.869h-1.305v1.522h1.305V25.87z" fill="#67CBDF"/><path d="M15.65 25.869h-1.302v1.522h1.302V25.87zM14.348 25.869h-1.305v1.522h1.305V25.87zM13.04 25.869h-1.302v1.522h1.302V25.87zM11.738 25.869h-1.302v1.522h1.302V25.87zM10.436 25.869H9.13v1.522h1.305V25.87zM9.128 25.869H7.826v1.522h1.302V25.87z" fill="#12A9BE"/><path d="M23.476 24.346h-1.305v1.523h1.305v-1.523z" fill="#67CBDF"/><path d="M22.171 24.346H20.87v1.523h1.302v-1.523zM20.87 24.346h-1.306v1.523h1.305v-1.523zM19.562 24.346h-1.303v1.523h1.303v-1.523z" fill="#67CBDF"/><path d="M18.26 24.346h-1.303v1.523h1.303v-1.523zM16.957 24.346h-1.305v1.523h1.305v-1.523z" fill="#67CBDF"/><path d="M15.65 24.346h-1.302v1.523h1.302v-1.523zM14.348 24.346h-1.305v1.523h1.305v-1.523zM13.04 24.346h-1.302v1.523h1.302v-1.523zM11.738 24.346h-1.302v1.523h1.302v-1.523zM10.436 24.346H9.13v1.523h1.305v-1.523zM9.128 24.346H7.826v1.523h1.302v-1.523zM7.826 24.346H6.521v1.523h1.305v-1.523z" fill="#12A9BE"/><path d="M24.783 22.827h-1.305v1.52h1.305v-1.52zM23.476 22.827h-1.305v1.52h1.305v-1.52z" fill="#67CBDF"/><path d="M22.171 22.827H20.87v1.52h1.302v-1.52zM20.87 22.827h-1.306v1.52h1.305v-1.52zM19.562 22.827h-1.303v1.52h1.303v-1.52z" fill="#67CBDF"/><path d="M18.26 22.827h-1.303v1.52h1.303v-1.52zM16.957 22.827h-1.305v1.52h1.305v-1.52z" fill="#67CBDF"/><path d="M15.65 22.827h-1.302v1.52h1.302v-1.52z" fill="#BAE4EB"/><path d="M14.348 22.827h-1.305v1.52h1.305v-1.52zM13.04 22.827h-1.302v1.52h1.302v-1.52zM11.738 22.827h-1.302v1.52h1.302v-1.52zM10.436 22.827H9.13v1.52h1.305v-1.52zM9.128 22.827H7.826v1.52h1.302v-1.52zM7.826 22.827H6.521v1.52h1.305v-1.52zM6.519 22.827H5.217v1.52h1.302v-1.52z" fill="#12A9BE"/><path d="M26.083 21.305h-1.302v1.522h1.302v-1.523z" fill="#67CBDF"/><path d="M24.783 21.305h-1.305v1.522h1.305v-1.523zM23.476 21.305h-1.305v1.522h1.305v-1.523z" fill="#67CBDF"/><path d="M22.171 21.305H20.87v1.522h1.302v-1.523zM20.87 21.305h-1.306v1.522h1.305v-1.523zM19.562 21.305h-1.303v1.522h1.303v-1.523z" fill="#67CBDF"/><path d="M18.26 21.305h-1.303v1.522h1.303v-1.523z" fill="#67CBDF"/><path d="M16.957 21.305h-1.305v1.522h1.305v-1.523zM15.65 21.305h-1.302v1.522h1.302v-1.523zM14.348 21.305h-1.305v1.522h1.305v-1.523z" fill="#BAE4EB"/><path d="M13.04 21.305h-1.302v1.522h1.302v-1.523zM11.738 21.305h-1.302v1.522h1.302v-1.523zM10.436 21.305H9.13v1.522h1.305v-1.523zM9.128 21.305H7.826v1.522h1.302v-1.523zM7.826 21.305H6.521v1.522h1.305v-1.523zM6.519 21.305H5.217v1.522h1.302v-1.523zM5.217 21.305H3.912v1.522h1.305v-1.523z" fill="#12A9BE"/><path d="M27.39 19.782h-1.304v1.523h1.305v-1.523zM26.083 19.782h-1.302v1.523h1.302v-1.523z" fill="#67CBDF"/><path d="M24.783 19.782h-1.305v1.523h1.305v-1.523zM23.476 19.782h-1.305v1.523h1.305v-1.523z" fill="#67CBDF"/><path d="M22.171 19.782H20.87v1.523h1.302v-1.523zM20.87 19.782h-1.306v1.523h1.305v-1.523zM19.562 19.782h-1.303v1.523h1.303v-1.523z" fill="#67CBDF"/><path d="M18.26 19.782h-1.303v1.523h1.303v-1.523zM16.957 19.782h-1.305v1.523h1.305v-1.523z" fill="#BAE4EB"/><path d="M15.65 19.782h-1.302v1.523h1.302v-1.523z" fill="#12A9BE"/><path d="M14.348 19.782h-1.305v1.523h1.305v-1.523zM13.04 19.782h-1.302v1.523h1.302v-1.523z" fill="#BAE4EB"/><path d="M11.738 19.782h-1.302v1.523h1.302v-1.523zM10.436 19.782H9.13v1.523h1.305v-1.523zM9.128 19.782H7.826v1.523h1.302v-1.523zM7.826 19.782H6.521v1.523h1.305v-1.523zM6.519 19.782H5.217v1.523h1.302v-1.523zM5.217 19.782H3.912v1.523h1.305v-1.523zM3.912 19.782H2.61v1.523h1.302v-1.523z" fill="#12A9BE"/><path d="M28.693 18.263H27.39v1.52h1.303v-1.52z" fill="#67CBDF"/><path d="M27.39 18.263h-1.304v1.52h1.305v-1.52zM26.083 18.263h-1.302v1.52h1.302v-1.52z" fill="#67CBDF"/><path d="M24.783 18.263h-1.305v1.52h1.305v-1.52zM23.476 18.263h-1.305v1.52h1.305v-1.52z" fill="#67CBDF"/><path d="M22.171 18.263H20.87v1.52h1.302v-1.52zM20.87 18.263h-1.306v1.52h1.305v-1.52z" fill="#67CBDF"/><path d="M19.562 18.263h-1.303v1.52h1.303v-1.52z" fill="#BAE4EB"/><path d="M18.26 18.263h-1.303v1.52h1.303v-1.52z" fill="#BAE4EB"/><path d="M16.957 18.263h-1.305v1.52h1.305v-1.52zM15.65 18.263h-1.302v1.52h1.302v-1.52zM14.348 18.263h-1.305v1.52h1.305v-1.52z" fill="#12A9BE"/><path d="M13.04 18.263h-1.302v1.52h1.302v-1.52zM11.738 18.263h-1.302v1.52h1.302v-1.52z" fill="#BAE4EB"/><path d="M10.436 18.263H9.13v1.52h1.305v-1.52zM9.128 18.263H7.826v1.52h1.302v-1.52zM7.826 18.263H6.521v1.52h1.305v-1.52zM6.519 18.263H5.217v1.52h1.302v-1.52zM5.217 18.263H3.912v1.52h1.305v-1.52zM3.912 18.263H2.61v1.52h1.302v-1.52zM2.61 18.263H1.305v1.52H2.61v-1.52z" fill="#12A9BE"/><path d="M29.997 16.737h-1.304v1.523h1.304v-1.523zM28.693 16.737H27.39v1.523h1.303v-1.523z" fill="#77CEE3"/><path d="M27.39 16.737h-1.304v1.523h1.305v-1.523zM26.083 16.737h-1.302v1.523h1.302v-1.523z" fill="#77CEE3"/><path d="M24.783 16.737h-1.305v1.523h1.305v-1.523zM23.476 16.737h-1.305v1.523h1.305v-1.523z" fill="#77CEE3"/><path d="M22.171 16.737H20.87v1.523h1.302v-1.523z" fill="#77CEE3"/><path d="M20.87 16.737h-1.306v1.523h1.305v-1.523zM19.562 16.737h-1.303v1.523h1.303v-1.523z" fill="#BAE4EB"/><path d="M18.26 16.737h-1.303v1.523h1.303v-1.523zM16.957 16.737h-1.305v1.523h1.305v-1.523zM15.65 16.737h-1.302v1.523h1.302v-1.523zM14.348 16.737h-1.305v1.523h1.305v-1.523zM13.04 16.737h-1.302v1.523h1.302v-1.523z" fill="#12A9BE"/><path d="M11.738 16.737h-1.302v1.523h1.302v-1.523zM10.436 16.737H9.13v1.523h1.305v-1.523z" fill="#BAE4EB"/><path d="M9.128 16.737H7.826v1.523h1.302v-1.523zM7.826 16.737H6.521v1.523h1.305v-1.523zM6.519 16.737H5.217v1.523h1.302v-1.523zM5.217 16.737H3.912v1.523h1.305v-1.523zM3.912 16.737H2.61v1.523h1.302v-1.523zM2.61 16.737H1.305v1.523H2.61v-1.523zM1.305 16.737H0v1.523h1.305v-1.523z" fill="#38B5CA"/><path d="M28.693 15.218H27.39v1.52h1.303v-1.52z" fill="#8ED4E6"/><path d="M27.39 15.218h-1.304v1.52h1.305v-1.52zM26.083 15.218h-1.302v1.52h1.302v-1.52z" fill="#8ED4E6"/><path d="M24.783 15.218h-1.305v1.52h1.305v-1.52zM23.476 15.218h-1.305v1.52h1.305v-1.52z" fill="#8ED4E6"/><path d="M22.171 15.218H20.87v1.52h1.302v-1.52zM20.87 15.218h-1.306v1.52h1.305v-1.52z" fill="#8ED4E6"/><path d="M19.562 15.218h-1.303v1.52h1.303v-1.52z" fill="#BAE4EB"/><path d="M18.26 15.218h-1.303v1.52h1.303v-1.52z" fill="#BAE4EB"/><path d="M16.957 15.218h-1.305v1.52h1.305v-1.52zM15.65 15.218h-1.302v1.52h1.302v-1.52zM14.348 15.218h-1.305v1.52h1.305v-1.52z" fill="#12A9BE"/><path d="M13.04 15.218h-1.302v1.52h1.302v-1.52zM11.738 15.218h-1.302v1.52h1.302v-1.52z" fill="#BAE4EB"/><path d="M10.436 15.218H9.13v1.52h1.305v-1.52zM9.128 15.218H7.826v1.52h1.302v-1.52zM7.826 15.218H6.521v1.52h1.305v-1.52zM6.519 15.218H5.217v1.52h1.302v-1.52zM5.217 15.218H3.912v1.52h1.305v-1.52zM3.912 15.218H2.61v1.52h1.302v-1.52zM2.61 15.218H1.305v1.52H2.61v-1.52z" fill="#67CBDF"/><path d="M27.39 13.695h-1.304v1.523h1.305v-1.523zM26.083 13.695h-1.302v1.523h1.302v-1.523z" fill="#8ED4E6"/><path d="M24.783 13.695h-1.305v1.523h1.305v-1.523zM23.476 13.695h-1.305v1.523h1.305v-1.523z" fill="#8ED4E6"/><path d="M22.171 13.695H20.87v1.523h1.302v-1.523zM20.87 13.695h-1.306v1.523h1.305v-1.523zM19.562 13.695h-1.303v1.523h1.303v-1.523z" fill="#8ED4E6"/><path d="M18.26 13.695h-1.303v1.523h1.303v-1.523zM16.957 13.695h-1.305v1.523h1.305v-1.523z" fill="#BAE4EB"/><path d="M15.65 13.695h-1.302v1.523h1.302v-1.523z" fill="#12A9BE"/><path d="M14.348 13.695h-1.305v1.523h1.305v-1.523zM13.04 13.695h-1.302v1.523h1.302v-1.523z" fill="#BAE4EB"/><path d="M11.738 13.695h-1.302v1.523h1.302v-1.523zM10.436 13.695H9.13v1.523h1.305v-1.523zM9.128 13.695H7.826v1.523h1.302v-1.523zM7.826 13.695H6.521v1.523h1.305v-1.523zM6.519 13.695H5.217v1.523h1.302v-1.523zM5.217 13.695H3.912v1.523h1.305v-1.523zM3.912 13.695H2.61v1.523h1.302v-1.523z" fill="#67CBDF"/><path d="M26.083 12.173h-1.302v1.522h1.302v-1.522z" fill="#8ED4E6"/><path d="M24.783 12.173h-1.305v1.522h1.305v-1.522zM23.476 12.173h-1.305v1.522h1.305v-1.522z" fill="#8ED4E6"/><path d="M22.171 12.173H20.87v1.522h1.302v-1.522zM20.87 12.173h-1.306v1.522h1.305v-1.522zM19.562 12.173h-1.303v1.522h1.303v-1.522z" fill="#8ED4E6"/><path d="M18.26 12.173h-1.303v1.522h1.303v-1.522z" fill="#8ED4E6"/><path d="M16.957 12.173h-1.305v1.522h1.305v-1.522zM15.65 12.173h-1.302v1.522h1.302v-1.522zM14.348 12.173h-1.305v1.522h1.305v-1.522z" fill="#BAE4EB"/><path d="M13.04 12.173h-1.302v1.522h1.302v-1.522zM11.738 12.173h-1.302v1.522h1.302v-1.522zM10.436 12.173H9.13v1.522h1.305v-1.522zM9.128 12.173H7.826v1.522h1.302v-1.522zM7.826 12.173H6.521v1.522h1.305v-1.522zM6.519 12.173H5.217v1.522h1.302v-1.522zM5.217 12.173H3.912v1.522h1.305v-1.522z" fill="#67CBDF"/><path d="M24.783 10.65h-1.305v1.523h1.305v-1.522zM23.476 10.65h-1.305v1.523h1.305v-1.522z" fill="#8ED4E6"/><path d="M22.171 10.65H20.87v1.523h1.302v-1.522zM20.87 10.65h-1.306v1.523h1.305v-1.522zM19.562 10.65h-1.303v1.523h1.303v-1.522z" fill="#8ED4E6"/><path d="M18.26 10.65h-1.303v1.523h1.303v-1.522zM16.957 10.65h-1.305v1.523h1.305v-1.522z" fill="#8ED4E6"/><path d="M15.65 10.65h-1.302v1.523h1.302v-1.522z" fill="#BAE4EB"/><path d="M14.348 10.65h-1.305v1.523h1.305v-1.522zM13.04 10.65h-1.302v1.523h1.302v-1.522zM11.738 10.65h-1.302v1.523h1.302v-1.522zM10.436 10.65H9.13v1.523h1.305v-1.522zM9.128 10.65H7.826v1.523h1.302v-1.522zM7.826 10.65H6.521v1.523h1.305v-1.522zM6.519 10.65H5.217v1.523h1.302v-1.522z" fill="#67CBDF"/><path d="M23.476 9.128h-1.305v1.523h1.305V9.128z" fill="#8ED4E6"/><path d="M22.171 9.128H20.87v1.523h1.302V9.128zM20.87 9.128h-1.306v1.523h1.305V9.128zM19.562 9.128h-1.303v1.523h1.303V9.128z" fill="#8ED4E6"/><path d="M18.26 9.128h-1.303v1.523h1.303V9.128zM16.957 9.128h-1.305v1.523h1.305V9.128z" fill="#8ED4E6"/><path d="M15.65 9.128h-1.302v1.523h1.302V9.128zM14.348 9.128h-1.305v1.523h1.305V9.128zM13.04 9.128h-1.302v1.523h1.302V9.128zM11.738 9.128h-1.302v1.523h1.302V9.128zM10.436 9.128H9.13v1.523h1.305V9.128zM9.128 9.128H7.826v1.523h1.302V9.128zM7.826 9.128H6.521v1.523h1.305V9.128z" fill="#67CBDF"/><path d="M22.171 7.609H20.87v1.522h1.302V7.61zM20.87 7.609h-1.306v1.522h1.305V7.61zM19.562 7.609h-1.303v1.522h1.303V7.61z" fill="#8ED4E6"/><path d="M18.26 7.609h-1.303v1.522h1.303V7.61zM16.957 7.609h-1.305v1.522h1.305V7.61z" fill="#8ED4E6"/><path d="M15.65 7.609h-1.302v1.522h1.302V7.61zM14.348 7.609h-1.305v1.522h1.305V7.61zM13.04 7.609h-1.302v1.522h1.302V7.61zM11.738 7.609h-1.302v1.522h1.302V7.61zM10.436 7.609H9.13v1.522h1.305V7.61zM9.128 7.609H7.826v1.522h1.302V7.61z" fill="#67CBDF"/><path d="M20.87 6.087h-1.306v1.522h1.305V6.087zM19.562 6.087h-1.303v1.522h1.303V6.087z" fill="#8ED4E6"/><path d="M18.26 6.087h-1.303v1.522h1.303V6.087zM16.957 6.087h-1.305v1.522h1.305V6.087z" fill="#8ED4E6"/><path d="M15.65 6.087h-1.302v1.522h1.302V6.087zM14.348 6.087h-1.305v1.522h1.305V6.087zM13.04 6.087h-1.302v1.522h1.302V6.087zM11.738 6.087h-1.302v1.522h1.302V6.087zM10.436 6.087H9.13v1.522h1.305V6.087z" fill="#67CBDF"/><path d="M19.562 4.564h-1.303v1.523h1.303V4.564z" fill="#8ED4E6"/><path d="M18.26 4.564h-1.303v1.523h1.303V4.564zM16.957 4.564h-1.305v1.523h1.305V4.564z" fill="#8ED4E6"/><path d="M15.65 4.564h-1.302v1.523h1.302V4.564zM14.348 4.564h-1.305v1.523h1.305V4.564zM13.04 4.564h-1.302v1.523h1.302V4.564zM11.738 4.564h-1.302v1.523h1.302V4.564z" fill="#67CBDF"/><path d="M18.26 3.042h-1.303v1.522h1.303V3.042zM16.957 3.042h-1.305v1.522h1.305V3.042z" fill="#8ED4E6"/><path d="M15.65 3.042h-1.302v1.522h1.302V3.042zM14.348 3.042h-1.305v1.522h1.305V3.042zM13.04 3.042h-1.302v1.522h1.302V3.042z" fill="#67CBDF"/><path d="M16.957 1.52h-1.305v1.522h1.305V1.519z" fill="#8ED4E6"/><path d="M15.65 1.52h-1.302v1.522h1.302V1.519zM14.348 1.52h-1.305v1.522h1.305V1.519z" fill="#67CBDF"/><path d="M15.65 0h-1.302v1.52h1.302V0z" fill="#67CBDF"/></svg>