<svg viewBox="0 0 36 55" fill="none" xmlns="http://www.w3.org/2000/svg"><path d="M1.591 27.8a.033.033 0 0 1 .03-.003c.042-.01.083-.017.121-.034.467-.204.933-.412 1.4-.612 1.063-.46 2.13-.912 3.193-1.372.895-.387 1.79-.78 2.686-1.168 1.063-.46 2.13-.912 3.194-1.371.895-.387 1.79-.781 2.685-1.168 1.002-.432 2.004-.867 3.009-1.293.226-.096.442-.231.693-.269l.007.007v16.858c0 .087-.004.173-.004.256-.494-.276-.988-.55-1.475-.833-2.771-1.596-5.543-3.196-8.318-4.792l-7.008-4.033c-.065-.038-.124-.1-.213-.096V27.8z" fill="#7B86C2"/><path d="M18.609.905V.867h.038v.038h-.038z" fill="#8792C7"/><path d="M18.608.905h.035c.45.705.902 1.41 1.348 2.114 1.358 2.15 2.713 4.299 4.072 6.448 2.902 4.595 5.804 9.194 8.71 13.79l2.767 4.385c.031.048.086.093.076.162-.031-.003-.062-.003-.09-.017l-1.337-.58c-.981-.426-1.959-.854-2.94-1.276-1.063-.46-2.13-.915-3.194-1.375l-2.94-1.275c-.99-.428-1.982-.853-2.973-1.282-.971-.418-1.935-.843-2.91-1.254-.201-.086-.394-.221-.627-.232l-.007-.006c.004-.056.007-.111.007-.166V1.16c0-.063.028-.139-.038-.187a1.22 1.22 0 0 0 .041-.07z" fill="#7B86C2"/><path d="M18.609 20.517c.233.007.422.145.627.231.975.412 1.938.837 2.91 1.255.99.428 1.982.853 2.973 1.282l2.94 1.275c1.063.46 2.13.915 3.194 1.375l2.94 1.275 1.337.58c.028.01.059.01.09.018.02.086-.055.1-.104.127-1.718.989-3.437 1.973-5.152 2.962-1.297.746-2.59 1.496-3.883 2.242-2.137 1.23-4.274 2.464-6.411 3.694-.425.245-.85.49-1.28.736-.054.03-.106.086-.181.069 0-.087.003-.173.003-.256-.003-5.625-.003-11.247-.003-16.865z" fill="#606BB2"/><path d="M18.612 41.325c1.256-.723 2.511-1.441 3.767-2.163 4.352-2.509 8.709-5.014 13.062-7.522.041-.025.09-.042.13-.06.007.008.014.011.018.018a271.04 271.04 0 0 1-1.157 1.603 7331.66 7331.66 0 0 1-4.586 6.272c-2.408 3.293-4.82 6.585-7.227 9.878-1.304 1.78-2.6 3.563-3.904 5.342-.02.028-.048.052-.072.08h-.038l-.003.003c0-.08.003-.159.003-.238V41.563c.004-.08.007-.159.007-.238z" fill="#7B86C2"/><path d="M18.612 41.325c-.003.08-.003.159-.003.238v12.975c0 .08-.004.159-.004.238-.343-.46-.686-.916-1.025-1.379A222677.663 222677.663 0 0 1 7.437 39.521l-3.654-4.993c-.703-.96-1.406-1.921-2.11-2.878-.01-.014-.013-.028-.027-.062.192.038.33.155.48.241 1.942 1.117 3.883 2.236 5.825 3.356 2.257 1.302 4.514 2.601 6.771 3.9 1.293.75 2.594 1.493 3.89 2.24z" fill="#9FA7D3"/><path d="M35.571 31.581c.01-.014.025-.028.039-.007 0 .003-.014.014-.021.024a.042.042 0 0 0-.018-.017z" fill="#7B86C2"/><path d="M18.605 54.776h.038c-.01.028-.024.039-.038 0z" fill="#8792C7"/><path d="M18.567.977c.066.052.038.125.038.187v19.18c0 .055-.003.11-.007.166-.25.038-.463.173-.693.27-1.005.424-2.006.86-3.008 1.292-.895.387-1.79.78-2.686 1.168-1.063.46-2.13.912-3.194 1.371-.895.387-1.79.781-2.685 1.168-1.064.46-2.13.913-3.194 1.372-.466.2-.933.408-1.4.612-.037.017-.078.024-.12.034.299-.483.594-.967.896-1.448 1.461-2.315 2.926-4.63 4.387-6.941 1.454-2.305 2.909-4.61 4.367-6.914l4.284-6.79c.902-1.427 1.801-2.85 2.707-4.274.1-.156.171-.328.308-.453z" fill="#9FA7D3"/><path d="M13.384 10.193h-2.483v2.501h2.483v-2.501z" fill="#9FA7D3"/><path d="M12.348 12.56H9.865v2.501h2.483v-2.502z" fill="#9FA7D3"/><path d="M11.107 14.353H8.623v2.501h2.484v-2.501z" fill="#9FA7D3"/><path d="M9.865 16.232H7.382v2.502h2.483v-2.502z" fill="#9FA7D3"/><path d="M8.836 17.483H6.352v2.502h2.484v-2.502z" fill="#9FA7D3"/><path d="M7.594 18.876H5.111v2.501h2.483v-2.501z" fill="#9FA7D3"/><path d="M6.692 20.614H4.208v2.501h2.484v-2.501z" fill="#9FA7D3"/><path d="M5.45 22.265H2.967v2.502H5.45v-2.502z" fill="#9FA7D3"/><path d="M4.551 23.948H2.068v2.502H4.55v-2.502z" fill="#9FA7D3"/><path d="M3.31 25.655H.826v2.502H3.31v-2.502z" fill="#9FA7D3"/><path d="M4.551 27.113H2.068v2.502H4.55v-2.502z" fill="#7B86C2"/><path d="M5.793 25.454H3.31v2.502h2.483v-2.502zM6.88 28.364H4.398v2.502h2.484v-2.502z" fill="#7B86C2"/><path d="M9.141 29.477H6.658v2.501H9.14v-2.502z" fill="#7B86C2"/><path d="M11.107 30.727H8.623v2.502h2.484v-2.502z" fill="#7B86C2"/><path d="M13.165 31.798H10.68V34.3h2.484v-2.502z" fill="#7B86C2"/><path d="M15.12 32.597h-2.483v2.501h2.483v-2.501z" fill="#7B86C2"/><path d="M16.729 33.844h-2.484v2.502h2.484v-2.502z" fill="#7B86C2"/><path d="M18.567 35.136h-2.483v2.502h2.483v-2.502zM21.127 39.787h-2.484v2.502h2.484v-2.502z" fill="#7B86C2"/><path d="M23.61 38.678h-2.483v2.502h2.483v-2.502z" fill="#7B86C2"/><path d="M25.528 37.638h-2.484v2.502h2.484v-2.502z" fill="#7B86C2"/><path d="M27.449 36.767h-2.484v2.502h2.484v-2.502z" fill="#7B86C2"/><path d="M29.133 35.654h-2.484v2.502h2.484v-2.502zM31.753 34.266H29.27v2.501h2.483v-2.502z" fill="#7B86C2"/><path d="M30.563 35.136H28.08v2.502h2.483v-2.502z" fill="#7B86C2"/><path d="M32.67 35.13h-2.484v2.5h2.483v-2.5z" fill="#7B86C2"/><path d="M31.428 36.536h-2.484v2.501h2.484v-2.501z" fill="#7B86C2"/><path d="M30.512 38.678h-2.484v2.502h2.484v-2.502z" fill="#7B86C2"/><path d="M28.944 40.426H26.46v2.502h2.484v-2.502z" fill="#7B86C2"/><path d="M27.538 41.93h-2.484v2.5h2.484v-2.5z" fill="#7B86C2"/><path d="M26.46 43.705h-2.483v2.502h2.484v-2.502z" fill="#7B86C2"/><path d="M25.528 44.956h-2.484v2.502h2.484v-2.502z" fill="#7B86C2"/><path d="M24.149 46.207h-2.484v2.502h2.484v-2.502z" fill="#7B86C2"/><path d="M23.044 47.651h-2.483v2.502h2.483V47.65z" fill="#7B86C2"/><path d="M21.97 49.697h-2.483v2.501h2.483v-2.501zM21.051 52.198h-2.483V54.7h2.483v-2.502z" fill="#7B86C2"/><path d="M18.657 52.198h-2.484V54.7h2.484v-2.502z" fill="#9FA7D3"/><path d="M33.678 33.215h-2.484v2.502h2.484v-2.502z" fill="#7B86C2"/><path d="M35.62 31.622h-2.484v2.502h2.483v-2.502zM8.122 24.611H5.64v2.502h2.483v-2.502z" fill="#7B86C2"/><path d="M10.126 23.516H7.642v2.502h2.484v-2.502z" fill="#7B86C2"/><path d="M12.348 22.7H9.865v2.502h2.483v-2.501zM14.832 21.598H12.35V24.1h2.483v-2.502z" fill="#7B86C2"/><path d="M17.051 20.755h-2.483v2.502h2.483v-2.502z" fill="#7B86C2"/><path d="M18.818 19.985h-2.484v2.501h2.484v-2.501z" fill="#7B86C2"/><path d="M21.051 20.127h-2.483v2.501h2.483v-2.502z" fill="#606BB2"/><path d="M23.044 21.236h-2.483v2.501h2.483v-2.501z" fill="#606BB2"/><path d="M25.198 22.265h-2.483v2.502h2.483v-2.502z" fill="#606BB2"/><path d="M27.449 23.115h-2.484v2.502h2.484v-2.502z" fill="#606BB2"/><path d="M29.764 23.948h-2.483v2.502h2.483v-2.502z" fill="#606BB2"/><path d="M32.048 24.922h-2.483v2.502h2.483v-2.502z" fill="#606BB2"/><path d="M35.62 24.611h-2.484v2.502h2.483v-2.502z" fill="#7B86C2"/><path d="M33.911 22.265h-2.484v2.502h2.484v-2.502z" fill="#7B86C2"/><path d="M32.67 20.23h-2.484v2.502h2.483V20.23z" fill="#7B86C2"/><path d="M31.428 18.513h-2.484v2.502h2.484v-2.502z" fill="#7B86C2"/><path d="M29.932 16.854h-2.483v2.502h2.483v-2.502z" fill="#7B86C2"/><path d="M28.944 14.982H26.46v2.501h2.484v-2.501z" fill="#7B86C2"/><path d="M27.702 13.33H25.22v2.502h2.483V13.33z" fill="#7B86C2"/><path d="M26.46 11.851h-2.483v2.502h2.484V11.85z" fill="#7B86C2"/><path d="M25.72 10.362h-2.484v2.502h2.484v-2.502z" fill="#7B86C2"/><path d="M24.626 8.423h-2.484v2.502h2.484V8.423z" fill="#7B86C2"/><path d="M23.535 6.61H21.05V9.11h2.484V6.61z" fill="#7B86C2"/><path d="M22.142 4.892h-2.484v2.502h2.484V4.892z" fill="#7B86C2"/><path d="M21.404 3.42h-2.483v2.502h2.483V3.42z" fill="#7B86C2"/><path d="M21.096.943h-2.484v2.501h2.484V.943z" fill="#7B86C2"/><path d="M36 27.113h-2.483v2.502H36v-2.502zM33.517 28.675h-2.484v2.502h2.484v-2.502z" fill="#606BB2"/><path d="M31.428 29.615h-2.484v2.501h2.484v-2.501z" fill="#606BB2"/><path d="M29.575 30.866h-2.483v2.501h2.483v-2.501z" fill="#606BB2"/><path d="M27.449 31.964h-2.484v2.502h2.484v-2.502z" fill="#606BB2"/><path d="M25.528 32.873h-2.484v2.502h2.484v-2.502z" fill="#606BB2"/><path d="M23.044 34.266h-2.483v2.501h2.483v-2.502z" fill="#606BB2"/><path d="M20.89 35.136h-2.484v2.502h2.484v-2.502z" fill="#606BB2"/><path d="M14.832 8.423H12.35v2.502h2.483V8.423zM16.31 5.922h-2.483v2.501h2.483V5.922zM17.401 3.42h-2.483v2.502H17.4V3.42z" fill="#9FA7D3"/><path d="M18.838.943h-2.483v2.501h2.483V.943z" fill="#9FA7D3"/><path d="M34.237 25.862h-2.484v2.502h2.484v-2.502z" fill="#606BB2"/><path d="M16.358 42.291h2.483V39.79h-2.483v2.502zM13.875 41.177h2.483v-2.502h-2.483v2.502z" fill="#9FA7D3"/><path d="M11.955 40.137h2.484v-2.502h-2.484v2.502z" fill="#9FA7D3"/><path d="M10.035 39.266h2.483v-2.502h-2.483v2.502z" fill="#9FA7D3"/><path d="M8.353 38.157h2.483v-2.502H8.353v2.502zM5.732 36.764h2.484v-2.501H5.732v2.501z" fill="#9FA7D3"/><path d="M6.92 37.636h2.484v-2.502H6.92v2.502z" fill="#9FA7D3"/><path d="M4.817 37.634H7.3v-2.501H4.817v2.501z" fill="#9FA7D3"/><path d="M6.058 39.038h2.484v-2.502H6.058v2.502z" fill="#9FA7D3"/><path d="M6.974 41.177h2.484v-2.502H6.974v2.502z" fill="#9FA7D3"/><path d="M8.541 42.927h2.484v-2.501H8.54v2.501z" fill="#9FA7D3"/><path d="M9.947 44.428h2.483v-2.501H9.947v2.501z" fill="#9FA7D3"/><path d="M11.024 46.206h2.484v-2.501h-2.483v2.502z" fill="#9FA7D3"/><path d="M11.955 47.457h2.484v-2.502h-2.484v2.502z" fill="#9FA7D3"/><path d="M13.333 48.708h2.484v-2.502h-2.484v2.502z" fill="#9FA7D3"/><path d="M14.03 50.423h2.484v-2.502H14.03v2.502z" fill="#9FA7D3"/><path d="M15.272 52.2h2.483v-2.502h-2.483v2.501zM3.808 35.718h2.484v-2.501H3.808v2.501z" fill="#9FA7D3"/><path d="M1.864 34.122h2.484v-2.501H1.864v2.501z" fill="#9FA7D3"/></svg>