<svg width="20" height="20" fill="none" xmlns="http://www.w3.org/2000/svg"><g clip-path="url(#clip0)" fill="#000"><path d="M2.25 8.223l.005-3.635 2.384.003.006-1.697 3.119.003v-1.9L4.457.994c-.436 0-.847.128-1.188.366-.416.3-.647.72-.647 1.187v.14h-.529a2.07 2.07 0 00-1.211.367c-.42.296-.648.712-.65 1.165L.226 8.223h2.023zM5.036 15.623H2.55l.006-3.118H.446L.44 16.02c0 .503.238.962.675 1.291.353.267.79.407 1.266.407h.545v.177c0 .5.239.959.676 1.291.352.266.78.404 1.235.404l3.479.003v-2.096l-3.28-.003v-1.872zM13.983 4.595l2.061.003-.005 3.625h1.768l.005-3.987c0-.456-.2-.871-.566-1.17a1.65 1.65 0 00-1.058-.37h-.434v-.14c0-.47-.2-.891-.566-1.19a1.619 1.619 0 00-1.036-.37L11.53.995v1.901l2.455.003-.002 1.697zM16.04 12.56l-.002 3.19-2.065-.004-.003 1.908-2.44-.003v2.136l2.605.003h.002c.382 0 .742-.144 1.035-.412.367-.333.57-.797.57-1.313v-.183h.438c.397 0 .764-.143 1.06-.412.365-.332.567-.8.57-1.309l.002-3.6H16.04z"/></g><defs><clipPath id="clip0"><path fill="#fff" transform="translate(.44 .525)" d="M0 0h19.399v19.076H0z"/></clipPath></defs></svg>
