<svg viewBox="0 0 41 40" fill="none" xmlns="http://www.w3.org/2000/svg"><path d="M36.274 39.823h-7.81c-.008-5.056-.016-10.112-.028-15.17-.004-1.35-.137-1.503-1.352-1.503-4.78-.005-9.556-.002-14.335 0-1.346 0-1.446.115-1.448 1.613l-.024 15.06H3.466c-.175-.562-.495-1.122-.499-1.686-.04-4.766-.029-9.533-.013-14.299.002-.463.072-.956.225-1.38 1.55-4.302 3.115-8.6 4.715-12.879.155-.412.53-.836.894-1.013A548.4 548.4 0 0 1 19.19 3.624c.361-.165.891-.141 1.258.027a525.906 525.906 0 0 1 10.32 4.88c.392.19.8.636.967 1.077 1.615 4.273 3.187 8.565 4.751 12.86.17.463.293.983.295 1.476.021 4.767.03 9.533-.01 14.3-.006.528-.324 1.052-.497 1.579zM19.897 9.88c-1.464 0-2.926.018-4.39-.007-.701-.01-1.011.326-1.007 1.111.011 2.162.015 4.326-.002 6.488-.006.796.3 1.117.997 1.115 2.926-.015 5.852-.015 8.778 0 .724.005.964-.385.956-1.155a314.026 314.026 0 0 1 0-6.38c.008-.833-.285-1.199-1.042-1.18-1.429.03-2.86.006-4.29.008z" fill="#8C1821"/><path d="M11.277 39.823c.008-5.02.014-10.04.024-15.06.002-1.498.102-1.613 1.448-1.613 4.779-.002 9.556-.002 14.335 0 1.215 0 1.348.152 1.352 1.502.012 5.056.018 10.113.027 15.171h-1.952c-2.194-2.261-4.389-4.52-6.642-6.844-2.253 2.321-4.445 4.583-6.639 6.844h-1.953zm15.754-1.73v-12.41l-6.076 6.205 6.076 6.205zm-8.247-6.203c-2.045-2.084-4.002-4.08-6.06-6.18v12.365c2.064-2.109 4.01-4.092 6.06-6.185zm6.99-7.154H13.957c2.059 2.102 3.972 4.059 5.917 6.043l5.902-6.043z" fill="#A97C50"/><path d="M39.398 22.65c-1.034.471-1.244.396-1.686-.795-1.603-4.319-3.2-8.643-4.77-12.977-.303-.837-.748-1.36-1.51-1.706-3.548-1.62-7.061-3.342-10.621-4.935-.564-.252-1.372-.241-1.938.013A308.9 308.9 0 0 0 8.185 7.29c-.579.287-1.16.967-1.41 1.626-1.608 4.198-3.123 8.442-4.668 12.67-.074.204-.141.41-.22.611-.214.547-.55 1.064-1.087.66-.25-.189-.365-.861-.3-1.264.102-.635.406-1.228.63-1.836C2.537 15.899 3.966 12.05 5.345 8.18c.428-1.202 1.115-2 2.179-2.49A852.21 852.21 0 0 0 18.398.584c.996-.476 1.92-.476 2.913-.004 3.648 1.735 7.307 3.438 10.969 5.133.993.46 1.648 1.22 2.055 2.341 1.519 4.2 3.067 8.389 4.614 12.578.12.323.298.615.45.922v1.096z" fill="#939598"/><path d="m18.023 29.73-.004 2.474 2.065.005.004-2.474-2.065-.005z" fill="#A97C50"/><path d="m16.99 28.743-.005 2.474 2.065.004.004-2.474-2.065-.004z" fill="#A97C50"/><path d="m15.956 27.639-.004 2.473 2.064.005.005-2.474-2.065-.004z" fill="#A97C50"/><path d="m14.92 26.518-.004 2.474 2.065.004.004-2.474-2.065-.004z" fill="#A97C50"/><path d="m13.886 25.279-.004 2.474 2.065.004.004-2.474-2.065-.004z" fill="#A97C50"/><path d="m12.726 24.338-.004 2.474 2.192.004.004-2.474-2.192-.004z" fill="#A97C50"/><path d="M.004 20.647 0 23.12l2.192.005.004-2.474-2.192-.004zM1.103 17.476l-.005 2.473 2.193.005.004-2.474-2.192-.005z" fill="#939598"/><path d="m1.844 15.887-.004 2.474 2.192.004.004-2.473-2.192-.005z" fill="#939598"/><path d="m2.509 14.227-.004 2.474 2.192.005.004-2.474-2.192-.005z" fill="#939598"/><path d="m3.068 12.31-.004 2.473 2.192.005.004-2.474-2.192-.005z" fill="#939598"/><path d="m3.607 10.54-.005 2.473 2.193.005.004-2.474-2.192-.005z" fill="#939598"/><path d="m4.326 8.73-.004 2.473 2.192.005.004-2.474-2.192-.004z" fill="#939598"/><path d="m5.151 7.26-.004 2.474 2.192.005.004-2.474-2.192-.005z" fill="#939598"/><path d="M5.803 5.818 5.799 8.29l2.192.005.004-2.474-2.192-.004z" fill="#939598"/><path d="m6.9 5.128-.004 2.474 2.192.005.004-2.474L6.9 5.128z" fill="#939598"/><path d="M8.283 4.318 8.28 6.792l2.192.005.004-2.474-2.192-.005z" fill="#939598"/><path d="M9.613 3.888 9.61 6.362l2.193.004.004-2.474-2.193-.004z" fill="#939598"/><path d="m11.023 3.079-.004 2.474 2.192.004.004-2.474-2.192-.004z" fill="#939598"/><path d="m12.307 2.479-.004 2.474 2.192.004.004-2.473-2.192-.005z" fill="#939598"/><path d="m13.717 1.7-.004 2.474 2.193.004.004-2.473-2.193-.005z" fill="#939598"/><path d="m14.94 1.24-.004 2.473 2.193.005.004-2.474-2.192-.005z" fill="#939598"/><path d="m16.297.6-.004 2.474 2.192.004.004-2.473L16.297.6z" fill="#939598"/><path d="m17.92 0-.004 2.473 2.192.005.004-2.474L17.92 0z" fill="#939598"/><path d="m19.869.222-.005 2.474 2.193.004.004-2.474-2.192-.004z" fill="#939598"/><path d="m21.092.882-.004 2.474 2.192.005.004-2.474-2.192-.005z" fill="#939598"/><path d="m20.57 3.97-.005 2.473 2.192.005.005-2.474-2.193-.005z" fill="#660F19"/><path d="m21.9 4.779-.004 2.474 2.192.004.004-2.473-2.192-.005z" fill="#660F19"/><path d="m23.287 5.558-.004 2.473 2.192.005.004-2.474-2.192-.004z" fill="#660F19"/><path d="m24.803 6.021-.004 2.474 2.192.005.004-2.474-2.192-.005z" fill="#660F19"/><path d="m26.674 6.797-.004 2.474 2.192.005.004-2.474-2.192-.005z" fill="#660F19"/><path d="m28.383 7.607-.004 2.474 2.192.004.005-2.474-2.193-.004z" fill="#660F19"/><path d="m29.745 8.499-.004 2.473 2.192.005.004-2.474-2.192-.004z" fill="#660F19"/><path d="m30.37 10.21-.005 2.474 2.193.005.004-2.474-2.192-.004z" fill="#660F19"/><path d="m31.013 11.45-.005 2.474 2.193.004.004-2.474-2.192-.004z" fill="#660F19"/><path d="m31.807 13.2-.004 2.473 2.192.005.004-2.474-2.192-.005z" fill="#660F19"/><path d="m32.517 15.27-.004 2.475 2.193.004.004-2.474-2.193-.004z" fill="#660F19"/><path d="m33.209 17.347-.004 2.474 2.192.005.004-2.474-2.192-.005z" fill="#660F19"/><path d="m34 19.597-.003 2.474 2.192.005.004-2.474-2.192-.005z" fill="#660F19"/><path d="m34.834 21.667-.03 18.152 2.19.006.03-18.153-2.19-.005z" fill="#660F19"/><path d="m22.608 1.24-.004 2.473 2.192.005.005-2.474-2.193-.005z" fill="#939598"/><path d="m23.705 2.122-.004 2.473 2.192.005.005-2.474-2.193-.004z" fill="#939598"/><path d="m25.408 2.478-.004 2.474 2.192.005.005-2.474-2.193-.005z" fill="#939598"/><path d="m26.819 3.339-.004 2.474 2.192.004.004-2.474-2.192-.004z" fill="#939598"/><path d="m28.174 3.969-.004 2.474 2.192.004.004-2.473-2.192-.005z" fill="#939598"/><path d="m29.744 4.778-.004 2.474 2.192.004.004-2.474-2.192-.004z" fill="#939598"/><path d="m31.419 5.557-.004 2.474 2.192.004.004-2.474-2.192-.004z" fill="#939598"/><path d="m32.518 6.797-.004 2.474 2.192.004.005-2.473-2.193-.005z" fill="#939598"/><path d="m33.208 8.357-.004 2.474 2.193.005.004-2.474-2.193-.005z" fill="#939598"/><path d="m33.733 10.212-.005 2.474 2.193.004.004-2.473-2.192-.005z" fill="#939598"/><path d="m34.306 11.609-.004 2.473 2.193.005.004-2.474-2.193-.004z" fill="#939598"/><path d="m34.832 13.198-.004 2.474 2.192.005.004-2.474-2.192-.005z" fill="#939598"/><path d="m35.405 14.438-.004 2.474 2.192.005.004-2.474-2.192-.005z" fill="#939598"/><path d="m35.929 16.298-.005 2.474 2.193.004.004-2.474-2.192-.004z" fill="#939598"/><path d="m36.502 17.918-.004 2.474 2.193.004.004-2.474-2.193-.004z" fill="#939598"/><path d="m37.208 19.748-.004 2.473 2.192.005.004-2.474-2.192-.004z" fill="#939598"/><path d="m37.873 20.987-.004 2.474 2.192.004.004-2.474-2.192-.004zM.485 18.976.481 21.45l2.192.005.004-2.474-2.192-.005z" fill="#939598"/><path d="m24.933 37.522-.004 2.474 2.065.004.004-2.474-2.065-.004z" fill="#A97C50"/><path d="m23.9 36.535-.004 2.473 2.064.005.004-2.474-2.064-.004z" fill="#A97C50"/><path d="m22.864 35.43-.004 2.474 2.065.004.004-2.474-2.065-.004z" fill="#A97C50"/><path d="m21.83 34.31-.003 2.473 2.064.005.004-2.474-2.064-.005z" fill="#A97C50"/><path d="m20.796 33.07-.004 2.474 2.065.004.004-2.474-2.065-.004z" fill="#A97C50"/><path d="m19.636 32.127-.004 2.474 2.192.004.004-2.473-2.192-.005z" fill="#A97C50"/><path d="m20.093 29.731-.005 2.474 2.193.005.004-2.474-2.192-.005z" fill="#A97C50"/><path d="m20.733 28.492-.004 2.474 2.192.005.004-2.474-2.192-.005z" fill="#A97C50"/><path d="m21.704 27.504-.004 2.474 2.192.005.005-2.474-2.193-.005zM17.44 32.128l-.004 2.474 2.192.004.005-2.474-2.193-.004z" fill="#A97C50"/><path d="m16.266 33.366-.004 2.474 2.192.005.004-2.474-2.192-.005z" fill="#A97C50"/><path d="m15.469 34.4-.005 2.473 2.193.005.004-2.474-2.192-.005z" fill="#A97C50"/><path d="m14.434 35.294-.004 2.474 2.192.005.004-2.474-2.192-.005z" fill="#A97C50"/><path d="m13.458 36.282-.004 2.474 2.192.004.004-2.474-2.192-.004z" fill="#A97C50"/><path d="m12.604 37.344-.004 2.474 2.192.004.004-2.473-2.192-.005zM22.802 26.266l-.004 2.473 2.192.005.004-2.474-2.192-.004z" fill="#A97C50"/><path d="m23.898 25.025-.004 2.474 2.192.004.005-2.474-2.193-.004z" fill="#A97C50"/><path d="m23.996 25.28-.004 2.473 2.192.005.005-2.474-2.193-.005z" fill="#A97C50"/><path d="m24.682 24.338-.005 2.473 2.193.005.004-2.474-2.192-.004z" fill="#A97C50"/><path d="m20.807 3.538-2.192.005.004 2.474 2.192-.005-.004-2.474z" fill="#660F19"/><path d="m19.255 3.967-2.192.005.004 2.474 2.192-.005-.004-2.474z" fill="#660F19"/><path d="m17.924 4.777-2.192.005.004 2.474 2.192-.005-.004-2.474z" fill="#660F19"/><path d="m16.537 5.558-2.192.005.004 2.474 2.192-.005-.004-2.474z" fill="#660F19"/><path d="m15.022 6.02-2.193.005.005 2.474 2.192-.004-.004-2.474z" fill="#660F19"/><path d="m13.151 6.798-2.192.004.004 2.474 2.192-.005-.004-2.473z" fill="#660F19"/><path d="m11.44 7.607-2.192.005.004 2.474 2.192-.005-.004-2.474z" fill="#660F19"/><path d="m10.08 8.5-2.192.004.004 2.474 2.192-.005-.004-2.474z" fill="#660F19"/><path d="m9.454 10.212-2.192.004.004 2.474 2.192-.004-.004-2.474z" fill="#660F19"/><path d="m8.812 11.45-2.192.006.004 2.473 2.192-.004-.004-2.474z" fill="#660F19"/><path d="m8.02 13.199-2.193.005.004 2.473 2.192-.004-.004-2.474z" fill="#660F19"/><path d="m7.307 15.27-2.193.005.005 2.474 2.192-.005-.004-2.474z" fill="#660F19"/><path d="m6.616 17.346-2.192.004.004 2.474 2.192-.004-.004-2.474z" fill="#660F19"/><path d="m5.823 19.596-2.192.005.004 2.474 2.192-.005-.004-2.474z" fill="#660F19"/><path d="m4.99 21.667.03 18.152-2.192.006-.03-18.153 2.193-.005z" fill="#660F19"/></svg>