<svg width="17" height="30" fill="none" xmlns="http://www.w3.org/2000/svg"><path d="M15.642 28.8h-.68V30h.68v-1.2zM14.962 28.8h-.681V30h.681v-1.2zM14.28 28.8h-.679V30h.68v-1.2z" fill="#93702B"/><path d="M13.601 28.8h-.681V30h.681v-1.2zM12.92 28.8h-.68V30h.68v-1.2z" fill="#93702B"/><path d="M12.243 28.8h-.682V30h.682v-1.2z" fill="#93702B"/><path d="M11.561 28.8h-.679V30h.68v-1.2z" fill="#93702B"/><path d="M10.882 28.8h-.681V30h.681v-1.2zM10.2 28.8h-.679V30h.68v-1.2z" fill="#93702B"/><path d="M9.521 28.8h-.68V30h.68v-1.2z" fill="#93702B"/><path d="M8.842 28.8H8.16V30h.682v-1.2z" fill="#93702B"/><path d="M8.16 28.8h-.679V30h.68v-1.2zM7.481 28.8h-.682V30h.682v-1.2z" fill="#93702B"/><path d="M6.802 28.8h-.68V30h.68v-1.2zM15.642 27.599h-.68v1.2h.68v-1.2zM14.962 27.599h-.681v1.2h.681v-1.2z" fill="#93702B"/><path d="M14.28 27.599h-.679v1.2h.68v-1.2z" fill="#FFCB44"/><path d="M13.601 27.599h-.681v1.2h.681v-1.2zM12.92 27.599h-.68v1.2h.68v-1.2z" fill="#FFCB44"/><path d="M12.243 27.599h-.682v1.2h.682v-1.2z" fill="#FFCB44"/><path d="M11.561 27.599h-.679v1.2h.68v-1.2z" fill="#FFCB44"/><path d="M10.882 27.599h-.681v1.2h.681v-1.2zM10.2 27.599h-.679v1.2h.68v-1.2z" fill="#FFCB44"/><path d="M9.521 27.599h-.68v1.2h.68v-1.2z" fill="#FFCB44"/><path d="M8.842 27.599H8.16v1.2h.682v-1.2z" fill="#FFCB44"/><path d="M8.16 27.599h-.679v1.2h.68v-1.2zM7.481 27.599h-.682v1.2h.682v-1.2z" fill="#FFCB44"/><path d="M6.802 27.599h-.68v1.2h.68v-1.2zM15.642 26.4h-.68v1.201h.68v-1.2zM14.962 26.4h-.681v1.201h.681v-1.2zM14.28 26.4h-.679v1.201h.68v-1.2z" fill="#93702B"/><path d="M13.601 26.4h-.681v1.201h.681v-1.2zM12.92 26.4h-.68v1.201h.68v-1.2z" fill="#93702B"/><path d="M12.243 26.4h-.682v1.201h.682v-1.2z" fill="#93702B"/><path d="M11.561 26.4h-.679v1.201h.68v-1.2z" fill="#93702B"/><path d="M10.882 26.4h-.681v1.201h.681v-1.2z" fill="#93702B"/><path d="M10.2 26.4h-.679v1.201h.68v-1.2z" fill="#FFCB44"/><path d="M9.521 26.4h-.68v1.201h.68v-1.2z" fill="#FFCB44"/><path d="M8.842 26.4H8.16v1.201h.682v-1.2z" fill="#FFCB44"/><path d="M8.16 26.4h-.679v1.201h.68v-1.2zM7.481 26.4h-.682v1.201h.682v-1.2z" fill="#FFCB44"/><path d="M6.802 26.4h-.68v1.201h.68v-1.2zM13.601 25.2h-.681v1.2h.681v-1.2zM12.92 25.2h-.68v1.2h.68v-1.2z" fill="#93702B"/><path d="M12.243 25.2h-.682v1.2h.682v-1.2z" fill="#93702B"/><path d="M11.561 25.2h-.679v1.2h.68v-1.2z" fill="#93702B"/><path d="M10.882 25.2h-.681v1.2h.681v-1.2z" fill="#93702B"/><path d="M10.2 25.2h-.679v1.2h.68v-1.2z" fill="#FFCB44"/><path d="M9.521 25.2h-.68v1.2h.68v-1.2z" fill="#FFCB44"/><path d="M8.842 25.2H8.16v1.2h.682v-1.2z" fill="#FFCB44"/><path d="M8.16 25.2h-.679v1.2h.68v-1.2zM7.481 25.2h-.682v1.2h.682v-1.2z" fill="#FFCB44"/><path d="M6.802 25.2h-.68v1.2h.68v-1.2zM13.601 24h-.681v1.2h.681V24z" fill="#93702B"/><path d="M12.92 24h-.68v1.2h.68V24z" fill="#FFCB44"/><path d="M12.243 24h-.682v1.2h.682V24z" fill="#FFCB44"/><path d="M11.561 24h-.679v1.2h.68V24z" fill="#FFCB44"/><path d="M10.882 24h-.681v1.2h.681V24zM10.2 24h-.679v1.2h.68V24z" fill="#FFCB44"/><path d="M9.521 24h-.68v1.2h.68V24z" fill="#FFCB44"/><path d="M8.842 24H8.16v1.2h.682V24z" fill="#FFCB44"/><path d="M8.16 24h-.679v1.2h.68V24zM7.481 24h-.682v1.2h.682V24z" fill="#FFCB44"/><path d="M6.802 24h-.68v1.2h.68V24zM13.601 22.8h-.681v1.201h.681v-1.2zM12.92 22.8h-.68v1.201h.68v-1.2z" fill="#93702B"/><path d="M12.243 22.8h-.682v1.201h.682v-1.2z" fill="#93702B"/><path d="M11.561 22.8h-.679v1.201h.68v-1.2z" fill="#93702B"/><path d="M10.882 22.8h-.681v1.201h.681v-1.2z" fill="#93702B"/><path d="M10.2 22.8h-.679v1.201h.68v-1.2z" fill="#FFCB44"/><path d="M9.521 22.8h-.68v1.201h.68v-1.2z" fill="#FFCB44"/><path d="M8.842 22.8H8.16v1.201h.682v-1.2z" fill="#FFCB44"/><path d="M8.16 22.8h-.679v1.201h.68v-1.2zM7.481 22.8h-.682v1.201h.682v-1.2z" fill="#FFCB44"/><path d="M6.802 22.8h-.68v1.201h.68v-1.2zM10.882 21.6h-.681v1.2h.681v-1.2z" fill="#93702B"/><path d="M10.2 21.6h-.679v1.2h.68v-1.2z" fill="#FFCB44"/><path d="M9.521 21.6h-.68v1.2h.68v-1.2z" fill="#FFCB44"/><path d="M8.842 21.6H8.16v1.2h.682v-1.2z" fill="#FFCB44"/><path d="M8.16 21.6h-.679v1.2h.68v-1.2zM7.481 21.6h-.682v1.2h.682v-1.2z" fill="#FFCB44"/><path d="M6.802 21.6h-.68v1.2h.68v-1.2zM10.882 20.4h-.681v1.2h.681v-1.2z" fill="#93702B"/><path d="M10.2 20.4h-.679v1.2h.68v-1.2z" fill="#FFCB44"/><path d="M9.521 20.4h-.68v1.2h.68v-1.2z" fill="#FFCB44"/><path d="M8.842 20.4H8.16v1.2h.682v-1.2z" fill="#FFCB44"/><path d="M8.16 20.4h-.679v1.2h.68v-1.2zM7.481 20.4h-.682v1.2h.682v-1.2z" fill="#FFCB44"/><path d="M6.802 20.4h-.68v1.2h.68v-1.2zM10.882 19.199h-.681v1.198h.681V19.2z" fill="#93702B"/><path d="M10.2 19.199h-.679v1.198h.68V19.2z" fill="#FFCB44"/><path d="M9.521 19.199h-.68v1.198h.68V19.2z" fill="#FFCB44"/><path d="M8.842 19.199H8.16v1.198h.682V19.2z" fill="#FFCB44"/><path d="M8.16 19.199h-.679v1.198h.68V19.2zM7.481 19.199h-.682v1.198h.682V19.2z" fill="#FFCB44"/><path d="M6.802 19.199h-.68v1.198h.68V19.2zM10.882 17.998h-.681v1.2h.681v-1.2z" fill="#93702B"/><path d="M10.2 17.998h-.679v1.2h.68v-1.2z" fill="#FFCB44"/><path d="M9.521 17.998h-.68v1.2h.68v-1.2z" fill="#FFCB44"/><path d="M8.842 17.998H8.16v1.2h.682v-1.2z" fill="#FFCB44"/><path d="M8.16 17.998h-.679v1.2h.68v-1.2zM7.481 17.998h-.682v1.2h.682v-1.2z" fill="#FFCB44"/><path d="M6.802 17.998h-.68v1.2h.68v-1.2zM10.882 16.8h-.681v1.198h.681V16.8z" fill="#93702B"/><path d="M10.2 16.8h-.679v1.198h.68V16.8z" fill="#FFCB44"/><path d="M9.521 16.8h-.68v1.198h.68V16.8z" fill="#FFCB44"/><path d="M8.842 16.8H8.16v1.198h.682V16.8z" fill="#FFCB44"/><path d="M8.16 16.8h-.679v1.198h.68V16.8zM7.481 16.8h-.682v1.198h.682V16.8z" fill="#FFCB44"/><path d="M6.802 16.8h-.68v1.198h.68V16.8zM10.882 15.6h-.681v1.2h.681v-1.2z" fill="#93702B"/><path d="M10.2 15.6h-.679v1.2h.68v-1.2z" fill="#FFCB44"/><path d="M9.521 15.6h-.68v1.2h.68v-1.2z" fill="#FFCB44"/><path d="M8.842 15.6H8.16v1.2h.682v-1.2z" fill="#FFCB44"/><path d="M8.16 15.6h-.679v1.2h.68v-1.2zM7.481 15.6h-.682v1.2h.682v-1.2z" fill="#FFCB44"/><path d="M6.802 15.6h-.68v1.2h.68v-1.2zM13.601 14.4h-.681v1.2h.681v-1.2zM12.92 14.4h-.68v1.2h.68v-1.2z" fill="#93702B"/><path d="M12.243 14.4h-.682v1.2h.682v-1.2z" fill="#93702B"/><path d="M11.561 14.4h-.679v1.2h.68v-1.2z" fill="#93702B"/><path d="M10.882 14.4h-.681v1.2h.681v-1.2z" fill="#93702B"/><path d="M10.2 14.4h-.679v1.2h.68v-1.2z" fill="#FFCB44"/><path d="M9.521 14.4h-.68v1.2h.68v-1.2z" fill="#FFCB44"/><path d="M8.842 14.4H8.16v1.2h.682v-1.2z" fill="#FFCB44"/><path d="M8.16 14.4h-.679v1.2h.68v-1.2zM7.481 14.4h-.682v1.2h.682v-1.2z" fill="#FFCB44"/><path d="M6.802 14.4h-.68v1.2h.68v-1.2z" fill="#93702B"/><path d="M6.123 14.4H5.44v1.2h.682v-1.2z" fill="#93702B"/><path d="M5.44 14.4h-.678v1.2h.679v-1.2zM4.762 14.4H4.08v1.2h.682v-1.2zM4.08 14.4H3.4v1.2h.68v-1.2zM14.962 13.2h-.681v1.2h.681v-1.2zM14.28 13.2h-.679v1.2h.68v-1.2z" fill="#93702B"/><path d="M13.601 13.2h-.681v1.2h.681v-1.2zM12.92 13.2h-.68v1.2h.68v-1.2z" fill="#FFCB44"/><path d="M12.243 13.2h-.682v1.2h.682v-1.2z" fill="#FFCB44"/><path d="M11.561 13.2h-.679v1.2h.68v-1.2z" fill="#FFCB44"/><path d="M10.882 13.2h-.681v1.2h.681v-1.2zM10.2 13.2h-.679v1.2h.68v-1.2z" fill="#FFCB44"/><path d="M9.521 13.2h-.68v1.2h.68v-1.2z" fill="#FFCB44"/><path d="M8.842 13.2H8.16v1.2h.682v-1.2z" fill="#FFCB44"/><path d="M8.16 13.2h-.679v1.2h.68v-1.2zM7.481 13.2h-.682v1.2h.682v-1.2z" fill="#FFCB44"/><path d="M6.802 13.2h-.68v1.2h.68v-1.2z" fill="#FFCB44"/><path d="M6.123 13.2H5.44v1.2h.682v-1.2z" fill="#FFCB44"/><path d="M5.44 13.2h-.678v1.2h.679v-1.2zM4.762 13.2H4.08v1.2h.682v-1.2zM4.08 13.2H3.4v1.2h.68v-1.2z" fill="#FFCB44"/><path d="M3.401 13.2h-.682v1.2h.682v-1.2z" fill="#93702B"/><path d="M2.72 13.2h-.68v1.2h.68v-1.2zM15.642 12h-.68v1.2h.68V12z" fill="#93702B"/><path d="M14.962 12h-.681v1.2h.681V12zM14.28 12h-.679v1.2h.68V12z" fill="#FFCB44"/><path d="M13.601 12h-.681v1.2h.681V12zM12.92 12h-.68v1.2h.68V12z" fill="#FFCB44"/><path d="M12.243 12h-.682v1.2h.682V12z" fill="#FFCB44"/><path d="M11.561 12h-.679v1.2h.68V12z" fill="#FFCB44"/><path d="M10.882 12h-.681v1.2h.681V12zM10.2 12h-.679v1.2h.68V12z" fill="#FFCB44"/><path d="M9.521 12h-.68v1.2h.68V12z" fill="#FFCB44"/><path d="M8.842 12H8.16v1.2h.682V12z" fill="#FFCB44"/><path d="M8.16 12h-.679v1.2h.68V12zM7.481 12h-.682v1.2h.682V12z" fill="#FFCB44"/><path d="M6.802 12h-.68v1.2h.68V12z" fill="#FFCB44"/><path d="M6.123 12H5.44v1.2h.682V12z" fill="#FFCB44"/><path d="M5.44 12h-.678v1.2h.679V12zM4.762 12H4.08v1.2h.682V12zM4.08 12H3.4v1.2h.68V12z" fill="#FFCB44"/><path d="M3.401 12h-.682v1.2h.682V12z" fill="#FFCB44"/><path d="M2.72 12h-.68v1.2h.68V12z" fill="#ECC350"/><path d="M2.04 12h-.68v1.2h.68V12zM16.323 10.799h-.681v1.2h.681v-1.2z" fill="#93702B"/><path d="M15.642 10.799h-.68v1.2h.68v-1.2zM14.962 10.799h-.681v1.2h.681v-1.2zM14.28 10.799h-.679v1.2h.68v-1.2z" fill="#FFCB44"/><path d="M13.601 10.799h-.681v1.2h.681v-1.2zM12.92 10.799h-.68v1.2h.68v-1.2z" fill="#FFCB44"/><path d="M12.243 10.799h-.682v1.2h.682v-1.2z" fill="#FFCB44"/><path d="M11.561 10.799h-.679v1.2h.68v-1.2z" fill="#FFCB44"/><path d="M10.882 10.799h-.681v1.2h.681v-1.2zM10.2 10.799h-.679v1.2h.68v-1.2z" fill="#FFCB44"/><path d="M9.521 10.799h-.68v1.2h.68v-1.2z" fill="#FFCB44"/><path d="M8.842 10.799H8.16v1.2h.682v-1.2z" fill="#FFCB44"/><path d="M8.16 10.799h-.679v1.2h.68v-1.2zM7.481 10.799h-.682v1.2h.682v-1.2z" fill="#FFCB44"/><path d="M6.802 10.799h-.68v1.2h.68v-1.2z" fill="#FFCB44"/><path d="M6.123 10.799H5.44v1.2h.682v-1.2z" fill="#FFCB44"/><path d="M5.44 10.799h-.678v1.2h.679v-1.2zM4.762 10.799H4.08v1.2h.682v-1.2zM4.08 10.799H3.4v1.2h.68v-1.2z" fill="#FFCB44"/><path d="M3.401 10.799h-.682v1.2h.682v-1.2z" fill="#FFCB44"/><path d="M2.72 10.799h-.68v1.2h.68v-1.2zM2.04 10.799h-.68v1.2h.68v-1.2z" fill="#FFCB44"/><path d="M1.363 10.799H.682v1.2h.681v-1.2zM17 9.6h-.68v1.201H17v-1.2z" fill="#93702B"/><path d="M16.323 9.6h-.681v1.201h.681v-1.2zM15.642 9.6h-.68v1.201h.68v-1.2zM14.962 9.6h-.681v1.201h.681v-1.2zM14.28 9.6h-.679v1.201h.68v-1.2z" fill="#FFCB44"/><path d="M13.601 9.6h-.681v1.201h.681v-1.2zM12.92 9.6h-.68v1.201h.68v-1.2z" fill="#FFCB44"/><path d="M12.243 9.6h-.682v1.201h.682v-1.2z" fill="#FFCB44"/><path d="M11.561 9.6h-.679v1.201h.68v-1.2z" fill="#FFCB44"/><path d="M10.882 9.6h-.681v1.201h.681v-1.2zM10.2 9.6h-.679v1.201h.68v-1.2z" fill="#93702B"/><path d="M9.521 9.6h-.68v1.201h.68v-1.2z" fill="#93702B"/><path d="M8.842 9.6H8.16v1.201h.682v-1.2z" fill="#93702B"/><path d="M8.16 9.6h-.679v1.201h.68v-1.2zM7.481 9.6h-.682v1.201h.682v-1.2z" fill="#93702B"/><path d="M6.802 9.6h-.68v1.201h.68v-1.2z" fill="#93702B"/><path d="M6.123 9.6H5.44v1.201h.682v-1.2z" fill="#FFCB44"/><path d="M5.44 9.6h-.678v1.201h.679v-1.2zM4.762 9.6H4.08v1.201h.682v-1.2zM4.08 9.6H3.4v1.201h.68v-1.2z" fill="#FFCB44"/><path d="M3.401 9.6h-.682v1.201h.682v-1.2z" fill="#FFCB44"/><path d="M2.72 9.6h-.68v1.201h.68v-1.2zM2.04 9.6h-.68v1.201h.68v-1.2z" fill="#FFCB44"/><path d="M1.363 9.6H.682v1.201h.681v-1.2zM.682 9.6H0v1.201h.682v-1.2zM17 8.4h-.68v1.2H17V8.4z" fill="#93702B"/><path d="M16.323 8.4h-.681v1.2h.681V8.4zM15.642 8.4h-.68v1.2h.68V8.4zM14.962 8.4h-.681v1.2h.681V8.4zM14.28 8.4h-.679v1.2h.68V8.4z" fill="#FFCB44"/><path d="M13.601 8.4h-.681v1.2h.681V8.4zM12.92 8.4h-.68v1.2h.68V8.4z" fill="#FFCB44"/><path d="M12.243 8.4h-.682v1.2h.682V8.4z" fill="#FFCB44"/><path d="M11.561 8.4h-.679v1.2h.68V8.4zM6.123 8.4H5.44v1.2h.682V8.4z" fill="#93702B"/><path d="M5.44 8.4h-.678v1.2h.679V8.4zM4.762 8.4H4.08v1.2h.682V8.4zM4.08 8.4H3.4v1.2h.68V8.4z" fill="#FFCB44"/><path d="M3.401 8.4h-.682v1.2h.682V8.4z" fill="#FFCB44"/><path d="M2.72 8.4h-.68v1.2h.68V8.4zM2.04 8.4h-.68v1.2h.68V8.4z" fill="#FFCB44"/><path d="M1.363 8.4H.682v1.2h.681V8.4z" fill="#FFCB44"/><path d="M.682 8.4H0v1.2h.682V8.4zM17 7.2h-.68v1.2H17V7.2z" fill="#93702B"/><path d="M16.323 7.2h-.681v1.2h.681V7.2zM15.642 7.2h-.68v1.2h.68V7.2zM14.962 7.2h-.681v1.2h.681V7.2zM14.28 7.2h-.679v1.2h.68V7.2z" fill="#FFCB44"/><path d="M13.601 7.2h-.681v1.2h.681V7.2zM12.92 7.2h-.68v1.2h.68V7.2z" fill="#FFCB44"/><path d="M12.243 7.2h-.682v1.2h.682V7.2zM10.882 7.2h-.681v1.2h.681V7.2zM10.2 7.2h-.679v1.2h.68V7.2z" fill="#93702B"/><path d="M9.521 7.2h-.68v1.2h.68V7.2z" fill="#93702B"/><path d="M8.842 7.2H8.16v1.2h.682V7.2z" fill="#93702B"/><path d="M8.16 7.2h-.679v1.2h.68V7.2zM7.481 7.2h-.682v1.2h.682V7.2z" fill="#93702B"/><path d="M6.802 7.2h-.68v1.2h.68V7.2zM5.44 7.2h-.678v1.2h.679V7.2z" fill="#93702B"/><path d="M4.762 7.2H4.08v1.2h.682V7.2zM4.08 7.2H3.4v1.2h.68V7.2z" fill="#FFCB44"/><path d="M3.401 7.2h-.682v1.2h.682V7.2z" fill="#FFCB44"/><path d="M2.72 7.2h-.68v1.2h.68V7.2zM2.04 7.2h-.68v1.2h.68V7.2z" fill="#FFCB44"/><path d="M1.363 7.2H.682v1.2h.681V7.2z" fill="#FFCB44"/><path d="M.682 7.2H0v1.2h.682V7.2zM17 6h-.68v1.202H17V6z" fill="#93702B"/><path d="M16.323 6h-.681v1.202h.681V6zM15.642 6h-.68v1.202h.68V6zM14.962 6h-.681v1.202h.681V6zM14.28 6h-.679v1.202h.68V6z" fill="#FFCB44"/><path d="M13.601 6h-.681v1.202h.681V6z" fill="#FFCB44"/><path d="M12.92 6h-.68v1.202h.68V6z" fill="#93702B"/><path d="M12.243 6h-.682v1.202h.682V6z" fill="#93702B"/><path d="M11.561 6h-.679v1.202h.68V6z" fill="#93702B"/><path d="M10.882 6h-.681v1.202h.681V6zM10.2 6h-.679v1.202h.68V6z" fill="#FFCB44"/><path d="M9.521 6h-.68v1.202h.68V6z" fill="#FFCB44"/><path d="M8.842 6H8.16v1.202h.682V6z" fill="#FFCB44"/><path d="M8.16 6h-.679v1.202h.68V6zM7.481 6h-.682v1.202h.682V6z" fill="#FFCB44"/><path d="M6.802 6h-.68v1.202h.68V6z" fill="#FFCB44"/><path d="M6.123 6H5.44v1.202h.682V6z" fill="#93702B"/><path d="M5.44 6h-.678v1.202h.679V6zM4.762 6H4.08v1.202h.682V6z" fill="#93702B"/><path d="M4.08 6H3.4v1.202h.68V6z" fill="#FFCB44"/><path d="M3.401 6h-.682v1.202h.682V6z" fill="#FFCB44"/><path d="M2.72 6h-.68v1.202h.68V6zM2.04 6h-.68v1.202h.68V6z" fill="#FFCB44"/><path d="M1.363 6H.682v1.202h.681V6z" fill="#FFCB44"/><path d="M.682 6H0v1.202h.682V6zM16.323 4.8h-.681V6h.681V4.8z" fill="#93702B"/><path d="M15.642 4.8h-.68V6h.68V4.8zM14.962 4.8h-.681V6h.681V4.8zM14.28 4.8h-.679V6h.68V4.8z" fill="#FFCB44"/><path d="M13.601 4.8h-.681V6h.681V4.8zM12.92 4.8h-.68V6h.68V4.8z" fill="#FFCB44"/><path d="M12.243 4.8h-.682V6h.682V4.8z" fill="#93702B"/><path d="M11.561 4.8h-.679V6h.68V4.8z" fill="#FFCB44"/><path d="M10.882 4.8h-.681V6h.681V4.8zM10.2 4.8h-.679V6h.68V4.8z" fill="#FFCB44"/><path d="M9.521 4.8h-.68V6h.68V4.8z" fill="#93702B"/><path d="M8.842 4.8H8.16V6h.682V4.8z" fill="#93702B"/><path d="M8.16 4.8h-.679V6h.68V4.8z" fill="#93702B"/><path d="M7.481 4.8h-.682V6h.682V4.8z" fill="#FFCB44"/><path d="M6.802 4.8h-.68V6h.68V4.8z" fill="#FFCB44"/><path d="M6.123 4.8H5.44V6h.682V4.8z" fill="#FFCB44"/><path d="M5.44 4.8h-.678V6h.679V4.8z" fill="#93702B"/><path d="M4.762 4.8H4.08V6h.682V4.8zM4.08 4.8H3.4V6h.68V4.8z" fill="#FFCB44"/><path d="M3.401 4.8h-.682V6h.682V4.8z" fill="#FFCB44"/><path d="M2.72 4.8h-.68V6h.68V4.8zM2.04 4.8h-.68V6h.68V4.8z" fill="#FFCB44"/><path d="M1.363 4.8H.682V6h.681V4.8zM15.642 3.6h-.68v1.2h.68V3.6z" fill="#93702B"/><path d="M14.962 3.6h-.681v1.2h.681V3.6zM14.28 3.6h-.679v1.2h.68V3.6z" fill="#FFCB44"/><path d="M13.601 3.6h-.681v1.2h.681V3.6zM12.92 3.6h-.68v1.2h.68V3.6z" fill="#FFCB44"/><path d="M12.243 3.6h-.682v1.2h.682V3.6z" fill="#93702B"/><path d="M11.561 3.6h-.679v1.2h.68V3.6z" fill="#FFCB44"/><path d="M10.882 3.6h-.681v1.2h.681V3.6z" fill="#FFCB44"/><path d="M10.2 3.6h-.679v1.2h.68V3.6z" fill="#FFCC45"/><path d="M9.521 3.6h-.68v1.2h.68V3.6z" fill="#93702B"/><path d="M8.842 3.6H8.16v1.2h.682V3.6z" fill="#93702B"/><path d="M8.16 3.6h-.679v1.2h.68V3.6z" fill="#93702B"/><path d="M7.481 3.6h-.682v1.2h.682V3.6z" fill="#FFCB44"/><path d="M6.802 3.6h-.68v1.2h.68V3.6z" fill="#FFCB44"/><path d="M6.123 3.6H5.44v1.2h.682V3.6z" fill="#FFCB44"/><path d="M5.44 3.6h-.678v1.2h.679V3.6z" fill="#93702B"/><path d="M4.762 3.6H4.08v1.2h.682V3.6zM4.08 3.6H3.4v1.2h.68V3.6z" fill="#FFCB44"/><path d="M3.401 3.6h-.682v1.2h.682V3.6z" fill="#FFCB44"/><path d="M2.72 3.6h-.68v1.2h.68V3.6z" fill="#FFCB44"/><path d="M2.04 3.6h-.68v1.2h.68V3.6zM14.962 2.399h-.681v1.2h.681V2.4zM14.28 2.399h-.679v1.2h.68V2.4z" fill="#93702B"/><path d="M13.601 2.399h-.681v1.2h.681V2.4zM12.92 2.399h-.68v1.2h.68V2.4z" fill="#FFCB44"/><path d="M12.243 2.399h-.682v1.2h.682V2.4z" fill="#FFCB44"/><path d="M11.561 2.399h-.679v1.2h.68V2.4z" fill="#FFCB44"/><path d="M10.882 2.399h-.681v1.2h.681V2.4zM10.2 2.399h-.679v1.2h.68V2.4z" fill="#FFCB44"/><path d="M9.521 2.399h-.68v1.2h.68V2.4z" fill="#FFCB44"/><path d="M8.842 2.399H8.16v1.2h.682V2.4z" fill="#FFCB44"/><path d="M8.16 2.399h-.679v1.2h.68V2.4zM7.481 2.399h-.682v1.2h.682V2.4z" fill="#FFCB44"/><path d="M6.802 2.399h-.68v1.2h.68V2.4z" fill="#FFCB44"/><path d="M6.123 2.399H5.44v1.2h.682V2.4z" fill="#FFCB44"/><path d="M5.44 2.399h-.678v1.2h.679V2.4zM4.762 2.399H4.08v1.2h.682V2.4zM4.08 2.399H3.4v1.2h.68V2.4z" fill="#FFCB44"/><path d="M3.401 2.399h-.682v1.2h.682V2.4z" fill="#93702B"/><path d="M2.72 2.399h-.68v1.2h.68V2.4zM13.601 1.198h-.681V2.4h.681v-1.2zM12.92 1.198h-.68V2.4h.68v-1.2z" fill="#93702B"/><path d="M12.243 1.198h-.682V2.4h.682v-1.2z" fill="#FFCB44"/><path d="M11.561 1.198h-.679V2.4h.68v-1.2z" fill="#FFCB44"/><path d="M10.882 1.198h-.681V2.4h.681v-1.2zM10.2 1.198h-.679V2.4h.68v-1.2z" fill="#FFCB44"/><path d="M9.521 1.198h-.68V2.4h.68v-1.2z" fill="#FFCB44"/><path d="M8.842 1.198H8.16V2.4h.682v-1.2z" fill="#FFCB44"/><path d="M8.16 1.198h-.679V2.4h.68v-1.2zM7.481 1.198h-.682V2.4h.682v-1.2z" fill="#FFCB44"/><path d="M6.802 1.198h-.68V2.4h.68v-1.2z" fill="#FFCB44"/><path d="M6.123 1.198H5.44V2.4h.682v-1.2z" fill="#FFCB44"/><path d="M5.44 1.198h-.678V2.4h.679v-1.2z" fill="#FFCB44"/><path d="M4.762 1.198H4.08V2.4h.682v-1.2zM4.08 1.198H3.4V2.4h.68v-1.2zM11.561 0h-.679v1.198h.68V0z" fill="#93702B"/><path d="M12.243 0h-.682v1.198h.682V0zM10.882 0h-.681v1.198h.681V0zM10.2 0h-.679v1.198h.68V0z" fill="#93702B"/><path d="M9.521 0h-.68v1.198h.68V0z" fill="#93702B"/><path d="M8.842 0H8.16v1.198h.682V0z" fill="#93702B"/><path d="M8.16 0h-.679v1.198h.68V0zM7.481 0h-.682v1.198h.682V0z" fill="#93702B"/><path d="M6.802 0h-.68v1.198h.68V0z" fill="#93702B"/><path d="M6.123 0H5.44v1.198h.682V0z" fill="#93702B"/><path d="M5.44 0h-.678v1.198h.679V0z" fill="#93702B"/></svg>