<svg viewBox="0 0 334 62" fill="inherit" xmlns="http://www.w3.org/2000/svg">
    <path d="M56.5486 55.5391L56.5589 49.482L62.7447 49.4923L62.7344 55.5494L56.5486 55.5391ZM56.5486 49.482L56.5589 43.2696L62.7447 43.2799L62.7344 49.4923L56.5486 49.482ZM56.5589 43.2696L56.5692 37.0882L62.755 37.0985L62.7447 43.2799L56.5589 43.2696ZM56.5692 37.0882L56.5795 30.8758L62.7653 30.8861L62.755 37.0985L56.5692 37.0882ZM56.5795 30.8758L56.5898 24.6944L62.7756 24.7048L62.7653 30.8861L56.5795 30.8758ZM56.5795 24.6944L56.5898 18.482L62.7756 18.4923L62.7653 24.7048L56.5795 24.6944ZM56.5898 18.482L56.6001 12.2695L62.7859 12.2799L62.7756 18.4923L56.5898 18.482ZM56.6001 12.2695L56.6104 6.21243L62.7962 6.22278L62.7859 12.2799L56.6001 12.2695ZM56.6104 6.21243L56.6208 0L62.8066 0.010354L62.7962 6.22278L56.6104 6.21243ZM68.8893 55.5598L68.879 61.679L62.7241 61.6687L62.7344 55.5494L68.8893 55.5598ZM62.7344 55.5494L62.7447 49.4923L68.8996 49.5027L68.8893 55.5598L62.7344 55.5494ZM62.7962 6.22278L62.8066 0.010354L68.9614 0.0207081L68.9511 6.23313L62.7962 6.22278ZM75.0751 55.5702L75.0648 61.6894L68.879 61.679L68.8893 55.5598L75.0751 55.5702ZM68.8893 55.5598L68.8996 49.5027L75.0854 49.513L75.0751 55.5702L68.8893 55.5598ZM68.9511 6.23313L68.9614 0.0207081L75.1472 0.0310621L75.1369 6.24349L68.9511 6.23313ZM81.1062 55.5702L81.0959 61.6894L75.0648 61.679L75.0751 55.5598L81.1062 55.5702ZM75.0751 55.5702L75.0854 49.513L81.1165 49.5234L81.1062 55.5805L75.0751 55.5702ZM75.0751 49.513L75.0854 43.3006L81.1165 43.311L81.1062 49.5234L75.0751 49.513ZM75.106 30.8965L75.1163 24.7151L81.1475 24.7255L81.1372 30.9068L75.106 30.8965ZM75.106 24.7151L75.1163 18.5027L81.1475 18.513L81.1372 24.7255L75.106 24.7151ZM75.1163 18.5027L75.1266 12.2903L81.1578 12.3006L81.1475 18.513L75.1163 18.5027ZM75.1266 12.2903L75.1369 6.23313L81.1681 6.24349L81.1578 12.3006L75.1266 12.2903ZM75.1369 6.23313L75.1472 0.0207081L81.1784 0.0310621L81.1681 6.24349L75.1369 6.23313ZM87.292 55.5805L87.2817 61.6998L81.0959 61.6894L81.1062 55.5702L87.292 55.5805ZM81.1062 55.5702L81.1165 49.513L87.3023 49.5234L87.292 55.5805L81.1062 55.5702ZM81.1165 49.513L81.1269 43.3006L87.3127 43.311L87.3023 49.5234L81.1165 49.513ZM81.1165 43.3006L81.1269 37.1192L87.3127 37.1296L87.3023 43.311L81.1165 43.3006ZM81.1475 24.7255L81.1578 18.513L87.3436 18.5234L87.3333 24.7358L81.1475 24.7255ZM81.1475 18.513L81.1578 12.3006L87.3436 12.311L87.3333 18.5234L81.1475 18.513ZM81.1578 12.3006L81.1681 6.24349L87.3539 6.25384L87.3436 12.311L81.1578 12.3006ZM87.292 55.5805L87.3023 49.5234L93.4882 49.5337L93.4778 55.5909L87.292 55.5805ZM87.3023 49.5234L87.3127 43.311L93.4985 43.3213L93.4882 49.5337L87.3023 49.5234ZM87.323 30.9172L87.3333 24.7358L93.5191 24.7462L93.5088 30.9275L87.323 30.9172ZM87.3333 24.7358L87.3436 18.5234L93.5294 18.5337L93.5191 24.7462L87.3333 24.7358ZM87.3333 18.5234L87.3436 12.311L93.5294 12.3213L93.5191 18.5337L87.3333 18.5234ZM87.3436 12.311L87.3539 6.25384L93.5397 6.2642L93.5294 12.3213L87.3436 12.311ZM87.3539 6.25384L87.3642 0.0414162L93.55 0.0517702L93.5397 6.2642L87.3539 6.25384ZM99.6327 55.6012L99.6224 61.7205L93.4675 61.7101L93.4778 55.5909L99.6327 55.6012ZM93.4778 55.5909L93.4882 49.5337L99.643 49.5441L99.6327 55.6012L93.4778 55.5909ZM93.5397 6.25384L93.55 0.0414162L99.7049 0.0517702L99.6946 6.2642L93.5397 6.25384ZM105.819 55.6116L105.808 61.7308L99.6224 61.7205L99.6327 55.6012L105.819 55.6116ZM99.6327 55.6012L99.643 49.5441L105.829 49.5545L105.819 55.6116L99.6327 55.6012ZM99.6946 6.2642L99.7049 0.0517702L105.891 0.0621243L105.88 6.27455L99.6946 6.2642ZM111.973 55.6116L111.963 61.7308L105.808 61.7205L105.819 55.6012L111.973 55.6116ZM105.819 55.6116L105.829 49.5545L111.984 49.5648L111.973 55.6219L105.819 55.6116ZM105.829 49.5441L105.839 43.3317L111.994 43.342L111.984 49.5545L105.829 49.5441ZM105.829 43.3317L105.839 37.1503L111.994 37.1607L111.984 43.342L105.829 43.3317ZM105.839 37.1503L105.849 30.9379L112.004 30.9482L111.994 37.1607L105.839 37.1503ZM105.849 30.9379L105.86 24.7565L112.015 24.7669L112.004 30.9482L105.849 30.9379ZM105.86 24.7565L105.87 18.5441L112.025 18.5544L112.015 24.7669L105.86 24.7565ZM105.86 18.5441L105.87 12.3317L112.025 12.342L112.015 18.5544L105.86 18.5441ZM105.87 12.3317L105.88 6.27455L112.035 6.2849L112.025 12.342L105.87 12.3317ZM105.88 6.27455L105.891 0.0621243L112.046 0.0724783L112.035 6.2849L105.88 6.27455ZM118.035 55.6219L118.025 61.7412L111.963 61.7308L111.973 55.6116L118.035 55.6219ZM111.973 55.6116L111.984 49.5545L118.046 49.5648L118.035 55.6219L111.973 55.6116ZM111.984 49.5545L111.994 43.342L118.056 43.3524L118.046 49.5648L111.984 49.5545ZM111.984 43.342L111.994 37.1607L118.056 37.171L118.046 43.3524L111.984 43.342ZM111.994 37.1607L112.004 30.9482L118.066 30.9586L118.056 37.171L111.994 37.1607ZM112.004 30.9482L112.015 24.7669L118.077 24.7772L118.066 30.9586L112.004 30.9482ZM112.015 24.7669L112.025 18.5544L118.087 18.5648L118.077 24.7772L112.015 24.7669ZM112.015 18.5544L112.025 12.342L118.087 12.3524L118.077 18.5648L112.015 18.5544ZM112.025 12.342L112.035 6.2849L118.097 6.29526L118.087 12.3524L112.025 12.342Z" fill="inherit"/>
    <path d="M111.973 55.6116L111.984 49.5545L118.17 49.5648L118.159 55.622L111.973 55.6116ZM111.984 49.5545L111.994 43.3421L118.18 43.3524L118.17 49.5648L111.984 49.5545ZM111.984 43.3421L111.994 37.1607L118.18 37.171L118.17 43.3524L111.984 43.3421ZM111.994 37.1607L112.004 30.9483L118.19 30.9586L118.18 37.171L111.994 37.1607ZM112.004 30.9483L112.015 24.7669L118.2 24.7773L118.19 30.9586L112.004 30.9483ZM112.015 24.7669L112.025 18.5545L118.211 18.5648L118.2 24.7773L112.015 24.7669ZM112.015 18.5545L112.025 12.3421L118.211 12.3524L118.2 18.5648L112.015 18.5545ZM112.025 12.3421L112.035 6.28494L118.221 6.29529L118.211 12.3524L112.025 12.3421ZM112.035 6.28494L112.046 0.0725098L118.231 0.0828638L118.221 6.29529L112.035 6.28494ZM124.314 55.6323L124.304 61.7515L118.149 61.7412L118.159 55.622L124.314 55.6323ZM118.159 55.622L118.17 49.5648L124.324 49.5752L124.314 55.6323L118.159 55.622ZM118.221 6.29529L118.231 0.0828638L124.386 0.0932179L124.376 6.30564L118.221 6.29529ZM130.5 55.6323L130.49 61.7515L124.304 61.7412L124.314 55.622L130.5 55.6323ZM124.314 55.6323L124.324 49.5752L130.51 49.5855L130.5 55.6427L124.314 55.6323ZM124.376 6.29529L124.386 0.0828638L130.572 0.0932179L130.562 6.30564L124.376 6.29529ZM136.531 55.6427L136.521 61.7619L130.49 61.7515L130.5 55.6323L136.531 55.6427ZM130.5 55.6323L130.51 49.5752L136.541 49.5855L136.531 55.6427L130.5 55.6323ZM130.51 49.5752L130.52 43.3628L136.552 43.3731L136.541 49.5855L130.51 49.5752ZM130.51 43.3628L130.52 37.1814L136.552 37.1918L136.541 43.3731L130.51 43.3628ZM130.531 30.969L130.541 24.7876L136.572 24.798L136.562 30.9793L130.531 30.969ZM130.541 24.7876L130.551 18.5752L136.583 18.5855L136.572 24.798L130.541 24.7876ZM130.541 18.5752L130.551 12.3628L136.583 12.3731L136.572 18.5855L130.541 18.5752ZM130.562 6.30564L130.572 0.0932179L136.603 0.103572L136.593 6.316L130.562 6.30564ZM142.717 55.653L142.707 61.7723L136.521 61.7619L136.531 55.6427L142.717 55.653ZM136.531 55.6427L136.541 49.5855L142.727 49.5959L142.717 55.653L136.531 55.6427ZM136.541 49.5855L136.552 43.3731L142.737 43.3835L142.727 49.5959L136.541 49.5855ZM136.552 43.3731L136.562 37.1918L142.748 37.2021L142.737 43.3835L136.552 43.3731ZM136.562 30.9793L136.572 24.798L142.758 24.8083L142.748 30.9897L136.562 30.9793ZM136.572 24.798L136.583 18.5855L142.768 18.5959L142.758 24.8083L136.572 24.798ZM136.583 18.5855L136.593 12.3731L142.779 12.3835L142.768 18.5959L136.583 18.5855ZM136.593 6.316L136.603 0.103572L142.789 0.113926L142.779 6.32635L136.593 6.316ZM142.727 49.5959L142.737 43.3835L148.923 43.3938L148.913 49.6063L142.727 49.5959ZM142.737 43.3835L142.748 37.2021L148.934 37.2125L148.923 43.3938L142.737 43.3835ZM142.748 30.9897L142.758 24.8083L148.944 24.8187L148.934 31L142.748 30.9897ZM142.758 24.8083L142.768 18.5959L148.954 18.6062L148.944 24.8187L142.758 24.8083ZM142.768 18.5959L142.779 12.3835L148.964 12.3938L148.954 18.6062L142.768 18.5959ZM142.779 6.316L142.789 0.103572L148.975 0.113926L148.964 6.32635L142.779 6.316ZM148.913 49.6063L148.923 43.3938L155.078 43.4042L155.068 49.6166L148.913 49.6063ZM148.923 43.3938L148.934 37.2125L155.088 37.2228L155.078 43.4042L148.923 43.3938ZM148.964 6.32635L148.975 0.113926L155.13 0.12428L155.119 6.33671L148.964 6.32635ZM155.068 49.6063L155.078 43.3938L161.264 43.4042L161.254 49.6166L155.068 49.6063ZM155.078 43.3938L155.088 37.2125L161.274 37.2228L161.264 43.4042L155.078 43.3938ZM155.078 37.2125L155.088 31L161.274 31.0104L161.264 37.2228L155.078 37.2125ZM155.109 12.3938L155.119 6.33671L161.305 6.34706L161.295 12.4042L155.109 12.3938ZM155.119 6.33671L155.13 0.12428L161.315 0.134634L161.305 6.34706L155.119 6.33671ZM161.254 49.6166L161.264 43.4042L167.419 43.4145L167.409 49.627L161.254 49.6166ZM161.264 43.4042L161.274 37.2228L167.429 37.2332L167.419 43.4145L161.264 43.4042ZM161.264 37.2228L161.274 31.0104L167.429 31.0207L167.419 37.2332L161.264 37.2228ZM161.274 31.0104L161.285 24.829L167.439 24.8394L167.429 31.0207L161.274 31.0104ZM161.285 24.829L161.295 18.6166L167.45 18.627L167.439 24.8394L161.285 24.829ZM161.295 18.6166L161.305 12.4042L167.46 12.4145L167.45 18.627L161.295 18.6166ZM161.295 12.4042L161.305 6.34706L167.46 6.35741L167.45 12.4145L161.295 12.4042ZM167.419 43.4145L167.429 37.2332L173.491 37.2435L173.481 43.4249L167.419 43.4145ZM167.419 37.2332L167.429 31.0207L173.491 31.0311L173.481 37.2435L167.419 37.2332ZM167.429 31.0207L167.439 24.8394L173.502 24.8497L173.491 31.0311L167.429 31.0207ZM167.439 24.8394L167.45 18.627L173.512 18.6373L173.502 24.8497L167.439 24.8394ZM167.45 18.627L167.46 12.4145L173.522 12.4249L173.512 18.6373L167.45 18.627Z" fill="inherit"/>
    <path d="M167.409 49.6269L167.419 43.4144L173.605 43.4248L173.594 49.6372L167.409 49.6269ZM167.419 43.4144L167.429 37.2331L173.615 37.2434L173.605 43.4248L167.419 43.4144ZM167.419 37.2331L167.429 31.0207L173.615 31.031L173.605 37.2434L167.419 37.2331ZM167.429 31.0207L167.439 24.8393L173.625 24.8496L173.615 31.031L167.429 31.0207ZM167.439 24.8393L167.45 18.6269L173.636 18.6372L173.625 24.8496L167.439 24.8393ZM167.45 18.6269L167.46 12.4144L173.646 12.4248L173.636 18.6372L167.45 18.6269ZM167.45 12.4144L167.46 6.35732L173.646 6.36768L173.636 12.4248L167.45 12.4144ZM173.584 55.6943L173.594 49.6372L179.749 49.6476L179.739 55.7047L173.584 55.6943ZM173.594 49.6372L173.605 43.4248L179.759 43.4352L179.749 49.6476L173.594 49.6372ZM173.636 12.4144L173.646 6.35732L179.801 6.36768V12.4248L173.636 12.4144ZM173.646 6.35732L173.656 0.144897L179.811 0.155252L179.801 6.36768L173.646 6.35732ZM185.925 55.7047L185.914 61.8239L179.729 61.8136L179.739 55.6943L185.925 55.7047ZM179.739 55.6943L179.749 49.6372L185.935 49.6476L185.925 55.7047L179.739 55.6943ZM179.801 6.36768L179.811 0.155252L185.997 0.165606L185.987 6.37803L179.801 6.36768ZM191.956 55.715L191.946 61.8343L185.914 61.8239L185.925 55.7047L191.956 55.715ZM185.925 55.7047L185.935 49.6476L191.966 49.6579L191.956 55.715L185.925 55.7047ZM185.945 43.4352L185.956 37.2538L191.987 37.2641L191.976 43.4455L185.945 43.4352ZM185.956 37.2538L185.966 31.0414L191.997 31.0517L191.987 37.2641L185.956 37.2538ZM185.956 31.0414L185.966 24.86L191.997 24.8704L191.987 31.0517L185.956 31.0414ZM185.966 24.86L185.976 18.6476L192.007 18.6579L191.997 24.8704L185.966 24.86ZM185.976 18.6476L185.987 12.4351L192.018 12.4455L192.007 18.6579L185.976 18.6476ZM185.987 6.37803L185.997 0.165606L192.028 0.17596L192.018 6.38839L185.987 6.37803ZM198.142 55.7254L198.131 61.8446L191.946 61.8343L191.956 55.715L198.142 55.7254ZM191.956 55.715L191.966 49.6579L198.152 49.6683L198.142 55.7254L191.956 55.715ZM191.976 43.4455L191.987 37.2641L198.173 37.2745L198.162 43.4559L191.976 43.4455ZM191.987 37.2641L191.997 31.0517L198.183 31.0621L198.173 37.2745L191.987 37.2641ZM191.987 31.0517L191.997 24.8704L198.183 24.8807L198.173 31.0621L191.987 31.0517ZM191.997 24.8704L192.007 18.6579L198.193 18.6683L198.183 24.8807L191.997 24.8704ZM192.007 18.6579L192.018 12.4455L198.204 12.4559L198.193 18.6683L192.007 18.6579ZM192.018 6.38839L192.028 0.17596L198.214 0.186314L198.204 6.39874L192.018 6.38839ZM204.327 55.7254L204.317 61.8446L198.131 61.8343L198.142 55.715L204.327 55.7254ZM198.142 55.7254L198.152 49.6683L204.338 49.6786L204.327 55.7358L198.142 55.7254ZM198.162 43.4455L198.173 37.2641L204.358 37.2745L204.348 43.4559L198.162 43.4455ZM198.173 37.2641L198.183 31.0517L204.369 31.0621L204.358 37.2745L198.173 37.2641ZM198.173 31.0517L198.183 24.8704L204.369 24.8807L204.358 31.0621L198.173 31.0517ZM198.183 24.8704L198.193 18.6579L204.379 18.6683L204.369 24.8807L198.183 24.8704ZM198.193 18.6579L198.204 12.4455L204.389 12.4559L204.379 18.6683L198.193 18.6579ZM198.204 6.38839L198.214 0.17596L204.4 0.186314L204.389 6.39874L198.204 6.38839ZM210.493 55.7358L210.482 61.855L204.327 61.8446L204.338 55.7254L210.493 55.7358ZM204.327 55.7254L204.338 49.6683L210.493 49.6786L210.482 55.7358L204.327 55.7254ZM204.389 6.39874L204.4 0.186314L210.554 0.196668L210.544 6.40909L204.389 6.39874ZM216.678 55.7461L216.668 61.8653L210.482 61.855L210.493 55.7358L216.678 55.7461ZM210.493 55.7358L210.503 49.6786L216.689 49.689L216.678 55.7461L210.493 55.7358ZM210.493 49.6786L210.503 43.4662L216.689 43.4766L216.678 49.689L210.493 49.6786ZM210.544 12.4662L210.554 6.40909L216.74 6.41945L216.73 12.4766L210.544 12.4662ZM210.544 6.40909L210.554 0.196668L216.74 0.207022L216.73 6.41945L210.544 6.40909ZM222.833 55.7565L222.823 61.8757L216.668 61.8653L216.678 55.7461L222.833 55.7565ZM216.678 55.7461L216.689 49.689L222.844 49.6993L222.833 55.7565L216.678 55.7461ZM216.678 49.689L216.689 43.4766L222.844 43.4869L222.833 49.6993L216.678 49.689ZM216.689 43.4766L216.699 37.2952L222.854 37.3056L222.844 43.4869L216.689 43.4766ZM216.699 37.2952L216.709 31.0828L222.864 31.0931L222.854 37.3056L216.699 37.2952ZM216.709 31.0828L216.72 24.9014L222.875 24.9118L222.864 31.0931L216.709 31.0828ZM216.709 24.9014L216.72 18.689L222.875 18.6993L222.864 24.9118L216.709 24.9014ZM216.72 18.689L216.73 12.4766L222.885 12.4869L222.875 18.6993L216.72 18.689ZM216.73 12.4766L216.74 6.41945L222.895 6.4298L222.885 12.4869L216.73 12.4766ZM222.833 55.7565L222.844 49.6993L228.906 49.7097L228.895 55.7668L222.833 55.7565ZM222.833 49.6993L222.844 43.4869L228.906 43.4973L228.895 49.7097L222.833 49.6993ZM222.844 43.4869L222.854 37.3056L228.916 37.3159L228.906 43.4869H222.844ZM222.854 37.2952L222.864 31.0828L228.926 31.0931L228.916 37.3056L222.854 37.2952ZM222.864 31.0828L222.875 24.9014L228.937 24.9118L228.926 31.0931L222.864 31.0828ZM222.864 24.9014L222.875 18.689L228.937 18.6993L228.926 24.9118L222.864 24.9014ZM222.875 18.689L222.885 12.4766L228.947 12.4869L228.937 18.6993L222.875 18.689Z" fill="inherit"/>
    <path d="M222.833 55.7565L222.844 49.6994L229.029 49.7097L229.019 55.7668L222.833 55.7565ZM222.833 49.6994L222.844 43.4869L229.029 43.4973L229.019 49.7097L222.833 49.6994ZM222.844 43.4869L222.854 37.3056L229.04 37.3159L229.029 43.4869H222.844ZM222.854 37.2952L222.864 31.0828L229.05 31.0931L229.04 37.3056L222.854 37.2952ZM222.864 31.0828L222.875 24.9014L229.06 24.9118L229.05 31.0931L222.864 31.0828ZM222.864 24.9014L222.875 18.689L229.06 18.6994L229.05 24.9118L222.864 24.9014ZM222.875 18.689L222.885 12.4766L229.071 12.4869L229.06 18.6994L222.875 18.689ZM222.885 12.4766L222.895 6.41946L229.081 6.42981L229.071 12.4869L222.885 12.4766ZM222.895 6.41946L222.905 0.207031L229.091 0.217385L229.081 6.42981L222.895 6.41946ZM235.174 55.7668L235.164 61.8861L229.009 61.8757L229.019 55.7565L235.174 55.7668ZM229.019 55.7565L229.029 49.6994L235.184 49.7097L235.174 55.7668L229.019 55.7565ZM229.081 6.42981L229.091 0.217385L235.246 0.227739L235.236 6.44017L229.081 6.42981ZM241.36 55.7772L241.349 61.8964L235.164 61.8861L235.174 55.7668L241.36 55.7772ZM235.174 55.7668L235.184 49.7097L241.37 49.7201L241.36 55.7772L235.174 55.7668ZM235.236 6.44017L235.246 0.227739L241.432 0.238093L241.422 6.45052L235.236 6.44017ZM247.391 55.7875L247.381 61.9068L241.349 61.8964L241.36 55.7772L247.391 55.7875ZM241.36 55.7772L241.37 49.7201L247.401 49.7304L247.391 55.7875L241.36 55.7772ZM241.36 49.7201L241.37 43.5076L247.401 43.518L247.391 49.7304L241.36 49.7201ZM241.37 43.5076L241.38 37.3263L247.412 37.3366L247.401 43.518L241.37 43.5076ZM241.38 37.3263L241.391 31.1138L247.422 31.1242L247.412 37.3366L241.38 37.3263ZM241.391 24.9325L241.401 18.7201L247.432 18.7304L247.422 24.9428L241.391 24.9325ZM241.401 18.7201L241.411 12.5076L247.443 12.518L247.432 18.7304L241.401 18.7201ZM241.411 12.5076L241.422 6.45052L247.453 6.46087L247.443 12.518L241.411 12.5076ZM241.422 6.44017L241.432 0.227739L247.463 0.238093L247.453 6.45052L241.422 6.44017ZM253.577 55.7875L253.566 61.9068L247.381 61.8964L247.391 55.7772L253.577 55.7875ZM247.391 55.7875L247.401 49.7304L253.587 49.7408L253.577 55.7979L247.391 55.7875ZM247.391 49.7201L247.401 43.5076L253.587 43.518L253.577 49.7304L247.391 49.7201ZM247.401 43.5076L247.412 37.3263L253.597 37.3366L253.587 43.518L247.401 43.5076ZM247.432 18.7201L247.443 12.5076L253.628 12.518L253.618 18.7304L247.432 18.7201ZM247.443 12.5076L247.453 6.45052L253.639 6.46087L253.628 12.518L247.443 12.5076ZM253.577 55.7875L253.587 49.7304L259.773 49.7408L259.763 55.7979L253.577 55.7875ZM253.577 49.7304L253.587 43.518L259.773 43.5283L259.763 49.7408L253.577 49.7304ZM253.608 31.1242L253.618 24.9428L259.804 24.9532L259.794 31.1346L253.608 31.1242ZM253.628 12.518L253.639 6.46087L259.824 6.47123L259.814 12.5283L253.628 12.518ZM253.639 6.46087L253.649 0.248447L259.835 0.258801L259.824 6.47123L253.639 6.46087ZM265.917 55.8082L265.907 61.9275L259.752 61.9171L259.763 55.7979L265.917 55.8082ZM259.763 55.7979L259.773 49.7408L265.928 49.7511L265.917 55.8082L259.763 55.7979ZM259.783 37.347L259.794 31.1346L265.948 31.1449L265.938 37.3573L259.783 37.347ZM259.794 31.1346L259.804 24.9532L265.959 24.9635L265.948 31.1449L259.794 31.1346ZM259.794 24.9532L259.804 18.7408L265.959 18.7511L265.948 24.9635L259.794 24.9532ZM259.824 6.47123L259.835 0.258801H265.99L265.979 6.47123H259.824ZM272.103 55.8186L272.093 61.9378L265.907 61.9275L265.917 55.8082L272.103 55.8186ZM265.917 55.8082L265.928 49.7511L272.114 49.7615L272.103 55.8186L265.917 55.8082ZM265.928 43.5387L265.938 37.3573L272.124 37.3677L272.114 43.5491L265.928 43.5387ZM265.938 37.3573L265.948 31.1449L272.134 31.1553L272.124 37.3677L265.938 37.3573ZM265.948 31.1449L265.959 24.9635L272.144 24.9739L272.134 31.1553L265.948 31.1449ZM265.948 24.9635L265.959 18.7511L272.144 18.7615L272.134 24.9739L265.948 24.9635ZM265.959 18.7511L265.969 12.5387L272.155 12.5491L272.144 18.7615L265.959 18.7511ZM265.979 6.47123L265.99 0.258801L272.175 0.269155L272.165 6.48158L265.979 6.47123ZM278.258 55.8186L278.248 61.9378L272.093 61.9275L272.103 55.8082L278.258 55.8186ZM272.103 55.8186L272.114 49.7615L278.268 49.7718L278.258 55.8289L272.103 55.8186ZM272.114 49.7511L272.124 43.5387L278.279 43.5491L278.268 49.7615L272.114 49.7511ZM272.114 43.5387L272.124 37.3573L278.279 37.3677L278.268 43.5491L272.114 43.5387ZM272.134 31.1449L272.144 24.9635L278.299 24.9739L278.289 31.1553L272.134 31.1449ZM272.134 24.9635L272.144 18.7511L278.299 18.7615L278.289 24.9739L272.134 24.9635ZM272.144 18.7511L272.155 12.5387L278.31 12.5491L278.299 18.7615L272.144 18.7511ZM272.155 12.5387L272.165 6.48158L278.32 6.49194L278.31 12.5491L272.155 12.5387ZM272.165 6.48158L272.175 0.269155L278.33 0.27951L278.32 6.49194L272.165 6.48158ZM284.32 55.8289L284.31 61.9482L278.248 61.9378L278.258 55.8186L284.32 55.8289ZM278.258 55.8186L278.268 49.7615L284.331 49.7718L284.32 55.8289L278.258 55.8186ZM278.268 49.7615L278.279 43.5491L284.341 43.5594L284.331 49.7718L278.268 49.7615ZM278.299 24.9739L278.31 18.7615L284.372 18.7718L284.361 24.9843L278.299 24.9739ZM278.299 18.7615L278.31 12.5491L284.372 12.5594L284.361 18.7718L278.299 18.7615ZM278.31 12.5491L278.32 6.49194L284.382 6.50229L284.372 12.5594L278.31 12.5491Z" fill="inherit"/>
    <path d="M278.299 18.7615L278.31 12.5491L284.495 12.5594L284.485 18.7719L278.299 18.7615ZM278.31 12.5491L278.32 6.49197L284.506 6.50232L284.495 12.5594L278.31 12.5491ZM278.32 6.49197L278.33 0.279541L284.516 0.289895L284.506 6.50232L278.32 6.49197ZM284.485 18.7719L284.495 12.5594L290.65 12.5698L290.64 18.7822L284.485 18.7719ZM284.506 6.50232L284.516 0.289895L290.671 0.300249L290.661 6.51267L284.506 6.50232ZM290.599 55.8393L290.609 49.7822L296.795 49.7926L296.784 55.8497L290.599 55.8393ZM290.609 49.7822L290.619 43.5698L296.805 43.5802L296.795 49.7926L290.609 49.7822ZM290.609 43.5698L290.619 37.3884L296.805 37.3988L296.795 43.5802L290.609 43.5698ZM290.619 37.3884L290.63 31.176L296.815 31.1864L296.805 37.3988L290.619 37.3884ZM290.63 31.176L290.64 24.9946L296.826 25.005L296.815 31.1864L290.63 31.176ZM290.64 24.9946L290.65 18.7822L296.836 18.7926L296.826 25.005L290.64 24.9946ZM290.64 18.7822L290.65 12.5698L296.836 12.5801L296.826 18.7926L290.64 18.7822ZM290.661 6.50232L290.671 0.289895L296.857 0.300249L296.846 6.51267L290.661 6.50232ZM302.816 55.8497L302.805 61.9689L296.774 61.9586L296.784 55.8393L302.816 55.8497ZM296.784 55.8497L296.795 49.7926L302.826 49.8029L302.816 55.86L296.784 55.8497ZM296.846 6.51267L296.857 0.300249L302.888 0.310603L302.878 6.52303L296.846 6.51267ZM309.001 55.86L308.991 61.9793L302.805 61.9689L302.816 55.8497L309.001 55.86ZM302.816 55.8497L302.826 49.7926L309.012 49.8029L309.001 55.86L302.816 55.8497ZM302.878 6.52303L302.888 0.310603L309.074 0.320957L309.063 6.53338L302.878 6.52303ZM315.187 55.8704L315.177 61.9896L308.991 61.9793L309.001 55.86L315.187 55.8704ZM309.001 55.86L309.012 49.8029L315.198 49.8133L315.187 55.8704L309.001 55.86ZM309.012 49.8029L309.022 43.5905L315.208 43.6009L315.198 49.8133L309.012 49.8029ZM309.022 43.5905L309.032 37.4091L315.218 37.4195L315.208 43.6009L309.022 43.5905ZM309.022 37.4091L309.032 31.1967L315.218 31.2071L315.208 37.4195L309.022 37.4091ZM309.032 31.1967L309.043 25.0154L315.229 25.0257L315.218 31.2071L309.032 31.1967ZM309.043 25.0154L309.053 18.8029L315.239 18.8133L315.229 25.0257L309.043 25.0154ZM309.053 18.8029L309.063 12.5905L315.249 12.6009L315.239 18.8133L309.053 18.8029ZM309.063 6.53338L309.074 0.320957L315.259 0.331311L315.249 6.54374L309.063 6.53338ZM321.342 55.8808L321.332 62L315.177 61.9896L315.187 55.8704L321.342 55.8808ZM315.187 55.8704L315.198 49.8133L321.352 49.8236L321.342 55.8808L315.187 55.8704ZM315.198 49.8133L315.208 43.6009L321.363 43.6112L321.352 49.8236L315.198 49.8133ZM315.208 43.6009L315.218 37.4195L321.373 37.4298L321.363 43.6112L315.208 43.6009ZM315.208 37.4195L315.218 31.2071L321.373 31.2174L321.363 37.4298L315.208 37.4195ZM315.218 31.2071L315.229 25.0257L321.383 25.0361L321.373 31.2174L315.218 31.2071ZM315.229 25.0257L315.239 18.8133L321.394 18.8236L321.383 25.0361L315.229 25.0257ZM315.239 18.8133L315.249 12.6009L321.404 12.6112L321.394 18.8236L315.239 18.8133ZM315.249 6.53338L315.259 0.320957L321.414 0.331311L321.404 6.54374L315.249 6.53338ZM321.383 25.0257L321.394 18.8133L327.579 18.8236L327.569 25.0361L321.383 25.0257ZM321.394 18.8133L321.404 12.6009L327.59 12.6112L327.579 18.8236L321.394 18.8133ZM321.394 12.6009L321.404 6.54374L327.59 6.55409L327.579 12.6112L321.394 12.6009ZM321.404 6.54374L321.414 0.331311L327.6 0.341665L327.59 6.55409L321.404 6.54374ZM327.569 25.0361L327.579 18.8236L333.734 18.834L333.724 25.0464L327.569 25.0361ZM327.579 18.8236L327.59 12.6112L333.745 12.6216L333.734 18.834L327.579 18.8236ZM327.579 12.6112L327.59 6.55409L333.745 6.56445L333.734 12.6216L327.579 12.6112Z" fill="inherit"/>
    <path d="M56.6207 12.2695V6.21243H50.9607V0H44.7852H16.9903H11.2169V5.64295H4.60842V11.1513H0V44.9676H5.61877V50.476H11.2169V56.0361H16.9903V61.6687H45.2698V55.5494H56.6207V49.4923C58.0228 49.4923 59.4353 49.4923 60.8374 49.4923C60.8374 37.0882 60.8374 24.684 60.8374 12.2799C59.4353 12.2695 58.0228 12.2695 56.6207 12.2695ZM26.867 49.4716H16.1243V45.8581H12.5056V42.2238L8.8457 42.2134V38.5999H5.30948V16.991L8.83539 17.0117V13.3774H8.86632H12.4335V9.74315H16.0419V6.19172H26.867V9.7328H19.6502V9.74315H19.6605V13.3774H16.0522H16.0315L16.0212 17.0117H12.4232V20.6253H8.8457V35.007H12.4232V38.5895H16.1243V42.2031H19.743V45.827H23.3205L23.3308 34.9863L30.7641 34.9967V31.4038H34.3828V24.1767H37.9087V35.0381H34.3828V38.6206L26.8773 38.6413L26.867 49.4716ZM52.0432 38.6724L48.5173 38.6516V42.2859H48.507H44.9399V45.9202H41.3315V49.4716H30.5063V45.9305H37.7231V45.9202H37.7128V42.2859H41.3212H41.3418L41.3521 38.6516H44.9502V35.0381H48.5276V20.6563H44.9502V17.0738H41.249V13.4603H37.6303V9.83634H34.0529L34.0425 20.677L26.6093 20.6667V24.2595H22.9906V31.4866H19.4647V20.6253H22.9906V17.0428L30.496 17.022L30.5063 6.20207H41.249V9.81563H44.8677V13.4499L48.5276 13.4603V17.0738H52.0639L52.0432 38.6724Z" fill="inherit"/>
</svg>