<svg viewBox="0 0 54 20" fill="none" xmlns="http://www.w3.org/2000/svg">
    <path d="M0 17.9518L0.00322389 15.994L1.93756 15.9973L1.93433 17.9552L0 17.9518ZM0.00322389 15.994L0.00644777 13.9859L1.94078 13.9893L1.93756 15.9973L0.00322389 15.994ZM0.00322389 13.9859L0.00644777 11.988L1.94078 11.9913L1.93756 13.9893L0.00322389 13.9859ZM0.00644777 11.988L0.00967166 9.97992L1.944 9.98327L1.94078 11.9913L0.00644777 11.988ZM0.00967166 9.97992L0.0128955 7.98193L1.94723 7.98527L1.944 9.98327L0.00967166 9.97992ZM0.0128955 7.98193L0.0161194 5.9739L1.95045 5.97724L1.94723 7.98527L0.0128955 7.98193ZM0.0128955 5.9739L0.0161194 3.96586L1.95045 3.96921L1.94723 5.97724L0.0128955 5.9739ZM0.0161194 3.96586L0.0193433 2.00803L1.95367 2.01138L1.95045 3.96921L0.0161194 3.96586ZM0.0193433 2.00803L0.0225672 0L1.9569 0.00334672L1.95367 2.01138L0.0193433 2.00803ZM3.85899 17.9585L3.85577 19.9364L1.93111 19.9331L1.93433 17.9552L3.85899 17.9585ZM1.93433 17.9552L1.93756 15.9973L3.86222 16.0007L3.85899 17.9585L1.93433 17.9552ZM1.95367 2.01138L1.9569 0.00334672L3.88156 0.00669344L3.87833 2.01473L1.95367 2.01138ZM5.79332 17.9618L5.7901 19.9398L3.85577 19.9364L3.85899 17.9585L5.79332 17.9618ZM3.85899 17.9585L3.86222 16.0007L5.79655 16.004L5.79332 17.9618L3.85899 17.9585ZM3.87833 2.01473L3.88156 0.00669344L5.81589 0.0100402L5.81267 2.01807L3.87833 2.01473ZM7.6793 17.9618L7.67607 19.9398L5.7901 19.9364L5.79332 17.9585L7.6793 17.9618ZM5.79332 17.9618L5.79655 16.004L7.68252 16.0074L7.6793 17.9652L5.79332 17.9618ZM5.79655 16.004L5.79977 13.996L7.68574 13.9993L7.68252 16.0074L5.79655 16.004ZM5.79977 13.996L5.80299 11.998L7.68897 12.0013L7.68574 13.9993L5.79977 13.996ZM5.79977 11.9946L5.80299 9.98661L7.68897 9.98996L7.68574 11.998L5.79977 11.9946ZM5.80299 9.98661L5.80622 7.98862L7.69219 7.99197L7.68897 9.98996L5.80299 9.98661ZM5.80944 3.97256L5.81267 2.01473L7.69864 2.01807L7.69542 3.9759L5.80944 3.97256ZM5.81267 2.01473L5.81589 0.00669344L7.70186 0.0100402L7.69864 2.01807L5.81267 2.01473ZM9.61363 17.9652L9.6104 19.9431L7.67607 19.9398L7.6793 17.9618L9.61363 17.9652ZM7.6793 17.9618L7.68252 16.004L9.61685 16.0074L9.61363 17.9652L7.6793 17.9618ZM7.68252 16.004L7.68574 13.996L9.62008 13.9993L9.61685 16.0074L7.68252 16.004ZM7.68574 13.996L7.68897 11.998L9.6233 12.0013L9.62008 13.9993L7.68574 13.996ZM7.68574 11.998L7.68897 9.98996L9.6233 9.99331L9.62008 12.0013L7.68574 11.998ZM7.69542 5.98394L7.69864 3.9759L9.63297 3.97925L9.62975 5.98728L7.69542 5.98394ZM7.69864 3.9759L7.70186 2.01807L9.6362 2.02142L9.63297 3.97925L7.69864 3.9759ZM9.61363 17.9652L9.61685 16.0074L11.5512 16.0107L11.548 17.9685L9.61363 17.9652ZM9.61685 16.0074L9.62008 13.9993L11.5544 14.0027L11.5512 16.0107L9.61685 16.0074ZM9.62008 13.9993L9.6233 12.0013L11.5576 12.0047L11.5544 14.0027L9.62008 13.9993ZM9.62008 12.0013L9.6233 9.99331L11.5576 9.99665L11.5544 12.0047L9.62008 12.0013ZM9.6233 9.99331L9.62652 7.99531L11.5609 7.99866L11.5576 9.99665L9.6233 9.99331ZM9.63297 3.97925L9.6362 2.02142L11.5705 2.02477L11.5673 3.9826L9.63297 3.97925ZM9.63297 2.02142L9.6362 0.0133869L11.5705 0.0167336L11.5673 2.02477L9.63297 2.02142ZM13.4726 17.9719L13.4694 19.9498L11.5447 19.9465L11.548 17.9685L13.4726 17.9719ZM11.548 17.9685L11.5512 16.0107L13.4758 16.0141L13.4726 17.9719L11.548 17.9685ZM11.5673 2.02142L11.5705 0.0133869L13.4952 0.0167336L13.492 2.02477L11.5673 2.02142ZM15.407 17.9752L15.4037 19.9531L13.4694 19.9498L13.4726 17.9719L15.407 17.9752ZM13.4726 17.9719L13.4758 16.0141L15.4102 16.0174L15.407 17.9752L13.4726 17.9719ZM13.492 2.02477L13.4952 0.0167336L15.4295 0.0200803L15.4263 2.02811L13.492 2.02477ZM17.3316 17.9752L17.3284 19.9531L15.4037 19.9498L15.407 17.9719L17.3316 17.9752ZM15.407 17.9752L15.4102 16.0174L17.3348 16.0207L17.3316 17.9786L15.407 17.9752ZM15.4102 16.0141L15.4134 14.006L17.3381 14.0094L17.3348 16.0174L15.4102 16.0141ZM15.4134 14.006L15.4166 12.008L17.3413 12.0114L17.3381 14.0094L15.4134 14.006ZM15.4166 12.008L15.4198 10L17.3445 10.0033L17.3413 12.0114L15.4166 12.008ZM15.4166 10L15.4198 8.00201L17.3445 8.00535L17.3413 10.0033L15.4166 10ZM15.4198 8.00201L15.4231 5.99398L17.3477 5.99732L17.3445 8.00535L15.4198 8.00201ZM15.4231 5.99398L15.4263 3.98594L17.351 3.98929L17.3477 5.99732L15.4231 5.99398ZM15.4263 3.98594L15.4295 2.02811L17.3542 2.03146L17.351 3.98929L15.4263 3.98594ZM15.4263 2.02811L15.4295 0.0200803L17.3542 0.023427L17.351 2.03146L15.4263 2.02811ZM19.2273 17.9786L19.224 19.9565L17.3284 19.9531L17.3316 17.9752L19.2273 17.9786ZM17.3316 17.9752L17.3348 16.0174L19.2305 16.0207L19.2273 17.9786L17.3316 17.9752ZM17.3348 16.0174L17.3381 14.0094L19.2337 14.0127L19.2305 16.0207L17.3348 16.0174ZM17.3381 14.0094L17.3413 12.0114L19.2369 12.0147L19.2337 14.0127L17.3381 14.0094ZM17.3413 12.0114L17.3445 10.0033L19.2402 10.0067L19.2369 12.0147L17.3413 12.0114ZM17.3413 10.0033L17.3445 8.00535L19.2402 8.0087L19.2369 10.0067L17.3413 10.0033ZM17.3445 8.00535L17.3477 5.99732L19.2434 6.00067L19.2402 8.0087L17.3445 8.00535ZM17.3477 5.99732L17.351 3.98929L19.2466 3.99264L19.2434 6.00067L17.3477 5.99732ZM17.351 3.98929L17.3542 2.03146L19.2498 2.03481L19.2466 3.99264L17.351 3.98929Z" fill="#F3B12E"/>
    <path d="M17.3316 17.9753L17.3348 16.0174L19.2692 16.0208L19.2659 17.9786L17.3316 17.9753ZM17.3348 16.0174L17.3381 14.0094L19.2724 14.0127L19.2692 16.0208L17.3348 16.0174ZM17.3381 14.0094L17.3413 12.0114L19.2756 12.0147L19.2724 14.0127L17.3381 14.0094ZM17.3413 12.0114L17.3445 10.0034L19.2788 10.0067L19.2756 12.0147L17.3413 12.0114ZM17.3413 10.0034L17.3445 8.00538L19.2788 8.00872L19.2756 10.0067L17.3413 10.0034ZM17.3445 8.00538L17.3477 5.99734L19.2821 6.00069L19.2788 8.00872L17.3445 8.00538ZM17.3477 5.99734L17.3509 3.98931L19.2853 3.99266L19.2821 6.00069L17.3477 5.99734ZM17.3509 3.98931L17.3542 2.03148L19.2885 2.03483L19.2853 3.99266L17.3509 3.98931ZM21.1906 17.982L21.1874 19.9599L19.2627 19.9565L19.2659 17.9786L21.1906 17.982ZM19.2659 17.9786L19.2692 16.0208L21.1938 16.0241L21.1906 17.982L19.2659 17.9786ZM19.2853 3.99266L19.2885 2.03483L21.2132 2.03817L21.2099 3.99601L19.2853 3.99266ZM19.2853 2.03483L19.2885 0.0267944L21.2132 0.0301412L21.2099 2.03817L19.2853 2.03483ZM23.1249 17.982L23.1217 19.9599L21.1874 19.9565L21.1906 17.9786L23.1249 17.982ZM21.1906 17.982L21.1938 16.0241L23.1282 16.0275L23.1249 17.9853L21.1906 17.982ZM21.2099 2.03483L21.2132 0.0267944L23.1475 0.0301412L23.1443 2.03817L21.2099 2.03483ZM25.0109 17.9853L25.0077 19.9632L23.1217 19.9599L23.1249 17.982L25.0109 17.9853ZM23.1249 17.982L23.1282 16.0241L25.0141 16.0275L25.0109 17.9853L23.1249 17.982ZM23.1282 16.0241L23.1314 14.0161L25.0173 14.0194L25.0141 16.0275L23.1282 16.0241ZM23.1314 14.0161L23.1346 12.0181L25.0206 12.0214L25.0173 14.0194L23.1314 14.0161ZM23.1346 10.0101L23.1378 8.01207L25.0238 8.01542L25.0206 10.0134L23.1346 10.0101ZM23.1378 8.01207L23.141 6.00404L25.027 6.00738L25.0238 8.01542L23.1378 8.01207ZM23.141 6.00404L23.1443 3.99601L25.0302 3.99935L25.027 6.00738L23.141 6.00404ZM23.1443 2.03817L23.1475 0.0301412L25.0335 0.0334879L25.0302 2.04152L23.1443 2.03817ZM26.9452 17.9886L26.942 19.9666L25.0077 19.9632L25.0109 17.9853L26.9452 17.9886ZM25.0109 17.9853L25.0141 16.0275L26.9485 16.0308L26.9452 17.9886L25.0109 17.9853ZM25.0141 16.0275L25.0173 14.0194L26.9517 14.0228L26.9485 16.0308L25.0141 16.0275ZM25.0173 14.0194L25.0206 12.0214L26.9549 12.0248L26.9517 14.0228L25.0173 14.0194ZM25.0238 10.0134L25.027 8.01542L26.9614 8.01876L26.9581 10.0168L25.0238 10.0134ZM25.0238 8.01542L25.027 6.00738L26.9614 6.01073L26.9581 8.01876L25.0238 8.01542ZM25.027 6.00738L25.0302 3.99935L26.9646 4.0027L26.9614 6.01073L25.027 6.00738ZM25.0302 2.04152L25.0335 0.0334879L26.9678 0.0368346L26.9646 2.04487L25.0302 2.04152ZM26.9452 17.9886L26.9485 16.0308L28.8828 16.0342L28.8796 17.992L26.9452 17.9886ZM26.9485 16.0308L26.9517 14.0228L28.886 14.0261L28.8828 16.0342L26.9485 16.0308ZM26.9517 14.0228L26.9549 12.0248L28.8892 12.0281L28.886 14.0261L26.9517 14.0228ZM26.9581 10.0168L26.9614 8.01876L28.8957 8.02211L28.8925 10.0201L26.9581 10.0168ZM26.9581 8.01876L26.9614 6.01073L28.8957 6.01408L28.8925 8.02211L26.9581 8.01876ZM26.9614 6.01073L26.9646 4.0027L28.8989 4.00605L28.8957 6.01408L26.9614 6.01073ZM26.9646 2.04152L26.9678 0.0334879L28.9021 0.0368346L28.8989 2.04487L26.9646 2.04152ZM30.8074 17.992L30.8042 19.9699L28.8796 19.9666L28.8828 17.9886L30.8074 17.992ZM28.8796 17.992L28.8828 16.0342L30.8074 16.0375L30.8042 17.9953L28.8796 17.992ZM28.8989 2.04487L28.9021 0.0368346L30.8268 0.0401813L30.8236 2.04821L28.8989 2.04487ZM32.7418 17.9953L32.7386 19.9732L30.8042 19.9699L30.8074 17.992L32.7418 17.9953ZM30.8074 17.992L30.8107 16.0342L32.745 16.0375L32.7418 17.9953L30.8074 17.992ZM30.8236 4.00605L30.8268 2.04821L32.7611 2.05156L32.7579 4.00939L30.8236 4.00605ZM30.8268 2.04821L30.83 0.0401813L32.7643 0.043528L32.7611 2.05156L30.8268 2.04821ZM34.6664 17.9987L34.6632 19.9766L32.7386 19.9732L32.7418 17.9953L34.6664 17.9987ZM32.7418 17.9953L32.745 16.0375L34.6697 16.0409L34.6664 17.9987L32.7418 17.9953ZM32.7418 16.0375L32.745 14.0295L34.6697 14.0328L34.6664 16.0409L32.7418 16.0375ZM32.745 14.0295L32.7482 12.0315L34.6729 12.0348L34.6697 14.0328L32.745 14.0295ZM32.7482 12.0315L32.7515 10.0234L34.6761 10.0268L34.6729 12.0348L32.7482 12.0315ZM32.7515 10.0234L32.7547 8.02546L34.6793 8.0288L34.6761 10.0268L32.7515 10.0234ZM32.7515 8.02546L32.7547 6.01742L34.6793 6.02077L34.6761 8.0288L32.7515 8.02546ZM32.7547 6.01742L32.7579 4.00939L34.6826 4.01274L34.6793 6.02077L32.7547 6.01742ZM32.7579 4.00939L32.7611 2.05156L34.6858 2.05491L34.6826 4.01274L32.7579 4.00939ZM36.5621 18.002L36.5589 19.9799L34.6632 19.9766L34.6664 17.9987L36.5621 18.002ZM34.6664 17.9987L34.6697 16.0409L36.5653 16.0442L36.5621 18.002L34.6664 17.9987ZM34.6664 16.0409L34.6697 14.0328L36.5653 14.0362L36.5621 16.0442L34.6664 16.0409ZM34.6697 14.0328L34.6729 12.0348L36.5685 12.0382L36.5653 14.0362L34.6697 14.0328ZM34.6729 12.0348L34.6761 10.0268L36.5718 10.0301L36.5685 12.0382L34.6729 12.0348ZM34.6761 10.0268L34.6793 8.0288L36.575 8.03215L36.5718 10.0301L34.6761 10.0268ZM34.6761 8.0288L34.6793 6.02077L36.575 6.02412L36.5718 8.03215L34.6761 8.0288ZM34.6793 6.02077L34.6826 4.01274L36.5782 4.01609L36.575 6.02412L34.6793 6.02077Z" fill="#F3B12E"/>
    <path d="M34.6664 17.9987L34.6697 16.0408L36.604 16.0442L36.6008 18.002L34.6664 17.9987ZM34.6664 16.0408L34.6697 14.0328L36.604 14.0362L36.6008 16.0442L34.6664 16.0408ZM34.6697 14.0328L34.6729 12.0348L36.6072 12.0382L36.604 14.0362L34.6697 14.0328ZM34.6729 12.0348L34.6761 10.0268L36.6104 10.0301L36.6072 12.0382L34.6729 12.0348ZM34.6761 8.02879L34.6793 6.02076L36.6137 6.02411L36.6104 8.03214L34.6761 8.02879ZM34.6793 6.02076L34.6826 4.01273L36.6169 4.01607L36.6137 6.02411L34.6793 6.02076ZM34.6826 4.01273L34.6858 2.0549L36.6201 2.05824L36.6169 4.01607L34.6826 4.01273ZM34.6858 2.05155L34.689 0.0435181L36.6233 0.0468648L36.6201 2.0549L34.6858 2.05155ZM38.5254 18.002L38.5222 19.9799L36.5975 19.9766L36.6008 17.9987L38.5254 18.002ZM36.6008 18.002L36.604 16.0442L38.5287 16.0475L38.5254 18.0054L36.6008 18.002ZM36.6072 12.0348L36.6104 10.0268L38.5351 10.0301L38.5319 12.0382L36.6072 12.0348ZM36.6104 10.0268L36.6137 8.02879L38.5383 8.03214L38.5351 10.0301L36.6104 10.0268ZM36.6104 8.02879L36.6137 6.02076L38.5383 6.02411L38.5351 8.03214L36.6104 8.02879ZM36.6201 2.0549L36.6233 0.0468648L38.548 0.0502115L38.5448 2.05824L36.6201 2.0549ZM40.4598 18.0054L40.4565 19.9833L38.5222 19.9799L38.5254 18.002L40.4598 18.0054ZM38.5254 18.002L38.5287 16.0442L40.463 16.0475L40.4598 18.0054L38.5254 18.002ZM38.5351 10.0301L38.5383 8.03214L40.4727 8.03549L40.4694 10.0335L38.5351 10.0301ZM38.5448 2.05824L38.548 0.0502115L40.4823 0.0535582L40.4791 2.06159L38.5448 2.05824ZM42.3457 18.0087L42.3425 19.9866L40.4565 19.9833L40.4598 18.0054L42.3457 18.0087ZM40.4598 18.0054L40.463 16.0475L42.349 16.0509L42.3457 18.0087L40.4598 18.0054ZM40.4598 16.0475L40.463 14.0395L42.349 14.0428L42.3457 16.0509L40.4598 16.0475ZM40.4759 4.01942L40.4791 2.06159L42.3651 2.06494L42.3619 4.02277L40.4759 4.01942ZM40.4791 2.06159L40.4823 0.0535582L42.3683 0.0569049L42.3651 2.06494L40.4791 2.06159ZM44.2801 18.0121L44.2768 19.99L42.3425 19.9866L42.3457 18.0087L44.2801 18.0121ZM42.3457 18.0087L42.349 16.0509L44.2833 16.0542L44.2801 18.0121L42.3457 18.0087ZM42.349 16.0509L42.3522 14.0428L44.2865 14.0462L44.2833 16.0542L42.349 16.0509ZM42.349 14.0428L42.3522 12.0449L44.2865 12.0482L44.2833 14.0462L42.349 14.0428ZM42.3586 6.0308L42.3619 4.02277L44.2962 4.02611L44.293 6.03415L42.3586 6.0308ZM42.3619 4.02277L42.3651 2.06494L44.2994 2.06828L44.2962 4.02611L42.3619 4.02277ZM44.2801 18.0121L44.2833 16.0542L46.2176 16.0576L46.2144 18.0154L44.2801 18.0121ZM44.2833 16.0509L44.2865 14.0428L46.2208 14.0462L46.2176 16.0542L44.2833 16.0509ZM44.2962 4.02277L44.2994 2.06494L46.2337 2.06828L46.2305 4.02611L44.2962 4.02277ZM44.2994 2.06494L44.3026 0.0569049L46.237 0.0602517L46.2337 2.06828L44.2994 2.06494ZM48.1391 18.0154L48.1358 19.9933L46.2112 19.99L46.2144 18.0121L48.1391 18.0154ZM46.2144 18.0121L46.2176 16.0542L48.1423 16.0576L48.1391 18.0154L46.2144 18.0121ZM46.2241 10.0402L46.2273 8.04218L48.152 8.04553L48.1487 10.0435L46.2241 10.0402ZM46.2337 2.06828L46.237 0.0602517L48.1616 0.0635984L48.1584 2.07163L46.2337 2.06828ZM50.0734 18.0187L50.0702 19.9967L48.1358 19.9933L48.1391 18.0154L50.0734 18.0187ZM48.1391 18.0154L48.1423 16.0576L50.0766 16.0609L50.0734 18.0187L48.1391 18.0154ZM48.1455 12.0515L48.1487 10.0435L50.0831 10.0469L50.0798 12.0549L48.1455 12.0515ZM48.1487 10.0435L48.152 8.04553L50.0863 8.04887L50.0831 10.0469L48.1487 10.0435ZM48.152 8.04553L48.1552 6.03749L50.0895 6.04084L50.0863 8.04887L48.152 8.04553ZM48.1584 2.07163L48.1616 0.0635984L50.096 0.0669451L50.0927 2.07498L48.1584 2.07163ZM51.9981 18.0221L51.9948 20L50.0702 19.9967L50.0734 18.0187L51.9981 18.0221ZM50.0734 18.0187L50.0766 16.0609L52.0013 16.0643L51.9981 18.0221L50.0734 18.0187ZM50.0766 16.0609L50.0798 14.0529L52.0013 14.0562L51.9981 16.0643L50.0766 16.0609ZM50.0766 14.0529L50.0798 12.0549L52.0045 12.0582L52.0013 14.0562L50.0766 14.0529ZM50.0798 12.0549L50.0831 10.0469L52.0077 10.0502L52.0045 12.0582L50.0798 12.0549ZM50.0831 10.0469L50.0863 8.04887L52.011 8.05222L52.0077 10.0502L50.0831 10.0469ZM50.0863 8.04887L50.0895 6.04084L52.0142 6.04419L52.011 8.05222L50.0863 8.04887ZM50.0863 6.04084L50.0895 4.03281L52.0142 4.03615L52.011 6.04419L50.0863 6.04084ZM50.0895 4.03281L50.0927 2.07498L52.0174 2.07832L52.0142 4.03615L50.0895 4.03281ZM50.0927 2.07163L50.096 0.0635984L52.0206 0.0669451L52.0174 2.07498L50.0927 2.07163ZM53.8937 18.0221L53.8905 20L51.9948 19.9967L51.9981 18.0187L53.8937 18.0221ZM51.9981 18.0221L52.0013 16.0643L53.8969 16.0676L53.8937 18.0254L51.9981 18.0221ZM52.0013 16.0643L52.0045 14.0562L53.9001 14.0596L53.8969 16.0676L52.0013 16.0643ZM52.0013 14.0562L52.0045 12.0582L53.9001 12.0616V14.0562H52.0013ZM52.0077 10.0469L52.011 8.04887L53.9066 8.05222L53.9034 10.0502L52.0077 10.0469ZM52.011 8.04887L52.0142 6.04084L53.9098 6.04419L53.9066 8.05222L52.011 8.04887ZM52.011 6.04084L52.0142 4.03281L53.9098 4.03615L53.9066 6.04419L52.011 6.04084ZM52.0142 4.03281L52.0174 2.07498L53.913 2.07832L53.9098 4.03615L52.0142 4.03281Z" fill="#F3B12E"/>
</svg>
