<svg viewBox="0 0 54 20" fill="none" xmlns="http://www.w3.org/2000/svg"><path d="m0 17.952.003-1.958 1.935.003-.004 1.958L0 17.952zm.003-1.958.003-2.008 1.935.003-.003 2.008-1.935-.003zm0-2.008.003-1.998 1.935.003-.003 1.998-1.935-.003zm.003-1.998L.01 9.98l1.934.003-.003 2.008-1.935-.003zM.01 9.98l.003-1.998 1.934.003-.003 1.998L.01 9.98zm.003-1.998.003-2.008 1.934.003-.003 2.008-1.934-.003zm0-2.008.003-2.008 1.934.003-.003 2.008-1.934-.003zm.003-2.008L.02 2.008l1.935.003L1.95 3.97.016 3.966zM.02 2.008.023 0l1.934.003-.003 2.008-1.935-.003zm3.84 15.95-.003 1.978-1.925-.003.003-1.978 1.925.004zm-1.925-.003.004-1.958 1.924.004-.003 1.957-1.925-.003zm.02-15.944L1.957.003l1.925.004-.004 2.008-1.924-.004zm3.84 15.95L5.79 19.94l-1.934-.004.003-1.977 1.934.003zm-1.935-.002L3.862 16l1.935.003-.004 1.958-1.934-.003zm.02-15.944L3.881.007 5.816.01l-.003 2.008-1.935-.003zm3.8 15.947-.003 1.978-1.886-.004.003-1.977 1.886.003zm-1.886 0 .004-1.958 1.886.003-.004 1.958-1.886-.003zm.004-1.958.003-2.008 1.886.003-.003 2.008-1.886-.003zm.003-2.008.003-1.998 1.886.003L7.686 14 5.8 13.996zm0-2.001.003-2.008 1.886.003-.003 2.008-1.886-.003zm.003-2.008.003-1.998 1.886.003L7.69 9.99l-1.886-.003zm.006-6.014.004-1.958 1.886.003-.004 1.958-1.886-.003zm.004-1.958L5.816.007 7.702.01l-.003 2.008-1.886-.003zm3.8 15.95-.003 1.978-1.934-.003.003-1.978 1.935.003zm-1.934-.003.004-1.958 1.934.003-.003 1.958-1.935-.003zm.004-1.958.003-2.008 1.934.003-.003 2.008-1.934-.003zm.003-2.008.003-1.998 1.934.003L9.62 14l-1.934-.003zm0-1.998.003-2.008 1.934.003-.003 2.008-1.934-.003zm.01-6.014.003-2.008 1.934.003-.003 2.008-1.935-.003zm.003-2.008.003-1.958 1.934.003-.003 1.958-1.934-.003zm1.915 13.99.003-1.959 1.934.004-.003 1.957-1.934-.003zm.003-1.959L9.62 14l1.934.004-.003 2.008-1.934-.004zM9.62 14l.003-1.998 1.935.004-.004 1.998-1.934-.004zm0-1.998.003-2.008 1.935.004-.004 2.008L9.62 12zm.003-2.008.004-1.998L11.56 8l-.003 1.998-1.935-.004zm.01-6.014.003-1.958 1.934.004-.003 1.958-1.934-.004zm0-1.958L9.636.013l1.934.004-.003 2.008-1.934-.004zm3.84 15.95-.004 1.979-1.924-.003.003-1.979 1.925.004zm-1.925-.003.003-1.957 1.925.003-.003 1.958-1.925-.004zm.02-15.947L11.57.013l1.925.004-.003 2.008-1.925-.004zm3.839 15.954-.003 1.978-1.935-.003.004-1.978 1.934.003zm-1.934-.003.003-1.958 1.934.003-.003 1.958-1.934-.003zm.019-15.947.003-2.008L15.43.02l-.004 2.008-1.934-.003zm3.84 15.95-.004 1.978-1.924-.003.003-1.978 1.925.003zm-1.925 0 .003-1.958 1.925.004-.003 1.958-1.925-.004zm.003-1.96.003-2.009 1.925.003-.003 2.008-1.925-.003zm.003-2.009.004-1.998 1.924.003-.003 1.998-1.925-.003zm.004-1.998L15.42 10l1.925.003-.004 2.008-1.924-.003zm0-2.008.003-1.998 1.925.003-.004 1.998L15.417 10zm.003-1.998.003-2.008 1.925.003-.003 2.008-1.925-.003zm.003-2.008.003-2.008 1.925.003-.003 2.008-1.925-.003zm.003-2.008.004-1.958 1.924.003-.003 1.958-1.925-.003zm0-1.958L15.43.02l1.924.003-.003 2.008-1.925-.003zm3.801 15.95-.003 1.978-1.896-.003.004-1.978 1.895.004zm-1.895-.003.003-1.958 1.895.004-.003 1.958-1.895-.004zm.003-1.958.003-2.008 1.896.004-.004 2.008-1.895-.004zm.003-2.008.003-1.998 1.896.004-.003 1.998-1.896-.004zm.003-1.998.003-2.008 1.896.004-.003 2.008-1.896-.004zm0-2.008.003-1.998 1.896.004-.003 1.998-1.896-.004zm.003-1.998.004-2.008 1.895.004-.003 2.008-1.895-.004zm.004-2.008.003-2.008 1.896.004L19.243 6l-1.895-.004zm.003-2.008.003-1.958 1.896.004-.003 1.958-1.896-.004z" fill="#F3B12E"/><path d="m17.332 17.975.003-1.958 1.934.004-.003 1.958-1.934-.004zm.003-1.958.003-2.008 1.934.004-.003 2.008-1.934-.004zm.003-2.008.003-1.998 1.935.004-.004 1.998-1.934-.004zm.003-1.998.003-2.008 1.935.004-.003 2.008-1.935-.004zm0-2.008.003-1.998 1.935.004-.003 1.998-1.935-.004zm.003-1.998.004-2.008 1.934.004-.003 2.008-1.934-.004zm.004-2.008.003-2.008 1.934.004L19.282 6l-1.934-.004zm.003-2.008.003-1.958 1.934.004-.003 1.958-1.934-.004zm3.84 13.993-.004 1.978-1.924-.004.003-1.977 1.925.003zm-1.925-.003.003-1.958 1.925.003-.003 1.958-1.925-.003zm.02-13.986.002-1.958 1.925.003-.003 1.958-1.925-.003zm0-1.958.002-2.008 1.925.003-.003 2.008-1.925-.003zm3.839 15.947-.003 1.978-1.935-.004.004-1.977 1.934.003zm-1.934 0 .003-1.958 1.934.003-.003 1.958-1.934-.003zm.019-15.947.003-2.008 1.934.003-.003 2.008-1.934-.003zm3.8 15.95-.002 1.978-1.886-.003.003-1.978 1.886.003zm-1.885-.003.003-1.958 1.886.003-.003 1.958-1.886-.003zm.003-1.958.003-2.008 1.886.003-.003 2.008-1.886-.003zm.003-2.008.004-1.998 1.886.003-.004 1.998-1.886-.003zm.004-4.006.003-1.998 1.886.003-.003 1.998-1.886-.003zm.003-1.998.003-2.008 1.886.003-.003 2.008-1.886-.003zm.003-2.008.003-2.008 1.886.003-.003 2.008-1.886-.003zm.003-3.966L23.148.03l1.886.003-.004 2.009-1.886-.004zm3.801 15.95-.003 1.979-1.934-.004.003-1.978 1.934.004zm-1.934-.003.003-1.957 1.934.003-.003 1.958-1.934-.004zm.003-1.957.003-2.009 1.935.004-.004 2.008-1.934-.003zm.003-2.009.004-1.998 1.934.004-.003 1.998-1.935-.004zm.007-4.006.003-1.998 1.934.004-.003 1.998-1.934-.004zm0-1.998.003-2.008 1.934.004-.003 2.008-1.934-.004zm.003-2.008L25.03 4l1.935.004-.004 2.008-1.934-.004zm.003-3.965.003-2.009 1.935.004-.003 2.008-1.935-.003zm1.915 15.947.003-1.958 1.935.003-.003 1.958-1.935-.003zm.003-1.958.004-2.008 1.934.003-.003 2.008-1.934-.003zm.004-2.008.003-1.998 1.934.003-.003 1.998-1.934-.003zm.006-4.006.003-1.998 1.935.003-.004 1.998-1.934-.003zm0-1.998.003-2.008 1.935.003-.004 2.008-1.934-.003zm.003-2.008.004-2.008 1.934.003-.003 2.008-1.935-.003zm.004-3.97.003-2.008 1.934.004-.003 2.008-1.934-.003zm3.842 15.951-.003 1.978-1.924-.003.003-1.978 1.924.003zm-1.927 0 .003-1.958 1.924.004-.003 1.957-1.924-.003zm.019-15.947.003-2.008 1.925.003-.003 2.008-1.925-.003zm3.843 15.95-.003 1.978-1.935-.003.003-1.978 1.935.003zm-1.935-.003.004-1.958 1.934.004-.003 1.957-1.935-.003zm.017-13.986.003-1.958 1.934.004-.003 1.957-1.934-.003zm.003-1.958L30.83.04l1.934.004-.003 2.008-1.934-.004zm3.84 15.95-.004 1.979-1.924-.004.003-1.978 1.924.004zm-1.925-.003.003-1.957 1.925.003-.004 1.958-1.924-.004zm0-1.957.003-2.008 1.925.003-.004 2.008-1.924-.003zm.003-2.008.003-1.998 1.925.003-.003 1.998-1.925-.003zm.003-1.998.004-2.009 1.924.004-.003 2.008-1.925-.004zm.004-2.009.003-1.998 1.924.004-.003 1.998-1.925-.004zm0-1.998.003-2.008 1.924.004-.003 2.008-1.925-.004zm.003-2.008.003-2.008 1.925.004-.004 2.008-1.924-.004zm.003-2.008.003-1.957 1.925.003-.003 1.958-1.925-.004zm3.804 13.993-.003 1.978-1.896-.003.003-1.978 1.896.003zm-1.896-.003.004-1.958 1.895.003-.003 1.958-1.896-.003zm0-1.958.004-2.008 1.895.003-.003 2.008-1.896-.003zm.004-2.008.003-1.998 1.895.003-.003 1.998-1.895-.003zm.003-1.998.003-2.008 1.896.003-.004 2.008-1.895-.003zm.003-2.008.003-1.998 1.896.003-.003 1.998-1.896-.003zm0-1.998.003-2.008 1.896.003-.003 2.008-1.896-.003zm.003-2.008.004-2.008 1.895.003-.003 2.008-1.896-.003z" fill="#F3B12E"/><path d="m34.666 17.999.004-1.958 1.934.003-.003 1.958-1.935-.003zm0-1.958.004-2.008 1.934.003-.003 2.008-1.935-.003zm.004-2.008.003-1.998 1.934.003-.003 1.998-1.934-.003zm.003-1.998.003-2.008 1.934.003-.003 2.008-1.934-.003zm.003-4.006.003-2.008 1.935.003-.004 2.008-1.934-.003zm.003-2.008.004-2.008 1.934.003-.003 2.008-1.935-.003zm.004-2.008.003-1.958 1.934.003-.003 1.958-1.934-.003zm.003-1.961.003-2.008 1.934.003-.003 2.008-1.934-.003zm3.84 15.95-.004 1.978-1.925-.003.004-1.978 1.924.003zm-1.925 0 .003-1.958 1.925.003-.004 1.958-1.924-.003zm.006-5.967.003-2.008 1.925.003-.003 2.008-1.925-.003zm.003-2.008.004-1.998 1.924.003-.003 1.998-1.925-.003zm0-1.998.004-2.008 1.924.003-.003 2.008-1.925-.003zm.01-5.974.003-2.008 1.925.003-.003 2.008-1.925-.003zm3.84 15.95-.004 1.978-1.934-.003.003-1.978 1.935.003zm-1.935-.003.004-1.958 1.934.003-.003 1.958-1.935-.003zm.01-7.972.003-1.998 1.935.003-.004 1.998-1.934-.003zm.01-7.972L38.548.05l1.934.004-.003 2.008-1.934-.004zm3.8 15.95-.002 1.979-1.887-.004.004-1.978 1.886.004zm-1.885-.003.003-1.957 1.886.003-.003 1.958-1.886-.004zm0-1.957.003-2.008 1.886.003-.003 2.008-1.886-.003zm.016-12.029.003-1.957 1.886.003-.003 1.958-1.886-.004zm.003-1.957.003-2.008 1.886.003-.003 2.008-1.886-.003zm3.801 15.95-.003 1.978-1.934-.003.003-1.978 1.934.003zm-1.934-.003.003-1.958 1.934.003-.003 1.958-1.934-.003zm.003-1.958.003-2.008 1.934.003-.003 2.008-1.934-.003zm0-2.008.003-1.998 1.934.003-.003 1.998-1.934-.003zm.01-8.012.003-2.008 1.934.003-.003 2.008-1.934-.003zm.003-2.008.003-1.958 1.934.003-.003 1.958-1.934-.003zm1.918 13.99.003-1.959 1.935.004-.004 1.957-1.934-.003zm.003-1.962.003-2.008 1.935.003-.003 2.008-1.935-.003zm.013-12.028.003-1.958 1.935.003-.004 1.958-1.934-.003zm.003-1.958.004-2.008 1.934.003-.003 2.008-1.935-.003zm3.84 15.95-.003 1.978-1.925-.003.003-1.978 1.925.003zm-1.925-.003.004-1.958 1.924.004-.003 1.957-1.925-.003zm.01-7.972.003-1.998 1.925.004-.003 1.998-1.925-.004zm.01-7.972L46.237.06l1.925.004-.004 2.008-1.924-.004zm3.84 15.95-.004 1.979-1.934-.004.003-1.978 1.934.004zm-1.935-.003.003-1.957 1.935.003-.004 1.958-1.934-.004zm.006-5.963.004-2.008 1.934.003-.003 2.008-1.934-.003zm.004-2.008.003-1.998 1.934.003-.003 1.998-1.934-.004zm.003-1.998.003-2.009 1.934.004-.003 2.008-1.934-.003zm.006-5.974.004-2.008 1.934.003-.003 2.008-1.935-.003zm3.84 15.95L51.995 20l-1.925-.003.003-1.978 1.925.003zm-1.925-.003.004-1.958 1.924.003-.003 1.958-1.925-.003zm.004-1.958.003-2.008 1.921.003-.003 2.008-1.921-.003zm0-2.008.003-1.998 1.925.003L52 14.056l-1.924-.003zm.003-1.998.003-2.008 1.925.003-.004 2.008-1.924-.003zm.003-2.008.003-1.998 1.925.003-.003 1.998-1.925-.003zm.003-1.998.004-2.008 1.924.003-.003 2.008-1.925-.003zm0-2.008.004-2.008 1.924.003-.003 2.008-1.925-.003zm.004-2.008.003-1.958 1.924.003-.003 1.958-1.925-.003zm.003-1.961.003-2.008 1.925.003-.004 2.008-1.924-.003zm3.8 15.95L53.892 20l-1.896-.003.003-1.978 1.896.003zm-1.895 0 .003-1.958 1.896.004-.003 1.957-1.896-.003zm.003-1.958.004-2.008 1.895.004-.003 2.008L52 16.064zm0-2.008.004-1.998 1.895.004v1.994h-1.899zm.007-4.01.003-1.997 1.896.003-.004 1.998-1.895-.003zm.003-1.997.003-2.008 1.896.003-.003 2.008-1.896-.003zm0-2.008.003-2.008 1.896.003-.003 2.008-1.896-.003zm.003-2.008.003-1.958 1.896.003-.003 1.958-1.896-.003z" fill="#F3B12E"/></svg>