<svg width="12" height="12" fill="none" xmlns="http://www.w3.org/2000/svg"><path fill-rule="evenodd" clip-rule="evenodd" d="M.003.491L0 5.989c0 .157.05.296.155.412.105.119.223.177.361.177H1.5v1.22c0 .158.05.297.155.413.104.119.223.177.361.177h1.07v1.22c0 .171.05.313.155.422a.47.47 0 00.361.168h1.07v1.12c0 .171.05.313.155.423a.492.492 0 00.378.167l1.482.003c.15 0 .276-.054.38-.167a.593.593 0 00.156-.422v-1.22h1.087a.46.46 0 00.36-.178.602.602 0 00.156-.412v-1.22h1.07a.46.46 0 00.36-.178.615.615 0 00.156-.412v-1.24h1.07c.15 0 .274-.055.37-.168a.612.612 0 00.146-.421L12 2.962H10.41v1.24a.615.615 0 01-.155.412.46.46 0 01-.361.177h-1.07v1.22c0 .159-.05.294-.155.413a.46.46 0 01-.361.177H7.222v1.22c0 .172-.05.31-.155.423a.498.498 0 01-.381.167l-1.482-.003a.493.493 0 01-.378-.167.587.587 0 01-.155-.422V6.698H3.6a.47.47 0 01-.361-.168.587.587 0 01-.155-.422v-1.22h-1.07a.465.465 0 01-.361-.177.596.596 0 01-.155-.412V3.078H.003V.49z" fill="#F3B12E"/></svg>