<svg width="20" height="21" fill="none" xmlns="http://www.w3.org/2000/svg"><path d="M1.023 2.922c-.285 0-.528.075-.727.221C.1 3.286 0 3.459 0 3.653l.021 13.554c0 .194.1.367.3.514.2.146.442.217.727.217H2.9l.004 1.367c0 .211.1.391.3.538.195.146.427.217.69.217l12.273-.01c.264 0 .496-.075.695-.221.2-.146.296-.326.296-.537l-.003-1.367h1.817c.286 0 .528-.075.728-.221.2-.146.295-.317.295-.514L19.98 3.636c0-.194-.1-.367-.3-.513a1.196 1.196 0 0 0-.727-.218h-1.818l-.003-1.39c0-.195-.1-.368-.3-.514a1.143 1.143 0 0 0-.695-.218L3.864.793c-.264 0-.496.075-.695.221-.196.147-.296.317-.296.514l.003 1.39-1.853.004z" fill="#FCCB28"/><path d="M7.502 5.602a.528.528 0 0 0-.368.138.412.412 0 0 0-.134.32v1.218c0 .132.045.244.134.335.1.081.223.122.368.122h1.039v.96c0 .132.05.244.15.335.1.091.218.137.352.137h1.055v.944c0 .122.05.229.15.32.101.092.219.138.353.138h.937v.578H10.5a.506.506 0 0 0-.352.137.42.42 0 0 0-.15.32v.96H8.959a.528.528 0 0 0-.368.137.412.412 0 0 0-.134.32v.944h-.955a.528.528 0 0 0-.368.138.444.444 0 0 0-.134.32v1.325c0 .122.045.228.134.32.1.091.223.137.368.137H8.96a.506.506 0 0 0 .352-.137.42.42 0 0 0 .15-.32v-.868H10.5a.506.506 0 0 0 .352-.138.42.42 0 0 0 .15-.32v-.944h1.039a.47.47 0 0 0 .351-.137.42.42 0 0 0 .151-.32v-.944h.955a.47.47 0 0 0 .351-.137c.1-.092.151-.204.151-.336v-1.31a.436.436 0 0 0-.15-.335.47.47 0 0 0-.352-.137h-1.039v-.96a.42.42 0 0 0-.15-.32.506.506 0 0 0-.352-.137h-1.038v-.944a.42.42 0 0 0-.151-.32.506.506 0 0 0-.352-.137H9.361v-.945a.391.391 0 0 0-.15-.32.47.47 0 0 0-.352-.137H7.502z" fill="#fff"/></svg>