<svg width="25" height="30" fill="none" xmlns="http://www.w3.org/2000/svg"><path d="M22.087 8.923l-.002.988.84.002.002-.988-.84-.002zM22.084 9.912l-.002.988.84.001.002-.988-.84-.001z" fill="#C8C4C2"/><path d="M22.92 10.9h-.84v.988h.84V10.9zM21.251 5.954l-.001.988h.84l.001-.987-.84-.001z" fill="#C8C4C2"/><path d="M21.25 6.942l-.003.988.84.002.003-.988-.84-.002zM21.247 7.932l-.002.988.84.001.002-.988-.84-.001zM21.246 8.921l-.002.988.84.002.002-.988-.84-.002zM21.243 9.91l-.002.988.84.002.002-.988-.84-.002z" fill="#C8C4C2"/><path d="M21.24 10.896v.988l.84.002v-.988l-.84-.002zM20.412 4.965l-.002.988.84.001.002-.988-.84-.001z" fill="#C8C4C2"/><path d="M20.41 5.952l-.002.988.84.001.001-.988-.84-.001zM20.408 6.94l-.002.988.842.002.002-.988-.842-.002zM20.405 7.93l-.002.987.843.002.001-.988-.842-.002zM20.404 8.918l-.001.988.842.002.002-.988-.843-.002zM20.402 9.907l-.003.988.843.002.002-.988-.842-.002zM20.401 10.896l-.001.989h.842l.001-.987-.842-.002zM19.574 3.973l-.002.988.84.002.002-.988-.84-.002zM19.57 4.963l-.001.988.84.001.002-.988-.84-.001z" fill="#C8C4C2"/><path d="M19.568 5.952l-.001.988.84.001.002-.988-.84-.001z" fill="#C8C4C2"/><path d="M19.569 6.938l-.002.988.84.002.002-.988-.84-.002zM18.733 2.984l-.002.988.84.001.002-.988-.84-.001z" fill="#C8C4C2"/><path d="M18.732 3.969l-.002.99.84.002.002-.99-.84-.002zM18.73 4.96l-.002.988.84.002.002-.988-.84-.002zM18.727 5.95l-.001.987.842.002.001-.988-.842-.002zM17.894 1.993l-.002.988.84.001.002-.988-.84-.001z" fill="#C8C4C2"/><path d="M17.894 2.981l-.002.988.84.002.002-.988-.84-.002z" fill="#C8C4C2"/><path d="M17.89 3.969v.99l.84.001v-.99l-.84-.001zM17.889 4.96l-.003.988.84.002.003-.988-.84-.002zM17.892 2.981l.003-.988-.84-.004-.003.99.84.002z" fill="#C8C4C2"/><path d="M17.053 2.979l-.003.988.84.002.003-.988-.84-.002zM17.05 3.968l-.002.988.84.002.002-.988-.84-.002zM16.216 1.002l-.002.988.843.001v-.988l-.841-.001z" fill="#C8C4C2"/><path d="M17.052 2.979l.003-.99h-.843l-.002.99h.842z" fill="#C8C4C2"/><path d="M16.21 2.977v.988l.84.002.001-.988-.84-.002zM15.374 1l-.002.987.84.003.003-.989-.84-.002z" fill="#C8C4C2"/><path d="M15.372 1.988l-.002.988.84.002.002-.988-.84-.002zM14.533.997l-.002.988.842.002.002-.988-.842-.002zM15.37 2.975l.002-.988h-.842v.988h.84z" fill="#C8C4C2"/><path d="M13.694.008l-.001.988.84.001.002-.988-.84-.001zM13.692.996l-.003.988.84.002.003-.988-.84-.002zM14.53 2.975v-.988l-.84-.002v.988l.84.002zM12.853.005l-.002.988.84.003.002-.989-.84-.002z" fill="#C8C4C2"/><path d="M12.852.995l-.002.988.84.001.002-.988-.84-.001zM12.85 1.984l-.002.988h.84l.002-.987-.84-.001zM12.012.004l-.002.988.84.001.002-.988-.84-.001z" fill="#C8C4C2"/><path d="M12.011.992l-.002.988.84.002.002-.988-.84-.002zM12.008 1.982l-.002.988.84.001.002-.988-.84-.001z" fill="#C8C4C2"/><path d="M11.173.003l-.002.988.84.002.002-.988-.84-.002zM11.17.992l-.002.988.84.002.002-.988-.84-.002zM11.17 1.982l-.003.988.84.001.002-.988-.84-.001zM10.332.001l-.002.988.84.002.002-.989-.84-.001zM10.329.99l-.002.988.84.002.002-.988-.84-.002zM10.328 1.98l-.002.988.84.001.002-.988-.84-.001z" fill="#C8C4C2"/><path d="M9.49.988l-.002.988.84.002.002-.988-.84-.002z" fill="#C8C4C2"/><path d="M9.487 1.975l-.002.99.84.002.002-.99-.84-.002zM8.649.987l-.003.988.84.002L9.49.99l-.84-.002z" fill="#C8C4C2"/><path d="M8.645 1.973l-.001.99.84.001.001-.99-.84-.001zM8.645 2.964l-.002.988.84.002.002-.988-.84-.002z" fill="#C8C4C2"/><path d="M7.807.985l-.002.988.84.002.002-.988-.84-.002zM7.806 1.975l-.002.988.84.001.002-.988-.84-.001zM7.803 2.964l-.001.988.84.002.002-.988-.84-.002zM6.965 1.97l-.002.99.84.002.002-.99-.84-.002zM6.962 2.962l-.001.988.84.001.001-.988-.84-.001z" fill="#C8C4C2"/><path d="M6.962 3.95l-.002.988.84.002.002-.988-.84-.002zM6.123 1.968v.99l.84.001v-.99h-.84zM6.121 2.959l-.002.988.84.002.002-.988-.84-.002z" fill="#C8C4C2"/><path d="M6.12 3.948l-.001.988.84.001.001-.988h-.84zM6.119 4.937l-.002.988.84.002.002-.988-.84-.002z" fill="#C8C4C2"/><path d="M5.282 2.959l-.002.988.84.002.002-.988-.84-.002z" fill="#C8C4C2"/><path d="M5.28 3.946l-.002.988.84.002.002-.988-.84-.002zM5.277 4.935l-.001.988.84.001.001-.988h-.84zM5.275 5.924l-.002.988.84.002.002-.989-.84-.001zM4.438 3.944l-.001.988.84.001.001-.988h-.84z" fill="#C8C4C2"/><path d="M5.276 5.924l.002-.99h-.84l-.002.988.84.002z" fill="#C8C4C2"/><path d="M4.436 5.921l-.002.988.84.002.002-.988-.84-.002zM4.433 6.911l-.001.988.84.001.001-.988h-.84zM4.433 7.9l-.003.988.84.002.003-.988-.84-.002zM3.597 4.93l-.002.989.84.001.002-.988-.84-.001zM3.595 5.92l-.002.99h.84l.002-.99h-.84z" fill="#C8C4C2"/><path d="M3.592 6.908l-.002.988.84.003.003-.989-.84-.002z" fill="#C8C4C2"/><path d="M3.591 7.898l-.002.988.84.001.002-.988-.84-.001zM3.589 8.887l-.002.988.84.002.002-.989-.84-.001z" fill="#C8C4C2"/><path d="M4.427 10.864v-.986l-.84-.004-.002.99h.842zM3.586 10.864l-.002.988.84.002.003-.988-.84-.002zM2.753 5.92l-.002.987.84.002.002-.988-.84-.002zM2.753 6.909l-.002.988.84.001.002-.988-.84-.002zM2.75 7.898l-.002.988.84.001.002-.988-.84-.001z" fill="#C8C4C2"/><path d="M3.587 9.874l.002-.988-.842-.002v.99h.84zM3.585 10.864l.002-.99h-.84l-.002.988.84.002z" fill="#C8C4C2"/><path d="M2.745 10.862l-.002.988.84.002.002-.989h-.84zM1.907 8.883v.99h.84v-.99h-.84z" fill="#C8C4C2"/><path d="M1.905 9.871l-.001.988.84.002.002-.988-.84-.002zM1.904 10.86l-.002.988.84.002.002-.988-.84-.002z" fill="#C8C4C2"/><path d="M1.19 11.916H0v.786h1.19v-.786zM2.382 11.916H1.19v.786h1.19v-.786zM3.573 11.916H2.382v.786h1.19v-.786zM4.761 11.916H3.573v.786H4.76v-.786zM5.952 11.916h-1.19v.786h1.19v-.786zM7.143 11.916h-1.19v.786h1.19v-.786zM8.334 11.916H7.145v.786h1.19v-.786z" fill="#6D6E71"/><path d="M9.525 11.916H8.334v.786h1.19v-.786z" fill="#6D6E71"/><path d="M10.714 11.916h-1.19v.786h1.19v-.786z" fill="#6D6E71"/><path d="M11.905 11.916h-1.191v.786h1.19v-.786zM13.095 11.916h-1.19v.786h1.19v-.786zM14.286 11.916h-1.19v.786h1.19v-.786zM15.475 11.916h-1.189v.786h1.19v-.786zM16.666 11.916h-1.19v.786h1.19v-.786zM17.857 11.916h-1.191v.786h1.19v-.786z" fill="#6D6E71"/><path d="M19.046 11.916h-1.19v.786h1.19v-.786zM20.237 11.916h-1.191v.786h1.19v-.786zM21.427 11.916h-1.19v.786h1.19v-.786zM22.618 11.916h-1.19v.786h1.19v-.786zM23.81 11.916h-1.19v.786h1.19v-.786zM25 11.916h-1.19v.786H25v-.786zM1.19 12.702H0v.786h1.19v-.786z" fill="#6D6E71"/><path d="M2.382 12.702H1.19v.786h1.19v-.786zM3.573 12.702H2.382v.786h1.19v-.786zM4.761 12.702H3.573v.786H4.76v-.786zM5.952 12.702h-1.19v.786h1.19v-.786zM7.143 12.702h-1.19v.786h1.19v-.786zM8.334 12.702H7.145v.786h1.19v-.786z" fill="#939598"/><path d="M9.525 12.702H8.334v.786h1.19v-.786z" fill="#939598"/><path d="M10.714 12.702h-1.19v.786h1.19v-.786z" fill="#939598"/><path d="M11.905 12.702h-1.191v.786h1.19v-.786zM13.095 12.702h-1.19v.786h1.19v-.786zM14.286 12.702h-1.19v.786h1.19v-.786zM15.475 12.702h-1.189v.786h1.19v-.786zM16.666 12.702h-1.19v.786h1.19v-.786zM17.857 12.702h-1.191v.786h1.19v-.786z" fill="#939598"/><path d="M19.046 12.702h-1.19v.786h1.19v-.786zM20.237 12.702h-1.191v.786h1.19v-.786zM21.427 12.702h-1.19v.786h1.19v-.786zM22.618 12.702h-1.19v.786h1.19v-.786zM23.81 12.702h-1.19v.786h1.19v-.786z" fill="#939598"/><path d="M25 12.702h-1.19v.786H25v-.786zM1.19 13.488H0v.786h1.19v-.786z" fill="#6D6E71"/><path d="M2.382 13.488H1.19v.786h1.19v-.786zM3.573 13.488H2.382v.786h1.19v-.786zM4.761 13.488H3.573v.786H4.76v-.786zM5.952 13.488h-1.19v.786h1.19v-.786zM7.143 13.488h-1.19v.786h1.19v-.786zM8.334 13.488H7.145v.786h1.19v-.786z" fill="#939598"/><path d="M9.525 13.488H8.334v.786h1.19v-.786z" fill="#939598"/><path d="M10.714 13.488h-1.19v.786h1.19v-.786z" fill="#939598"/><path d="M11.905 13.488h-1.191v.786h1.19v-.786zM13.095 13.488h-1.19v.786h1.19v-.786zM14.286 13.488h-1.19v.786h1.19v-.786zM15.475 13.488h-1.189v.786h1.19v-.786zM16.666 13.488h-1.19v.786h1.19v-.786zM17.857 13.488h-1.191v.786h1.19v-.786z" fill="#939598"/><path d="M19.046 13.488h-1.19v.786h1.19v-.786zM20.237 13.488h-1.191v.786h1.19v-.786zM21.427 13.488h-1.19v.786h1.19v-.786zM22.618 13.488h-1.19v.786h1.19v-.786zM23.81 13.488h-1.19v.786h1.19v-.786z" fill="#939598"/><path d="M25 13.488h-1.19v.786H25v-.786zM1.19 14.274H0v.787h1.19v-.787z" fill="#6D6E71"/><path d="M2.382 14.274H1.19v.787h1.19v-.787zM3.573 14.274H2.382v.787h1.19v-.787zM4.761 14.274H3.573v.787H4.76v-.787zM5.952 14.274h-1.19v.787h1.19v-.787zM7.143 14.274h-1.19v.787h1.19v-.787zM8.334 14.274H7.145v.787h1.19v-.787z" fill="#939598"/><path d="M9.525 14.274H8.334v.787h1.19v-.787z" fill="#939598"/><path d="M10.714 14.274h-1.19v.787h1.19v-.787z" fill="#939598"/><path d="M11.905 14.274h-1.191v.787h1.19v-.787zM13.095 14.274h-1.19v.787h1.19v-.787zM14.286 14.274h-1.19v.787h1.19v-.787zM15.475 14.274h-1.189v.787h1.19v-.787zM16.666 14.274h-1.19v.787h1.19v-.787zM17.857 14.274h-1.191v.787h1.19v-.787z" fill="#939598"/><path d="M19.046 14.274h-1.19v.787h1.19v-.787zM20.237 14.274h-1.191v.787h1.19v-.787zM21.427 14.274h-1.19v.787h1.19v-.787zM22.618 14.274h-1.19v.787h1.19v-.787zM23.81 14.274h-1.19v.787h1.19v-.787z" fill="#939598"/><path d="M25 14.274h-1.19v.787H25v-.787zM1.19 15.06H0v.787h1.19v-.786z" fill="#6D6E71"/><path d="M2.382 15.06H1.19v.787h1.19v-.786zM3.573 15.06H2.382v.787h1.19v-.786zM4.761 15.06H3.573v.787H4.76v-.786zM5.952 15.06h-1.19v.787h1.19v-.786zM7.143 15.06h-1.19v.787h1.19v-.786zM8.334 15.06H7.145v.787h1.19v-.786z" fill="#939598"/><path d="M9.525 15.06H8.334v.787h1.19v-.786z" fill="#939598"/><path d="M10.714 15.06h-1.19v.787h1.19v-.786z" fill="#939598"/><path d="M11.905 15.06h-1.191v.787h1.19v-.786zM13.095 15.06h-1.19v.787h1.19v-.786zM14.286 15.06h-1.19v.787h1.19v-.786zM15.475 15.06h-1.189v.787h1.19v-.786zM16.666 15.06h-1.19v.787h1.19v-.786zM17.857 15.06h-1.191v.787h1.19v-.786z" fill="#939598"/><path d="M19.046 15.06h-1.19v.787h1.19v-.786zM20.237 15.06h-1.191v.787h1.19v-.786zM21.427 15.06h-1.19v.787h1.19v-.786zM22.618 15.06h-1.19v.787h1.19v-.786zM23.81 15.06h-1.19v.787h1.19v-.786z" fill="#939598"/><path d="M25 15.06h-1.19v.787H25v-.786zM1.19 15.847H0v.786h1.19v-.786z" fill="#6D6E71"/><path d="M2.382 15.847H1.19v.786h1.19v-.786zM3.573 15.847H2.382v.786h1.19v-.786zM4.761 15.847H3.573v.786H4.76v-.786zM5.952 15.847h-1.19v.786h1.19v-.786zM7.143 15.847h-1.19v.786h1.19v-.786zM8.334 15.847H7.145v.786h1.19v-.786z" fill="#939598"/><path d="M9.525 15.847H8.334v.786h1.19v-.786z" fill="#939598"/><path d="M10.714 15.847h-1.19v.786h1.19v-.786z" fill="#939598"/><path d="M11.905 15.847h-1.191v.786h1.19v-.786zM13.095 15.847h-1.19v.786h1.19v-.786zM14.286 15.847h-1.19v.786h1.19v-.786zM15.475 15.847h-1.189v.786h1.19v-.786zM16.666 15.847h-1.19v.786h1.19v-.786zM17.857 15.847h-1.191v.786h1.19v-.786z" fill="#939598"/><path d="M19.046 15.847h-1.19v.786h1.19v-.786zM20.237 15.847h-1.191v.786h1.19v-.786zM21.427 15.847h-1.19v.786h1.19v-.786zM22.618 15.847h-1.19v.786h1.19v-.786zM23.81 15.847h-1.19v.786h1.19v-.786z" fill="#939598"/><path d="M25 15.847h-1.19v.786H25v-.786zM1.19 16.633H0v.786h1.19v-.786z" fill="#6D6E71"/><path d="M2.382 16.633H1.19v.786h1.19v-.786zM3.573 16.633H2.382v.786h1.19v-.786zM4.761 16.633H3.573v.786H4.76v-.786zM5.952 16.633h-1.19v.786h1.19v-.786zM7.143 16.633h-1.19v.786h1.19v-.786zM8.334 16.633H7.145v.786h1.19v-.786z" fill="#939598"/><path d="M9.525 16.633H8.334v.786h1.19v-.786z" fill="#939598"/><path d="M10.714 16.633h-1.19v.786h1.19v-.786z" fill="#939598"/><path d="M11.905 16.633h-1.191v.786h1.19v-.786zM13.095 16.633h-1.19v.786h1.19v-.786zM14.286 16.633h-1.19v.786h1.19v-.786zM15.475 16.633h-1.189v.786h1.19v-.786zM16.666 16.633h-1.19v.786h1.19v-.786zM17.857 16.633h-1.191v.786h1.19v-.786z" fill="#939598"/><path d="M19.046 16.633h-1.19v.786h1.19v-.786zM20.237 16.633h-1.191v.786h1.19v-.786zM21.427 16.633h-1.19v.786h1.19v-.786zM22.618 16.633h-1.19v.786h1.19v-.786zM23.81 16.633h-1.19v.786h1.19v-.786z" fill="#939598"/><path d="M25 16.633h-1.19v.786H25v-.786zM1.19 17.42H0v.785h1.19v-.786z" fill="#6D6E71"/><path d="M2.382 17.42H1.19v.785h1.19v-.786zM3.573 17.42H2.382v.785h1.19v-.786zM4.761 17.42H3.573v.785H4.76v-.786zM5.952 17.42h-1.19v.785h1.19v-.786zM7.143 17.42h-1.19v.785h1.19v-.786zM8.334 17.42H7.145v.785h1.19v-.786z" fill="#939598"/><path d="M9.525 17.42H8.334v.785h1.19v-.786z" fill="#939598"/><path d="M10.714 17.42h-1.19v.785h1.19v-.786z" fill="#939598"/><path d="M11.905 17.42h-1.191v.785h1.19v-.786zM13.095 17.42h-1.19v.785h1.19v-.786zM14.286 17.42h-1.19v.785h1.19v-.786z" fill="#FFCB44"/><path d="M15.475 17.42h-1.189v.785h1.19v-.786zM16.666 17.42h-1.19v.785h1.19v-.786zM17.857 17.42h-1.191v.785h1.19v-.786z" fill="#939598"/><path d="M19.046 17.42h-1.19v.785h1.19v-.786zM20.237 17.42h-1.191v.785h1.19v-.786zM21.427 17.42h-1.19v.785h1.19v-.786zM22.618 17.42h-1.19v.785h1.19v-.786zM23.81 17.42h-1.19v.785h1.19v-.786z" fill="#939598"/><path d="M25 17.42h-1.19v.785H25v-.786zM1.19 18.205H0v.787h1.19v-.787z" fill="#6D6E71"/><path d="M2.382 18.205H1.19v.787h1.19v-.787zM3.573 18.205H2.382v.787h1.19v-.787zM4.761 18.205H3.573v.787H4.76v-.787z" fill="#939598"/><path d="M8.332 18.205h-4.91v3.145h4.91v-3.145z" fill="#939598"/><path d="M7.143 18.205h-1.19v.787h1.19v-.787zM8.334 18.205H7.145v.787h1.19v-.787z" fill="#939598"/><path d="M9.525 18.205H8.334v.787h1.19v-.787z" fill="#939598"/><path d="M10.714 18.205h-1.19v.787h1.19v-.787z" fill="#939598"/><path d="M11.905 18.205h-1.191v.787h1.19v-.787zM13.095 18.205h-1.19v.787h1.19v-.787zM14.286 18.205h-1.19v.787h1.19v-.787z" fill="#FFCB44"/><path d="M15.475 18.205h-1.189v.787h1.19v-.787zM16.666 18.205h-1.19v.787h1.19v-.787zM17.857 18.205h-1.191v.787h1.19v-.787z" fill="#939598"/><path d="M19.046 18.205h-1.19v.787h1.19v-.787zM20.237 18.205h-1.191v.787h1.19v-.787zM21.427 18.205h-1.19v.787h1.19v-.787zM22.618 18.205h-1.19v.787h1.19v-.787zM23.81 18.205h-1.19v.787h1.19v-.787z" fill="#939598"/><path d="M25 18.205h-1.19v.787H25v-.787zM1.19 18.991H0v.787h1.19v-.787z" fill="#6D6E71"/><path d="M2.382 18.991H1.19v.787h1.19v-.787zM3.573 18.991H2.382v.787h1.19v-.787zM9.525 18.991H8.334v.787h1.19v-.787z" fill="#939598"/><path d="M10.714 18.991h-1.19v.787h1.19v-.787z" fill="#939598"/><path d="M11.905 18.991h-1.191v.787h1.19v-.787zM13.095 18.991h-1.19v.787h1.19v-.787zM14.286 18.991h-1.19v.787h1.19v-.787z" fill="#FFCB44"/><path d="M15.475 18.991h-1.189v.787h1.19v-.787zM16.666 18.991h-1.19v.787h1.19v-.787zM17.857 18.991h-1.191v.787h1.19v-.787z" fill="#939598"/><path d="M19.046 18.991h-1.19v.787h1.19v-.787zM20.237 18.991h-1.191v.787h1.19v-.787zM21.427 18.991h-1.19v.787h1.19v-.787zM22.618 18.991h-1.19v.787h1.19v-.787zM23.81 18.991h-1.19v.787h1.19v-.787z" fill="#939598"/><path d="M25 18.991h-1.19v.787H25v-.787zM1.19 19.778H0v.786h1.19v-.786z" fill="#6D6E71"/><path d="M2.382 19.778H1.19v.786h1.19v-.786zM3.573 19.778H2.382v.786h1.19v-.786zM9.525 19.778H8.334v.786h1.19v-.786z" fill="#939598"/><path d="M10.714 19.778h-1.19v.786h1.19v-.786z" fill="#939598"/><path d="M11.905 19.778h-1.191v.786h1.19v-.786zM13.095 19.778h-1.19v.786h1.19v-.786zM14.286 19.778h-1.19v.786h1.19v-.786z" fill="#FFCB44"/><path d="M15.475 19.778h-1.189v.786h1.19v-.786zM16.666 19.778h-1.19v.786h1.19v-.786zM17.857 19.778h-1.191v.786h1.19v-.786z" fill="#939598"/><path d="M19.046 19.778h-1.19v.786h1.19v-.786zM20.237 19.778h-1.191v.786h1.19v-.786zM21.427 19.778h-1.19v.786h1.19v-.786zM22.618 19.778h-1.19v.786h1.19v-.786zM23.81 19.778h-1.19v.786h1.19v-.786z" fill="#939598"/><path d="M25 19.778h-1.19v.786H25v-.786zM1.19 20.566H0v.786h1.19v-.786z" fill="#6D6E71"/><path d="M2.382 20.566H1.19v.786h1.19v-.786zM3.573 20.566H2.382v.786h1.19v-.786zM9.525 20.566H8.334v.786h1.19v-.786z" fill="#939598"/><path d="M10.714 20.566h-1.19v.786h1.19v-.786z" fill="#939598"/><path d="M11.905 20.566h-1.191v.786h1.19v-.786z" fill="#939598"/><path d="M13.095 20.566h-1.19v.786h1.19v-.786z" fill="#FFCB44"/><path d="M14.286 20.566h-1.19v.786h1.19v-.786zM15.475 20.566h-1.189v.786h1.19v-.786zM16.666 20.566h-1.19v.786h1.19v-.786zM17.857 20.566h-1.191v.786h1.19v-.786z" fill="#939598"/><path d="M19.046 20.566h-1.19v.786h1.19v-.786zM20.237 20.566h-1.191v.786h1.19v-.786zM21.427 20.566h-1.19v.786h1.19v-.786zM22.618 20.566h-1.19v.786h1.19v-.786zM23.81 20.566h-1.19v.786h1.19v-.786z" fill="#939598"/><path d="M25 20.566h-1.19v.786H25v-.786zM1.19 21.35H0v.786h1.19v-.786z" fill="#6D6E71"/><path d="M2.382 21.35H1.19v.786h1.19v-.786zM3.573 21.35H2.382v.786h1.19v-.786zM4.761 21.35H3.573v.786H4.76v-.786zM5.952 21.35h-1.19v.786h1.19v-.786zM7.143 21.35h-1.19v.786h1.19v-.786zM8.334 21.35H7.145v.786h1.19v-.786z" fill="#939598"/><path d="M9.525 21.35H8.334v.786h1.19v-.786z" fill="#939598"/><path d="M10.714 21.35h-1.19v.786h1.19v-.786z" fill="#939598"/><path d="M11.905 21.35h-1.191v.786h1.19v-.786z" fill="#939598"/><path d="M13.095 21.35h-1.19v.786h1.19v-.786z" fill="#FFCB44"/><path d="M14.286 21.35h-1.19v.786h1.19v-.786zM15.475 21.35h-1.189v.786h1.19v-.786zM16.666 21.35h-1.19v.786h1.19v-.786zM17.857 21.35h-1.191v.786h1.19v-.786z" fill="#939598"/><path d="M19.046 21.35h-1.19v.786h1.19v-.786zM20.237 21.35h-1.191v.786h1.19v-.786zM21.427 21.35h-1.19v.786h1.19v-.786zM22.618 21.35h-1.19v.786h1.19v-.786zM23.81 21.35h-1.19v.786h1.19v-.786z" fill="#939598"/><path d="M25 21.35h-1.19v.786H25v-.786zM1.19 22.138H0v.786h1.19v-.786z" fill="#6D6E71"/><path d="M2.382 22.138H1.19v.786h1.19v-.786zM3.573 22.138H2.382v.786h1.19v-.786zM4.761 22.138H3.573v.786H4.76v-.786zM5.952 22.138h-1.19v.786h1.19v-.786zM7.143 22.138h-1.19v.786h1.19v-.786zM8.334 22.138H7.145v.786h1.19v-.786z" fill="#939598"/><path d="M9.525 22.138H8.334v.786h1.19v-.786z" fill="#939598"/><path d="M10.714 22.138h-1.19v.786h1.19v-.786z" fill="#939598"/><path d="M11.905 22.138h-1.191v.786h1.19v-.786z" fill="#939598"/><path d="M13.095 22.138h-1.19v.786h1.19v-.786z" fill="#FFCB44"/><path d="M14.286 22.138h-1.19v.786h1.19v-.786zM15.475 22.138h-1.189v.786h1.19v-.786zM16.666 22.138h-1.19v.786h1.19v-.786zM17.857 22.138h-1.191v.786h1.19v-.786z" fill="#939598"/><path d="M19.046 22.138h-1.19v.786h1.19v-.786zM20.237 22.138h-1.191v.786h1.19v-.786zM21.427 22.138h-1.19v.786h1.19v-.786zM22.618 22.138h-1.19v.786h1.19v-.786zM23.81 22.138h-1.19v.786h1.19v-.786z" fill="#939598"/><path d="M25 22.138h-1.19v.786H25v-.786zM1.19 22.924H0v.787h1.19v-.787z" fill="#6D6E71"/><path d="M2.382 22.924H1.19v.787h1.19v-.787zM3.573 22.924H2.382v.787h1.19v-.787zM4.761 22.924H3.573v.787H4.76v-.787zM5.952 22.924h-1.19v.787h1.19v-.787zM7.143 22.924h-1.19v.787h1.19v-.787zM8.334 22.924H7.145v.787h1.19v-.787z" fill="#939598"/><path d="M9.525 22.924H8.334v.787h1.19v-.787z" fill="#939598"/><path d="M10.714 22.924h-1.19v.787h1.19v-.787z" fill="#939598"/><path d="M11.905 22.924h-1.191v.787h1.19v-.787z" fill="#939598"/><path d="M13.095 22.924h-1.19v.787h1.19v-.787z" fill="#FFCB44"/><path d="M14.286 22.924h-1.19v.787h1.19v-.787zM15.475 22.924h-1.189v.787h1.19v-.787zM16.666 22.924h-1.19v.787h1.19v-.787zM17.857 22.924h-1.191v.787h1.19v-.787z" fill="#939598"/><path d="M19.046 22.924h-1.19v.787h1.19v-.787zM20.237 22.924h-1.191v.787h1.19v-.787zM21.427 22.924h-1.19v.787h1.19v-.787zM22.618 22.924h-1.19v.787h1.19v-.787zM23.81 22.924h-1.19v.787h1.19v-.787z" fill="#939598"/><path d="M25 22.924h-1.19v.787H25v-.787zM1.19 23.71H0v.787h1.19v-.786z" fill="#6D6E71"/><path d="M2.382 23.71H1.19v.787h1.19v-.786zM3.573 23.71H2.382v.787h1.19v-.786zM4.761 23.71H3.573v.787H4.76v-.786zM5.952 23.71h-1.19v.787h1.19v-.786zM7.143 23.71h-1.19v.787h1.19v-.786zM8.334 23.71H7.145v.787h1.19v-.786z" fill="#939598"/><path d="M9.525 23.71H8.334v.787h1.19v-.786z" fill="#939598"/><path d="M10.714 23.71h-1.19v.787h1.19v-.786z" fill="#939598"/><path d="M11.905 23.71h-1.191v.787h1.19v-.786zM13.095 23.71h-1.19v.787h1.19v-.786zM14.286 23.71h-1.19v.787h1.19v-.786zM15.475 23.71h-1.189v.787h1.19v-.786zM16.666 23.71h-1.19v.787h1.19v-.786zM17.857 23.71h-1.191v.787h1.19v-.786z" fill="#939598"/><path d="M19.046 23.71h-1.19v.787h1.19v-.786zM20.237 23.71h-1.191v.787h1.19v-.786zM21.427 23.71h-1.19v.787h1.19v-.786zM22.618 23.71h-1.19v.787h1.19v-.786zM23.81 23.71h-1.19v.787h1.19v-.786z" fill="#939598"/><path d="M25 23.71h-1.19v.787H25v-.786zM1.19 24.497H0v.786h1.19v-.786z" fill="#6D6E71"/><path d="M2.382 24.497H1.19v.786h1.19v-.786zM3.573 24.497H2.382v.786h1.19v-.786zM4.761 24.497H3.573v.786H4.76v-.786zM5.952 24.497h-1.19v.786h1.19v-.786zM7.143 24.497h-1.19v.786h1.19v-.786zM8.334 24.497H7.145v.786h1.19v-.786z" fill="#939598"/><path d="M9.525 24.497H8.334v.786h1.19v-.786z" fill="#939598"/><path d="M10.714 24.497h-1.19v.786h1.19v-.786z" fill="#939598"/><path d="M11.905 24.497h-1.191v.786h1.19v-.786zM13.095 24.497h-1.19v.786h1.19v-.786zM14.286 24.497h-1.19v.786h1.19v-.786zM15.475 24.497h-1.189v.786h1.19v-.786zM16.666 24.497h-1.19v.786h1.19v-.786zM17.857 24.497h-1.191v.786h1.19v-.786z" fill="#939598"/><path d="M19.046 24.497h-1.19v.786h1.19v-.786zM20.237 24.497h-1.191v.786h1.19v-.786zM21.427 24.497h-1.19v.786h1.19v-.786zM22.618 24.497h-1.19v.786h1.19v-.786zM23.81 24.497h-1.19v.786h1.19v-.786z" fill="#939598"/><path d="M25 24.497h-1.19v.786H25v-.786zM1.19 25.283H0v.786h1.19v-.786z" fill="#6D6E71"/><path d="M2.382 25.283H1.19v.786h1.19v-.786zM3.573 25.283H2.382v.786h1.19v-.786zM4.761 25.283H3.573v.786H4.76v-.786zM5.952 25.283h-1.19v.786h1.19v-.786zM7.143 25.283h-1.19v.786h1.19v-.786zM8.334 25.283H7.145v.786h1.19v-.786z" fill="#939598"/><path d="M9.525 25.283H8.334v.786h1.19v-.786z" fill="#939598"/><path d="M10.714 25.283h-1.19v.786h1.19v-.786z" fill="#939598"/><path d="M11.905 25.283h-1.191v.786h1.19v-.786zM13.095 25.283h-1.19v.786h1.19v-.786zM14.286 25.283h-1.19v.786h1.19v-.786zM15.475 25.283h-1.189v.786h1.19v-.786zM16.666 25.283h-1.19v.786h1.19v-.786zM17.857 25.283h-1.191v.786h1.19v-.786z" fill="#939598"/><path d="M19.046 25.283h-1.19v.786h1.19v-.786zM20.237 25.283h-1.191v.786h1.19v-.786zM21.427 25.283h-1.19v.786h1.19v-.786zM22.618 25.283h-1.19v.786h1.19v-.786zM23.81 25.283h-1.19v.786h1.19v-.786z" fill="#939598"/><path d="M25 25.283h-1.19v.786H25v-.786zM2.382 26.07H1.19v.785h1.19v-.786z" fill="#6D6E71"/><path d="M3.573 26.07H2.382v.785h1.19v-.786zM4.761 26.07H3.573v.785H4.76v-.786zM5.952 26.07h-1.19v.785h1.19v-.786zM7.143 26.07h-1.19v.785h1.19v-.786zM8.334 26.07H7.145v.785h1.19v-.786z" fill="#939598"/><path d="M9.525 26.07H8.334v.785h1.19v-.786z" fill="#939598"/><path d="M10.714 26.07h-1.19v.785h1.19v-.786z" fill="#939598"/><path d="M11.905 26.07h-1.191v.785h1.19v-.786zM13.095 26.07h-1.19v.785h1.19v-.786zM14.286 26.07h-1.19v.785h1.19v-.786zM15.475 26.07h-1.189v.785h1.19v-.786zM16.666 26.07h-1.19v.785h1.19v-.786zM17.857 26.07h-1.191v.785h1.19v-.786z" fill="#939598"/><path d="M19.046 26.07h-1.19v.785h1.19v-.786zM20.237 26.07h-1.191v.785h1.19v-.786zM21.427 26.07h-1.19v.785h1.19v-.786zM22.618 26.07h-1.19v.785h1.19v-.786z" fill="#939598"/><path d="M23.81 26.07h-1.19v.785h1.19v-.786zM3.573 26.855H2.382v.787h1.19v-.787z" fill="#6D6E71"/><path d="M4.761 26.855H3.573v.787H4.76v-.787zM5.952 26.855h-1.19v.787h1.19v-.787zM7.143 26.855h-1.19v.787h1.19v-.787zM8.334 26.855H7.145v.787h1.19v-.787z" fill="#939598"/><path d="M9.525 26.855H8.334v.787h1.19v-.787z" fill="#939598"/><path d="M10.714 26.855h-1.19v.787h1.19v-.787z" fill="#939598"/><path d="M11.905 26.855h-1.191v.787h1.19v-.787zM13.095 26.855h-1.19v.787h1.19v-.787zM14.286 26.855h-1.19v.787h1.19v-.787zM15.475 26.855h-1.189v.787h1.19v-.787zM16.666 26.855h-1.19v.787h1.19v-.787zM17.857 26.855h-1.191v.787h1.19v-.787z" fill="#939598"/><path d="M19.046 26.855h-1.19v.787h1.19v-.787zM20.237 26.855h-1.191v.787h1.19v-.787zM21.427 26.855h-1.19v.787h1.19v-.787z" fill="#939598"/><path d="M22.618 26.855h-1.19v.787h1.19v-.787zM4.761 27.642H3.573v.786H4.76v-.787z" fill="#6D6E71"/><path d="M5.952 27.642h-1.19v.786h1.19v-.787zM7.143 27.642h-1.19v.786h1.19v-.787zM8.334 27.642H7.145v.786h1.19v-.787z" fill="#939598"/><path d="M9.525 27.642H8.334v.786h1.19v-.787z" fill="#939598"/><path d="M10.714 27.642h-1.19v.786h1.19v-.787z" fill="#939598"/><path d="M11.905 27.642h-1.191v.786h1.19v-.787zM13.095 27.642h-1.19v.786h1.19v-.787zM14.286 27.642h-1.19v.786h1.19v-.787zM15.475 27.642h-1.189v.786h1.19v-.787zM16.666 27.642h-1.19v.786h1.19v-.787zM17.857 27.642h-1.191v.786h1.19v-.787z" fill="#939598"/><path d="M19.046 27.642h-1.19v.786h1.19v-.787zM20.237 27.642h-1.191v.786h1.19v-.787z" fill="#939598"/><path d="M21.427 27.642h-1.19v.786h1.19v-.787zM5.952 28.428h-1.19v.786h1.19v-.786z" fill="#6D6E71"/><path d="M7.143 28.428h-1.19v.786h1.19v-.786zM8.334 28.428H7.145v.786h1.19v-.786z" fill="#939598"/><path d="M9.525 28.428H8.334v.786h1.19v-.786z" fill="#939598"/><path d="M10.714 28.428h-1.19v.786h1.19v-.786z" fill="#939598"/><path d="M11.905 28.428h-1.191v.786h1.19v-.786zM13.095 28.428h-1.19v.786h1.19v-.786zM14.286 28.428h-1.19v.786h1.19v-.786zM15.475 28.428h-1.189v.786h1.19v-.786zM16.666 28.428h-1.19v.786h1.19v-.786zM17.857 28.428h-1.191v.786h1.19v-.786z" fill="#939598"/><path d="M19.046 28.428h-1.19v.786h1.19v-.786z" fill="#939598"/><path d="M20.237 28.428h-1.191v.786h1.19v-.786zM7.143 29.214h-1.19V30h1.19v-.786zM8.334 29.214H7.145V30h1.19v-.786z" fill="#6D6E71"/><path d="M9.525 29.214H8.334V30h1.19v-.786z" fill="#6D6E71"/><path d="M10.714 29.214h-1.19V30h1.19v-.786z" fill="#6D6E71"/><path d="M11.905 29.214h-1.191V30h1.19v-.786zM13.095 29.214h-1.19V30h1.19v-.786zM14.286 29.214h-1.19V30h1.19v-.786zM15.475 29.214h-1.189V30h1.19v-.786zM16.666 29.214h-1.19V30h1.19v-.786zM17.857 29.214h-1.191V30h1.19v-.786z" fill="#6D6E71"/><path d="M19.046 29.214h-1.19V30h1.19v-.786z" fill="#6D6E71"/></svg>