<svg viewBox="0 0 69 50" fill="none" xmlns="http://www.w3.org/2000/svg"><path d="M2.164 22.428H0v2.186h2.164v-2.186z" fill="#F9B3A7"/><path d="M3.247 24.595H1.084v2.187h2.163v-2.187zM4.328 20.962H2.164v2.187h2.164v-2.187z" fill="#F9B3A7"/><path d="M6.141 22.057H3.978v2.187H6.14v-2.187zM7.268 25.422H4.835v2.458h2.433v-2.458z" fill="#F9B3A7"/><path d="M6.845 24.214H4.433v2.439h2.412v-2.439z" fill="#F9B3A7"/><path d="M7.382 19.867H5.218v2.187h2.164v-2.187z" fill="#F2A595"/><path d="M4.433 22.835H2.268v2.186h2.163v-2.186z" fill="#F9B3A7"/><path d="M46.013 3.851V2.567h-.452v-.43h-.452V1.71h-.452v-.426h-.452V.857h-.451v-.43h-.907V0h-3.618v.427h-.907v.427h-.451v.426h-.452v.427h-.452v.427h-.452v.853h-.451v.854h-.452V8.11h.452v.853h.451v.854h.452v.427h.452v.427h.452v.426h.451v.427h.907v.427h3.618v-.427h.907v-.427h.451v-.426h.452v-.427h.452v-.427h.452V9.39h.452v-.853h.451V3.854h-.451v-.003zm-8.614.427v-.854h.452v-.43h.452v-.427h.455v-.43h.452V1.71h3.617v.427h.452v.427h.455v.427h.452v.427h.452v.853h.451v3.414h-.451v.854h-.452v.427h-.452v.427h-.455v.426h-.452v.427H39.21V9.82h-.452v-.426h-.455v-.427h-.452v-.427H37.4v-.854h-.452V4.281h.452v-.003z" fill="#FCCB28"/><path d="M38.306 3.851h-.451V7.272h.451v.854h.455v.43h.452v.426h.907v.427h2.269v-.427h.903v-.426h.455v-.43h.452v-.854h.455V4.705H44.2V3.42h-.452v-.427h-.455v-.427h-.903v-.43h-2.721v.43h-.907v.427h-.455v.857z" fill="#FCCB28"/><path d="M49.054 47.426c.098-.53.193-1.062.291-1.591 1.6.31 3.199.622 4.8.936-.105.53-.21 1.059-.318 1.585l-4.773-.93zM44.588 44.909c-.105.529-.206 1.058-.311 1.588l-4.773-.93c.098-.53.196-1.062.298-1.591 1.597.31 3.192.622 4.786.933z" fill="#F2A595"/><path d="M53.453 41.66c-5.709-1.112-11.418-2.224-17.128-3.339a15.541 15.541 0 01.835 1.8l.138.02c1.332.166 1.617.774 1.217 1.925 1.316.04 1.758.665 1.274 1.916l.01-.007 4.786.933.006.01c.01-1.343.652-1.756 1.89-1.3.055-1.19.517-1.687 1.816-1.336 1.588.426 3.232.658 4.849.972.105-.53.206-1.062.307-1.594z" fill="#F2A595"/><path d="M62.247 30.084c-.514-.103-1.031-.202-1.545-.305-.063-1.403.596-1.75 1.836-1.244l.026-.02c.194-1.058.39-2.114.583-3.172-1.296-.057-1.728-.689-1.27-1.92.121-.757.576-1.634-.737-1.839-.383-.06-.478-.41-.402-.757.212-.966-.462-1.043-1.117-1.162-.632-.115-1.263-.244-1.895-.367l-7.497-1.459c.743.54 2.524 2.392 3.313 2.865 0 0-3.483.705-4.55.781 0 .056-.004.116-.014.179-.167 1.29-1.09.555-1.722.582-.049 1.294-.68 1.724-1.898 1.29-.269.53.117 1.578-1.028 1.42-1.294-.18-.554-1.105-.58-1.744-1.201-.026-1.447-.56-1.375-1.466a64.65 64.65 0 00-3.833.229l3.359 9.978s-5.455 1.29-7.733 1.63c.4 1.698 1.339 3.2 2.148 4.742 5.709 1.115 11.418 2.226 17.128 3.338l3.185.625c.03-1.323.661-1.753 1.896-1.287.098-.516.245-1.032.278-1.555.079-1.303.645-1.82 1.922-1.33.101-.532.2-1.068.3-1.6.416-2.148.82-4.289 1.222-6.432zm-14.205-3.08c-.085-.312.05-.785.255-1.053.266-.34.695-.043 1.048.014.586.089.39.519.33.87-.045.258-.117.51-.18.76-.503-.165-1.247.146-1.453-.592zm10.13 7.308c-.073 1.207-.57 1.657-1.857 1.31a35.06 35.06 0 00-4.888-.953c-1.32-.159-1.617-.764-1.24-1.912-1.254-.076-1.775-.642-1.251-1.903.19-1.078.383-2.153.573-3.232.74.13 1.571.615 1.843-.681.144-.689.75-.44 1.201-.358 1.634.305 3.264.612 4.891.953.871.182 1.974.003 1.82 1.585-.068.705.894.5 1.415.671-.22 1.072-.436 2.148-.655 3.22.03 1.37-.661 1.7-1.853 1.3z" fill="#F2A595"/><path d="M56.475 17.373c-2.999-.56-5.994-1.132-8.99-1.71a47.206 47.206 0 002.754 2.176l7.497 1.46c.386-1.172.032-1.685-1.26-1.926z" fill="#F2A595"/><path d="M54.145 46.771c-1.601-.31-3.199-.622-4.8-.936-1.316-.037-1.712-.695-1.29-1.912 1.094.211 2.21.337 3.27.655 1.284.387 1.762-.126 1.824-1.324 1.048.209 2.099.414 3.146.622-.088.52-.229 1.036-.252 1.559-.059 1.303-.628 1.803-1.898 1.336z" fill="#EAB8AE"/><path d="M61.036 36.512c.402-2.14.808-4.285 1.21-6.425.1-.516.197-1.032.296-1.549l.026-.02c.517.096 1.038.19 1.555.285l-1.523 8.02c-.52-.103-1.04-.209-1.564-.311zM63.455 23.778c.422.066.848.122 1.267.201 2.003.378 1.905.364 1.59 2.356-.215 1.376-1.004 1.078-1.846.94.403-1.221.053-1.926-1.316-1.942l.007.01c.101-.52.2-1.043.298-1.565z" fill="#F2A595"/><path d="M63.154 25.336c1.365.013 1.718.721 1.316 1.942l-.344 1.525c-.517-.096-1.038-.188-1.555-.284.193-1.062.386-2.124.583-3.183zM56.295 43.876c-1.047-.208-2.098-.413-3.146-.622l.305-1.598 3.195.629-.354 1.591zM58.534 41.008c.098-.52.249-1.04.278-1.565.079-1.307.649-1.82 1.932-1.327-.105.516-.272 1.03-.298 1.549-.062 1.31-.651 1.786-1.912 1.343z" fill="#F2A595"/><path d="M61.036 36.512c.52.102 1.044.208 1.564.31.033 1.377-.664 1.701-1.866 1.3.102-.535.203-1.074.302-1.61zM56.64 42.295c.025-1.337.66-1.767 1.904-1.294-.049 1.297-.684 1.73-1.905 1.294zM63.455 23.778l-.294 1.568c-1.303-.053-1.739-.685-1.277-1.922.523.119 1.047.238 1.571.354zM37.301 40.14l-.137-.019c.232.592.419 1.191.546 1.797.269.053.537.105.806.155.402-1.155.117-1.767-1.215-1.932z" fill="#F2A595"/><path d="M38.509 42.066c1.322.037 1.768.662 1.283 1.916-1.296-.053-1.712-.698-1.283-1.916zM53.15 43.254c-.063 1.198-.54 1.71-1.824 1.324-1.06-.318-2.18-.444-3.27-.656l-1.572-.297c.055-1.198.514-1.697 1.817-1.343 1.588.43 3.231.658 4.848.972z" fill="#F2A595"/><path d="M44.595 44.918c.01-1.346.654-1.76 1.895-1.297-.046 1.29-.67 1.734-1.895 1.297zM57.183 30.854c-.086-.618.743-1.541-.54-1.796-1.038-.205-.943.701-1.002 1.264-.063.635-.822 1.548.396 1.872 1.152.301.9-.748 1.146-1.34zm-3.163-.704c-.036-.632.635-1.486-.52-1.708-1.15-.221-.96.788-1.061 1.383-.105.632-.753 1.588.54 1.767 1.156.162.737-.93 1.041-1.442zM42.385 21.743c-.072.906.174 1.44 1.375 1.466.534.105 1.067.208 1.6.314.034-1.32.665-1.747 1.896-1.287l.128-.659c-1.663.08-3.33.11-4.999.166zM49.515 27.602c-.507-.182-1.263.146-1.47-.599-.085-.31.05-.784.256-1.052.265-.34.694-.043 1.047.013.587.09.39.52.331.87-.046.265-.121.523-.183.781a.186.186 0 01.02-.013zM49.005 21.485c-.537.04-1.078.07-1.618.096-.042.221-.085.443-.13.665.635-.033 1.564.714 1.731-.582.01-.063.013-.123.017-.18zM58.161 34.308c.04-1.28.612-1.783 1.87-1.293.022 1.37-.672 1.697-1.87 1.293zM48.936 30.851c1.349.017 1.696.698 1.26 1.902-1.263-.07-1.787-.635-1.26-1.902z" fill="#F2A595"/><path d="M43.763 23.209l1.611.317c-.278.526.121 1.588-1.031 1.426-1.297-.179-.557-1.102-.58-1.744z" fill="#F2A595"/><path d="M45.36 23.533c.03-1.33.665-1.76 1.906-1.294-.046 1.304-.68 1.734-1.905 1.294zM62.542 28.535l-.295 1.549-1.562-.308.017.023c-.069-1.42.593-1.77 1.84-1.264zM57.182 30.854c-.245.593.007 1.645-1.142 1.34-1.218-.324-.458-1.234-.396-1.872.056-.563-.04-1.47 1.002-1.264 1.28.255.455 1.174.536 1.796zM54.02 30.15c-.301.512.115 1.6-1.04 1.442-1.297-.179-.65-1.135-.541-1.767.098-.595-.088-1.604 1.06-1.383 1.156.222.485 1.079.521 1.707zM26.485 44.564c.101.53.203 1.059.3 1.588-1.59.315-3.178.632-4.77.947l-.313-1.588 4.783-.947zM4.023 22.497l1.598-.327c.098.522.138 1.062.308 1.561.422 1.24.088 1.926-1.284 1.959-.21-1.066-.415-2.13-.622-3.193z" fill="#F2A595"/><path d="M30.014 38.88c-1.935.384-3.87.768-5.805 1.149-.838.165-1.82.704-2.144-.758-.105-.476-.606-.334-.972-.268-.744.136-1.48.288-2.22.433.105.536.206 1.072.311 1.608l.648 3.18c1.25-.48 1.84 0 1.863 1.297l.007-.01c1.594-.318 3.188-.632 4.782-.95l.01.007c-.488-1.25-.046-1.876 1.267-1.92-.402-1.147-.118-1.763 1.212-1.931a36.093 36.093 0 002.642-.44 47.266 47.266 0 00-1.601-1.396zM13.203 35.599c-.635-3.2-1.267-6.399-1.902-9.598l-.01.023 1.604-.334c.622 3.196 1.247 6.395 1.87 9.591l-1.562.318zM8.767 21.518c-.393-1.204-.085-1.906 1.303-1.833.111.526.226 1.052.337 1.578l.884 4.758.01-.024c-.524.096-1.048.192-1.575.292-.32-1.588-.638-3.18-.959-4.771z" fill="#F2A595"/><path d="M8.767 21.518c.32 1.591.638 3.18.96 4.77-1.14.48-1.775.232-1.906-1.124-.108-1.112-.413-2.204-.629-3.305.524-.113 1.051-.228 1.575-.34zM17.282 39.757c-1.27.477-1.843-.02-1.915-1.323-.03-.523-.193-1.036-.295-1.552l.004-.006c1.273-.483 1.84.03 1.921 1.323.033.523.19 1.035.288 1.552l-.003.006z" fill="#F2A595"/><path d="M13.203 35.599l1.562-.318.31 1.595-.002.006c-1.209.43-1.893.09-1.87-1.283zM19.832 44.227c1.25-.48 1.84 0 1.863 1.297-1.201.407-1.889.07-1.863-1.297zM5.605 22.196c.091-.579-.73-1.376.347-1.714 1.349-.426.998.788 1.267 1.397-.54.102-1.077.208-1.614.317zM18.876 39.436c.105.536.206 1.072.311 1.608-1.218.437-1.87.033-1.902-1.29l.003-.003c.527-.103 1.058-.209 1.588-.315z" fill="#F2A595"/><path d="M26.842 33.713c1.921-1.274 4.036-2.17 6.076-3.226-1.99-2.799-4.593-5.092-6.803-7.708-.403-.477 7.739-4.854 11.39-6.713a49.325 49.325 0 01-3.877-1.112c-5.208 1.036-10.414 2.071-15.622 3.103-.733.146-1.467.288-2.197.44-.422.09-.943.172-.818.758.275 1.31-.76 1.141-1.447 1.38.12.582.19 1.184.38 1.743.425 1.264-.174 1.674-1.307 1.7.095.537.187 1.076.282 1.612l1.869 9.591c.105.533.206 1.062.311 1.595 1.273-.483 1.84.03 1.922 1.323.032.523.19 1.035.288 1.552l1.59-.315c.74-.145 1.477-.3 2.22-.433.364-.066.865-.209.973.268.324 1.462 1.306.923 2.144.758 1.935-.38 3.87-.768 5.804-1.149-1.375-1.157-3.584-4.9-3.178-5.167zm-7.078-2.74c-2.757.52-2.37.791-2.91-1.975-.521-2.67-.737-2.26 2.111-2.828 2.57-.517 2.121-.699 2.72 2.256.423 2.08.41 2.084-1.921 2.547zm3.3 4.364c-1.356.298-1.726-.142-2-1.4-.299-1.366.271-1.614 1.387-1.875 1.277-.301 1.837.056 1.83 1.346.511 1.224.014 1.658-1.217 1.93zm2.93-10.61c1.3-.317 1.817.1 1.82 1.366.527 1.248-.033 1.642-1.234 1.916-1.375.314-1.712-.182-1.99-1.416-.312-1.386.314-1.598 1.404-1.866z" fill="#F2A595"/><path d="M30.59 13.922c-3.774.748-7.552 1.482-11.33 2.203-1.29.245-1.644.761-1.254 1.932 5.208-1.032 10.414-2.067 15.622-3.1-1.018-.33-2.026-.681-3.038-1.035zM13.54 20.635c.121.582.19 1.184.38 1.743.425 1.264-.174 1.674-1.306 1.7l-.629-3.169-.02.02c.527-.1 1.051-.195 1.575-.294z" fill="#F2A595"/><path d="M10.41 21.263c-.11-.526-.226-1.052-.337-1.578 1.287-.589 1.853-.073 1.899 1.244l.02-.02c-.53.12-1.058.239-1.582.354zM31.614 40.28a36.03 36.03 0 01-2.641.44c-1.333.169-1.618.784-1.208 1.939l5.133-1.02c-.387-.482-.822-.929-1.284-1.36z" fill="#F2A595"/><path d="M26.494 44.568c-.49-1.25-.045-1.88 1.277-1.92.436 1.215.02 1.863-1.277 1.92zM10.41 21.263c.528-.119 1.051-.238 1.579-.354l.628 3.17c.095.536.187 1.075.282 1.61-.534.11-1.07.223-1.604.332-.298-1.585-.593-3.17-.884-4.758zM19.763 30.974c-2.756.519-2.37.79-2.91-1.976-.52-2.67-.737-2.26 2.112-2.828 2.57-.516 2.121-.698 2.72 2.256.422 2.081.41 2.084-1.922 2.548zM24.278 33.408c.514 1.228.013 1.661-1.218 1.933-1.355.297-1.725-.146-2-1.403-.298-1.367.272-1.615 1.388-1.876 1.277-.301 1.837.053 1.83 1.346zM27.814 26.094c.527 1.243-.033 1.64-1.235 1.915-1.375.314-1.712-.182-1.99-1.416-.31-1.383.314-1.595 1.405-1.863 1.3-.32 1.816.096 1.82 1.364z" fill="#F2A595"/><path d="M23.263 45.1c.102.53.203 1.059.302 1.588l-4.77.947-.315-1.589c1.595-.314 3.19-.628 4.783-.946z" fill="#C0A29C"/><path d="M.799 23.033l1.597-.327c.099.522.138 1.062.308 1.561.422 1.24.089 1.926-1.283 1.959-.206-1.066-.416-2.128-.622-3.193z" fill="#F9B3A7"/><path d="M26.789 39.416c-1.935.384-3.87.768-5.804 1.148-.838.166-1.82.705-2.145-.757-.104-.477-.605-.334-.972-.268-.743.135-1.48.288-2.22.433.105.536.207 1.072.311 1.608l.649 3.18c1.25-.48 1.84 0 1.862 1.296l.007-.01c1.594-.317 3.189-.632 4.783-.95l.01.008c-.488-1.251-.046-1.876 1.267-1.92-.403-1.147-.118-1.763 1.21-1.931a36.034 36.034 0 002.643-.44c-.51-.477-1.058-.933-1.601-1.397z" fill="#FBCFC8"/><path d="M9.978 36.134l-1.902-9.597-.01.023c.534-.113 1.07-.222 1.605-.334l1.869 9.59c-.52.107-1.041.212-1.562.318z" fill="#FBD0C8"/><path d="M5.546 22.057c-.393-1.204-.085-1.905 1.303-1.833.111.526.226 1.052.337 1.578l.884 4.758.01-.023-1.575.29c-.32-1.59-.642-3.182-.96-4.77z" fill="#F2A595"/><path d="M5.546 22.057c.32 1.592.638 3.18.96 4.771-1.14.48-1.775.232-1.906-1.125-.108-1.111-.413-2.203-.629-3.305.524-.116 1.048-.228 1.575-.34z" fill="#F9B3A7"/><path d="M14.06 40.293c-1.27.477-1.842-.02-1.914-1.323-.03-.523-.193-1.036-.295-1.552l.003-.007c1.274-.483 1.84.03 1.922 1.324.033.523.19 1.035.288 1.551l-.003.007zM9.978 36.134l1.562-.317c.105.532.206 1.062.311 1.594 0 0-.003.004-.003.007-1.208.43-1.89.09-1.87-1.284zM16.611 44.763c1.25-.48 1.84 0 1.863 1.297-1.205.407-1.89.07-1.863-1.297z" fill="#F6C5BC"/><path d="M2.38 22.732c.092-.579-.73-1.376.347-1.714 1.349-.427.999.788 1.267 1.396-.537.103-1.077.212-1.614.318z" fill="#F2A595"/><path d="M15.652 39.976l.31 1.608c-1.217.436-1.869.033-1.902-1.29l.004-.004c.527-.106 1.057-.212 1.588-.314z" fill="#F6C5BC"/><path d="M23.62 34.252c1.922-1.274 4.037-2.17 6.076-3.226-1.99-2.799-4.593-5.091-6.803-7.708-.402-.477 7.74-4.854 11.39-6.713a49.38 49.38 0 01-3.877-1.112c-5.208 1.033-10.413 2.068-15.622 3.1-.733.146-1.466.288-2.197.44-.422.09-.942.172-.818.758.275 1.31-.76 1.141-1.447 1.38.121.582.19 1.184.38 1.743.425 1.264-.174 1.674-1.306 1.7.094.537.186 1.076.281 1.612.622 3.196 1.247 6.395 1.87 9.59l.31 1.595c1.274-.483 1.84.03 1.922 1.324.033.523.19 1.035.288 1.551.53-.105 1.06-.208 1.591-.314.74-.145 1.477-.3 2.22-.433.363-.066.864-.209.972.268.324 1.462 1.306.923 2.144.757 1.935-.38 3.87-.767 5.805-1.148-1.378-1.157-3.585-4.896-3.18-5.164zm-7.081-2.743c-2.757.52-2.37.791-2.91-1.975-.521-2.67-.737-2.26 2.111-2.828 2.57-.517 2.121-.699 2.72 2.256.426 2.084.41 2.087-1.921 2.547zm3.3 4.364c-1.356.298-1.726-.142-2-1.4-.298-1.366.271-1.614 1.388-1.875 1.276-.301 1.836.056 1.83 1.346.514 1.228.013 1.658-1.218 1.93zm2.93-10.607c1.3-.317 1.817.1 1.82 1.367.527 1.247-.033 1.64-1.234 1.915-1.375.315-1.712-.182-1.99-1.416-.312-1.386.314-1.601 1.404-1.866z" fill="#FCD5CD"/><path d="M27.366 14.461c-3.775.748-7.553 1.482-11.33 2.204-1.29.244-1.644.76-1.255 1.932 5.209-1.033 10.414-2.068 15.623-3.1a173.664 173.664 0 01-3.038-1.036z" fill="#FBD0C8"/><path d="M10.319 21.17c.12.583.19 1.185.38 1.744.425 1.264-.174 1.674-1.307 1.7l-.628-3.169-.02.02c.527-.096 1.051-.195 1.575-.294z" fill="#F2A595"/><path d="M7.186 21.802c-.111-.526-.226-1.052-.337-1.578 1.286-.588 1.853-.072 1.898 1.244l.02-.02c-.53.116-1.054.235-1.581.354z" fill="#F9B3A7"/><path d="M28.393 40.816a36.03 36.03 0 01-2.642.44c-1.332.169-1.617.784-1.208 1.939l5.134-1.02c-.39-.482-.825-.93-1.284-1.36z" fill="#F6C5BC"/><path d="M23.273 45.107c-.49-1.25-.046-1.88 1.277-1.919.432 1.214.02 1.86-1.277 1.919z" fill="#F6C5BC"/><path d="M7.186 21.802c.527-.119 1.05-.238 1.578-.354l.629 3.17c.094.536.186 1.075.281 1.611-.534.11-1.07.222-1.604.33l-.884-4.757z" fill="#F2A595"/><path d="M16.539 31.51c-2.757.519-2.37.79-2.91-1.976-.521-2.67-.737-2.26 2.111-2.829 2.57-.516 2.121-.698 2.72 2.257.426 2.084.41 2.087-1.921 2.547zM21.057 33.944c.514 1.228.013 1.661-1.218 1.932-1.355.298-1.725-.145-2-1.402-.298-1.367.271-1.615 1.388-1.876 1.276-.301 1.833.056 1.83 1.346zM24.59 26.63c.526 1.243-.034 1.64-1.235 1.915-1.375.314-1.712-.182-1.99-1.416-.312-1.383.314-1.595 1.404-1.863 1.3-.32 1.817.096 1.82 1.364z" fill="#F3C9BF"/><path d="M51.103 48.819c.098-.53.193-1.062.291-1.592 1.601.312 3.199.623 4.8.937-.105.53-.21 1.058-.318 1.585-1.588-.311-3.179-.62-4.773-.93zM46.64 46.301l-.31 1.588c-1.591-.31-3.182-.618-4.773-.93.098-.529.196-1.061.297-1.59l4.787.932z" fill="#C0A29C"/><path d="M55.506 43.052c-5.71-1.111-11.419-2.223-17.128-3.338a15.575 15.575 0 01.835 1.8l.137.02c1.333.165 1.617.774 1.218 1.925 1.316.04 1.758.665 1.274 1.916l.01-.007 4.786.933.006.01c.01-1.343.652-1.757 1.89-1.3.055-1.191.516-1.687 1.816-1.337 1.588.427 3.231.659 4.848.973.105-.533.207-1.062.308-1.595z" fill="#FCD5CD"/><path d="M64.3 31.476l-1.546-.304c-.062-1.403.596-1.75 1.837-1.244l.026-.02c.193-1.059.39-2.114.583-3.173-1.297-.056-1.729-.688-1.27-1.919.12-.757.576-1.634-.737-1.84-.383-.059-.478-.41-.403-.757.213-.966-.461-1.042-1.116-1.16-.632-.117-1.264-.246-1.895-.368l-7.497-1.46c.743.54 2.524 2.393 3.313 2.866 0 0-3.483.705-4.55.78 0 .057-.004.117-.014.18-.167 1.29-1.09.555-1.722.582-.049 1.293-.68 1.723-1.899 1.29-.268.53.118 1.578-1.028 1.42-1.293-.18-.553-1.106-.579-1.744-1.201-.027-1.447-.56-1.375-1.466-1.28.046-2.557.106-3.834.228l3.36 9.979s-5.455 1.29-7.733 1.63c.4 1.698 1.339 3.2 2.147 4.742 5.71 1.114 11.42 2.226 17.128 3.338l3.186.625c.03-1.323.661-1.753 1.895-1.287.099-.516.246-1.032.279-1.555.078-1.303.645-1.82 1.921-1.33.102-.533.2-1.069.301-1.601.413-2.147.819-4.288 1.222-6.432zm-14.205-3.08c-.085-.31.049-.784.255-1.052.265-.34.694-.043 1.048.013.586.09.39.52.33.87-.045.258-.117.51-.18.761-.507-.165-1.25.146-1.453-.592z" fill="#FCD5CD"/><path d="M58.528 18.765a1390.96 1390.96 0 01-8.99-1.71 47.206 47.206 0 002.753 2.177c2.498.486 5 .972 7.497 1.459.383-1.175.03-1.684-1.26-1.926z" fill="#FBD0C8"/><path d="M56.194 48.16c-1.601-.31-3.199-.621-4.8-.936-1.316-.036-1.712-.694-1.29-1.912 1.094.212 2.21.337 3.271.655 1.283.387 1.761-.126 1.824-1.323 1.047.208 2.098.413 3.146.622-.089.52-.23 1.035-.252 1.558-.056 1.303-.629 1.803-1.9 1.337z" fill="#EAB8AE"/><path d="M63.088 37.904L64.3 31.48l.294-1.548.027-.02c.517.096 1.037.189 1.555.285l-1.523 8.02c-.52-.107-1.044-.21-1.565-.312z" fill="#FBD0C8"/><path d="M65.504 25.17c.422.066.848.123 1.267.202 2.004.377 1.905.364 1.591 2.356-.216 1.376-1.005 1.078-1.846.94.402-1.221.052-1.926-1.316-1.943l.006.01c.102-.52.2-1.042.298-1.565z" fill="#F9B3A7"/><path d="M65.203 26.729c1.365.013 1.72.72 1.316 1.942l-.343 1.525c-.518-.096-1.038-.189-1.555-.285.193-1.062.39-2.124.582-3.182z" fill="#F2A595"/><path d="M60.587 42.4c.099-.519.25-1.038.279-1.564.078-1.307.648-1.82 1.931-1.327-.105.516-.271 1.029-.298 1.548-.065 1.31-.655 1.787-1.912 1.343z" fill="#F6C5BC"/><path d="M63.088 37.904c.52.103 1.045.209 1.565.311.033 1.377-.664 1.7-1.866 1.3.102-.535.2-1.075.301-1.61zM58.692 43.687c.026-1.336.661-1.766 1.905-1.293-.049 1.297-.684 1.73-1.905 1.293z" fill="#F6C5BC"/><path d="M65.504 25.17l-.294 1.569c-1.303-.053-1.738-.685-1.277-1.923.524.12 1.048.235 1.571.354z" fill="#F2A595"/><path d="M39.35 41.534l-.137-.02c.232.592.419 1.19.547 1.796.268.053.537.106.805.156.406-1.155.121-1.77-1.215-1.932z" fill="#F6C5BC"/><path d="M40.562 43.46c1.322.036 1.767.66 1.283 1.915-1.297-.053-1.716-.698-1.283-1.916zM46.648 46.311c.01-1.346.654-1.76 1.895-1.297-.046 1.29-.671 1.734-1.895 1.297z" fill="#F6C5BC"/><path d="M50.989 32.244c.193-1.082.386-2.167.576-3.25l-.023.017c.743.126 1.591.632 1.863-.678.144-.688.75-.44 1.201-.357 1.634.304 3.264.612 4.891.953.871.182 1.974.003 1.82 1.584-.068.712.917.497 1.434.679l-.016-.024-.658 3.236c-.468.635.154 1.456-1.87 1.294l.01-.007c-2.661-.52-5.32-1.035-7.98-1.555l.006.01c-1.189-.384-2.06.897-1.254-1.902zM44.438 23.136c-.072.906.173 1.439 1.375 1.465.533.106 1.067.209 1.6.315.033-1.32.665-1.747 1.896-1.287l.128-.659c-1.663.08-3.333.11-5 .166z" fill="#F9B3A7"/><path d="M52.24 34.14l7.98 1.554c-.071 1.218-.57 1.668-1.856 1.32a35.056 35.056 0 00-4.887-.952c-1.323-.162-1.618-.768-1.238-1.923z" fill="#F2A595"/><path d="M51.565 28.995c-.508-.182-1.264.145-1.47-.6-.085-.31.049-.783.255-1.051.265-.34.694-.043 1.048.013.586.09.39.52.33.87-.045.265-.12.523-.183.781l.02-.013z" fill="#302F2F"/><path d="M51.054 22.878c-.537.04-1.077.069-1.617.096-.042.221-.085.443-.13.665.634-.034 1.564.714 1.731-.583a.863.863 0 00.016-.178zM45.813 24.601l1.61.318c-.278.526.121 1.588-1.03 1.426-1.294-.179-.554-1.102-.58-1.744z" fill="#F2A595"/><path d="M47.414 24.925c.029-1.33.664-1.76 1.905-1.293-.046 1.303-.681 1.733-1.905 1.293z" fill="#F2A595"/><path d="M64.594 29.928l-.294 1.548-1.562-.307.017.023c-.07-1.42.589-1.774 1.84-1.264z" fill="#302F2F"/><path d="M14.352 18.64H11.92v2.458h2.432V18.64z" fill="#FCD5CD"/><path d="M16.189 18.057h-2.433v2.459h2.433v-2.459z" fill="#FCD5CD"/><path d="M17.066 16.178h-2.432v2.458h2.432v-2.458zM10.113 27.053H7.68v2.458h2.433v-2.458z" fill="#FCD5CD"/><path d="M10.75 29.415H8.319v2.458h2.433v-2.458zM11.625 31.96H9.193v2.457h2.432V31.96zM12.515 35.476h-2.432v2.458h2.432v-2.458z" fill="#FCD5CD"/><path d="M13.733 36.363h-2.432v2.458h2.432v-2.458z" fill="#FCD5CD"/><path d="M11.625 34.196H9.193v2.458h2.432v-2.458zM14.53 38.206h-2.433v2.458h2.432v-2.458z" fill="#FCD5CD"/><path d="M15.98 39.986h-2.433v2.458h2.432v-2.459zM18.755 43.876h-2.432v2.458h2.432v-2.458z" fill="#FBCFC8"/><path d="M20.903 43.635H18.47v2.458h2.433v-2.458zM23.689 43.35h-2.433v2.458h2.433V43.35z" fill="#FBCFC8"/><path d="M25.093 42.784h-2.432v2.459h2.432v-2.459z" fill="#FBCFC8"/><path d="M33.108 39.986h-2.433v2.458h2.433v-2.459zM30.672 40.892h-2.433v2.458h2.433v-2.458z" fill="#F2A595"/><path d="M28.24 42.123h-2.433v2.458h2.433v-2.458z" fill="#F2A595"/><path d="M27.022 44.293h-2.433v2.458h2.433v-2.458zM31.19 38.206h-2.433v2.458h2.432v-2.458z" fill="#F2A595"/><path d="M30.37 36.833h-2.432v2.458h2.432v-2.458z" fill="#F2A595"/><path d="M29.218 34.94h-2.432v2.458h2.432V34.94z" fill="#F2A595"/><path d="M28.24 33.137h-2.433v2.458h2.433v-2.458z" fill="#F2A595"/><path d="M29.971 31.268h-2.432v2.458h2.432v-2.458zM27.516 31.268h-2.432v2.458h2.432v-2.458z" fill="#F2A595"/><path d="M25.162 32.498H22.73v2.459h2.432v-2.459z" fill="#F2A595"/><path d="M26.275 34.748h-2.432v2.458h2.432v-2.458z" fill="#F2A595"/><path d="M27.516 37.087h-2.432v2.458h2.432v-2.458z" fill="#F2A595"/><path d="M29.457 38.755h-2.432v2.458h2.432v-2.458zM31.785 30.037h-2.433v2.458h2.433v-2.458z" fill="#F2A595"/><path d="M33.596 28.806h-2.433v2.459h2.433v-2.459z" fill="#F2A595"/><path d="M31.906 26.917h-2.432v2.458h2.432v-2.458z" fill="#F2A595"/><path d="M30.125 24.793h-2.432v2.459h2.432v-2.459z" fill="#F2A595"/><path d="M28.24 22.355h-2.433v2.458h2.433v-2.458z" fill="#F2A595"/><path d="M26.612 20.28H24.18v2.459h2.432V20.28z" fill="#F2A595"/><path d="M28.907 19.92h-2.432v2.458h2.432V19.92z" fill="#F2A595"/><path d="M31.163 18.454H28.73v2.458h2.433v-2.458z" fill="#F2A595"/><path d="M33.003 17.462H30.57v2.458h2.433v-2.458z" fill="#F2A595"/><path d="M35.396 16.231h-2.433v2.458h2.433v-2.458z" fill="#F2A595"/><path d="M37.445 15.162h-2.432v2.459h2.432v-2.458zM35.432 18H33v2.458h2.432V18z" fill="#F2A595"/><path d="M33.432 19H31v2.458h2.432V19zM49.947 15h-2.432v2.459h2.432V15z" fill="#F2A595"/><path d="M50.972 16.393H48.54v2.458h2.432v-2.458z" fill="#F2A595"/><path d="M52.272 18.07h-2.433v2.459h2.433V18.07z" fill="#F2A595"/><path d="M53.303 18.874h-2.432v2.459h2.432v-2.459z" fill="#F2A595"/><path d="M55.447 20.35h-2.432v2.458h2.432V20.35zM51.398 20.35h-2.433v2.458h2.433V20.35z" fill="#F2A595"/><path d="M49.23 20.35h-2.432v2.458h2.433V20.35z" fill="#F2A595"/><path d="M46.84 22.47h-2.432v2.459h2.433V22.47z" fill="#F2A595"/><path d="M48.016 24.254h-2.432v2.458h2.432v-2.458z" fill="#F2A595"/><path d="M48.91 22.47h-2.432v2.459h2.432V22.47z" fill="#F2A595"/><path d="M50.449 22.715h-2.433v2.459h2.433v-2.459z" fill="#F2A595"/><path d="M52.403 21.62H49.97v2.459h2.433V21.62z" fill="#F2A595"/><path d="M53.853 20.916h-2.432v2.458h2.432v-2.458zM46.907 20.73h-2.433v2.459h2.433V20.73zM44.451 20.826h-2.432v2.459h2.432v-2.459z" fill="#F2A595"/><path d="M42.372 21.065H39.94v2.458h2.432v-2.458z" fill="#F2A595"/><path d="M40.391 21.204H37.96v2.458h2.432v-2.458z" fill="#F2A595"/><path d="M41.157 23.043h-2.432v2.458h2.432v-2.458z" fill="#F2A595"/><path d="M42.015 25.134h-2.432v2.458h2.432v-2.458z" fill="#F2A595"/><path d="M42.827 27.288h-2.432v2.458h2.432v-2.458z" fill="#F2A595"/><path d="M43.233 29.438h-2.432v2.458h2.432v-2.458z" fill="#F2A595"/><path d="M44.042 31.265h-2.433v2.458h2.433v-2.458z" fill="#F2A595"/><path d="M41.95 31.77h-2.432v2.459h2.432V31.77z" fill="#F2A595"/><path d="M39.9 32.41h-2.432v2.457h2.433V32.41z" fill="#F2A595"/><path d="M37.697 32.498h-2.432v2.459h2.432v-2.459z" fill="#F2A595"/><path d="M36.031 33.24h-2.432v2.458h2.432V33.24z" fill="#F2A595"/><path d="M37.16 35.142h-2.432V37.6h2.432v-2.458z" fill="#F2A595"/><path d="M37.96 37.09h-2.433v2.459h2.432V37.09z" fill="#F2A595"/><path d="M38.915 39.05h-2.432v2.457h2.432V39.05z" fill="#F2A595"/><path d="M40.133 41.054h-2.432v2.458h2.432v-2.458z" fill="#F2A595"/><path d="M41.613 43.42H39.18v2.458h2.433V43.42z" fill="#F2A595"/><path d="M43.649 44.869h-2.433v2.458h2.433v-2.458z" fill="#C0A29C"/><path d="M45.544 45.398h-2.432v2.458h2.432v-2.458zM21.047 45.712h-2.432v2.458h2.432v-2.458z" fill="#C0A29C"/><path d="M23.237 45.107h-2.432v2.458h2.432v-2.458z" fill="#C0A29C"/><path d="M25.113 44.64h-2.432V47.1h2.432V44.64zM47.02 45.712h-2.432v2.458h2.433v-2.458z" fill="#C0A29C"/><path d="M66.035 24.916h-2.432v2.458h2.432v-2.458z" fill="#F2A595"/><path d="M66.722 24.787H64.29v2.458h2.432v-2.459z" fill="#F2A595"/><path d="M66.035 23.155h-2.432v2.459h2.432v-2.459zM66.856 26.507h-2.432v2.458h2.432v-2.458z" fill="#F2A595"/><path d="M67.253 27.97H64.82v2.457h2.433V27.97z" fill="#F2A595"/><path d="M62.08 33.812h-2.432v2.458h2.432v-2.458z" fill="#F9B3A7"/><path d="M62.83 32.029h-2.432v2.458h2.432v-2.458z" fill="#F9B3A7"/><path d="M63.118 29.623h-2.433v2.459h2.433v-2.459z" fill="#F9B3A7"/><path d="M61.962 27.97H59.53v2.457h2.432V27.97z" fill="#F9B3A7"/><path d="M59.628 27.738h-2.432v2.458h2.432v-2.458z" fill="#F9B3A7"/><path d="M57.35 27.231h-2.433v2.459h2.432V27.23z" fill="#F9B3A7"/><path d="M55.395 26.868h-2.432v2.458h2.432v-2.458z" fill="#F9B3A7"/><path d="M53.951 27.288H51.52v2.458h2.432v-2.458z" fill="#F9B3A7"/><path d="M52.636 29.041h-2.433V31.5h2.432v-2.458z" fill="#F9B3A7"/><path d="M52.272 30.851h-2.433v2.458h2.433v-2.458z" fill="#F9B3A7"/><path d="M52.377 32.495h-2.433v2.458h2.433v-2.458z" fill="#F9B3A7"/><path d="M56.449 30.173h-2.432v2.458h2.432v-2.458zM59.628 30.666h-2.432v2.458h2.432v-2.458z" fill="#EE9686"/><path d="M52.154 26.868h-2.432v2.458h2.432v-2.458z" fill="#302F2F"/><path d="M68.85 24.406h-2.432v2.458h2.432v-2.458z" fill="#F9B3A7"/><path d="M68.919 26.633h-2.433v2.458h2.433v-2.458z" fill="#F9B3A7"/><path d="M66.418 30.269h-2.433v2.458h2.433v-2.458z" fill="#FBD0C8"/><path d="M66.035 32.082h-2.432v2.458h2.432v-2.458z" fill="#FBD0C8"/><path d="M65.638 34.282h-2.432v2.458h2.432v-2.458z" fill="#FBD0C8"/><path d="M65.52 35.923h-2.432v2.458h2.433v-2.458z" fill="#FBD0C8"/><path d="M65.2 37.398h-2.432v2.458H65.2v-2.458z" fill="#FBD0C8"/><path d="M63.118 38.788h-2.433v2.458h2.433v-2.458z" fill="#FBD0C8"/><path d="M62.463 40.816h-2.432v2.458h2.432v-2.458z" fill="#FBD0C8"/><path d="M60.846 41.782h-2.432v2.458h2.432v-2.458z" fill="#FBD0C8"/><path d="M58.81 43.853h-2.433v2.458h2.433v-2.458z" fill="#EAB8AE"/><path d="M56.721 44.574h-2.432v2.458h2.432v-2.458zM51.332 43.03H48.9v2.457h2.432V43.03z" fill="#EAB8AE"/><path d="M53.591 43.42H51.16v2.458h2.432V43.42z" fill="#EAB8AE"/><path d="M55.886 43.188h-2.432v2.458h2.432v-2.458z" fill="#EAB8AE"/><path d="M58.508 42.778h-2.782v2.458h2.782v-2.458zM52.704 44.574h-2.432v2.458h2.432v-2.458z" fill="#EAB8AE"/><path d="M51.159 45.08h-2.432v2.459h2.432V45.08z" fill="#EAB8AE"/><path d="M49.106 43.688h-2.432v2.458h2.432v-2.459z" fill="#EAB8AE"/><path d="M55.63 16.231h-2.432v2.458h2.433v-2.458z" fill="#FBD0C8"/><path d="M53.303 15.662h-2.432v2.458h2.432v-2.458zM57.932 16.774H55.5v2.458h2.432v-2.458z" fill="#FBD0C8"/><path d="M59.838 18.001h-2.433v2.458h2.433v-2.458z" fill="#FBD0C8"/><path d="M62.08 19.685h-2.432v2.458h2.432v-2.458zM63.802 22.643H61.37V25.1h2.432v-2.458z" fill="#FBD0C8"/><path d="M63.452 20.73H61.02v2.459h2.432V20.73z" fill="#FBD0C8"/><path d="M35.013 14.067H32.58v2.459h2.433v-2.459z" fill="#F2A595"/><path d="M32.836 13.727h-2.433v2.458h2.433v-2.458z" fill="#F2A595"/><path d="M30.403 13.23h-2.432v2.458h2.432V13.23zM25.542 14.444h-2.433v2.459h2.433v-2.458z" fill="#FBD0C8"/><path d="M28.004 13.932H25.57v2.458h2.433v-2.458zM23.113 14.947H20.68v2.459h2.433v-2.459zM20.68 15.298h-2.432v2.458h2.432v-2.458z" fill="#FBD0C8"/><path d="M15.626 26.365h-2.433v2.458h2.433v-2.458zM16.866 29.677h-2.432v2.458h2.432v-2.458z" fill="#F3C9BF"/><path d="M15.275 28.826h-2.432v2.458h2.432v-2.458zM17.75 25.597h-2.432v2.458h2.432v-2.458zM23.237 25.33h-2.432v2.457h2.432V25.33z" fill="#F3C9BF"/><path d="M23.948 26.381h-2.433v2.458h2.433v-2.458zM19.715 32.283h-2.433v2.459h2.433v-2.459z" fill="#F3C9BF"/><path d="M21.65 32.498h-2.433v2.459h2.432v-2.459z" fill="#F3C9BF"/><path d="M22.238 33.517h-2.432v2.459h2.432v-2.459zM24.334 24.797H21.9v2.458h2.433v-2.458z" fill="#F3C9BF"/><path d="M26.432 26H24v2.458h2.432V26zM20.431 33.726H18v2.458h2.432v-2.458zM19.214 28.733H16.78v2.459h2.433v-2.459z" fill="#F3C9BF"/><path d="M19.214 26.381H16.78v2.458h2.433v-2.458z" fill="#F3C9BF"/><path d="M18.624 15.675h-2.432v2.458h2.432v-2.458z" fill="#FBD0C8"/><path d="M29.608 27.596h-2.433v2.458h2.433v-2.458z" fill="#F2A595"/><path d="M28.004 26.127H25.57v2.458h2.433v-2.458z" fill="#F2A595"/><path d="M26.612 23.933H24.18v2.458h2.432v-2.458z" fill="#F2A595"/><path d="M25.162 22.355H22.73v2.458h2.432v-2.458zM9.536 24.618h-2.32v2.346h2.32v-2.346z" fill="#F2A595"/><path d="M11.059 22.983H8.895v2.187h2.164v-2.187zM11.916 19.123H9.752v2.186h2.164v-2.186z" fill="#F2A595"/><path d="M11.036 21.263H8.872v2.187h2.164v-2.187zM10.164 25H8v2.187h2.164V25z" fill="#F2A595"/><path d="M9.789 19.563H7.376V22h2.413v-2.438z" fill="#F9B3A7"/><path d="M54.413 33.871H51.98v2.459h2.432V33.87zM60.329 34.934h-2.432v2.458h2.432v-2.459z" fill="#F2A595"/><path d="M58.426 34.692h-2.432v2.458h2.432v-2.458z" fill="#F2A595"/><path d="M56.132 34.282h-2.433v2.458h2.433v-2.458z" fill="#F2A595"/><path d="M64.67 29.16h-2.433v2.458h2.433V29.16z" fill="#302F2F"/></svg>
