<svg width="31" height="50" fill="none" xmlns="http://www.w3.org/2000/svg"><path d="M7.608 10.07l-.01 2.5 2.354.01.006-2.495-2.35-.016z" fill="#7C502A"/><path d="M7.617 7.575l-.009 2.494 2.35.016.012-2.501-2.353-.01z" fill="#6E2E14"/><path d="M7.627 5.073l-.01 2.501 2.353.01.01-2.501-2.353-.01z" fill="#7C502A"/><path d="M7.64 2.578l-.012 2.497 2.353.012.012-2.498-2.353-.011zM7.651.075l-.01 2.5 2.35.01.01-2.5-2.35-.01zM9.81 34.976l-.01 2.5 2.35.01.01-2.5-2.35-.01z" fill="#7C502A"/><path d="M9.82 32.486l-.01 2.494 2.35.009.009-2.495-2.35-.008zM9.83 29.982l-.01 2.5 2.349.01.01-2.5-2.35-.01z" fill="#7C502A"/><path d="M9.84 27.486l-.013 2.498 2.35.011.012-2.498-2.35-.01zM9.85 24.987l-.01 2.498 2.35.01.01-2.498-2.35-.01zM9.858 22.489l-.009 2.497 2.353.01.009-2.501-2.353-.006z" fill="#7C502A"/><path d="M9.87 19.991l-.012 2.498 2.353.006.012-2.498-2.353-.006zM9.88 17.49l-.01 2.5 2.353.007.006-2.498-2.35-.009z" fill="#7C502A"/><path d="M9.89 14.99l-.01 2.501 2.35.01.01-2.5-2.35-.01z" fill="#7C502A"/><path d="M9.898 12.492l-.01 2.501 2.35.01.01-2.501-2.35-.01zM9.91 9.995l-.01 2.497 2.353.01.01-2.498-2.353-.01zM9.92 7.498l-.01 2.495 2.352.01.011-2.495-2.353-.01zM9.93 5l-.01 2.497 2.352.01.01-2.498L9.93 5z" fill="#7C502A"/><path d="M9.941 2.498L9.931 5l2.353.01.01-2.501-2.353-.01z" fill="#7C502A"/><path d="M9.95 0l-.01 2.498 2.353.01.01-2.498L9.95 0zM9.958 10.085l-.006 2.494 2.352.01.006-2.498-2.352-.006zM9.97 7.584l-.012 2.5 2.352.007.013-2.498-2.353-.01z" fill="#7C502A"/><path d="M9.981 5.085l-.01 2.501 2.35.01.01-2.501-2.35-.01z" fill="#6E2E14"/><path d="M9.99 2.584l-.01 2.5 2.35.01.01-2.5-2.35-.01z" fill="#7C502A"/><path d="M12.162 34.99l-.01 2.498 2.353.01.01-2.498-2.353-.01z" fill="#6E2E14"/><path d="M12.168 32.492l-.008 2.498 2.352.008.01-2.5-2.354-.006z" fill="#6E2E14"/><path d="M12.18 29.994l-.011 2.498 2.352.006.01-2.495-2.35-.01z" fill="#6E2E14"/><path d="M12.189 27.495l-.01 2.498 2.353.01.01-2.499-2.353-.01zM12.202 24.994l-.012 2.498 2.353.01.012-2.497-2.353-.011z" fill="#6E2E14"/><path d="M12.21 22.494l-.01 2.5 2.35.01.01-2.5-2.35-.01z" fill="#6E2E14"/><path d="M12.223 19.997l-.012 2.498 2.353.009.009-2.495-2.35-.012z" fill="#6E2E14"/><path d="M12.229 17.5l-.006 2.497 2.35.012.009-2.498-2.353-.012zM12.24 14.998l-.01 2.501 2.35.01.01-2.501-2.35-.01z" fill="#6E2E14"/><path d="M12.25 12.504l-.01 2.498 2.352.01.01-2.499-2.353-.01zM12.262 10.003l-.012 2.498 2.353.012.009-2.5-2.35-.01zM12.271 7.508l-.009 2.495 2.35.01.012-2.499-2.353-.006z" fill="#6E2E14"/><path d="M12.283 5.01l-.012 2.498 2.353.006.009-2.497-2.35-.006zM12.292 2.51l-.009 2.5 2.35.007.012-2.498-2.353-.01z" fill="#6E2E14"/><path d="M12.302.011L12.29 2.51l2.353.011.012-2.497L12.302.01z" fill="#6E2E14"/><path d="M12.312 10.088l-.008 2.5 2.353.009.008-2.501-2.353-.008z" fill="#6B2E14"/><path d="M12.323 7.596l-.01 2.495 2.352.01.01-2.496-2.352-.01zM12.332 5.093l-.01 2.5 2.35.01.01-2.5-2.35-.01z" fill="#6E2E14"/><path d="M12.344 2.595l-.01 2.5 2.35.01.01-2.5-2.35-.01z" fill="#6E2E14"/><path d="M7.539 0l-.01 2.498 2.353.012.006-2.498L7.538 0z" fill="#7C502A"/><path d="M9.888.012L9.882 2.51l2.353.009.006-2.5L9.888.011z" fill="#7C502A"/><path d="M12.24.018l-.008 2.5 2.353.008.008-2.5-2.352-.008z" fill="#6B2E14"/><path d="M16.239 39.986l-.01 2.5 2.352.01.01-2.5-2.352-.01zM16.247 37.488l-.01 2.497 2.353.01.01-2.498-2.353-.01z" fill="#E6E7E8"/><path d="M14.043 37.488l-.01 2.501 2.35.01.01-2.501-2.35-.01zM6.959 40.027l-.01 2.5 2.35.01.012-2.5-2.352-.01z" fill="#E6E7E8"/><path d="M6.971 37.53l-.012 2.497 2.353.011.012-2.497-2.353-.011zM9.31 40.039l-.012 2.497 2.353.012.012-2.498-2.353-.011z" fill="#E6E7E8"/><path d="M9.321 37.536l-.01 2.5 2.35.01.01-2.5-2.35-.01zM11.663 40.045l-.01 2.5 2.35.01.01-2.5-2.35-.01z" fill="#E6E7E8"/><path d="M11.672 37.547l-.01 2.5 2.35.01.01-2.5-2.35-.01zM14.03 37.56l-.01 2.5 2.352.01.01-2.501-2.352-.01z" fill="#E6E7E8"/><path d="M16.213 37.575l-.01 2.494 2.353.01.012-2.498-2.355-.006zM14.014 40.056l-.01 2.5 2.35.01.01-2.5-2.35-.01zM9.29 39.987l-.01 2.5 2.352.01.01-2.501-2.352-.01z" fill="#E6E7E8"/><path d="M9.298 37.488l-.01 2.498 2.353.01.01-2.498-2.353-.01zM7.094 37.489l-.01 2.5 2.35.01.01-2.5-2.35-.01zM.01 40.027l-.01 2.5 2.35.01.012-2.5-2.353-.01z" fill="#E6E7E8"/><path d="M2.36 40.04l-.011 2.497 2.353.011.012-2.498-2.353-.01zM2.372 37.536l-.01 2.501 2.35.01.01-2.501-2.35-.01z" fill="#E6E7E8"/><path d="M4.714 40.046l-.01 2.5 2.35.01.01-2.5-2.35-.01z" fill="#E6E7E8"/><path d="M4.723 37.547l-.01 2.501 2.35.01.01-2.501-2.35-.01zM7.08 37.56l-.01 2.5 2.353.01.01-2.5-2.353-.01z" fill="#E6E7E8"/><path d="M9.266 37.575l-.012 2.494 2.353.01.012-2.498-2.353-.006z" fill="#E6E7E8"/><path d="M7.064 40.056l-.01 2.501 2.35.01.01-2.501-2.35-.01zM25.56 39.986l-.01 2.5 2.352.01.01-2.5-2.353-.01z" fill="#E6E7E8"/><path d="M23.364 37.488l-.01 2.5 2.35.01.01-2.5-2.35-.01zM16.28 40.027l-.01 2.5 2.35.01.012-2.5-2.353-.01z" fill="#E6E7E8"/><path d="M16.291 37.53l-.011 2.497 2.352.011.012-2.497-2.353-.011zM18.63 40.039l-.011 2.497 2.352.011.012-2.497-2.353-.011z" fill="#E6E7E8"/><path d="M18.641 37.536l-.01 2.5 2.35.01.01-2.5-2.35-.01zM20.983 40.045l-.01 2.5 2.35.01.01-2.5-2.35-.01z" fill="#E6E7E8"/><path d="M20.992 37.547l-.01 2.5 2.35.01.01-2.5-2.35-.01zM23.35 37.56l-.01 2.5 2.353.01.01-2.501-2.353-.01z" fill="#E6E7E8"/><path d="M23.334 40.056l-.01 2.5 2.35.01.01-2.5-2.35-.01z" fill="#E6E7E8"/><path d="M2.389 39.982l-.003 2.5 2.353.004.003-2.495-2.353-.01zM3.567 42.486l-.003 2.5 2.353.006.003-2.497-2.353-.01zM4.745 44.992l-.003 2.498 2.35.006.003-2.498-2.35-.005zM5.31 47.496l-.003 2.501L7.659 50l.003-2.495-2.352-.009z" fill="#717074"/><path d="M.003 39.982L0 42.482l2.35.004.003-2.495-2.35-.01zM1.18 42.486l-.002 2.5 2.35.006.003-2.497-2.35-.01zM2.356 44.992l-.003 2.498 2.353.006.003-2.498-2.353-.005zM2.924 47.496l-.003 2.501L5.27 50l.002-2.495-2.35-.009z" fill="#464648"/><path d="M13.072 39.982l-.003 2.5 2.352.004.003-2.495-2.352-.01zM14.25 42.486l-.004 2.5 2.353.006.003-2.497-2.353-.01zM15.427 44.992l-.003 2.498 2.35.006.003-2.498-2.35-.005zM15.992 47.496l-.003 2.501 2.353.003.003-2.495-2.353-.009z" fill="#717074"/><path d="M10.686 39.982l-.003 2.5 2.35.004.002-2.495-2.35-.01zM11.864 42.486l-.004 2.5 2.35.006.003-2.497-2.35-.01zM13.038 44.992l-.003 2.498 2.353.006.003-2.498-2.353-.005zM13.606 47.496l-.003 2.501 2.35.003.003-2.495-2.35-.009z" fill="#464648"/><path d="M25.288 39.982l-.003 2.5 2.35.004.003-2.495-2.35-.01zM26.463 42.486v2.5l2.35.006.003-2.497-2.353-.01zM27.641 44.992l-.003 2.498 2.353.006.003-2.498-2.353-.005zM28.209 47.496l-.003 2.501 2.35.003.003-2.495-2.35-.009z" fill="#717074"/><path d="M22.9 39.982l-.004 2.5 2.353.004.003-2.495-2.353-.01zM24.077 42.486l-.003 2.5 2.353.006.003-2.497-2.353-.01zM25.255 44.992l-.003 2.498 2.35.006.003-2.498-2.35-.005zM25.82 47.496l-.003 2.501L28.17 50l.003-2.495-2.353-.009z" fill="#464648"/></svg>
