<svg viewBox="0 0 54 50" fill="none" xmlns="http://www.w3.org/2000/svg"><path d="M36.719 47.367h-2.157V50h2.157v-2.633zM34.559 47.367H32.4V50h2.158v-2.633z" fill="#BE1E2D"/><path d="M32.4 47.367h-2.162V50h2.163v-2.633z" fill="#BE1E2D"/><path d="M30.241 47.367h-2.16V50h2.16v-2.633zM28.078 47.367h-2.157V50h2.157v-2.633z" fill="#BE1E2D"/><path d="M25.921 47.367H23.76V50h2.162v-2.633zM23.759 47.367h-2.157V50h2.157v-2.633zM21.599 47.367H19.44V50H21.6v-2.633z" fill="#BE1E2D"/><path d="M19.442 47.367h-2.163V50h2.163v-2.633zM41.038 44.737h-2.157v2.633h2.157v-2.633zM38.88 44.737h-2.162v2.633h2.162v-2.633z" fill="#BE1E2D"/><path d="M36.719 44.737h-2.157v2.633h2.157v-2.633zM34.559 44.737H32.4v2.633h2.158v-2.633z" fill="#BE1E2D"/><path d="M32.4 44.737h-2.162v2.633h2.163v-2.633z" fill="#BE1E2D"/><path d="M30.241 44.737h-2.16v2.633h2.16v-2.633zM28.078 44.737h-2.157v2.633h2.157v-2.633z" fill="#BE1E2D"/><path d="M25.921 44.737H23.76v2.633h2.162v-2.633zM23.759 44.737h-2.157v2.633h2.157v-2.633zM21.599 44.737H19.44v2.633H21.6v-2.633z" fill="#BE1E2D"/><path d="M19.442 44.737h-2.163v2.633h2.163v-2.633z" fill="#BE1E2D"/><path d="M17.28 44.737h-2.158v2.633h2.157v-2.633zM15.12 44.737h-2.158v2.633h2.157v-2.633zM45.36 42.107h-2.162v2.63h2.163v-2.63zM43.198 42.107h-2.157v2.63h2.157v-2.63zM41.038 42.107h-2.157v2.63h2.157v-2.63zM38.88 42.107h-2.162v2.63h2.162v-2.63z" fill="#BE1E2D"/><path d="M36.719 42.107h-2.157v2.63h2.157v-2.63zM34.559 42.107H32.4v2.63h2.158v-2.63z" fill="#BE1E2D"/><path d="M32.4 42.107h-2.162v2.63h2.163v-2.63z" fill="#BE1E2D"/><path d="M30.241 42.107h-2.16v2.63h2.16v-2.63zM28.078 42.107h-2.157v2.63h2.157v-2.63z" fill="#BE1E2D"/><path d="M25.921 42.107H23.76v2.63h2.162v-2.63zM23.759 42.107h-2.157v2.63h2.157v-2.63zM21.599 42.107H19.44v2.63H21.6v-2.63z" fill="#BE1E2D"/><path d="M19.442 42.107h-2.163v2.63h2.163v-2.63z" fill="#BE1E2D"/><path d="M17.28 42.107h-2.158v2.63h2.157v-2.63zM15.12 42.107h-2.158v2.63h2.157v-2.63zM12.962 42.107H10.8v2.63h2.162v-2.63zM10.8 42.107H8.643v2.63H10.8v-2.63zM47.518 39.474H45.36v2.633h2.158v-2.633z" fill="#BE1E2D"/><path d="M45.36 39.474h-2.162v2.633h2.163v-2.633zM43.198 39.474h-2.157v2.633h2.157v-2.633zM41.038 39.474h-2.157v2.633h2.157v-2.633zM38.88 39.474h-2.162v2.633h2.162v-2.633z" fill="#BE1E2D"/><path d="M36.719 39.474h-2.157v2.633h2.157v-2.633zM34.559 39.474H32.4v2.633h2.158v-2.633z" fill="#BE1E2D"/><path d="M32.4 39.474h-2.162v2.633h2.163v-2.633z" fill="#BE1E2D"/><path d="M30.241 39.474h-2.16v2.633h2.16v-2.633zM28.078 39.474h-2.157v2.633h2.157v-2.633z" fill="#BE1E2D"/><path d="M25.921 39.474H23.76v2.633h2.162v-2.633zM23.759 39.474h-2.157v2.633h2.157v-2.633zM21.599 39.474H19.44v2.633H21.6v-2.633z" fill="#BE1E2D"/><path d="M19.442 39.474h-2.163v2.633h2.163v-2.633z" fill="#BE1E2D"/><path d="M17.28 39.474h-2.158v2.633h2.157v-2.633zM15.12 39.474h-2.158v2.633h2.157v-2.633zM12.962 39.474H10.8v2.633h2.162v-2.633zM10.8 39.474H8.643v2.633H10.8v-2.633zM8.64 39.474H6.482v2.633H8.64v-2.633zM49.678 36.841H47.52v2.633h2.157v-2.633zM47.518 36.841H45.36v2.633h2.158v-2.633z" fill="#BE1E2D"/><path d="M45.36 36.841h-2.162v2.633h2.163v-2.633zM43.198 36.841h-2.157v2.633h2.157v-2.633zM41.038 36.841h-2.157v2.633h2.157v-2.633zM38.88 36.841h-2.162v2.633h2.162v-2.633z" fill="#BE1E2D"/><path d="M36.719 36.841h-2.157v2.633h2.157v-2.633zM34.559 36.841H32.4v2.633h2.158v-2.633z" fill="#BE1E2D"/><path d="M32.4 36.841h-2.162v2.633h2.163v-2.633z" fill="#BE1E2D"/><path d="M30.241 36.841h-2.16v2.633h2.16v-2.633zM28.078 36.841h-2.157v2.633h2.157v-2.633z" fill="#BE1E2D"/><path d="M25.921 36.841H23.76v2.633h2.162v-2.633zM23.759 36.841h-2.157v2.633h2.157v-2.633zM21.599 36.841H19.44v2.633H21.6v-2.633z" fill="#BE1E2D"/><path d="M19.442 36.841h-2.163v2.633h2.163v-2.633z" fill="#BE1E2D"/><path d="M17.28 36.841h-2.158v2.633h2.157v-2.633zM15.12 36.841h-2.158v2.633h2.157v-2.633zM12.962 36.841H10.8v2.633h2.162v-2.633zM10.8 36.841H8.643v2.633H10.8v-2.633zM8.64 36.841H6.482v2.633H8.64v-2.633z" fill="#BE1E2D"/><path d="M6.485 36.841H4.322v2.633h2.163v-2.633zM51.84 34.21h-2.162v2.634h2.162V34.21zM49.678 34.21H47.52v2.634h2.157V34.21zM47.518 34.21H45.36v2.634h2.158V34.21z" fill="#BE1E2D"/><path d="M45.36 34.21h-2.162v2.634h2.163V34.21zM43.198 34.21h-2.157v2.634h2.157V34.21zM41.038 34.21h-2.157v2.634h2.157V34.21zM38.88 34.21h-2.162v2.634h2.162V34.21z" fill="#BE1E2D"/><path d="M36.719 34.21h-2.157v2.634h2.157V34.21zM34.559 34.21H32.4v2.634h2.158V34.21zM21.599 34.21H19.44v2.634H21.6V34.21z" fill="#BE1E2D"/><path d="M19.442 34.21h-2.163v2.634h2.163V34.21z" fill="#BE1E2D"/><path d="M17.28 34.21h-2.158v2.634h2.157V34.21zM15.12 34.21h-2.158v2.634h2.157V34.21zM12.962 34.21H10.8v2.634h2.162V34.21zM10.8 34.21H8.643v2.634H10.8V34.21zM8.64 34.21H6.482v2.634H8.64V34.21z" fill="#BE1E2D"/><path d="M6.485 34.21H4.322v2.634h2.163V34.21zM4.32 34.21H2.161v2.634H4.32V34.21zM51.84 31.578h-2.162v2.633h2.162v-2.633zM49.678 31.578H47.52v2.633h2.157v-2.633zM47.518 31.578H45.36v2.633h2.158v-2.633z" fill="#BE1E2D"/><path d="M45.36 31.578h-2.162v2.633h2.163v-2.633zM43.198 31.578h-2.157v2.633h2.157v-2.633zM41.038 31.578h-2.157v2.633h2.157v-2.633zM38.88 31.578h-2.162v2.633h2.162v-2.633zM17.28 31.578h-2.158v2.633h2.157v-2.633zM15.12 31.578h-2.158v2.633h2.157v-2.633zM12.962 31.578H10.8v2.633h2.162v-2.633zM10.8 31.578H8.643v2.633H10.8v-2.633zM8.64 31.578H6.482v2.633H8.64v-2.633z" fill="#BE1E2D"/><path d="M6.485 31.578H4.322v2.633h2.163v-2.633zM4.32 31.578H2.161v2.633H4.32v-2.633zM53.997 28.948H51.84v2.63h2.157v-2.63zM51.84 28.948h-2.162v2.63h2.162v-2.63zM49.678 28.948H47.52v2.63h2.157v-2.63zM47.518 28.948H45.36v2.63h2.158v-2.63z" fill="#BE1E2D"/><path d="M45.36 28.948h-2.162v2.63h2.163v-2.63zM43.198 28.948h-2.157v2.63h2.157v-2.63zM41.038 28.948h-2.157v2.63h2.157v-2.63zM15.12 28.948h-2.158v2.63h2.157v-2.63zM12.962 28.948H10.8v2.63h2.162v-2.63zM10.8 28.948H8.643v2.63H10.8v-2.63zM8.64 28.948H6.482v2.63H8.64v-2.63z" fill="#BE1E2D"/><path d="M6.485 28.948H4.322v2.63h2.163v-2.63zM4.32 28.948H2.161v2.63H4.32v-2.63z" fill="#BE1E2D"/><path d="M2.162 28.948H0v2.63h2.162v-2.63zM53.997 26.315H51.84v2.633h2.157v-2.633zM51.84 26.315h-2.162v2.633h2.162v-2.633zM49.678 26.315H47.52v2.633h2.157v-2.633zM47.518 26.315H45.36v2.633h2.158v-2.633z" fill="#BE1E2D"/><path d="M45.36 26.315h-2.162v2.633h2.163v-2.633zM43.198 26.315h-2.157v2.633h2.157v-2.633zM41.038 26.315h-2.157v2.633h2.157v-2.633zM15.12 26.315h-2.158v2.633h2.157v-2.633zM12.962 26.315H10.8v2.633h2.162v-2.633zM10.8 26.315H8.643v2.633H10.8v-2.633zM8.64 26.315H6.482v2.633H8.64v-2.633z" fill="#BE1E2D"/><path d="M6.485 26.315H4.322v2.633h2.163v-2.633zM4.32 26.315H2.161v2.633H4.32v-2.633z" fill="#BE1E2D"/><path d="M2.162 26.315H0v2.633h2.162v-2.633zM53.997 23.685H51.84v2.63h2.157v-2.63zM51.84 23.685h-2.162v2.63h2.162v-2.63zM49.678 23.685H47.52v2.63h2.157v-2.63zM47.518 23.685H45.36v2.63h2.158v-2.63z" fill="#BE1E2D"/><path d="M45.36 23.685h-2.162v2.63h2.163v-2.63zM43.198 23.685h-2.157v2.63h2.157v-2.63zM41.038 23.685h-2.157v2.63h2.157v-2.63zM15.12 23.685h-2.158v2.63h2.157v-2.63zM12.962 23.685H10.8v2.63h2.162v-2.63zM10.8 23.685H8.643v2.63H10.8v-2.63zM8.64 23.685H6.482v2.63H8.64v-2.63z" fill="#BE1E2D"/><path d="M6.485 23.685H4.322v2.63h2.163v-2.63zM4.32 23.685H2.161v2.63H4.32v-2.63z" fill="#BE1E2D"/><path d="M2.162 23.685H0v2.63h2.162v-2.63zM53.997 21.052H51.84v2.633h2.157v-2.633zM51.84 21.052h-2.162v2.633h2.162v-2.633zM49.678 21.052H47.52v2.633h2.157v-2.633zM47.518 21.052H45.36v2.633h2.158v-2.633z" fill="#BE1E2D"/><path d="M45.36 21.052h-2.162v2.633h2.163v-2.633zM43.198 21.052h-2.157v2.633h2.157v-2.633zM41.038 21.052h-2.157v2.633h2.157v-2.633zM15.12 21.052h-2.158v2.633h2.157v-2.633zM12.962 21.052H10.8v2.633h2.162v-2.633zM10.8 21.052H8.643v2.633H10.8v-2.633zM8.64 21.052H6.482v2.633H8.64v-2.633z" fill="#BE1E2D"/><path d="M6.485 21.052H4.322v2.633h2.163v-2.633zM4.32 21.052H2.161v2.633H4.32v-2.633z" fill="#BE1E2D"/><path d="M2.162 21.052H0v2.633h2.162v-2.633zM53.997 18.42H51.84v2.632h2.157V18.42zM51.84 18.42h-2.162v2.632h2.162V18.42zM49.678 18.42H47.52v2.632h2.157V18.42zM47.518 18.42H45.36v2.632h2.158V18.42z" fill="#BE1E2D"/><path d="M45.36 18.42h-2.162v2.632h2.163V18.42zM43.198 18.42h-2.157v2.632h2.157V18.42zM41.038 18.42h-2.157v2.632h2.157V18.42zM15.12 18.42h-2.158v2.632h2.157V18.42zM12.962 18.42H10.8v2.632h2.162V18.42zM10.8 18.42H8.643v2.632H10.8V18.42zM8.64 18.42H6.482v2.632H8.64V18.42z" fill="#BE1E2D"/><path d="M6.485 18.42H4.322v2.632h2.163V18.42zM4.32 18.42H2.161v2.632H4.32V18.42z" fill="#BE1E2D"/><path d="M2.162 18.42H0v2.632h2.162V18.42zM53.997 15.789H51.84v2.63h2.157v-2.63zM51.84 15.789h-2.162v2.63h2.162v-2.63zM49.678 15.789H47.52v2.63h2.157v-2.63zM47.518 15.789H45.36v2.63h2.158v-2.63z" fill="#BE1E2D"/><path d="M45.36 15.789h-2.162v2.63h2.163v-2.63zM43.198 15.789h-2.157v2.63h2.157v-2.63zM41.038 15.789h-2.157v2.63h2.157v-2.63zM38.88 15.789h-2.162v2.63h2.162v-2.63zM17.28 15.789h-2.158v2.63h2.157v-2.63zM15.12 15.789h-2.158v2.63h2.157v-2.63zM12.962 15.789H10.8v2.63h2.162v-2.63zM10.8 15.789H8.643v2.63H10.8v-2.63zM8.64 15.789H6.482v2.63H8.64v-2.63z" fill="#BE1E2D"/><path d="M6.485 15.789H4.322v2.63h2.163v-2.63zM4.32 15.789H2.161v2.63H4.32v-2.63z" fill="#BE1E2D"/><path d="M2.162 15.789H0v2.63h2.162v-2.63zM51.84 13.159h-2.162v2.633h2.162v-2.633zM49.678 13.159H47.52v2.633h2.157v-2.633zM47.518 13.159H45.36v2.633h2.158v-2.633z" fill="#BE1E2D"/><path d="M45.36 13.159h-2.162v2.633h2.163v-2.633zM43.198 13.159h-2.157v2.633h2.157v-2.633zM41.038 13.159h-2.157v2.633h2.157v-2.633zM38.88 13.159h-2.162v2.633h2.162v-2.633z" fill="#BE1E2D"/><path d="M36.719 13.159h-2.157v2.633h2.157v-2.633zM19.442 13.159h-2.163v2.633h2.163v-2.633z" fill="#BE1E2D"/><path d="M17.28 13.159h-2.158v2.633h2.157v-2.633zM15.12 13.159h-2.158v2.633h2.157v-2.633zM12.962 13.159H10.8v2.633h2.162v-2.633zM10.8 13.159H8.643v2.633H10.8v-2.633zM8.64 13.159H6.482v2.633H8.64v-2.633z" fill="#BE1E2D"/><path d="M6.485 13.159H4.322v2.633h2.163v-2.633zM4.32 13.159H2.161v2.633H4.32v-2.633zM49.678 10.526H47.52v2.633h2.157v-2.633zM47.518 10.526H45.36v2.633h2.158v-2.633z" fill="#BE1E2D"/><path d="M45.36 10.526h-2.162v2.633h2.163v-2.633zM43.198 10.526h-2.157v2.633h2.157v-2.633zM41.038 10.526h-2.157v2.633h2.157v-2.633zM38.88 10.526h-2.162v2.633h2.162v-2.633z" fill="#BE1E2D"/><path d="M36.719 10.526h-2.157v2.633h2.157v-2.633zM34.559 10.526H32.4v2.633h2.158v-2.633z" fill="#BE1E2D"/><path d="M32.4 10.526h-2.162v2.633h2.163v-2.633z" fill="#BE1E2D"/><path d="M30.241 10.526h-2.16v2.633h2.16v-2.633zM28.078 10.526h-2.157v2.633h2.157v-2.633z" fill="#BE1E2D"/><path d="M25.921 10.526H23.76v2.633h2.162v-2.633zM23.759 10.526h-2.157v2.633h2.157v-2.633zM21.599 10.526H19.44v2.633H21.6v-2.633z" fill="#BE1E2D"/><path d="M19.442 10.526h-2.163v2.633h2.163v-2.633z" fill="#BE1E2D"/><path d="M17.28 10.526h-2.158v2.633h2.157v-2.633zM15.12 10.526h-2.158v2.633h2.157v-2.633z" fill="#BE1E2D"/><path d="M43.198 10.526H10.8v28.948h32.398V10.526zM10.8 10.526H8.643v2.633H10.8v-2.633zM8.64 10.526H6.482v2.633H8.64v-2.633z" fill="#BE1E2D"/><path d="M6.485 10.526H4.322v2.633h2.163v-2.633zM47.518 7.893H45.36v2.633h2.158V7.893z" fill="#BE1E2D"/><path d="M45.36 7.893h-2.162v2.633h2.163V7.893zM43.198 7.893h-2.157v2.633h2.157V7.893zM41.038 7.893h-2.157v2.633h2.157V7.893zM38.88 7.893h-2.162v2.633h2.162V7.893z" fill="#BE1E2D"/><path d="M36.719 7.893h-2.157v2.633h2.157V7.893zM34.559 7.893H32.4v2.633h2.158V7.893z" fill="#BE1E2D"/><path d="M32.4 7.893h-2.162v2.633h2.163V7.893z" fill="#BE1E2D"/><path d="M30.241 7.893h-2.16v2.633h2.16V7.893zM28.078 7.893h-2.157v2.633h2.157V7.893z" fill="#BE1E2D"/><path d="M25.921 7.893H23.76v2.633h2.162V7.893zM23.759 7.893h-2.157v2.633h2.157V7.893zM21.599 7.893H19.44v2.633H21.6V7.893z" fill="#BE1E2D"/><path d="M19.442 7.893h-2.163v2.633h2.163V7.893z" fill="#BE1E2D"/><path d="M17.28 7.893h-2.158v2.633h2.157V7.893zM15.12 7.893h-2.158v2.633h2.157V7.893zM12.962 7.893H10.8v2.633h2.162V7.893zM10.8 7.893H8.643v2.633H10.8V7.893zM8.64 7.893H6.482v2.633H8.64V7.893zM45.36 5.263h-2.162v2.633h2.163V5.263zM43.198 5.263h-2.157v2.633h2.157V5.263zM41.038 5.263h-2.157v2.633h2.157V5.263zM38.88 5.263h-2.162v2.633h2.162V5.263z" fill="#BE1E2D"/><path d="M36.719 5.263h-2.157v2.633h2.157V5.263zM34.559 5.263H32.4v2.633h2.158V5.263z" fill="#BE1E2D"/><path d="M32.4 5.263h-2.162v2.633h2.163V5.263z" fill="#BE1E2D"/><path d="M30.241 5.263h-2.16v2.633h2.16V5.263zM28.078 5.263h-2.157v2.633h2.157V5.263z" fill="#BE1E2D"/><path d="M25.921 5.263H23.76v2.633h2.162V5.263zM23.759 5.263h-2.157v2.633h2.157V5.263zM21.599 5.263H19.44v2.633H21.6V5.263z" fill="#BE1E2D"/><path d="M19.442 5.263h-2.163v2.633h2.163V5.263z" fill="#BE1E2D"/><path d="M17.28 5.263h-2.158v2.633h2.157V5.263zM15.12 5.263h-2.158v2.633h2.157V5.263zM12.962 5.263H10.8v2.633h2.162V5.263zM10.8 5.263H8.643v2.633H10.8V5.263zM43.198 2.633h-2.157v2.63h2.157v-2.63zM41.038 2.633h-2.157v2.63h2.157v-2.63zM38.88 2.633h-2.162v2.63h2.162v-2.63z" fill="#BE1E2D"/><path d="M36.719 2.633h-2.157v2.63h2.157v-2.63zM34.559 2.633H32.4v2.63h2.158v-2.63z" fill="#BE1E2D"/><path d="M32.4 2.633h-2.162v2.63h2.163v-2.63z" fill="#BE1E2D"/><path d="M30.241 2.633h-2.16v2.63h2.16v-2.63zM28.078 2.633h-2.157v2.63h2.157v-2.63z" fill="#BE1E2D"/><path d="M25.921 2.633H23.76v2.63h2.162v-2.63zM23.759 2.633h-2.157v2.63h2.157v-2.63zM21.599 2.633H19.44v2.63H21.6v-2.63z" fill="#BE1E2D"/><path d="M19.442 2.633h-2.163v2.63h2.163v-2.63z" fill="#BE1E2D"/><path d="M17.28 2.633h-2.158v2.63h2.157v-2.63zM15.12 2.633h-2.158v2.63h2.157v-2.63zM12.962 2.633H10.8v2.63h2.162v-2.63zM38.88 0h-2.162v2.633h2.162V0z" fill="#BE1E2D"/><path d="M36.719 0h-2.157v2.633h2.157V0zM34.559 0H32.4v2.633h2.158V0z" fill="#BE1E2D"/><path d="M34.559 0h-17.28v2.633h17.28V0z" fill="#BE1E2D"/><path d="M17.28 0h-2.158v2.633h2.157V0z" fill="#BE1E2D"/><path d="M18.645 13.183c-1.199-.014-2.4.816-2.94 2.144-.478 1.175-.17 2.733.692 3.663 1.651 1.782 3.276 3.588 4.94 5.358.347.37.236.557-.047.866-1.645 1.798-3.27 3.612-4.903 5.421a3.24 3.24 0 0 0-.769 1.392c-.432 1.7.327 3.285 2.085 4.352 1.299.787 2.765.565 3.989-.61 1.738-1.666 3.479-3.33 5.209-5.007.229-.222.363-.346.656-.055 1.723 1.682 3.492 3.319 5.201 5.014.983.975 2.405 1.374 3.616.89 2.198-.882 2.818-3.567 1.195-5.458-1.581-1.84-3.222-3.628-4.875-5.4-.367-.394-.38-.632-.015-.975.29-.272.56-.57.828-.869 1.2-1.344 2.342-2.746 3.61-4.021 1.496-1.506 1.844-2.831.8-4.654-1.338-2.331-3.83-2.693-5.516-1.098a312.527 312.527 0 0 0-5.179 4.996c-.398.396-.604.306-.956-.04-1.684-1.647-3.397-3.263-5.096-4.895-.666-.645-1.435-1.025-2.525-1.014z" fill="#fff"/><path d="M29.162 29.73h-2.163v2.41h2.163v-2.41z" fill="#fff"/><path d="M30.354 30.934H28.19v2.41h2.163v-2.41z" fill="#fff"/><path d="M31.887 32.402h-2.162v2.411h2.162v-2.41z" fill="#fff"/><path d="M33.42 33.87h-2.163v2.411h2.162v-2.41z" fill="#fff"/><path d="M35.1 34.813h-2.162v2.411h2.163v-2.41z" fill="#fff"/><path d="M36.89 34.813h-2.163v2.411h2.163v-2.41z" fill="#fff"/><path d="M38.362 34.322h-2.163v2.41h2.163v-2.41z" fill="#fff"/><path d="M39.444 32.402H37.28v2.411h2.163v-2.41z" fill="#fff"/><path d="M38.88 30.71h-2.162v2.41h2.162v-2.41z" fill="#fff"/><path d="M37.97 29.059h-2.162v2.41h2.162v-2.41z" fill="#fff"/><path d="M36.721 27.63H34.56v2.411h2.162v-2.41z" fill="#fff"/><path d="M35.641 26.315h-2.163v2.411h2.163v-2.41z" fill="#fff"/><path d="M34.558 24.997h-2.163v2.411h2.163v-2.41z" fill="#fff"/><path d="M32.59 23.804h-2.163v2.41h2.162v-2.41z" fill="#fff"/><path d="M34.02 22.597h-2.162v2.41h2.163v-2.41z" fill="#fff"/><path d="M34.728 21.052h-2.163v2.411h2.163v-2.41z" fill="#fff"/><path d="M36.446 20.239h-2.163v2.41h2.163v-2.41z" fill="#fff"/><path d="M37.526 19.256h-2.163v2.411h2.163v-2.41z" fill="#fff"/><path d="M38.88 17.635h-2.162v2.41h2.162v-2.41z" fill="#fff"/><path d="M39.598 15.9h-2.163v2.411h2.163V15.9z" fill="#fff"/><path d="M39.143 14.627H36.98v2.411h2.163v-2.41z" fill="#fff"/><path d="M38.063 13.27H35.9v2.41h2.163v-2.41z" fill="#fff"/><path d="M36.98 12.195h-2.162v2.411h2.163v-2.411z" fill="#fff"/><path d="M35.175 12.406h-2.162v2.411h2.162v-2.41z" fill="#fff"/><path d="M33.484 13.159H31.32v2.41h2.163v-2.41z" fill="#fff"/><path d="M31.694 14.363H29.53v2.411h2.163v-2.41z" fill="#fff"/><path d="M30.354 15.9H28.19v2.411h2.163V15.9z" fill="#fff"/><path d="M28.917 17.215h-2.162v2.411h2.162v-2.41zM26.754 17.828h-2.162v2.41h2.162v-2.41z" fill="#fff"/><path d="M25.455 16.172h-2.162v2.411h2.162v-2.411z" fill="#fff"/><path d="M23.761 14.474H21.6v2.411h2.162v-2.411z" fill="#fff"/><path d="M22.22 12.71h-2.163v2.41h2.162v-2.41zM20.056 11.952h-2.162v2.411h2.162v-2.411z" fill="#fff"/><path d="M18.056 12.406h-2.162v2.411h2.162v-2.41z" fill="#fff"/><path d="M16.976 14.474h-2.162v2.411h2.162v-2.411zM17.282 16.885h-2.163v2.411h2.163v-2.411z" fill="#fff"/><path d="M18.362 18.828h-2.163v2.412h2.163v-2.412z" fill="#fff"/><path d="M20.056 20.431h-2.162v2.412h2.162V20.43z" fill="#fff"/><path d="M21.604 21.865H19.44v2.411h2.163v-2.41z" fill="#fff"/><path d="M22.684 23.484h-2.163v2.411h2.163v-2.41z" fill="#fff"/><path d="M21.29 25.399h-2.162v2.41h2.162V25.4z" fill="#fff"/><path d="M19.78 27.126h-2.162v2.41h2.163v-2.41z" fill="#fff"/><path d="M18.362 28.525h-2.163v2.411h2.163v-2.41z" fill="#fff"/><path d="M17.135 29.73h-2.162v2.41h2.162v-2.41zM16.328 32.14h-2.163v2.412h2.163V32.14z" fill="#fff"/><path d="M17.39 33.337h-2.163v2.41h2.163v-2.41z" fill="#fff"/><path d="M18.47 34.541h-2.162v2.411h2.162v-2.411z" fill="#fff"/><path d="M20.522 35.188h-2.163v2.411h2.163v-2.411z" fill="#fff"/><path d="M20.524 35.188H18.36v2.411h2.163v-2.411z" fill="#fff"/><path d="M22.681 34.433h-2.162v2.41h2.162v-2.41z" fill="#fff"/><path d="M24.376 32.78h-2.162v2.41h2.162v-2.41zM26.538 30.934h-2.162v2.41h2.162v-2.41z" fill="#fff"/><path d="M28.083 29.73h-2.162v2.41h2.162v-2.41z" fill="#fff"/></svg>
