<svg viewBox="0 0 54 50" fill="none" xmlns="http://www.w3.org/2000/svg">
  <path d="M36.7189 47.3672H34.5615V50H36.7189V47.3672Z" fill="#BE1E2D"/>
  <path d="M34.5587 47.3672H32.4014V50H34.5587V47.3672Z" fill="#BE1E2D"/>
  <path d="M32.4007 47.3672H30.2383V50H32.4007V47.3672Z" fill="#BE1E2D"/>
  <path d="M30.241 47.3672H28.0811V50H30.241V47.3672Z" fill="#BE1E2D"/>
  <path d="M28.0782 47.3672H25.9209V50H28.0782V47.3672Z" fill="#BE1E2D"/>
  <path d="M25.9213 47.3672H23.7588V50H25.9213V47.3672Z" fill="#BE1E2D"/>
  <path d="M23.7589 47.3672H21.6016V50H23.7589V47.3672Z" fill="#BE1E2D"/>
  <path d="M21.5987 47.3672H19.4414V50H21.5987V47.3672Z" fill="#BE1E2D"/>
  <path d="M19.4418 47.3672H17.2793V50H19.4418V47.3672Z" fill="#BE1E2D"/>
  <path d="M41.0382 44.7369H38.8809V47.3698H41.0382V44.7369Z" fill="#BE1E2D"/>
  <path d="M38.8802 44.7369H36.7178V47.3698H38.8802V44.7369Z" fill="#BE1E2D"/>
  <path d="M36.7189 44.7369H34.5615V47.3698H36.7189V44.7369Z" fill="#BE1E2D"/>
  <path d="M34.5587 44.7369H32.4014V47.3698H34.5587V44.7369Z" fill="#BE1E2D"/>
  <path d="M32.4007 44.7369H30.2383V47.3698H32.4007V44.7369Z" fill="#BE1E2D"/>
  <path d="M30.241 44.7369H28.0811V47.3698H30.241V44.7369Z" fill="#BE1E2D"/>
  <path d="M28.0782 44.7369H25.9209V47.3698H28.0782V44.7369Z" fill="#BE1E2D"/>
  <path d="M25.9213 44.7369H23.7588V47.3698H25.9213V44.7369Z" fill="#BE1E2D"/>
  <path d="M23.7589 44.7369H21.6016V47.3698H23.7589V44.7369Z" fill="#BE1E2D"/>
  <path d="M21.5987 44.7369H19.4414V47.3698H21.5987V44.7369Z" fill="#BE1E2D"/>
  <path d="M19.4418 44.7369H17.2793V47.3698H19.4418V44.7369Z" fill="#BE1E2D"/>
  <path d="M17.2794 44.7369H15.1221V47.3698H17.2794V44.7369Z" fill="#BE1E2D"/>
  <path d="M15.1192 44.7369H12.9619V47.3698H15.1192V44.7369Z" fill="#BE1E2D"/>
  <path d="M45.3607 42.1068H43.1982V44.737H45.3607V42.1068Z" fill="#BE1E2D"/>
  <path d="M43.1983 42.1068H41.041V44.737H43.1983V42.1068Z" fill="#BE1E2D"/>
  <path d="M41.0382 42.1068H38.8809V44.737H41.0382V42.1068Z" fill="#BE1E2D"/>
  <path d="M38.8802 42.1068H36.7178V44.737H38.8802V42.1068Z" fill="#BE1E2D"/>
  <path d="M36.7189 42.1068H34.5615V44.737H36.7189V42.1068Z" fill="#BE1E2D"/>
  <path d="M34.5587 42.1068H32.4014V44.737H34.5587V42.1068Z" fill="#BE1E2D"/>
  <path d="M32.4007 42.1068H30.2383V44.737H32.4007V42.1068Z" fill="#BE1E2D"/>
  <path d="M30.241 42.1068H28.0811V44.737H30.241V42.1068Z" fill="#BE1E2D"/>
  <path d="M28.0782 42.1068H25.9209V44.737H28.0782V42.1068Z" fill="#BE1E2D"/>
  <path d="M25.9213 42.1068H23.7588V44.737H25.9213V42.1068Z" fill="#BE1E2D"/>
  <path d="M23.7589 42.1068H21.6016V44.737H23.7589V42.1068Z" fill="#BE1E2D"/>
  <path d="M21.5987 42.1068H19.4414V44.737H21.5987V42.1068Z" fill="#BE1E2D"/>
  <path d="M19.4418 42.1068H17.2793V44.737H19.4418V42.1068Z" fill="#BE1E2D"/>
  <path d="M17.2794 42.1068H15.1221V44.737H17.2794V42.1068Z" fill="#BE1E2D"/>
  <path d="M15.1192 42.1068H12.9619V44.737H15.1192V42.1068Z" fill="#BE1E2D"/>
  <path d="M12.9623 42.1068H10.7998V44.737H12.9623V42.1068Z" fill="#BE1E2D"/>
  <path d="M10.7999 42.1068H8.64258V44.737H10.7999V42.1068Z" fill="#BE1E2D"/>
  <path d="M47.5177 39.4739H45.3604V42.1068H47.5177V39.4739Z" fill="#BE1E2D"/>
  <path d="M45.3607 39.4739H43.1982V42.1068H45.3607V39.4739Z" fill="#BE1E2D"/>
  <path d="M43.1983 39.4739H41.041V42.1068H43.1983V39.4739Z" fill="#BE1E2D"/>
  <path d="M41.0382 39.4739H38.8809V42.1068H41.0382V39.4739Z" fill="#BE1E2D"/>
  <path d="M38.8802 39.4739H36.7178V42.1068H38.8802V39.4739Z" fill="#BE1E2D"/>
  <path d="M36.7189 39.4739H34.5615V42.1068H36.7189V39.4739Z" fill="#BE1E2D"/>
  <path d="M34.5587 39.4739H32.4014V42.1068H34.5587V39.4739Z" fill="#BE1E2D"/>
  <path d="M32.4007 39.4739H30.2383V42.1068H32.4007V39.4739Z" fill="#BE1E2D"/>
  <path d="M30.241 39.4739H28.0811V42.1068H30.241V39.4739Z" fill="#BE1E2D"/>
  <path d="M28.0782 39.4739H25.9209V42.1068H28.0782V39.4739Z" fill="#BE1E2D"/>
  <path d="M25.9213 39.4739H23.7588V42.1068H25.9213V39.4739Z" fill="#BE1E2D"/>
  <path d="M23.7589 39.4739H21.6016V42.1068H23.7589V39.4739Z" fill="#BE1E2D"/>
  <path d="M21.5987 39.4739H19.4414V42.1068H21.5987V39.4739Z" fill="#BE1E2D"/>
  <path d="M19.4418 39.4739H17.2793V42.1068H19.4418V39.4739Z" fill="#BE1E2D"/>
  <path d="M17.2794 39.4739H15.1221V42.1068H17.2794V39.4739Z" fill="#BE1E2D"/>
  <path d="M15.1192 39.4739H12.9619V42.1068H15.1192V39.4739Z" fill="#BE1E2D"/>
  <path d="M12.9623 39.4739H10.7998V42.1068H12.9623V39.4739Z" fill="#BE1E2D"/>
  <path d="M10.7999 39.4739H8.64258V42.1068H10.7999V39.4739Z" fill="#BE1E2D"/>
  <path d="M8.63975 39.4739H6.48242V42.1068H8.63975V39.4739Z" fill="#BE1E2D"/>
  <path d="M49.6778 36.8411H47.5205V39.474H49.6778V36.8411Z" fill="#BE1E2D"/>
  <path d="M47.5177 36.8411H45.3604V39.474H47.5177V36.8411Z" fill="#BE1E2D"/>
  <path d="M45.3607 36.8411H43.1982V39.474H45.3607V36.8411Z" fill="#BE1E2D"/>
  <path d="M43.1983 36.8411H41.041V39.474H43.1983V36.8411Z" fill="#BE1E2D"/>
  <path d="M41.0382 36.8411H38.8809V39.474H41.0382V36.8411Z" fill="#BE1E2D"/>
  <path d="M38.8802 36.8411H36.7178V39.474H38.8802V36.8411Z" fill="#BE1E2D"/>
  <path d="M36.7189 36.8411H34.5615V39.474H36.7189V36.8411Z" fill="#BE1E2D"/>
  <path d="M34.5587 36.8411H32.4014V39.474H34.5587V36.8411Z" fill="#BE1E2D"/>
  <path d="M32.4007 36.8411H30.2383V39.474H32.4007V36.8411Z" fill="#BE1E2D"/>
  <path d="M30.241 36.8411H28.0811V39.474H30.241V36.8411Z" fill="#BE1E2D"/>
  <path d="M28.0782 36.8411H25.9209V39.474H28.0782V36.8411Z" fill="#BE1E2D"/>
  <path d="M25.9213 36.8411H23.7588V39.474H25.9213V36.8411Z" fill="#BE1E2D"/>
  <path d="M23.7589 36.8411H21.6016V39.474H23.7589V36.8411Z" fill="#BE1E2D"/>
  <path d="M21.5987 36.8411H19.4414V39.474H21.5987V36.8411Z" fill="#BE1E2D"/>
  <path d="M19.4418 36.8411H17.2793V39.474H19.4418V36.8411Z" fill="#BE1E2D"/>
  <path d="M17.2794 36.8411H15.1221V39.474H17.2794V36.8411Z" fill="#BE1E2D"/>
  <path d="M15.1192 36.8411H12.9619V39.474H15.1192V36.8411Z" fill="#BE1E2D"/>
  <path d="M12.9623 36.8411H10.7998V39.474H12.9623V36.8411Z" fill="#BE1E2D"/>
  <path d="M10.7999 36.8411H8.64258V39.474H10.7999V36.8411Z" fill="#BE1E2D"/>
  <path d="M8.63975 36.8411H6.48242V39.474H8.63975V36.8411Z" fill="#BE1E2D"/>
  <path d="M6.48473 36.8411H4.32227V39.474H6.48473V36.8411Z" fill="#BE1E2D"/>
  <path d="M51.8402 34.2109H49.6777V36.8437H51.8402V34.2109Z" fill="#BE1E2D"/>
  <path d="M49.6778 34.2109H47.5205V36.8437H49.6778V34.2109Z" fill="#BE1E2D"/>
  <path d="M47.5177 34.2109H45.3604V36.8437H47.5177V34.2109Z" fill="#BE1E2D"/>
  <path d="M45.3607 34.2109H43.1982V36.8437H45.3607V34.2109Z" fill="#BE1E2D"/>
  <path d="M43.1983 34.2109H41.041V36.8437H43.1983V34.2109Z" fill="#BE1E2D"/>
  <path d="M41.0382 34.2109H38.8809V36.8437H41.0382V34.2109Z" fill="#BE1E2D"/>
  <path d="M38.8802 34.2109H36.7178V36.8437H38.8802V34.2109Z" fill="#BE1E2D"/>
  <path d="M36.7189 34.2109H34.5615V36.8437H36.7189V34.2109Z" fill="#BE1E2D"/>
  <path d="M34.5587 34.2109H32.4014V36.8437H34.5587V34.2109Z" fill="#BE1E2D"/>
  <path d="M21.5987 34.2109H19.4414V36.8437H21.5987V34.2109Z" fill="#BE1E2D"/>
  <path d="M19.4418 34.2109H17.2793V36.8437H19.4418V34.2109Z" fill="#BE1E2D"/>
  <path d="M17.2794 34.2109H15.1221V36.8437H17.2794V34.2109Z" fill="#BE1E2D"/>
  <path d="M15.1192 34.2109H12.9619V36.8437H15.1192V34.2109Z" fill="#BE1E2D"/>
  <path d="M12.9623 34.2109H10.7998V36.8437H12.9623V34.2109Z" fill="#BE1E2D"/>
  <path d="M10.7999 34.2109H8.64258V36.8437H10.7999V34.2109Z" fill="#BE1E2D"/>
  <path d="M8.63975 34.2109H6.48242V36.8437H8.63975V34.2109Z" fill="#BE1E2D"/>
  <path d="M6.48473 34.2109H4.32227V36.8437H6.48473V34.2109Z" fill="#BE1E2D"/>
  <path d="M4.31944 34.2109H2.16211V36.8437H4.31944V34.2109Z" fill="#BE1E2D"/>
  <path d="M51.8402 31.5781H49.6777V34.2109H51.8402V31.5781Z" fill="#BE1E2D"/>
  <path d="M49.6778 31.5781H47.5205V34.2109H49.6778V31.5781Z" fill="#BE1E2D"/>
  <path d="M47.5177 31.5781H45.3604V34.2109H47.5177V31.5781Z" fill="#BE1E2D"/>
  <path d="M45.3607 31.5781H43.1982V34.2109H45.3607V31.5781Z" fill="#BE1E2D"/>
  <path d="M43.1983 31.5781H41.041V34.2109H43.1983V31.5781Z" fill="#BE1E2D"/>
  <path d="M41.0382 31.5781H38.8809V34.2109H41.0382V31.5781Z" fill="#BE1E2D"/>
  <path d="M38.8802 31.5781H36.7178V34.2109H38.8802V31.5781Z" fill="#BE1E2D"/>
  <path d="M17.2794 31.5781H15.1221V34.2109H17.2794V31.5781Z" fill="#BE1E2D"/>
  <path d="M15.1192 31.5781H12.9619V34.2109H15.1192V31.5781Z" fill="#BE1E2D"/>
  <path d="M12.9623 31.5781H10.7998V34.2109H12.9623V31.5781Z" fill="#BE1E2D"/>
  <path d="M10.7999 31.5781H8.64258V34.2109H10.7999V31.5781Z" fill="#BE1E2D"/>
  <path d="M8.63975 31.5781H6.48242V34.2109H8.63975V31.5781Z" fill="#BE1E2D"/>
  <path d="M6.48473 31.5781H4.32227V34.2109H6.48473V31.5781Z" fill="#BE1E2D"/>
  <path d="M4.31944 31.5781H2.16211V34.2109H4.31944V31.5781Z" fill="#BE1E2D"/>
  <path d="M53.9972 28.9479H51.8398V31.5781H53.9972V28.9479Z" fill="#BE1E2D"/>
  <path d="M51.8402 28.9479H49.6777V31.5781H51.8402V28.9479Z" fill="#BE1E2D"/>
  <path d="M49.6778 28.9479H47.5205V31.5781H49.6778V28.9479Z" fill="#BE1E2D"/>
  <path d="M47.5177 28.9479H45.3604V31.5781H47.5177V28.9479Z" fill="#BE1E2D"/>
  <path d="M45.3607 28.9479H43.1982V31.5781H45.3607V28.9479Z" fill="#BE1E2D"/>
  <path d="M43.1983 28.9479H41.041V31.5781H43.1983V28.9479Z" fill="#BE1E2D"/>
  <path d="M41.0382 28.9479H38.8809V31.5781H41.0382V28.9479Z" fill="#BE1E2D"/>
  <path d="M15.1192 28.9479H12.9619V31.5781H15.1192V28.9479Z" fill="#BE1E2D"/>
  <path d="M12.9623 28.9479H10.7998V31.5781H12.9623V28.9479Z" fill="#BE1E2D"/>
  <path d="M10.7999 28.9479H8.64258V31.5781H10.7999V28.9479Z" fill="#BE1E2D"/>
  <path d="M8.63975 28.9479H6.48242V31.5781H8.63975V28.9479Z" fill="#BE1E2D"/>
  <path d="M6.48473 28.9479H4.32227V31.5781H6.48473V28.9479Z" fill="#BE1E2D"/>
  <path d="M4.31944 28.9479H2.16211V31.5781H4.31944V28.9479Z" fill="#BE1E2D"/>
  <path d="M2.16247 28.9479H0V31.5781H2.16247V28.9479Z" fill="#BE1E2D"/>
  <path d="M53.9972 26.3151H51.8398V28.9479H53.9972V26.3151Z" fill="#BE1E2D"/>
  <path d="M51.8402 26.3151H49.6777V28.9479H51.8402V26.3151Z" fill="#BE1E2D"/>
  <path d="M49.6778 26.3151H47.5205V28.9479H49.6778V26.3151Z" fill="#BE1E2D"/>
  <path d="M47.5177 26.3151H45.3604V28.9479H47.5177V26.3151Z" fill="#BE1E2D"/>
  <path d="M45.3607 26.3151H43.1982V28.9479H45.3607V26.3151Z" fill="#BE1E2D"/>
  <path d="M43.1983 26.3151H41.041V28.9479H43.1983V26.3151Z" fill="#BE1E2D"/>
  <path d="M41.0382 26.3151H38.8809V28.9479H41.0382V26.3151Z" fill="#BE1E2D"/>
  <path d="M15.1192 26.3151H12.9619V28.9479H15.1192V26.3151Z" fill="#BE1E2D"/>
  <path d="M12.9623 26.3151H10.7998V28.9479H12.9623V26.3151Z" fill="#BE1E2D"/>
  <path d="M10.7999 26.3151H8.64258V28.9479H10.7999V26.3151Z" fill="#BE1E2D"/>
  <path d="M8.63975 26.3151H6.48242V28.9479H8.63975V26.3151Z" fill="#BE1E2D"/>
  <path d="M6.48473 26.3151H4.32227V28.9479H6.48473V26.3151Z" fill="#BE1E2D"/>
  <path d="M4.31944 26.3151H2.16211V28.9479H4.31944V26.3151Z" fill="#BE1E2D"/>
  <path d="M2.16247 26.3151H0V28.9479H2.16247V26.3151Z" fill="#BE1E2D"/>
  <path d="M53.9972 23.6849H51.8398V26.3151H53.9972V23.6849Z" fill="#BE1E2D"/>
  <path d="M51.8402 23.6849H49.6777V26.3151H51.8402V23.6849Z" fill="#BE1E2D"/>
  <path d="M49.6778 23.6849H47.5205V26.3151H49.6778V23.6849Z" fill="#BE1E2D"/>
  <path d="M47.5177 23.6849H45.3604V26.3151H47.5177V23.6849Z" fill="#BE1E2D"/>
  <path d="M45.3607 23.6849H43.1982V26.3151H45.3607V23.6849Z" fill="#BE1E2D"/>
  <path d="M43.1983 23.6849H41.041V26.3151H43.1983V23.6849Z" fill="#BE1E2D"/>
  <path d="M41.0382 23.6849H38.8809V26.3151H41.0382V23.6849Z" fill="#BE1E2D"/>
  <path d="M15.1192 23.6849H12.9619V26.3151H15.1192V23.6849Z" fill="#BE1E2D"/>
  <path d="M12.9623 23.6849H10.7998V26.3151H12.9623V23.6849Z" fill="#BE1E2D"/>
  <path d="M10.7999 23.6849H8.64258V26.3151H10.7999V23.6849Z" fill="#BE1E2D"/>
  <path d="M8.63975 23.6849H6.48242V26.3151H8.63975V23.6849Z" fill="#BE1E2D"/>
  <path d="M6.48473 23.6849H4.32227V26.3151H6.48473V23.6849Z" fill="#BE1E2D"/>
  <path d="M4.31944 23.6849H2.16211V26.3151H4.31944V23.6849Z" fill="#BE1E2D"/>
  <path d="M2.16247 23.6849H0V26.3151H2.16247V23.6849Z" fill="#BE1E2D"/>
  <path d="M53.9972 21.0521H51.8398V23.6849H53.9972V21.0521Z" fill="#BE1E2D"/>
  <path d="M51.8402 21.0521H49.6777V23.6849H51.8402V21.0521Z" fill="#BE1E2D"/>
  <path d="M49.6778 21.0521H47.5205V23.6849H49.6778V21.0521Z" fill="#BE1E2D"/>
  <path d="M47.5177 21.0521H45.3604V23.6849H47.5177V21.0521Z" fill="#BE1E2D"/>
  <path d="M45.3607 21.0521H43.1982V23.6849H45.3607V21.0521Z" fill="#BE1E2D"/>
  <path d="M43.1983 21.0521H41.041V23.6849H43.1983V21.0521Z" fill="#BE1E2D"/>
  <path d="M41.0382 21.0521H38.8809V23.6849H41.0382V21.0521Z" fill="#BE1E2D"/>
  <path d="M15.1192 21.0521H12.9619V23.6849H15.1192V21.0521Z" fill="#BE1E2D"/>
  <path d="M12.9623 21.0521H10.7998V23.6849H12.9623V21.0521Z" fill="#BE1E2D"/>
  <path d="M10.7999 21.0521H8.64258V23.6849H10.7999V21.0521Z" fill="#BE1E2D"/>
  <path d="M8.63975 21.0521H6.48242V23.6849H8.63975V21.0521Z" fill="#BE1E2D"/>
  <path d="M6.48473 21.0521H4.32227V23.6849H6.48473V21.0521Z" fill="#BE1E2D"/>
  <path d="M4.31944 21.0521H2.16211V23.6849H4.31944V21.0521Z" fill="#BE1E2D"/>
  <path d="M2.16247 21.0521H0V23.6849H2.16247V21.0521Z" fill="#BE1E2D"/>
  <path d="M53.9972 18.4192H51.8398V21.0521H53.9972V18.4192Z" fill="#BE1E2D"/>
  <path d="M51.8402 18.4192H49.6777V21.0521H51.8402V18.4192Z" fill="#BE1E2D"/>
  <path d="M49.6778 18.4192H47.5205V21.0521H49.6778V18.4192Z" fill="#BE1E2D"/>
  <path d="M47.5177 18.4192H45.3604V21.0521H47.5177V18.4192Z" fill="#BE1E2D"/>
  <path d="M45.3607 18.4192H43.1982V21.0521H45.3607V18.4192Z" fill="#BE1E2D"/>
  <path d="M43.1983 18.4192H41.041V21.0521H43.1983V18.4192Z" fill="#BE1E2D"/>
  <path d="M41.0382 18.4192H38.8809V21.0521H41.0382V18.4192Z" fill="#BE1E2D"/>
  <path d="M15.1192 18.4192H12.9619V21.0521H15.1192V18.4192Z" fill="#BE1E2D"/>
  <path d="M12.9623 18.4192H10.7998V21.0521H12.9623V18.4192Z" fill="#BE1E2D"/>
  <path d="M10.7999 18.4192H8.64258V21.0521H10.7999V18.4192Z" fill="#BE1E2D"/>
  <path d="M8.63975 18.4192H6.48242V21.0521H8.63975V18.4192Z" fill="#BE1E2D"/>
  <path d="M6.48473 18.4192H4.32227V21.0521H6.48473V18.4192Z" fill="#BE1E2D"/>
  <path d="M4.31944 18.4192H2.16211V21.0521H4.31944V18.4192Z" fill="#BE1E2D"/>
  <path d="M2.16247 18.4192H0V21.0521H2.16247V18.4192Z" fill="#BE1E2D"/>
  <path d="M53.9972 15.789H51.8398V18.4192H53.9972V15.789Z" fill="#BE1E2D"/>
  <path d="M51.8402 15.789H49.6777V18.4192H51.8402V15.789Z" fill="#BE1E2D"/>
  <path d="M49.6778 15.789H47.5205V18.4192H49.6778V15.789Z" fill="#BE1E2D"/>
  <path d="M47.5177 15.789H45.3604V18.4192H47.5177V15.789Z" fill="#BE1E2D"/>
  <path d="M45.3607 15.789H43.1982V18.4192H45.3607V15.789Z" fill="#BE1E2D"/>
  <path d="M43.1983 15.789H41.041V18.4192H43.1983V15.789Z" fill="#BE1E2D"/>
  <path d="M41.0382 15.789H38.8809V18.4192H41.0382V15.789Z" fill="#BE1E2D"/>
  <path d="M38.8802 15.789H36.7178V18.4192H38.8802V15.789Z" fill="#BE1E2D"/>
  <path d="M17.2794 15.789H15.1221V18.4192H17.2794V15.789Z" fill="#BE1E2D"/>
  <path d="M15.1192 15.789H12.9619V18.4192H15.1192V15.789Z" fill="#BE1E2D"/>
  <path d="M12.9623 15.789H10.7998V18.4192H12.9623V15.789Z" fill="#BE1E2D"/>
  <path d="M10.7999 15.789H8.64258V18.4192H10.7999V15.789Z" fill="#BE1E2D"/>
  <path d="M8.63975 15.789H6.48242V18.4192H8.63975V15.789Z" fill="#BE1E2D"/>
  <path d="M6.48473 15.789H4.32227V18.4192H6.48473V15.789Z" fill="#BE1E2D"/>
  <path d="M4.31944 15.789H2.16211V18.4192H4.31944V15.789Z" fill="#BE1E2D"/>
  <path d="M2.16247 15.789H0V18.4192H2.16247V15.789Z" fill="#BE1E2D"/>
  <path d="M51.8402 13.1589H49.6777V15.7917H51.8402V13.1589Z" fill="#BE1E2D"/>
  <path d="M49.6778 13.1589H47.5205V15.7917H49.6778V13.1589Z" fill="#BE1E2D"/>
  <path d="M47.5177 13.1589H45.3604V15.7917H47.5177V13.1589Z" fill="#BE1E2D"/>
  <path d="M45.3607 13.1589H43.1982V15.7917H45.3607V13.1589Z" fill="#BE1E2D"/>
  <path d="M43.1983 13.1589H41.041V15.7917H43.1983V13.1589Z" fill="#BE1E2D"/>
  <path d="M41.0382 13.1589H38.8809V15.7917H41.0382V13.1589Z" fill="#BE1E2D"/>
  <path d="M38.8802 13.1589H36.7178V15.7917H38.8802V13.1589Z" fill="#BE1E2D"/>
  <path d="M36.7189 13.1589H34.5615V15.7917H36.7189V13.1589Z" fill="#BE1E2D"/>
  <path d="M19.4418 13.1589H17.2793V15.7917H19.4418V13.1589Z" fill="#BE1E2D"/>
  <path d="M17.2794 13.1589H15.1221V15.7917H17.2794V13.1589Z" fill="#BE1E2D"/>
  <path d="M15.1192 13.1589H12.9619V15.7917H15.1192V13.1589Z" fill="#BE1E2D"/>
  <path d="M12.9623 13.1589H10.7998V15.7917H12.9623V13.1589Z" fill="#BE1E2D"/>
  <path d="M10.7999 13.1589H8.64258V15.7917H10.7999V13.1589Z" fill="#BE1E2D"/>
  <path d="M8.63975 13.1589H6.48242V15.7917H8.63975V13.1589Z" fill="#BE1E2D"/>
  <path d="M6.48473 13.1589H4.32227V15.7917H6.48473V13.1589Z" fill="#BE1E2D"/>
  <path d="M4.31944 13.1589H2.16211V15.7917H4.31944V13.1589Z" fill="#BE1E2D"/>
  <path d="M49.6778 10.526H47.5205V13.1589H49.6778V10.526Z" fill="#BE1E2D"/>
  <path d="M47.5177 10.526H45.3604V13.1589H47.5177V10.526Z" fill="#BE1E2D"/>
  <path d="M45.3607 10.526H43.1982V13.1589H45.3607V10.526Z" fill="#BE1E2D"/>
  <path d="M43.1983 10.526H41.041V13.1589H43.1983V10.526Z" fill="#BE1E2D"/>
  <path d="M41.0382 10.526H38.8809V13.1589H41.0382V10.526Z" fill="#BE1E2D"/>
  <path d="M38.8802 10.526H36.7178V13.1589H38.8802V10.526Z" fill="#BE1E2D"/>
  <path d="M36.7189 10.526H34.5615V13.1589H36.7189V10.526Z" fill="#BE1E2D"/>
  <path d="M34.5587 10.526H32.4014V13.1589H34.5587V10.526Z" fill="#BE1E2D"/>
  <path d="M32.4007 10.526H30.2383V13.1589H32.4007V10.526Z" fill="#BE1E2D"/>
  <path d="M30.241 10.526H28.0811V13.1589H30.241V10.526Z" fill="#BE1E2D"/>
  <path d="M28.0782 10.526H25.9209V13.1589H28.0782V10.526Z" fill="#BE1E2D"/>
  <path d="M25.9213 10.526H23.7588V13.1589H25.9213V10.526Z" fill="#BE1E2D"/>
  <path d="M23.7589 10.526H21.6016V13.1589H23.7589V10.526Z" fill="#BE1E2D"/>
  <path d="M21.5987 10.526H19.4414V13.1589H21.5987V10.526Z" fill="#BE1E2D"/>
  <path d="M19.4418 10.526H17.2793V13.1589H19.4418V10.526Z" fill="#BE1E2D"/>
  <path d="M17.2794 10.526H15.1221V13.1589H17.2794V10.526Z" fill="#BE1E2D"/>
  <path d="M15.1192 10.526H12.9619V13.1589H15.1192V10.526Z" fill="#BE1E2D"/>
  <path d="M43.1983 10.526H10.7998V39.474H43.1983V10.526Z" fill="#BE1E2D"/>
  <path d="M10.7999 10.526H8.64258V13.1589H10.7999V10.526Z" fill="#BE1E2D"/>
  <path d="M8.63975 10.526H6.48242V13.1589H8.63975V10.526Z" fill="#BE1E2D"/>
  <path d="M6.48473 10.526H4.32227V13.1589H6.48473V10.526Z" fill="#BE1E2D"/>
  <path d="M47.5177 7.8932H45.3604V10.526H47.5177V7.8932Z" fill="#BE1E2D"/>
  <path d="M45.3607 7.8932H43.1982V10.526H45.3607V7.8932Z" fill="#BE1E2D"/>
  <path d="M43.1983 7.8932H41.041V10.526H43.1983V7.8932Z" fill="#BE1E2D"/>
  <path d="M41.0382 7.8932H38.8809V10.526H41.0382V7.8932Z" fill="#BE1E2D"/>
  <path d="M38.8802 7.8932H36.7178V10.526H38.8802V7.8932Z" fill="#BE1E2D"/>
  <path d="M36.7189 7.8932H34.5615V10.526H36.7189V7.8932Z" fill="#BE1E2D"/>
  <path d="M34.5587 7.8932H32.4014V10.526H34.5587V7.8932Z" fill="#BE1E2D"/>
  <path d="M32.4007 7.8932H30.2383V10.526H32.4007V7.8932Z" fill="#BE1E2D"/>
  <path d="M30.241 7.8932H28.0811V10.526H30.241V7.8932Z" fill="#BE1E2D"/>
  <path d="M28.0782 7.8932H25.9209V10.526H28.0782V7.8932Z" fill="#BE1E2D"/>
  <path d="M25.9213 7.8932H23.7588V10.526H25.9213V7.8932Z" fill="#BE1E2D"/>
  <path d="M23.7589 7.8932H21.6016V10.526H23.7589V7.8932Z" fill="#BE1E2D"/>
  <path d="M21.5987 7.8932H19.4414V10.526H21.5987V7.8932Z" fill="#BE1E2D"/>
  <path d="M19.4418 7.8932H17.2793V10.526H19.4418V7.8932Z" fill="#BE1E2D"/>
  <path d="M17.2794 7.8932H15.1221V10.526H17.2794V7.8932Z" fill="#BE1E2D"/>
  <path d="M15.1192 7.8932H12.9619V10.526H15.1192V7.8932Z" fill="#BE1E2D"/>
  <path d="M12.9623 7.8932H10.7998V10.526H12.9623V7.8932Z" fill="#BE1E2D"/>
  <path d="M10.7999 7.8932H8.64258V10.526H10.7999V7.8932Z" fill="#BE1E2D"/>
  <path d="M8.63975 7.8932H6.48242V10.526H8.63975V7.8932Z" fill="#BE1E2D"/>
  <path d="M45.3607 5.26295H43.1982V7.89579H45.3607V5.26295Z" fill="#BE1E2D"/>
  <path d="M43.1983 5.26295H41.041V7.89579H43.1983V5.26295Z" fill="#BE1E2D"/>
  <path d="M41.0382 5.26295H38.8809V7.89579H41.0382V5.26295Z" fill="#BE1E2D"/>
  <path d="M38.8802 5.26295H36.7178V7.89579H38.8802V5.26295Z" fill="#BE1E2D"/>
  <path d="M36.7189 5.26295H34.5615V7.89579H36.7189V5.26295Z" fill="#BE1E2D"/>
  <path d="M34.5587 5.26295H32.4014V7.89579H34.5587V5.26295Z" fill="#BE1E2D"/>
  <path d="M32.4007 5.26295H30.2383V7.89579H32.4007V5.26295Z" fill="#BE1E2D"/>
  <path d="M30.241 5.26295H28.0811V7.89579H30.241V5.26295Z" fill="#BE1E2D"/>
  <path d="M28.0782 5.26295H25.9209V7.89579H28.0782V5.26295Z" fill="#BE1E2D"/>
  <path d="M25.9213 5.26295H23.7588V7.89579H25.9213V5.26295Z" fill="#BE1E2D"/>
  <path d="M23.7589 5.26295H21.6016V7.89579H23.7589V5.26295Z" fill="#BE1E2D"/>
  <path d="M21.5987 5.26295H19.4414V7.89579H21.5987V5.26295Z" fill="#BE1E2D"/>
  <path d="M19.4418 5.26295H17.2793V7.89579H19.4418V5.26295Z" fill="#BE1E2D"/>
  <path d="M17.2794 5.26295H15.1221V7.89579H17.2794V5.26295Z" fill="#BE1E2D"/>
  <path d="M15.1192 5.26295H12.9619V7.89579H15.1192V5.26295Z" fill="#BE1E2D"/>
  <path d="M12.9623 5.26295H10.7998V7.89579H12.9623V5.26295Z" fill="#BE1E2D"/>
  <path d="M10.7999 5.26295H8.64258V7.89579H10.7999V5.26295Z" fill="#BE1E2D"/>
  <path d="M43.1983 2.63283H41.041V5.26302H43.1983V2.63283Z" fill="#BE1E2D"/>
  <path d="M41.0382 2.63283H38.8809V5.26302H41.0382V2.63283Z" fill="#BE1E2D"/>
  <path d="M38.8802 2.63283H36.7178V5.26302H38.8802V2.63283Z" fill="#BE1E2D"/>
  <path d="M36.7189 2.63283H34.5615V5.26302H36.7189V2.63283Z" fill="#BE1E2D"/>
  <path d="M34.5587 2.63283H32.4014V5.26302H34.5587V2.63283Z" fill="#BE1E2D"/>
  <path d="M32.4007 2.63283H30.2383V5.26302H32.4007V2.63283Z" fill="#BE1E2D"/>
  <path d="M30.241 2.63283H28.0811V5.26302H30.241V2.63283Z" fill="#BE1E2D"/>
  <path d="M28.0782 2.63283H25.9209V5.26302H28.0782V2.63283Z" fill="#BE1E2D"/>
  <path d="M25.9213 2.63283H23.7588V5.26302H25.9213V2.63283Z" fill="#BE1E2D"/>
  <path d="M23.7589 2.63283H21.6016V5.26302H23.7589V2.63283Z" fill="#BE1E2D"/>
  <path d="M21.5987 2.63283H19.4414V5.26302H21.5987V2.63283Z" fill="#BE1E2D"/>
  <path d="M19.4418 2.63283H17.2793V5.26302H19.4418V2.63283Z" fill="#BE1E2D"/>
  <path d="M17.2794 2.63283H15.1221V5.26302H17.2794V2.63283Z" fill="#BE1E2D"/>
  <path d="M15.1192 2.63283H12.9619V5.26302H15.1192V2.63283Z" fill="#BE1E2D"/>
  <path d="M12.9623 2.63283H10.7998V5.26302H12.9623V2.63283Z" fill="#BE1E2D"/>
  <path d="M38.8802 0H36.7178V2.63283H38.8802V0Z" fill="#BE1E2D"/>
  <path d="M36.7189 0H34.5615V2.63283H36.7189V0Z" fill="#BE1E2D"/>
  <path d="M34.5587 0H32.4014V2.63283H34.5587V0Z" fill="#BE1E2D"/>
  <path d="M34.5585 0H17.2793V2.63283H34.5585V0Z" fill="#BE1E2D"/>
  <path d="M17.2794 0H15.1221V2.63283H17.2794V0Z" fill="#BE1E2D"/>
  <path d="M18.6446 13.1826C17.4463 13.1694 16.2455 13.9986 15.7056 15.3269C15.2273 16.502 15.5359 18.0601 16.3972 18.9896C18.048 20.7721 19.6731 22.5784 21.3367 24.3477C21.6838 24.7174 21.5733 24.9049 21.2904 25.2139C19.6448 27.0122 18.0197 28.8264 16.387 30.6353C16.0218 31.0367 15.7544 31.4936 15.6181 32.027C15.1862 33.7276 15.9447 35.3121 17.7035 36.379C19.002 37.1659 20.4676 36.9441 21.6916 35.7689C23.4298 34.1026 25.1705 32.439 26.901 30.7621C27.1299 30.5403 27.2636 30.4161 27.5567 30.7066C29.2795 32.3888 31.0485 34.026 32.7585 35.7214C33.7407 36.6958 35.1626 37.0946 36.3737 36.6113C38.5722 35.7293 39.1919 33.0437 37.5694 31.1529C35.988 29.3123 34.3475 27.5245 32.6942 25.7526C32.3265 25.3591 32.3136 25.1214 32.6787 24.7781C32.9693 24.5061 33.2393 24.2077 33.5067 23.9093C34.7075 22.5652 35.8492 21.1629 37.1168 19.8875C38.6133 18.3822 38.9605 17.0566 37.9165 15.2345C36.5794 12.9027 34.0878 12.5409 32.401 14.1359C30.6577 15.7837 28.9272 17.4448 27.2224 19.1322C26.8239 19.5283 26.6182 19.4385 26.2659 19.0926C24.5817 17.4448 22.8692 15.8286 21.1696 14.1966C20.5036 13.5523 19.7348 13.172 18.6446 13.1826Z" fill="white"/>
  <path d="M29.1615 29.7296H26.999V32.1406H29.1615V29.7296Z" fill="white"/>
  <path d="M30.3539 30.9338H28.1914V33.3448H30.3539V30.9338Z" fill="white"/>
  <path d="M31.8871 32.4021H29.7246V34.8131H31.8871V32.4021Z" fill="white"/>
  <path d="M33.4193 33.8703H31.2568V36.2813H33.4193V33.8703Z" fill="white"/>
  <path d="M35.1009 34.8131H32.9385V37.2241H35.1009V34.8131Z" fill="white"/>
  <path d="M36.89 34.8131H34.7275V37.2241H36.89V34.8131Z" fill="white"/>
  <path d="M38.3617 34.3219H36.1992V36.7329H38.3617V34.3219Z" fill="white"/>
  <path d="M39.4437 32.4021H37.2812V34.8131H39.4437V32.4021Z" fill="white"/>
  <path d="M38.8802 30.7093H36.7178V33.1203H38.8802V30.7093Z" fill="white"/>
  <path d="M37.9701 29.0588H35.8076V31.4698H37.9701V29.0588Z" fill="white"/>
  <path d="M36.7211 27.6301H34.5586V30.0412H36.7211V27.6301Z" fill="white"/>
  <path d="M35.641 26.3151H33.4785V28.7261H35.641V26.3151Z" fill="white"/>
  <path d="M34.558 24.9973H32.3955V27.4083H34.558V24.9973Z" fill="white"/>
  <path d="M32.5892 23.8037H30.4268V26.2147H32.5892V23.8037Z" fill="white"/>
  <path d="M34.0209 22.5969H31.8584V25.0079H34.0209V22.5969Z" fill="white"/>
  <path d="M34.7279 21.0521H32.5654V23.4631H34.7279V21.0521Z" fill="white"/>
  <path d="M36.4457 20.2387H34.2832V22.6497H36.4457V20.2387Z" fill="white"/>
  <path d="M37.5258 19.2563H35.3633V21.6673H37.5258V19.2563Z" fill="white"/>
  <path d="M38.8802 17.6349H36.7178V20.0459H38.8802V17.6349Z" fill="white"/>
  <path d="M39.598 15.9H37.4355V18.311H39.598V15.9Z" fill="white"/>
  <path d="M39.1429 14.6271H36.9805V17.0381H39.1429V14.6271Z" fill="white"/>
  <path d="M38.0629 13.2698H35.9004V15.6808H38.0629V13.2698Z" fill="white"/>
  <path d="M36.9808 12.195H34.8184V14.606H36.9808V12.195Z" fill="white"/>
  <path d="M35.1752 12.4062H33.0127V14.8172H35.1752V12.4062Z" fill="white"/>
  <path d="M33.4838 13.1589H31.3213V15.5699H33.4838V13.1589Z" fill="white"/>
  <path d="M31.6937 14.3631H29.5312V16.7741H31.6937V14.3631Z" fill="white"/>
  <path d="M30.3539 15.9H28.1914V18.311H30.3539V15.9Z" fill="white"/>
  <path d="M28.9173 17.2151H26.7549V19.6261H28.9173V17.2151Z" fill="white"/>
  <path d="M26.7543 17.8277H24.5918V20.2387H26.7543V17.8277Z" fill="white"/>
  <path d="M25.4554 16.172H23.293V18.583H25.4554V16.172Z" fill="white"/>
  <path d="M23.7611 14.4739H21.5986V16.885H23.7611V14.4739Z" fill="white"/>
  <path d="M22.2191 12.7099H20.0566V15.1209H22.2191V12.7099Z" fill="white"/>
  <path d="M20.056 11.952H17.8936V14.363H20.056V11.952Z" fill="white"/>
  <path d="M18.056 12.4062H15.8936V14.8172H18.056V12.4062Z" fill="white"/>
  <path d="M16.9759 14.4739H14.8135V16.885H16.9759V14.4739Z" fill="white"/>
  <path d="M17.2816 16.885H15.1191V19.296H17.2816V16.885Z" fill="white"/>
  <path d="M18.3617 18.8285H16.1992V21.2395H18.3617V18.8285Z" fill="white"/>
  <path d="M20.056 20.4315H17.8936V22.8425H20.056V20.4315Z" fill="white"/>
  <path d="M21.6039 21.8654H19.4414V24.2764H21.6039V21.8654Z" fill="white"/>
  <path d="M22.684 23.4842H20.5215V25.8952H22.684V23.4842Z" fill="white"/>
  <path d="M21.2904 25.3987H19.1279V27.8097H21.2904V25.3987Z" fill="white"/>
  <path d="M19.7806 27.1259H17.6182V29.5369H19.7806V27.1259Z" fill="white"/>
  <path d="M18.3617 28.5254H16.1992V30.9364H18.3617V28.5254Z" fill="white"/>
  <path d="M17.1351 29.7296H14.9727V32.1406H17.1351V29.7296Z" fill="white"/>
  <path d="M16.3275 32.1406H14.165V34.5516H16.3275V32.1406Z" fill="white"/>
  <path d="M17.39 33.3369H15.2275V35.7479H17.39V33.3369Z" fill="white"/>
  <path d="M18.4701 34.541H16.3076V36.952H18.4701V34.541Z" fill="white"/>
  <path d="M20.5218 35.188H18.3594V37.599H20.5218V35.188Z" fill="white"/>
  <path d="M20.5238 35.188H18.3613V37.599H20.5238V35.188Z" fill="white"/>
  <path d="M22.681 34.4328H20.5186V36.8438H22.681V34.4328Z" fill="white"/>
  <path d="M24.3763 32.7797H22.2139V35.1907H24.3763V32.7797Z" fill="white"/>
  <path d="M26.5384 30.9338H24.376V33.3448H26.5384V30.9338Z" fill="white"/>
  <path d="M28.0834 29.7296H25.9209V32.1406H28.0834V29.7296Z" fill="white"/>
</svg>
