<svg width="42" height="32" viewBox="0 0 42 32" fill="none" xmlns="http://www.w3.org/2000/svg">
    <path d="M24.5294 28.6175H16.0332C9.00541 28.6175 3.30884 23.7282 3.30884 17.6964V12.1434H37.8517V17.1832C37.8517 23.4979 31.8868 28.6175 24.5294 28.6175Z" fill="#8B5E3C"/>
    <path d="M0.00391662 16.5854L-0.000244141 18.0851L1.64355 18.0888L1.64771 16.5891L0.00391662 16.5854Z" fill="#42190D"/>
    <path d="M0.00780392 15.0849L0.00463867 16.5847L1.64843 16.5875L1.6516 15.0877L0.00780392 15.0849Z" fill="#42190D"/>
    <path d="M1.65396 13.5869H0.00805664V15.0849H1.65396V13.5869Z" fill="#42190D"/>
    <path d="M0.0134481 12.0843L0.00927734 13.5841L1.65518 13.5878L1.65935 12.088L0.0134481 12.0843Z" fill="#42190D"/>
    <path d="M0.0150064 10.5835L0.0119629 12.0851L1.65576 12.0878L1.6588 10.5862L0.0150064 10.5835Z" fill="#42190D"/>
    <path d="M0.0214174 9.08355L0.0168457 10.5833L1.66064 10.5869L1.66521 9.08713L0.0214174 9.08355Z" fill="#6E2E14"/>
    <path d="M1.6375 21.0898L1.63525 22.5878L3.27905 22.5896L3.28129 21.0917L1.6375 21.0898Z" fill="#42190D"/>
    <path d="M1.64075 19.5866L1.63745 21.0882L3.28124 21.0909L3.28455 19.5893L1.64075 19.5866Z" fill="#42190D"/>
    <path d="M1.64499 18.0869L1.64185 19.5885L3.28564 19.591L3.28879 18.0894L1.64499 18.0869Z" fill="#8B5E3C"/>
    <path d="M1.64733 16.5852L1.64404 18.0868L3.28783 18.0894L3.29113 16.5878L1.64733 16.5852Z" fill="#8B5E3C"/>
    <path d="M1.65257 15.0857L1.64819 16.5855L3.29199 16.589L3.29636 15.0892L1.65257 15.0857Z" fill="#8B5E3C"/>
    <path d="M1.65434 13.5881L1.6521 15.0861L3.29589 15.0879L3.29814 13.5899L1.65434 13.5881Z" fill="#8B5E3C"/>
    <path d="M1.65744 12.0868L1.6543 13.5884L3.29809 13.5909L3.30124 12.0893L1.65744 12.0868Z" fill="#42190D"/>
    <path d="M1.66198 10.5873L1.65869 12.0871L3.3046 12.0898L3.30788 10.59L1.66198 10.5873Z" fill="#6E2E14"/>
    <path d="M1.66426 9.08574L1.66113 10.5873L3.30704 10.5899L3.31016 9.08826L1.66426 9.08574Z" fill="#6E2E14"/>
    <path d="M3.28137 22.5902L3.27808 24.0918L4.92187 24.0945L4.92516 22.5929L3.28137 22.5902Z" fill="#42190D"/>
    <path d="M3.28336 21.0913L3.28125 22.5911L4.92504 22.5929L4.92927 21.0913H3.28336Z" fill="#8B5E3C"/>
    <path d="M3.28556 19.5915L3.28345 21.0913H4.92935L4.93147 19.5933L3.28556 19.5915Z" fill="#8B5E3C"/>
    <path d="M3.28906 18.0892L3.28589 19.5908L4.93179 19.5934L4.93497 18.0918L3.28906 18.0892Z" fill="#8B5E3C"/>
    <path d="M3.29352 16.5898L3.29028 18.0896L4.93619 18.0922L4.93942 16.5924L3.29352 16.5898Z" fill="#42190D"/>
    <path d="M3.29809 15.0885L3.29175 16.5901L4.93977 16.5919L4.94188 15.0922L3.29809 15.0885Z" fill="#42190D"/>
    <path d="M3.30021 13.5906L3.2981 15.0885L4.94189 15.0922L4.94612 13.5906H3.30021Z" fill="#42190D"/>
    <path d="M3.30241 12.089L3.30029 13.5906H4.9462L4.94831 12.0926L3.30241 12.089Z" fill="#42190D"/>
    <path d="M3.30686 10.5892L3.30249 12.089L4.94839 12.0925L4.95276 10.5927L3.30686 10.5892Z" fill="#6E2E14"/>
    <path d="M3.30993 9.08852L3.30786 10.5901L4.95377 10.5918L4.95584 9.09019L3.30993 9.08852Z" fill="#6E2E14"/>
    <path d="M4.92284 24.0935L4.91968 25.5951L6.56347 25.5977L6.56664 24.0961L4.92284 24.0935Z" fill="#42190D"/>
    <path d="M4.92512 22.5918L4.92188 24.0934L6.56567 24.0961L6.56892 22.5945L4.92512 22.5918Z" fill="#8B5E3C"/>
    <path d="M4.92927 21.0913L4.92505 22.5929L6.57095 22.5947L6.57307 21.0968L4.92927 21.0913Z" fill="#8B5E3C"/>
    <path d="M4.93131 19.5933L4.9292 21.0913L6.57299 21.0968L6.5751 19.5952L4.93131 19.5933Z" fill="#42190D"/>
    <path d="M4.94925 12.093L4.94702 13.591L6.59081 13.5928L6.59305 12.0948L4.94925 12.093Z" fill="#42190D"/>
    <path d="M4.95217 10.5917L4.94897 12.0933L6.59277 12.0958L6.59597 10.5942L4.95217 10.5917Z" fill="#6E2E14"/>
    <path d="M4.95466 9.09001L4.95142 10.5916L6.59521 10.5942L6.59846 9.09263L4.95466 9.09001Z" fill="#6E2E14"/>
    <path d="M6.56469 25.5971L6.56152 27.0969L8.20743 27.0994L8.2106 25.5997L6.56469 25.5971Z" fill="#42190D"/>
    <path d="M6.56698 24.0954L6.56372 25.597L8.20963 25.5997L8.21289 24.0981L6.56698 24.0954Z" fill="#8B5E3C"/>
    <path d="M6.57129 22.5956L6.56812 24.0954L8.21402 24.098L8.2172 22.5982L6.57129 22.5956Z" fill="#8B5E3C"/>
    <path d="M6.57291 21.0968L6.5708 22.5947L8.21671 22.5984L8.21882 21.0986L6.57291 21.0968Z" fill="#42190D"/>
    <path d="M6.59415 12.0944L6.59204 13.5942L8.23584 13.5978L8.23795 12.098L6.59415 12.0944Z" fill="#42190D"/>
    <path d="M6.59626 10.5932L6.59302 12.0948L8.23681 12.0974L8.24006 10.5959L6.59626 10.5932Z" fill="#6E2E14"/>
    <path d="M6.60059 9.09349L6.59741 10.5951L8.2412 10.5976L8.24438 9.09605L6.60059 9.09349Z" fill="#6E2E14"/>
    <path d="M8.20613 27.0995L8.2019 28.6011H9.84992V27.1032L8.20613 27.0995Z" fill="#42190D"/>
    <path d="M8.20924 25.6004L8.20483 27.1002L9.84863 27.1037L9.85303 25.6039L8.20924 25.6004Z" fill="#8B5E3C"/>
    <path d="M8.21272 24.0983L8.21069 25.5999L9.8566 25.6015L9.85863 24.0999L8.21272 24.0983Z" fill="#8B5E3C"/>
    <path d="M8.21605 22.5993L8.21167 24.0991L9.85758 24.1027L9.86195 22.6029L8.21605 22.5993Z" fill="#42190D"/>
    <path d="M8.23795 12.098L8.23584 13.5978L9.87963 13.5996L9.88386 12.0999L8.23795 12.098Z" fill="#42190D"/>
    <path d="M8.2421 10.5966L8.23877 12.0982L9.88256 12.1009L9.88589 10.5993L8.2421 10.5966Z" fill="#6E2E14"/>
    <path d="M8.24446 9.09504L8.24121 10.5966L9.885 10.5993L9.88825 9.09766L8.24446 9.09504Z" fill="#6E2E14"/>
    <path d="M9.8501 27.1032V28.6011L11.4918 28.6066L11.496 27.1068L9.8501 27.1032Z" fill="#42190D"/>
    <path d="M9.85562 25.6023L9.85107 27.1021L11.497 27.1057L11.5015 25.606L9.85562 25.6023Z" fill="#8B5E3C"/>
    <path d="M9.85713 24.1017L9.854 25.6033L11.4978 25.6058L11.5009 24.1042L9.85713 24.1017Z" fill="#42190D"/>
    <path d="M9.88288 12.1015L9.88062 13.5994L11.5244 13.6013L11.5267 12.1033L9.88288 12.1015Z" fill="#42190D"/>
    <path d="M9.88593 10.5983L9.88281 12.0999L11.5266 12.1024L11.5297 10.6008L9.88593 10.5983Z" fill="#6E2E14"/>
    <path d="M9.88855 9.10061L9.88525 10.6004L11.5312 10.6031L11.5345 9.10327L9.88855 9.10061Z" fill="#6E2E14"/>
    <path d="M11.4916 28.6066L11.4895 30.1045L13.1333 30.1082L13.1375 28.6066H11.4916Z" fill="#42190D"/>
    <path d="M11.4959 27.1068L11.4917 28.6066H13.1376L13.1418 27.1068H11.4959Z" fill="#8B5E3C"/>
    <path d="M11.5003 25.6052L11.4961 27.1068H13.142L13.1441 25.607L11.5003 25.6052Z" fill="#42190D"/>
    <path d="M11.5277 12.1035L11.5256 13.6014L13.1715 13.6051L13.1737 12.1035H11.5277Z" fill="#42190D"/>
    <path d="M11.5318 10.6019L11.5276 12.1035H13.1735L13.1777 10.6055L11.5318 10.6019Z" fill="#6E2E14"/>
    <path d="M11.536 9.10165L11.5317 10.6014L13.1776 10.6051V9.10347L11.536 9.10165Z" fill="#6E2E14"/>
    <path d="M13.1379 28.6072L13.1335 30.107L14.7773 30.1105L14.7817 28.6107L13.1379 28.6072Z" fill="#42190D"/>
    <path d="M13.1417 27.1068L13.1375 28.6066L14.7834 28.6102L14.7855 27.1104L13.1417 27.1068Z" fill="#8B5E3C"/>
    <path d="M13.144 25.607L13.1418 27.1068L14.7856 27.1104L14.7899 25.6106L13.144 25.607Z" fill="#42190D"/>
    <path d="M13.1735 12.1035L13.1714 13.6051L14.8152 13.6069L14.8173 12.1089L13.1735 12.1035Z" fill="#42190D"/>
    <path d="M13.1778 10.6055L13.1736 12.1035L14.8174 12.1089L14.8216 10.6073L13.1778 10.6055Z" fill="#6E2E14"/>
    <path d="M13.178 9.10337L13.176 10.605L14.8219 10.6066L14.8239 9.10497L13.178 9.10337Z" fill="#6E2E14"/>
    <path d="M14.7842 28.6096L14.7798 30.1093L16.4257 30.1129L16.4301 28.6131L14.7842 28.6096Z" fill="#8B5E3C"/>
    <path d="M14.7856 27.1104L14.7834 28.6102L16.4294 28.612L16.4315 27.1122L14.7856 27.1104Z" fill="#8B5E3C"/>
    <path d="M14.8173 12.1089L14.8152 13.6069L16.459 13.6087L16.4632 12.1089H14.8173Z" fill="#42190D"/>
    <path d="M14.8216 10.6073L14.8174 12.1089H16.4633L16.4654 10.6109L14.8216 10.6073Z" fill="#6E2E14"/>
    <path d="M14.8248 9.10656L14.8215 10.6082L16.4653 10.6108L16.4686 9.10924L14.8248 9.10656Z" fill="#6E2E14"/>
    <path d="M16.4262 30.1137L16.4231 31.6135L18.069 31.616L18.0721 30.1162L16.4262 30.1137Z" fill="#42190D"/>
    <path d="M16.4296 28.6122L16.425 30.112L18.071 30.1157L18.0755 28.6159L16.4296 28.6122Z" fill="#8B5E3C"/>
    <path d="M16.4325 27.1122L16.4304 28.612L18.0742 28.6156L18.0784 27.1177L16.4325 27.1122Z" fill="#42190D"/>
    <path d="M16.4642 12.1089L16.46 13.6087L18.1059 13.6123L18.108 12.1144L16.4642 12.1089Z" fill="#42190D"/>
    <path d="M16.4663 10.611L16.4684 12.1107L20.2504 12.1144L20.2546 10.6146L16.4663 10.611Z" fill="#6E2E14"/>
    <path d="M16.4705 9.10951L16.4673 10.6111L18.1132 10.6137L18.1164 9.11212L16.4705 9.10951Z" fill="#6E2E14"/>
    <path d="M18.073 30.1165L18.0686 31.6163L19.7124 31.6199L19.7168 30.1201L18.073 30.1165Z" fill="#42190D"/>
    <path d="M18.0748 28.6162L18.0715 30.116L19.7153 30.1186L19.7186 28.6188L18.0748 28.6162Z" fill="#8B5E3C"/>
    <path d="M18.0784 27.1177L18.0742 28.6156L19.7201 28.6175L19.7222 27.1177H18.0784Z" fill="#42190D"/>
    <path d="M18.1081 12.1144L18.106 13.6123L19.7519 13.616L19.754 12.1144H18.1081Z" fill="#42190D"/>
    <path d="M18.1162 9.11137L18.113 10.613L19.7568 10.6155L19.76 9.11393L18.1162 9.11137Z" fill="#6E2E14"/>
    <path d="M19.7164 30.1187L19.7131 31.6185L21.359 31.6211L21.3623 30.1213L19.7164 30.1187Z" fill="#42190D"/>
    <path d="M19.7195 28.6173L19.7151 30.1171L21.361 30.1207L21.3654 28.6209L19.7195 28.6173Z" fill="#8B5E3C"/>
    <path d="M19.7235 27.1166L19.7202 28.6182L21.364 28.6208L21.3673 27.1192L19.7235 27.1166Z" fill="#42190D"/>
    <path d="M19.7545 12.1151L19.7524 13.6167L21.3983 13.6183L21.4004 12.1167L19.7545 12.1151Z" fill="#42190D"/>
    <path d="M19.7575 10.6171L19.7542 12.1151L21.4001 12.1178L21.4034 10.6199L19.7575 10.6171Z" fill="#6E2E14"/>
    <path d="M19.763 9.11528L19.7598 10.6169L21.4036 10.6195L21.4068 9.11792L19.763 9.11528Z" fill="#6E2E14"/>
    <path d="M21.3614 30.1223L21.3569 31.6221L23.0028 31.6257L23.0073 30.1259L21.3614 30.1223Z" fill="#42190D"/>
    <path d="M21.3651 28.6198L21.3618 30.1214L23.0056 30.124L23.0089 28.6224L21.3651 28.6198Z" fill="#8B5E3C"/>
    <path d="M21.3675 27.1182L21.3643 28.6198L23.0081 28.6224L23.0113 27.1208L21.3675 27.1182Z" fill="#42190D"/>
    <path d="M21.4012 12.1165L21.3979 13.6181L23.0418 13.6207L23.045 12.1191L21.4012 12.1165Z" fill="#42190D"/>
    <path d="M21.4023 10.6182L21.4001 12.118L23.0461 12.1198L23.0482 10.62L21.4023 10.6182Z" fill="#6E2E14"/>
    <path d="M21.4066 9.11678L21.4023 10.6166L23.0483 10.6184L23.0504 9.11859L21.4066 9.11678Z" fill="#6E2E14"/>
    <path d="M23.0068 30.1231L23.0037 31.6246L24.6475 31.6272L24.6506 30.1256L23.0068 30.1231Z" fill="#42190D"/>
    <path d="M23.0092 28.6213L23.0059 30.1229L24.6497 30.1256L24.653 28.624L23.0092 28.6213Z" fill="#8B5E3C"/>
    <path d="M23.0135 27.1216L23.0103 28.6232L24.654 28.6258L24.6573 27.1242L23.0135 27.1216Z" fill="#8B5E3C"/>
    <path d="M23.045 12.1199L23.0417 13.6215L24.6855 13.6242L24.6888 12.1226L23.045 12.1199Z" fill="#42190D"/>
    <path d="M23.0483 10.62L23.0461 12.1198L24.6899 12.1216L24.692 10.6236L23.0483 10.62Z" fill="#6E2E14"/>
    <path d="M23.0505 9.11851L23.0483 10.6183L24.6921 10.6219L24.6964 9.12213L23.0505 9.11851Z" fill="#6E2E14"/>
    <path d="M24.6552 28.627L24.6521 30.1268L26.298 30.1293L26.3011 28.6296L24.6552 28.627Z" fill="#8B5E3C"/>
    <path d="M24.6576 27.1235L24.6543 28.6251L26.3002 28.6278L26.3035 27.1262L24.6576 27.1235Z" fill="#8B5E3C"/>
    <path d="M24.6911 12.1216L24.688 13.6232L26.3318 13.6257L26.3349 12.1241L24.6911 12.1216Z" fill="#42190D"/>
    <path d="M24.6921 10.6236L24.6899 12.1216L26.3358 12.1252L26.3401 10.6255L24.6921 10.6236Z" fill="#6E2E14"/>
    <path d="M24.6964 9.12196L24.6921 10.6217L26.3402 10.6236L26.3423 9.12377L24.6964 9.12196Z" fill="#6E2E14"/>
    <path d="M26.3003 28.6289L26.2959 30.1286L27.9418 30.1322L27.9462 28.6324L26.3003 28.6289Z" fill="#42190D"/>
    <path d="M26.3033 27.1282L26.3013 28.6298L27.9472 28.6315L27.9492 27.1299L26.3033 27.1282Z" fill="#8B5E3C"/>
    <path d="M26.307 25.6274L26.3025 27.1272L27.9484 27.1308L27.9529 25.631L26.307 25.6274Z" fill="#42190D"/>
    <path d="M26.3351 12.1249L26.3318 13.6265L27.9756 13.6292L27.9789 12.1276L26.3351 12.1249Z" fill="#42190D"/>
    <path d="M26.3403 10.6251L26.3359 12.1248L27.9797 12.1284L27.9841 10.6286L26.3403 10.6251Z" fill="#6E2E14"/>
    <path d="M26.3421 9.12755L26.3398 10.6255L27.9836 10.6273L27.9859 9.12937L26.3421 9.12755Z" fill="#6E2E14"/>
    <path d="M27.9459 28.6313L27.9426 30.1329L29.5864 30.1356L29.5897 28.634L27.9459 28.6313Z" fill="#42190D"/>
    <path d="M27.9482 27.1298L27.9451 28.6314L29.5889 28.6339L29.592 27.1323L27.9482 27.1298Z" fill="#8B5E3C"/>
    <path d="M27.9525 25.6281L27.9492 27.1297L29.593 27.1323L29.5963 25.6307L27.9525 25.6281Z" fill="#8B5E3C"/>
    <path d="M27.9813 12.1287L27.978 13.6285L29.6239 13.6311L29.6272 12.1314L27.9813 12.1287Z" fill="#42190D"/>
    <path d="M27.9837 10.6257L27.9805 12.1273L29.6264 12.13L29.6296 10.6284L27.9837 10.6257Z" fill="#6E2E14"/>
    <path d="M27.9866 9.12864L27.9832 10.6266L29.6291 10.6294L29.6325 9.1314L27.9866 9.12864Z" fill="#6E2E14"/>
    <path d="M29.5944 27.1317L29.5911 28.6333L31.237 28.6359L31.2403 27.1343L29.5944 27.1317Z" fill="#42190D"/>
    <path d="M29.5966 25.6337L29.5935 27.1335L31.2394 27.1361L31.2425 25.6363L29.5966 25.6337Z" fill="#8B5E3C"/>
    <path d="M29.6007 24.1326L29.5964 25.6324L31.2423 25.636L31.2445 24.1362L29.6007 24.1326Z" fill="#42190D"/>
    <path d="M29.6262 12.1306L29.6218 13.6304L31.2677 13.6339L31.2721 12.1342L29.6262 12.1306Z" fill="#42190D"/>
    <path d="M29.6305 10.6302L29.6272 12.13L31.2731 12.1327L31.2764 10.6329L29.6305 10.6302Z" fill="#6E2E14"/>
    <path d="M29.6322 9.13338L29.6301 10.6313L31.276 10.6331L31.2781 9.13509L29.6322 9.13338Z" fill="#6E2E14"/>
    <path d="M31.2381 27.1364L31.2361 28.638L32.882 28.6396L32.884 27.138L31.2381 27.1364Z" fill="#42190D"/>
    <path d="M31.2437 25.6355L31.2393 27.1353L32.8852 27.1389L32.8896 25.6391L31.2437 25.6355Z" fill="#8B5E3C"/>
    <path d="M31.2445 24.1362L31.2424 25.636L32.8883 25.6378L32.8905 24.138L31.2445 24.1362Z" fill="#8B5E3C"/>
    <path d="M31.2486 22.6364L31.2444 24.1362L32.8903 24.138L32.8924 22.6383L31.2486 22.6364Z" fill="#42190D"/>
    <path d="M31.272 12.1335L31.2688 13.6333L32.9147 13.6358L32.9179 12.136L31.272 12.1335Z" fill="#42190D"/>
    <path d="M31.2762 10.6327L31.272 12.1325L32.9179 12.1361L32.92 10.6345L31.2762 10.6327Z" fill="#6E2E14"/>
    <path d="M31.2761 9.13474V10.6327L32.9199 10.6345L32.9241 9.13474H31.2761Z" fill="#6E2E14"/>
    <path d="M32.8871 25.638L32.8838 27.1396L34.5276 27.1422L34.5308 25.6406L32.8871 25.638Z" fill="#42190D"/>
    <path d="M32.8905 24.1381L32.8884 25.6378L34.5322 25.6415L34.5343 24.1417L32.8905 24.1381Z" fill="#8B5E3C"/>
    <path d="M32.8925 22.6383L32.8904 24.138L34.5342 24.1417L34.5384 22.6419L32.8925 22.6383Z" fill="#8B5E3C"/>
    <path d="M32.8971 21.1384L32.8938 22.6382L34.5397 22.6409L34.543 21.1411L32.8971 21.1384Z" fill="#42190D"/>
    <path d="M32.9169 12.1367L32.9124 13.6365L34.5561 13.6401L34.5606 12.1404L32.9169 12.1367Z" fill="#42190D"/>
    <path d="M32.9201 10.6348L32.9182 12.1364L34.5641 12.138L34.566 10.6364L32.9201 10.6348Z" fill="#6E2E14"/>
    <path d="M32.9244 9.13474L32.9202 10.6345L34.5661 10.6381L34.5682 9.14018L32.9244 9.13474Z" fill="#6E2E14"/>
    <path d="M34.5343 24.1417L34.5322 25.6415L36.1781 25.6433L36.1803 24.1417H34.5343Z" fill="#42190D"/>
    <path d="M34.5387 22.6419L34.5344 24.1417H36.1803L36.1846 22.6437L34.5387 22.6419Z" fill="#8B5E3C"/>
    <path d="M34.5428 21.1403L34.5386 22.6419L36.1845 22.6437L36.1866 21.1439L34.5428 21.1403Z" fill="#8B5E3C"/>
    <path d="M34.5451 19.6405L34.543 21.1403L36.1868 21.1439L36.191 19.6423L34.5451 19.6405Z" fill="#42190D"/>
    <path d="M34.5485 18.1388L34.5439 19.6386L36.1899 19.6423L36.1944 18.1425L34.5485 18.1388Z" fill="#6E2E14"/>
    <path d="M34.563 12.1387L34.5586 13.6385L36.2045 13.6421L36.209 12.1423L34.563 12.1387Z" fill="#42190D"/>
    <path d="M34.5648 10.638L34.5615 12.1396L36.2053 12.1422L36.2086 10.6406L34.5648 10.638Z" fill="#6E2E14"/>
    <path d="M34.5671 9.1411L34.5649 10.6391L36.2087 10.6408L36.2108 9.14281L34.5671 9.1411Z" fill="#6E2E14"/>
    <path d="M36.1845 22.6448L36.1812 24.1427L37.8249 24.1454L37.8283 22.6474L36.1845 22.6448Z" fill="#42190D"/>
    <path d="M36.1866 21.1429L36.1846 22.6445L37.8305 22.6461L37.8325 21.1445L36.1866 21.1429Z" fill="#8B5E3C"/>
    <path d="M36.1903 19.642L36.1858 21.1418L37.8317 21.1455L37.8362 19.6457L36.1903 19.642Z" fill="#8B5E3C"/>
    <path d="M36.1941 18.1414L36.1909 19.643L37.8347 19.6455L37.8379 18.1439L36.1941 18.1414Z" fill="#8B5E3C"/>
    <path d="M36.1973 16.6409L36.1931 18.1425L37.839 18.1443L37.8411 16.6464L36.1973 16.6409Z" fill="#646368"/>
    <path d="M36.1994 15.143L36.1973 16.6409L37.8411 16.6464L37.8453 15.143H36.1994Z" fill="#42190D"/>
    <path d="M36.2037 13.6432L36.1995 15.143H37.8454L37.8496 13.645L36.2037 13.6432Z" fill="#42190D"/>
    <path d="M36.2065 12.1413L36.2034 13.6429L37.8472 13.6454L37.8503 12.1438L36.2065 12.1413Z" fill="#42190D"/>
    <path d="M36.2111 10.6396L36.2078 12.1412L37.8515 12.1438L37.8548 10.6422L36.2111 10.6396Z" fill="#6E2E14"/>
    <path d="M36.2121 9.14199L36.21 10.64L37.8559 10.6436L37.858 9.14199H36.2121Z" fill="#6E2E14"/>
    <path d="M37.8326 21.1457L37.8284 22.6473H39.4743L39.4764 21.1493L37.8326 21.1457Z" fill="#8B5E3C"/>
    <path d="M37.8358 19.6445L37.8325 21.1461L39.4763 21.1488L39.4796 19.6472L37.8358 19.6445Z" fill="#42190D"/>
    <path d="M37.8381 18.1452L37.835 19.645L39.4809 19.6475L39.484 18.1477L37.8381 18.1452Z" fill="#8B5E3C"/>
    <path d="M37.8412 16.6464L37.8391 18.1443L39.485 18.148L39.4871 16.6464H37.8412Z" fill="#8B5E3C"/>
    <path d="M37.8455 15.143L37.8413 16.6464H39.4872L39.4893 15.1484L37.8455 15.143Z" fill="#8B5E3C"/>
    <path d="M37.8497 13.645L37.8455 15.143L39.4893 15.1484L39.4935 13.6468L37.8497 13.645Z" fill="#8B5E3C"/>
    <path d="M37.8527 12.1428L37.8494 13.6444L39.4932 13.6471L39.4965 12.1455L37.8527 12.1428Z" fill="#42190D"/>
    <path d="M37.8547 10.6431L37.8516 12.1447L39.4954 12.1472L39.4985 10.6456L37.8547 10.6431Z" fill="#6E2E14"/>
    <path d="M37.8593 9.14138L37.856 10.643L39.4998 10.6456L39.5031 9.14404L37.8593 9.14138Z" fill="#6E2E14"/>
    <path d="M39.4862 16.6465L39.4844 18.1481L41.1303 18.1496L41.1321 16.648L39.4862 16.6465Z" fill="#42190D"/>
    <path d="M39.4896 15.1484L39.4861 16.6463L41.132 16.6492L41.1355 15.1512L39.4896 15.1484Z" fill="#42190D"/>
    <path d="M39.4944 13.6461L39.4912 15.1477L41.135 15.1502L41.1382 13.6486L39.4944 13.6461Z" fill="#42190D"/>
    <path d="M39.4966 12.1462L39.4934 13.6478L41.1372 13.6504L41.1404 12.1488L39.4966 12.1462Z" fill="#42190D"/>
    <path d="M39.5011 10.6446L39.4978 12.1462L41.1416 12.1489L41.1449 10.6473L39.5011 10.6446Z" fill="#42190D"/>
    <path d="M39.5031 9.14491L39.5 10.6465L41.1438 10.649L41.1469 9.14744L39.5031 9.14491Z" fill="#6E2E14"/>
    <path d="M4.13277 7.55742L4.12964 9.05903L5.77343 9.06181L5.77656 7.56021L4.13277 7.55742Z" fill="#C9A32D"/>
    <path d="M4.13468 6.05718L4.13257 7.55697L5.77636 7.56059L5.77848 6.06081L4.13468 6.05718Z" fill="#C9A32D"/>
    <path d="M5.7768 7.55911L5.77368 9.06071L7.41748 9.06323L7.4206 7.56163L5.7768 7.55911Z" fill="#C9A32D"/>
    <path d="M5.77848 6.06081L5.77637 7.56059L7.42227 7.56241L7.4265 6.06262L5.77848 6.06081Z" fill="#C9A32D"/>
    <path d="M7.42056 7.56244L7.41724 9.06404L9.06103 9.06672L9.06435 7.56512L7.42056 7.56244Z" fill="#C9A32D"/>
    <path d="M7.42576 6.06262L7.42139 7.56241L9.06518 7.56594L9.06956 6.06616L7.42576 6.06262Z" fill="#C9A32D"/>
    <path d="M9.06672 7.56625L9.06348 9.06604L10.7094 9.06866L10.7126 7.56888L9.06672 7.56625Z" fill="#C9A32D"/>
    <path d="M9.06917 6.06325L9.06592 7.56485L10.7118 7.56747L10.7151 6.06587L9.06917 6.06325Z" fill="#C9A32D"/>
    <path d="M9.07201 4.56617L9.0686 6.06415L10.7145 6.06691L10.7179 4.56893L9.07201 4.56617Z" fill="#C9A32D"/>
    <path d="M10.7114 7.56815L10.707 9.06794L12.3529 9.07148L12.3573 7.57169L10.7114 7.56815Z" fill="#C9A32D"/>
    <path d="M10.7157 6.06773L10.7124 7.56752L12.3583 7.57021L12.3616 6.07042L10.7157 6.06773Z" fill="#C9A32D"/>
    <path d="M10.7177 4.57089L10.7156 6.06886L12.3615 6.07057L12.3636 4.57259L10.7177 4.57089Z" fill="#C9A32D"/>
    <path d="M12.3572 7.57282L12.354 9.07261L13.9999 9.07517L14.0031 7.57539L12.3572 7.57282Z" fill="#C9A32D"/>
    <path d="M12.3621 6.06988L12.3579 7.57148L14.0038 7.57329L14.0059 6.0735L12.3621 6.06988Z" fill="#C9A32D"/>
    <path d="M12.3621 4.57248V6.07045L14.0058 6.07408L14.0101 4.57248H12.3621Z" fill="#C9A32D"/>
    <path d="M14.004 7.57427L13.9995 9.07406L15.6433 9.0777L15.6478 7.57791L14.004 7.57427Z" fill="#C9A32D"/>
    <path d="M14.0051 6.0723L14.0032 7.5739L15.6491 7.57546L15.651 6.07386L14.0051 6.0723Z" fill="#C9A32D"/>
    <path d="M14.0101 4.57248L14.0059 6.07408L15.6518 6.07589L15.6539 4.57792L14.0101 4.57248Z" fill="#C9A32D"/>
    <path d="M15.648 7.57626L15.6436 9.07604L17.2895 9.07964L17.2939 7.57986L15.648 7.57626Z" fill="#C9A32D"/>
    <path d="M15.6519 6.07553L15.6487 7.57713L17.2925 7.57975L17.2957 6.07815L15.6519 6.07553Z" fill="#C9A32D"/>
    <path d="M15.654 4.5786L15.6519 6.07658L17.2957 6.07828L17.2978 4.58031L15.654 4.5786Z" fill="#C9A32D"/>
    <path d="M17.2946 7.57881L17.2915 9.08041L18.9353 9.08293L18.9384 7.58133L17.2946 7.57881Z" fill="#C9A32D"/>
    <path d="M17.297 6.0771L17.2937 7.5787L18.9375 7.58135L18.9408 6.07975L17.297 6.0771Z" fill="#C9A32D"/>
    <path d="M18.9386 7.58031L18.9353 9.08191L20.5791 9.08458L20.5824 7.58298L18.9386 7.58031Z" fill="#C9A32D"/>
    <path d="M18.9409 6.08062L18.9377 7.58221L20.5815 7.58473L20.5847 6.08313L18.9409 6.08062Z" fill="#C9A32D"/>
    <path d="M18.9452 4.57891L18.9419 6.08051L20.5857 6.08318L20.589 4.58157L18.9452 4.57891Z" fill="#C9A32D"/>
    <path d="M20.6286 7.5572L20.6255 9.05881L22.2693 9.06159L22.2724 7.55999L20.6286 7.5572Z" fill="#C9A32D"/>
    <path d="M20.6331 6.05717L20.6289 7.55877L22.2727 7.56059L22.2769 6.06262L20.6331 6.05717Z" fill="#C9A32D"/>
    <path d="M22.2746 7.56071L22.2715 9.06231L23.9153 9.06483L23.9184 7.56323L22.2746 7.56071Z" fill="#C9A32D"/>
    <path d="M22.2772 6.06261L22.2729 7.56059L23.9189 7.56422L23.9231 6.06261H22.2772Z" fill="#C9A32D"/>
    <path d="M23.9186 7.56222L23.9153 9.06382L25.5591 9.0665L25.5624 7.5649L23.9186 7.56222Z" fill="#C9A32D"/>
    <path d="M23.9236 6.0642L23.9192 7.56399L25.563 7.56752L25.5674 6.06773L23.9236 6.0642Z" fill="#C9A32D"/>
    <path d="M23.9256 4.56485L23.9233 6.06283L25.5671 6.06464L25.5694 4.56667L23.9256 4.56485Z" fill="#C9A32D"/>
    <path d="M25.5626 7.56786L25.5593 9.06764L27.2052 9.07027L27.2085 7.57048L25.5626 7.56786Z" fill="#C9A32D"/>
    <path d="M25.5672 6.06484L25.564 7.56644L27.2099 7.56906L27.2131 6.06746L25.5672 6.06484Z" fill="#C9A32D"/>
    <path d="M25.5701 4.56778L25.5667 6.06575L27.2126 6.06851L27.216 4.57054L25.5701 4.56778Z" fill="#C9A32D"/>
    <path d="M27.2095 7.56973L27.2051 9.06951L28.851 9.07305L28.8554 7.57327L27.2095 7.56973Z" fill="#C9A32D"/>
    <path d="M27.2138 6.06933L27.2104 7.56911L28.8564 7.5718L28.8597 6.07201L27.2138 6.06933Z" fill="#C9A32D"/>
    <path d="M27.2157 4.57068L27.2136 6.06866L28.8595 6.07036L28.8616 4.57239L27.2157 4.57068Z" fill="#C9A32D"/>
    <path d="M28.853 7.57262L28.8499 9.0724L30.4958 9.07497L30.4989 7.57518L28.853 7.57262Z" fill="#C9A32D"/>
    <path d="M28.8587 6.07168L28.8545 7.57147L30.5004 7.57509L30.5025 6.07349L28.8587 6.07168Z" fill="#C9A32D"/>
    <path d="M28.8586 4.57159V6.07137L30.5024 6.07319L30.5067 4.5734L28.8586 4.57159Z" fill="#C9A32D"/>
    <path d="M30.4999 7.57584L30.4954 9.07562L32.1392 9.07926L32.1437 7.57947L30.4999 7.57584Z" fill="#C9A32D"/>
    <path d="M30.5032 6.0739L30.5012 7.5755L32.1471 7.57706L32.1491 6.07546L30.5032 6.0739Z" fill="#C9A32D"/>
    <path d="M30.5067 4.57333L30.5024 6.07311L32.1484 6.07674L32.1505 4.57877L30.5067 4.57333Z" fill="#C9A32D"/>
    <path d="M32.1439 7.57783L32.1394 9.07761L33.7853 9.08122L33.7898 7.58143L32.1439 7.57783Z" fill="#C9A32D"/>
    <path d="M32.1478 6.07531L32.1445 7.57691L33.7883 7.57953L33.7916 6.07793L32.1478 6.07531Z" fill="#C9A32D"/>
    <path d="M33.7893 7.57858L33.7861 9.08018L35.4299 9.0827L35.433 7.5811L33.7893 7.57858Z" fill="#C9A32D"/>
    <path d="M35.4354 7.5819L35.4321 9.0835L37.0759 9.08618L37.0792 7.58458L35.4354 7.5819Z" fill="#C9A32D"/>
    <path d="M12.3596 5.29725L12.3564 6.79885L14.0002 6.80163L14.0034 5.30003L12.3596 5.29725Z" fill="#C9A32D"/>
    <path d="M12.3624 3.79752L12.3582 5.29731L14.0041 5.30094L14.0062 3.80115L12.3624 3.79752Z" fill="#C9A32D"/>
    <path d="M14.0036 5.29895L14.0005 6.80055L15.6443 6.80307L15.6474 5.30147L14.0036 5.29895Z" fill="#C9A32D"/>
    <path d="M14.0063 3.80116L14.0042 5.30094L15.6479 5.30276L15.6522 3.80297L14.0063 3.80116Z" fill="#C9A32D"/>
    <path d="M15.6474 5.30226L15.644 6.80386L17.2878 6.80654L17.2912 5.30494L15.6474 5.30226Z" fill="#C9A32D"/>
    <path d="M15.6526 3.80243L15.6482 5.30222L17.292 5.30575L17.2964 3.80596L15.6526 3.80243Z" fill="#C9A32D"/>
    <path d="M15.6543 2.30489L15.6521 3.80286L17.2959 3.80468L17.2981 2.3067L15.6543 2.30489Z" fill="#C9A32D"/>
    <path d="M17.2945 5.30609L17.2913 6.80588L18.9372 6.8085L18.9404 5.30871L17.2945 5.30609Z" fill="#C9A32D"/>
    <path d="M17.2969 3.8049L17.2937 5.3065L18.9396 5.30912L18.9429 3.80752L17.2969 3.8049Z" fill="#C9A32D"/>
    <path d="M17.2998 2.3078L17.2964 3.80578L18.9423 3.80854L18.9457 2.31056L17.2998 2.3078Z" fill="#C9A32D"/>
    <path d="M18.9394 5.30978L18.9351 6.80956L20.581 6.8131L20.5853 5.31331L18.9394 5.30978Z" fill="#C9A32D"/>
    <path d="M18.9438 3.80937L18.9404 5.30916L20.5863 5.31184L20.5897 3.81206L18.9438 3.80937Z" fill="#C9A32D"/>
    <path d="M18.9455 2.31072L18.9434 3.80869L20.5893 3.8104L20.5914 2.31243L18.9455 2.31072Z" fill="#C9A32D"/>
    <path d="M20.5852 5.31265L20.582 6.81244L22.2279 6.815L22.2311 5.31521L20.5852 5.31265Z" fill="#C9A32D"/>
    <path d="M20.5889 3.81203L20.5847 5.31182L22.2306 5.31363L22.2327 3.81385L20.5889 3.81203Z" fill="#C9A32D"/>
    <path d="M20.591 2.31192L20.5889 3.81171L22.2327 3.81352L22.2369 2.31192H20.591Z" fill="#C9A32D"/>
    <path d="M22.2323 5.31408L22.2278 6.81387L23.8716 6.8175L23.8761 5.31771L22.2323 5.31408Z" fill="#C9A32D"/>
    <path d="M22.2334 3.81394L22.2314 5.31554L23.8774 5.3171L23.8793 3.8155L22.2334 3.81394Z" fill="#C9A32D"/>
    <path d="M22.2369 2.31192L22.2327 3.81352L23.8786 3.81533L23.8807 2.31736L22.2369 2.31192Z" fill="#C9A32D"/>
    <path d="M23.8763 5.3179L23.8718 6.81769L25.5177 6.82129L25.5222 5.3215L23.8763 5.3179Z" fill="#C9A32D"/>
    <path d="M23.8802 3.81536L23.877 5.31696L25.5207 5.31957L25.524 3.81797L23.8802 3.81536Z" fill="#C9A32D"/>
    <path d="M25.5219 5.31862L25.5188 6.82022L27.1626 6.82274L27.1657 5.32114L25.5219 5.31862Z" fill="#C9A32D"/>
    <path d="M27.1659 5.32196L27.1626 6.82356L28.8064 6.82624L28.8097 5.32464L27.1659 5.32196Z" fill="#C9A32D"/>
    <path d="M27.1725 2.32054L27.1692 3.82214L28.813 3.82481L28.8163 2.32321L27.1725 2.32054Z" fill="#C9A32D"/>
    <path d="M30.9297 5.05244L30.927 6.30922L32.2433 6.31126L32.246 5.05449L30.9297 5.05244Z" fill="#E0B848"/>
    <path d="M29.6137 3.79238L29.6111 5.04916L30.9295 5.05121L30.9322 3.79444L29.6137 3.79238Z" fill="#E0B848"/>
    <path d="M29.6126 5.04922L29.6099 6.30599L30.9283 6.3081L30.931 5.05133L29.6126 5.04922Z" fill="#E0B848"/>
    <path d="M29.6153 3.7921L29.6174 2.53532L28.299 2.53351L28.2969 3.79028L29.6153 3.7921Z" fill="#E0B848"/>
    <path d="M28.2971 3.78879L28.2935 5.04556L29.6097 5.04838L29.6134 3.7916L28.2971 3.78879Z" fill="#E0B848"/>
    <path d="M28.2925 5.04795L28.2908 6.30473L29.6092 6.30607L29.6109 5.0493L28.2925 5.04795Z" fill="#E0B848"/>
    <path d="M28.2967 3.79027L28.2988 2.5335L26.9825 2.52987L26.9783 3.78664L28.2967 3.79027Z" fill="#E0B848"/>
    <path d="M26.9801 3.78736L26.9763 5.04414L28.2947 5.04704L28.2985 3.79027L26.9801 3.78736Z" fill="#E0B848"/>
    <path d="M26.976 5.04619L26.9734 6.30296L28.2897 6.30499L28.2923 5.04821L26.976 5.04619Z" fill="#E0B848"/>
    <path d="M26.9825 2.52988L26.9846 1.27492L25.6683 1.2731L25.6641 2.52988H26.9825Z" fill="#E0B848"/>
    <path d="M26.9782 3.78664L26.9824 2.52987H25.664L25.6619 3.78664H26.9782Z" fill="#E0B848"/>
    <path d="M26.9762 5.04523L26.9783 3.78664H25.662L25.6599 5.04342L26.9762 5.04523Z" fill="#E0B848"/>
    <path d="M24.3498 1.27111L24.3462 2.52789L25.6625 2.53068L25.6661 1.27391L24.3498 1.27111Z" fill="#E0B848"/>
    <path d="M25.6619 3.78665L25.664 2.52987L24.3456 2.52806L24.3435 3.78302L25.6619 3.78665Z" fill="#E0B848"/>
    <path d="M25.6597 5.04343L25.6618 3.78665L24.3434 3.78303L24.3413 5.0398L25.6597 5.04343Z" fill="#E0B848"/>
    <path d="M23.0327 1.26759L23.0291 2.52437L24.3475 2.52718L24.3511 1.27041L23.0327 1.26759Z" fill="#E0B848"/>
    <path d="M24.3434 3.78302L24.3455 2.52806L23.0271 2.52444V3.78302H24.3434Z" fill="#E0B848"/>
    <path d="M21.7163 0.00976654L21.7136 1.26654L23.032 1.26858L23.0347 0.011805L21.7163 0.00976654Z" fill="#E0B848"/>
    <path d="M21.7132 1.26557L21.7095 2.52235L23.0279 2.52526L23.0317 1.26849L21.7132 1.26557Z" fill="#E0B848"/>
    <path d="M23.0269 3.78302V2.52443L21.7106 2.52262L21.7085 3.7794L23.0269 3.78302Z" fill="#E0B848"/>
    <path d="M20.3999 0.00647091L20.3962 1.26324L21.7125 1.26607L21.7162 0.00930092L20.3999 0.00647091Z" fill="#E0B848"/>
    <path d="M20.3955 1.26495L20.3928 2.52172L21.7091 2.52381L21.7118 1.26704L20.3955 1.26495Z" fill="#E0B848"/>
    <path d="M21.7085 3.77939L21.7107 2.52262L20.3944 2.52081L20.3901 3.77758L21.7085 3.77939Z" fill="#E0B848"/>
    <path d="M19.0823 0.00577608L19.0796 1.26255L20.398 1.26467L20.4007 0.00789244L19.0823 0.00577608Z" fill="#E0B848"/>
    <path d="M19.0791 1.26165L19.0754 2.51842L20.3939 2.52125L20.3975 1.26448L19.0791 1.26165Z" fill="#E0B848"/>
    <path d="M19.0752 2.51862L19.0725 3.7754L20.3888 3.7775L20.3915 2.52072L19.0752 2.51862Z" fill="#E0B848"/>
    <path d="M17.7656 0.00191604L17.762 1.25869L19.0804 1.26152L19.084 0.0047506L17.7656 0.00191604Z" fill="#E0B848"/>
    <path d="M17.7615 1.26068L17.7588 2.51746L19.0751 2.51955L19.0778 1.26277L17.7615 1.26068Z" fill="#E0B848"/>
    <path d="M17.7581 2.51755L17.7554 3.77432L19.0717 3.77639L19.0744 2.51962L17.7581 2.51755Z" fill="#E0B848"/>
    <path d="M16.4479 0.000969727L16.4453 1.25774L17.7616 1.25976L17.7642 0.00298287L16.4479 0.000969727Z" fill="#E0B848"/>
    <path d="M16.4444 1.25778L16.4417 2.51456L17.758 2.5167L17.7607 1.25993L16.4444 1.25778Z" fill="#E0B848"/>
    <path d="M16.441 2.51467L16.4382 3.77145L17.7545 3.77354L17.7573 2.51677L16.441 2.51467Z" fill="#E0B848"/>
    <path d="M15.1264 1.25649L15.1238 2.51326L16.4422 2.51528L16.4448 1.25851L15.1264 1.25649Z" fill="#E0B848"/>
    <path d="M15.1231 2.51331L15.1204 3.77009L16.4388 3.77222L16.4415 2.51545L15.1231 2.51331Z" fill="#E0B848"/>
    <path d="M13.8076 1.25257L13.804 2.50934L15.1224 2.51214L15.126 1.25537L13.8076 1.25257Z" fill="#E0B848"/>
    <path d="M13.8052 2.51203L13.8035 3.7688L15.1219 3.77017L15.1237 2.5134L13.8052 2.51203Z" fill="#E0B848"/>
    <path d="M13.803 3.76809L13.7993 5.02486L15.1177 5.02774L15.1215 3.77096L13.803 3.76809Z" fill="#E0B848"/>
    <path d="M12.4901 1.25156L12.4873 2.50834L13.8036 2.51047L13.8064 1.25369L12.4901 1.25156Z" fill="#E0B848"/>
    <path d="M12.4887 2.50847L12.4861 3.76524L13.8024 3.76726L13.805 2.51049L12.4887 2.50847Z" fill="#E0B848"/>
    <path d="M12.4854 3.7653L12.4827 5.02207L13.799 5.0242L13.8017 3.76742L12.4854 3.7653Z" fill="#E0B848"/>
    <path d="M11.1695 2.50705L11.1667 3.76382L12.4852 3.76597L12.4879 2.50919L11.1695 2.50705Z" fill="#E0B848"/>
    <path d="M11.1681 3.76399L11.1655 5.02076L12.4839 5.02279L12.4866 3.76601L11.1681 3.76399Z" fill="#E0B848"/>
    <path d="M12.4784 6.28025L12.4826 5.02347L11.1642 5.01984L11.1621 6.27662L12.4784 6.28025Z" fill="#E0B848"/>
    <path d="M9.8518 2.50399L9.8501 3.76077L11.1685 3.76208L11.1702 2.50531L9.8518 2.50399Z" fill="#E0B848"/>
    <path d="M9.84937 3.76189L9.8457 5.01867L11.1641 5.0215L11.1678 3.76473L9.84937 3.76189Z" fill="#E0B848"/>
    <path d="M11.1622 6.27662L11.1643 5.01984L9.84586 5.01803L9.84375 6.27662H11.1622Z" fill="#E0B848"/>
    <path d="M8.53204 3.75909L8.5293 5.01586L9.8456 5.01797L9.84834 3.7612L8.53204 3.75909Z" fill="#E0B848"/>
    <path d="M9.84365 6.27662L9.84576 5.01803L8.52946 5.01621L8.52734 6.27118L9.84365 6.27662Z" fill="#E0B848"/>
    <path d="M8.5274 6.27118L8.52951 5.01622L7.21321 5.0144L7.20898 6.27118H8.5274Z" fill="#E0B848"/>
</svg>
