<svg width="42" height="32" fill="none" xmlns="http://www.w3.org/2000/svg"><path d="M24.53 28.617h-8.497c-7.028 0-12.724-4.889-12.724-10.92v-5.554h34.543v5.04c0 6.315-5.965 11.434-13.323 11.434z" fill="#8B5E3C"/><path d="M.004 16.585 0 18.085l1.644.004.004-1.5-1.644-.004zM.008 15.085l-.003 1.5 1.643.002.004-1.5-1.644-.002zM1.654 13.587H.008v1.498h1.646v-1.498z" fill="#42190D"/><path d="m.013 12.084-.004 1.5 1.646.004.004-1.5-1.646-.004z" fill="#42190D"/><path d="m.015 10.584-.003 1.501 1.644.003.003-1.502-1.644-.002z" fill="#42190D"/><path d="m.021 9.084-.004 1.5 1.644.003.004-1.5-1.644-.003z" fill="#6E2E14"/><path d="m1.637 21.09-.002 1.498 1.644.002.002-1.498-1.644-.002zM1.64 19.587l-.003 1.501 1.644.003.004-1.502-1.644-.002z" fill="#42190D"/><path d="m1.645 18.087-.003 1.502 1.644.002.003-1.502-1.644-.002z" fill="#8B5E3C"/><path d="m1.647 16.585-.003 1.502 1.644.002.003-1.501-1.644-.003z" fill="#8B5E3C"/><path d="m1.653 15.086-.005 1.5 1.644.003.004-1.5-1.643-.003z" fill="#8B5E3C"/><path d="m1.654 13.588-.002 1.498 1.644.002.002-1.498-1.644-.002z" fill="#8B5E3C"/><path d="m1.657 12.087-.003 1.501 1.644.003.003-1.502-1.644-.002z" fill="#42190D"/><path d="m1.662 10.587-.003 1.5 1.646.003.003-1.5-1.646-.003z" fill="#6E2E14"/><path d="m1.664 9.086-.003 1.501 1.646.003.003-1.502-1.646-.002z" fill="#6E2E14"/><path d="m3.281 22.59-.003 1.502 1.644.003.003-1.502-1.644-.003z" fill="#42190D"/><path d="m3.283 21.091-.002 1.5 1.644.002.004-1.502H3.283zM3.286 19.591l-.003 1.5H4.93l.002-1.498-1.645-.002zM3.29 18.09l-.004 1.5 1.646.003.003-1.501-1.646-.003z" fill="#8B5E3C"/><path d="m3.294 16.59-.004 1.5 1.646.002.003-1.5-1.645-.002z" fill="#42190D"/><path d="m3.298 15.088-.006 1.502 1.648.002.002-1.5-1.644-.004z" fill="#42190D"/><path d="m3.3 13.59-.002 1.498 1.644.004.004-1.501H3.3z" fill="#42190D"/><path d="M3.302 12.089 3.3 13.591h1.646l.002-1.498-1.646-.004z" fill="#42190D"/><path d="m3.307 10.59-.005 1.499 1.646.003.005-1.5-1.646-.003z" fill="#6E2E14"/><path d="m3.31 9.089-.002 1.501 1.646.002.002-1.502L3.31 9.09z" fill="#6E2E14"/><path d="m4.923 24.093-.003 1.502 1.643.003.004-1.502-1.644-.003z" fill="#42190D"/><path d="m4.925 22.592-.003 1.501 1.644.003.003-1.502-1.644-.002z" fill="#8B5E3C"/><path d="m4.93 21.091-.005 1.502 1.646.002.002-1.498-1.644-.006z" fill="#8B5E3C"/><path d="m4.931 19.593-.002 1.498 1.644.006.002-1.502-1.644-.002zM4.95 12.093l-.003 1.498 1.644.002.002-1.498-1.644-.002z" fill="#42190D"/><path d="m4.952 10.592-.003 1.501 1.644.003.003-1.502-1.644-.002z" fill="#6E2E14"/><path d="m4.955 9.09-.004 1.502 1.644.002.003-1.501-1.643-.003z" fill="#6E2E14"/><path d="m6.565 25.597-.003 1.5 1.645.002.004-1.5-1.646-.002z" fill="#42190D"/><path d="m6.567 24.095-.003 1.502 1.646.003.003-1.502-1.646-.003z" fill="#8B5E3C"/><path d="m6.571 22.596-.003 1.5 1.646.002.003-1.5-1.646-.002z" fill="#8B5E3C"/><path d="m6.573 21.097-.002 1.498 1.646.003.002-1.5-1.646-.001zM6.594 12.094l-.002 1.5 1.644.004.002-1.5-1.644-.004z" fill="#42190D"/><path d="m6.596 10.593-.003 1.502 1.644.002.003-1.501-1.644-.003z" fill="#6E2E14"/><path d="m6.6 9.093-.003 1.502 1.644.003.003-1.502-1.643-.003z" fill="#6E2E14"/><path d="M8.206 27.1 8.202 28.6H9.85v-1.498L8.206 27.1z" fill="#42190D"/><path d="m8.21 25.6-.005 1.5 1.644.004.004-1.5-1.644-.004zM8.213 24.098 8.21 25.6l1.646.002.002-1.502-1.646-.002z" fill="#8B5E3C"/><path d="m8.216 22.6-.004 1.5 1.646.003.004-1.5-1.646-.004zM8.238 12.098l-.002 1.5 1.644.002.004-1.5-1.646-.002z" fill="#42190D"/><path d="m8.242 10.597-.003 1.501 1.644.003.003-1.502-1.644-.002z" fill="#6E2E14"/><path d="m8.244 9.095-.003 1.502 1.644.002.003-1.501-1.644-.003z" fill="#6E2E14"/><path d="M9.85 27.103v1.498l1.642.006.004-1.5-1.646-.004z" fill="#42190D"/><path d="m9.856 25.602-.005 1.5 1.646.004.005-1.5-1.646-.004z" fill="#8B5E3C"/><path d="m9.857 24.102-.003 1.501 1.644.003.003-1.502-1.644-.002zM9.883 12.101 9.88 13.6l1.643.002.003-1.498-1.644-.002z" fill="#42190D"/><path d="M9.886 10.598 9.883 12.1l1.644.002.003-1.501-1.644-.003z" fill="#6E2E14"/><path d="m9.889 9.1-.004 1.5 1.646.003.003-1.5-1.645-.002z" fill="#6E2E14"/><path d="m11.492 28.607-.003 1.498 1.644.003.005-1.501h-1.646z" fill="#42190D"/><path d="m11.496 27.107-.004 1.5h1.646l.004-1.5h-1.646z" fill="#8B5E3C"/><path d="m11.5 25.605-.004 1.502h1.646l.002-1.5-1.644-.002zM11.528 12.104l-.002 1.497 1.646.004.002-1.502h-1.646z" fill="#42190D"/><path d="m11.532 10.602-.004 1.502h1.646l.004-1.498-1.646-.004zM11.536 9.102l-.004 1.5 1.646.003V9.103l-1.642-.001z" fill="#6E2E14"/><path d="m13.138 28.607-.005 1.5 1.644.003.005-1.5-1.644-.003z" fill="#42190D"/><path d="m13.142 27.107-.005 1.5 1.646.003.003-1.5-1.644-.003z" fill="#8B5E3C"/><path d="m13.144 25.607-.002 1.5 1.644.003.004-1.5-1.646-.003zM13.174 12.104l-.003 1.501 1.644.002.002-1.498-1.643-.005z" fill="#42190D"/><path d="m13.178 10.605-.004 1.498 1.643.006.005-1.502-1.644-.002z" fill="#6E2E14"/><path d="m13.178 9.103-.002 1.502 1.646.002.002-1.502-1.646-.002z" fill="#6E2E14"/><path d="m14.784 28.61-.004 1.5 1.646.003.004-1.5-1.646-.003z" fill="#8B5E3C"/><path d="m14.786 27.11-.003 1.5 1.646.002.003-1.5-1.646-.002z" fill="#8B5E3C"/><path d="m14.817 12.109-.002 1.498 1.644.002.004-1.5h-1.646z" fill="#42190D"/><path d="m14.822 10.607-.005 1.502h1.646l.002-1.498-1.643-.004z" fill="#6E2E14"/><path d="m14.825 9.107-.003 1.501 1.643.003.004-1.502-1.644-.002z" fill="#6E2E14"/><path d="m16.426 30.114-.003 1.5 1.646.002.003-1.5-1.646-.002z" fill="#42190D"/><path d="m16.43 28.612-.005 1.5 1.646.004.005-1.5-1.646-.004z" fill="#8B5E3C"/><path d="m16.433 27.112-.003 1.5 1.644.004.004-1.498-1.645-.006zM16.464 12.109l-.004 1.5 1.646.003.002-1.498-1.644-.005z" fill="#42190D"/><path d="m16.466 10.611.002 1.5 3.782.003.005-1.5-3.789-.003z" fill="#6E2E14"/><path d="m16.47 9.11-.003 1.501 1.646.003.003-1.502-1.645-.002z" fill="#6E2E14"/><path d="m18.073 30.116-.004 1.5 1.643.004.005-1.5-1.644-.004z" fill="#42190D"/><path d="m18.075 28.616-.003 1.5 1.643.003.004-1.5-1.644-.003z" fill="#8B5E3C"/><path d="m18.078 27.118-.004 1.498 1.646.002.002-1.5h-1.644zM18.108 12.114l-.002 1.498 1.646.004.002-1.502h-1.646z" fill="#42190D"/><path d="m18.116 9.111-.003 1.502 1.644.003.003-1.502-1.644-.003z" fill="#6E2E14"/><path d="m19.716 30.119-.003 1.5 1.646.002.003-1.5-1.646-.002z" fill="#42190D"/><path d="m19.72 28.617-.005 1.5 1.646.004.004-1.5-1.645-.004z" fill="#8B5E3C"/><path d="m19.724 27.117-.004 1.501 1.644.003.003-1.502-1.643-.002zM19.755 12.115l-.003 1.502 1.646.001.002-1.501-1.645-.002z" fill="#42190D"/><path d="m19.758 10.617-.004 1.498 1.646.003.003-1.498-1.645-.003zM19.763 9.115l-.003 1.502 1.644.002.003-1.501-1.644-.003z" fill="#6E2E14"/><path d="m21.361 30.122-.004 1.5 1.646.004.004-1.5-1.646-.004z" fill="#42190D"/><path d="m21.365 28.62-.003 1.501 1.644.003.003-1.502-1.644-.002z" fill="#8B5E3C"/><path d="m21.367 27.118-.003 1.502 1.644.002.003-1.501-1.643-.003zM21.401 12.117l-.003 1.501 1.644.003.003-1.502-1.644-.002z" fill="#42190D"/><path d="m21.402 10.618-.002 1.5 1.646.002.002-1.5-1.646-.002zM21.407 9.117l-.005 1.5 1.646.001.002-1.5-1.643-.001z" fill="#6E2E14"/><path d="m23.007 30.123-.003 1.502 1.643.002.004-1.501-1.644-.003z" fill="#42190D"/><path d="m23.01 28.621-.004 1.502 1.644.003.003-1.502-1.644-.003z" fill="#8B5E3C"/><path d="m23.014 27.122-.004 1.501 1.644.003.003-1.502-1.643-.002z" fill="#8B5E3C"/><path d="m23.045 12.12-.003 1.502 1.643.002.004-1.501-1.644-.003z" fill="#42190D"/><path d="m23.048 10.62-.002 1.5 1.644.002.002-1.498-1.644-.004zM23.05 9.119l-.002 1.5 1.644.003.004-1.5-1.646-.003z" fill="#6E2E14"/><path d="m24.655 28.627-.003 1.5 1.646.002.003-1.5-1.646-.002zM24.658 27.123l-.004 1.502 1.646.003.003-1.502-1.645-.003z" fill="#8B5E3C"/><path d="m24.691 12.122-.003 1.501 1.644.003.003-1.502-1.644-.002z" fill="#42190D"/><path d="m24.692 10.624-.002 1.498 1.646.003.004-1.5-1.648-.001zM24.696 9.122l-.004 1.5 1.648.002.002-1.5-1.646-.002z" fill="#6E2E14"/><path d="m26.3 28.629-.004 1.5 1.646.003.004-1.5-1.646-.003z" fill="#42190D"/><path d="m26.303 27.128-.002 1.502 1.646.002.002-1.502-1.646-.002z" fill="#8B5E3C"/><path d="m26.307 25.627-.005 1.5 1.646.004.005-1.5-1.646-.004zM26.335 12.125l-.003 1.502 1.644.002.003-1.501-1.644-.003z" fill="#42190D"/><path d="m26.34 10.625-.004 1.5 1.644.003.004-1.5-1.644-.003z" fill="#6E2E14"/><path d="m26.342 9.128-.002 1.498 1.644.001.002-1.498-1.644-.001z" fill="#6E2E14"/><path d="m27.946 28.631-.003 1.502 1.643.003.004-1.502-1.644-.003z" fill="#42190D"/><path d="m27.948 27.13-.003 1.501 1.644.003.003-1.502-1.644-.002zM27.953 25.628l-.004 1.502 1.644.002.003-1.501-1.643-.003z" fill="#8B5E3C"/><path d="m27.981 12.129-.003 1.5 1.646.002.003-1.5-1.646-.002z" fill="#42190D"/><path d="m27.984 10.626-.004 1.501 1.646.003.004-1.502-1.646-.002z" fill="#6E2E14"/><path d="m27.987 9.129-.004 1.498 1.646.002.003-1.498-1.645-.002z" fill="#6E2E14"/><path d="m29.594 27.132-.003 1.501 1.646.003.003-1.502-1.646-.002z" fill="#42190D"/><path d="m29.597 25.634-.004 1.5 1.646.002.003-1.5-1.645-.002z" fill="#8B5E3C"/><path d="m29.6 24.133-.004 1.5 1.646.003.002-1.5-1.643-.003zM29.626 12.13l-.004 1.5 1.646.004.004-1.5-1.646-.003z" fill="#42190D"/><path d="m29.63 10.63-.003 1.5 1.646.003.003-1.5-1.645-.003z" fill="#6E2E14"/><path d="m29.632 9.133-.002 1.498 1.646.002.002-1.498-1.646-.002z" fill="#6E2E14"/><path d="m31.238 27.136-.002 1.502 1.646.002.002-1.502-1.646-.002z" fill="#42190D"/><path d="m31.244 25.636-.005 1.5 1.646.003.005-1.5-1.646-.003z" fill="#8B5E3C"/><path d="m31.244 24.136-.002 1.5 1.646.002.003-1.5-1.646-.002z" fill="#8B5E3C"/><path d="m31.249 22.636-.005 1.5 1.646.002.002-1.5-1.643-.002zM31.272 12.133l-.003 1.5 1.646.003.003-1.5-1.646-.002z" fill="#42190D"/><path d="m31.276 10.633-.004 1.5 1.646.003.002-1.502-1.644-.001z" fill="#6E2E14"/><path d="M31.276 9.135v1.498l1.644.002.004-1.5h-1.648z" fill="#6E2E14"/><path d="m32.887 25.638-.003 1.502 1.644.002.003-1.501-1.644-.003z" fill="#42190D"/><path d="m32.89 24.138-.002 1.5 1.644.003.002-1.5-1.643-.003z" fill="#8B5E3C"/><path d="m32.892 22.638-.002 1.5 1.644.004.004-1.5-1.645-.004z" fill="#8B5E3C"/><path d="m32.897 21.138-.003 1.5 1.646.003.003-1.5-1.646-.003zM32.917 12.137l-.005 1.5 1.644.003.005-1.5-1.644-.003z" fill="#42190D"/><path d="m32.92 10.635-.002 1.501 1.646.002.002-1.502-1.646-.001z" fill="#6E2E14"/><path d="m32.924 9.135-.004 1.5 1.646.003.002-1.498-1.644-.005z" fill="#6E2E14"/><path d="m34.534 24.142-.002 1.5 1.646.001.002-1.501h-1.646z" fill="#42190D"/><path d="m34.539 22.642-.005 1.5h1.646l.005-1.498-1.646-.002z" fill="#8B5E3C"/><path d="m34.543 21.14-.004 1.502 1.645.002.003-1.5-1.644-.004z" fill="#8B5E3C"/><path d="m34.545 19.64-.002 1.5 1.644.004.004-1.502-1.646-.002z" fill="#42190D"/><path d="m34.548 18.139-.004 1.5 1.646.003.004-1.5-1.646-.003z" fill="#6E2E14"/><path d="m34.563 12.139-.004 1.5 1.646.003.004-1.5-1.646-.003z" fill="#42190D"/><path d="m34.565 10.638-.003 1.502 1.643.002.004-1.501-1.644-.003z" fill="#6E2E14"/><path d="m34.567 9.141-.002 1.498 1.644.002.002-1.498-1.644-.002z" fill="#6E2E14"/><path d="m36.184 22.645-.003 1.498 1.644.002.003-1.498-1.644-.002z" fill="#42190D"/><path d="m36.187 21.143-.002 1.502 1.645.001.003-1.502-1.646-.001z" fill="#8B5E3C"/><path d="m36.19 19.642-.004 1.5 1.646.003.004-1.5-1.646-.003z" fill="#8B5E3C"/><path d="m36.194 18.141-.003 1.502 1.644.002.003-1.501-1.644-.003z" fill="#8B5E3C"/><path d="m36.197 16.64-.004 1.502 1.646.002.002-1.498-1.644-.005z" fill="#646368"/><path d="m36.2 15.143-.003 1.498 1.644.005.004-1.503H36.2zM36.204 13.643l-.005 1.5h1.646l.005-1.498-1.646-.002z" fill="#42190D"/><path d="m36.206 12.141-.003 1.502 1.644.002.003-1.501-1.644-.003z" fill="#42190D"/><path d="m36.211 10.64-.003 1.501 1.644.003.003-1.502-1.644-.002z" fill="#6E2E14"/><path d="m36.212 9.142-.002 1.498 1.646.004.002-1.502h-1.646z" fill="#6E2E14"/><path d="m37.833 21.146-.005 1.501h1.646l.002-1.498-1.643-.003z" fill="#8B5E3C"/><path d="m37.836 19.645-.003 1.501 1.643.003.004-1.502-1.644-.002z" fill="#42190D"/><path d="m37.838 18.145-.003 1.5 1.646.003.003-1.5-1.646-.003zM37.841 16.646l-.002 1.498 1.646.004.002-1.502h-1.646zM37.846 15.143l-.005 1.503h1.646l.002-1.498-1.643-.005z" fill="#8B5E3C"/><path d="m37.85 13.645-.005 1.498 1.644.005.005-1.501-1.644-.002z" fill="#8B5E3C"/><path d="m37.853 12.143-.004 1.501 1.644.003.003-1.502-1.643-.002z" fill="#42190D"/><path d="m37.855 10.643-.003 1.502 1.643.002.004-1.501-1.644-.003zM37.86 9.141l-.004 1.502 1.644.003.003-1.502-1.644-.003z" fill="#6E2E14"/><path d="m39.486 16.646-.002 1.502 1.646.002.002-1.502-1.646-.002z" fill="#42190D"/><path d="m39.49 15.148-.004 1.498 1.646.003.004-1.498-1.646-.003zM39.494 13.646l-.003 1.502 1.644.002.003-1.501-1.644-.003z" fill="#42190D"/><path d="m39.497 12.146-.004 1.502 1.644.002.003-1.501-1.643-.003zM39.501 10.645l-.003 1.501 1.644.003.003-1.502-1.644-.002z" fill="#42190D"/><path d="m39.503 9.145-.003 1.502 1.644.002.003-1.502-1.644-.002z" fill="#6E2E14"/><path d="M4.133 7.557 4.13 9.06l1.643.003.004-1.502-1.644-.003z" fill="#C9A32D"/><path d="m4.135 6.057-.002 1.5 1.643.004.002-1.5-1.643-.004zM5.777 7.56l-.003 1.5 1.643.003.004-1.501-1.644-.003z" fill="#C9A32D"/><path d="m5.778 6.06-.002 1.5 1.646.002.005-1.5-1.649-.001zM7.42 7.562l-.003 1.502 1.644.003.003-1.502-1.643-.003z" fill="#C9A32D"/><path d="m7.426 6.063-.005 1.5 1.644.003.005-1.5-1.644-.003zM9.067 7.566l-.004 1.5 1.646.003.004-1.5-1.646-.003z" fill="#C9A32D"/><path d="m9.07 6.063-.004 1.502 1.646.002.003-1.501-1.646-.003z" fill="#C9A32D"/><path d="m9.072 4.566-.003 1.498 1.645.003.004-1.498-1.646-.003zM10.711 7.568l-.004 1.5 1.646.003.004-1.5-1.646-.003zM10.716 6.068l-.004 1.5 1.646.002.004-1.5-1.646-.002z" fill="#C9A32D"/><path d="m10.718 4.57-.002 1.499 1.646.002.002-1.498-1.646-.002zM12.357 7.573l-.003 1.5L14 9.075l.003-1.5-1.646-.002z" fill="#C9A32D"/><path d="m12.362 6.07-.004 1.501 1.646.002.002-1.5-1.644-.003z" fill="#C9A32D"/><path d="M12.362 4.572V6.07l1.644.004.004-1.502h-1.648zM14.004 7.574l-.005 1.5 1.644.004.005-1.5-1.644-.004z" fill="#C9A32D"/><path d="m14.005 6.072-.002 1.502 1.646.001.002-1.501-1.646-.002z" fill="#C9A32D"/><path d="m14.01 4.572-.004 1.502 1.646.002.002-1.498-1.644-.006zM15.648 7.576l-.004 1.5 1.646.004.004-1.5-1.646-.004z" fill="#C9A32D"/><path d="m15.652 6.076-.003 1.501 1.644.003.003-1.502-1.644-.002z" fill="#C9A32D"/><path d="m15.654 4.579-.002 1.498 1.644.001.002-1.498-1.644-.001zM17.295 7.579 17.29 9.08l1.644.003.003-1.502-1.643-.002z" fill="#C9A32D"/><path d="m17.297 6.077-.003 1.502 1.643.002.004-1.501-1.644-.003zM18.939 7.58l-.004 1.502 1.644.003.003-1.502-1.643-.003z" fill="#C9A32D"/><path d="m18.94 6.08-.002 1.502 1.643.003.004-1.502-1.644-.002z" fill="#C9A32D"/><path d="m18.945 4.579-.003 1.502 1.644.002.003-1.501-1.644-.003zM20.629 7.557l-.004 1.502 1.644.003.003-1.502-1.643-.003z" fill="#C9A32D"/><path d="M20.633 6.057 20.63 7.56l1.644.002.004-1.498-1.644-.006zM22.275 7.56l-.003 1.502 1.643.003.003-1.502-1.643-.002z" fill="#C9A32D"/><path d="m22.277 6.063-.004 1.498 1.646.003.004-1.501h-1.646z" fill="#C9A32D"/><path d="m23.919 7.562-.004 1.502 1.644.002.003-1.501-1.643-.003z" fill="#C9A32D"/><path d="m23.924 6.064-.005 1.5 1.644.004.004-1.5-1.643-.004zM23.926 4.565l-.003 1.498 1.644.002.002-1.498-1.643-.002zM25.563 7.568l-.004 1.5 1.646.002.004-1.5-1.646-.002z" fill="#C9A32D"/><path d="m25.567 6.065-.003 1.501 1.646.003.003-1.502-1.646-.002z" fill="#C9A32D"/><path d="m25.57 4.568-.003 1.498 1.646.003.003-1.498-1.646-.003zM27.21 7.57l-.005 1.5 1.646.003.004-1.5-1.646-.003z" fill="#C9A32D"/><path d="m27.214 6.07-.004 1.5 1.646.002.004-1.5-1.646-.003z" fill="#C9A32D"/><path d="m27.216 4.57-.002 1.499 1.646.001.002-1.498-1.646-.001zM28.853 7.573l-.003 1.5 1.646.002.003-1.5-1.646-.002zM28.859 6.072l-.005 1.5 1.646.003.003-1.502-1.644-.001z" fill="#C9A32D"/><path d="M28.859 4.572v1.5l1.643.001.005-1.5-1.648-.001zM30.5 7.576l-.005 1.5 1.644.003.005-1.5-1.644-.003zM30.503 6.074l-.002 1.502 1.646.001.002-1.502-1.646-.001z" fill="#C9A32D"/><path d="m30.507 4.573-.005 1.5 1.646.004.002-1.498-1.643-.006zM32.144 7.578l-.005 1.5 1.646.003.005-1.5-1.646-.003z" fill="#C9A32D"/><path d="m32.148 6.075-.004 1.502 1.644.003.004-1.502-1.644-.003zM33.79 7.579l-.004 1.501 1.644.003.003-1.502-1.644-.002zM35.435 7.582l-.003 1.502 1.644.002.003-1.501-1.644-.003zM12.36 5.297 12.356 6.8 14 6.802l.003-1.502-1.643-.003z" fill="#C9A32D"/><path d="m12.362 3.798-.004 1.5 1.646.003.002-1.5-1.644-.003z" fill="#C9A32D"/><path d="M14.004 5.299 14 6.8l1.643.002.003-1.502-1.643-.002z" fill="#C9A32D"/><path d="m14.006 3.801-.002 1.5 1.644.002.004-1.5-1.646-.002z" fill="#C9A32D"/><path d="m15.647 5.302-.003 1.502 1.644.003.003-1.502-1.644-.003z" fill="#C9A32D"/><path d="m15.653 3.802-.005 1.5 1.644.004.004-1.5-1.643-.004z" fill="#C9A32D"/><path d="m15.654 2.305-.002 1.498 1.644.002.002-1.498-1.644-.002zM17.294 5.306l-.003 1.5 1.646.003.003-1.5-1.646-.003z" fill="#C9A32D"/><path d="m17.297 3.805-.003 1.501 1.646.003.003-1.501-1.646-.003z" fill="#C9A32D"/><path d="m17.3 2.308-.004 1.498 1.646.003.004-1.498-1.646-.003zM18.94 5.31l-.005 1.5 1.646.003.004-1.5-1.646-.003z" fill="#C9A32D"/><path d="m18.944 3.81-.004 1.5 1.646.002.004-1.5-1.646-.003z" fill="#C9A32D"/><path d="m18.945 2.31-.002 1.499 1.646.001.002-1.498-1.646-.001zM20.585 5.313l-.003 1.5 1.646.002.003-1.5-1.646-.002zM20.589 3.812l-.004 1.5 1.646.002.002-1.5-1.644-.002z" fill="#C9A32D"/><path d="m20.591 2.312-.002 1.5 1.644.002.004-1.502H20.59zM22.232 5.314l-.004 1.5 1.644.003.004-1.5-1.644-.003z" fill="#C9A32D"/><path d="m22.233 3.814-.002 1.502 1.646.001.002-1.502-1.646-.001z" fill="#C9A32D"/><path d="m22.237 2.312-.004 1.502 1.646.001.002-1.498-1.644-.005zM23.876 5.318l-.004 1.5 1.646.003.004-1.5-1.646-.003zM23.88 3.815l-.003 1.502 1.644.003.003-1.502-1.644-.003z" fill="#C9A32D"/><path d="m25.522 5.319-.003 1.501 1.644.003.003-1.502-1.644-.002zM27.166 5.322l-.003 1.502 1.643.002.004-1.501-1.644-.003zM27.172 2.32l-.003 1.502 1.644.003.003-1.502-1.643-.002z" fill="#C9A32D"/><path d="m30.93 5.052-.003 1.257 1.316.002.003-1.257-1.316-.002zM29.614 3.792 29.61 5.05l1.319.002.002-1.257-1.318-.002z" fill="#E0B848"/><path d="m29.613 5.05-.003 1.256 1.318.002.003-1.257-1.318-.002zM29.615 3.792l.002-1.257-1.318-.001-.002 1.256 1.318.002z" fill="#E0B848"/><path d="m28.297 3.789-.003 1.257 1.316.002.003-1.256-1.316-.003zM28.293 5.048l-.002 1.257 1.318.001.002-1.257-1.319-.001z" fill="#E0B848"/><path d="m28.297 3.79.002-1.256-1.316-.004-.005 1.257 1.319.003z" fill="#E0B848"/><path d="m26.98 3.787-.004 1.257 1.319.003.003-1.257-1.318-.003zM26.976 5.046l-.003 1.257 1.317.002.002-1.257-1.316-.002zM26.983 2.53l.002-1.255-1.317-.002-.004 1.257h1.319zM26.978 3.787l.004-1.257h-1.318l-.002 1.257h1.316z" fill="#E0B848"/><path d="m26.976 5.045.002-1.258h-1.316l-.002 1.256 1.316.002zM24.35 1.271l-.004 1.257 1.317.003.003-1.257-1.316-.003z" fill="#E0B848"/><path d="m25.662 3.787.002-1.257-1.318-.002-.003 1.255 1.319.004z" fill="#E0B848"/><path d="m25.66 5.043.002-1.256-1.319-.004-.002 1.257 1.319.003zM23.033 1.268l-.004 1.256 1.319.003.003-1.257-1.318-.002zM24.343 3.783l.003-1.255-1.319-.004v1.259h1.316zM21.716.01l-.002 1.257 1.318.002.003-1.257L21.716.01z" fill="#E0B848"/><path d="m21.713 1.266-.004 1.256 1.319.003.004-1.257-1.319-.002z" fill="#E0B848"/><path d="M23.027 3.783V2.524l-1.316-.001-.002 1.256 1.318.004zM20.4.006l-.004 1.257 1.316.003.004-1.257L20.4.006zM20.395 1.265l-.002 1.257 1.316.002.003-1.257-1.317-.002z" fill="#E0B848"/><path d="m21.709 3.78.002-1.257-1.317-.002-.004 1.257 1.319.001zM19.082.006l-.002 1.257 1.318.002.003-1.257-1.319-.002z" fill="#E0B848"/><path d="m19.08 1.262-.005 1.256 1.319.003.004-1.257-1.319-.002zM19.075 2.519l-.002 1.256 1.316.002.003-1.256-1.317-.002zM17.766.002l-.004 1.257 1.318.003.004-1.257-1.318-.003z" fill="#E0B848"/><path d="m17.762 1.26-.003 1.257 1.316.003.003-1.257-1.316-.002zM17.758 2.518l-.003 1.256 1.317.002.002-1.256-1.316-.002zM16.448.001l-.003 1.257 1.317.002.002-1.257-1.316-.002zM16.444 1.258l-.002 1.257 1.316.002.003-1.257-1.317-.002zM16.441 2.515l-.003 1.256 1.317.003.002-1.257-1.316-.002z" fill="#E0B848"/><path d="m15.126 1.256-.002 1.257 1.318.002.003-1.256-1.319-.003zM15.123 2.513 15.12 3.77l1.319.002.003-1.257-1.319-.002zM13.808 1.253l-.004 1.256 1.318.003.004-1.257-1.318-.002z" fill="#E0B848"/><path d="m13.805 2.512-.002 1.257 1.319.001.002-1.257-1.319-.001z" fill="#E0B848"/><path d="m13.803 3.768-.004 1.257 1.319.003.003-1.257-1.318-.003zM12.49 1.252l-.003 1.256 1.317.002.002-1.256-1.316-.002z" fill="#E0B848"/><path d="m12.489 2.508-.003 1.257 1.316.002.003-1.257-1.316-.002zM12.485 3.765l-.002 1.257 1.316.002.003-1.257-1.317-.002z" fill="#E0B848"/><path d="m11.17 2.507-.003 1.257 1.318.002.003-1.257-1.319-.002z" fill="#E0B848"/><path d="m11.168 3.764-.002 1.257 1.318.002.003-1.257-1.319-.002z" fill="#E0B848"/><path d="m12.478 6.28.005-1.257-1.319-.003-.002 1.257 1.316.003zM9.852 2.504 9.85 3.761l1.319.001.001-1.257-1.318-.001z" fill="#E0B848"/><path d="m9.85 3.762-.004 1.257 1.318.002.004-1.256-1.319-.003z" fill="#E0B848"/><path d="m11.162 6.277.002-1.257-1.318-.002-.002 1.259h1.318zM8.532 3.76l-.003 1.256 1.317.002.002-1.257-1.316-.002zM9.844 6.277l.002-1.259-1.317-.002-.002 1.255 1.317.006z" fill="#E0B848"/><path d="m8.527 6.271.003-1.255-1.317-.002-.004 1.257h1.318z" fill="#E0B848"/></svg>