<svg width="30" height="30" fill="none" xmlns="http://www.w3.org/2000/svg"><path d="M29.408 11.459l-.712.757v.64H30v-1.428h-.77l.18.03z" fill="#EDE94F"/><path d="M27.39 13.61v.675h1.306v-1.43h-.598l-.707.755z" fill="#F7BC32"/><path d="M28.696 12.855v-.639l-.598.64h.598zM27.39 11.135l1.306.207v-1.341h-1.305v1.134z" fill="#EDE94F"/><path d="M26.086 15.002v.713h1.305v-1.43h-.631l-.674.717zM27.39 14.285v-.675l-.631.675h.631z" fill="#F7BC32"/><path d="M26.086 10.927l1.305.208V10h-1.305v.926zM26.086 28.57h-1.303v1.427h1.303V28.57z" fill="#EDE94F"/><path d="M26.086 27.143h-1.303v1.43h1.303v-1.43z" fill="#EDE94F"/><path d="M26.086 15.715V15l-.664.714h.664z" fill="#F7BC32"/><path d="M24.783 10.72l1.303.207v-.926h-1.303v.719z" fill="#EDE94F"/><path d="M23.68 28.57l.225 1.43h.879v-1.43H23.68zM23.48 30h.411l-.411-.238V30z" fill="#F7BC32"/><path d="M23.48 27.143v.144l.199 1.283h1.104v-1.427H23.48zM24.783 25.713H23.48v1.427h1.303v-1.427zM24.783 24.286H23.48v1.427h1.303v-1.427z" fill="#EDE94F"/><path d="M24.784 17.142v-.747l-.702.747h.702z" fill="#F7BC32"/><path d="M23.48 10.512l1.303.208V10H23.48v.512z" fill="#EDE94F"/><path d="M23.455 27.143l.024.144v-.144h-.024z" fill="#F7BC32"/><path d="M23.231 25.713l.222 1.43h.026v-1.43h-.248zM23.01 24.286l.222 1.427h.248v-1.427h-.47zM23.011 24.286h.47v-1.43h-.695l.225 1.43zM22.785 22.856h.695v-1.427h-.92l.225 1.427z" fill="#EDE94F"/><path d="M23.479 18.572v-.786l-.738.786h.738z" fill="#F7BC32"/><path d="M22.174 10.305l1.306.207v-.511h-1.306v.304z" fill="#EDE94F"/><path d="M20.869 28.57h.54l-.54-.31v.31z" fill="#F7BC32"/><path d="M20.869 10.097l1.305.208V10H20.87v.096zM20.257 10l.611.097v-.096h-.611z" fill="#EDE94F"/><path d="M18.258 27.143h.667l-.667-.384v.384z" fill="#F7BC32"/><path d="M19.567 9.89V8.571h-.699l.586 1.303.113.016zM18.864 8.571h.7V7.144h-1.306v.083l.607 1.344z" fill="#EDE94F"/><path d="M18.222 7.144l.038.083v-.083h-.038zM18.26 7.144v-1.43h-.681l.643 1.43h.038zM17.579 5.714h.682v-1.43h-1.303v.053l.62 1.377z" fill="#EDE94F"/><path d="M15.652 25.713h.796l-.796-.456v.456z" fill="#F7BC32"/><path d="M16.935 4.284l.022.053v-.053h-.022z" fill="#EDE94F"/><path d="M16.956 4.284V2.857h-.667l.644 1.427h.023zM16.291 2.857h.667v-1.43h-1.306v.011l.64 1.419z" fill="#EDE94F"/><path d="M15.65 1.427l.002.01v-.01h-.002zM14.35 1.427v.01l.004-.01h-.005zM14.354 1.427L14.996 0h-.647v1.427h.005zM15.65 1.427V0h-.648l.646 1.427h.003zM13.55 25.713h.798v-.456l-.798.456zM13.044 4.284v.053l.022-.053h-.022zM13.067 4.284l.641-1.427h-.664v1.427h.023z" fill="#F7BC32"/><path d="M13.708 2.857l.641-1.419v-.011h-1.305v1.43h.664zM11.74 7.144v.083l.039-.083h-.038zM11.779 7.144l.644-1.43h-.682v1.43h.038zM12.423 5.714l.62-1.377v-.053h-1.302v1.43h.682zM11.072 27.143h.667v-.384l-.667.384zM10.544 9.874l.589-1.303h-.7v1.32l.111-.017zM11.133 8.571l.606-1.344v-.083h-1.306v1.427h.7z" fill="#F7BC32"/><path d="M9.128 10v.097l.614-.096h-.614z" fill="#EDE94F"/><path d="M8.59 28.57h.538v-.31l-.537.31z" fill="#F7BC32"/><path d="M9.128 10H7.825v.305l1.303-.208v-.096z" fill="#EDE94F"/><path d="M6.522 27.143v.144l.02-.144h-.02zM6.522 25.713v1.43h.02l.225-1.43h-.245zM6.522 24.286v1.427h.245l.225-1.427h-.47zM6.522 22.856v1.43h.47l.222-1.43h-.692zM7.439 21.429h-.917v1.427h.692l.225-1.427zM6.522 17.786v.786h.732l-.732-.786z" fill="#F7BC32"/><path d="M7.825 10H6.522v.512l1.303-.207V10z" fill="#EDE94F"/><path d="M5.217 28.57V30h.88l.223-1.43H5.217zM6.11 30h.413v-.238L6.11 30zM6.522 27.143H5.217v1.427H6.32l.202-1.283v-.144zM6.52 25.713H5.217v1.427H6.52v-1.427zM6.52 24.286H5.217v1.427H6.52v-1.427zM5.217 16.395v.747h.7l-.7-.747z" fill="#F7BC32"/><path d="M6.522 10H5.217v.72l1.305-.208v-.511z" fill="#EDE94F"/><path d="M5.217 28.57H3.91v1.427h1.306V28.57z" fill="#F7BC32"/><path d="M5.217 27.143H3.91v1.43h1.306v-1.43zM3.911 15.001v.714h.667L3.911 15z" fill="#F7BC32"/><path d="M5.217 10H3.91v.927l1.306-.207V10z" fill="#EDE94F"/><path d="M3.911 15.002l-.669-.717h-.634v1.43h1.303v-.713zM2.608 13.61v.675h.634l-.634-.675z" fill="#F7BC32"/><path d="M3.911 10H2.608v1.135l1.303-.208v-.926z" fill="#EDE94F"/><path d="M2.609 13.61l-.705-.755h-.601v1.43h1.306v-.675z" fill="#F7BC32"/><path d="M1.303 12.216v.64h.601l-.601-.64zM2.609 10H1.303v1.342l1.306-.207V10zM1.303 12.216l-.712-.757.18-.03H0v1.426h1.303v-.639z" fill="#F7BC32"/><path d="M28.696 12.216l.712-.757-.179-.03h-.533v.787z" fill="#EDE94F"/><path d="M28.098 12.855h-.707v.755l.707-.755z" fill="#F7BC32"/><path d="M27.39 11.428v1.427h.708l.598-.639v-.788h-1.305zM27.39 11.428h1.306v-.086l-1.305-.207v.293z" fill="#EDE94F"/><path d="M26.76 14.285h-.674v.717l.674-.717zM26.086 14.285h.674l.631-.675v-.755h-1.305v1.43z" fill="#F7BC32"/><path d="M27.389 11.428h-1.303v1.427h1.303v-1.427zM26.086 11.428h1.305v-.293l-1.305-.207v.5z" fill="#EDE94F"/><path d="M24.783 15.715h.639l.664-.713v-.717h-1.303v1.43zM26.086 12.855h-1.303v1.43h1.303v-1.43z" fill="#F7BC32"/><path d="M26.086 11.428h-1.303v1.427h1.303v-1.427zM24.783 11.428h1.303v-.5l-1.303-.208v.708z" fill="#EDE94F"/><path d="M23.48 28.57v1.192l.411.238h.013l-.225-1.43h-.2z" fill="#F7BC32"/><path d="M23.48 28.57h.2l-.2-1.283v1.283z" fill="#EDE94F"/><path d="M23.48 17.142h.6l.703-.746v-.68H23.48v1.426zM24.783 14.285H23.48v1.427h1.303v-1.427z" fill="#F7BC32"/><path d="M24.783 12.855H23.48v1.43h1.303v-1.43zM24.783 11.428H23.48v1.427h1.303v-1.427zM23.48 11.428h1.303v-.708l-1.303-.207v.915z" fill="#EDE94F"/><path d="M23.455 27.143h-1.28v1.427h1.305v-1.283l-.025-.144z" fill="#F7BC32"/><path d="M22.174 25.713v1.43h1.28l-.222-1.43h-1.058zM22.174 24.286v1.427h1.058l-.222-1.427h-.836zM22.174 22.856v1.43h.836l-.225-1.43h-.61zM22.174 22.856h.611l-.224-1.427h-.387v1.427z" fill="#EDE94F"/><path d="M22.174 18.572h.568l.738-.786v-.644h-1.306v1.43z" fill="#F7BC32"/><path d="M23.477 15.715h-1.303v1.43h1.303v-1.43zM23.477 14.285h-1.303v1.427h1.303v-1.427zM23.477 12.855h-1.303v1.43h1.303v-1.43zM23.477 11.428h-1.303v1.427h1.303v-1.427zM22.174 11.428h1.306v-.915l-1.306-.208v1.123z" fill="#EDE94F"/><path d="M22.174 27.143H20.87v1.117l.54.31h.765v-1.427z" fill="#F7BC32"/><path d="M22.174 25.713H20.87v1.427h1.305v-1.427zM22.174 24.286H20.87v1.427h1.305v-1.427zM22.174 22.856H20.87v1.43h1.305v-1.43zM22.174 21.429H20.87v1.427h1.305v-1.427zM22.174 19.999H20.87v1.43h1.305v-1.43z" fill="#EDE94F"/><path d="M22.174 18.572H20.87V20h1.305v-1.428zM22.174 17.142H20.87v1.427h1.305v-1.427z" fill="#F7BC32"/><path d="M22.174 15.715H20.87v1.43h1.305v-1.43zM22.174 14.285H20.87v1.427h1.305v-1.427zM22.174 12.855H20.87v1.43h1.305v-1.43z" fill="#EDE94F"/><path d="M22.178 10h-4.12v2.858h4.12V10z" fill="#EDE94F"/><path d="M20.869 11.428h1.305v-1.123l-1.305-.207v1.33z" fill="#EDE94F"/><path d="M20.869 25.713h-1.303v1.427h1.303v-1.427z" fill="#F7BC32"/><path d="M20.869 24.286h-1.303v1.427h1.303v-1.427zM20.869 22.856h-1.303v1.43h1.303v-1.43zM20.869 21.429h-1.303v1.427h1.303v-1.427zM20.869 19.999h-1.303v1.43h1.303v-1.43z" fill="#EDE94F"/><path d="M20.869 18.572h-1.303V20h1.303v-1.428zM20.869 17.142h-1.303v1.427h1.303v-1.427z" fill="#EDE94F"/><path d="M20.869 15.715h-1.303v1.43h1.303v-1.43zM20.869 14.285h-1.303v1.427h1.303v-1.427zM20.869 12.855h-1.303v1.43h1.303v-1.43zM19.566 10v1.428h1.303v-1.33L20.258 10h-.692z" fill="#EDE94F"/><path d="M19.564 25.713h-1.306v1.045l.667.385h.639v-1.43z" fill="#F7BC32"/><path d="M19.561 24.286h-1.303v1.427h1.303v-1.427zM19.561 22.856h-1.303v1.43h1.303v-1.43zM19.561 21.429h-1.303v1.427h1.303v-1.427zM19.561 19.999h-1.303v1.43h1.303v-1.43z" fill="#EDE94F"/><path d="M19.561 18.572h-1.303V20h1.303v-1.428zM19.561 17.142h-1.303v1.427h1.303v-1.427z" fill="#EDE94F"/><path d="M19.561 15.715h-1.303v1.43h1.303v-1.43zM19.561 14.285h-1.303v1.427h1.303v-1.427zM19.561 12.855h-1.303v1.43h1.303v-1.43zM19.564 10.001v-.11l-.114-.017-.585-1.303h-.607v1.43h1.306zM18.258 7.227v1.344h.607l-.607-1.344z" fill="#EDE94F"/><path d="M18.26 24.286h-1.302v1.427h1.303v-1.427z" fill="#F7BC32"/><path d="M18.26 22.856h-1.302v1.43h1.303v-1.43zM18.26 21.429h-1.302v1.427h1.303v-1.427zM18.26 19.999h-1.302v1.43h1.303v-1.43z" fill="#EDE94F"/><path d="M18.26 18.572h-1.302V20h1.303v-1.428zM18.26 17.142h-1.302v1.427h1.303v-1.427z" fill="#EDE94F"/><path d="M18.26 15.715h-1.302v1.43h1.303v-1.43zM18.26 14.285h-1.302v1.427h1.303v-1.427zM18.26 12.855h-1.302v1.43h1.303v-1.43zM18.26 11.428h-1.302v1.427h1.303v-1.427zM18.26 8.571h-1.302v1.43h1.303v-1.43z" fill="#EDE94F"/><path d="M18.26 12.855V7.48l-.075-.335h-2.533v5.711h2.609zM18.223 7.144l-.644-1.43h-.621v1.43h1.265zM16.958 4.337v1.377h.62l-.62-1.377z" fill="#EDE94F"/><path d="M16.958 24.286h-1.306v.97l.796.457h.51v-1.427z" fill="#F7BC32"/><path d="M16.958 22.856h-1.306v1.43h1.306v-1.43zM16.958 21.429h-1.306v1.427h1.306v-1.427zM16.958 19.999h-1.306v1.43h1.306v-1.43z" fill="#EDE94F"/><path d="M16.958 18.572h-1.306V20h1.306v-1.428zM16.958 17.142h-1.306v1.427h1.306v-1.427z" fill="#EDE94F"/><path d="M16.958 15.715h-1.306v1.43h1.306v-1.43zM16.958 14.285h-1.306v1.427h1.306v-1.427zM16.958 12.855h-1.306v1.43h1.306v-1.43zM16.958 11.428h-1.306v1.427h1.306v-1.427zM16.958 5.714h-1.306v1.43h1.306v-1.43zM16.958 5.714V4.337l-.023-.053h-1.283v1.43h1.306zM16.935 4.284l-.644-1.427h-.639v1.427h1.283z" fill="#EDE94F"/><path d="M15.652 1.439v1.418h.64l-.64-1.418zM15.652 22.856H14.35v1.43h1.303v-1.43zM15.652 21.429H14.35v1.427h1.303v-1.427zM15.652 19.999H14.35v1.43h1.303v-1.43z" fill="#EDE94F"/><path d="M15.652 18.572H14.35V20h1.303v-1.428zM15.652 17.142H14.35v1.427h1.303v-1.427z" fill="#EDE94F"/><path d="M15.652 15.715H14.35v1.43h1.303v-1.43zM15.652 14.285H14.35v1.427h1.303v-1.427zM15.652 12.855H14.35v1.43h1.303v-1.43zM15.652 11.428H14.35v1.427h1.303v-1.427zM15.652 10H14.35v1.428h1.303V10z" fill="#EDE94F"/><path d="M15.652 8.571H14.35v1.43h1.303v-1.43zM15.652 7.144H14.35v1.427h1.303V7.144zM15.652 5.714H14.35v1.43h1.303v-1.43zM15.652 4.284H14.35v1.427h1.303V4.284z" fill="#EDE94F"/><path d="M15.652 2.857H14.35v1.427h1.303V2.857z" fill="#EDE94F"/><path d="M14.35 2.857h1.302V1.438l-.002-.011h-1.296l-.005.011v1.419zM15.65 1.427L15.002 0h-.008l-.641 1.427h1.295zM14.35 24.286h-1.306v1.427h.507l.798-.456v-.971z" fill="#F7BC32"/><path d="M14.347 22.856h-1.303v1.43h1.303v-1.43zM14.347 21.429h-1.303v1.427h1.303v-1.427zM14.347 19.999h-1.303v1.43h1.303v-1.43z" fill="#EDE94F"/><path d="M14.347 18.572h-1.303V20h1.303v-1.428zM14.347 17.142h-1.303v1.427h1.303v-1.427z" fill="#EDE94F"/><path d="M14.347 15.715h-1.303v1.43h1.303v-1.43zM14.347 14.285h-1.303v1.43h1.303v-1.43zM14.347 12.855h-1.303v1.43h1.303v-1.43zM14.347 11.428h-1.303v1.427h1.303v-1.427zM14.347 10h-1.303v1.428h1.303V10z" fill="#EDE94F"/><path d="M14.347 8.571h-1.303v1.43h1.303v-1.43zM14.347 7.144h-1.303v1.427h1.303V7.144zM14.347 5.714h-1.303v1.43h1.303v-1.43z" fill="#EDE94F"/><path d="M13.044 5.714h1.305v-1.43h-1.282l-.023.053v1.377zM14.347 4.284V2.857h-.641l-.642 1.427h1.283zM14.35 1.439l-.642 1.418h.641V1.44zM13.044 24.286H11.74v1.427h1.303v-1.427z" fill="#F7BC32"/><path d="M13.044 22.856H11.74v1.43h1.303v-1.43zM13.044 21.429H11.74v1.427h1.303v-1.427zM13.044 19.999H11.74v1.43h1.303v-1.43z" fill="#EDE94F"/><path d="M13.044 18.572H11.74V20h1.303v-1.428zM13.044 17.142H11.74v1.427h1.303v-1.427z" fill="#EDE94F"/><path d="M13.044 15.715H11.74v1.43h1.303v-1.43zM13.044 14.285H11.74v1.43h1.303v-1.43zM13.044 12.855H11.74v1.43h1.303v-1.43zM13.044 11.428H11.74v1.427h1.303v-1.427zM13.044 10H11.74v1.428h1.303V10z" fill="#EDE94F"/><path d="M13.044 8.571H11.74v1.43h1.303v-1.43z" fill="#EDE94F"/><path d="M11.74 8.571h1.304V7.144h-1.265l-.038.083v1.344zM13.044 7.144v-1.43h-.62l-.645 1.43h1.265zM13.044 4.337l-.621 1.377h.621V4.337zM11.739 25.713h-1.306v1.43h.64l.666-.385v-1.045zM11.739 24.286h-1.306v1.427h1.306v-1.427z" fill="#F7BC32"/><path d="M11.739 22.856h-1.306v1.43h1.306v-1.43zM11.739 21.429h-1.306v1.427h1.306v-1.427zM11.739 19.999h-1.306v1.43h1.306v-1.43z" fill="#EDE94F"/><path d="M11.739 18.572h-1.306V20h1.306v-1.428zM11.739 17.142h-1.306v1.427h1.306v-1.427z" fill="#EDE94F"/><path d="M11.739 15.715h-1.306v1.43h1.306v-1.43zM11.739 14.285h-1.306v1.43h1.306v-1.43zM11.739 12.855h-1.306v1.43h1.306v-1.43zM11.739 11.428h-1.306v1.427h1.306v-1.427zM11.739 10h-1.306v1.428h1.306V10z" fill="#EDE94F"/><path d="M10.433 9.89v.111h1.306v-1.43h-.606l-.588 1.303-.112.016zM11.74 7.227l-.607 1.344h.607V7.227zM10.431 25.713H9.128v1.427h1.303v-1.427z" fill="#F7BC32"/><path d="M10.431 24.286H9.128v1.427h1.303v-1.427zM10.431 22.856H9.128v1.43h1.303v-1.43zM10.431 21.429H9.128v1.427h1.303v-1.427zM10.431 19.999H9.128v1.43h1.303v-1.43z" fill="#EDE94F"/><path d="M10.431 18.572H9.128V20h1.303v-1.428zM10.431 17.142H9.128v1.427h1.303v-1.427z" fill="#EDE94F"/><path d="M10.431 15.715H9.128v1.43h1.303v-1.43zM10.431 14.285H9.128v1.43h1.303v-1.43zM10.431 12.855H9.128v1.43h1.303v-1.43zM10.431 11.428H9.128v1.427h1.303v-1.427zM10.434 10h-.692l-.614.097v1.33h1.306v-1.426z" fill="#EDE94F"/><path d="M9.128 27.143H7.825v1.427h.765l.538-.31v-1.117zM9.128 25.713H7.825v1.427h1.303v-1.427z" fill="#F7BC32"/><path d="M9.128 24.286H7.825v1.427h1.303v-1.427zM9.128 22.856H7.825v1.43h1.303v-1.43z" fill="#EDE94F"/><path d="M9.128 21.429H7.825v1.427h1.303v-1.427zM9.128 19.999H7.825v1.43h1.303v-1.43z" fill="#F7BC32"/><path d="M9.128 18.572H7.825V20h1.303v-1.428zM9.128 17.142H7.825v1.427h1.303v-1.427z" fill="#F7BC32"/><path d="M9.128 15.715H7.825v1.43h1.303v-1.43zM9.128 14.285H7.825v1.43h1.303v-1.43zM9.128 12.855H7.825v1.43h1.303v-1.43zM9.128 11.428H7.825v1.427h1.303v-1.427zM9.128 10.098l-1.303.207v1.123h1.303v-1.33z" fill="#EDE94F"/><path d="M7.825 27.143H6.542l-.02.144v1.283h1.303v-1.427zM6.767 25.713l-.225 1.43h1.283v-1.43H6.767zM6.993 24.286l-.225 1.427h1.058v-1.427h-.833zM7.214 22.856l-.222 1.43h.833v-1.43h-.611zM7.438 21.429l-.225 1.427h.611v-1.427h-.386zM7.825 18.572v-1.43H6.522v.644l.732.786h.571z" fill="#F7BC32"/><path d="M7.825 15.715H6.522v1.43h1.303v-1.43zM7.825 14.285H6.522v1.43h1.303v-1.43zM7.825 12.855H6.522v1.43h1.303v-1.43zM7.825 11.428H6.522v1.427h1.303v-1.427zM7.825 10.305l-1.303.208v.915h1.303v-1.123z" fill="#EDE94F"/><path d="M6.522 28.57H6.32L6.097 30h.013l.412-.238V28.57zM6.32 28.57h.203v-1.283L6.32 28.57zM6.522 17.142v-1.427H5.217v.68l.7.747h.605z" fill="#F7BC32"/><path d="M6.52 14.285H5.217v1.43H6.52v-1.43zM6.52 12.855H5.217v1.43H6.52v-1.43zM6.52 11.428H5.217v1.427H6.52v-1.427zM6.522 10.513l-1.305.207v.708h1.305v-.915z" fill="#EDE94F"/><path d="M5.217 15.715v-1.43H3.91v.717l.667.713h.639z" fill="#F7BC32"/><path d="M5.217 12.855H3.91v1.43h1.306v-1.43zM5.217 11.428H3.91v1.427h1.306v-1.427zM5.217 10.72l-1.306.207v.5h1.306v-.707z" fill="#EDE94F"/><path d="M3.243 14.285l.67.717v-.717h-.67z" fill="#F7BC32"/><path d="M3.911 14.285v-1.43H2.608v.755l.634.675h.67z" fill="#F7BC32"/><path d="M3.911 11.428H2.608v1.427h1.303v-1.427zM3.911 10.928l-1.303.207v.293h1.303v-.5z" fill="#EDE94F"/><path d="M1.904 12.855l.704.755v-.755h-.704z" fill="#F7BC32"/><path d="M2.609 12.855v-1.427H1.303v.788l.601.64h.705z" fill="#F7BC32"/><path d="M2.609 11.428v-.293l-1.306.207v.086h1.306z" fill="#F7BC32"/><path d="M.771 11.428l-.18.03.713.758v-.788H.77z" fill="#F7BC32"/></svg>
