<svg viewBox="0 0 62 62" fill="none" xmlns="http://www.w3.org/2000/svg"><path d="M48.303 20.582h-.576v.755h.576v-.755zM47.727 20.582h-.578v.755h.578v-.755z" fill="#8EA2AC"/><path d="M47.15 20.582h-.577v.755h.576v-.755zM46.573 20.582h-.578v.755h.578v-.755zM45.993 20.582h-.576v.755h.576v-.755z" fill="#8EA2AC"/><path d="M45.419 20.582h-.578v.755h.578v-.755zM44.839 20.582h-.576v.755h.576v-.755zM44.263 20.582h-.578v.755h.578v-.755z" fill="#8EA2AC"/><path d="M43.685 20.582h-.576v.755h.576v-.755z" fill="#8EA2AC"/><path d="M43.11 20.582h-.577v.755h.576v-.755zM42.533 20.582h-.578v.754h.578v-.754zM48.303 21.337h-.576v.754h.576v-.754zM47.726 21.337h-.578v.754h.578v-.754z" fill="#8EA2AC"/><path d="M47.148 21.337h-.576v.754h.576v-.754z" fill="#8EA2AC"/><path d="M46.573 21.337h-.578v.754h.578v-.754zM45.993 21.337h-.576v.754h.576v-.754z" fill="#8EA2AC"/><path d="M45.419 21.337h-.578v.754h.578v-.754zM44.839 21.337h-.576v.754h.576v-.754zM44.263 21.337h-.578v.754h.578v-.754z" fill="#8EA2AC"/><path d="M43.685 21.337h-.576v.754h.576v-.754z" fill="#8EA2AC"/><path d="M43.11 21.337h-.577v.754h.576v-.754zM42.533 21.337h-.578v.754h.578v-.754zM48.303 22.091h-.576v.755h.576v-.755zM47.726 22.091h-.578v.755h.578v-.755z" fill="#8EA2AC"/><path d="M47.148 22.091h-.576v.755h.576v-.755z" fill="#8EA2AC"/><path d="M46.573 22.091h-.578v.755h.578v-.755zM45.993 22.091h-.576v.755h.576v-.755z" fill="#8EA2AC"/><path d="M45.419 22.091h-.578v.755h.578v-.755zM44.839 22.091h-.576v.755h.576v-.755zM44.263 22.091h-.578v.755h.578v-.755z" fill="#8EA2AC"/><path d="M43.685 22.091h-.576v.755h.576v-.755z" fill="#8EA2AC"/><path d="M43.11 22.091h-.577v.755h.576v-.755zM42.533 22.091h-.578v.755h.578v-.755zM46.573 22.846h-.578v.755h.578v-.755zM45.993 22.846h-.576v.755h.576v-.755z" fill="#8EA2AC"/><path d="M45.419 22.846h-.578v.755h.578v-.755zM44.839 22.846h-.576v.755h.576v-.755zM44.263 22.846h-.578v.755h.578v-.755z" fill="#8EA2AC"/><path d="M43.685 22.846h-.576v.755h.576v-.755z" fill="#8EA2AC"/><path d="M43.11 22.846h-.577v.755h.576v-.755zM42.533 22.846h-.578v.755h.578v-.755zM46.573 23.6h-.578v.755h.578v-.754zM45.993 23.6h-.576v.755h.576v-.754z" fill="#8EA2AC"/><path d="M45.419 23.6h-.578v.755h.578v-.754zM44.839 23.6h-.576v.755h.576v-.754zM44.263 23.6h-.578v.755h.578v-.754z" fill="#8EA2AC"/><path d="M43.685 23.6h-.576v.755h.576v-.754z" fill="#8EA2AC"/><path d="M43.11 23.6h-.577v.755h.576v-.754zM42.533 23.6h-.578v.755h.578v-.754zM46.573 24.355h-.578v.755h.578v-.755zM45.993 24.355h-.576v.755h.576v-.755z" fill="#8EA2AC"/><path d="M45.419 24.355h-.578v.755h.578v-.755zM44.839 24.355h-.576v.755h.576v-.755zM44.263 24.355h-.578v.755h.578v-.755z" fill="#8EA2AC"/><path d="M43.685 24.355h-.576v.755h.576v-.755z" fill="#8EA2AC"/><path d="M43.11 24.355h-.577v.755h.576v-.755zM42.533 24.355h-.578v.755h.578v-.755zM44.263 25.11h-.578v.755h.578v-.755z" fill="#8EA2AC"/><path d="M43.685 25.11h-.576v.755h.576v-.755z" fill="#8EA2AC"/><path d="M43.11 25.11h-.577v.755h.576v-.755zM42.533 25.11h-.578v.755h.578v-.755zM44.263 25.865h-.578v.755h.578v-.755z" fill="#8EA2AC"/><path d="M43.685 25.865h-.576v.755h.576v-.755z" fill="#8EA2AC"/><path d="M43.11 25.865h-.577v.755h.576v-.755zM42.533 25.865h-.578v.755h.578v-.755zM44.263 26.62h-.578v.754h.578v-.754z" fill="#8EA2AC"/><path d="M43.685 26.62h-.576v.754h.576v-.754z" fill="#8EA2AC"/><path d="M43.11 26.62h-.577v.754h.576v-.754zM42.533 26.62h-.578v.754h.578v-.754zM44.263 27.375h-.578v.754h.578v-.755z" fill="#8EA2AC"/><path d="M43.685 27.375h-.576v.754h.576v-.755z" fill="#8EA2AC"/><path d="M43.11 27.375h-.577v.754h.576v-.755zM42.533 27.375h-.578v.754h.578v-.755zM44.263 28.13h-.578v.754h.578v-.755z" fill="#8EA2AC"/><path d="M43.685 28.13h-.576v.754h.576v-.755z" fill="#8EA2AC"/><path d="M43.11 28.13h-.577v.754h.576v-.755zM42.533 28.13h-.578v.754h.578v-.755zM44.263 28.884h-.578v.755h.578v-.755z" fill="#8EA2AC"/><path d="M43.685 28.884h-.576v.755h.576v-.755z" fill="#8EA2AC"/><path d="M43.11 28.884h-.577v.755h.576v-.755zM42.533 28.884h-.578v.755h.578v-.755zM38.451 20.96h-.576v.755h.576v-.755zM39.029 20.96h-.578v.755h.578v-.755z" fill="#8EA2AC"/><path d="M39.605 20.96h-.576v.755h.576v-.755z" fill="#8EA2AC"/><path d="M40.182 20.96h-.578v.755h.578v-.755zM40.759 20.96h-.576v.755h.576v-.755zM41.337 20.96h-.578v.755h.578v-.755z" fill="#8EA2AC"/><path d="M41.913 20.96h-.576v.755h.576v-.755zM42.491 20.96h-.578v.755h.578v-.755zM43.067 20.96h-.576v.755h.576v-.755zM43.644 20.96h-.577v.755h.577v-.755zM44.221 20.96h-.577v.755h.577v-.755zM38.451 21.715h-.576v.755h.576v-.755zM39.029 21.715h-.578v.755h.578v-.755z" fill="#8EA2AC"/><path d="M39.605 21.715h-.576v.755h.576v-.755zM40.183 21.715h-.578v.755h.578v-.755zM40.759 21.715h-.576v.755h.576v-.755zM41.337 21.715h-.578v.755h.578v-.755z" fill="#8EA2AC"/><path d="M41.913 21.715h-.576v.755h.576v-.755zM42.491 21.715h-.578v.755h.578v-.755zM43.067 21.715h-.576v.755h.576v-.755zM43.644 21.715h-.577v.755h.577v-.755z" fill="#8EA2AC"/><path d="M44.22 21.715h-.577v.755h.577v-.755zM38.451 22.47h-.576v.754h.576v-.754zM39.029 22.47h-.578v.754h.578v-.754z" fill="#8EA2AC"/><path d="M39.605 22.47h-.576v.754h.576v-.754zM40.183 22.47h-.578v.754h.578v-.754zM40.759 22.47h-.576v.754h.576v-.754zM41.337 22.47h-.578v.754h.578v-.754z" fill="#8EA2AC"/><path d="M41.913 22.47h-.576v.754h.576v-.754zM42.491 22.47h-.578v.754h.578v-.754zM43.067 22.47h-.576v.754h.576v-.754zM43.644 22.47h-.577v.754h.577v-.754z" fill="#8EA2AC"/><path d="M44.22 22.47h-.577v.754h.577v-.754zM40.183 23.224h-.578v.755h.578v-.755zM40.759 23.224h-.576v.755h.576v-.755zM41.337 23.224h-.578v.755h.578v-.755z" fill="#8EA2AC"/><path d="M41.913 23.224h-.576v.755h.576v-.755zM42.491 23.224h-.578v.755h.578v-.755zM43.067 23.224h-.576v.755h.576v-.755zM43.644 23.224h-.577v.755h.577v-.755z" fill="#8EA2AC"/><path d="M44.22 23.224h-.577v.755h.577v-.755zM40.183 23.979h-.578v.755h.578v-.755zM40.759 23.979h-.576v.755h.576v-.755zM41.337 23.979h-.578v.755h.578v-.755z" fill="#8EA2AC"/><path d="M41.913 23.979h-.576v.755h.576v-.755zM42.491 23.979h-.578v.755h.578v-.755zM43.067 23.979h-.576v.755h.576v-.755zM43.644 23.979h-.577v.755h.577v-.755z" fill="#8EA2AC"/><path d="M44.22 23.979h-.577v.755h.577v-.755zM40.183 24.732h-.578v.755h.578v-.755zM40.759 24.732h-.576v.755h.576v-.755zM41.337 24.732h-.578v.755h.578v-.755z" fill="#8EA2AC"/><path d="M41.913 24.732h-.576v.755h.576v-.755zM42.491 24.732h-.578v.755h.578v-.755zM43.067 24.732h-.576v.755h.576v-.755zM43.644 24.732h-.577v.755h.577v-.755z" fill="#8EA2AC"/><path d="M44.22 24.732h-.577v.755h.577v-.755zM42.491 25.487h-.578v.755h.578v-.755zM43.067 25.487h-.576v.755h.576v-.755zM43.644 25.487h-.577v.755h.577v-.755z" fill="#8EA2AC"/><path d="M44.22 25.487h-.577v.755h.577v-.755zM42.491 26.241h-.578v.755h.578v-.755zM43.067 26.241h-.576v.755h.576v-.755z" fill="#8EA2AC"/><path d="M43.644 26.241h-.577v.755h.577v-.755z" fill="#8EA2AC"/><path d="M44.22 26.241h-.577v.755h.577v-.755zM42.491 26.998h-.578v.755h.578v-.755zM43.067 26.998h-.576v.755h.576v-.755zM43.644 26.998h-.577v.755h.577v-.755z" fill="#8EA2AC"/><path d="M44.22 26.998h-.577v.755h.577v-.755zM42.491 27.75h-.578v.756h.578v-.755zM43.067 27.75h-.576v.756h.576v-.755z" fill="#8EA2AC"/><path d="M43.644 27.75h-.577v.756h.577v-.755z" fill="#8EA2AC"/><path d="M44.22 27.75h-.577v.756h.577v-.755zM42.491 28.508h-.578v.754h.578v-.755zM43.067 28.508h-.576v.754h.576v-.755zM43.644 28.508h-.577v.754h.577v-.755z" fill="#8EA2AC"/><path d="M44.22 28.508h-.577v.754h.577v-.755zM42.491 29.26h-.578v.755h.578v-.755zM43.067 29.26h-.576v.755h.576v-.755z" fill="#8EA2AC"/><path d="M43.644 29.26h-.577v.755h.577v-.755z" fill="#8EA2AC"/><path d="M44.22 29.26h-.577v.755h.577v-.755z" fill="#8EA2AC"/><path d="m40.143 21.624-.002 1.22 8.16.016.002-1.22-8.16-.016z" fill="#566F7A"/><path d="M1.92 38.64c.91-.942 1.815-1.887 2.89-2.649 1.608-1.14 3.346-1.987 5.258-2.435.43-.1.61-.29.68-.737.642-4.056 1.302-8.11 1.977-12.16.056-.333-.003-.546-.238-.754-.198-.176-.83.377-.566-.56.29-1.03-1.058-1.445-.954-2.446.035-.336.13-.405.432-.402 1.375.015 2.752.006 4.127.006 6.123 0 12.248.005 18.372-.01.463-.003.555.113.602.587.092.952-.174 1.676-.933 2.225-.72.522-.938 1.17-.813 2.111.345 2.586.56 5.19.82 7.788.02.204.066.307.292.317 1.41.066 2.82.144 4.23.219l3.638.355c1.817.306 3.643.542 5.448.922 3.825.806 7.541 1.944 11.047 3.742.703.36.519.387.658 1.198.045.268-.228 6.514-.317 6.942-.146.694-.129.88-.252 1.58-.427-.513-.88-.596-1.431-.997-.144-.148-.285-.299-.437-.44-1.124-1.041-2.466-1.686-3.874-2.208.001-.595-.004-1.19.01-1.785.007-.272-.042-.431-.364-.42-1.331.049-2.672-.104-3.996.127-4.324.753-7.43 3.138-9.223 7.238-.773 1.767-.971 3.648-.91 5.564-.47 0-10.707.087-11.286.087 0 0-.387-7.67-.434-7.789-2.708-7.029-10.139-10.575-17.129-8.15-1.5.521-2.908 1.244-4.085 2.364-.599.44-1.107.98-1.594 1.538-.197.226-.327.226-.55.034-.357-.305-.669-.671-1.095-.886v-.115z" fill="#7CB144"/><path d="m11.41 18.915-.002 1.47 1.354.003.003-1.47-1.354-.003zM12.09 20.387l-.002 1.47 1.354.003.003-1.47-1.354-.003zM11.473 21.859l-.002 1.47 1.354.003.003-1.47-1.355-.003zM11.861 23.332l-.003 1.47 1.355.003.002-1.47-1.354-.003zM11.182 24.804l-.002 1.47 1.354.003.003-1.47-1.355-.003zM10.567 26.276l-.002 1.47 1.354.003.002-1.47-1.354-.003zM10.567 27.748l-.002 1.47 1.354.003.002-1.47-1.354-.003zM9.966 29.22l-.003 1.471 1.354.003.003-1.47-1.354-.003zM9.966 30.693l-.003 1.47 1.354.003.003-1.47-1.354-.003zM9.966 32.165l-.003 1.47 1.354.003.003-1.47-1.354-.003zM8.61 32.901l-.004 1.47 1.355.003.002-1.47L8.61 32.9zM7.25 33.637l-.002 1.47 1.354.003.003-1.47-1.354-.003zM5.892 34.373l-.002 1.47 1.354.003.003-1.47-1.355-.003zM4.536 35.11l-.003 1.47 1.354.003.003-1.47-1.354-.004zM3.177 35.846l-.003 1.47 1.354.003.003-1.47-1.354-.003zM1.867 37.316l-.003 1.47 1.354.003.003-1.47-1.354-.003zM1.867 38.788l-.003 1.47 1.354.003.003-1.47-1.354-.002zM3.224 38.788l-.002 1.47 1.354.003.003-1.47-1.355-.002zM10.794 17.442l-.003 1.47 1.354.004.003-1.47-1.354-.004zM33.602 17.84l-.002 1.47 1.354.003.002-1.47-1.354-.003zM32.246 18.576l-.003 1.47 1.354.003.003-1.47-1.354-.003zM32.009 20.049l-.003 1.47 1.354.003.003-1.47-1.354-.003zM32.687 21.521l-.002 1.47 1.354.003.002-1.47-1.354-.003zM32.687 22.993l-.002 1.47 1.354.003.002-1.47-1.354-.003zM34.045 28.815l-.003 1.47 1.354.003.003-1.47-1.354-.003zM41.733 29.55l-.002 1.47 1.354.003.002-1.47-1.354-.003zM43.09 29.55l-.002 1.47 1.354.003.003-1.47-1.354-.003zM44.448 30.286l-.003 1.47 1.355.003.002-1.47-1.354-.003zM45.806 30.286l-.002 1.47 1.354.003.003-1.47-1.355-.003zM47.163 31.024l-.003 1.47 1.354.003.003-1.47-1.354-.003zM26.709 51.015l-.003 1.47 1.354.003.003-1.47-1.354-.003z" fill="#99C43C"/><path d="m27.966 50.278-.003 1.47 1.354.003.003-1.47-1.354-.003zM29.323 51.013l-.003 1.47 8.795.02.003-1.471-8.795-.019zM48.52 31.024l-.002 1.47 1.354.003.002-1.47-1.354-.003zM49.88 31.76l-.003 1.47 1.354.003.003-1.47-1.354-.003zM51.237 31.76l-.003 1.47 1.355.003.002-1.47-1.354-.003z" fill="#99C43C"/><path d="m52.59 32.496-.002 1.47 1.354.003.003-1.47-1.354-.003zM53.948 32.496l-.003 1.47 1.355.003.002-1.47-1.354-.003zM55.306 33.232l-.002 1.47 1.354.003.003-1.47-1.355-.003zM56.664 33.232l-.003 1.47 1.354.003.003-1.47-1.354-.003zM58.021 34.704l-.002 1.47 1.354.003.002-1.47-1.354-.003zM58.022 36.176l-.01 5.665 1.354.003.01-5.665-1.354-.003z" fill="#99C43C"/><path d="m57.343 41.84-.003 1.47 1.354.002.003-1.47-1.354-.002z" fill="#99C43C"/><path d="m57.643 43.31-.002 1.47 1.354.003.003-1.47-1.355-.003zM35.402 28.814l-.003 1.47 6.33.014.002-1.47-6.329-.014zM32.687 24.465l-.01 5.084 1.355.003.01-5.085-1.355-.002zM10.116 16.15l-.004 1.646 24.393.046.001-1.647-24.39-.046z" fill="#99C43C"/><path d="M54.158 59.935h-.892v1.11h.892v-1.11zM53.266 59.935h-.893v1.11h.893v-1.11zM52.373 59.935h-.895v1.11h.895v-1.11zM51.477 59.935h-.893v1.11h.893v-1.11z" fill="#566F7A"/><path d="M50.584 59.935h-.893v1.11h.893v-1.11z" fill="#566F7A"/><path d="M49.691 59.935h-.894v1.11h.895v-1.11zM48.795 59.935h-.893v1.11h.893v-1.11zM47.902 59.935h-.893v1.11h.893v-1.11zM47.009 59.935h-.895v1.11h.895v-1.11zM55.947 58.823h-.892v1.11h.892v-1.11zM55.053 58.823h-.895v1.11h.895v-1.11z" fill="#566F7A"/><path d="M54.158 58.823h-.892v1.11h.892v-1.11zM53.266 58.823h-.893v1.11h.893v-1.11zM52.373 58.823h-.895v1.11h.895v-1.11zM51.477 58.823h-.893v1.11h.893v-1.11z" fill="#566F7A"/><path d="M50.584 58.823h-.893v1.11h.893v-1.11z" fill="#566F7A"/><path d="M49.691 58.823h-.894v1.11h.895v-1.11zM48.795 58.823h-.893v1.11h.893v-1.11zM47.902 58.823h-.893v1.11h.893v-1.11zM47.009 58.823h-.895v1.11h.895v-1.11zM46.114 58.823h-.892v1.11h.892v-1.11zM45.22 58.823h-.893v1.11h.893v-1.11zM57.735 57.713h-.894v1.11h.894v-1.11zM56.841 57.713h-.893v1.11h.893v-1.11zM55.947 57.713h-.892v1.11h.892v-1.11zM55.053 57.713h-.895v1.11h.895v-1.11z" fill="#566F7A"/><path d="M54.158 57.713h-.892v1.11h.892v-1.11zM53.266 57.713h-.893v1.11h.893v-1.11zM52.373 57.713h-.895v1.11h.895v-1.11zM51.477 57.713h-.893v1.11h.893v-1.11z" fill="#566F7A"/><path d="M50.584 57.713h-.893v1.11h.893v-1.11z" fill="#566F7A"/><path d="M49.691 57.713h-.894v1.11h.895v-1.11zM48.795 57.713h-.893v1.11h.893v-1.11zM47.902 57.713h-.893v1.11h.893v-1.11zM47.009 57.713h-.895v1.11h.895v-1.11zM46.114 57.713h-.892v1.11h.892v-1.11zM45.22 57.713h-.893v1.11h.893v-1.11zM44.327 57.713h-.894v1.11h.894v-1.11zM43.432 57.713h-.893v1.11h.893v-1.11zM58.63 56.603h-.893v1.11h.893v-1.11zM57.735 56.603h-.894v1.11h.894v-1.11zM56.841 56.603h-.893v1.11h.893v-1.11zM55.947 56.603h-.892v1.11h.892v-1.11zM55.053 56.603h-.895v1.11h.895v-1.11z" fill="#566F7A"/><path d="M54.158 56.603h-.892v1.11h.892v-1.11zM53.266 56.603h-.893v1.11h.893v-1.11zM52.373 56.603h-.895v1.11h.895v-1.11zM51.477 56.603h-.893v1.11h.893v-1.11z" fill="#566F7A"/><path d="M50.584 56.603h-.893v1.11h.893v-1.11z" fill="#566F7A"/><path d="M49.691 56.603h-.894v1.11h.895v-1.11zM48.795 56.603h-.893v1.11h.893v-1.11zM47.902 56.603h-.893v1.11h.893v-1.11zM47.009 56.603h-.895v1.11h.895v-1.11zM46.114 56.603h-.892v1.11h.892v-1.11zM45.22 56.603h-.893v1.11h.893v-1.11zM44.327 56.603h-.894v1.11h.894v-1.11zM43.432 56.603h-.893v1.11h.893v-1.11zM42.537 56.603h-.892v1.11h.892v-1.11zM59.523 55.492h-.893v1.11h.893v-1.11zM58.63 55.492h-.893v1.11h.893v-1.11zM57.735 55.492h-.894v1.11h.894v-1.11zM56.841 55.492h-.893v1.11h.893v-1.11zM55.947 55.492h-.892v1.11h.892v-1.11zM55.053 55.492h-.895v1.11h.895v-1.11z" fill="#566F7A"/><path d="M54.158 55.492h-.892v1.11h.892v-1.11zM53.266 55.492h-.893v1.11h.893v-1.11zM52.373 55.492h-.895v1.11h.895v-1.11zM51.477 55.492h-.893v1.11h.893v-1.11z" fill="#566F7A"/><path d="M50.584 55.492h-.893v1.11h.893v-1.11z" fill="#566F7A"/><path d="M49.691 55.492h-.894v1.11h.895v-1.11zM48.795 55.492h-.893v1.11h.893v-1.11zM47.902 55.492h-.893v1.11h.893v-1.11zM47.009 55.492h-.895v1.11h.895v-1.11zM46.114 55.492h-.892v1.11h.892v-1.11zM45.22 55.492h-.893v1.11h.893v-1.11zM44.327 55.492h-.894v1.11h.894v-1.11zM43.432 55.492h-.893v1.11h.893v-1.11zM42.537 55.492h-.892v1.11h.892v-1.11z" fill="#566F7A"/><path d="M41.645 55.492h-.895v1.11h.895v-1.11zM60.417 54.382h-.895v1.11h.895v-1.11z" fill="#566F7A"/><path d="M59.523 54.382h-.893v1.11h.893v-1.11zM58.63 54.382h-.893v1.11h.893v-1.11zM57.735 54.382h-.894v1.11h.894v-1.11zM56.841 54.382h-.893v1.11h.893v-1.11zM55.947 54.382h-.892v1.11h.892v-1.11zM55.053 54.382h-.895v1.11h.895v-1.11z" fill="#566F7A"/><path d="M54.158 54.382h-.892v1.11h.892v-1.11zM53.266 54.382h-.893v1.11h.893v-1.11zM47.902 54.382h-.893v1.11h.893v-1.11zM47.009 54.382h-.895v1.11h.895v-1.11zM46.114 54.382h-.892v1.11h.892v-1.11zM45.22 54.382h-.893v1.11h.893v-1.11zM44.327 54.382h-.894v1.11h.894v-1.11zM43.432 54.382h-.893v1.11h.893v-1.11zM42.537 54.382h-.892v1.11h.892v-1.11z" fill="#566F7A"/><path d="M41.645 54.382h-.895v1.11h.895v-1.11zM40.75 54.382h-.893v1.11h.893v-1.11zM60.417 53.272h-.895v1.11h.895v-1.11z" fill="#566F7A"/><path d="M59.523 53.272h-.893v1.11h.893v-1.11zM58.63 53.272h-.893v1.11h.893v-1.11zM57.735 53.272h-.894v1.11h.894v-1.11zM56.841 53.272h-.893v1.11h.893v-1.11zM55.947 53.272h-.892v1.11h.892v-1.11zM55.053 53.272h-.895v1.11h.895v-1.11zM46.114 53.272h-.892v1.11h.892v-1.11zM45.22 53.272h-.893v1.11h.893v-1.11zM44.327 53.272h-.894v1.11h.894v-1.11zM43.432 53.272h-.893v1.11h.893v-1.11zM42.537 53.272h-.892v1.11h.892v-1.11z" fill="#566F7A"/><path d="M41.645 53.272h-.895v1.11h.895v-1.11zM40.75 53.272h-.893v1.11h.893v-1.11zM61.31 52.162h-.892v1.11h.893v-1.11zM60.417 52.162h-.895v1.11h.895v-1.11z" fill="#566F7A"/><path d="M59.523 52.162h-.893v1.11h.893v-1.11zM58.63 52.162h-.893v1.11h.893v-1.11zM57.735 52.162h-.894v1.11h.894v-1.11zM56.841 52.162h-.893v1.11h.893v-1.11zM55.947 52.162h-.892v1.11h.892v-1.11zM45.22 52.162h-.893v1.11h.893v-1.11zM44.327 52.162h-.894v1.11h.894v-1.11zM43.432 52.162h-.893v1.11h.893v-1.11zM42.537 52.162h-.892v1.11h.892v-1.11z" fill="#566F7A"/><path d="M41.645 52.162h-.895v1.11h.895v-1.11zM40.75 52.162h-.893v1.11h.893v-1.11z" fill="#566F7A"/><path d="M39.858 52.162h-.895v1.11h.895v-1.11zM61.31 51.05h-.892v1.112h.893V51.05zM60.417 51.05h-.895v1.112h.895V51.05z" fill="#566F7A"/><path d="M59.523 51.05h-.893v1.112h.893V51.05zM58.63 51.05h-.893v1.112h.893V51.05zM57.735 51.05h-.894v1.112h.894V51.05zM56.841 51.05h-.893v1.112h.893V51.05zM55.947 51.05h-.892v1.112h.892V51.05zM45.22 51.05h-.893v1.112h.893V51.05zM44.327 51.05h-.894v1.112h.894V51.05zM43.432 51.05h-.893v1.112h.893V51.05zM42.537 51.05h-.892v1.112h.892V51.05z" fill="#566F7A"/><path d="M41.645 51.05h-.895v1.112h.895V51.05zM40.75 51.05h-.893v1.112h.893V51.05z" fill="#566F7A"/><path d="M39.858 51.05h-.895v1.112h.895V51.05zM61.31 49.94h-.892v1.11h.893v-1.11zM60.417 49.94h-.895v1.11h.895v-1.11z" fill="#566F7A"/><path d="M59.523 49.94h-.893v1.11h.893v-1.11zM58.63 49.94h-.893v1.11h.893v-1.11zM57.735 49.94h-.894v1.11h.894v-1.11zM56.841 49.94h-.893v1.11h.893v-1.11zM55.947 49.94h-.892v1.11h.892v-1.11zM45.22 49.94h-.893v1.11h.893v-1.11zM44.327 49.94h-.894v1.11h.894v-1.11zM43.432 49.94h-.893v1.11h.893v-1.11zM42.537 49.94h-.892v1.11h.892v-1.11z" fill="#566F7A"/><path d="M41.645 49.94h-.895v1.11h.895v-1.11zM40.75 49.94h-.893v1.11h.893v-1.11z" fill="#566F7A"/><path d="M39.858 49.94h-.895v1.11h.895v-1.11zM61.31 48.829h-.892v1.11h.893v-1.11zM60.417 48.829h-.895v1.11h.895v-1.11z" fill="#566F7A"/><path d="M59.523 48.829h-.893v1.11h.893v-1.11zM58.63 48.829h-.893v1.11h.893v-1.11zM57.735 48.829h-.894v1.11h.894v-1.11zM56.841 48.829h-.893v1.11h.893v-1.11zM55.947 48.829h-.892v1.11h.892v-1.11zM45.22 48.829h-.893v1.11h.893v-1.11zM44.327 48.829h-.894v1.11h.894v-1.11zM43.432 48.829h-.893v1.11h.893v-1.11zM42.537 48.829h-.892v1.11h.892v-1.11z" fill="#566F7A"/><path d="M41.645 48.829h-.895v1.11h.895v-1.11zM40.75 48.829h-.893v1.11h.893v-1.11z" fill="#566F7A"/><path d="M39.858 48.829h-.895v1.11h.895v-1.11zM61.31 47.719h-.892v1.11h.893v-1.11zM60.417 47.719h-.895v1.11h.895v-1.11z" fill="#566F7A"/><path d="M59.523 47.719h-.893v1.11h.893v-1.11zM58.63 47.719h-.893v1.11h.893v-1.11zM57.735 47.719h-.894v1.11h.894v-1.11zM56.841 47.719h-.893v1.11h.893v-1.11zM55.947 47.719h-.892v1.11h.892v-1.11zM45.22 47.719h-.893v1.11h.893v-1.11zM44.327 47.719h-.894v1.11h.894v-1.11zM43.432 47.719h-.893v1.11h.893v-1.11zM42.537 47.719h-.892v1.11h.892v-1.11z" fill="#566F7A"/><path d="M41.645 47.719h-.895v1.11h.895v-1.11zM40.75 47.719h-.893v1.11h.893v-1.11z" fill="#566F7A"/><path d="M39.858 47.719h-.895v1.11h.895v-1.11zM61.31 46.609h-.892v1.11h.893v-1.11zM60.417 46.609h-.895v1.11h.895v-1.11z" fill="#566F7A"/><path d="M59.523 46.609h-.893v1.11h.893v-1.11zM58.63 46.609h-.893v1.11h.893v-1.11zM57.735 46.609h-.894v1.11h.894v-1.11zM56.841 46.609h-.893v1.11h.893v-1.11zM55.947 46.609h-.892v1.11h.892v-1.11zM55.053 46.609h-.895v1.11h.895v-1.11zM46.114 46.609h-.892v1.11h.892v-1.11zM45.22 46.609h-.893v1.11h.893v-1.11zM44.327 46.609h-.894v1.11h.894v-1.11zM43.432 46.609h-.893v1.11h.893v-1.11zM42.537 46.609h-.892v1.11h.892v-1.11z" fill="#566F7A"/><path d="M41.645 46.609h-.895v1.11h.895v-1.11zM40.75 46.609h-.893v1.11h.893v-1.11z" fill="#566F7A"/><path d="M39.858 46.609h-.895v1.11h.895v-1.11zM60.417 45.499h-.895v1.11h.895v-1.11z" fill="#566F7A"/><path d="M59.523 45.499h-.893v1.11h.893v-1.11zM58.63 45.499h-.893v1.11h.893v-1.11zM57.735 45.499h-.894v1.11h.894v-1.11zM56.841 45.499h-.893v1.11h.893v-1.11zM55.947 45.499h-.892v1.11h.892v-1.11zM55.053 45.499h-.895v1.11h.895v-1.11z" fill="#566F7A"/><path d="M54.158 45.499h-.892v1.11h.892v-1.11zM47.009 45.499h-.895v1.11h.895v-1.11zM46.114 45.499h-.892v1.11h.892v-1.11zM45.22 45.499h-.893v1.11h.893v-1.11zM44.327 45.499h-.894v1.11h.894v-1.11zM43.432 45.499h-.893v1.11h.893v-1.11zM42.537 45.499h-.892v1.11h.892v-1.11z" fill="#566F7A"/><path d="M41.645 45.499h-.895v1.11h.895v-1.11zM40.75 45.499h-.893v1.11h.893v-1.11zM59.523 44.387h-.893v1.11h.893v-1.11zM58.63 44.387h-.893v1.11h.893v-1.11zM57.735 44.387h-.894v1.11h.894v-1.11zM56.841 44.387h-.893v1.11h.893v-1.11zM55.947 44.387h-.892v1.11h.892v-1.11zM55.053 44.387h-.895v1.11h.895v-1.11z" fill="#566F7A"/><path d="M54.158 44.387h-.892v1.11h.892v-1.11zM53.266 44.387h-.893v1.11h.893v-1.11zM52.373 44.387h-.895v1.11h.895v-1.11zM51.477 44.387h-.893v1.11h.893v-1.11z" fill="#566F7A"/><path d="M50.584 44.387h-.893v1.11h.893v-1.11z" fill="#566F7A"/><path d="M49.691 44.387h-.894v1.11h.895v-1.11zM48.795 44.387h-.893v1.11h.893v-1.11zM47.902 44.387h-.893v1.11h.893v-1.11zM47.009 44.387h-.895v1.11h.895v-1.11zM46.114 44.387h-.892v1.11h.892v-1.11zM45.22 44.387h-.893v1.11h.893v-1.11z" fill="#566F7A"/><path d="M56.84 44.387H43.434v12.216H56.84V44.387zM43.432 44.387h-.893v1.11h.893v-1.11zM42.537 44.387h-.892v1.11h.892v-1.11z" fill="#566F7A"/><path d="M41.645 44.387h-.895v1.11h.895v-1.11zM58.63 43.277h-.893v1.11h.893v-1.11zM57.735 43.277h-.894v1.11h.894v-1.11zM56.841 43.277h-.893v1.11h.893v-1.11zM55.947 43.277h-.892v1.11h.892v-1.11zM55.053 43.277h-.895v1.11h.895v-1.11z" fill="#566F7A"/><path d="M54.158 43.277h-.892v1.11h.892v-1.11zM53.266 43.277h-.893v1.11h.893v-1.11zM52.373 43.277h-.895v1.11h.895v-1.11zM51.477 43.277h-.893v1.11h.893v-1.11z" fill="#566F7A"/><path d="M50.584 43.277h-.893v1.11h.893v-1.11z" fill="#566F7A"/><path d="M49.691 43.277h-.894v1.11h.895v-1.11zM48.795 43.277h-.893v1.11h.893v-1.11zM47.902 43.277h-.893v1.11h.893v-1.11zM47.009 43.277h-.895v1.11h.895v-1.11zM46.114 43.277h-.892v1.11h.892v-1.11zM45.22 43.277h-.893v1.11h.893v-1.11zM44.327 43.277h-.894v1.11h.894v-1.11zM43.432 43.277h-.893v1.11h.893v-1.11zM42.537 43.277h-.892v1.11h.892v-1.11zM57.735 42.166h-.894v1.11h.894v-1.11zM56.841 42.166h-.893v1.11h.893v-1.11zM55.947 42.166h-.892v1.11h.892v-1.11zM55.053 42.166h-.895v1.11h.895v-1.11z" fill="#566F7A"/><path d="M54.158 42.166h-.892v1.11h.892v-1.11zM53.266 42.166h-.893v1.11h.893v-1.11zM52.373 42.166h-.895v1.11h.895v-1.11zM51.477 42.166h-.893v1.11h.893v-1.11z" fill="#566F7A"/><path d="M50.584 42.166h-.893v1.11h.893v-1.11z" fill="#566F7A"/><path d="M49.691 42.166h-.894v1.11h.895v-1.11zM48.795 42.166h-.893v1.11h.893v-1.11zM47.902 42.166h-.893v1.11h.893v-1.11zM47.009 42.166h-.895v1.11h.895v-1.11zM46.114 42.166h-.892v1.11h.892v-1.11zM45.22 42.166h-.893v1.11h.893v-1.11zM44.327 42.166h-.894v1.11h.894v-1.11zM43.432 42.166h-.893v1.11h.893v-1.11zM56.841 41.056h-.893v1.11h.893v-1.11zM55.947 41.056h-.892v1.11h.892v-1.11zM55.053 41.056h-.895v1.11h.895v-1.11z" fill="#566F7A"/><path d="M54.158 41.056h-.892v1.11h.892v-1.11zM53.266 41.056h-.893v1.11h.893v-1.11zM52.373 41.056h-.895v1.11h.895v-1.11zM51.477 41.056h-.893v1.11h.893v-1.11z" fill="#566F7A"/><path d="M50.584 41.056h-.893v1.11h.893v-1.11z" fill="#566F7A"/><path d="M49.691 41.056h-.894v1.11h.895v-1.11zM48.795 41.056h-.893v1.11h.893v-1.11zM47.902 41.056h-.893v1.11h.893v-1.11zM47.009 41.056h-.895v1.11h.895v-1.11zM46.114 41.056h-.892v1.11h.892v-1.11zM45.22 41.056h-.893v1.11h.893v-1.11zM44.327 41.056h-.894v1.11h.894v-1.11zM55.054 39.946h-.895v1.11h.895v-1.11zM54.158 39.946h-.892v1.11h.892v-1.11zM53.266 39.946h-.893v1.11h.893v-1.11z" fill="#566F7A"/><path d="M53.266 39.946h-7.152v1.11h7.152v-1.11zM46.114 39.946h-.892v1.11h.892v-1.11z" fill="#566F7A"/><path d="M51.883 53.591h-.32v.398h.32v-.398zM51.562 53.591h-.32v.398h.32v-.398zM51.24 53.591h-.32v.398h.32v-.398zM50.92 53.591h-.32v.398h.32v-.398zM50.6 53.591h-.32v.398h.32v-.398zM50.28 53.591h-.321v.398h.32v-.398zM49.959 53.591h-.32v.398h.32v-.398zM49.639 53.591h-.32v.398h.32v-.398zM49.318 53.591h-.32v.398h.32v-.398zM52.523 53.194h-.32v.397h.32v-.397zM52.201 53.194h-.32v.397h.32v-.397z" fill="#8EA2AC"/><path d="M51.883 53.194h-.32v.397h.32v-.397zM51.562 53.194h-.32v.397h.32v-.397zM51.24 53.194h-.32v.397h.32v-.397zM50.92 53.194h-.32v.397h.32v-.397zM50.6 53.194h-.32v.397h.32v-.397zM50.28 53.194h-.321v.397h.32v-.397zM49.959 53.194h-.32v.397h.32v-.397zM49.639 53.194h-.32v.397h.32v-.397zM49.318 53.194h-.32v.397h.32v-.397zM48.998 53.194h-.32v.397h.32v-.397zM48.678 53.194h-.32v.397h.32v-.397zM53.164 52.796h-.32v.398h.32v-.398zM52.844 52.796h-.32v.398h.32v-.398zM52.523 52.796h-.32v.398h.32v-.398zM52.201 52.796h-.32v.398h.32v-.398z" fill="#8EA2AC"/><path d="M51.883 52.796h-.32v.398h.32v-.398zM51.562 52.796h-.32v.398h.32v-.398zM51.24 52.796h-.32v.398h.32v-.398zM50.92 52.796h-.32v.398h.32v-.398zM50.6 52.796h-.32v.398h.32v-.398zM50.28 52.796h-.321v.398h.32v-.398zM49.959 52.796h-.32v.398h.32v-.398zM49.639 52.796h-.32v.398h.32v-.398zM49.318 52.796h-.32v.398h.32v-.398zM48.998 52.796h-.32v.398h.32v-.398zM48.678 52.796h-.32v.398h.32v-.398zM48.357 52.796h-.32v.398h.32v-.398z" fill="#8EA2AC"/><path d="M48.038 52.796h-.32v.398h.32v-.398zM53.484 52.398h-.32v.398h.32v-.398zM53.164 52.398h-.32v.398h.32v-.398zM52.844 52.398h-.32v.398h.32v-.398zM52.523 52.398h-.32v.398h.32v-.398zM52.201 52.398h-.32v.398h.32v-.398z" fill="#8EA2AC"/><path d="M51.883 52.398h-.32v.398h.32v-.398zM51.562 52.398h-.32v.398h.32v-.398zM51.24 52.398h-.32v.398h.32v-.398zM50.92 52.398h-.32v.398h.32v-.398zM50.6 52.398h-.32v.398h.32v-.398zM50.28 52.398h-.321v.398h.32v-.398zM49.959 52.398h-.32v.398h.32v-.398zM49.639 52.398h-.32v.398h.32v-.398zM49.318 52.398h-.32v.398h.32v-.398zM48.998 52.398h-.32v.398h.32v-.398zM48.678 52.398h-.32v.398h.32v-.398zM48.357 52.398h-.32v.398h.32v-.398z" fill="#8EA2AC"/><path d="M48.038 52.398h-.32v.398h.32v-.398z" fill="#8EA2AC"/><path d="M47.718 52.398h-.32v.398h.32v-.398zM53.805 51.998h-.32v.398h.32v-.398zM53.484 51.998h-.32v.398h.32v-.398zM53.164 51.998h-.32v.398h.32v-.398zM52.844 51.998h-.32v.398h.32v-.398zM52.523 51.998h-.32v.398h.32v-.398zM52.201 51.998h-.32v.398h.32v-.398z" fill="#8EA2AC"/><path d="M51.883 51.998h-.32v.398h.32v-.398zM51.562 51.998h-.32v.398h.32v-.398zM51.24 51.998h-.32v.398h.32v-.398zM50.92 51.998h-.32v.398h.32v-.398zM50.6 51.998h-.32v.398h.32v-.398zM50.28 51.998h-.321v.398h.32v-.398zM49.959 51.998h-.32v.398h.32v-.398zM49.639 51.998h-.32v.398h.32v-.398zM49.318 51.998h-.32v.398h.32v-.398zM48.998 51.998h-.32v.398h.32v-.398zM48.678 51.998h-.32v.398h.32v-.398zM48.357 51.998h-.32v.398h.32v-.398z" fill="#8EA2AC"/><path d="M48.038 51.998h-.32v.398h.32v-.398z" fill="#8EA2AC"/><path d="M47.718 51.998h-.32v.398h.32v-.398zM47.397 51.998h-.32v.398h.32v-.398zM54.125 51.6h-.32v.398h.32v-.397zM53.805 51.6h-.32v.398h.32v-.397zM53.484 51.6h-.32v.398h.32v-.397zM53.164 51.6h-.32v.398h.32v-.397zM52.844 51.6h-.32v.398h.32v-.397zM52.523 51.6h-.32v.398h.32v-.397zM52.201 51.6h-.32v.398h.32v-.397z" fill="#8EA2AC"/><path d="M51.883 51.6h-.32v.398h.32v-.397zM51.562 51.6h-.32v.398h.32v-.397zM49.639 51.6h-.32v.398h.32v-.397zM49.318 51.6h-.32v.398h.32v-.397zM48.998 51.6h-.32v.398h.32v-.397zM48.678 51.6h-.32v.398h.32v-.397zM48.357 51.6h-.32v.398h.32v-.397z" fill="#8EA2AC"/><path d="M48.038 51.6h-.32v.398h.32v-.397z" fill="#8EA2AC"/><path d="M47.718 51.6h-.32v.398h.32v-.397zM47.397 51.6h-.32v.398h.32v-.397zM47.077 51.6h-.32v.398h.32v-.397zM54.125 51.203h-.32v.398h.32v-.398zM53.805 51.203h-.32v.398h.32v-.398zM53.484 51.203h-.32v.398h.32v-.398zM53.164 51.203h-.32v.398h.32v-.398zM52.844 51.203h-.32v.398h.32v-.398zM52.523 51.203h-.32v.398h.32v-.398zM52.201 51.203h-.32v.398h.32v-.398zM48.998 51.203h-.32v.398h.32v-.398zM48.678 51.203h-.32v.398h.32v-.398zM48.357 51.203h-.32v.398h.32v-.398z" fill="#8EA2AC"/><path d="M48.038 51.203h-.32v.398h.32v-.398z" fill="#8EA2AC"/><path d="M47.718 51.203h-.32v.398h.32v-.398zM47.397 51.203h-.32v.398h.32v-.398zM47.077 51.203h-.32v.398h.32v-.398zM54.445 50.805h-.32v.398h.32v-.398zM54.125 50.805h-.32v.398h.32v-.398zM53.805 50.805h-.32v.398h.32v-.398zM53.484 50.805h-.32v.398h.32v-.398zM53.164 50.805h-.32v.398h.32v-.398zM52.844 50.805h-.32v.398h.32v-.398zM52.523 50.805h-.32v.398h.32v-.398zM48.678 50.805h-.32v.398h.32v-.398zM48.357 50.805h-.32v.398h.32v-.398z" fill="#8EA2AC"/><path d="M48.038 50.805h-.32v.398h.32v-.398z" fill="#8EA2AC"/><path d="M47.718 50.805h-.32v.398h.32v-.398zM47.397 50.805h-.32v.398h.32v-.398zM47.077 50.805h-.32v.398h.32v-.398zM46.755 50.805h-.32v.398h.32v-.398zM54.445 50.407h-.32v.398h.32v-.398zM54.125 50.407h-.32v.398h.32v-.398zM53.805 50.407h-.32v.398h.32v-.398zM53.484 50.407h-.32v.398h.32v-.398zM53.164 50.407h-.32v.398h.32v-.398zM52.844 50.407h-.32v.398h.32v-.398zM52.523 50.407h-.32v.398h.32v-.398zM48.678 50.407h-.32v.398h.32v-.398zM48.357 50.407h-.32v.398h.32v-.398z" fill="#8EA2AC"/><path d="M48.038 50.407h-.32v.398h.32v-.398z" fill="#8EA2AC"/><path d="M47.718 50.407h-.32v.398h.32v-.398zM47.397 50.407h-.32v.398h.32v-.398zM47.077 50.407h-.32v.398h.32v-.398zM46.755 50.407h-.32v.398h.32v-.398zM54.445 50.01h-.32v.397h.32v-.397zM54.125 50.01h-.32v.397h.32v-.397zM53.805 50.01h-.32v.397h.32v-.397zM53.484 50.01h-.32v.397h.32v-.397zM53.164 50.01h-.32v.397h.32v-.397zM52.844 50.01h-.32v.397h.32v-.397zM52.523 50.01h-.32v.397h.32v-.397zM48.678 50.01h-.32v.397h.32v-.397zM48.357 50.01h-.32v.397h.32v-.397z" fill="#8EA2AC"/><path d="M48.038 50.01h-.32v.397h.32v-.397z" fill="#8EA2AC"/><path d="M47.718 50.01h-.32v.397h.32v-.397zM47.397 50.01h-.32v.397h.32v-.397zM47.077 50.01h-.32v.397h.32v-.397zM46.755 50.01h-.32v.397h.32v-.397zM54.445 49.612h-.32v.398h.32v-.398zM54.125 49.612h-.32v.398h.32v-.398zM53.805 49.612h-.32v.398h.32v-.398zM53.484 49.612h-.32v.398h.32v-.398zM53.164 49.612h-.32v.398h.32v-.398zM52.844 49.612h-.32v.398h.32v-.398zM52.523 49.612h-.32v.398h.32v-.398zM48.678 49.612h-.32v.398h.32v-.398zM48.357 49.612h-.32v.398h.32v-.398z" fill="#8EA2AC"/><path d="M48.038 49.612h-.32v.398h.32v-.398z" fill="#8EA2AC"/><path d="M47.718 49.612h-.32v.398h.32v-.398zM47.397 49.612h-.32v.398h.32v-.398zM47.077 49.612h-.32v.398h.32v-.398zM46.755 49.612h-.32v.398h.32v-.398zM54.445 49.214h-.32v.398h.32v-.398zM54.125 49.214h-.32v.398h.32v-.398zM53.805 49.214h-.32v.398h.32v-.398zM53.484 49.214h-.32v.398h.32v-.398zM53.164 49.214h-.32v.398h.32v-.398zM52.844 49.214h-.32v.398h.32v-.398zM52.523 49.214h-.32v.398h.32v-.398zM48.678 49.214h-.32v.398h.32v-.398zM48.357 49.214h-.32v.398h.32v-.398z" fill="#8EA2AC"/><path d="M48.038 49.214h-.32v.398h.32v-.398z" fill="#8EA2AC"/><path d="M47.718 49.214h-.32v.398h.32v-.398zM47.397 49.214h-.32v.398h.32v-.398zM47.077 49.214h-.32v.398h.32v-.398zM46.755 49.214h-.32v.398h.32v-.398zM54.445 48.816h-.32v.398h.32v-.398zM54.125 48.816h-.32v.398h.32v-.398zM53.805 48.816h-.32v.398h.32v-.398zM53.484 48.816h-.32v.398h.32v-.398zM53.164 48.816h-.32v.398h.32v-.398zM52.844 48.816h-.32v.398h.32v-.398zM52.523 48.816h-.32v.398h.32v-.398zM52.201 48.816h-.32v.398h.32v-.398zM48.998 48.816h-.32v.398h.32v-.398zM48.678 48.816h-.32v.398h.32v-.398zM48.357 48.816h-.32v.398h.32v-.398z" fill="#8EA2AC"/><path d="M48.038 48.816h-.32v.398h.32v-.398z" fill="#8EA2AC"/><path d="M47.718 48.816h-.32v.398h.32v-.398zM47.397 48.816h-.32v.398h.32v-.398zM47.077 48.816h-.32v.398h.32v-.398zM46.755 48.816h-.32v.398h.32v-.398zM54.125 48.416h-.32v.398h.32v-.398zM53.805 48.416h-.32v.398h.32v-.398zM53.484 48.416h-.32v.398h.32v-.398zM53.164 48.416h-.32v.398h.32v-.398zM52.844 48.416h-.32v.398h.32v-.398zM52.523 48.416h-.32v.398h.32v-.398zM52.201 48.416h-.32v.398h.32v-.398z" fill="#8EA2AC"/><path d="M51.883 48.416h-.32v.398h.32v-.398zM49.318 48.416h-.32v.398h.32v-.398zM48.998 48.416h-.32v.398h.32v-.398zM48.678 48.416h-.32v.398h.32v-.398zM48.357 48.416h-.32v.398h.32v-.398z" fill="#8EA2AC"/><path d="M48.038 48.416h-.32v.398h.32v-.398z" fill="#8EA2AC"/><path d="M47.718 48.416h-.32v.398h.32v-.398zM47.397 48.416h-.32v.398h.32v-.398zM47.077 48.416h-.32v.398h.32v-.398zM53.805 48.019h-.32v.398h.32v-.398zM53.484 48.019h-.32v.398h.32v-.398zM53.164 48.019h-.32v.398h.32v-.398zM52.844 48.019h-.32v.398h.32v-.398zM52.523 48.019h-.32v.398h.32v-.398zM52.201 48.019h-.32v.398h.32v-.398z" fill="#8EA2AC"/><path d="M51.883 48.019h-.32v.398h.32v-.398zM51.562 48.019h-.32v.398h.32v-.398zM51.24 48.019h-.32v.398h.32v-.398zM50.92 48.019h-.32v.398h.32v-.398zM50.6 48.019h-.32v.398h.32v-.398zM50.28 48.019h-.321v.398h.32v-.398zM49.959 48.019h-.32v.398h.32v-.398zM49.639 48.019h-.32v.398h.32v-.398zM49.318 48.019h-.32v.398h.32v-.398zM48.998 48.019h-.32v.398h.32v-.398zM48.678 48.019h-.32v.398h.32v-.398z" fill="#8EA2AC"/><path d="M52.843 48.019h-4.806v4.377h4.806V48.02z" fill="#8EA2AC"/><path d="M48.038 48.019h-.32v.398h.32v-.398z" fill="#8EA2AC"/><path d="M47.718 48.019h-.32v.398h.32v-.398zM47.397 48.019h-.32v.398h.32v-.398zM53.484 47.621h-.32v.398h.32v-.398zM53.164 47.621h-.32v.398h.32v-.398zM52.844 47.621h-.32v.398h.32v-.398zM52.523 47.621h-.32v.398h.32v-.398zM52.201 47.621h-.32v.398h.32v-.398z" fill="#8EA2AC"/><path d="M51.883 47.621h-.32v.398h.32v-.398zM51.562 47.621h-.32v.398h.32v-.398zM51.24 47.621h-.32v.398h.32v-.398zM50.92 47.621h-.32v.398h.32v-.398zM50.6 47.621h-.32v.398h.32v-.398zM50.28 47.621h-.321v.398h.32v-.398zM49.959 47.621h-.32v.398h.32v-.398zM49.639 47.621h-.32v.398h.32v-.398zM49.318 47.621h-.32v.398h.32v-.398zM48.998 47.621h-.32v.398h.32v-.398zM48.678 47.621h-.32v.398h.32v-.398zM48.357 47.621h-.32v.398h.32v-.398z" fill="#8EA2AC"/><path d="M48.038 47.621h-.32v.398h.32v-.398z" fill="#8EA2AC"/><path d="M47.718 47.621h-.32v.398h.32v-.398zM53.164 47.223h-.32v.398h.32v-.398zM52.844 47.223h-.32v.398h.32v-.398zM52.523 47.223h-.32v.398h.32v-.398zM52.201 47.223h-.32v.398h.32v-.398z" fill="#8EA2AC"/><path d="M51.883 47.223h-.32v.398h.32v-.398zM51.562 47.223h-.32v.398h.32v-.398zM51.24 47.223h-.32v.398h.32v-.398zM50.92 47.223h-.32v.398h.32v-.398zM50.6 47.223h-.32v.398h.32v-.398zM50.28 47.223h-.321v.398h.32v-.398zM49.959 47.223h-.32v.398h.32v-.398zM49.639 47.223h-.32v.398h.32v-.398zM49.318 47.223h-.32v.398h.32v-.398zM48.998 47.223h-.32v.398h.32v-.398zM48.678 47.223h-.32v.398h.32v-.398zM48.357 47.223h-.32v.398h.32v-.398z" fill="#8EA2AC"/><path d="M48.038 47.223h-.32v.398h.32v-.398zM52.844 46.825h-.32v.398h.32v-.398zM52.523 46.825h-.32v.398h.32v-.398zM52.201 46.825h-.32v.398h.32v-.398z" fill="#8EA2AC"/><path d="M51.883 46.825h-.32v.398h.32v-.398zM51.562 46.825h-.32v.398h.32v-.398zM51.24 46.825h-.32v.398h.32v-.398zM50.92 46.825h-.32v.398h.32v-.398zM50.6 46.825h-.32v.398h.32v-.398zM50.28 46.825h-.321v.398h.32v-.398zM49.959 46.825h-.32v.398h.32v-.398zM49.639 46.825h-.32v.398h.32v-.398zM49.318 46.825h-.32v.398h.32v-.398zM48.998 46.825h-.32v.398h.32v-.398zM48.678 46.825h-.32v.398h.32v-.398zM48.357 46.825h-.32v.398h.32v-.398z" fill="#8EA2AC"/><path d="M52.201 46.428h-.32v.398h.32v-.398z" fill="#8EA2AC"/><path d="M51.883 46.428h-.32v.398h.32v-.398zM51.562 46.428h-.32v.398h.32v-.398z" fill="#8EA2AC"/><path d="M51.562 46.428h-2.564v.398h2.564v-.398z" fill="#8EA2AC"/><path d="M48.999 46.428h-.32v.398h.32v-.398z" fill="#8EA2AC"/><path d="M17.445 59.77H16.42v1.275h1.025V59.77z" fill="#566F7A"/><path d="M16.42 59.77h-1.025v1.275h1.026V59.77zM15.395 59.77h-1.027v1.275h1.027V59.77zM14.367 59.77h-1.025v1.275h1.025V59.77zM13.342 59.77h-1.026v1.275h1.026V59.77zM12.316 59.77h-1.027v1.275h1.027V59.77zM11.289 59.77h-1.025v1.275h1.025V59.77zM10.262 59.77H9.237v1.275h1.025V59.77z" fill="#566F7A"/><path d="M9.238 59.77H8.21v1.275h1.027V59.77zM19.5 58.495h-1.025v1.275H19.5v-1.275zM18.474 58.495h-1.027v1.275h1.027v-1.275zM17.445 58.495H16.42v1.275h1.025v-1.275z" fill="#566F7A"/><path d="M16.42 58.495h-1.025v1.275h1.026v-1.275zM15.395 58.495h-1.027v1.275h1.027v-1.275zM14.367 58.495h-1.025v1.275h1.025v-1.275zM13.342 58.495h-1.026v1.275h1.026v-1.275zM12.316 58.495h-1.027v1.275h1.027v-1.275zM11.289 58.495h-1.025v1.275h1.025v-1.275zM10.262 58.495H9.237v1.275h1.025v-1.275z" fill="#566F7A"/><path d="M9.238 58.495H8.21v1.275h1.027v-1.275zM8.21 58.495H7.187v1.275H8.21v-1.275zM7.185 58.495H6.16v1.275h1.025v-1.275zM21.552 57.22h-1.027v1.273h1.027V57.22zM20.525 57.22H19.5v1.273h1.025V57.22zM19.5 57.22h-1.025v1.273H19.5V57.22zM18.474 57.22h-1.027v1.273h1.027V57.22zM17.445 57.22H16.42v1.273h1.025V57.22z" fill="#566F7A"/><path d="M16.42 57.22h-1.025v1.273h1.026V57.22zM15.395 57.22h-1.027v1.273h1.027V57.22zM14.367 57.22h-1.025v1.273h1.025V57.22zM13.342 57.22h-1.026v1.273h1.026V57.22zM12.316 57.22h-1.027v1.273h1.027V57.22zM11.289 57.22h-1.025v1.273h1.025V57.22zM10.262 57.22H9.237v1.273h1.025V57.22z" fill="#566F7A"/><path d="M9.238 57.22H8.21v1.273h1.027V57.22zM8.21 57.22H7.187v1.273H8.21V57.22zM7.185 57.22H6.16v1.273h1.025V57.22zM6.158 57.22H5.13v1.273h1.027V57.22z" fill="#566F7A"/><path d="M5.13 57.22H4.106v1.273h1.026V57.22zM22.579 55.945h-1.025v1.275h1.025v-1.275zM21.552 55.945h-1.027v1.275h1.027v-1.275zM20.525 55.945H19.5v1.275h1.025v-1.275zM19.5 55.945h-1.025v1.275H19.5v-1.275zM18.474 55.945h-1.027v1.275h1.027v-1.275zM17.445 55.945H16.42v1.275h1.025v-1.275z" fill="#566F7A"/><path d="M16.42 55.945h-1.025v1.275h1.026v-1.275zM15.395 55.945h-1.027v1.275h1.027v-1.275zM14.367 55.945h-1.025v1.275h1.025v-1.275zM13.342 55.945h-1.026v1.275h1.026v-1.275zM12.316 55.945h-1.027v1.275h1.027v-1.275zM11.289 55.945h-1.025v1.275h1.025v-1.275zM10.262 55.945H9.237v1.275h1.025v-1.275z" fill="#566F7A"/><path d="M9.238 55.945H8.21v1.275h1.027v-1.275zM8.21 55.945H7.187v1.275H8.21v-1.275zM7.185 55.945H6.16v1.275h1.025v-1.275zM6.158 55.945H5.13v1.275h1.027v-1.275z" fill="#566F7A"/><path d="M5.13 55.945H4.106v1.275h1.026v-1.275zM4.106 55.945H3.081v1.275h1.025v-1.275zM23.603 54.67h-1.025v1.274h1.025V54.67z" fill="#566F7A"/><path d="M22.579 54.67h-1.025v1.274h1.025V54.67zM21.552 54.67h-1.027v1.274h1.027V54.67zM20.525 54.67H19.5v1.274h1.025V54.67zM19.5 54.67h-1.025v1.274H19.5V54.67zM18.474 54.67h-1.027v1.274h1.027V54.67zM17.445 54.67H16.42v1.274h1.025V54.67z" fill="#566F7A"/><path d="M16.42 54.67h-1.025v1.274h1.026V54.67zM15.395 54.67h-1.027v1.274h1.027V54.67zM14.367 54.67h-1.025v1.274h1.025V54.67zM13.342 54.67h-1.026v1.274h1.026V54.67zM12.316 54.67h-1.027v1.274h1.027V54.67zM11.289 54.67h-1.025v1.274h1.025V54.67zM10.262 54.67H9.237v1.274h1.025V54.67z" fill="#566F7A"/><path d="M9.238 54.67H8.21v1.274h1.027V54.67zM8.21 54.67H7.187v1.274H8.21V54.67zM7.185 54.67H6.16v1.274h1.025V54.67zM6.158 54.67H5.13v1.274h1.027V54.67z" fill="#566F7A"/><path d="M5.13 54.67H4.106v1.274h1.026V54.67zM4.106 54.67H3.081v1.274h1.025V54.67zM3.08 54.67H2.055v1.274H3.08V54.67zM24.63 53.394h-1.026v1.275h1.026v-1.275zM23.603 53.394h-1.025v1.275h1.025v-1.275z" fill="#566F7A"/><path d="M22.579 53.394h-1.025v1.275h1.025v-1.275zM21.552 53.394h-1.027v1.275h1.027v-1.275zM20.525 53.394H19.5v1.275h1.025v-1.275zM19.5 53.394h-1.025v1.275H19.5v-1.275zM18.474 53.394h-1.027v1.275h1.027v-1.275zM17.445 53.394H16.42v1.275h1.025v-1.275z" fill="#566F7A"/><path d="M16.42 53.394h-1.025v1.275h1.026v-1.275zM10.262 53.394H9.237v1.275h1.025v-1.275z" fill="#566F7A"/><path d="M9.238 53.394H8.21v1.275h1.027v-1.275zM8.21 53.394H7.187v1.275H8.21v-1.275zM7.185 53.394H6.16v1.275h1.025v-1.275zM6.158 53.394H5.13v1.275h1.027v-1.275z" fill="#566F7A"/><path d="M5.13 53.394H4.106v1.275h1.026v-1.275zM4.106 53.394H3.081v1.275h1.025v-1.275zM3.08 53.394H2.055v1.275H3.08v-1.275zM2.053 53.394H1.027v1.275h1.026v-1.275zM24.63 52.12h-1.026v1.274h1.026V52.12zM23.603 52.12h-1.025v1.274h1.025V52.12z" fill="#566F7A"/><path d="M22.579 52.12h-1.025v1.274h1.025V52.12zM21.552 52.12h-1.027v1.274h1.027V52.12zM20.525 52.12H19.5v1.274h1.025V52.12zM19.5 52.12h-1.025v1.274H19.5V52.12zM18.474 52.12h-1.027v1.274h1.027V52.12zM8.21 52.12H7.187v1.274H8.21V52.12zM7.185 52.12H6.16v1.274h1.025V52.12zM6.158 52.12H5.13v1.274h1.027V52.12z" fill="#566F7A"/><path d="M5.13 52.12H4.106v1.274h1.026V52.12zM4.106 52.12H3.081v1.274h1.025V52.12zM3.08 52.12H2.055v1.274H3.08V52.12zM2.053 52.12H1.027v1.274h1.026V52.12zM25.656 50.846h-1.025v1.273h1.025v-1.273zM24.63 50.846h-1.026v1.273h1.026v-1.273zM23.603 50.846h-1.025v1.273h1.025v-1.273z" fill="#566F7A"/><path d="M22.579 50.846h-1.025v1.273h1.025v-1.273zM21.552 50.846h-1.027v1.273h1.027v-1.273zM20.525 50.846H19.5v1.273h1.025v-1.273zM19.5 50.846h-1.025v1.273H19.5v-1.273zM7.185 50.846H6.16v1.273h1.025v-1.273zM6.158 50.846H5.13v1.273h1.027v-1.273z" fill="#566F7A"/><path d="M5.13 50.846H4.106v1.273h1.026v-1.273zM4.106 50.846H3.081v1.273h1.025v-1.273zM3.08 50.846H2.055v1.273H3.08v-1.273zM2.053 50.846H1.027v1.273h1.026v-1.273zM1.027 50.846H0v1.273h1.027v-1.273zM25.656 49.57h-1.025v1.276h1.025V49.57zM24.63 49.57h-1.026v1.276h1.026V49.57zM23.603 49.57h-1.025v1.276h1.025V49.57z" fill="#566F7A"/><path d="M22.579 49.57h-1.025v1.276h1.025V49.57zM21.552 49.57h-1.027v1.276h1.027V49.57zM20.525 49.57H19.5v1.276h1.025V49.57zM19.5 49.57h-1.025v1.276H19.5V49.57zM7.185 49.57H6.16v1.276h1.025V49.57zM6.158 49.57H5.13v1.276h1.027V49.57z" fill="#566F7A"/><path d="M5.13 49.57H4.106v1.276h1.026V49.57zM4.106 49.57H3.081v1.276h1.025V49.57zM3.08 49.57H2.055v1.276H3.08V49.57zM2.053 49.57H1.027v1.276h1.026V49.57zM1.027 49.57H0v1.276h1.027V49.57zM25.656 48.296h-1.025v1.273h1.025v-1.273zM24.63 48.296h-1.026v1.273h1.026v-1.273zM23.603 48.296h-1.025v1.273h1.025v-1.273z" fill="#566F7A"/><path d="M22.579 48.296h-1.025v1.273h1.025v-1.273zM21.552 48.296h-1.027v1.273h1.027v-1.273zM20.525 48.296H19.5v1.273h1.025v-1.273zM19.5 48.296h-1.025v1.273H19.5v-1.273zM7.185 48.296H6.16v1.273h1.025v-1.273zM6.158 48.296H5.13v1.273h1.027v-1.273z" fill="#566F7A"/><path d="M5.13 48.296H4.106v1.273h1.026v-1.273zM4.106 48.296H3.081v1.273h1.025v-1.273zM3.08 48.296H2.055v1.273H3.08v-1.273zM2.053 48.296H1.027v1.273h1.026v-1.273zM1.027 48.296H0v1.273h1.027v-1.273zM25.656 47.02h-1.025v1.276h1.025V47.02zM24.63 47.02h-1.026v1.276h1.026V47.02zM23.603 47.02h-1.025v1.276h1.025V47.02z" fill="#566F7A"/><path d="M22.579 47.02h-1.025v1.276h1.025V47.02zM21.552 47.02h-1.027v1.276h1.027V47.02zM20.525 47.02H19.5v1.276h1.025V47.02zM19.5 47.02h-1.025v1.276H19.5V47.02zM7.185 47.02H6.16v1.276h1.025V47.02zM6.158 47.02H5.13v1.276h1.027V47.02z" fill="#566F7A"/><path d="M5.13 47.02H4.106v1.276h1.026V47.02zM4.106 47.02H3.081v1.276h1.025V47.02zM3.08 47.02H2.055v1.276H3.08V47.02zM2.053 47.02H1.027v1.276h1.026V47.02zM1.027 47.02H0v1.276h1.027V47.02zM25.656 45.746h-1.025v1.275h1.025v-1.275zM24.63 45.746h-1.026v1.275h1.026v-1.275zM23.603 45.746h-1.025v1.275h1.025v-1.275z" fill="#566F7A"/><path d="M22.579 45.746h-1.025v1.275h1.025v-1.275zM21.552 45.746h-1.027v1.275h1.027v-1.275zM20.525 45.746H19.5v1.275h1.025v-1.275zM19.5 45.746h-1.025v1.275H19.5v-1.275zM7.185 45.746H6.16v1.275h1.025v-1.275zM6.158 45.746H5.13v1.275h1.027v-1.275z" fill="#566F7A"/><path d="M5.13 45.746H4.106v1.275h1.026v-1.275zM4.106 45.746H3.081v1.275h1.025v-1.275zM3.08 45.746H2.055v1.275H3.08v-1.275zM2.053 45.746H1.027v1.275h1.026v-1.275zM1.027 45.746H0v1.275h1.027v-1.275zM25.656 44.47h-1.025v1.274h1.025V44.47zM24.63 44.47h-1.026v1.274h1.026V44.47zM23.603 44.47h-1.025v1.274h1.025V44.47z" fill="#566F7A"/><path d="M22.579 44.47h-1.025v1.274h1.025V44.47zM21.552 44.47h-1.027v1.274h1.027V44.47zM20.525 44.47H19.5v1.274h1.025V44.47zM19.5 44.47h-1.025v1.274H19.5V44.47zM18.474 44.47h-1.027v1.274h1.027V44.47zM8.21 44.47H7.187v1.274H8.21V44.47zM7.185 44.47H6.16v1.274h1.025V44.47zM6.158 44.47H5.13v1.274h1.027V44.47z" fill="#566F7A"/><path d="M5.13 44.47H4.106v1.274h1.026V44.47zM4.106 44.47H3.081v1.274h1.025V44.47zM3.08 44.47H2.055v1.274H3.08V44.47zM2.053 44.47H1.027v1.274h1.026V44.47zM1.027 44.47H0v1.274h1.027V44.47zM24.63 43.196h-1.026v1.275h1.026v-1.275zM23.603 43.196h-1.025v1.275h1.025v-1.275z" fill="#566F7A"/><path d="M22.579 43.196h-1.025v1.275h1.025v-1.275zM21.552 43.196h-1.027v1.275h1.027v-1.275zM20.525 43.196H19.5v1.275h1.025v-1.275zM19.5 43.196h-1.025v1.275H19.5v-1.275zM18.474 43.196h-1.027v1.275h1.027v-1.275zM17.445 43.196H16.42v1.275h1.025v-1.275zM9.238 43.196H8.21v1.275h1.027v-1.275zM8.21 43.196H7.187v1.275H8.21v-1.275zM7.185 43.196H6.16v1.275h1.025v-1.275zM6.158 43.196H5.13v1.275h1.027v-1.275z" fill="#566F7A"/><path d="M5.13 43.196H4.106v1.275h1.026v-1.275zM4.106 43.196H3.081v1.275h1.025v-1.275zM3.08 43.196H2.055v1.275H3.08v-1.275zM2.053 43.196H1.027v1.275h1.026v-1.275zM23.603 41.92h-1.025v1.276h1.025V41.92z" fill="#566F7A"/><path d="M22.579 41.92h-1.025v1.276h1.025V41.92zM21.552 41.92h-1.027v1.276h1.027V41.92zM20.525 41.92H19.5v1.276h1.025V41.92zM19.5 41.92h-1.025v1.276H19.5V41.92zM18.474 41.92h-1.027v1.276h1.027V41.92zM17.445 41.92H16.42v1.276h1.025V41.92z" fill="#566F7A"/><path d="M16.42 41.92h-1.025v1.276h1.026V41.92zM15.395 41.92h-1.027v1.276h1.027V41.92zM14.367 41.92h-1.025v1.276h1.025V41.92zM13.342 41.92h-1.026v1.276h1.026V41.92zM12.316 41.92h-1.027v1.276h1.027V41.92zM11.289 41.92h-1.025v1.276h1.025V41.92zM10.262 41.92H9.237v1.276h1.025V41.92z" fill="#566F7A"/><path d="M9.238 41.92H8.21v1.276h1.027V41.92zM8.21 41.92H7.187v1.276H8.21V41.92zM7.185 41.92H6.16v1.276h1.025V41.92z" fill="#566F7A"/><path d="M20.524 41.92H5.131v14.024h15.393V41.92z" fill="#566F7A"/><path d="M5.13 41.92H4.106v1.276h1.026V41.92zM4.106 41.92H3.081v1.276h1.025V41.92zM3.08 41.92H2.055v1.276H3.08V41.92zM22.579 40.647h-1.025v1.275h1.025v-1.275zM21.552 40.647h-1.027v1.275h1.027v-1.275zM20.525 40.647H19.5v1.275h1.025v-1.275zM19.5 40.647h-1.025v1.275H19.5v-1.275zM18.474 40.647h-1.027v1.275h1.027v-1.275zM17.445 40.647H16.42v1.275h1.025v-1.275z" fill="#566F7A"/><path d="M16.42 40.647h-1.025v1.275h1.026v-1.275zM15.395 40.647h-1.027v1.275h1.027v-1.275zM14.367 40.647h-1.025v1.275h1.025v-1.275zM13.342 40.647h-1.026v1.275h1.026v-1.275zM12.316 40.647h-1.027v1.275h1.027v-1.275zM11.289 40.647h-1.025v1.275h1.025v-1.275zM10.262 40.647H9.237v1.275h1.025v-1.275z" fill="#566F7A"/><path d="M9.238 40.647H8.21v1.275h1.027v-1.275zM8.21 40.647H7.187v1.275H8.21v-1.275zM7.185 40.647H6.16v1.275h1.025v-1.275zM6.158 40.647H5.13v1.275h1.027v-1.275z" fill="#566F7A"/><path d="M5.13 40.647H4.106v1.275h1.026v-1.275zM4.106 40.647H3.081v1.275h1.025v-1.275zM21.552 39.372h-1.027v1.275h1.027v-1.275zM20.525 39.372H19.5v1.275h1.025v-1.275zM19.5 39.372h-1.025v1.275H19.5v-1.275zM18.474 39.372h-1.027v1.275h1.027v-1.275zM17.445 39.372H16.42v1.275h1.025v-1.275z" fill="#566F7A"/><path d="M16.42 39.372h-1.025v1.275h1.026v-1.275zM15.395 39.372h-1.027v1.275h1.027v-1.275zM14.367 39.372h-1.025v1.275h1.025v-1.275zM13.342 39.372h-1.026v1.275h1.026v-1.275zM12.316 39.372h-1.027v1.275h1.027v-1.275zM11.289 39.372h-1.025v1.275h1.025v-1.275zM10.262 39.372H9.237v1.275h1.025v-1.275z" fill="#566F7A"/><path d="M9.238 39.372H8.21v1.275h1.027v-1.275zM8.21 39.372H7.187v1.275H8.21v-1.275zM7.185 39.372H6.16v1.275h1.025v-1.275zM6.158 39.372H5.13v1.275h1.027v-1.275z" fill="#566F7A"/><path d="M5.13 39.372H4.106v1.275h1.026v-1.275zM20.525 38.097H19.5v1.273h1.025v-1.273zM19.5 38.097h-1.025v1.273H19.5v-1.273zM18.474 38.097h-1.027v1.273h1.027v-1.273zM17.445 38.097H16.42v1.273h1.025v-1.273z" fill="#566F7A"/><path d="M16.42 38.097h-1.025v1.273h1.026v-1.273zM15.395 38.097h-1.027v1.273h1.027v-1.273zM14.367 38.097h-1.025v1.273h1.025v-1.273zM13.342 38.097h-1.026v1.273h1.026v-1.273zM12.316 38.097h-1.027v1.273h1.027v-1.273zM11.289 38.097h-1.025v1.273h1.025v-1.273zM10.262 38.097H9.237v1.273h1.025v-1.273z" fill="#566F7A"/><path d="M9.238 38.097H8.21v1.273h1.027v-1.273zM8.21 38.097H7.187v1.273H8.21v-1.273zM7.185 38.097H6.16v1.273h1.025v-1.273zM6.158 38.097H5.13v1.273h1.027v-1.273zM18.474 36.822h-1.027v1.275h1.027v-1.275zM17.445 36.822H16.42v1.275h1.025v-1.275z" fill="#566F7A"/><path d="M16.42 36.822h-1.025v1.275h1.026v-1.275z" fill="#566F7A"/><path d="M16.42 36.822H8.21v1.275h8.21v-1.275zM8.21 36.822H7.187v1.275H8.21v-1.275z" fill="#566F7A"/><path d="M14.53 52.925h-.378v.471h.378v-.47z" fill="#8EA2AC"/><path d="M14.153 52.925h-.378v.471h.378v-.47zM13.773 52.925h-.377v.471h.377v-.47zM13.395 52.925h-.377v.471h.377v-.47z" fill="#8EA2AC"/><path d="M13.018 52.925h-.377v.471h.377v-.47zM12.64 52.925h-.377v.471h.377v-.47zM12.26 52.925h-.377v.471h.378v-.47z" fill="#8EA2AC"/><path d="M11.884 52.925h-.378v.471h.378v-.47zM11.506 52.925h-.378v.471h.378v-.47zM15.286 52.455h-.378v.47h.378v-.47zM14.908 52.455h-.378v.47h.378v-.47zM14.53 52.455h-.378v.47h.378v-.47z" fill="#8EA2AC"/><path d="M14.153 52.455h-.378v.47h.378v-.47zM13.773 52.455h-.377v.47h.377v-.47zM13.395 52.455h-.377v.47h.377v-.47z" fill="#8EA2AC"/><path d="M13.018 52.455h-.377v.47h.377v-.47zM12.64 52.455h-.377v.47h.377v-.47zM12.26 52.455h-.377v.47h.378v-.47z" fill="#8EA2AC"/><path d="M11.884 52.455h-.378v.47h.378v-.47zM11.506 52.455h-.378v.47h.378v-.47zM11.128 52.455h-.378v.47h.378v-.47zM10.75 52.455h-.378v.47h.378v-.47zM16.042 51.986h-.378v.469h.378v-.469zM15.664 51.986h-.378v.469h.378v-.469zM15.286 51.986h-.378v.469h.378v-.469zM14.908 51.986h-.378v.469h.378v-.469zM14.53 51.986h-.378v.469h.378v-.469z" fill="#8EA2AC"/><path d="M14.153 51.986h-.378v.469h.378v-.469zM13.773 51.986h-.377v.469h.377v-.469zM13.395 51.986h-.377v.469h.377v-.469z" fill="#8EA2AC"/><path d="M13.018 51.986h-.377v.469h.377v-.469zM12.64 51.986h-.377v.469h.377v-.469zM12.26 51.986h-.377v.469h.378v-.469z" fill="#8EA2AC"/><path d="M11.884 51.986h-.378v.469h.378v-.469zM11.506 51.986h-.378v.469h.378v-.469zM11.128 51.986h-.378v.469h.378v-.469zM10.75 51.986h-.378v.469h.378v-.469zM10.37 51.986h-.377v.469h.378v-.469z" fill="#8EA2AC"/><path d="M9.993 51.986h-.378v.469h.378v-.469zM16.42 51.517h-.377v.471h.378v-.47zM16.042 51.517h-.378v.471h.378v-.47zM15.664 51.517h-.378v.471h.378v-.47zM15.286 51.517h-.378v.471h.378v-.47zM14.908 51.517h-.378v.471h.378v-.47zM14.53 51.517h-.378v.471h.378v-.47z" fill="#8EA2AC"/><path d="M14.153 51.517h-.378v.471h.378v-.47zM13.773 51.517h-.377v.471h.377v-.47zM13.395 51.517h-.377v.471h.377v-.47z" fill="#8EA2AC"/><path d="M13.018 51.517h-.377v.471h.377v-.47zM12.64 51.517h-.377v.471h.377v-.47zM12.26 51.517h-.377v.471h.378v-.47z" fill="#8EA2AC"/><path d="M11.884 51.517h-.378v.471h.378v-.47zM11.506 51.517h-.378v.471h.378v-.47zM11.128 51.517h-.378v.471h.378v-.47zM10.75 51.517h-.378v.471h.378v-.47zM10.37 51.517h-.377v.471h.378v-.47z" fill="#8EA2AC"/><path d="M9.993 51.517h-.378v.471h.378v-.47zM9.615 51.517h-.378v.471h.378v-.47zM16.799 51.047h-.378v.469h.378v-.47z" fill="#8EA2AC"/><path d="M16.42 51.047h-.377v.469h.378v-.47zM16.042 51.047h-.378v.469h.378v-.47zM15.664 51.047h-.378v.469h.378v-.47zM15.286 51.047h-.378v.469h.378v-.47zM14.908 51.047h-.378v.469h.378v-.47zM14.53 51.047h-.378v.469h.378v-.47z" fill="#8EA2AC"/><path d="M14.153 51.047h-.378v.469h.378v-.47zM13.773 51.047h-.377v.469h.377v-.47zM13.395 51.047h-.377v.469h.377v-.47z" fill="#8EA2AC"/><path d="M13.018 51.047h-.377v.469h.377v-.47zM12.64 51.047h-.377v.469h.377v-.47zM12.26 51.047h-.377v.469h.378v-.47z" fill="#8EA2AC"/><path d="M11.884 51.047h-.378v.469h.378v-.47zM11.506 51.047h-.378v.469h.378v-.47zM11.128 51.047h-.378v.469h.378v-.47zM10.75 51.047h-.378v.469h.378v-.47zM10.37 51.047h-.377v.469h.378v-.47z" fill="#8EA2AC"/><path d="M9.993 51.047h-.378v.469h.378v-.47zM9.615 51.047h-.378v.469h.378v-.47z" fill="#8EA2AC"/><path d="M9.237 51.047H8.86v.469h.378v-.47zM17.177 50.578h-.378v.47h.378v-.47zM16.799 50.578h-.378v.47h.378v-.47z" fill="#8EA2AC"/><path d="M16.42 50.578h-.377v.47h.378v-.47zM16.042 50.578h-.378v.47h.378v-.47zM15.664 50.578h-.378v.47h.378v-.47zM15.286 50.578h-.378v.47h.378v-.47zM14.908 50.578h-.378v.47h.378v-.47zM14.53 50.578h-.378v.47h.378v-.47z" fill="#8EA2AC"/><path d="M14.153 50.578h-.378v.47h.378v-.47zM11.884 50.578h-.378v.47h.378v-.47zM11.506 50.578h-.378v.47h.378v-.47zM11.128 50.578h-.378v.47h.378v-.47zM10.75 50.578h-.378v.47h.378v-.47zM10.37 50.578h-.377v.47h.378v-.47z" fill="#8EA2AC"/><path d="M9.993 50.578h-.378v.47h.378v-.47zM9.615 50.578h-.378v.47h.378v-.47z" fill="#8EA2AC"/><path d="M9.237 50.578H8.86v.47h.378v-.47zM8.86 50.578h-.378v.47h.378v-.47zM17.177 50.107h-.378v.47h.378v-.47zM16.799 50.107h-.378v.47h.378v-.47z" fill="#8EA2AC"/><path d="M16.42 50.107h-.377v.47h.378v-.47zM16.042 50.107h-.378v.47h.378v-.47zM15.664 50.107h-.378v.47h.378v-.47zM15.286 50.107h-.378v.47h.378v-.47zM14.908 50.107h-.378v.47h.378v-.47zM11.128 50.107h-.378v.47h.378v-.47zM10.75 50.107h-.378v.47h.378v-.47zM10.37 50.107h-.377v.47h.378v-.47z" fill="#8EA2AC"/><path d="M9.993 50.107h-.378v.47h.378v-.47zM9.615 50.107h-.378v.47h.378v-.47z" fill="#8EA2AC"/><path d="M9.237 50.107H8.86v.47h.378v-.47zM8.86 50.107h-.378v.47h.378v-.47zM17.553 49.638h-.377v.47h.378v-.47z" fill="#8EA2AC"/><path d="M17.177 49.638h-.378v.47h.378v-.47zM16.799 49.638h-.378v.47h.378v-.47z" fill="#8EA2AC"/><path d="M16.42 49.638h-.377v.47h.378v-.47zM16.042 49.638h-.378v.47h.378v-.47zM15.664 49.638h-.378v.47h.378v-.47zM15.286 49.638h-.378v.47h.378v-.47zM10.75 49.638h-.378v.47h.378v-.47zM10.37 49.638h-.377v.47h.378v-.47z" fill="#8EA2AC"/><path d="M9.993 49.638h-.378v.47h.378v-.47zM9.615 49.638h-.378v.47h.378v-.47z" fill="#8EA2AC"/><path d="M9.237 49.638H8.86v.47h.378v-.47zM8.86 49.638h-.378v.47h.378v-.47zM8.48 49.638h-.377v.47h.377v-.47zM17.553 49.168h-.377v.47h.378v-.47z" fill="#8EA2AC"/><path d="M17.177 49.168h-.378v.47h.378v-.47zM16.799 49.168h-.378v.47h.378v-.47z" fill="#8EA2AC"/><path d="M16.42 49.168h-.377v.47h.378v-.47zM16.042 49.168h-.378v.47h.378v-.47zM15.664 49.168h-.378v.47h.378v-.47zM15.286 49.168h-.378v.47h.378v-.47zM10.75 49.168h-.378v.47h.378v-.47zM10.37 49.168h-.377v.47h.378v-.47z" fill="#8EA2AC"/><path d="M9.993 49.168h-.378v.47h.378v-.47zM9.615 49.168h-.378v.47h.378v-.47z" fill="#8EA2AC"/><path d="M9.237 49.168H8.86v.47h.378v-.47zM8.86 49.168h-.378v.47h.378v-.47zM8.48 49.168h-.377v.47h.377v-.47zM17.553 48.699h-.377v.469h.378v-.469z" fill="#8EA2AC"/><path d="M17.177 48.699h-.378v.469h.378v-.469zM16.799 48.699h-.378v.469h.378v-.469z" fill="#8EA2AC"/><path d="M16.42 48.699h-.377v.469h.378v-.469zM16.042 48.699h-.378v.469h.378v-.469zM15.664 48.699h-.378v.469h.378v-.469zM15.286 48.699h-.378v.469h.378v-.469zM10.75 48.699h-.378v.469h.378v-.469zM10.37 48.699h-.377v.469h.378v-.469z" fill="#8EA2AC"/><path d="M9.993 48.699h-.378v.469h.378v-.469zM9.615 48.699h-.378v.469h.378v-.469z" fill="#8EA2AC"/><path d="M9.237 48.699H8.86v.469h.378v-.469zM8.86 48.699h-.378v.469h.378v-.469zM8.48 48.699h-.377v.469h.377v-.469zM17.553 48.228h-.377v.47h.378v-.47z" fill="#8EA2AC"/><path d="M17.177 48.228h-.378v.47h.378v-.47zM16.799 48.228h-.378v.47h.378v-.47z" fill="#8EA2AC"/><path d="M16.42 48.228h-.377v.47h.378v-.47zM16.042 48.228h-.378v.47h.378v-.47zM15.664 48.228h-.378v.47h.378v-.47zM15.286 48.228h-.378v.47h.378v-.47zM10.75 48.228h-.378v.47h.378v-.47zM10.37 48.228h-.377v.47h.378v-.47z" fill="#8EA2AC"/><path d="M9.993 48.228h-.378v.47h.378v-.47zM9.615 48.228h-.378v.47h.378v-.47z" fill="#8EA2AC"/><path d="M9.237 48.228H8.86v.47h.378v-.47zM8.86 48.228h-.378v.47h.378v-.47zM8.48 48.228h-.377v.47h.377v-.47zM17.553 47.76h-.377v.47h.378v-.47z" fill="#8EA2AC"/><path d="M17.177 47.76h-.378v.47h.378v-.47zM16.799 47.76h-.378v.47h.378v-.47z" fill="#8EA2AC"/><path d="M16.42 47.76h-.377v.47h.378v-.47zM16.042 47.76h-.378v.47h.378v-.47zM15.664 47.76h-.378v.47h.378v-.47zM15.286 47.76h-.378v.47h.378v-.47zM10.75 47.76h-.378v.47h.378v-.47zM10.37 47.76h-.377v.47h.378v-.47z" fill="#8EA2AC"/><path d="M9.993 47.76h-.378v.47h.378v-.47zM9.615 47.76h-.378v.47h.378v-.47z" fill="#8EA2AC"/><path d="M9.237 47.76H8.86v.47h.378v-.47zM8.86 47.76h-.378v.47h.378v-.47zM8.48 47.76h-.377v.47h.377v-.47zM17.553 47.289h-.377v.469h.378v-.47z" fill="#8EA2AC"/><path d="M17.177 47.289h-.378v.469h.378v-.47zM16.799 47.289h-.378v.469h.378v-.47z" fill="#8EA2AC"/><path d="M16.42 47.289h-.377v.469h.378v-.47zM16.042 47.289h-.378v.469h.378v-.47zM15.664 47.289h-.378v.469h.378v-.47zM15.286 47.289h-.378v.469h.378v-.47zM14.908 47.289h-.378v.469h.378v-.47zM11.128 47.289h-.378v.469h.378v-.47zM10.75 47.289h-.378v.469h.378v-.47zM10.37 47.289h-.377v.469h.378v-.47z" fill="#8EA2AC"/><path d="M9.993 47.289h-.378v.469h.378v-.47zM9.615 47.289h-.378v.469h.378v-.47z" fill="#8EA2AC"/><path d="M9.237 47.289H8.86v.469h.378v-.47zM8.86 47.289h-.378v.469h.378v-.47zM8.48 47.289h-.377v.469h.377v-.47zM17.177 46.82h-.378v.47h.378v-.47zM16.799 46.82h-.378v.47h.378v-.47z" fill="#8EA2AC"/><path d="M16.42 46.82h-.377v.47h.378v-.47zM16.042 46.82h-.378v.47h.378v-.47zM15.664 46.82h-.378v.47h.378v-.47zM15.286 46.82h-.378v.47h.378v-.47zM14.908 46.82h-.378v.47h.378v-.47zM14.53 46.82h-.378v.47h.378v-.47zM11.506 46.82h-.378v.47h.378v-.47zM11.128 46.82h-.378v.47h.378v-.47zM10.75 46.82h-.378v.47h.378v-.47zM10.37 46.82h-.377v.47h.378v-.47z" fill="#8EA2AC"/><path d="M9.993 46.82h-.378v.47h.378v-.47zM9.615 46.82h-.378v.47h.378v-.47z" fill="#8EA2AC"/><path d="M9.237 46.82H8.86v.47h.378v-.47zM8.86 46.82h-.378v.47h.378v-.47zM16.799 46.35h-.378v.47h.378v-.47z" fill="#8EA2AC"/><path d="M16.42 46.35h-.377v.47h.378v-.47zM16.042 46.35h-.378v.47h.378v-.47zM15.664 46.35h-.378v.47h.378v-.47zM15.286 46.35h-.378v.47h.378v-.47zM14.908 46.35h-.378v.47h.378v-.47zM14.53 46.35h-.378v.47h.378v-.47z" fill="#8EA2AC"/><path d="M14.153 46.35h-.378v.47h.378v-.47zM13.773 46.35h-.377v.47h.377v-.47zM13.395 46.35h-.377v.47h.377v-.47z" fill="#8EA2AC"/><path d="M13.018 46.35h-.377v.47h.377v-.47zM12.64 46.35h-.377v.47h.377v-.47zM12.26 46.35h-.377v.47h.378v-.47z" fill="#8EA2AC"/><path d="M11.884 46.35h-.378v.47h.378v-.47zM11.506 46.35h-.378v.47h.378v-.47zM11.128 46.35h-.378v.47h.378v-.47zM10.75 46.35h-.378v.47h.378v-.47z" fill="#8EA2AC"/><path d="M15.664 46.35h-5.67v5.166h5.67V46.35zM9.993 46.35h-.378v.47h.378v-.47zM9.615 46.35h-.378v.47h.378v-.47z" fill="#8EA2AC"/><path d="M9.237 46.35H8.86v.47h.378v-.47zM16.42 45.88h-.377v.47h.378v-.47zM16.042 45.88h-.378v.47h.378v-.47zM15.664 45.88h-.378v.47h.378v-.47zM15.286 45.88h-.378v.47h.378v-.47zM14.908 45.88h-.378v.47h.378v-.47zM14.53 45.88h-.378v.47h.378v-.47z" fill="#8EA2AC"/><path d="M14.153 45.88h-.378v.47h.378v-.47zM13.773 45.88h-.377v.47h.377v-.47zM13.395 45.88h-.377v.47h.377v-.47z" fill="#8EA2AC"/><path d="M13.018 45.88h-.377v.47h.377v-.47zM12.64 45.88h-.377v.47h.377v-.47zM12.26 45.88h-.377v.47h.378v-.47z" fill="#8EA2AC"/><path d="M11.884 45.88h-.378v.47h.378v-.47zM11.506 45.88h-.378v.47h.378v-.47zM11.128 45.88h-.378v.47h.378v-.47zM10.75 45.88h-.378v.47h.378v-.47zM10.37 45.88h-.377v.47h.378v-.47z" fill="#8EA2AC"/><path d="M9.993 45.88h-.378v.47h.378v-.47zM9.615 45.88h-.378v.47h.378v-.47zM16.042 45.41h-.378v.47h.378v-.47zM15.664 45.41h-.378v.47h.378v-.47zM15.286 45.41h-.378v.47h.378v-.47zM14.908 45.41h-.378v.47h.378v-.47zM14.53 45.41h-.378v.47h.378v-.47z" fill="#8EA2AC"/><path d="M14.153 45.41h-.378v.47h.378v-.47zM13.773 45.41h-.377v.47h.377v-.47zM13.395 45.41h-.377v.47h.377v-.47z" fill="#8EA2AC"/><path d="M13.018 45.41h-.377v.47h.377v-.47zM12.64 45.41h-.377v.47h.377v-.47zM12.26 45.41h-.377v.47h.378v-.47z" fill="#8EA2AC"/><path d="M11.884 45.41h-.378v.47h.378v-.47zM11.506 45.41h-.378v.47h.378v-.47zM11.128 45.41h-.378v.47h.378v-.47zM10.75 45.41h-.378v.47h.378v-.47zM10.37 45.41h-.377v.47h.378v-.47z" fill="#8EA2AC"/><path d="M9.993 45.41h-.378v.47h.378v-.47zM15.664 44.941h-.378v.47h.378v-.47zM15.286 44.941h-.378v.47h.378v-.47zM14.908 44.941h-.378v.47h.378v-.47zM14.53 44.941h-.378v.47h.378v-.47z" fill="#8EA2AC"/><path d="M14.153 44.941h-.378v.47h.378v-.47zM13.773 44.941h-.377v.47h.377v-.47zM13.395 44.941h-.377v.47h.377v-.47z" fill="#8EA2AC"/><path d="M13.018 44.941h-.377v.47h.377v-.47zM12.64 44.941h-.377v.47h.377v-.47zM12.26 44.941h-.377v.47h.378v-.47z" fill="#8EA2AC"/><path d="M11.884 44.941h-.378v.47h.378v-.47zM11.506 44.941h-.378v.47h.378v-.47zM11.128 44.941h-.378v.47h.378v-.47zM10.75 44.941h-.378v.47h.378v-.47zM10.37 44.941h-.377v.47h.378v-.47zM14.908 44.47h-.378v.471h.378v-.47zM14.53 44.47h-.378v.471h.378v-.47z" fill="#8EA2AC"/><path d="M14.153 44.47h-.378v.471h.378v-.47z" fill="#8EA2AC"/><path d="M14.153 44.47h-3.025v.471h3.025v-.47zM11.128 44.47h-.378v.471h.378v-.47z" fill="#8EA2AC"/><path d="M23.069 36.167h-.72v.733h.72v-.733zM23.789 35.433h-.72v.734h.72v-.734zM23.069 35.433h-.72v.734h.72v-.734z" fill="#12A9BE"/><path d="M22.35 35.433h-.721v.734h.72v-.734zM24.508 34.7h-.719v.733h.719V34.7z" fill="#12A9BE"/><path d="M23.789 34.7h-.72v.733h.72V34.7zM23.069 34.7h-.72v.733h.72V34.7z" fill="#12A9BE"/><path d="M22.35 34.7h-.721v.733h.72V34.7zM21.629 34.7h-.719v.733h.719V34.7zM25.227 33.965h-.72v.733h.72v-.733z" fill="#12A9BE"/><path d="M24.508 33.965h-.719v.733h.719v-.733z" fill="#12A9BE"/><path d="M23.789 33.965h-.72v.733h.72v-.733zM23.069 33.965h-.72v.733h.72v-.733z" fill="#12A9BE"/><path d="M22.35 33.965h-.721v.733h.72v-.733zM21.629 33.965h-.719v.733h.719v-.733z" fill="#12A9BE"/><path d="M20.91 33.965h-.719v.733h.72v-.733z" fill="#12A9BE"/><path d="M25.947 33.231h-.72v.734h.72v-.734zM25.227 33.231h-.72v.734h.72v-.734z" fill="#67CBDF"/><path d="M24.508 33.231h-.719v.734h.719v-.734z" fill="#12A9BE"/><path d="M23.789 33.231h-.72v.734h.72v-.734zM23.069 33.231h-.72v.734h.72v-.734z" fill="#12A9BE"/><path d="M22.35 33.231h-.721v.734h.72v-.734zM21.629 33.231h-.719v.734h.719v-.734z" fill="#12A9BE"/><path d="M20.91 33.231h-.719v.734h.72v-.734z" fill="#12A9BE"/><path d="M20.193 33.231h-.72v.734h.72v-.734z" fill="#12A9BE"/><path d="M26.664 32.498h-.719v.733h.72v-.733z" fill="#67CBDF"/><path d="M25.947 32.498h-.72v.733h.72v-.733zM25.227 32.498h-.72v.733h.72v-.733z" fill="#67CBDF"/><path d="M24.508 32.498h-.719v.733h.719v-.733z" fill="#67CBDF"/><path d="M23.789 32.498h-.72v.733h.72v-.733zM23.069 32.498h-.72v.733h.72v-.733z" fill="#12A9BE"/><path d="M22.35 32.498h-.721v.733h.72v-.733zM21.629 32.498h-.719v.733h.719v-.733z" fill="#12A9BE"/><path d="M20.91 32.498h-.719v.733h.72v-.733z" fill="#12A9BE"/><path d="M20.193 32.498h-.72v.733h.72v-.733zM19.472 32.498h-.72v.733h.72v-.733z" fill="#12A9BE"/><path d="M27.385 31.763h-.72v.733h.72v-.733zM26.664 31.763h-.719v.733h.72v-.733z" fill="#67CBDF"/><path d="M25.947 31.763h-.72v.733h.72v-.733zM25.227 31.763h-.72v.733h.72v-.733z" fill="#67CBDF"/><path d="M24.508 31.763h-.719v.733h.719v-.733z" fill="#67CBDF"/><path d="M23.789 31.763h-.72v.733h.72v-.733z" fill="#67CBDF"/><path d="M23.069 31.763h-.72v.733h.72v-.733z" fill="#12A9BE"/><path d="M22.35 31.763h-.721v.733h.72v-.733zM21.629 31.763h-.719v.733h.719v-.733z" fill="#12A9BE"/><path d="M20.91 31.763h-.719v.733h.72v-.733z" fill="#12A9BE"/><path d="M20.193 31.763h-.72v.733h.72v-.733zM19.472 31.763h-.72v.733h.72v-.733z" fill="#12A9BE"/><path d="M18.753 31.763h-.72v.733h.72v-.733z" fill="#12A9BE"/><path d="M28.104 31.03h-.72v.733h.72v-.734z" fill="#67CBDF"/><path d="M27.385 31.03h-.72v.733h.72v-.734zM26.664 31.03h-.719v.733h.72v-.734z" fill="#67CBDF"/><path d="M25.947 31.03h-.72v.733h.72v-.734zM25.227 31.03h-.72v.733h.72v-.734z" fill="#67CBDF"/><path d="M24.508 31.03h-.719v.733h.719v-.734z" fill="#67CBDF"/><path d="M23.789 31.03h-.72v.733h.72v-.734zM23.069 31.03h-.72v.733h.72v-.734z" fill="#67CBDF"/><path d="M22.35 31.03h-.721v.733h.72v-.734zM21.629 31.03h-.719v.733h.719v-.734z" fill="#12A9BE"/><path d="M20.91 31.03h-.719v.733h.72v-.734z" fill="#12A9BE"/><path d="M20.193 31.03h-.72v.733h.72v-.734zM19.472 31.03h-.72v.733h.72v-.734z" fill="#12A9BE"/><path d="M18.753 31.03h-.72v.733h.72v-.734zM18.032 31.03h-.718v.733h.718v-.734z" fill="#12A9BE"/><path d="M28.822 30.296h-.718v.733h.718v-.733zM28.104 30.296h-.72v.733h.72v-.733z" fill="#67CBDF"/><path d="M27.385 30.296h-.72v.733h.72v-.733zM26.664 30.296h-.719v.733h.72v-.733z" fill="#67CBDF"/><path d="M25.947 30.296h-.72v.733h.72v-.733zM25.227 30.296h-.72v.733h.72v-.733z" fill="#67CBDF"/><path d="M24.508 30.296h-.719v.733h.719v-.733z" fill="#67CBDF"/><path d="M23.789 30.296h-.72v.733h.72v-.733zM23.069 30.296h-.72v.733h.72v-.733z" fill="#67CBDF"/><path d="M22.35 30.296h-.721v.733h.72v-.733z" fill="#67CBDF"/><path d="M21.629 30.296h-.719v.733h.719v-.733z" fill="#12A9BE"/><path d="M20.91 30.296h-.719v.733h.72v-.733z" fill="#12A9BE"/><path d="M20.193 30.296h-.72v.733h.72v-.733zM19.472 30.296h-.72v.733h.72v-.733z" fill="#12A9BE"/><path d="M18.753 30.296h-.72v.733h.72v-.733zM18.032 30.296h-.718v.733h.718v-.733zM17.313 30.296h-.72v.733h.72v-.733z" fill="#12A9BE"/><path d="M29.543 29.562h-.72v.734h.72v-.734zM28.822 29.562h-.718v.734h.718v-.734zM28.104 29.562h-.72v.734h.72v-.734z" fill="#67CBDF"/><path d="M27.385 29.562h-.72v.734h.72v-.734zM26.664 29.562h-.719v.734h.72v-.734z" fill="#67CBDF"/><path d="M25.947 29.562h-.72v.734h.72v-.734zM25.227 29.562h-.72v.734h.72v-.734z" fill="#67CBDF"/><path d="M24.508 29.562h-.719v.734h.719v-.734z" fill="#67CBDF"/><path d="M23.789 29.562h-.72v.734h.72v-.734zM23.069 29.562h-.72v.734h.72v-.734z" fill="#67CBDF"/><path d="M22.35 29.562h-.721v.734h.72v-.734zM21.629 29.562h-.719v.734h.719v-.734z" fill="#67CBDF"/><path d="M20.91 29.562h-.719v.734h.72v-.734z" fill="#12A9BE"/><path d="M20.193 29.562h-.72v.734h.72v-.734zM19.472 29.562h-.72v.734h.72v-.734z" fill="#12A9BE"/><path d="M18.753 29.562h-.72v.734h.72v-.734zM18.032 29.562h-.718v.734h.718v-.734zM17.313 29.562h-.72v.734h.72v-.734zM16.593 29.562h-.719v.734h.719v-.734z" fill="#12A9BE"/><path d="M30.262 28.829h-.719v.733h.719v-.733zM29.543 28.829h-.72v.733h.72v-.733zM28.822 28.829h-.718v.733h.718v-.733zM28.104 28.829h-.72v.733h.72v-.733z" fill="#67CBDF"/><path d="M27.385 28.829h-.72v.733h.72v-.733zM26.664 28.829h-.719v.733h.72v-.733z" fill="#67CBDF"/><path d="M25.947 28.829h-.72v.733h.72v-.733zM25.227 28.829h-.72v.733h.72v-.733z" fill="#67CBDF"/><path d="M24.508 28.829h-.719v.733h.719v-.733z" fill="#67CBDF"/><path d="M23.789 28.829h-.72v.733h.72v-.733zM23.069 28.829h-.72v.733h.72v-.733z" fill="#67CBDF"/><path d="M22.35 28.829h-.721v.733h.72v-.733zM21.629 28.829h-.719v.733h.719v-.733z" fill="#67CBDF"/><path d="M20.91 28.829h-.719v.733h.72v-.733z" fill="#67CBDF"/><path d="M20.193 28.829h-.72v.733h.72v-.733zM19.472 28.829h-.72v.733h.72v-.733z" fill="#12A9BE"/><path d="M18.753 28.829h-.72v.733h.72v-.733zM18.032 28.829h-.718v.733h.718v-.733zM17.313 28.829h-.72v.733h.72v-.733zM16.593 28.829h-.719v.733h.719v-.733z" fill="#12A9BE"/><path d="M15.874 28.829h-.719v.733h.72v-.733z" fill="#12A9BE"/><path d="M30.982 28.094h-.72v.735h.72v-.735zM30.262 28.094h-.719v.735h.719v-.735zM29.543 28.094h-.72v.735h.72v-.735zM28.822 28.094h-.718v.735h.718v-.735zM28.104 28.094h-.72v.735h.72v-.735z" fill="#67CBDF"/><path d="M27.385 28.094h-.72v.735h.72v-.735zM26.664 28.094h-.719v.735h.72v-.735z" fill="#67CBDF"/><path d="M25.947 28.094h-.72v.735h.72v-.735zM25.227 28.094h-.72v.735h.72v-.735z" fill="#67CBDF"/><path d="M24.508 28.094h-.719v.735h.719v-.735z" fill="#67CBDF"/><path d="M23.789 28.094h-.72v.735h.72v-.735zM23.069 28.094h-.72v.735h.72v-.735z" fill="#67CBDF"/><path d="M22.35 28.094h-.721v.735h.72v-.735zM21.629 28.094h-.719v.735h.719v-.735z" fill="#67CBDF"/><path d="M20.91 28.094h-.719v.735h.72v-.735z" fill="#67CBDF"/><path d="M20.193 28.094h-.72v.735h.72v-.735z" fill="#67CBDF"/><path d="M19.472 28.094h-.72v.735h.72v-.735z" fill="#12A9BE"/><path d="M18.753 28.094h-.72v.735h.72v-.735zM18.032 28.094h-.718v.735h.718v-.735zM17.313 28.094h-.72v.735h.72v-.735zM16.593 28.094h-.719v.735h.719v-.735z" fill="#12A9BE"/><path d="M15.874 28.094h-.719v.735h.72v-.735z" fill="#12A9BE"/><path d="M15.157 28.094h-.72v.735h.72v-.735z" fill="#12A9BE"/><path d="M30.262 27.36h-.719v.734h.719v-.734zM29.543 27.36h-.72v.734h.72v-.734zM28.822 27.36h-.718v.734h.718v-.734zM28.104 27.36h-.72v.734h.72v-.734z" fill="#67CBDF"/><path d="M27.385 27.36h-.72v.734h.72v-.734zM26.664 27.36h-.719v.734h.72v-.734z" fill="#67CBDF"/><path d="M25.947 27.36h-.72v.734h.72v-.734zM25.227 27.36h-.72v.734h.72v-.734z" fill="#67CBDF"/><path d="M24.508 27.36h-.719v.734h.719v-.734z" fill="#67CBDF"/><path d="M23.789 27.36h-.72v.734h.72v-.734zM23.069 27.36h-.72v.734h.72v-.734z" fill="#67CBDF"/><path d="M22.35 27.36h-.721v.734h.72v-.734zM21.629 27.36h-.719v.734h.719v-.734z" fill="#67CBDF"/><path d="M20.91 27.36h-.719v.734h.72v-.734z" fill="#67CBDF"/><path d="M20.193 27.36h-.72v.734h.72v-.734zM19.472 27.36h-.72v.734h.72v-.734z" fill="#67CBDF"/><path d="M18.753 27.36h-.72v.734h.72v-.734zM18.032 27.36h-.718v.734h.718v-.734zM17.313 27.36h-.72v.734h.72v-.734zM16.593 27.36h-.719v.734h.719v-.734z" fill="#12A9BE"/><path d="M15.874 27.36h-.719v.734h.72v-.734z" fill="#12A9BE"/><path d="M29.543 26.627h-.72v.733h.72v-.733zM28.822 26.627h-.718v.733h.718v-.733zM28.104 26.627h-.72v.733h.72v-.733z" fill="#67CBDF"/><path d="M27.385 26.627h-.72v.733h.72v-.733zM26.664 26.627h-.719v.733h.72v-.733z" fill="#67CBDF"/><path d="M25.947 26.627h-.72v.733h.72v-.733zM25.227 26.627h-.72v.733h.72v-.733z" fill="#67CBDF"/><path d="M24.508 26.627h-.719v.733h.719v-.733z" fill="#67CBDF"/><path d="M23.789 26.627h-.72v.733h.72v-.733zM23.069 26.627h-.72v.733h.72v-.733z" fill="#67CBDF"/><path d="M22.35 26.627h-.721v.733h.72v-.733zM21.629 26.627h-.719v.733h.719v-.733z" fill="#67CBDF"/><path d="M20.91 26.627h-.719v.733h.72v-.733z" fill="#67CBDF"/><path d="M20.193 26.627h-.72v.733h.72v-.733zM19.472 26.627h-.72v.733h.72v-.733z" fill="#67CBDF"/><path d="M18.753 26.627h-.72v.733h.72v-.733z" fill="#67CBDF"/><path d="M18.032 26.627h-.718v.733h.718v-.733zM17.313 26.627h-.72v.733h.72v-.733zM16.593 26.627h-.719v.733h.719v-.733z" fill="#12A9BE"/><path d="M28.822 25.892h-.718v.733h.718v-.733zM28.104 25.892h-.72v.733h.72v-.733z" fill="#67CBDF"/><path d="M27.385 25.892h-.72v.733h.72v-.733zM26.664 25.892h-.719v.733h.72v-.733z" fill="#67CBDF"/><path d="M25.947 25.892h-.72v.733h.72v-.733zM25.227 25.892h-.72v.733h.72v-.733z" fill="#67CBDF"/><path d="M24.508 25.892h-.719v.733h.719v-.733z" fill="#67CBDF"/><path d="M23.789 25.892h-.72v.733h.72v-.733zM23.069 25.892h-.72v.733h.72v-.733z" fill="#67CBDF"/><path d="M22.35 25.892h-.721v.733h.72v-.733zM21.629 25.892h-.719v.733h.719v-.733z" fill="#67CBDF"/><path d="M20.91 25.892h-.719v.733h.72v-.733z" fill="#67CBDF"/><path d="M20.193 25.892h-.72v.733h.72v-.733zM19.472 25.892h-.72v.733h.72v-.733z" fill="#67CBDF"/><path d="M18.753 25.892h-.72v.733h.72v-.733zM18.032 25.892h-.718v.733h.718v-.733z" fill="#67CBDF"/><path d="M17.313 25.892h-.72v.733h.72v-.733z" fill="#12A9BE"/><path d="M28.104 25.158h-.72v.734h.72v-.734z" fill="#67CBDF"/><path d="M27.385 25.158h-.72v.734h.72v-.734zM26.664 25.158h-.719v.734h.72v-.734z" fill="#67CBDF"/><path d="M25.947 25.158h-.72v.734h.72v-.734zM25.227 25.158h-.72v.734h.72v-.734z" fill="#67CBDF"/><path d="M24.508 25.158h-.719v.734h.719v-.734z" fill="#67CBDF"/><path d="M23.789 25.158h-.72v.734h.72v-.734zM23.069 25.158h-.72v.734h.72v-.734z" fill="#67CBDF"/><path d="M22.35 25.158h-.721v.734h.72v-.734zM21.629 25.158h-.719v.734h.719v-.734z" fill="#67CBDF"/><path d="M20.91 25.158h-.719v.734h.72v-.734z" fill="#67CBDF"/><path d="M20.193 25.158h-.72v.734h.72v-.734zM19.472 25.158h-.72v.734h.72v-.734z" fill="#67CBDF"/><path d="M18.753 25.158h-.72v.734h.72v-.734zM18.032 25.158h-.718v.734h.718v-.734zM27.385 24.425h-.72v.733h.72v-.733zM26.664 24.425h-.719v.733h.72v-.733z" fill="#67CBDF"/><path d="M25.947 24.425h-.72v.733h.72v-.733zM25.227 24.425h-.72v.733h.72v-.733z" fill="#67CBDF"/><path d="M24.508 24.425h-.719v.733h.719v-.733z" fill="#67CBDF"/><path d="M23.789 24.425h-.72v.733h.72v-.733zM23.069 24.425h-.72v.733h.72v-.733z" fill="#67CBDF"/><path d="M22.35 24.425h-.721v.733h.72v-.733zM21.629 24.425h-.719v.733h.719v-.733z" fill="#67CBDF"/><path d="M20.91 24.425h-.719v.733h.72v-.733z" fill="#67CBDF"/><path d="M20.193 24.425h-.72v.733h.72v-.733zM19.472 24.425h-.72v.733h.72v-.733z" fill="#67CBDF"/><path d="M18.753 24.425h-.72v.733h.72v-.733zM26.664 23.69h-.719v.733h.72v-.733z" fill="#67CBDF"/><path d="M25.947 23.69h-.72v.733h.72v-.733zM25.227 23.69h-.72v.733h.72v-.733z" fill="#67CBDF"/><path d="M24.508 23.69h-.719v.733h.719v-.733z" fill="#67CBDF"/><path d="M23.789 23.69h-.72v.733h.72v-.733zM23.069 23.69h-.72v.733h.72v-.733z" fill="#67CBDF"/><path d="M22.35 23.69h-.721v.733h.72v-.733zM21.629 23.69h-.719v.733h.719v-.733z" fill="#67CBDF"/><path d="M20.91 23.69h-.719v.733h.72v-.733z" fill="#67CBDF"/><path d="M20.193 23.69h-.72v.733h.72v-.733zM19.472 23.69h-.72v.733h.72v-.733zM25.947 22.956h-.72v.734h.72v-.734zM25.227 22.956h-.72v.734h.72v-.734z" fill="#67CBDF"/><path d="M24.508 22.956h-.719v.734h.719v-.734z" fill="#67CBDF"/><path d="M23.789 22.956h-.72v.734h.72v-.734zM23.069 22.956h-.72v.734h.72v-.734z" fill="#67CBDF"/><path d="M22.35 22.956h-.721v.734h.72v-.734zM21.629 22.956h-.719v.734h.719v-.734z" fill="#67CBDF"/><path d="M20.91 22.956h-.719v.734h.72v-.734z" fill="#67CBDF"/><path d="M20.193 22.956h-.72v.734h.72v-.734zM25.227 22.223h-.72v.733h.72v-.733z" fill="#67CBDF"/><path d="M24.508 22.223h-.719v.733h.719v-.733z" fill="#67CBDF"/><path d="M23.789 22.223h-.72v.733h.72v-.733zM23.069 22.223h-.72v.733h.72v-.733z" fill="#67CBDF"/><path d="M22.35 22.223h-.721v.733h.72v-.733zM21.629 22.223h-.719v.733h.719v-.733z" fill="#67CBDF"/><path d="M20.91 22.223h-.719v.733h.72v-.733zM24.508 21.49h-.719v.733h.719v-.734z" fill="#67CBDF"/><path d="M23.789 21.49h-.72v.733h.72v-.734zM23.069 21.49h-.72v.733h.72v-.734z" fill="#67CBDF"/><path d="M22.35 21.49h-.721v.733h.72v-.734zM21.629 21.49h-.719v.733h.719v-.734zM23.789 20.754h-.72v.733h.72v-.733zM23.069 20.754h-.72v.733h.72v-.733z" fill="#67CBDF"/><path d="M22.35 20.754h-.721v.733h.72v-.733zM23.067 20.02h-.718v.734h.718v-.733z" fill="#67CBDF"/><path fill="#FCCB28" d="M42 13.284h3v2.866h-3zM45 6.597h3v2.866h-3zM41 .866h3v2.866h-3z"/></svg>
