<svg width="196" height="50" viewBox="0 0 196 50" fill="none" xmlns="http://www.w3.org/2000/svg">
    <path fill-rule="evenodd" clip-rule="evenodd" d="M188.248 41.4119V41.4046L191.791 41.411V41.4183L188.248 41.4119ZM188.248 49.9934L191.778 49.9998L191.785 45.6908V45.6835L195.792 45.6908L195.799 41.4183L195.806 37.0362L195.813 32.6761L195.82 28.294H195.813L195.82 23.9339L195.826 19.5519L195.833 15.1698L191.826 15.1625H191.819L191.826 10.89L188.248 10.8836V6.46416H159.28H8.27484V6.47159L4.20039 6.4644L4.19347 10.8464L0.0346588 10.8391L0.0277207 15.1116L0.0207932 19.4937H0.0277207L0.0207932 23.8757L0.0138657 28.2359L0.00692754 32.6252L0 36.9853H0.00692754L0 41.3674L4.15881 41.3747L4.15187 45.6399L8.27484 45.6472V49.9998H32.9742L33.111 50V49.9998H37.1128L37.249 50V49.9998L187.709 49.9998L188.248 49.9998V49.9934ZM4.13752 36.9853H0.00692754L4.13752 36.9926V36.9853ZM191.798 32.6688H191.805L191.812 28.2867H191.805L191.798 32.6688Z" fill="#8C1821"/>
    <path fill-rule="evenodd" clip-rule="evenodd" d="M0 34.903L0.00692754 30.5209L4.13759 30.5282V30.5209H0.00692754H0L0.00692754 26.1608L0.0138657 21.7715L0.0207932 17.4113L0.0277207 13.0293H0.0207932L0.0277207 8.64723L0.0346589 4.37474L4.19347 4.38204L4.2004 0L8.27491 0.00719133V0H159.28H188.248V4.41944L191.826 4.42586L191.819 8.69836H191.826L195.833 8.70566L195.826 13.0877L195.82 17.4697L195.813 21.8299H195.82L195.813 26.2119L195.806 30.5721L195.799 34.9541L195.792 39.2266L191.785 39.2193V39.2266L191.778 43.5356L188.248 43.5293V43.5356H187.709H37.2491H33.1111H8.27491V39.1828L4.15187 39.1755L4.15881 34.9103L0 34.903ZM188.248 34.9477L191.792 34.9541V34.9468L188.248 34.9404V34.9477ZM191.798 26.2046H191.805L191.812 21.8226H191.805L191.798 26.2046Z" fill="#BE1E2D"/>
    <path d="M14.1667 31.4981L14.1709 29.0626L16.6798 29.0667L16.6756 31.5022L14.1667 31.4981ZM14.1709 29.0626L14.1751 26.5647L16.684 26.5688L16.6798 29.0667L14.1709 29.0626ZM14.1709 26.5647L14.1751 24.0792L16.684 24.0834L16.6798 26.5688L14.1709 26.5647ZM14.1751 24.0792L14.1793 21.5813L16.6881 21.5855L16.684 24.0834L14.1751 24.0792ZM14.1793 21.5813L14.1835 19.0959L16.6923 19.1001L16.6881 21.5855L14.1793 21.5813ZM14.1835 19.0959L14.1877 16.598L16.6965 16.6021L16.6923 19.1001L14.1835 19.0959ZM14.1835 16.598L14.1877 14.1001L16.6965 14.1042L16.6923 16.6021L14.1835 16.598ZM14.1877 14.1001L14.1918 11.6646L16.7007 11.6688L16.6965 14.1042L14.1877 14.1001ZM14.1918 11.6646L14.196 9.16667L16.7049 9.17083L16.7007 11.6688L14.1918 11.6646ZM19.1719 31.5064L19.1677 33.9668L16.6714 33.9627L16.6756 31.5022L19.1719 31.5064ZM16.6756 31.5022L16.6798 29.0667L19.1761 29.0709L19.1719 31.5064L16.6756 31.5022ZM16.7007 11.6688L16.7049 9.17083L19.2012 9.175L19.197 11.6729L16.7007 11.6688ZM21.6807 31.5105L21.6766 33.971L19.1677 33.9668L19.1719 31.5064L21.6807 31.5105ZM19.1719 31.5064L19.1761 29.0709L21.6849 29.0751L21.6807 31.5105L19.1719 31.5064ZM19.197 11.6729L19.2012 9.175L21.71 9.17916L21.7058 11.6771L19.197 11.6729ZM24.1269 31.5105L24.1227 33.971L21.6766 33.9668L21.6807 31.5064L24.1269 31.5105ZM21.6807 31.5105L21.6849 29.0751L24.131 29.0792L24.1269 31.5147L21.6807 31.5105ZM21.6849 29.0751L21.6891 26.5772L24.1352 26.5813L24.131 29.0792L21.6849 29.0751ZM21.6933 21.5897L21.6975 19.1042L24.1436 19.1084L24.1394 21.5938L21.6933 21.5897ZM21.6975 19.1042L21.7016 16.6063L24.1478 16.6105L24.1436 19.1084L21.6975 19.1042ZM21.7016 16.6063L21.7058 14.1084L24.1519 14.1125L24.1478 16.6105L21.7016 16.6063ZM21.7016 14.1084L21.7058 11.6729L24.1519 11.6771L24.1478 14.1125L21.7016 14.1084ZM21.7058 11.6729L21.71 9.175L24.1561 9.17916L24.1519 11.6771L21.7058 11.6729ZM26.6357 31.5147L26.6315 33.9752L24.1227 33.971L24.1269 31.5105L26.6357 31.5147ZM24.1269 31.5105L24.131 29.0751L26.6399 29.0792L26.6357 31.5147L24.1269 31.5105ZM24.131 29.0751L24.1352 26.5772L26.6441 26.5813L26.6399 29.0792L24.131 29.0751ZM24.1352 26.5772L24.1394 24.0917L26.6482 24.0959L26.6441 26.5813L24.1352 26.5772ZM24.1436 19.1084L24.1478 16.6105L26.6566 16.6146L26.6524 19.1125L24.1436 19.1084ZM24.1478 16.6105L24.1519 14.1125L26.6608 14.1167L26.6566 16.6146L24.1478 16.6105ZM24.1519 14.1125L24.1561 11.6771L26.665 11.6812L26.6608 14.1167L24.1519 14.1125ZM26.6357 31.5147L26.6399 29.0792L29.1487 29.0834L29.1445 31.5189L26.6357 31.5147ZM26.6399 29.0792L26.6441 26.5813L29.1529 26.5855L29.1487 29.0834L26.6399 29.0792ZM26.6482 21.598L26.6524 19.1125L29.1613 19.1167L29.1571 21.6021L26.6482 21.598ZM26.6524 19.1125L26.6566 16.6146L29.1655 16.6188L29.1613 19.1167L26.6524 19.1125ZM26.6566 16.6146L26.6608 14.1167L29.1696 14.1209L29.1655 16.6188L26.6566 16.6146ZM26.6608 14.1167L26.665 11.6812L29.1738 11.6854L29.1696 14.1209L26.6608 14.1167ZM26.6608 11.6812L26.665 9.18332L29.1738 9.18749L29.1696 11.6854L26.6608 11.6812ZM31.6408 31.523L31.6367 33.9835L29.1404 33.9793L29.1445 31.5189L31.6408 31.523ZM29.1445 31.5189L29.1487 29.0834L31.645 29.0876L31.6408 31.523L29.1445 31.5189ZM29.1696 11.6812L29.1738 9.18332L31.6701 9.18749L31.6659 11.6854L29.1696 11.6812ZM34.1497 31.5272L34.1455 33.9876L31.6367 33.9835L31.6408 31.523L34.1497 31.5272ZM31.6408 31.523L31.645 29.0876L34.1539 29.0917L34.1497 31.5272L31.6408 31.523ZM31.6659 11.6854L31.6701 9.18749L34.179 9.19165L34.1748 11.6896L31.6659 11.6854ZM36.646 31.5272L36.6418 33.9876L34.1455 33.9835L34.1497 31.523L36.646 31.5272ZM34.1497 31.5272L34.1539 29.0917L36.6502 29.0959L36.646 31.5314L34.1497 31.5272ZM34.1539 29.0876L34.1581 26.5896L36.6544 26.5938L36.6502 29.0917L34.1539 29.0876ZM34.1581 26.5896L34.1622 24.1042L36.6585 24.1084L36.6544 26.5938L34.1581 26.5896ZM34.1622 24.1042L34.1664 21.6063L36.6627 21.6105L36.6585 24.1084L34.1622 24.1042ZM34.1622 21.6063L34.1664 19.1209L36.6627 19.125L36.6585 21.6105L34.1622 21.6063ZM34.1664 19.1209L34.1706 16.623L36.6669 16.6271L36.6627 19.125L34.1664 19.1209ZM34.1706 16.623L34.1748 14.125L36.6711 14.1292L36.6669 16.6271L34.1706 16.623ZM34.1748 14.125L34.179 11.6896L36.6753 11.6937L36.6711 14.1292L34.1748 14.125ZM34.1748 11.6896L34.179 9.19165L36.6753 9.19581L36.6711 11.6937L34.1748 11.6896ZM39.1047 31.5314L39.1005 33.9918L36.6418 33.9876L36.646 31.5272L39.1047 31.5314ZM36.646 31.5272L36.6502 29.0917L39.1088 29.0959L39.1047 31.5314L36.646 31.5272ZM36.6502 29.0917L36.6544 26.5938L39.113 26.598L39.1088 29.0959L36.6502 29.0917ZM36.6544 26.5938L36.6585 24.1084L39.1172 24.1125L39.113 26.598L36.6544 26.5938ZM36.6585 24.1084L36.6627 21.6105L39.1214 21.6146L39.1172 24.1125L36.6585 24.1084ZM36.6585 21.6105L36.6627 19.125L39.1214 19.1292L39.1172 21.6146L36.6585 21.6105ZM36.6627 19.125L36.6669 16.6271L39.1256 16.6313L39.1214 19.1292L36.6627 19.125ZM36.6669 16.6271L36.6711 14.1292L39.1297 14.1334L39.1256 16.6313L36.6669 16.6271ZM36.6711 14.1292L36.6753 11.6937L39.1339 11.6979L39.1297 14.1334L36.6711 14.1292Z" fill="white"/>
    <path d="M36.646 31.5272L36.6502 29.0917L39.159 29.0959L39.1548 31.5314L36.646 31.5272ZM36.6502 29.0917L36.6544 26.5938L39.1632 26.598L39.159 29.0959L36.6502 29.0917ZM36.6544 26.5938L36.6585 24.1084L39.1674 24.1125L39.1632 26.598L36.6544 26.5938ZM36.6585 24.1084L36.6627 21.6105L39.1716 21.6146L39.1674 24.1125L36.6585 24.1084ZM36.6585 21.6105L36.6627 19.125L39.1716 19.1292L39.1674 21.6146L36.6585 21.6105ZM36.6627 19.125L36.6669 16.6271L39.1757 16.6313L39.1716 19.1292L36.6627 19.125ZM36.6669 16.6271L36.6711 14.1292L39.1799 14.1334L39.1757 16.6313L36.6669 16.6271ZM36.6711 14.1292L36.6753 11.6937L39.1841 11.6979L39.1799 14.1334L36.6711 14.1292ZM36.6711 11.6937L36.6753 9.19582L39.1841 9.19998L39.1799 11.6979L36.6711 11.6937ZM41.6511 31.5355L41.647 33.996L39.1507 33.9918L39.1548 31.5314L41.6511 31.5355ZM39.1548 31.5314L39.159 29.0959L41.6553 29.1001L41.6511 31.5355L39.1548 31.5314ZM39.1799 11.6979L39.1841 9.19998L41.6804 9.20414L41.6762 11.7021L39.1799 11.6979ZM44.16 31.5355L44.1558 33.996L41.647 33.9918L41.6511 31.5314L44.16 31.5355ZM41.6511 31.5355L41.6553 29.1001L44.1642 29.1042L44.16 31.5397L41.6511 31.5355ZM41.6762 11.6979L41.6804 9.19998L44.1893 9.20414L44.1851 11.7021L41.6762 11.6979ZM46.6061 31.5397L46.6019 34.0001L44.1558 33.996L44.16 31.5355L46.6061 31.5397ZM44.16 31.5355L44.1642 29.1001L46.6103 29.1042L46.6061 31.5397L44.16 31.5355ZM44.1642 29.1001L44.1683 26.6021L46.6145 26.6063L46.6103 29.1042L44.1642 29.1001ZM44.1683 26.6021L44.1725 24.1167L46.6186 24.1209L46.6145 26.6063L44.1683 26.6021ZM44.1725 24.1167L44.1767 21.6188L46.6228 21.623L46.6186 24.1209L44.1725 24.1167ZM44.1725 21.6188L44.1767 19.1334L46.6228 19.1375L46.6186 21.623L44.1725 21.6188ZM44.1767 19.1334L44.1809 16.6354L46.627 16.6396L46.6228 19.1375L44.1767 19.1334ZM44.1809 16.6354L44.1851 14.1375L46.6312 14.1417L46.627 16.6396L44.1809 16.6354ZM44.1851 14.1375L44.1893 11.7021L46.6354 11.7062L46.6312 14.1417L44.1851 14.1375ZM44.1851 11.7021L44.1893 9.20414L46.6354 9.20831L46.6312 11.7062L44.1851 11.7021ZM49.1149 31.5439L49.1108 34.0043L46.6019 34.0001L46.6061 31.5397L49.1149 31.5439ZM46.6061 31.5397L46.6103 29.1042L49.1191 29.1084L49.1149 31.5439L46.6061 31.5397ZM46.6103 29.1042L46.6145 26.6063L49.1233 26.6105L49.1191 29.1084L46.6103 29.1042ZM46.6145 26.6063L46.6186 24.1209L49.1275 24.125L49.1233 26.6105L46.6145 26.6063ZM46.6186 24.1209L46.6228 21.623L49.1317 21.6271L49.1275 24.125L46.6186 24.1209ZM46.6228 21.623L46.627 19.1375L49.1359 19.1417L49.1317 21.6271L46.6228 21.623ZM46.6228 19.1375L46.627 16.6396L49.1359 16.6438L49.1317 19.1417L46.6228 19.1375ZM46.627 16.6396L46.6312 14.1417L49.14 14.1459L49.1359 16.6438L46.627 16.6396ZM46.6312 14.1417L46.6354 11.7062L49.1442 11.7104L49.14 14.1459L46.6312 14.1417Z" fill="white"/>
    <path d="M46.627 16.6396L46.6311 14.1417L49.14 14.1459L49.1358 16.6438L46.627 16.6396ZM46.6311 14.1417L46.6353 11.7062L49.1442 11.7104L49.14 14.1459L46.6311 14.1417ZM46.6311 11.7062L46.6353 9.20831L49.1442 9.21248L49.14 11.7104L46.6311 11.7062ZM49.1358 16.6438L49.14 14.1459L51.6363 14.15L51.6321 16.6479L49.1358 16.6438ZM49.14 11.7062L49.1442 9.20831L51.6405 9.21248L51.6363 11.7104L49.14 11.7062ZM51.6154 31.548L51.6196 29.1126L54.1284 29.1167L54.1242 31.5522L51.6154 31.548ZM51.6154 29.1126L51.6196 26.6146L54.1284 26.6188L54.1242 29.1167L51.6154 29.1126ZM51.6196 26.6146L51.6237 24.1292L54.1326 24.1334L54.1284 26.6188L51.6196 26.6146ZM51.6237 24.125L51.6279 21.6271L54.1368 21.6313L54.1326 24.1292L51.6237 24.125ZM51.6279 21.6271L51.6321 19.1417L54.1409 19.1459L54.1368 21.6313L51.6279 21.6271ZM51.6279 19.1417L51.6321 16.6438L54.1409 16.6479L54.1368 19.1459L51.6279 19.1417ZM51.6321 16.6438L51.6363 14.1459L54.1451 14.15L54.1409 16.6479L51.6321 16.6438ZM51.6405 11.7104L51.6446 9.21248L54.1535 9.21664L54.1493 11.7146L51.6405 11.7104ZM56.5703 31.5522L56.5662 34.0126L54.12 34.0085L54.1242 31.548L56.5703 31.5522ZM54.1242 31.548L54.1284 29.1126L56.5745 29.1167L56.5703 31.5522L54.1242 31.548ZM54.1493 11.7146L54.1535 9.21664L56.5996 9.2208L56.5954 11.7187L54.1493 11.7146ZM59.0792 31.5564L59.075 34.0168L56.5662 34.0126L56.5703 31.5522L59.0792 31.5564ZM56.5703 31.5522L56.5745 29.1167L59.0834 29.1209L59.0792 31.5564L56.5703 31.5522ZM56.5954 11.7187L56.5996 9.2208L59.1085 9.22497L59.1043 11.7229L56.5954 11.7187ZM61.588 31.5605L61.5838 34.021L59.075 34.0168L59.0792 31.5564L61.588 31.5605ZM59.0792 31.5564L59.0834 29.1209L61.5922 29.125L61.588 31.5605L59.0792 31.5564ZM59.0834 29.1209L59.0875 26.623L61.5964 26.6271L61.5922 29.125L59.0834 29.1209ZM59.0834 26.623L59.0875 24.1375L61.5964 24.1417L61.5922 26.6271L59.0834 26.623ZM59.0875 24.1375L59.0917 21.6396L61.6006 21.6438L61.5964 24.1417L59.0875 24.1375ZM59.0917 21.6396L59.0959 19.1542L61.6047 19.1584L61.6006 21.6438L59.0917 21.6396ZM59.0917 19.1542L59.0959 16.6563L61.6047 16.6604L61.6006 19.1584L59.0917 19.1542ZM59.0959 16.6563L59.1001 14.1584L61.6089 14.1625L61.6047 16.6604L59.0959 16.6563ZM59.1043 11.7187L59.1085 9.2208L61.6173 9.22497L61.6131 11.7229L59.1043 11.7187ZM64.0843 31.5605L64.0801 34.021L61.5838 34.0168L61.588 31.5564L64.0843 31.5605ZM61.588 31.5605L61.5922 29.125L64.0885 29.1292L64.0843 31.5647L61.588 31.5605ZM61.5922 29.125L61.5964 26.6271L64.0927 26.6313L64.0885 29.1292L61.5922 29.125ZM61.5922 26.6271L61.5964 24.1417L64.0927 24.1459L64.0885 26.6313L61.5922 26.6271ZM61.5964 24.1375L61.6006 21.6396L64.0969 21.6438L64.0927 24.1417L61.5964 24.1375ZM61.6006 21.6396L61.6047 19.1542L64.101 19.1584L64.0969 21.6438L61.6006 21.6396ZM61.6006 19.1542L61.6047 16.6563L64.101 16.6604L64.0969 19.1584L61.6006 19.1542ZM61.6047 16.6563L61.6089 14.1584L64.1052 14.1625L64.101 16.6604L61.6047 16.6563ZM61.6131 11.7229L61.6173 9.22497L64.1136 9.22913L64.1094 11.727L61.6131 11.7229ZM64.101 19.1584L64.1052 16.6604L66.6141 16.6646L66.6099 19.1625L64.101 19.1584ZM64.101 16.6604L64.1052 14.1625L66.6141 14.1667L66.6099 16.6646L64.101 16.6604ZM64.1052 14.1625L64.1094 11.727L66.6183 11.7312L66.6141 14.1667L64.1052 14.1625ZM64.1094 11.727L64.1136 9.22913L66.6224 9.23329L66.6183 11.7312L64.1094 11.727ZM66.6099 19.1625L66.6141 16.6646L69.1104 16.6688L69.1062 19.1667L66.6099 19.1625ZM66.6099 16.6646L66.6141 14.1667L69.1104 14.1708L69.1062 16.6688L66.6099 16.6646ZM66.6141 14.1667L66.6183 11.7312L69.1146 11.7354L69.1104 14.1708L66.6141 14.1667Z" fill="white"/>
    <path d="M66.593 31.5647L66.5972 29.1292L69.106 29.1334L69.1019 31.5688L66.593 31.5647ZM66.5972 29.1292L66.6014 26.6313L69.1102 26.6354L69.106 29.1334L66.5972 29.1292ZM66.5972 26.6313L66.6014 24.1458L69.1102 24.15L69.106 26.6354L66.5972 26.6313ZM66.6014 24.1458L66.6056 21.6479L69.1144 21.6521L69.1102 24.15L66.6014 24.1458ZM66.6056 21.6479L66.6097 19.1625L69.1186 19.1667L69.1144 21.6521L66.6056 21.6479ZM66.6097 19.1625L66.6139 16.6646L69.1228 16.6687L69.1186 19.1667L66.6097 19.1625ZM66.6097 16.6646L66.6139 14.1667L69.1228 14.1708L69.1186 16.6687L66.6097 16.6646ZM66.6139 14.1667L66.6181 11.7312L69.127 11.7354L69.1228 14.1708L66.6139 14.1667ZM66.6181 11.7312L66.6223 9.23328L69.1311 9.23744L69.127 11.7354L66.6181 11.7312ZM71.5982 31.573L71.594 34.0334L69.0977 34.0293L69.1019 31.5688L71.5982 31.573ZM69.1019 31.5688L69.106 29.1334L71.6023 29.1375L71.5982 31.573L69.1019 31.5688ZM69.127 11.7354L69.1311 9.23744L71.6274 9.2416L71.6233 11.7395L69.127 11.7354ZM74.107 31.573L74.1028 34.0334L71.594 34.0293L71.5982 31.5688L74.107 31.573ZM71.5982 31.573L71.6023 29.1375L74.1112 29.1417L74.107 31.5772L71.5982 31.573ZM71.6233 11.7354L71.6274 9.23744L74.1363 9.2416L74.1321 11.7395L71.6233 11.7354ZM76.5531 31.5772L76.5489 34.0376L74.1028 34.0334L74.107 31.573L76.5531 31.5772ZM74.107 31.573L74.1112 29.1375L76.5573 29.1417L76.5531 31.5772L74.107 31.573ZM74.1112 29.1375L74.1154 26.6396L76.5615 26.6438L76.5573 29.1417L74.1112 29.1375ZM74.1112 26.6396L74.1154 24.1542L76.5615 24.1583L76.5573 26.6438L74.1112 26.6396ZM74.1154 24.1542L74.1196 21.6563L76.5657 21.6604L76.5615 24.1583L74.1154 24.1542ZM74.1237 19.1708L74.1279 16.6729L76.574 16.6771L76.5699 19.175L74.1237 19.1708ZM74.1237 16.6729L74.1279 14.175L76.574 14.1792L76.5699 16.6771L74.1237 16.6729ZM74.1279 14.175L74.1321 11.7395L76.5782 11.7437L76.574 14.1792L74.1279 14.175ZM74.1321 11.7395L74.1363 9.2416L76.5824 9.24577L76.5782 11.7437L74.1321 11.7395ZM79.062 31.5813L79.0578 34.0418L76.5489 34.0376L76.5531 31.5772L79.062 31.5813ZM76.5531 31.5772L76.5573 29.1417L79.0662 29.1458L79.062 31.5813L76.5531 31.5772ZM76.5573 29.1417L76.5615 26.6438L79.0703 26.6479L79.0662 29.1458L76.5573 29.1417ZM76.5573 26.6438L76.5615 24.1583L79.0703 24.1625L79.0662 26.6479L76.5573 26.6438ZM76.5615 24.1583L76.5657 21.6604L79.0745 21.6646L79.0703 24.1625L76.5615 24.1583ZM76.5699 19.175L76.574 16.6771L79.0829 16.6812L79.0787 19.1792L76.5699 19.175ZM76.574 16.6771L76.5782 14.1792L79.0871 14.1833L79.0829 16.6812L76.574 16.6771ZM76.574 14.1792L76.5782 11.7437L79.0871 11.7478L79.0829 14.1833L76.574 14.1792ZM79.062 31.5813L79.0662 29.1458L81.575 29.15L81.5708 31.5855L79.062 31.5813ZM79.0662 29.1458L79.0703 26.6479L81.5792 26.6521L81.575 29.15L79.0662 29.1458ZM79.0662 26.6479L79.0703 24.1625L81.5792 24.1667L81.575 26.6521L79.0662 26.6479ZM79.0703 24.1625L79.0745 21.6646L81.5834 21.6687L81.5792 24.1667L79.0703 24.1625ZM79.0787 19.1792L79.0829 16.6812L81.5917 16.6854L81.5875 19.1833L79.0787 19.1792ZM79.0829 16.6812L79.0871 14.1833L81.5959 14.1875L81.5917 16.6854L79.0829 16.6812ZM79.0829 14.1833L79.0871 11.7478L81.5959 11.752L81.5917 14.1875L79.0829 14.1833ZM79.0871 11.7437L79.0912 9.24577L81.6001 9.24993L81.5959 11.7478L79.0871 11.7437ZM84.0671 31.5855L84.0629 34.0459L81.5666 34.0418L81.5708 31.5813L84.0671 31.5855ZM81.5708 31.5855L81.575 29.15L84.0713 29.1542L84.0671 31.5896L81.5708 31.5855ZM81.5959 11.7478L81.6001 9.24993L84.0964 9.25409L84.0922 11.752L81.5959 11.7478ZM86.576 31.5896L86.5718 34.0501L84.0629 34.0459L84.0671 31.5855L86.576 31.5896ZM84.0671 31.5855L84.0713 29.15L86.5801 29.1542L86.576 31.5896L84.0671 31.5855ZM84.0922 11.752L84.0964 9.25409L86.6052 9.25826L86.601 11.7562L84.0922 11.752ZM89.0723 31.5938L89.0681 34.0543L86.5718 34.0501L86.576 31.5896L89.0723 31.5938ZM86.576 31.5896L86.5801 29.1542L89.0764 29.1583L89.0723 31.5938L86.576 31.5896ZM86.5801 29.1542L86.5843 26.6563L89.0806 26.6604L89.0764 29.1583L86.5801 29.1542ZM86.5801 26.6563L86.5843 24.1708L89.0806 24.175L89.0764 26.6604L86.5801 26.6563ZM86.5843 24.1708L86.5885 21.6729L89.0848 21.6771L89.0806 24.175L86.5843 24.1708ZM86.5885 21.6729L86.5927 19.1875L89.089 19.1916L89.0848 21.6771L86.5885 21.6729ZM86.5927 19.1875L86.5969 16.6896L89.0932 16.6937L89.089 19.1916L86.5927 19.1875ZM86.5927 16.6896L86.5969 14.1916L89.0932 14.1958L89.089 16.6937L86.5927 16.6896ZM86.5969 14.1916L86.601 11.7562L89.0973 11.7603L89.0932 14.1958L86.5969 14.1916ZM86.601 11.7562L86.6052 9.25826L89.1015 9.26242L89.0973 11.7603L86.601 11.7562ZM91.5309 31.598L91.5267 34.0584L89.0681 34.0543L89.0723 31.5938L91.5309 31.598ZM89.0723 31.5938L89.0764 29.1583L91.5351 29.1625L91.5309 31.598L89.0723 31.5938ZM89.0764 29.1583L89.0806 26.6604L91.5393 26.6646L91.5351 29.1625L89.0764 29.1583ZM89.0806 26.6604L89.0848 24.175L91.5435 24.1792L91.5393 26.6646L89.0806 26.6604ZM89.0806 24.175L89.0848 21.6771L91.5435 21.6812L91.5393 24.1792L89.0806 24.175ZM89.0848 21.6771L89.089 19.1916L91.5476 19.1958L91.5435 21.6812L89.0848 21.6771ZM89.089 19.1916L89.0932 16.6937L91.5518 16.6979L91.5476 19.1958L89.089 19.1916ZM89.0932 16.6937L89.0973 14.1958L91.556 14.2L91.5518 16.6979L89.0932 16.6937ZM89.0932 14.1958L89.0973 11.7603L91.556 11.7645L91.5518 14.2L89.0932 14.1958Z" fill="white"/>
    <path d="M88.3333 31.5022L88.3374 29.0668L90.8463 29.0709L90.8421 31.5064L88.3333 31.5022ZM88.3374 29.0668L88.3416 26.5688L90.8505 26.573L90.8463 29.0709L88.3374 29.0668ZM88.3416 26.5688L88.3458 24.0834L90.8546 24.0876L90.8505 26.573L88.3416 26.5688ZM88.3416 24.0834L88.3458 21.5855L90.8546 21.5897L90.8505 24.0876L88.3416 24.0834ZM88.3458 21.5855L88.35 19.1001L90.8588 19.1042L90.8546 21.5897L88.3458 21.5855ZM88.35 19.1001L88.3542 16.6021L90.863 16.6063L90.8588 19.1042L88.35 19.1001ZM88.3542 16.6021L88.3583 14.1042L90.8672 14.1084L90.863 16.6063L88.3542 16.6021ZM88.3542 14.1042L88.3583 11.6688L90.8672 11.6729L90.863 14.1084L88.3542 14.1042ZM88.3583 11.6646L88.3625 9.16667L90.8714 9.17083L90.8672 11.6688L88.3583 11.6646ZM93.3384 31.5064L93.3342 33.9668L90.8379 33.9627L90.8421 31.5022L93.3384 31.5064ZM90.8421 31.5064L90.8463 29.0709L93.3426 29.0751L93.3384 31.5106L90.8421 31.5064ZM90.8672 11.6688L90.8714 9.17083L93.3677 9.175L93.3635 11.6729L90.8672 11.6688ZM95.8472 31.5106L95.8431 33.971L93.3342 33.9668L93.3384 31.5064L95.8472 31.5106ZM93.3384 31.5064L93.3426 29.0709L95.8514 29.0751L95.8472 31.5106L93.3384 31.5064ZM93.3635 11.6729L93.3677 9.175L95.8765 9.17916L95.8723 11.6771L93.3635 11.6729ZM98.2934 31.5147L98.2892 33.9752L95.8431 33.971L95.8472 31.5106L98.2934 31.5147ZM95.8472 31.5106L95.8514 29.0751L98.2975 29.0792L98.2934 31.5147L95.8472 31.5106ZM95.8556 26.5772L95.8598 24.0917L98.3059 24.0959L98.3017 26.5813L95.8556 26.5772ZM95.8556 24.0917L95.8598 21.5938L98.3059 21.598L98.3017 24.0959L95.8556 24.0917ZM95.8598 21.5938L95.864 19.1084L98.3101 19.1126L98.3059 21.598L95.8598 21.5938ZM95.864 19.1084L95.8681 16.6105L98.3143 16.6146L98.3101 19.1126L95.864 19.1084ZM95.8681 16.6105L95.8723 14.1126L98.3184 14.1167L98.3143 16.6146L95.8681 16.6105ZM95.8723 11.6771L95.8765 9.17916L98.3226 9.18332L98.3184 11.6812L95.8723 11.6771ZM100.802 31.5189L100.798 33.9793L98.2892 33.9752L98.2934 31.5147L100.802 31.5189ZM98.2934 31.5147L98.2975 29.0792L100.806 29.0834L100.802 31.5189L98.2934 31.5147ZM98.3017 26.5813L98.3059 24.0959L100.815 24.1001L100.811 26.5855L98.3017 26.5813ZM98.3059 24.0959L98.3101 21.598L100.819 21.6021L100.815 24.1001L98.3059 24.0959ZM98.3059 21.598L98.3101 19.1126L100.819 19.1167L100.815 21.6021L98.3059 21.598ZM98.3101 19.1126L98.3143 16.6146L100.823 16.6188L100.819 19.1167L98.3101 19.1126ZM98.3143 16.6146L98.3184 14.1167L100.827 14.1209L100.823 16.6188L98.3143 16.6146ZM98.3184 11.6771L98.3226 9.17916L100.831 9.18332L100.827 11.6812L98.3184 11.6771ZM103.311 31.5189L103.307 33.9793L100.798 33.9752L100.802 31.5147L103.311 31.5189ZM100.802 31.5189L100.806 29.0834L103.315 29.0876L103.311 31.523L100.802 31.5189ZM100.815 24.0959L100.819 21.598L103.328 21.6021L103.324 24.1001L100.815 24.0959ZM100.815 21.598L100.819 19.1126L103.328 19.1167L103.324 21.6021L100.815 21.598ZM100.819 19.1126L100.823 16.6146L103.332 16.6188L103.328 19.1167L100.819 19.1126ZM100.827 11.6812L100.831 9.18332L103.34 9.18749L103.336 11.6854L100.827 11.6812ZM105.807 31.523L105.803 33.9835L103.307 33.9793L103.311 31.5189L105.807 31.523ZM103.311 31.5189L103.315 29.0834L105.812 29.0876L105.807 31.523L103.311 31.5189ZM103.315 29.0834L103.319 26.5855L105.816 26.5897L105.812 29.0876L103.315 29.0834ZM103.336 14.1209L103.34 11.6854L105.837 11.6896L105.832 14.125L103.336 14.1209ZM103.336 11.6854L103.34 9.18749L105.837 9.19165L105.832 11.6896L103.336 11.6854ZM108.316 31.5272L108.312 33.9877L105.803 33.9835L105.807 31.523L108.316 31.5272ZM105.807 31.523L105.812 29.0876L108.32 29.0917L108.316 31.5272L105.807 31.523ZM105.812 29.0876L105.816 26.5897L108.325 26.5938L108.32 29.0917L105.812 29.0876ZM105.816 26.5897L105.82 24.1042L108.329 24.1084L108.325 26.5938L105.816 26.5897ZM105.828 16.623L105.832 14.125L108.341 14.1292L108.337 16.6271L105.828 16.623ZM105.832 14.125L105.837 11.6896L108.345 11.6937L108.341 14.1292L105.832 14.125ZM108.316 31.5272L108.32 29.0917L110.817 29.0959L110.812 31.5314L108.316 31.5272ZM108.32 29.0917L108.325 26.5938L110.821 26.598L110.817 29.0959L108.32 29.0917ZM108.325 26.5938L108.329 24.1084L110.825 24.1125L110.821 26.598L108.325 26.5938ZM108.329 24.1084L108.333 21.6105L110.829 21.6146L110.825 24.1125L108.329 24.1084ZM108.329 21.6105L108.333 19.125L110.829 19.1292L110.825 21.6146L108.329 21.6105ZM108.333 19.125L108.337 16.6271L110.833 16.6313L110.829 19.1292L108.333 19.125ZM108.337 16.6271L108.341 14.1292L110.838 14.1334L110.833 16.6313L108.337 16.6271ZM110.817 29.0917L110.821 26.5938L113.28 26.598L113.275 29.0959L110.817 29.0917ZM110.821 26.5938L110.825 24.1084L113.284 24.1125L113.28 26.598L110.821 26.5938ZM110.825 24.1084L110.829 21.6105L113.288 21.6146L113.284 24.1125L110.825 24.1084ZM110.825 21.6105L110.829 19.125L113.288 19.1292L113.284 21.6146L110.825 21.6105ZM110.829 19.125L110.833 16.6271L113.292 16.6313L113.288 19.1292L110.829 19.125Z" fill="white"/>
    <path d="M110.812 31.5314L110.817 29.0959L113.326 29.1001L113.321 31.5355L110.812 31.5314ZM110.817 29.0917L110.821 26.5938L113.33 26.598L113.326 29.0959L110.817 29.0917ZM110.821 26.5938L110.825 24.1084L113.334 24.1125L113.33 26.598L110.821 26.5938ZM110.825 24.1084L110.829 21.6105L113.338 21.6146L113.334 24.1125L110.825 24.1084ZM110.825 21.6105L110.829 19.125L113.338 19.1292L113.334 21.6146L110.825 21.6105ZM110.829 19.125L110.833 16.6271L113.342 16.6313L113.338 19.1292L110.829 19.125ZM110.833 16.6271L110.838 14.1292L113.346 14.1334L113.342 16.6313L110.833 16.6271ZM110.838 14.1292L110.842 11.6937L113.351 11.6979L113.346 14.1334L110.838 14.1292ZM110.838 11.6937L110.842 9.19582L113.351 9.19998L113.346 11.6979L110.838 11.6937ZM115.818 31.5355L115.813 33.996L113.317 33.9918L113.321 31.5314L115.818 31.5355ZM113.321 31.5314L113.326 29.0959L115.822 29.1001L115.818 31.5355L113.321 31.5314ZM113.346 11.6979L113.351 9.19998L115.847 9.20414L115.843 11.7021L113.346 11.6979ZM118.326 31.5397L118.322 34.0001L115.813 33.996L115.818 31.5355L118.326 31.5397ZM115.818 31.5355L115.822 29.1001L118.331 29.1042L118.326 31.5397L115.818 31.5355ZM115.843 11.7021L115.847 9.20414L118.356 9.20831L118.352 11.7062L115.843 11.7021ZM120.777 31.5439L120.773 34.0043L118.326 34.0001L118.331 31.5397L120.777 31.5439ZM118.326 31.5397L118.331 29.1042L120.777 29.1084L120.773 31.5439L118.326 31.5397ZM118.331 29.1042L118.335 26.6063L120.781 26.6105L120.777 29.1084L118.331 29.1042ZM118.335 26.6063L118.339 24.1209L120.785 24.125L120.781 26.6105L118.335 26.6063ZM118.339 24.1209L118.343 21.623L120.789 21.6271L120.785 24.125L118.339 24.1209ZM118.343 19.1375L118.347 16.6396L120.794 16.6438L120.789 19.1417L118.343 19.1375ZM118.347 16.6396L118.352 14.1417L120.798 14.1459L120.794 16.6438L118.347 16.6396ZM118.352 11.7021L118.356 9.20414L120.802 9.20831L120.798 11.7062L118.352 11.7021ZM123.286 31.5439L123.281 34.0043L120.773 34.0001L120.777 31.5397L123.286 31.5439ZM120.777 31.5439L120.781 29.1084L123.29 29.1125L123.286 31.548L120.777 31.5439ZM120.777 29.1042L120.781 26.6063L123.29 26.6105L123.286 29.1084L120.777 29.1042ZM120.781 26.6063L120.785 24.1209L123.294 24.125L123.29 26.6105L120.781 26.6063ZM120.785 24.1209L120.789 21.623L123.298 21.6271L123.294 24.125L120.785 24.1209ZM120.789 19.1375L120.794 16.6396L123.302 16.6438L123.298 19.1417L120.789 19.1375ZM120.794 16.6396L120.798 14.1417L123.307 14.1459L123.302 16.6438L120.794 16.6396ZM120.802 11.7062L120.806 9.20831L123.315 9.21247L123.311 11.7104L120.802 11.7062ZM123.286 31.5439L123.29 29.1084L125.799 29.1125L125.794 31.548L123.286 31.5439ZM123.286 29.1084L123.29 26.6105L125.799 26.6146L125.794 29.1125L123.286 29.1084ZM123.29 26.6105L123.294 24.125L125.803 24.1292L125.799 26.6146L123.29 26.6105ZM123.294 24.125L123.298 21.6271L125.807 21.6313L125.803 24.1292L123.294 24.125ZM123.298 19.1417L123.302 16.6438L125.811 16.6479L125.807 19.1459L123.298 19.1417ZM123.302 16.6438L123.307 14.1459L125.815 14.15L125.811 16.6479L123.302 16.6438ZM123.311 11.7104L123.315 9.21247L125.824 9.21663L125.82 11.7146L123.311 11.7104ZM128.291 31.5522L128.287 34.0126L125.79 34.0085L125.794 31.548L128.291 31.5522ZM125.79 31.548L125.794 29.1125L128.291 29.1167L128.287 31.5522L125.79 31.548ZM125.815 11.7146L125.82 9.21663L128.316 9.2208L128.312 11.7187L125.815 11.7146ZM130.8 31.5563L130.795 34.0168L128.287 34.0126L128.291 31.5522L130.8 31.5563ZM128.291 31.5522L128.295 29.1167L130.804 29.1209L130.8 31.5563L128.291 31.5522ZM128.303 21.6354L128.307 19.15L130.816 19.1542L130.812 21.6396L128.303 21.6354ZM128.312 14.1542L128.316 11.7187L130.825 11.7229L130.821 14.1583L128.312 14.1542ZM128.312 11.7146L128.316 9.21663L130.825 9.2208L130.821 11.7187L128.312 11.7146ZM133.296 31.5563L133.292 34.0168L130.795 34.0126L130.8 31.5563H133.296ZM130.8 31.5563L130.804 29.1209L133.3 29.125L133.296 31.5563H130.8ZM130.8 29.1167L130.804 26.6188L133.3 26.623L133.296 29.1209L130.8 29.1167ZM130.804 26.6188L130.808 24.1334L133.304 24.1375L133.3 26.623L130.804 26.6188ZM130.808 24.1334L130.812 21.6354L133.308 21.6396L133.304 24.1375L130.808 24.1334ZM130.812 21.6354L130.816 19.15L133.313 19.1542L133.308 21.6396L130.812 21.6354ZM130.812 19.15L130.816 16.6521L133.313 16.6563L133.308 19.1542L130.812 19.15ZM130.816 16.6521L130.821 14.1542L133.317 14.1583L133.313 16.6563L130.816 16.6521ZM130.821 14.1542L130.825 11.7187L133.321 11.7229L133.317 14.1583L130.821 14.1542ZM135.755 31.5605L135.75 34.021L133.292 34.0168L133.296 31.5563L135.755 31.5605ZM133.296 31.5563L133.3 29.1209L135.759 29.125L135.755 31.5605L133.296 31.5563ZM133.296 29.1209L133.3 26.623L135.759 26.6271L135.755 29.125L133.296 29.1209ZM133.3 26.623L133.304 24.1375L135.763 24.1417L135.759 26.6271L133.3 26.623ZM133.304 24.1375L133.308 21.6396L135.767 21.6438L135.763 24.1417L133.304 24.1375ZM133.308 21.6396L133.313 19.1542L135.771 19.1583L135.767 21.6438L133.308 21.6396ZM133.308 19.1542L133.313 16.6563L135.771 16.6604L135.767 19.1583L133.308 19.1542ZM133.313 16.6563L133.317 14.1583L135.775 14.1625L135.771 16.6604L133.313 16.6563Z" fill="white"/>
    <path d="M133.296 31.5563L133.3 29.1209L135.809 29.125L135.805 31.5605L133.296 31.5563ZM133.296 29.1209L133.3 26.6229L135.809 26.6271L135.805 29.125L133.296 29.1209ZM133.3 26.6229L133.305 24.1375L135.813 24.1417L135.809 26.6271L133.3 26.6229ZM133.305 24.1375L133.309 21.6396L135.818 21.6438L135.813 24.1417L133.305 24.1375ZM133.309 21.6396L133.313 19.1542L135.822 19.1583L135.818 21.6438L133.309 21.6396ZM133.309 19.1542L133.313 16.6563L135.822 16.6604L135.818 19.1583L133.309 19.1542ZM133.313 16.6563L133.317 14.1583L135.826 14.1625L135.822 16.6604L133.313 16.6563ZM133.317 14.1583L133.321 11.7229L135.83 11.727L135.826 14.1625L133.317 14.1583ZM138.301 31.5647L138.297 34.0251L135.801 34.0209L135.805 31.5605L138.301 31.5647ZM135.805 31.5605L135.809 29.125L138.305 29.1292L138.301 31.5647L135.805 31.5605ZM135.826 14.1625L135.83 11.727L138.326 11.7312L138.322 14.1667L135.826 14.1625ZM135.83 11.727L135.834 9.22911L138.331 9.23327L138.326 11.7312L135.83 11.727ZM140.81 31.5688L140.806 34.0293L138.297 34.0251L138.301 31.5647L140.81 31.5688ZM138.301 31.5647L138.305 29.1292L140.814 29.1334L140.81 31.5688L138.301 31.5647ZM138.326 11.727L138.331 9.22911L140.839 9.23327L140.835 11.7312L138.326 11.727ZM143.256 31.5688L143.252 34.0293L140.806 34.0251L140.81 31.5647L143.256 31.5688ZM140.81 31.5688L140.814 29.1334L143.26 29.1375L143.256 31.573L140.81 31.5688ZM140.81 29.1292L140.814 26.6313L143.26 26.6354L143.256 29.1334L140.81 29.1292ZM140.814 26.6313L140.818 24.1458L143.265 24.15L143.26 26.6354L140.814 26.6313ZM140.823 21.6479L140.827 19.1625L143.273 19.1667L143.269 21.6521L140.823 21.6479ZM140.823 19.1625L140.827 16.6646L143.273 16.6687L143.269 19.1667L140.823 19.1625ZM140.827 16.6646L140.831 14.1667L143.277 14.1708L143.273 16.6687L140.827 16.6646ZM140.835 11.7312L140.839 9.23327L143.286 9.23744L143.281 11.7354L140.835 11.7312ZM145.765 31.573L145.761 34.0334L143.252 34.0293L143.256 31.5688L145.765 31.573ZM143.256 31.5688L143.26 29.1334L145.769 29.1375L145.765 31.573L143.256 31.5688ZM143.26 29.1334L143.265 26.6354L145.773 26.6396L145.769 29.1375L143.26 29.1334ZM143.26 26.6354L143.265 24.15L145.773 24.1542L145.769 26.6396L143.26 26.6354ZM143.269 21.6521L143.273 19.1667L145.782 19.1708L145.778 21.6563L143.269 21.6521ZM143.273 19.1667L143.277 16.6687L145.786 16.6729L145.782 19.1708L143.273 19.1667ZM143.273 16.6687L143.277 14.1708L145.786 14.175L145.782 16.6729L143.273 16.6687ZM143.281 11.7354L143.286 9.23744L145.794 9.2416L145.79 11.7395L143.281 11.7354ZM145.765 31.573L145.769 29.1375L148.278 29.1417L148.274 31.5772L145.765 31.573ZM145.769 29.1375L145.773 26.6396L148.282 26.6438L148.278 29.1417L145.769 29.1375ZM145.769 26.6396L145.773 24.1542L148.282 24.1583L148.278 26.6438L145.769 26.6396ZM145.778 21.6563L145.782 19.1708L148.291 19.175L148.286 21.6604L145.778 21.6563ZM145.782 19.1708L145.786 16.6729L148.295 16.6771L148.291 19.175L145.782 19.1708ZM145.782 16.6729L145.786 14.175L148.295 14.1792L148.291 16.6771L145.782 16.6729ZM145.79 11.7395L145.794 9.2416L148.303 9.24576L148.299 11.7437L145.79 11.7395ZM150.77 31.5813L150.766 34.0418L148.27 34.0376L148.274 31.5772L150.77 31.5813ZM148.274 31.5772L148.278 29.1417L150.774 29.1458L150.77 31.5813L148.274 31.5772ZM148.299 11.7395L148.303 9.2416L150.8 9.24576L150.795 11.7437L148.299 11.7395ZM153.279 31.5813L153.275 34.0418L150.766 34.0376L150.77 31.5772L153.279 31.5813ZM150.77 31.5813L150.774 29.1458L153.283 29.15L153.279 31.5855L150.77 31.5813ZM150.791 14.1792L150.795 11.7437L153.304 11.7478L153.3 14.1833L150.791 14.1792ZM150.795 11.7437L150.8 9.24576L153.308 9.24993L153.304 11.7478L150.795 11.7437ZM155.775 31.5855L155.771 34.0459L153.275 34.0418L153.279 31.5813L155.775 31.5855ZM153.279 31.5813L153.283 29.1458L155.78 29.15L155.775 31.5855L153.279 31.5813ZM153.283 29.1458L153.287 26.6479L155.784 26.6521L155.78 29.15L153.283 29.1458ZM153.283 26.6479L153.287 24.1625L155.784 24.1667L155.78 26.6521L153.283 26.6479ZM153.287 24.1625L153.292 21.6646L155.788 21.6687L155.784 24.1667L153.287 24.1625ZM153.292 21.6646L153.296 19.1792L155.792 19.1833L155.788 21.6687L153.292 21.6646ZM153.296 19.1792L153.3 16.6812L155.796 16.6854L155.792 19.1833L153.296 19.1792ZM153.296 16.6812L153.3 14.1833L155.796 14.1875L155.792 16.6854L153.296 16.6812ZM153.3 14.1833L153.304 11.7478L155.8 11.752L155.796 14.1875L153.3 14.1833ZM158.234 31.5896L158.23 34.0501L155.771 34.0459L155.775 31.5855L158.234 31.5896ZM155.775 31.5855L155.78 29.15L158.238 29.1542L158.234 31.5896L155.775 31.5855ZM155.78 29.15L155.784 26.6521L158.242 26.6563L158.238 29.1542L155.78 29.15ZM155.78 26.6521L155.784 24.1667L158.242 24.1708L158.238 26.6563L155.78 26.6521ZM155.784 24.1667L155.788 21.6687L158.247 21.6729L158.242 24.1708L155.784 24.1667ZM155.788 21.6687L155.792 19.1833L158.251 19.1875L158.247 21.6729L155.788 21.6687ZM155.792 19.1833L155.796 16.6854L158.255 16.6896L158.251 19.1875L155.792 19.1833ZM155.792 16.6854L155.796 14.1875L158.255 14.1916L158.251 16.6896L155.792 16.6854Z" fill="white"/>
    <path d="M155.775 31.5855L155.779 29.15L158.288 29.1542L158.284 31.5896L155.775 31.5855ZM155.779 29.15L155.784 26.6521L158.292 26.6563L158.288 29.1542L155.779 29.15ZM155.779 26.6521L155.784 24.1667L158.292 24.1708L158.288 26.6563L155.779 26.6521ZM155.784 24.1667L155.788 21.6687L158.297 21.6729L158.292 24.1708L155.784 24.1667ZM155.788 21.6687L155.792 19.1833L158.301 19.1875L158.297 21.6729L155.788 21.6687ZM155.792 19.1833L155.796 16.6854L158.305 16.6896L158.301 19.1875L155.792 19.1833ZM155.792 16.6854L155.796 14.1875L158.305 14.1916L158.301 16.6896L155.792 16.6854ZM155.796 14.1875L155.8 11.752L158.309 11.7562L158.305 14.1916L155.796 14.1875ZM155.8 11.752L155.804 9.25409L158.313 9.25825L158.309 11.7562L155.8 11.752ZM160.78 31.5938L160.776 34.0543L158.28 34.0501L158.284 31.5896L160.78 31.5938ZM158.284 31.5896L158.288 29.1542L160.784 29.1583L160.78 31.5938L158.284 31.5896ZM158.309 11.752L158.313 9.25409L160.81 9.25825L160.805 11.7562L158.309 11.752ZM163.289 31.5938L163.285 34.0543L160.776 34.0501L160.78 31.5896L163.289 31.5938ZM160.78 31.5938L160.784 29.1583L163.293 29.1625L163.289 31.598L160.78 31.5938ZM160.805 11.7562L160.81 9.25825L163.318 9.26242L163.314 11.7603L160.805 11.7562ZM165.735 31.598L165.731 34.0584L163.285 34.0543L163.289 31.5938L165.735 31.598ZM163.289 31.5938L163.293 29.1583L165.739 29.1625L165.735 31.598L163.289 31.5938ZM163.293 29.1583L163.298 26.6604L165.744 26.6646L165.739 29.1625L163.293 29.1583ZM163.302 21.6771L163.306 19.1916L165.752 19.1958L165.748 21.6812L163.302 21.6771ZM163.306 19.1916L163.31 16.6937L165.756 16.6979L165.752 19.1958L163.306 19.1916ZM163.31 16.6937L163.314 14.1958L165.76 14.2L165.756 16.6979L163.31 16.6937ZM163.31 14.1958L163.314 11.7603L165.76 11.7645L165.756 14.2L163.31 14.1958ZM163.314 11.7603L163.318 9.26242L165.765 9.26658L165.76 11.7645L163.314 11.7603ZM168.244 31.6021L168.24 34.0626L165.731 34.0584L165.735 31.598L168.244 31.6021ZM165.735 31.598L165.739 29.1625L168.248 29.1667L168.244 31.6021L165.735 31.598ZM165.739 29.1625L165.744 26.6646L168.252 26.6687L168.248 29.1667L165.739 29.1625ZM165.744 26.6646L165.748 24.1792L168.257 24.1833L168.252 26.6687L165.744 26.6646ZM165.752 19.1958L165.756 16.6979L168.265 16.702L168.261 19.2L165.752 19.1958ZM165.756 16.6979L165.76 14.2L168.269 14.2041L168.265 16.702L165.756 16.6979ZM165.756 14.2L165.76 11.7645L168.269 11.7687L168.265 14.2041L165.756 14.2ZM168.244 31.6021L168.248 29.1667L170.757 29.1708L170.753 31.6063L168.244 31.6021ZM168.248 29.1667L168.252 26.6687L170.761 26.6729L170.757 29.1708L168.248 29.1667ZM168.257 21.6854L168.261 19.2L170.77 19.2041L170.765 21.6896L168.257 21.6854ZM168.261 19.1958L168.265 16.6979L170.774 16.702L170.77 19.2L168.261 19.1958ZM168.265 16.6979L168.269 14.2L170.778 14.2041L170.774 16.702L168.265 16.6979ZM168.265 14.2L168.269 11.7645L170.778 11.7687L170.774 14.2041L168.265 14.2ZM168.269 11.7645L168.273 9.26658L170.782 9.27074L170.778 11.7687L168.269 11.7645ZM173.249 31.6063L173.245 34.0667L170.749 34.0626L170.753 31.6021L173.249 31.6063ZM170.753 31.6063L170.757 29.1708L173.253 29.175L173.249 31.6105L170.753 31.6063ZM170.778 11.7687L170.782 9.27074L173.279 9.27491L173.274 11.7728L170.778 11.7687ZM175.758 31.6105L175.754 34.0709L173.245 34.0667L173.249 31.6063L175.758 31.6105ZM173.249 31.6063L173.253 29.1708L175.762 29.175L175.758 31.6105L173.249 31.6063ZM173.274 11.7728L173.279 9.27491L175.787 9.27907L175.783 11.777L173.274 11.7728ZM178.254 31.6146L178.25 34.0751L175.754 34.0709L175.758 31.6105L178.254 31.6146ZM175.758 31.6105L175.762 29.175L178.259 29.1792L178.254 31.6146L175.758 31.6105ZM175.762 29.175L175.766 26.6771L178.263 26.6812L178.259 29.1792L175.762 29.175ZM175.766 26.6771L175.771 24.1916L178.267 24.1958L178.263 26.6812L175.766 26.6771ZM175.766 24.1916L175.771 21.6937L178.267 21.6979L178.263 24.1958L175.766 24.1916ZM175.771 21.6937L175.775 19.2083L178.271 19.2125L178.267 21.6979L175.771 21.6937ZM175.775 19.2083L175.779 16.7104L178.275 16.7145L178.271 19.2125L175.775 19.2083ZM175.779 16.7104L175.783 14.2125L178.279 14.2166L178.275 16.7145L175.779 16.7104ZM175.779 14.2125L175.783 11.777L178.279 11.7812L178.275 14.2166L175.779 14.2125ZM175.783 11.777L175.787 9.27907L178.284 9.28323L178.279 11.7812L175.783 11.777ZM180.713 31.6188L180.709 34.0792L178.25 34.0751L178.254 31.6146L180.713 31.6188ZM178.254 31.6146L178.259 29.1792L180.717 29.1833L180.713 31.6188L178.254 31.6146ZM178.259 29.1792L178.263 26.6812L180.721 26.6854L180.717 29.1833L178.259 29.1792ZM178.263 26.6812L178.267 24.1958L180.726 24.2L180.721 26.6854L178.263 26.6812ZM178.263 24.1958L178.267 21.6979L180.726 21.702L180.721 24.2L178.263 24.1958ZM178.267 21.6979L178.271 19.2125L180.73 19.2166L180.726 21.702L178.267 21.6979ZM178.271 19.2083L178.275 16.7104L180.734 16.7145L180.73 19.2125L178.271 19.2083ZM178.275 16.7104L178.279 14.2125L180.738 14.2166L180.734 16.7145L178.275 16.7104ZM178.279 14.2125L178.284 11.777L180.742 11.7812L180.738 14.2166L178.279 14.2125Z" fill="white"/>
</svg>
