<svg width="196" height="50" fill="none" xmlns="http://www.w3.org/2000/svg"><path fill-rule="evenodd" clip-rule="evenodd" d="M188.248 41.412v-.007l3.543.006v.007l-3.543-.006zm0 8.581 3.53.007.007-4.31v-.006l4.007.007.007-4.273.007-4.382.007-4.36.007-4.382h-.007l.007-4.36.006-4.382.007-4.382-4.007-.008h-.007l.007-4.272-3.578-.006v-4.42H8.275v.008L4.2 6.464l-.007 4.383-4.158-.008-.007 4.273-.007 4.382h.007L.02 23.876l-.007 4.36-.007 4.39L0 36.985h.007L0 41.366l4.159.008-.007 4.265 4.123.007V50H188.248v-.007zM4.138 36.986H.007l4.13.008v-.008zm187.66-4.316h.007l.007-4.382h-.007l-.007 4.382z" fill="#272727"/><path fill-rule="evenodd" clip-rule="evenodd" d="m0 34.903.007-4.382 4.13.007v-.007H0l.007-4.36.007-4.39.007-4.36.007-4.382H.02l.007-4.382.007-4.272 4.158.007L4.2 0l4.075.007V0H188.248v4.42l3.578.006-.007 4.272h.007l4.007.008-.007 4.382-.006 4.382-.007 4.36h.007l-.007 4.382-.007 4.36-.007 4.382-.007 4.273-4.007-.008v.008l-.007 4.309-3.53-.007v.007H8.275v-4.353l-4.123-.008.007-4.265L0 34.903zm188.248.045 3.544.006v-.007l-3.544-.007v.008zm3.55-8.743h.007l.007-4.382h-.007l-.007 4.382z" fill="#565656"/><path d="m14.167 31.498.004-2.435 2.509.004-.004 2.435-2.51-.004zm.004-2.435.004-2.498 2.509.004-.004 2.498-2.51-.004zm0-2.498.004-2.486 2.509.004-.004 2.486-2.51-.004zm.004-2.486.004-2.498 2.51.005-.005 2.497-2.509-.004zm.004-2.498.005-2.485 2.508.004-.004 2.485-2.509-.004zm.005-2.485.004-2.498 2.508.004-.004 2.498-2.508-.004zm0-2.498.004-2.498 2.508.004-.004 2.498-2.508-.004zm.004-2.498.004-2.435 2.509.004-.005 2.435-2.508-.004zm.004-2.435.004-2.498 2.509.004-.004 2.498-2.51-.004zm4.98 19.841-.004 2.46-2.497-.003.005-2.46 2.496.003zm-2.496-.004.004-2.435 2.496.004-.004 2.435-2.496-.004zM16.7 11.67l.004-2.498 2.496.004-.004 2.498-2.496-.004zm4.98 19.841-.004 2.461-2.51-.004.005-2.46 2.509.003zm-2.51-.004.005-2.435 2.509.004-.004 2.436-2.51-.005zm.026-19.833.004-2.498 2.509.004-.004 2.498-2.509-.004zm4.93 19.837-.004 2.461-2.446-.004.004-2.46 2.446.003zm-2.446 0 .004-2.435 2.446.004-.004 2.436-2.446-.005zm.004-2.435.004-2.498 2.446.004-.004 2.498-2.446-.004zm.008-7.485.005-2.486 2.446.004-.005 2.486-2.446-.004zm.005-2.486.004-2.498 2.446.004-.004 2.498-2.446-.004zm.004-2.498.004-2.498 2.446.005-.004 2.497-2.446-.004zm0-2.498.004-2.435 2.446.004-.004 2.436-2.446-.005zm.004-2.435.004-2.498 2.446.004-.004 2.498-2.446-.004zm4.93 19.842-.005 2.46-2.508-.004.004-2.46 2.509.004zm-2.51-.005.005-2.435 2.509.004-.004 2.436-2.51-.005zm.005-2.435.004-2.498 2.51.004-.005 2.498-2.509-.004zm.004-2.498.004-2.485 2.51.004-.005 2.485-2.509-.004zm.009-7.469.004-2.498 2.509.005-.005 2.498-2.508-.005zm.004-2.498.004-2.497 2.509.004-.004 2.498-2.51-.005zm.004-2.497.004-2.436 2.509.004-.004 2.436-2.51-.005zm2.484 17.402.004-2.436 2.509.004-.005 2.436-2.508-.004zm.004-2.436.004-2.498 2.509.005-.004 2.497-2.51-.004zm.008-7.481.004-2.485 2.51.004-.005 2.485-2.509-.004zm.004-2.485.005-2.498 2.509.004-.005 2.498-2.509-.005zm.005-2.498.004-2.498 2.509.004-.005 2.498-2.508-.004zm.004-2.498.004-2.436 2.509.004-.004 2.436-2.51-.004zm0-2.436.004-2.498 2.509.004-.004 2.498-2.51-.004zm4.98 19.842-.004 2.46-2.497-.004.005-2.46 2.496.004zm-2.496-.004.004-2.436 2.496.005-.004 2.435-2.496-.004zm.025-19.838.004-2.498 2.496.004-.004 2.498-2.496-.004zm4.98 19.846-.005 2.46-2.508-.004.004-2.46 2.509.004zm-2.51-.004.005-2.435 2.509.004-.004 2.435-2.51-.004zm.026-19.838.004-2.498 2.509.005-.004 2.498-2.51-.005zm4.98 19.842-.004 2.46-2.497-.004.005-2.46 2.496.004zm-2.496 0 .004-2.435 2.496.004-.004 2.435-2.496-.004zm.004-2.44.004-2.497 2.496.004-.004 2.498-2.496-.004zm.004-2.497.004-2.486 2.496.004-.004 2.486-2.496-.004zm.004-2.486.004-2.498 2.497.004-.005 2.498-2.496-.004zm0-2.498.004-2.485 2.497.004-.005 2.485-2.496-.004zm.004-2.485.005-2.498 2.496.004-.004 2.498-2.497-.004zm.005-2.498.004-2.498 2.496.004-.004 2.498-2.496-.004zm.004-2.498.004-2.435 2.496.004-.004 2.435-2.496-.004zm0-2.435.004-2.498 2.496.004-.004 2.498-2.496-.004zm4.93 19.841-.005 2.46-2.458-.003.004-2.46 2.459.003zm-2.459-.004.004-2.435 2.459.004-.004 2.435-2.459-.004zm.004-2.435.004-2.498 2.459.004-.004 2.498-2.459-.004zm.004-2.498.004-2.486 2.46.005-.005 2.485-2.459-.004zm.004-2.486.005-2.498 2.458.005-.004 2.498-2.459-.005zm0-2.498.005-2.485 2.458.004-.004 2.486-2.459-.005zm.005-2.485.004-2.498 2.459.004-.005 2.498-2.458-.004zm.004-2.498.004-2.498 2.459.004-.004 2.498-2.46-.004zm.004-2.498.004-2.435 2.459.004-.004 2.435-2.459-.004z" fill="#fff"/><path d="m36.646 31.527.004-2.435 2.509.004-.004 2.435-2.509-.004zm.004-2.435.004-2.498 2.51.004-.005 2.498-2.509-.004zm.004-2.498.004-2.486 2.51.005-.005 2.485-2.509-.004zm.004-2.486.005-2.498 2.509.005-.005 2.498-2.509-.005zm0-2.498.005-2.485 2.509.004-.005 2.486-2.509-.005zm.005-2.485.004-2.498 2.509.004-.004 2.498-2.51-.004zm.004-2.498.004-2.498 2.509.004-.004 2.498-2.51-.004zm.004-2.498.004-2.435 2.51.004-.005 2.435-2.509-.004zm0-2.435.004-2.498 2.51.004-.005 2.498-2.509-.004zm4.98 19.841-.004 2.461-2.496-.004.004-2.46 2.496.003zm-2.496-.004.004-2.435 2.496.004-.004 2.435-2.496-.004zm.025-19.833.004-2.498 2.496.004-.004 2.498-2.496-.004zm4.98 19.837-.004 2.461-2.509-.004.004-2.46 2.509.003zm-2.509 0 .004-2.435 2.51.004-.005 2.436-2.509-.005zm.025-19.837L41.68 9.2l2.51.004-.005 2.498-2.509-.004zm4.93 19.842L46.602 34l-2.446-.004.004-2.46 2.446.004zm-2.446-.005.004-2.435 2.446.004-.004 2.436-2.446-.005zm.004-2.435.004-2.498 2.447.004-.005 2.498-2.446-.004zm.004-2.498.005-2.485 2.446.004-.005 2.485-2.446-.004zm.005-2.485.004-2.498 2.446.004-.004 2.498-2.447-.004zm0-2.498.004-2.486 2.446.005-.004 2.485-2.447-.004zm.004-2.486.004-2.498 2.446.005-.004 2.497-2.446-.004zm.004-2.498.004-2.498 2.446.005-.004 2.498-2.446-.005zm.004-2.498.004-2.435 2.446.004-.004 2.436-2.446-.005zm0-2.435.004-2.498 2.446.004-.004 2.498-2.446-.004zm4.93 19.842-.004 2.46L46.6 34l.005-2.46 2.509.004zm-2.509-.004.004-2.436 2.51.004-.005 2.436-2.509-.004zm.004-2.436.005-2.498 2.508.004-.004 2.498-2.509-.004zm.005-2.498.004-2.485 2.508.004-.004 2.485-2.508-.004zm.004-2.485.004-2.498 2.509.004-.005 2.498-2.508-.004zm.004-2.498.004-2.486 2.509.005-.004 2.485-2.51-.004zm0-2.486.004-2.497 2.509.004-.004 2.498-2.51-.005zm.004-2.497.004-2.498 2.509.004-.004 2.498-2.509-.004zm.004-2.498.004-2.436 2.51.004-.005 2.436-2.509-.004z" fill="#fff"/><path d="m46.627 16.64.004-2.498 2.509.004-.004 2.498-2.509-.004zm.004-2.498.004-2.436 2.51.004-.005 2.436-2.509-.004zm0-2.436.004-2.498 2.51.004-.005 2.498-2.509-.004zm2.505 4.938.004-2.498 2.496.004-.004 2.498-2.496-.004zm.004-4.938.004-2.498 2.497.004-.005 2.498-2.496-.004zm2.475 19.842.005-2.435 2.508.004-.004 2.435-2.509-.004zm0-2.435.005-2.498 2.508.004-.004 2.498-2.509-.004zm.005-2.498.004-2.486 2.509.004-.005 2.486-2.508-.004zm.004-2.49.004-2.498 2.509.004-.004 2.498-2.51-.004zm.004-2.498.004-2.485 2.509.004-.004 2.485-2.51-.004zm0-2.485.004-2.498 2.509.004-.004 2.498-2.51-.004zm.004-2.498.004-2.498 2.51.004-.005 2.498-2.509-.004zm.009-4.934.004-2.498 2.508.005-.004 2.498-2.508-.005zm4.93 19.842-.005 2.46-2.446-.004.004-2.46 2.446.004zm-2.447-.004.004-2.435 2.447.004-.005 2.435-2.446-.004zm.025-19.833.005-2.498 2.446.004-.005 2.498-2.446-.004zm4.93 19.841-.004 2.46-2.509-.003.004-2.46 2.51.003zm-2.509-.004.005-2.435 2.508.004-.004 2.435-2.509-.004zm.025-19.833L56.6 9.22l2.508.004-.004 2.498-2.509-.004zm4.993 19.842-.004 2.46-2.509-.004.004-2.46 2.509.004zm-2.509-.005.004-2.435 2.51.004-.005 2.436-2.509-.005zm.004-2.435.005-2.498 2.508.004-.004 2.498-2.509-.004zm0-2.498.005-2.486 2.508.005-.004 2.485-2.509-.004zm.005-2.486.004-2.497 2.509.004-.005 2.498-2.508-.005zm.004-2.497.004-2.486 2.509.004-.004 2.486-2.51-.004zm0-2.486.004-2.498 2.509.004-.004 2.498-2.51-.004zm.004-2.498.004-2.498 2.509.005-.004 2.497-2.51-.004zm.008-4.937.005-2.498 2.508.004-.004 2.498-2.509-.004zm4.98 19.841-.004 2.461-2.496-.004.004-2.46 2.496.004zm-2.496 0 .004-2.435 2.496.004-.004 2.436-2.496-.005zm.004-2.435.004-2.498 2.497.004-.005 2.498-2.496-.004zm0-2.498.004-2.485 2.497.004-.005 2.485-2.496-.004zm.004-2.49.005-2.497 2.496.004-.004 2.498-2.497-.005zm.005-2.497.004-2.486 2.496.004-.004 2.486-2.496-.004zm0-2.486.004-2.498 2.496.004-.004 2.498-2.496-.004zm.004-2.498.004-2.498 2.496.005-.004 2.497-2.496-.004zm.008-4.933.004-2.498 2.497.004-.005 2.498-2.496-.004zm2.488 7.435.004-2.498 2.51.005-.005 2.498-2.509-.005zm0-2.498.004-2.498 2.51.005-.005 2.498-2.509-.005zm.004-2.498.004-2.435 2.51.004-.005 2.436-2.509-.005zm.004-2.435.005-2.498 2.508.004-.004 2.498-2.509-.004zm2.5 7.436.005-2.498 2.496.004-.004 2.498-2.496-.005zm0-2.498.005-2.498 2.496.004-.004 2.498-2.496-.004zm.005-2.498.004-2.436 2.497.004-.005 2.436-2.496-.004z" fill="#fff"/><path d="m66.593 31.565.004-2.436 2.509.004-.004 2.436-2.509-.004zm.004-2.436.004-2.498 2.51.004-.005 2.498-2.509-.004zm0-2.498.004-2.485 2.51.004-.005 2.485-2.509-.004zm.004-2.485.005-2.498 2.508.004-.004 2.498-2.509-.004zm.005-2.498.004-2.485 2.509.004-.005 2.485-2.508-.004zm.004-2.485.004-2.498 2.509.004-.004 2.498-2.51-.005zm0-2.498.004-2.498 2.509.004-.004 2.498-2.51-.004zm.004-2.498.004-2.436 2.509.004-.004 2.436-2.51-.004zm.004-2.436.004-2.498 2.51.004-.005 2.498-2.509-.004zm4.98 19.842-.004 2.46-2.496-.004.004-2.46 2.496.004zm-2.496-.004.004-2.436 2.496.005-.004 2.435-2.496-.004zm.025-19.834.004-2.498 2.496.005-.004 2.497-2.496-.004zm4.98 19.838-.004 2.46-2.509-.004.004-2.46 2.509.004zm-2.509 0 .004-2.436 2.51.005-.005 2.435-2.509-.004zm.025-19.838.004-2.498 2.51.005-.005 2.497-2.509-.004zm4.93 19.842-.004 2.46-2.446-.004.004-2.46 2.446.004zm-2.446-.004.004-2.436 2.446.005-.004 2.435-2.446-.004zm.004-2.436.004-2.497 2.447.004-.005 2.498-2.446-.005zm0-2.497.004-2.486 2.447.004-.005 2.486-2.446-.004zm.004-2.486.005-2.498 2.446.004-.005 2.498-2.446-.004zm.009-4.983.004-2.498 2.446.004-.004 2.498-2.446-.004zm0-2.498.004-2.498 2.446.004-.004 2.498-2.446-.004zm.004-2.498.004-2.436 2.446.005-.004 2.435-2.446-.004zm.004-2.436.004-2.497 2.446.004-.004 2.498-2.446-.005zm4.93 19.842-.004 2.46-2.51-.003.005-2.46 2.509.003zm-2.509-.004.004-2.435 2.51.004-.005 2.435-2.509-.004zm.004-2.435.004-2.498 2.51.004-.005 2.498-2.509-.004zm0-2.498.004-2.486 2.51.005-.005 2.485-2.509-.004zm.004-2.486.005-2.498 2.508.005-.004 2.498-2.508-.005zm.009-4.983.004-2.498 2.509.004-.004 2.498-2.51-.004zm.004-2.498.004-2.498 2.51.004-.005 2.498-2.509-.004zm0-2.498.004-2.435 2.51.004-.005 2.435-2.509-.004zm2.488 17.402.004-2.435 2.509.004-.004 2.436-2.509-.005zm.004-2.435.004-2.498 2.51.004-.005 2.498-2.509-.004zm0-2.498.004-2.485 2.51.004-.005 2.485-2.509-.004zm.004-2.485.005-2.498 2.508.004-.004 2.498-2.509-.005zm.009-4.984.004-2.498 2.509.004-.004 2.498-2.51-.004zm.004-2.498.004-2.498 2.509.005-.004 2.497-2.51-.004zm0-2.498.004-2.435 2.509.004-.004 2.435-2.51-.004zm.004-2.44.004-2.497 2.51.004-.005 2.498-2.509-.004zm4.98 19.843-.004 2.46-2.496-.004.004-2.46 2.496.003zm-2.496 0 .004-2.436 2.496.004-.004 2.436-2.496-.005zm.025-19.838L81.6 9.25l2.496.004-.004 2.498-2.496-.004zm4.98 19.842-.004 2.46-2.51-.004.005-2.46 2.509.004zm-2.509-.005.004-2.435 2.51.004-.005 2.436-2.509-.005zm.025-19.833.004-2.498 2.51.004-.005 2.498-2.509-.004zm4.98 19.842-.004 2.46-2.496-.004.004-2.46 2.496.004zm-2.496-.004.004-2.436 2.496.004-.004 2.436-2.496-.004zm.004-2.436.004-2.498 2.497.004-.005 2.498-2.496-.004zm0-2.498.004-2.485 2.497.004-.005 2.485-2.496-.004zm.004-2.485.004-2.498 2.497.004-.004 2.498-2.497-.004zm.004-2.498.005-2.485 2.496.004-.004 2.485-2.496-.004zm.005-2.485.004-2.498 2.496.004-.004 2.498-2.496-.005zm0-2.498.004-2.498 2.496.004-.004 2.498-2.496-.004zm.004-2.498.004-2.436 2.496.004-.004 2.436-2.496-.004zm.004-2.436.004-2.498 2.496.004-.004 2.498-2.496-.004zm4.93 19.842-.004 2.46-2.459-.004.004-2.46 2.459.004zm-2.459-.004.004-2.436 2.46.005-.005 2.435-2.459-.004zm.004-2.436.005-2.498 2.458.005-.004 2.498-2.459-.005zm.005-2.498.004-2.485 2.459.004-.005 2.486-2.458-.005zm0-2.485.004-2.498 2.459.004-.005 2.498-2.458-.004zm.004-2.498.004-2.485 2.459.004-.005 2.485-2.458-.004zm.004-2.485.004-2.498 2.459.004-.004 2.498-2.459-.004zm.004-2.498.004-2.498 2.459.004-.004 2.498-2.459-.004zm0-2.498.004-2.436 2.459.005-.004 2.435-2.459-.004z" fill="#fff"/><path d="m89.073 31.594.004-2.436 2.508.005-.004 2.435-2.508-.004zm.004-2.436.004-2.498 2.509.005-.005 2.498-2.508-.005zm.004-2.498.004-2.485 2.509.004-.004 2.486-2.51-.005zm0-2.485.004-2.498 2.509.004-.004 2.498-2.51-.004zm.004-2.498.004-2.485 2.51.004-.005 2.485-2.509-.004zm.004-2.485.004-2.498 2.51.004-.005 2.498-2.509-.004zm.004-2.498.005-2.498 2.508.004-.004 2.498-2.509-.004zm0-2.498.005-2.436 2.508.005-.004 2.435-2.509-.004zm.005-2.44.004-2.498 2.509.004-.005 2.498-2.508-.004zm4.98 19.842-.005 2.46-2.496-.004.004-2.46 2.497.004zm-2.497 0 .004-2.435 2.497.004-.004 2.435-2.497-.004zm.025-19.838.005-2.498 2.496.005-.004 2.498-2.497-.005zm4.98 19.842-.004 2.46-2.508-.004.004-2.46 2.508.004zm-2.508-.004.004-2.435 2.509.004-.004 2.435-2.51-.004zm.025-19.834.004-2.497 2.509.004-.004 2.498-2.51-.005zm4.93 19.842-.005 2.46-2.446-.003.005-2.46 2.446.003zm-2.447-.004.005-2.435 2.446.004-.004 2.435-2.447-.004zm.009-4.933.004-2.486 2.446.005-.004 2.485-2.446-.004zm0-2.486.004-2.498 2.446.005-.004 2.497-2.446-.004zm.004-2.498.004-2.485 2.446.004-.004 2.486-2.446-.005zm.004-2.485.004-2.498 2.447.004-.005 2.498-2.446-.004zm.004-2.498.005-2.498 2.446.004-.005 2.498-2.446-.004zm.005-4.933.004-2.498 2.446.004-.004 2.498-2.446-.004zm4.929 19.841-.004 2.46-2.509-.003.005-2.46 2.508.003zm-2.508-.004.004-2.435 2.509.004-.005 2.435-2.508-.004zm.008-4.933.004-2.485 2.509.004-.004 2.485-2.509-.004zm.004-2.485.004-2.498 2.509.004-.004 2.498-2.509-.005zm0-2.498.004-2.486 2.509.004-.004 2.486-2.509-.004zm.004-2.486.004-2.498 2.509.004-.004 2.498-2.509-.004zm.004-2.498.005-2.498 2.509.005-.005 2.497-2.508-.004zm.005-4.937.004-2.498 2.509.004-.004 2.498-2.51-.004zm4.992 19.841-.004 2.46-2.509-.003.004-2.46 2.509.003zm-2.509 0 .005-2.435 2.508.004-.004 2.436-2.509-.005zm.013-7.422.004-2.498 2.509.004-.004 2.498-2.509-.005zm0-2.498.004-2.486 2.509.004-.004 2.486-2.509-.004zm.004-2.486.004-2.498 2.509.004-.004 2.498-2.509-.004zm.009-7.431.004-2.498 2.509.004-.005 2.498-2.508-.004zm4.98 19.842-.005 2.46-2.496-.004.004-2.46 2.497.004zm-2.497-.005.004-2.435 2.497.004-.004 2.436-2.497-.005zm.004-2.435.005-2.498 2.496.004-.004 2.498-2.497-.004zm.021-14.963.005-2.435 2.496.004-.004 2.436-2.497-.005zm0-2.435.005-2.498 2.496.004-.004 2.498-2.497-.004zm4.98 19.842-.004 2.46-2.509-.004.005-2.46 2.508.004zm-2.508-.004.004-2.436 2.509.004-.005 2.436-2.508-.004zm.004-2.436.004-2.498 2.509.004-.004 2.498-2.509-.004zm.004-2.498.004-2.485 2.509.004-.004 2.485-2.509-.004zm.013-9.966.004-2.498 2.509.004-.005 2.498-2.508-.005zm.004-2.498.004-2.436 2.509.004-.004 2.436-2.509-.004zm2.483 17.402.005-2.436 2.496.005-.004 2.435-2.497-.004zm.005-2.436.004-2.498 2.496.005-.004 2.497-2.496-.004zm.004-2.498.004-2.485 2.496.004-.004 2.486-2.496-.005zm.004-2.485.004-2.498 2.496.004-.004 2.498-2.496-.004zm0-2.498.004-2.485 2.496.004-.004 2.485-2.496-.004zm.004-2.485.004-2.498 2.497.004-.005 2.498-2.496-.004zm.004-2.498.005-2.498 2.496.004-.004 2.498-2.497-.004zm2.48 12.464.004-2.498 2.459.005-.004 2.497-2.459-.004zm.004-2.498.004-2.485 2.459.004-.004 2.486-2.459-.005zm.004-2.485.004-2.498 2.459.004-.004 2.498-2.459-.004zm0-2.498.004-2.485 2.459.004-.004 2.485-2.459-.004zm.004-2.485.005-2.498 2.458.004-.004 2.498-2.459-.004z" fill="#fff"/><path d="m111.552 31.623.004-2.436 2.509.005-.005 2.435-2.508-.004zm.004-2.44.004-2.498 2.509.005-.004 2.497-2.509-.004zm.004-2.498.004-2.485 2.509.004-.004 2.486-2.509-.005zm.004-2.485.004-2.498 2.509.004-.004 2.498-2.509-.004zm0-2.498.004-2.485 2.509.004-.004 2.485-2.509-.004zm.004-2.485.004-2.498 2.509.004-.004 2.498-2.509-.004zm.004-2.498.005-2.498 2.508.004-.004 2.498-2.509-.004zm.005-2.498.004-2.436 2.509.005-.005 2.435-2.508-.004zm0-2.436.004-2.498 2.509.005-.005 2.498-2.508-.005zm4.98 19.842-.005 2.46-2.496-.004.004-2.46 2.497.004zm-2.497-.004.005-2.436 2.496.005-.004 2.435-2.497-.004zm.025-19.834.005-2.497 2.496.004-.004 2.498-2.497-.005zm4.981 19.842-.005 2.46-2.509-.003.005-2.46 2.509.003zm-2.509-.004.004-2.435 2.509.004-.004 2.435-2.509-.004zm.025-19.833.004-2.498 2.509.004-.004 2.498-2.509-.004zm4.934 19.841-.004 2.46-2.446-.003.004-2.46 2.446.003zm-2.45-.004.004-2.435 2.446.004-.004 2.435-2.446-.004zm.004-2.435.004-2.498 2.446.004-.004 2.498-2.446-.004zm.004-2.498.004-2.486 2.446.005-.004 2.485-2.446-.004zm.004-2.486.004-2.497 2.446.004-.004 2.498-2.446-.005zm.004-4.983.004-2.498 2.447.004-.005 2.498-2.446-.004zm.004-2.498.005-2.498 2.446.004-.004 2.498-2.447-.004zm.005-4.937.004-2.498 2.446.004-.004 2.498-2.446-.004zm4.934 19.841-.005 2.46-2.508-.003.004-2.46 2.509.003zm-2.509 0 .004-2.435 2.509.004-.004 2.436-2.509-.005zm0-2.44.004-2.497 2.509.004-.004 2.498-2.509-.004zm.004-2.497.004-2.486 2.509.005-.004 2.485-2.509-.004zm.004-2.486.004-2.497 2.509.004-.004 2.498-2.509-.005zm.004-4.983.005-2.498 2.508.004-.004 2.498-2.509-.004zm.005-2.498.004-2.498 2.509.004-.005 2.498-2.508-.004zm.008-4.933.004-2.498 2.509.004-.004 2.498-2.509-.004zm2.484 19.837.004-2.435 2.509.004-.004 2.436-2.509-.005zm0-2.435.004-2.498 2.509.004-.004 2.498-2.509-.004zm.004-2.498.004-2.485 2.509.004-.004 2.485-2.509-.004zm.004-2.485.004-2.498 2.509.004-.004 2.498-2.509-.004zm.004-4.984.004-2.498 2.509.005-.004 2.497-2.509-.004zm.004-2.498.005-2.498 2.508.005-.004 2.497-2.509-.004zm.009-4.933.004-2.498 2.509.004-.004 2.498-2.509-.004zm4.98 19.842-.004 2.46-2.497-.004.005-2.46 2.496.004zm-2.501-.004.005-2.436 2.496.004-.004 2.436-2.497-.004zm.025-19.834.005-2.498 2.496.004-.004 2.498-2.497-.004zm4.985 19.842-.005 2.46-2.508-.004.004-2.46 2.509.004zm-2.509-.004.004-2.436 2.509.005-.004 2.435-2.509-.004zm.012-9.917.005-2.485 2.508.004-.004 2.485-2.509-.004zm.009-7.481.004-2.436 2.509.005-.004 2.435-2.509-.004zm0-2.44.004-2.498 2.509.004-.004 2.498-2.509-.004zm4.984 19.842-.004 2.46-2.497-.004.005-2.456h2.496zm-2.496 0 .004-2.436 2.496.005-.004 2.43h-2.496zm0-2.44.004-2.498 2.496.005-.004 2.497-2.496-.004zm.004-2.498.004-2.485 2.496.004-.004 2.486-2.496-.005zm.004-2.485.004-2.498 2.496.004-.004 2.498-2.496-.004zm.004-2.498.004-2.485 2.497.004-.005 2.485-2.496-.004zm0-2.485.004-2.498 2.497.004-.005 2.498-2.496-.004zm.004-2.498.005-2.498 2.496.004-.004 2.498-2.497-.004zm.005-2.498.004-2.436 2.496.005-.004 2.435-2.496-.004zm4.934 17.406-.005 2.46-2.458-.004.004-2.46 2.459.004zm-2.459-.004.004-2.436 2.459.005-.004 2.435-2.459-.004zm0-2.436.004-2.497 2.459.004-.004 2.498-2.459-.005zm.004-2.497.004-2.486 2.459.004-.004 2.486-2.459-.005zm.004-2.486.004-2.498 2.459.004-.004 2.498-2.459-.004zm.004-2.498.005-2.485 2.458.004-.004 2.485-2.459-.004zm0-2.485.005-2.498 2.458.004-.004 2.498-2.459-.004zm.005-2.498.004-2.498 2.459.004-.005 2.498-2.458-.004z" fill="#fff"/><path d="m134.035 31.648.004-2.436 2.509.005-.004 2.435-2.509-.004zm0-2.436.004-2.497 2.509.004-.004 2.498-2.509-.005zm.004-2.497.005-2.486 2.508.004-.004 2.486-2.509-.005zm.005-2.486.004-2.498 2.509.004-.005 2.498-2.508-.004zm.004-2.498.004-2.485 2.509.004-.004 2.485-2.509-.004zm0-2.485.004-2.498 2.509.004-.004 2.498-2.509-.004zm.004-2.498.004-2.498 2.509.004-.004 2.498-2.509-.004zm.004-2.498.004-2.435 2.509.004-.004 2.435-2.509-.004zm4.984 17.406-.004 2.46-2.496-.004.004-2.46 2.496.004zm-2.496-.004.004-2.435 2.496.004-.004 2.435-2.496-.004zm.021-17.398.004-2.435 2.496.004-.004 2.435-2.496-.004zm.004-2.435.004-2.498 2.497.004-.005 2.498-2.496-.004zm4.98 19.841-.004 2.46-2.509-.003.004-2.46 2.509.003zm-2.509-.004.004-2.435 2.509.004-.004 2.435-2.509-.004zm.025-19.837.005-2.498 2.508.004-.004 2.498-2.509-.004zm4.93 19.841-.004 2.46-2.446-.003.004-2.46 2.446.003zm-2.446 0 .004-2.435 2.446.004-.004 2.436-2.446-.005zm0-2.44.004-2.497 2.446.004-.004 2.498-2.446-.004zm.004-2.497.005-2.486 2.446.005-.005 2.485-2.446-.004zm.009-4.983.004-2.486 2.446.004-.004 2.486-2.446-.005zm0-2.486.004-2.498 2.446.004-.004 2.498-2.446-.004zm.004-2.498.004-2.498 2.446.004-.004 2.498-2.446-.004zm.008-4.933.004-2.498 2.447.004-.005 2.498-2.446-.004zm4.93 19.842-.004 2.46-2.509-.004.004-2.46 2.509.004zm-2.509-.005.004-2.435 2.509.004-.004 2.436-2.509-.005zm.004-2.435.005-2.498 2.508.004-.004 2.498-2.509-.004zm0-2.498.005-2.485 2.508.004-.004 2.485-2.509-.004zm.009-4.983.004-2.486 2.509.004-.004 2.486-2.509-.004zm.004-2.486.004-2.498 2.509.005-.004 2.497-2.509-.004zm0-2.498.004-2.498 2.509.005-.004 2.498-2.509-.005zm.008-4.933.005-2.498 2.508.004-.004 2.498-2.509-.004zm2.484 19.838.004-2.436 2.509.004-.004 2.436-2.509-.004zm.004-2.436.004-2.498 2.509.004-.004 2.498-2.509-.004zm0-2.498.004-2.485 2.509.004-.004 2.485-2.509-.004zm.009-4.983.004-2.486 2.509.005-.005 2.485-2.508-.004zm.004-2.486.004-2.497 2.509.004-.004 2.498-2.509-.005zm0-2.497.004-2.498 2.509.004-.004 2.498-2.509-.004zm.008-4.934.004-2.498 2.509.004-.004 2.498-2.509-.004zm4.98 19.842-.004 2.46-2.496-.004.004-2.46 2.496.004zm-2.496-.004.004-2.436 2.496.004-.004 2.436-2.496-.004zm.025-19.838.004-2.498 2.497.004-.005 2.498-2.496-.004zm4.98 19.842-.004 2.46-2.509-.004.004-2.46 2.509.004zm-2.509 0 .004-2.436 2.509.005-.004 2.435-2.509-.004zm.021-17.402.004-2.436 2.509.004-.004 2.436-2.509-.004zm.004-2.436.005-2.498 2.508.005-.004 2.497-2.509-.004zm4.98 19.842-.004 2.46-2.496-.004.004-2.46 2.496.004zm-2.496-.004.004-2.436 2.497.005-.005 2.435-2.496-.004zm.004-2.436.004-2.497 2.497.004-.004 2.498-2.497-.005zm0-2.497.004-2.486 2.497.004-.004 2.486-2.497-.005zm.004-2.486.005-2.498 2.496.004-.004 2.498-2.497-.004zm.005-2.498.004-2.485 2.496.004-.004 2.485-2.496-.004zm.004-2.485.004-2.498 2.496.004-.004 2.498-2.496-.004zm0-2.498.004-2.498 2.496.004-.004 2.498-2.496-.004zm.004-2.498.004-2.436 2.496.005-.004 2.435-2.496-.004zm4.934 17.406-.004 2.46-2.459-.003.004-2.46 2.459.003zm-2.459-.004.005-2.435 2.458.004-.004 2.435-2.459-.004zm.005-2.435.004-2.498 2.458.004-.004 2.498-2.458-.004zm0-2.498.004-2.486 2.458.004-.004 2.486-2.458-.004zm.004-2.486.004-2.498 2.459.005-.005 2.497-2.458-.004zm.004-2.498.004-2.485 2.459.004-.004 2.486-2.459-.005zm.004-2.485.004-2.498 2.459.004-.004 2.498-2.459-.004zm0-2.498.004-2.498 2.459.004-.004 2.498-2.459-.004z" fill="#fff"/><path d="m156.514 31.677.004-2.435 2.509.004-.004 2.435-2.509-.004zm.004-2.435.005-2.498 2.508.004-.004 2.498-2.509-.004zm0-2.498.005-2.486 2.508.004-.004 2.486-2.509-.004zm.005-2.486.004-2.498 2.509.005-.005 2.497-2.508-.004zm.004-2.498.004-2.485 2.509.004-.004 2.486-2.509-.005zm.004-2.485.004-2.498 2.509.004-.004 2.498-2.509-.004zm0-2.498.004-2.498 2.509.004-.004 2.498-2.509-.004zm.004-2.498.004-2.435 2.509.004-.004 2.435-2.509-.004zm.004-2.435.004-2.498 2.509.004-.004 2.498-2.509-.004zm4.98 19.841-.004 2.46-2.496-.003.004-2.46 2.496.003zm-2.496-.004.004-2.435 2.496.004-.004 2.435-2.496-.004zm.025-19.837.004-2.498 2.497.004-.005 2.498-2.496-.004zm4.98 19.841-.004 2.46-2.509-.003.004-2.46 2.509.003zm-2.509 0 .004-2.435 2.509.004-.004 2.436-2.509-.005zm.025-19.837.005-2.498 2.508.004-.004 2.498-2.509-.004zm4.93 19.842-.004 2.46-2.446-.004.004-2.46 2.446.004zm-2.446-.005.004-2.435 2.446.004-.004 2.436-2.446-.005zm.004-2.435.005-2.498 2.446.004-.005 2.498-2.446-.004zm.009-7.481.004-2.486 2.446.004-.004 2.486-2.446-.004zm.004-2.486.004-2.498 2.446.005-.004 2.497-2.446-.004zm.004-2.498.004-2.498 2.446.005-.004 2.498-2.446-.005zm0-2.498.004-2.435 2.446.004-.004 2.436-2.446-.005zm.004-2.435.004-2.498 2.447.004-.005 2.498-2.446-.004zm4.93 19.842-.004 2.46-2.509-.004.004-2.46 2.509.004zm-2.509-.004.004-2.436 2.509.004-.004 2.436-2.509-.004zm.004-2.436.005-2.498 2.508.004-.004 2.498-2.509-.004zm.005-2.498.004-2.485 2.509.004-.005 2.485-2.508-.004zm.008-7.469.004-2.497 2.509.004-.004 2.498-2.509-.005zm.004-2.497.004-2.498 2.509.004-.004 2.498-2.509-.005zm0-2.498.004-2.436 2.509.004-.004 2.436-2.509-.004zm2.488 17.402.004-2.436 2.509.004-.004 2.436-2.509-.004zm.004-2.436.004-2.498 2.509.005-.004 2.497-2.509-.004zm.009-7.481.004-2.485 2.509.004-.005 2.485-2.508-.004zm.004-2.49.004-2.497 2.509.004-.004 2.498-2.509-.005zm.004-2.497.004-2.498 2.509.004-.004 2.498-2.509-.005zm0-2.498.004-2.436 2.509.004-.004 2.436-2.509-.004zm.004-2.436.004-2.498 2.509.004-.004 2.498-2.509-.004zm4.98 19.842-.004 2.46-2.496-.004.004-2.46 2.496.004zm-2.496 0 .004-2.436 2.496.005-.004 2.435-2.496-.004zm.025-19.838.004-2.498 2.497.004-.005 2.498-2.496-.004zm4.98 19.842-.004 2.46-2.509-.004.004-2.46 2.509.004zm-2.509-.004.004-2.436 2.509.005-.004 2.435-2.509-.004zm.025-19.834.005-2.498 2.508.005-.004 2.498-2.509-.005zm4.98 19.842-.004 2.46-2.496-.003.004-2.461 2.496.004zm-2.496-.004.004-2.435 2.497.004-.005 2.435-2.496-.004zm.004-2.435.004-2.498 2.497.004-.004 2.498-2.497-.004zm.004-2.498.005-2.486 2.496.004-.004 2.486-2.497-.004zm0-2.486.005-2.498 2.496.005-.004 2.497-2.497-.004zm.005-2.498.004-2.485 2.496.004-.004 2.486-2.496-.005zm.004-2.485.004-2.498 2.496.004-.004 2.498-2.496-.004zm.004-2.498.004-2.498 2.496.004-.004 2.498-2.496-.004zm0-2.498.004-2.435 2.496.004-.004 2.435-2.496-.004zm.004-2.435.004-2.498 2.497.004-.005 2.498-2.496-.004zm4.93 19.841-.004 2.46-2.459-.003.004-2.46 2.459.003zm-2.459-.004.005-2.435 2.458.004-.004 2.435-2.459-.004zm.005-2.435.004-2.498 2.458.004-.004 2.498-2.458-.004zm.004-2.498.004-2.486 2.459.005-.005 2.485-2.458-.004zm0-2.486.004-2.497 2.459.004-.005 2.498-2.458-.005zm.004-2.497.004-2.486 2.459.004-.004 2.486-2.459-.005zm.004-2.49.004-2.498 2.459.004-.004 2.498-2.459-.004zm.004-2.498.004-2.498 2.459.004-.004 2.498-2.459-.004zm.004-2.498.005-2.435 2.458.004-.004 2.435-2.459-.004z" fill="#fff"/></svg>