<svg width="196" height="50" viewBox="0 0 196 50" fill="none" xmlns="http://www.w3.org/2000/svg">
    <path fill-rule="evenodd" clip-rule="evenodd" d="M188.248 41.4119V41.4046L191.791 41.411V41.4183L188.248 41.4119ZM188.248 49.9935L191.778 49.9998L191.785 45.6908V45.6835L195.792 45.6908L195.799 41.4183L195.806 37.0362L195.813 32.6761L195.82 28.2941H195.813L195.82 23.9339L195.826 19.5519L195.833 15.1698L191.826 15.1625H191.819L191.826 10.8901L188.248 10.8836V6.46419H159.28H8.27485V6.47162L4.20039 6.46443L4.19347 10.8465L0.0346588 10.8392L0.0277207 15.1117L0.0207932 19.4937H0.0277207L0.0207932 23.8757L0.0138657 28.2359L0.00692754 32.6252L0 36.9854H0.00692754L0 41.3674L4.15881 41.3747L4.15187 45.6399L8.27485 45.6472V49.9998H32.9742L33.111 50V49.9998H37.1128L37.249 50V49.9998L187.709 49.9998L188.248 49.9998V49.9935ZM4.13752 36.9854H0.00692754L4.13752 36.9926V36.9854ZM191.798 32.6688H191.805L191.812 28.2868H191.805L191.798 32.6688Z" fill="#272727"/>
    <path fill-rule="evenodd" clip-rule="evenodd" d="M0 34.903L0.00692754 30.5209L4.13759 30.5282V30.5209H0.00692754H0L0.00692754 26.1608L0.0138657 21.7715L0.0207932 17.4113L0.0277207 13.0293H0.0207932L0.0277207 8.64723L0.0346589 4.37474L4.19347 4.38204L4.2004 0L8.27491 0.00719133V0H159.28H188.248V4.41944L191.826 4.42586L191.819 8.69836H191.826L195.833 8.70566L195.826 13.0877L195.82 17.4697L195.813 21.8299H195.82L195.813 26.2119L195.806 30.5721L195.799 34.9541L195.792 39.2266L191.785 39.2193V39.2266L191.778 43.5356L188.248 43.5293V43.5356H187.709H37.2491H33.1111H8.27491V39.1828L4.15187 39.1755L4.15881 34.9103L0 34.903ZM188.248 34.9477L191.792 34.9541V34.9468L188.248 34.9404V34.9477ZM191.798 26.2046H191.805L191.812 21.8226H191.805L191.798 26.2046Z" fill="#565656"/>
    <path d="M14.1667 31.4981L14.1709 29.0626L16.6798 29.0667L16.6756 31.5022L14.1667 31.4981ZM14.1709 29.0626L14.1751 26.5647L16.684 26.5688L16.6798 29.0667L14.1709 29.0626ZM14.1709 26.5647L14.1751 24.0792L16.684 24.0834L16.6798 26.5688L14.1709 26.5647ZM14.1751 24.0792L14.1793 21.5813L16.6881 21.5855L16.684 24.0834L14.1751 24.0792ZM14.1793 21.5813L14.1835 19.0959L16.6923 19.1001L16.6881 21.5855L14.1793 21.5813ZM14.1835 19.0959L14.1877 16.598L16.6965 16.6021L16.6923 19.1001L14.1835 19.0959ZM14.1835 16.598L14.1877 14.1001L16.6965 14.1042L16.6923 16.6021L14.1835 16.598ZM14.1877 14.1001L14.1918 11.6646L16.7007 11.6688L16.6965 14.1042L14.1877 14.1001ZM14.1918 11.6646L14.196 9.16667L16.7049 9.17083L16.7007 11.6688L14.1918 11.6646ZM19.1719 31.5064L19.1677 33.9668L16.6714 33.9627L16.6756 31.5022L19.1719 31.5064ZM16.6756 31.5022L16.6798 29.0667L19.1761 29.0709L19.1719 31.5064L16.6756 31.5022ZM16.7007 11.6688L16.7049 9.17083L19.2012 9.175L19.197 11.6729L16.7007 11.6688ZM21.6807 31.5105L21.6766 33.971L19.1677 33.9668L19.1719 31.5064L21.6807 31.5105ZM19.1719 31.5064L19.1761 29.0709L21.6849 29.0751L21.6807 31.5105L19.1719 31.5064ZM19.197 11.6729L19.2012 9.175L21.71 9.17916L21.7058 11.6771L19.197 11.6729ZM24.1269 31.5105L24.1227 33.971L21.6766 33.9668L21.6807 31.5064L24.1269 31.5105ZM21.6807 31.5105L21.6849 29.0751L24.131 29.0792L24.1269 31.5147L21.6807 31.5105ZM21.6849 29.0751L21.6891 26.5772L24.1352 26.5813L24.131 29.0792L21.6849 29.0751ZM21.6933 21.5897L21.6975 19.1042L24.1436 19.1084L24.1394 21.5938L21.6933 21.5897ZM21.6975 19.1042L21.7016 16.6063L24.1478 16.6105L24.1436 19.1084L21.6975 19.1042ZM21.7016 16.6063L21.7058 14.1084L24.1519 14.1125L24.1478 16.6105L21.7016 16.6063ZM21.7016 14.1084L21.7058 11.6729L24.1519 11.6771L24.1478 14.1125L21.7016 14.1084ZM21.7058 11.6729L21.71 9.175L24.1561 9.17916L24.1519 11.6771L21.7058 11.6729ZM26.6357 31.5147L26.6315 33.9752L24.1227 33.971L24.1269 31.5105L26.6357 31.5147ZM24.1269 31.5105L24.131 29.0751L26.6399 29.0792L26.6357 31.5147L24.1269 31.5105ZM24.131 29.0751L24.1352 26.5772L26.6441 26.5813L26.6399 29.0792L24.131 29.0751ZM24.1352 26.5772L24.1394 24.0917L26.6482 24.0959L26.6441 26.5813L24.1352 26.5772ZM24.1436 19.1084L24.1478 16.6105L26.6566 16.6146L26.6524 19.1125L24.1436 19.1084ZM24.1478 16.6105L24.1519 14.1125L26.6608 14.1167L26.6566 16.6146L24.1478 16.6105ZM24.1519 14.1125L24.1561 11.6771L26.665 11.6812L26.6608 14.1167L24.1519 14.1125ZM26.6357 31.5147L26.6399 29.0792L29.1487 29.0834L29.1445 31.5189L26.6357 31.5147ZM26.6399 29.0792L26.6441 26.5813L29.1529 26.5855L29.1487 29.0834L26.6399 29.0792ZM26.6482 21.598L26.6524 19.1125L29.1613 19.1167L29.1571 21.6021L26.6482 21.598ZM26.6524 19.1125L26.6566 16.6146L29.1655 16.6188L29.1613 19.1167L26.6524 19.1125ZM26.6566 16.6146L26.6608 14.1167L29.1696 14.1209L29.1655 16.6188L26.6566 16.6146ZM26.6608 14.1167L26.665 11.6812L29.1738 11.6854L29.1696 14.1209L26.6608 14.1167ZM26.6608 11.6812L26.665 9.18332L29.1738 9.18749L29.1696 11.6854L26.6608 11.6812ZM31.6408 31.523L31.6367 33.9835L29.1404 33.9793L29.1445 31.5189L31.6408 31.523ZM29.1445 31.5189L29.1487 29.0834L31.645 29.0876L31.6408 31.523L29.1445 31.5189ZM29.1696 11.6812L29.1738 9.18332L31.6701 9.18749L31.6659 11.6854L29.1696 11.6812ZM34.1497 31.5272L34.1455 33.9876L31.6367 33.9835L31.6408 31.523L34.1497 31.5272ZM31.6408 31.523L31.645 29.0876L34.1539 29.0917L34.1497 31.5272L31.6408 31.523ZM31.6659 11.6854L31.6701 9.18749L34.179 9.19165L34.1748 11.6896L31.6659 11.6854ZM36.646 31.5272L36.6418 33.9876L34.1455 33.9835L34.1497 31.523L36.646 31.5272ZM34.1497 31.5272L34.1539 29.0917L36.6502 29.0959L36.646 31.5314L34.1497 31.5272ZM34.1539 29.0876L34.1581 26.5896L36.6544 26.5938L36.6502 29.0917L34.1539 29.0876ZM34.1581 26.5896L34.1622 24.1042L36.6585 24.1084L36.6544 26.5938L34.1581 26.5896ZM34.1622 24.1042L34.1664 21.6063L36.6627 21.6105L36.6585 24.1084L34.1622 24.1042ZM34.1622 21.6063L34.1664 19.1209L36.6627 19.125L36.6585 21.6105L34.1622 21.6063ZM34.1664 19.1209L34.1706 16.623L36.6669 16.6271L36.6627 19.125L34.1664 19.1209ZM34.1706 16.623L34.1748 14.125L36.6711 14.1292L36.6669 16.6271L34.1706 16.623ZM34.1748 14.125L34.179 11.6896L36.6753 11.6937L36.6711 14.1292L34.1748 14.125ZM34.1748 11.6896L34.179 9.19165L36.6753 9.19581L36.6711 11.6937L34.1748 11.6896ZM39.1047 31.5314L39.1005 33.9918L36.6418 33.9876L36.646 31.5272L39.1047 31.5314ZM36.646 31.5272L36.6502 29.0917L39.1088 29.0959L39.1047 31.5314L36.646 31.5272ZM36.6502 29.0917L36.6544 26.5938L39.113 26.598L39.1088 29.0959L36.6502 29.0917ZM36.6544 26.5938L36.6585 24.1084L39.1172 24.1125L39.113 26.598L36.6544 26.5938ZM36.6585 24.1084L36.6627 21.6105L39.1214 21.6146L39.1172 24.1125L36.6585 24.1084ZM36.6585 21.6105L36.6627 19.125L39.1214 19.1292L39.1172 21.6146L36.6585 21.6105ZM36.6627 19.125L36.6669 16.6271L39.1256 16.6313L39.1214 19.1292L36.6627 19.125ZM36.6669 16.6271L36.6711 14.1292L39.1297 14.1334L39.1256 16.6313L36.6669 16.6271ZM36.6711 14.1292L36.6753 11.6937L39.1339 11.6979L39.1297 14.1334L36.6711 14.1292Z" fill="white"/>
    <path d="M36.646 31.5272L36.6502 29.0917L39.159 29.0959L39.1548 31.5314L36.646 31.5272ZM36.6502 29.0917L36.6544 26.5938L39.1632 26.598L39.159 29.0959L36.6502 29.0917ZM36.6544 26.5938L36.6585 24.1084L39.1674 24.1125L39.1632 26.598L36.6544 26.5938ZM36.6585 24.1084L36.6627 21.6105L39.1716 21.6146L39.1674 24.1125L36.6585 24.1084ZM36.6585 21.6105L36.6627 19.125L39.1716 19.1292L39.1674 21.6146L36.6585 21.6105ZM36.6627 19.125L36.6669 16.6271L39.1757 16.6313L39.1716 19.1292L36.6627 19.125ZM36.6669 16.6271L36.6711 14.1292L39.1799 14.1334L39.1757 16.6313L36.6669 16.6271ZM36.6711 14.1292L36.6753 11.6937L39.1841 11.6979L39.1799 14.1334L36.6711 14.1292ZM36.6711 11.6937L36.6753 9.19582L39.1841 9.19998L39.1799 11.6979L36.6711 11.6937ZM41.6511 31.5355L41.647 33.996L39.1507 33.9918L39.1548 31.5314L41.6511 31.5355ZM39.1548 31.5314L39.159 29.0959L41.6553 29.1001L41.6511 31.5355L39.1548 31.5314ZM39.1799 11.6979L39.1841 9.19998L41.6804 9.20414L41.6762 11.7021L39.1799 11.6979ZM44.16 31.5355L44.1558 33.996L41.647 33.9918L41.6511 31.5314L44.16 31.5355ZM41.6511 31.5355L41.6553 29.1001L44.1642 29.1042L44.16 31.5397L41.6511 31.5355ZM41.6762 11.6979L41.6804 9.19998L44.1893 9.20414L44.1851 11.7021L41.6762 11.6979ZM46.6061 31.5397L46.6019 34.0001L44.1558 33.996L44.16 31.5355L46.6061 31.5397ZM44.16 31.5355L44.1642 29.1001L46.6103 29.1042L46.6061 31.5397L44.16 31.5355ZM44.1642 29.1001L44.1683 26.6021L46.6145 26.6063L46.6103 29.1042L44.1642 29.1001ZM44.1683 26.6021L44.1725 24.1167L46.6186 24.1209L46.6145 26.6063L44.1683 26.6021ZM44.1725 24.1167L44.1767 21.6188L46.6228 21.623L46.6186 24.1209L44.1725 24.1167ZM44.1725 21.6188L44.1767 19.1334L46.6228 19.1375L46.6186 21.623L44.1725 21.6188ZM44.1767 19.1334L44.1809 16.6354L46.627 16.6396L46.6228 19.1375L44.1767 19.1334ZM44.1809 16.6354L44.1851 14.1375L46.6312 14.1417L46.627 16.6396L44.1809 16.6354ZM44.1851 14.1375L44.1893 11.7021L46.6354 11.7062L46.6312 14.1417L44.1851 14.1375ZM44.1851 11.7021L44.1893 9.20414L46.6354 9.20831L46.6312 11.7062L44.1851 11.7021ZM49.1149 31.5439L49.1108 34.0043L46.6019 34.0001L46.6061 31.5397L49.1149 31.5439ZM46.6061 31.5397L46.6103 29.1042L49.1191 29.1084L49.1149 31.5439L46.6061 31.5397ZM46.6103 29.1042L46.6145 26.6063L49.1233 26.6105L49.1191 29.1084L46.6103 29.1042ZM46.6145 26.6063L46.6186 24.1209L49.1275 24.125L49.1233 26.6105L46.6145 26.6063ZM46.6186 24.1209L46.6228 21.623L49.1317 21.6271L49.1275 24.125L46.6186 24.1209ZM46.6228 21.623L46.627 19.1375L49.1359 19.1417L49.1317 21.6271L46.6228 21.623ZM46.6228 19.1375L46.627 16.6396L49.1359 16.6438L49.1317 19.1417L46.6228 19.1375ZM46.627 16.6396L46.6312 14.1417L49.14 14.1459L49.1359 16.6438L46.627 16.6396ZM46.6312 14.1417L46.6354 11.7062L49.1442 11.7104L49.14 14.1459L46.6312 14.1417Z" fill="white"/>
    <path d="M46.627 16.6396L46.6311 14.1417L49.14 14.1459L49.1358 16.6438L46.627 16.6396ZM46.6311 14.1417L46.6353 11.7062L49.1442 11.7104L49.14 14.1459L46.6311 14.1417ZM46.6311 11.7062L46.6353 9.20831L49.1442 9.21248L49.14 11.7104L46.6311 11.7062ZM49.1358 16.6438L49.14 14.1459L51.6363 14.15L51.6321 16.6479L49.1358 16.6438ZM49.14 11.7062L49.1442 9.20831L51.6405 9.21248L51.6363 11.7104L49.14 11.7062ZM51.6154 31.548L51.6196 29.1126L54.1284 29.1167L54.1242 31.5522L51.6154 31.548ZM51.6154 29.1126L51.6196 26.6146L54.1284 26.6188L54.1242 29.1167L51.6154 29.1126ZM51.6196 26.6146L51.6237 24.1292L54.1326 24.1334L54.1284 26.6188L51.6196 26.6146ZM51.6237 24.125L51.6279 21.6271L54.1368 21.6313L54.1326 24.1292L51.6237 24.125ZM51.6279 21.6271L51.6321 19.1417L54.1409 19.1459L54.1368 21.6313L51.6279 21.6271ZM51.6279 19.1417L51.6321 16.6438L54.1409 16.6479L54.1368 19.1459L51.6279 19.1417ZM51.6321 16.6438L51.6363 14.1459L54.1451 14.15L54.1409 16.6479L51.6321 16.6438ZM51.6405 11.7104L51.6446 9.21248L54.1535 9.21664L54.1493 11.7146L51.6405 11.7104ZM56.5703 31.5522L56.5662 34.0126L54.12 34.0085L54.1242 31.548L56.5703 31.5522ZM54.1242 31.548L54.1284 29.1126L56.5745 29.1167L56.5703 31.5522L54.1242 31.548ZM54.1493 11.7146L54.1535 9.21664L56.5996 9.2208L56.5954 11.7187L54.1493 11.7146ZM59.0792 31.5564L59.075 34.0168L56.5662 34.0126L56.5703 31.5522L59.0792 31.5564ZM56.5703 31.5522L56.5745 29.1167L59.0834 29.1209L59.0792 31.5564L56.5703 31.5522ZM56.5954 11.7187L56.5996 9.2208L59.1085 9.22497L59.1043 11.7229L56.5954 11.7187ZM61.588 31.5605L61.5838 34.021L59.075 34.0168L59.0792 31.5564L61.588 31.5605ZM59.0792 31.5564L59.0834 29.1209L61.5922 29.125L61.588 31.5605L59.0792 31.5564ZM59.0834 29.1209L59.0875 26.623L61.5964 26.6271L61.5922 29.125L59.0834 29.1209ZM59.0834 26.623L59.0875 24.1375L61.5964 24.1417L61.5922 26.6271L59.0834 26.623ZM59.0875 24.1375L59.0917 21.6396L61.6006 21.6438L61.5964 24.1417L59.0875 24.1375ZM59.0917 21.6396L59.0959 19.1542L61.6047 19.1584L61.6006 21.6438L59.0917 21.6396ZM59.0917 19.1542L59.0959 16.6563L61.6047 16.6604L61.6006 19.1584L59.0917 19.1542ZM59.0959 16.6563L59.1001 14.1584L61.6089 14.1625L61.6047 16.6604L59.0959 16.6563ZM59.1043 11.7187L59.1085 9.2208L61.6173 9.22497L61.6131 11.7229L59.1043 11.7187ZM64.0843 31.5605L64.0801 34.021L61.5838 34.0168L61.588 31.5564L64.0843 31.5605ZM61.588 31.5605L61.5922 29.125L64.0885 29.1292L64.0843 31.5647L61.588 31.5605ZM61.5922 29.125L61.5964 26.6271L64.0927 26.6313L64.0885 29.1292L61.5922 29.125ZM61.5922 26.6271L61.5964 24.1417L64.0927 24.1459L64.0885 26.6313L61.5922 26.6271ZM61.5964 24.1375L61.6006 21.6396L64.0969 21.6438L64.0927 24.1417L61.5964 24.1375ZM61.6006 21.6396L61.6047 19.1542L64.101 19.1584L64.0969 21.6438L61.6006 21.6396ZM61.6006 19.1542L61.6047 16.6563L64.101 16.6604L64.0969 19.1584L61.6006 19.1542ZM61.6047 16.6563L61.6089 14.1584L64.1052 14.1625L64.101 16.6604L61.6047 16.6563ZM61.6131 11.7229L61.6173 9.22497L64.1136 9.22913L64.1094 11.727L61.6131 11.7229ZM64.101 19.1584L64.1052 16.6604L66.6141 16.6646L66.6099 19.1625L64.101 19.1584ZM64.101 16.6604L64.1052 14.1625L66.6141 14.1667L66.6099 16.6646L64.101 16.6604ZM64.1052 14.1625L64.1094 11.727L66.6183 11.7312L66.6141 14.1667L64.1052 14.1625ZM64.1094 11.727L64.1136 9.22913L66.6224 9.23329L66.6183 11.7312L64.1094 11.727ZM66.6099 19.1625L66.6141 16.6646L69.1104 16.6688L69.1062 19.1667L66.6099 19.1625ZM66.6099 16.6646L66.6141 14.1667L69.1104 14.1708L69.1062 16.6688L66.6099 16.6646ZM66.6141 14.1667L66.6183 11.7312L69.1146 11.7354L69.1104 14.1708L66.6141 14.1667Z" fill="white"/>
    <path d="M66.593 31.5647L66.5972 29.1292L69.106 29.1334L69.1019 31.5688L66.593 31.5647ZM66.5972 29.1292L66.6014 26.6313L69.1102 26.6354L69.106 29.1334L66.5972 29.1292ZM66.5972 26.6313L66.6014 24.1458L69.1102 24.15L69.106 26.6354L66.5972 26.6313ZM66.6014 24.1458L66.6056 21.6479L69.1144 21.6521L69.1102 24.15L66.6014 24.1458ZM66.6056 21.6479L66.6097 19.1625L69.1186 19.1667L69.1144 21.6521L66.6056 21.6479ZM66.6097 19.1625L66.6139 16.6646L69.1228 16.6687L69.1186 19.1667L66.6097 19.1625ZM66.6097 16.6646L66.6139 14.1667L69.1228 14.1708L69.1186 16.6687L66.6097 16.6646ZM66.6139 14.1667L66.6181 11.7312L69.127 11.7354L69.1228 14.1708L66.6139 14.1667ZM66.6181 11.7312L66.6223 9.23328L69.1311 9.23744L69.127 11.7354L66.6181 11.7312ZM71.5982 31.573L71.594 34.0334L69.0977 34.0293L69.1019 31.5688L71.5982 31.573ZM69.1019 31.5688L69.106 29.1334L71.6023 29.1375L71.5982 31.573L69.1019 31.5688ZM69.127 11.7354L69.1311 9.23744L71.6274 9.2416L71.6233 11.7395L69.127 11.7354ZM74.107 31.573L74.1028 34.0334L71.594 34.0293L71.5982 31.5688L74.107 31.573ZM71.5982 31.573L71.6023 29.1375L74.1112 29.1417L74.107 31.5772L71.5982 31.573ZM71.6233 11.7354L71.6274 9.23744L74.1363 9.2416L74.1321 11.7395L71.6233 11.7354ZM76.5531 31.5772L76.5489 34.0376L74.1028 34.0334L74.107 31.573L76.5531 31.5772ZM74.107 31.573L74.1112 29.1375L76.5573 29.1417L76.5531 31.5772L74.107 31.573ZM74.1112 29.1375L74.1154 26.6396L76.5615 26.6438L76.5573 29.1417L74.1112 29.1375ZM74.1112 26.6396L74.1154 24.1542L76.5615 24.1583L76.5573 26.6438L74.1112 26.6396ZM74.1154 24.1542L74.1196 21.6563L76.5657 21.6604L76.5615 24.1583L74.1154 24.1542ZM74.1237 19.1708L74.1279 16.6729L76.574 16.6771L76.5699 19.175L74.1237 19.1708ZM74.1237 16.6729L74.1279 14.175L76.574 14.1792L76.5699 16.6771L74.1237 16.6729ZM74.1279 14.175L74.1321 11.7395L76.5782 11.7437L76.574 14.1792L74.1279 14.175ZM74.1321 11.7395L74.1363 9.2416L76.5824 9.24577L76.5782 11.7437L74.1321 11.7395ZM79.062 31.5813L79.0578 34.0418L76.5489 34.0376L76.5531 31.5772L79.062 31.5813ZM76.5531 31.5772L76.5573 29.1417L79.0662 29.1458L79.062 31.5813L76.5531 31.5772ZM76.5573 29.1417L76.5615 26.6438L79.0703 26.6479L79.0662 29.1458L76.5573 29.1417ZM76.5573 26.6438L76.5615 24.1583L79.0703 24.1625L79.0662 26.6479L76.5573 26.6438ZM76.5615 24.1583L76.5657 21.6604L79.0745 21.6646L79.0703 24.1625L76.5615 24.1583ZM76.5699 19.175L76.574 16.6771L79.0829 16.6812L79.0787 19.1792L76.5699 19.175ZM76.574 16.6771L76.5782 14.1792L79.0871 14.1833L79.0829 16.6812L76.574 16.6771ZM76.574 14.1792L76.5782 11.7437L79.0871 11.7478L79.0829 14.1833L76.574 14.1792ZM79.062 31.5813L79.0662 29.1458L81.575 29.15L81.5708 31.5855L79.062 31.5813ZM79.0662 29.1458L79.0703 26.6479L81.5792 26.6521L81.575 29.15L79.0662 29.1458ZM79.0662 26.6479L79.0703 24.1625L81.5792 24.1667L81.575 26.6521L79.0662 26.6479ZM79.0703 24.1625L79.0745 21.6646L81.5834 21.6687L81.5792 24.1667L79.0703 24.1625ZM79.0787 19.1792L79.0829 16.6812L81.5917 16.6854L81.5875 19.1833L79.0787 19.1792ZM79.0829 16.6812L79.0871 14.1833L81.5959 14.1875L81.5917 16.6854L79.0829 16.6812ZM79.0829 14.1833L79.0871 11.7478L81.5959 11.752L81.5917 14.1875L79.0829 14.1833ZM79.0871 11.7437L79.0912 9.24577L81.6001 9.24993L81.5959 11.7478L79.0871 11.7437ZM84.0671 31.5855L84.0629 34.0459L81.5666 34.0418L81.5708 31.5813L84.0671 31.5855ZM81.5708 31.5855L81.575 29.15L84.0713 29.1542L84.0671 31.5896L81.5708 31.5855ZM81.5959 11.7478L81.6001 9.24993L84.0964 9.25409L84.0922 11.752L81.5959 11.7478ZM86.576 31.5896L86.5718 34.0501L84.0629 34.0459L84.0671 31.5855L86.576 31.5896ZM84.0671 31.5855L84.0713 29.15L86.5801 29.1542L86.576 31.5896L84.0671 31.5855ZM84.0922 11.752L84.0964 9.25409L86.6052 9.25826L86.601 11.7562L84.0922 11.752ZM89.0723 31.5938L89.0681 34.0543L86.5718 34.0501L86.576 31.5896L89.0723 31.5938ZM86.576 31.5896L86.5801 29.1542L89.0764 29.1583L89.0723 31.5938L86.576 31.5896ZM86.5801 29.1542L86.5843 26.6563L89.0806 26.6604L89.0764 29.1583L86.5801 29.1542ZM86.5801 26.6563L86.5843 24.1708L89.0806 24.175L89.0764 26.6604L86.5801 26.6563ZM86.5843 24.1708L86.5885 21.6729L89.0848 21.6771L89.0806 24.175L86.5843 24.1708ZM86.5885 21.6729L86.5927 19.1875L89.089 19.1916L89.0848 21.6771L86.5885 21.6729ZM86.5927 19.1875L86.5969 16.6896L89.0932 16.6937L89.089 19.1916L86.5927 19.1875ZM86.5927 16.6896L86.5969 14.1916L89.0932 14.1958L89.089 16.6937L86.5927 16.6896ZM86.5969 14.1916L86.601 11.7562L89.0973 11.7603L89.0932 14.1958L86.5969 14.1916ZM86.601 11.7562L86.6052 9.25826L89.1015 9.26242L89.0973 11.7603L86.601 11.7562ZM91.5309 31.598L91.5267 34.0584L89.0681 34.0543L89.0723 31.5938L91.5309 31.598ZM89.0723 31.5938L89.0764 29.1583L91.5351 29.1625L91.5309 31.598L89.0723 31.5938ZM89.0764 29.1583L89.0806 26.6604L91.5393 26.6646L91.5351 29.1625L89.0764 29.1583ZM89.0806 26.6604L89.0848 24.175L91.5435 24.1792L91.5393 26.6646L89.0806 26.6604ZM89.0806 24.175L89.0848 21.6771L91.5435 21.6812L91.5393 24.1792L89.0806 24.175ZM89.0848 21.6771L89.089 19.1916L91.5476 19.1958L91.5435 21.6812L89.0848 21.6771ZM89.089 19.1916L89.0932 16.6937L91.5518 16.6979L91.5476 19.1958L89.089 19.1916ZM89.0932 16.6937L89.0973 14.1958L91.556 14.2L91.5518 16.6979L89.0932 16.6937ZM89.0932 14.1958L89.0973 11.7603L91.556 11.7645L91.5518 14.2L89.0932 14.1958Z" fill="white"/>
    <path d="M89.0725 31.5938L89.0767 29.1583L91.5855 29.1625L91.5814 31.598L89.0725 31.5938ZM89.0767 29.1583L89.0809 26.6604L91.5897 26.6646L91.5855 29.1625L89.0767 29.1583ZM89.0809 26.6604L89.0851 24.175L91.5939 24.1792L91.5897 26.6646L89.0809 26.6604ZM89.0809 24.175L89.0851 21.6771L91.5939 21.6812L91.5897 24.1792L89.0809 24.175ZM89.0851 21.6771L89.0892 19.1916L91.5981 19.1958L91.5939 21.6812L89.0851 21.6771ZM89.0892 19.1916L89.0934 16.6937L91.6023 16.6979L91.5981 19.1958L89.0892 19.1916ZM89.0934 16.6937L89.0976 14.1958L91.6064 14.2L91.6023 16.6979L89.0934 16.6937ZM89.0934 14.1958L89.0976 11.7603L91.6064 11.7645L91.6023 14.2L89.0934 14.1958ZM89.0976 11.7562L89.1018 9.25826L91.6106 9.26242L91.6064 11.7603L89.0976 11.7562ZM94.0777 31.598L94.0735 34.0584L91.5772 34.0543L91.5814 31.5938L94.0777 31.598ZM91.5814 31.598L91.5855 29.1625L94.0818 29.1667L94.0777 31.6021L91.5814 31.598ZM91.6064 11.7603L91.6106 9.26242L94.1069 9.26658L94.1027 11.7645L91.6064 11.7603ZM96.5865 31.6021L96.5823 34.0626L94.0735 34.0584L94.0777 31.598L96.5865 31.6021ZM94.0777 31.598L94.0818 29.1625L96.5907 29.1667L96.5865 31.6021L94.0777 31.598ZM94.1027 11.7645L94.1069 9.26658L96.6158 9.27074L96.6116 11.7687L94.1027 11.7645ZM99.0326 31.6063L99.0284 34.0667L96.5823 34.0626L96.5865 31.6021L99.0326 31.6063ZM96.5865 31.6021L96.5907 29.1667L99.0368 29.1708L99.0326 31.6063L96.5865 31.6021ZM96.5949 26.6687L96.599 24.1833L99.0452 24.1875L99.041 26.6729L96.5949 26.6687ZM96.5949 24.1833L96.599 21.6854L99.0452 21.6896L99.041 24.1875L96.5949 24.1833ZM96.599 21.6854L96.6032 19.2L99.0493 19.2041L99.0452 21.6896L96.599 21.6854ZM96.6032 19.2L96.6074 16.7021L99.0535 16.7062L99.0493 19.2041L96.6032 19.2ZM96.6074 16.7021L96.6116 14.2041L99.0577 14.2083L99.0535 16.7062L96.6074 16.7021ZM96.6116 11.7687L96.6158 9.27074L99.0619 9.27491L99.0577 11.7728L96.6116 11.7687ZM101.541 31.6105L101.537 34.0709L99.0284 34.0667L99.0326 31.6063L101.541 31.6105ZM99.0326 31.6063L99.0368 29.1708L101.546 29.175L101.541 31.6105L99.0326 31.6063ZM99.041 26.6729L99.0452 24.1875L101.554 24.1916L101.55 26.6771L99.041 26.6729ZM99.0452 24.1875L99.0493 21.6896L101.558 21.6937L101.554 24.1916L99.0452 24.1875ZM99.0452 21.6896L99.0493 19.2041L101.558 19.2083L101.554 21.6937L99.0452 21.6896ZM99.0493 19.2041L99.0535 16.7062L101.562 16.7104L101.558 19.2083L99.0493 19.2041ZM99.0535 16.7062L99.0577 14.2083L101.567 14.2125L101.562 16.7104L99.0535 16.7062ZM99.0577 11.7687L99.0619 9.27074L101.571 9.27491L101.567 11.7728L99.0577 11.7687ZM104.05 31.6105L104.046 34.0709L101.537 34.0667L101.541 31.6063L104.05 31.6105ZM101.541 31.6105L101.546 29.175L104.054 29.1792L104.05 31.6146L101.541 31.6105ZM101.554 24.1875L101.558 21.6896L104.067 21.6937L104.063 24.1916L101.554 24.1875ZM101.554 21.6896L101.558 19.2041L104.067 19.2083L104.063 21.6937L101.554 21.6896ZM101.558 19.2041L101.562 16.7062L104.071 16.7104L104.067 19.2083L101.558 19.2041ZM101.567 11.7728L101.571 9.27491L104.08 9.27907L104.075 11.777L101.567 11.7728ZM106.547 31.6146L106.542 34.0751L104.046 34.0709L104.05 31.6105L106.547 31.6146ZM104.05 31.6105L104.054 29.175L106.551 29.1792L106.547 31.6146L104.05 31.6105ZM104.054 29.175L104.059 26.6771L106.555 26.6812L106.551 29.1792L104.054 29.175ZM104.075 14.2125L104.08 11.777L106.576 11.7812L106.572 14.2166L104.075 14.2125ZM104.075 11.777L104.08 9.27907L106.576 9.28323L106.572 11.7812L104.075 11.777ZM109.055 31.6188L109.051 34.0792L106.542 34.0751L106.547 31.6146L109.055 31.6188ZM106.547 31.6146L106.551 29.1792L109.06 29.1833L109.055 31.6188L106.547 31.6146ZM106.551 29.1792L106.555 26.6812L109.064 26.6854L109.06 29.1833L106.551 29.1792ZM106.555 26.6812L106.559 24.1958L109.068 24.2L109.064 26.6854L106.555 26.6812ZM106.568 16.7145L106.572 14.2166L109.081 14.2208L109.076 16.7187L106.568 16.7145ZM106.572 14.2166L106.576 11.7812L109.085 11.7853L109.081 14.2208L106.572 14.2166ZM109.055 31.6188L109.06 29.1833L111.556 29.1875L111.552 31.6229L109.055 31.6188ZM109.06 29.1833L109.064 26.6854L111.56 26.6896L111.556 29.1875L109.06 29.1833ZM109.064 26.6854L109.068 24.2L111.564 24.2041L111.56 26.6896L109.064 26.6854ZM109.068 24.2L109.072 21.7021L111.568 21.7062L111.564 24.2041L109.068 24.2ZM109.068 21.7021L109.072 19.2166L111.568 19.2208L111.564 21.7062L109.068 21.7021ZM109.072 19.2166L109.076 16.7187L111.573 16.7229L111.568 19.2208L109.072 19.2166ZM109.076 16.7187L109.081 14.2208L111.577 14.2249L111.573 16.7229L109.076 16.7187ZM111.556 29.1833L111.56 26.6854L114.019 26.6896L114.015 29.1875L111.556 29.1833ZM111.56 26.6854L111.564 24.2L114.023 24.2041L114.019 26.6896L111.56 26.6854ZM111.564 24.2L111.568 21.7021L114.027 21.7062L114.023 24.2041L111.564 24.2ZM111.564 21.7021L111.568 19.2166L114.027 19.2208L114.023 21.7062L111.564 21.7021ZM111.568 19.2166L111.573 16.7187L114.031 16.7229L114.027 19.2208L111.568 19.2166Z" fill="white"/>
    <path d="M111.552 31.6229L111.556 29.1875L114.065 29.1916L114.06 31.6271L111.552 31.6229ZM111.556 29.1833L111.56 26.6854L114.069 26.6896L114.065 29.1875L111.556 29.1833ZM111.56 26.6854L111.564 24.2L114.073 24.2041L114.069 26.6896L111.56 26.6854ZM111.564 24.2L111.568 21.7021L114.077 21.7062L114.073 24.2041L111.564 24.2ZM111.564 21.7021L111.568 19.2166L114.077 19.2208L114.073 21.7062L111.564 21.7021ZM111.568 19.2166L111.572 16.7187L114.081 16.7229L114.077 19.2208L111.568 19.2166ZM111.572 16.7187L111.577 14.2208L114.085 14.225L114.081 16.7229L111.572 16.7187ZM111.577 14.2208L111.581 11.7853L114.09 11.7895L114.085 14.225L111.577 14.2208ZM111.577 11.7853L111.581 9.2874L114.09 9.29156L114.085 11.7895L111.577 11.7853ZM116.557 31.6271L116.552 34.0876L114.056 34.0834L114.06 31.6229L116.557 31.6271ZM114.06 31.6229L114.065 29.1875L116.561 29.1916L116.557 31.6271L114.06 31.6229ZM114.085 11.7895L114.09 9.29156L116.586 9.29573L116.582 11.7936L114.085 11.7895ZM119.066 31.6313L119.061 34.0917L116.552 34.0876L116.557 31.6271L119.066 31.6313ZM116.557 31.6271L116.561 29.1916L119.07 29.1958L119.066 31.6313L116.557 31.6271ZM116.582 11.7936L116.586 9.29573L119.095 9.29989L119.091 11.7978L116.582 11.7936ZM121.516 31.6354L121.512 34.0959L119.066 34.0917L119.07 31.6313L121.516 31.6354ZM119.066 31.6313L119.07 29.1958L121.516 29.2L121.512 31.6354L119.066 31.6313ZM119.07 29.1958L119.074 26.6979L121.52 26.702L121.516 29.2L119.07 29.1958ZM119.074 26.6979L119.078 24.2125L121.524 24.2166L121.52 26.702L119.074 26.6979ZM119.078 24.2125L119.082 21.7145L121.528 21.7187L121.524 24.2166L119.078 24.2125ZM119.082 19.2291L119.086 16.7312L121.533 16.7354L121.528 19.2333L119.082 19.2291ZM119.086 16.7312L119.091 14.2333L121.537 14.2374L121.533 16.7354L119.086 16.7312ZM119.091 11.7936L119.095 9.29573L121.541 9.29989L121.537 11.7978L119.091 11.7936ZM124.025 31.6354L124.02 34.0959L121.512 34.0917L121.516 31.6313L124.025 31.6354ZM121.516 31.6354L121.52 29.2L124.029 29.2041L124.025 31.6396L121.516 31.6354ZM121.516 29.1958L121.52 26.6979L124.029 26.702L124.025 29.2L121.516 29.1958ZM121.52 26.6979L121.524 24.2125L124.033 24.2166L124.029 26.702L121.52 26.6979ZM121.524 24.2125L121.528 21.7145L124.037 21.7187L124.033 24.2166L121.524 24.2125ZM121.528 19.2291L121.533 16.7312L124.041 16.7354L124.037 19.2333L121.528 19.2291ZM121.533 16.7312L121.537 14.2333L124.046 14.2374L124.041 16.7354L121.533 16.7312ZM121.541 11.7978L121.545 9.29989L124.054 9.30405L124.05 11.802L121.541 11.7978ZM124.025 31.6354L124.029 29.2L126.538 29.2041L126.534 31.6396L124.025 31.6354ZM124.025 29.2L124.029 26.702L126.538 26.7062L126.534 29.2041L124.025 29.2ZM124.029 26.702L124.033 24.2166L126.542 24.2208L126.538 26.7062L124.029 26.702ZM124.033 24.2166L124.037 21.7187L126.546 21.7229L126.542 24.2208L124.033 24.2166ZM124.037 19.2333L124.041 16.7354L126.55 16.7395L126.546 19.2374L124.037 19.2333ZM124.041 16.7354L124.046 14.2374L126.554 14.2416L126.55 16.7395L124.041 16.7354ZM124.05 11.802L124.054 9.30405L126.563 9.30822L126.559 11.8061L124.05 11.802ZM129.03 31.6438L129.026 34.1042L126.529 34.1L126.534 31.6396L129.03 31.6438ZM126.529 31.6396L126.534 29.2041L129.03 29.2083L129.026 31.6438L126.529 31.6396ZM126.554 11.8061L126.559 9.30822L129.055 9.31238L129.051 11.8103L126.554 11.8061ZM131.539 31.6479L131.534 34.1084L129.026 34.1042L129.03 31.6438L131.539 31.6479ZM129.03 31.6438L129.034 29.2083L131.543 29.2125L131.539 31.6479L129.03 31.6438ZM129.042 21.727L129.047 19.2416L131.555 19.2458L131.551 21.7312L129.042 21.727ZM129.051 14.2458L129.055 11.8103L131.564 11.8145L131.56 14.2499L129.051 14.2458ZM129.051 11.8061L129.055 9.30822L131.564 9.31238L131.56 11.8103L129.051 11.8061ZM134.035 31.6479L134.031 34.1084L131.534 34.1042L131.539 31.6479H134.035ZM131.539 31.6479L131.543 29.2125L134.039 29.2166L134.035 31.6479H131.539ZM131.539 29.2083L131.543 26.7104L134.039 26.7145L134.035 29.2125L131.539 29.2083ZM131.543 26.7104L131.547 24.2249L134.043 24.2291L134.039 26.7145L131.543 26.7104ZM131.547 24.2249L131.551 21.727L134.047 21.7312L134.043 24.2291L131.547 24.2249ZM131.551 21.727L131.555 19.2416L134.052 19.2458L134.047 21.7312L131.551 21.727ZM131.551 19.2416L131.555 16.7437L134.052 16.7478L134.047 19.2458L131.551 19.2416ZM131.555 16.7437L131.56 14.2458L134.056 14.2499L134.052 16.7478L131.555 16.7437ZM131.56 14.2458L131.564 11.8103L134.06 11.8145L134.056 14.2499L131.56 14.2458ZM136.494 31.6521L136.489 34.1125L134.031 34.1084L134.035 31.6479L136.494 31.6521ZM134.035 31.6479L134.039 29.2125L136.498 29.2166L136.494 31.6521L134.035 31.6479ZM134.035 29.2125L134.039 26.7145L136.498 26.7187L136.494 29.2166L134.035 29.2125ZM134.039 26.7145L134.043 24.2291L136.502 24.2333L136.498 26.7187L134.039 26.7145ZM134.043 24.2291L134.047 21.7312L136.506 21.7354L136.502 24.2333L134.043 24.2291ZM134.047 21.7312L134.052 19.2458L136.51 19.2499L136.506 21.7354L134.047 21.7312ZM134.047 19.2458L134.052 16.7478L136.51 16.752L136.506 19.2499L134.047 19.2458ZM134.052 16.7478L134.056 14.2499L136.515 14.2541L136.51 16.752L134.052 16.7478Z" fill="white"/>
    <path d="M134.035 31.6479L134.039 29.2125L136.548 29.2166L136.544 31.6521L134.035 31.6479ZM134.035 29.2125L134.039 26.7145L136.548 26.7187L136.544 29.2166L134.035 29.2125ZM134.039 26.7145L134.044 24.2291L136.552 24.2333L136.548 26.7187L134.039 26.7145ZM134.044 24.2291L134.048 21.7312L136.557 21.7354L136.552 24.2333L134.044 24.2291ZM134.048 21.7312L134.052 19.2458L136.561 19.2499L136.557 21.7354L134.048 21.7312ZM134.048 19.2458L134.052 16.7479L136.561 16.752L136.557 19.2499L134.048 19.2458ZM134.052 16.7479L134.056 14.2499L136.565 14.2541L136.561 16.752L134.052 16.7479ZM134.056 14.2499L134.06 11.8145L136.569 11.8186L136.565 14.2541L134.056 14.2499ZM139.04 31.6563L139.036 34.1167L136.54 34.1125L136.544 31.6521L139.04 31.6563ZM136.544 31.6521L136.548 29.2166L139.044 29.2208L139.04 31.6563L136.544 31.6521ZM136.565 14.2541L136.569 11.8186L139.065 11.8228L139.061 14.2583L136.565 14.2541ZM136.569 11.8186L136.573 9.32071L139.07 9.32487L139.065 11.8228L136.569 11.8186ZM141.549 31.6604L141.545 34.1209L139.036 34.1167L139.04 31.6563L141.549 31.6604ZM139.04 31.6563L139.044 29.2208L141.553 29.225L141.549 31.6604L139.04 31.6563ZM139.065 11.8186L139.07 9.32071L141.578 9.32487L141.574 11.8228L139.065 11.8186ZM143.995 31.6604L143.991 34.1209L141.545 34.1167L141.549 31.6563L143.995 31.6604ZM141.549 31.6604L141.553 29.225L143.999 29.2291L143.995 31.6646L141.549 31.6604ZM141.549 29.2208L141.553 26.7229L143.999 26.727L143.995 29.225L141.549 29.2208ZM141.553 26.7229L141.558 24.2374L144.004 24.2416L143.999 26.727L141.553 26.7229ZM141.562 21.7395L141.566 19.2541L144.012 19.2583L144.008 21.7437L141.562 21.7395ZM141.562 19.2541L141.566 16.7562L144.012 16.7603L144.008 19.2583L141.562 19.2541ZM141.566 16.7562L141.57 14.2583L144.016 14.2624L144.012 16.7603L141.566 16.7562ZM141.574 11.8228L141.578 9.32487L144.025 9.32904L144.02 11.827L141.574 11.8228ZM146.504 31.6646L146.5 34.125L143.991 34.1209L143.995 31.6604L146.504 31.6646ZM143.995 31.6604L143.999 29.225L146.508 29.2291L146.504 31.6646L143.995 31.6604ZM143.999 29.225L144.004 26.727L146.512 26.7312L146.508 29.2291L143.999 29.225ZM143.999 26.727L144.004 24.2416L146.512 24.2458L146.508 26.7312L143.999 26.727ZM144.008 21.7437L144.012 19.2583L146.521 19.2624L146.517 21.7479L144.008 21.7437ZM144.012 19.2583L144.016 16.7603L146.525 16.7645L146.521 19.2624L144.012 19.2583ZM144.012 16.7603L144.016 14.2624L146.525 14.2666L146.521 16.7645L144.012 16.7603ZM144.02 11.827L144.025 9.32904L146.533 9.3332L146.529 11.8311L144.02 11.827ZM146.504 31.6646L146.508 29.2291L149.017 29.2333L149.013 31.6688L146.504 31.6646ZM146.508 29.2291L146.512 26.7312L149.021 26.7354L149.017 29.2333L146.508 29.2291ZM146.508 26.7312L146.512 24.2458L149.021 24.2499L149.017 26.7354L146.508 26.7312ZM146.517 21.7479L146.521 19.2624L149.03 19.2666L149.025 21.752L146.517 21.7479ZM146.521 19.2624L146.525 16.7645L149.034 16.7687L149.03 19.2666L146.521 19.2624ZM146.521 16.7645L146.525 14.2666L149.034 14.2708L149.03 16.7687L146.521 16.7645ZM146.529 11.8311L146.533 9.3332L149.042 9.33736L149.038 11.8353L146.529 11.8311ZM151.509 31.6729L151.505 34.1334L149.009 34.1292L149.013 31.6688L151.509 31.6729ZM149.013 31.6688L149.017 29.2333L151.513 29.2374L151.509 31.6729L149.013 31.6688ZM149.038 11.8311L149.042 9.3332L151.539 9.33736L151.534 11.8353L149.038 11.8311ZM154.018 31.6729L154.014 34.1334L151.505 34.1292L151.509 31.6688L154.018 31.6729ZM151.509 31.6729L151.513 29.2374L154.022 29.2416L154.018 31.6771L151.509 31.6729ZM151.53 14.2708L151.534 11.8353L154.043 11.8394L154.039 14.2749L151.53 14.2708ZM151.534 11.8353L151.539 9.33736L154.047 9.34153L154.043 11.8394L151.534 11.8353ZM156.514 31.6771L156.51 34.1375L154.014 34.1334L154.018 31.6729L156.514 31.6771ZM154.018 31.6729L154.022 29.2374L156.519 29.2416L156.514 31.6771L154.018 31.6729ZM154.022 29.2374L154.026 26.7395L156.523 26.7437L156.519 29.2416L154.022 29.2374ZM154.022 26.7395L154.026 24.2541L156.523 24.2583L156.519 26.7437L154.022 26.7395ZM154.026 24.2541L154.031 21.7562L156.527 21.7603L156.523 24.2583L154.026 24.2541ZM154.031 21.7562L154.035 19.2708L156.531 19.2749L156.527 21.7603L154.031 21.7562ZM154.035 19.2708L154.039 16.7728L156.535 16.777L156.531 19.2749L154.035 19.2708ZM154.035 16.7728L154.039 14.2749L156.535 14.2791L156.531 16.777L154.035 16.7728ZM154.039 14.2749L154.043 11.8394L156.539 11.8436L156.535 14.2791L154.039 14.2749ZM158.973 31.6812L158.969 34.1417L156.51 34.1375L156.514 31.6771L158.973 31.6812ZM156.514 31.6771L156.519 29.2416L158.977 29.2458L158.973 31.6812L156.514 31.6771ZM156.519 29.2416L156.523 26.7437L158.981 26.7479L158.977 29.2458L156.519 29.2416ZM156.519 26.7437L156.523 24.2583L158.981 24.2624L158.977 26.7479L156.519 26.7437ZM156.523 24.2583L156.527 21.7603L158.986 21.7645L158.981 24.2624L156.523 24.2583ZM156.527 21.7603L156.531 19.2749L158.99 19.2791L158.986 21.7645L156.527 21.7603ZM156.531 19.2749L156.535 16.777L158.994 16.7812L158.99 19.2791L156.531 19.2749ZM156.531 16.777L156.535 14.2791L158.994 14.2832L158.99 16.7812L156.531 16.777Z" fill="white"/>
    <path d="M156.514 31.6771L156.518 29.2416L159.027 29.2458L159.023 31.6812L156.514 31.6771ZM156.518 29.2416L156.523 26.7437L159.031 26.7478L159.027 29.2458L156.518 29.2416ZM156.518 26.7437L156.523 24.2582L159.031 24.2624L159.027 26.7478L156.518 26.7437ZM156.523 24.2582L156.527 21.7603L159.036 21.7645L159.031 24.2624L156.523 24.2582ZM156.527 21.7603L156.531 19.2749L159.04 19.2791L159.036 21.7645L156.527 21.7603ZM156.531 19.2749L156.535 16.777L159.044 16.7811L159.04 19.2791L156.531 19.2749ZM156.531 16.777L156.535 14.2791L159.044 14.2832L159.04 16.7811L156.531 16.777ZM156.535 14.2791L156.539 11.8436L159.048 11.8478L159.044 14.2832L156.535 14.2791ZM156.539 11.8436L156.543 9.34567L159.052 9.34984L159.048 11.8478L156.539 11.8436ZM161.519 31.6854L161.515 34.1458L159.019 34.1417L159.023 31.6812L161.519 31.6854ZM159.023 31.6812L159.027 29.2458L161.523 29.2499L161.519 31.6854L159.023 31.6812ZM159.048 11.8436L159.052 9.34567L161.549 9.34984L161.544 11.8478L159.048 11.8436ZM164.028 31.6854L164.024 34.1458L161.515 34.1417L161.519 31.6812L164.028 31.6854ZM161.519 31.6854L161.523 29.2499L164.032 29.2541L164.028 31.6896L161.519 31.6854ZM161.544 11.8478L161.549 9.34984L164.057 9.354L164.053 11.8519L161.544 11.8478ZM166.474 31.6896L166.47 34.15L164.024 34.1458L164.028 31.6854L166.474 31.6896ZM164.028 31.6854L164.032 29.2499L166.478 29.2541L166.474 31.6896L164.028 31.6854ZM164.032 29.2499L164.037 26.752L166.483 26.7562L166.478 29.2541L164.032 29.2499ZM164.041 21.7687L164.045 19.2832L166.491 19.2874L166.487 21.7728L164.041 21.7687ZM164.045 19.2832L164.049 16.7853L166.495 16.7895L166.491 19.2874L164.045 19.2832ZM164.049 16.7853L164.053 14.2874L166.499 14.2916L166.495 16.7895L164.049 16.7853ZM164.049 14.2874L164.053 11.8519L166.499 11.8561L166.495 14.2916L164.049 14.2874ZM164.053 11.8519L164.057 9.354L166.504 9.35816L166.499 11.8561L164.053 11.8519ZM168.983 31.6937L168.979 34.1542L166.47 34.15L166.474 31.6896L168.983 31.6937ZM166.474 31.6896L166.478 29.2541L168.987 29.2582L168.983 31.6937L166.474 31.6896ZM166.478 29.2541L166.483 26.7562L168.991 26.7603L168.987 29.2582L166.478 29.2541ZM166.483 26.7562L166.487 24.2707L168.996 24.2749L168.991 26.7603L166.483 26.7562ZM166.491 19.2874L166.495 16.7895L169.004 16.7936L169 19.2916L166.491 19.2874ZM166.495 16.7895L166.499 14.2916L169.008 14.2957L169.004 16.7936L166.495 16.7895ZM166.495 14.2916L166.499 11.8561L169.008 11.8602L169.004 14.2957L166.495 14.2916ZM168.983 31.6937L168.987 29.2582L171.496 29.2624L171.492 31.6979L168.983 31.6937ZM168.987 29.2582L168.991 26.7603L171.5 26.7645L171.496 29.2624L168.987 29.2582ZM168.996 21.777L169 19.2916L171.509 19.2957L171.504 21.7811L168.996 21.777ZM169 19.2874L169.004 16.7895L171.513 16.7936L171.509 19.2916L169 19.2874ZM169.004 16.7895L169.008 14.2916L171.517 14.2957L171.513 16.7936L169.004 16.7895ZM169.004 14.2916L169.008 11.8561L171.517 11.8602L171.513 14.2957L169.004 14.2916ZM169.008 11.8561L169.012 9.35816L171.521 9.36233L171.517 11.8602L169.008 11.8561ZM173.988 31.6979L173.984 34.1583L171.488 34.1542L171.492 31.6937L173.988 31.6979ZM171.492 31.6979L171.496 29.2624L173.992 29.2666L173.988 31.702L171.492 31.6979ZM171.517 11.8602L171.521 9.36233L174.018 9.36649L174.013 11.8644L171.517 11.8602ZM176.497 31.702L176.493 34.1625L173.984 34.1583L173.988 31.6979L176.497 31.702ZM173.988 31.6979L173.992 29.2624L176.501 29.2666L176.497 31.702L173.988 31.6979ZM174.013 11.8644L174.018 9.36649L176.526 9.37065L176.522 11.8686L174.013 11.8644ZM178.993 31.7062L178.989 34.1667L176.493 34.1625L176.497 31.702L178.993 31.7062ZM176.497 31.702L176.501 29.2666L178.998 29.2707L178.993 31.7062L176.497 31.702ZM176.501 29.2666L176.505 26.7687L179.002 26.7728L178.998 29.2707L176.501 29.2666ZM176.505 26.7687L176.51 24.2832L179.006 24.2874L179.002 26.7728L176.505 26.7687ZM176.505 24.2832L176.51 21.7853L179.006 21.7895L179.002 24.2874L176.505 24.2832ZM176.51 21.7853L176.514 19.2999L179.01 19.304L179.006 21.7895L176.51 21.7853ZM176.514 19.2999L176.518 16.802L179.014 16.8061L179.01 19.304L176.514 19.2999ZM176.518 16.802L176.522 14.304L179.018 14.3082L179.014 16.8061L176.518 16.802ZM176.518 14.304L176.522 11.8686L179.018 11.8727L179.014 14.3082L176.518 14.304ZM176.522 11.8686L176.526 9.37065L179.023 9.37481L179.018 11.8727L176.522 11.8686ZM181.452 31.7104L181.448 34.1708L178.989 34.1667L178.993 31.7062L181.452 31.7104ZM178.993 31.7062L178.998 29.2707L181.456 29.2749L181.452 31.7104L178.993 31.7062ZM178.998 29.2707L179.002 26.7728L181.46 26.777L181.456 29.2749L178.998 29.2707ZM179.002 26.7728L179.006 24.2874L181.465 24.2916L181.46 26.777L179.002 26.7728ZM179.002 24.2874L179.006 21.7895L181.465 21.7936L181.46 24.2916L179.002 24.2874ZM179.006 21.7895L179.01 19.304L181.469 19.3082L181.465 21.7936L179.006 21.7895ZM179.01 19.2999L179.014 16.802L181.473 16.8061L181.469 19.304L179.01 19.2999ZM179.014 16.802L179.018 14.304L181.477 14.3082L181.473 16.8061L179.014 16.802ZM179.018 14.304L179.023 11.8686L181.481 11.8727L181.477 14.3082L179.018 14.304Z" fill="white"/>
</svg>
